<?xml version="1.0" standalone="no"?>
<!DOCTYPE svg PUBLIC "-//W3C//DTD SVG 1.1//EN" "http://www.w3.org/Graphics/SVG/1.1/DTD/svg11.dtd" >
<svg xmlns="http://www.w3.org/2000/svg" xmlns:xlink="http://www.w3.org/1999/xlink" version="1.1">
<metadata>
Created by FontForge 20190801 at Wed May  1 20:50:09 2013
 By Jimmy Wärting
Copyright (c) 1991, 2002 Adobe Systems Incorporated.  All Rights Reserved. (c) 1981, 2002 Heidelberger Druckmaschinen AG. All rights reserved.
</metadata>
<defs>
<font id="PalatinoLTStd-LightItalic" horiz-adv-x="500" >
  <font-face 
    font-family="Palatino LT Std Light"
    font-weight="300"
    font-style="italic"
    font-stretch="normal"
    units-per-em="1000"
    panose-1="2 4 4 2 5 3 5 10 3 4"
    ascent="800"
    descent="-200"
    x-height="476"
    cap-height="692"
    bbox="-151 -273 1130 1035"
    underline-thickness="50"
    underline-position="-100"
    stemh="48"
    stemv="66"
    unicode-range="U+0020-FB02"
  />
<missing-glyph horiz-adv-x="576" 
d="M76 0v700h500v-700h-500zM326 395l170 255h-340zM356 350l170 -255v510zM156 50h340l-170 255zM126 605v-510l170 255z" />
    <glyph glyph-name="fi" unicode="fi" horiz-adv-x="519" 
d="M417 634c0 39 26 66 51 66s33 -16 33 -33c0 -39 -26 -66 -51 -66s-33 16 -33 33zM206 534l-17 -99h156c44 25 71 41 88 41c18 0 27 -6 27 -26c0 -16 -6 -38 -13 -68l-61 -245c-7 -31 -13 -57 -13 -74c0 -16 3 -21 12 -21c6 0 20 7 41 22l42 30h3l8 -17v-3l-41 -28
c-44 -30 -85 -58 -107 -58c-24 0 -27 21 -27 35c0 18 4 40 10 67l61 246c6 27 10 54 10 64c0 8 -2 13 -12 13c-16 0 -36 -5 -60 -19l-12 -7h-121l-52 -278c-19 -102 -37 -199 -84 -267c-18 -26 -76 -115 -145 -115c-23 0 -35 5 -45 10c7 16 16 51 20 71l8 6
c8 -12 29 -30 61 -30c50 0 68 61 82 109c14 47 26 108 38 178l57 316h-16c-25 0 -52 -2 -66 -5l-3 3l3 16l4 4c31 4 65 21 85 36l15 84c9 53 21 79 60 116c44 40 106 86 149 86c24 0 43 -4 53 -7c-8 -18 -20 -59 -22 -77l-12 -4c-10 17 -33 34 -63 34
c-53 0 -85 -44 -101 -139z" />
    <glyph glyph-name="fl" unicode="fl" horiz-adv-x="519" 
d="M206 534l-17 -99h20c36 0 73 3 84 8l7 -11c-7 -12 -16 -32 -18 -46l-4 -3c-23 2 -51 4 -75 4h-23l-52 -278c-19 -102 -37 -199 -84 -267c-18 -26 -76 -115 -145 -115c-23 0 -35 5 -45 10c7 16 16 51 20 71l8 6c8 -12 29 -30 61 -30c50 0 68 61 82 109
c14 47 26 108 38 178l57 316h-16c-25 0 -52 -2 -66 -5l-3 3l3 16l4 4c31 4 65 21 85 36l15 84c9 53 21 79 60 116c44 40 106 86 149 86c24 0 43 -4 53 -7c-2 -5 -5 -12 -8 -23c41 5 85 16 112 30l8 -8c-8 -24 -20 -78 -33 -140l-79 -383c-10 -55 -21 -109 -21 -138
c0 -9 2 -16 9 -16c10 0 31 13 85 52h3l8 -16v-3c-70 -48 -121 -87 -154 -87c-14 0 -26 6 -26 27c0 25 16 77 31 157l68 334c11 56 22 118 22 141c0 14 -6 20 -42 21c-2 -9 -4 -18 -5 -25l-12 -4c-10 17 -33 34 -63 34c-53 0 -85 -44 -101 -139z" />
    <glyph glyph-name="Amacronbindu" unicode="&#x100;&#x310;" horiz-adv-x="667" 
d="M42 76l366 624h45l105 -591c6 -32 9 -58 19 -71c6 -8 20 -12 40 -13l27 -2l3 -3l-5 -20l-3 -3c-26 1 -65 3 -107 3c-39 0 -81 -2 -127 -3l-3 3l3 20l3 3l42 2c24 1 35 8 40 19c4 10 0 34 -6 73l-26 158c-30 1 -77 2 -127 2s-93 -1 -127 -2l-94 -174
c-13 -24 -21 -38 -21 -54s10 -20 50 -22l35 -2l3 -3l-4 -20l-3 -3c-46 1 -84 3 -115 3c-28 0 -71 -2 -106 -3l-3 3l2 20l3 3l25 2c25 2 45 15 66 51zM453 310l-52 307h-2l-177 -307c31 -2 71 -3 118 -3c46 0 87 1 113 3zM297 767l8 40h283l-8 -40h-283zM643 983h-31
c-53 -55 -104 -82 -153 -82s-70 27 -65 82h-31c-16 -72 2 -117 73 -120c38 2 75 14 112 37c38 24 70 52 95 83zM449 990c14 25 47 45 72 45s35 -20 21 -45s-47 -45 -72 -45s-35 20 -21 45z" />
    <glyph glyph-name="amacronbindu" unicode="&#x101;&#x310;" horiz-adv-x="481" 
d="M428 476l8 -8c-36 -74 -97 -378 -97 -400c0 -18 5 -26 13 -26c12 0 27 7 53 26l29 23h3l7 -16v-3l-43 -33c-38 -29 -75 -51 -104 -51c-19 0 -24 13 -24 27c0 27 23 136 29 166l-2 2c-56 -83 -172 -195 -236 -195c-30 0 -44 30 -44 86c0 130 65 265 89 302
c13 19 106 100 190 100c46 0 75 -9 98 -20zM86 82c0 -25 4 -40 22 -40c46 0 147 107 191 178c20 33 52 173 55 195c-19 7 -47 13 -68 13c-54 0 -87 -3 -105 -21c-14 -14 -35 -51 -54 -112c-18 -57 -41 -129 -41 -213zM177 576l8 40h283l-8 -40h-283zM533 803h-31
c-53 -55 -104 -82 -153 -82s-70 27 -65 82h-31c-16 -72 2 -117 73 -120c38 2 75 14 112 37c38 24 70 52 95 83zM339 810c14 25 47 45 72 45s35 -20 21 -45s-47 -45 -72 -45s-35 20 -21 45z" />
    <glyph glyph-name="Imacronbindu" unicode="&#x12a;&#x310;" horiz-adv-x="315" 
d="M99 125l77 439c5 26 8 48 8 69c0 14 -5 29 -42 31l-47 2l-3 3l4 20l3 3c39 -1 80 -2 122 -3c47 1 93 2 135 3l3 -3l-3 -20l-3 -3l-38 -2c-49 -3 -51 -10 -61 -66l-81 -465c-6 -40 -10 -64 -10 -76c0 -18 10 -31 40 -32l52 -2l3 -3l-4 -20l-3 -3c-43 1 -88 3 -133 3
c-43 0 -87 -2 -127 -3l-3 3l4 20l3 3l48 2c40 2 45 35 56 100zM99 769l8 40h283l-8 -40h-283zM453 983h-31c-53 -55 -104 -82 -153 -82s-70 27 -65 82h-31c-16 -72 2 -117 73 -120c38 2 75 14 112 37c38 24 70 52 95 83zM259 990c14 25 47 45 72 45s35 -20 21 -45
s-47 -45 -72 -45s-35 20 -21 45z" />
    <glyph glyph-name="imacronbindu" unicode="&#x12b;&#x310;" horiz-adv-x="278" 
d="M66 90l61 246c6 27 10 54 10 64c0 8 -2 13 -9 13c-10 0 -29 -11 -52 -25l-32 -20h-3l-6 14v3l32 23c61 44 97 68 118 68c18 0 27 -6 27 -26c0 -16 -6 -38 -13 -68l-61 -245c-7 -31 -13 -57 -13 -74c0 -16 3 -21 12 -21c6 0 20 7 41 22l42 30h3l8 -17v-3l-41 -28
c-44 -30 -85 -58 -107 -58c-24 0 -27 21 -27 35c0 18 4 40 10 67zM29 577l8 40h283l-8 -40h-283zM373 803h-31c-53 -55 -104 -82 -153 -82s-70 27 -65 82h-31c-16 -72 2 -117 73 -120c38 2 75 14 112 37c38 24 70 52 95 83zM179 810c14 25 47 45 72 45s35 -20 21 -45
s-47 -45 -72 -45s-35 20 -21 45z" />
    <glyph glyph-name="Umacronbindu" unicode="&#x16a;&#x310;" horiz-adv-x="741" 
d="M111 276l46 272c5 32 11 64 11 80c0 20 -7 33 -49 36l-37 2l-3 3l4 20l3 3c23 -1 42 -3 80 -3c44 0 76 2 90 3c-8 -26 -15 -66 -22 -106l-65 -366c-4 -23 -7 -44 -7 -70c0 -70 43 -114 129 -114c115 0 192 72 252 133l63 373c6 39 10 59 10 87c0 26 -18 32 -53 35l-34 2
l-3 3l4 20l3 3c33 -1 73 -3 122 -3c53 0 104 2 130 3l3 -3l-4 -20l-3 -3l-34 -2c-54 -3 -54 -13 -64 -71l-80 -460c-4 -26 -10 -58 -10 -72c0 -26 19 -34 55 -36l32 -2l3 -3l-4 -20l-3 -3c-23 1 -50 3 -76 3c-27 0 -53 -2 -80 -3l-6 6l23 117l-2 2
c-62 -66 -161 -137 -271 -137c-77 0 -171 40 -171 159c0 35 12 99 18 132zM166 768l8 40h493l-12 -40h-489zM633 983h-31c-53 -55 -104 -82 -153 -82s-70 27 -65 82h-31c-16 -72 2 -117 73 -120c38 2 75 14 112 37c38 24 70 52 95 83zM439 990c14 25 47 45 72 45
s35 -20 21 -45s-47 -45 -72 -45s-35 20 -21 45z" />
    <glyph glyph-name="umacronbindu" unicode="&#x16b;&#x310;" horiz-adv-x="519" 
d="M27 385l42 29c42 28 98 62 120 62c11 0 20 -8 20 -22c0 -20 -11 -49 -19 -87l-11 -48c-44 -196 -53 -222 -53 -242c0 -17 2 -29 18 -29c24 0 101 63 162 151c65 93 90 203 93 260c19 2 52 11 62 17l8 -8c-35 -90 -89 -353 -89 -395c0 -16 3 -25 14 -25c9 0 23 8 54 31
l28 20h3l6 -17v-3l-31 -23c-37 -29 -99 -68 -122 -68c-15 0 -21 8 -21 21c0 20 5 46 16 103l23 113h-2c-71 -122 -195 -237 -255 -237c-31 0 -36 24 -36 45s6 50 59 289c8 35 15 66 15 84c0 7 -1 11 -8 11c-11 0 -23 -8 -61 -33l-26 -17h-3l-6 15v3zM177 576l8 40h283
l-8 -40h-283zM523 803h-31c-53 -55 -104 -82 -153 -82s-70 27 -65 82h-31c-16 -72 2 -117 73 -120c38 2 75 14 112 37c38 24 70 52 95 83zM329 810c14 25 47 45 72 45s35 -20 21 -45s-47 -45 -72 -45s-35 20 -21 45z" />
    <glyph glyph-name="Abindu" unicode="A&#x310;" horiz-adv-x="667" 
d="M42 76l366 624h45l105 -591c6 -32 9 -58 19 -71c6 -8 20 -12 40 -13l27 -2l3 -3l-5 -20l-3 -3c-26 1 -65 3 -107 3c-39 0 -81 -2 -127 -3l-3 3l3 20l3 3l42 2c24 1 35 8 40 19c4 10 0 34 -6 73l-26 158c-30 1 -77 2 -127 2s-93 -1 -127 -2l-94 -174
c-13 -24 -21 -38 -21 -54s10 -20 50 -22l35 -2l3 -3l-4 -20l-3 -3c-46 1 -84 3 -115 3c-28 0 -71 -2 -106 -3l-3 3l2 20l3 3l25 2c25 2 45 15 66 51zM453 310l-52 307h-2l-177 -307c31 -2 71 -3 118 -3c46 0 87 1 113 3zM643 883h-31c-53 -55 -104 -82 -153 -82
s-70 27 -65 82h-31c-16 -72 2 -117 73 -120c38 2 75 14 112 37c38 24 70 52 95 83zM449 890c14 25 47 45 72 45s35 -20 21 -45s-47 -45 -72 -45s-35 20 -21 45z" />
    <glyph glyph-name="Ebindu" unicode="E&#x310;" horiz-adv-x="556" 
d="M94 129l72 410c6 37 12 70 12 87c0 23 -5 36 -42 38l-47 2l-3 3l4 20l3 3c39 -1 80 -3 122 -3c108 0 235 2 320 3l3 -3c-9 -65 -14 -112 -15 -142l-3 -3h-18l-3 3c-3 37 2 92 -16 99c-23 9 -81 10 -127 10c-48 0 -81 -1 -98 -3c-7 -28 -13 -57 -20 -97l-31 -180h95
c63 0 133 5 154 6l6 -5c-6 -12 -14 -32 -20 -44c-24 4 -88 7 -144 7h-97l-50 -303h153c70 0 132 1 149 13c14 35 27 81 32 104l3 3h18l3 -3c-8 -40 -18 -105 -24 -154l-3 -3c-86 1 -215 3 -324 3c-56 0 -121 -2 -135 -3l-3 3l4 20l3 3c35 2 47 17 51 30c5 18 11 46 16 76z
M543 883h-31c-53 -55 -104 -82 -153 -82s-70 27 -65 82h-31c-16 -72 2 -117 73 -120c38 2 75 14 112 37c38 24 70 52 95 83zM349 890c14 25 47 45 72 45s35 -20 21 -45s-47 -45 -72 -45s-35 20 -21 45z" />
    <glyph glyph-name="Ibindu" unicode="I&#x310;" horiz-adv-x="315" 
d="M99 125l77 439c5 26 8 48 8 69c0 14 -5 29 -42 31l-47 2l-3 3l4 20l3 3c39 -1 80 -2 122 -3c47 1 93 2 135 3l3 -3l-3 -20l-3 -3l-38 -2c-49 -3 -51 -10 -61 -66l-81 -465c-6 -40 -10 -64 -10 -76c0 -18 10 -31 40 -32l52 -2l3 -3l-4 -20l-3 -3c-43 1 -88 3 -133 3
c-43 0 -87 -2 -127 -3l-3 3l4 20l3 3l48 2c40 2 45 35 56 100zM443 883h-31c-53 -55 -104 -82 -153 -82s-70 27 -65 82h-31c-16 -72 2 -117 73 -120c38 2 75 14 112 37c38 24 70 52 95 83zM249 890c14 25 47 45 72 45s35 -20 21 -45s-47 -45 -72 -45s-35 20 -21 45z" />
    <glyph glyph-name="Obindu" unicode="O&#x310;" horiz-adv-x="741" 
d="M136 266c0 -134 51 -245 211 -245c194 0 288 219 288 409c0 156 -77 238 -212 238c-258 0 -287 -308 -287 -402zM58 256c0 239 140 448 399 448c178 0 256 -119 256 -258c0 -270 -179 -461 -393 -461c-183 0 -262 108 -262 271zM663 883h-31c-53 -55 -104 -82 -153 -82
s-70 27 -65 82h-31c-16 -72 2 -117 73 -120c38 2 75 14 112 37c38 24 70 52 95 83zM469 890c14 25 47 45 72 45s35 -20 21 -45s-47 -45 -72 -45s-35 20 -21 45z" />
    <glyph glyph-name="Ubindu" unicode="U&#x310;" horiz-adv-x="741" 
d="M111 276l46 272c5 32 11 64 11 80c0 20 -7 33 -49 36l-37 2l-3 3l4 20l3 3c23 -1 42 -3 80 -3c44 0 76 2 90 3c-8 -26 -15 -66 -22 -106l-65 -366c-4 -23 -7 -44 -7 -70c0 -70 43 -114 129 -114c115 0 192 72 252 133l63 373c6 39 10 59 10 87c0 26 -18 32 -53 35l-34 2
l-3 3l4 20l3 3c33 -1 73 -3 122 -3c53 0 104 2 130 3l3 -3l-4 -20l-3 -3l-34 -2c-54 -3 -54 -13 -64 -71l-80 -460c-4 -26 -10 -58 -10 -72c0 -26 19 -34 55 -36l32 -2l3 -3l-4 -20l-3 -3c-23 1 -50 3 -76 3c-27 0 -53 -2 -80 -3l-6 6l23 117l-2 2
c-62 -66 -161 -137 -271 -137c-77 0 -171 40 -171 159c0 35 12 99 18 132zM633 883h-31c-53 -55 -104 -82 -153 -82s-70 27 -65 82h-31c-16 -72 2 -117 73 -120c38 2 75 14 112 37c38 24 70 52 95 83zM439 890c14 25 47 45 72 45s35 -20 21 -45s-47 -45 -72 -45
s-35 20 -21 45z" />
    <glyph glyph-name="abindu" unicode="a&#x310;" horiz-adv-x="481" 
d="M428 476l8 -8c-36 -74 -97 -378 -97 -400c0 -18 5 -26 13 -26c12 0 27 7 53 26l29 23h3l7 -16v-3l-43 -33c-38 -29 -75 -51 -104 -51c-19 0 -24 13 -24 27c0 27 23 136 29 166l-2 2c-56 -83 -172 -195 -236 -195c-30 0 -44 30 -44 86c0 130 65 265 89 302
c13 19 106 100 190 100c46 0 75 -9 98 -20zM86 82c0 -25 4 -40 22 -40c46 0 147 107 191 178c20 33 52 173 55 195c-19 7 -47 13 -68 13c-54 0 -87 -3 -105 -21c-14 -14 -35 -51 -54 -112c-18 -57 -41 -129 -41 -213zM513 693h-31c-53 -55 -104 -82 -153 -82s-70 27 -65 82
h-31c-16 -72 2 -117 73 -120c38 2 75 14 112 37c38 24 70 52 95 83zM319 700c14 25 47 45 72 45s35 -20 21 -45s-47 -45 -72 -45s-35 20 -21 45z" />
    <glyph glyph-name="ebindu" unicode="e&#x310;" horiz-adv-x="389" 
d="M341 90l-35 -28c-50 -41 -118 -74 -180 -74c-67 0 -106 42 -106 128c0 113 48 228 78 258c58 58 116 102 196 102c52 0 84 -22 84 -75c0 -99 -118 -155 -219 -179l-64 -15c-5 -18 -9 -51 -9 -89c0 -54 21 -90 78 -90s110 34 138 57l28 23h3l8 -15v-3zM100 229l55 12
c76 16 160 76 160 145c0 34 -15 54 -53 54c-76 0 -125 -70 -147 -154zM493 693h-31c-53 -55 -104 -82 -153 -82s-70 27 -65 82h-31c-16 -72 2 -117 73 -120c38 2 75 14 112 37c38 24 70 52 95 83zM299 700c14 25 47 45 72 45s35 -20 21 -45s-47 -45 -72 -45s-35 20 -21 45z
" />
    <glyph glyph-name="ibindu" unicode="i&#x310;" horiz-adv-x="278" 
d="M66 90l61 246c6 27 10 54 10 64c0 8 -2 13 -9 13c-10 0 -29 -11 -52 -25l-32 -20h-3l-6 14v3l32 23c61 44 97 68 118 68c18 0 27 -6 27 -26c0 -16 -6 -38 -13 -68l-61 -245c-7 -31 -13 -57 -13 -74c0 -16 3 -21 12 -21c6 0 20 7 41 22l42 30h3l8 -17v-3l-41 -28
c-44 -30 -85 -58 -107 -58c-24 0 -27 21 -27 35c0 18 4 40 10 67zM169 634c0 39 26 66 51 66s33 -16 33 -33c0 -39 -26 -66 -51 -66s-33 16 -33 33zM433 883h-31c-53 -55 -104 -82 -153 -82s-70 27 -65 82h-31c-16 -72 2 -117 73 -120c38 2 75 14 112 37c38 24 70 52 95 83z
M239 890c14 25 47 45 72 45s35 -20 21 -45s-47 -45 -72 -45s-35 20 -21 45z" />
    <glyph glyph-name="obindu" unicode="o&#x310;" horiz-adv-x="444" 
d="M344 302c0 78 -21 141 -87 141c-114 0 -167 -160 -167 -296c0 -98 36 -132 91 -132c108 0 163 175 163 287zM24 144c0 173 98 332 251 332c104 0 135 -73 135 -147c0 -153 -94 -341 -258 -341c-91 0 -128 64 -128 156zM493 693h-31c-53 -55 -104 -82 -153 -82
s-70 27 -65 82h-31c-16 -72 2 -117 73 -120c38 2 75 14 112 37c38 24 70 52 95 83zM299 700c14 25 47 45 72 45s35 -20 21 -45s-47 -45 -72 -45s-35 20 -21 45z" />
    <glyph glyph-name="ubindu" unicode="u&#x310;" horiz-adv-x="519" 
d="M27 385l42 29c42 28 98 62 120 62c11 0 20 -8 20 -22c0 -20 -11 -49 -19 -87l-11 -48c-44 -196 -53 -222 -53 -242c0 -17 2 -29 18 -29c24 0 101 63 162 151c65 93 90 203 93 260c19 2 52 11 62 17l8 -8c-35 -90 -89 -353 -89 -395c0 -16 3 -25 14 -25c9 0 23 8 54 31
l28 20h3l6 -17v-3l-31 -23c-37 -29 -99 -68 -122 -68c-15 0 -21 8 -21 21c0 20 5 46 16 103l23 113h-2c-71 -122 -195 -237 -255 -237c-31 0 -36 24 -36 45s6 50 59 289c8 35 15 66 15 84c0 7 -1 11 -8 11c-11 0 -23 -8 -61 -33l-26 -17h-3l-6 15v3zM513 693h-31
c-53 -55 -104 -82 -153 -82s-70 27 -65 82h-31c-16 -72 2 -117 73 -120c38 2 75 14 112 37c38 24 70 52 95 83zM319 700c14 25 47 45 72 45s35 -20 21 -45s-47 -45 -72 -45s-35 20 -21 45z" />
    <glyph glyph-name=".notdef" horiz-adv-x="576" 
d="M76 0v700h500v-700h-500zM326 395l170 255h-340zM356 350l170 -255v510zM156 50h340l-170 255zM126 605v-510l170 255z" />
    <glyph glyph-name="space" unicode=" " horiz-adv-x="250" 
 />
    <glyph glyph-name="exclam" unicode="!" horiz-adv-x="278" 
d="M138 187l-25 -12l-8 5c17 95 57 397 63 493c26 4 68 20 85 31l7 -7c-40 -148 -94 -364 -122 -510zM56 27c0 37 26 67 52 67c25 0 36 -17 36 -39c0 -37 -26 -67 -52 -67c-25 0 -36 17 -36 39z" />
    <glyph glyph-name="quotedbl" unicode="&#x22;" horiz-adv-x="389" 
d="M348 627l-12 -146c-1 -11 -6 -25 -19 -25s-18 14 -19 25l-12 146c-2 19 -3 31 -3 42c0 12 9 35 34 35s34 -23 34 -35c0 -11 -1 -23 -3 -42zM203 627l-12 -146c-1 -11 -6 -25 -19 -25s-18 14 -19 25l-12 146c-2 19 -3 31 -3 42c0 12 9 35 34 35s34 -23 34 -35
c0 -11 -1 -23 -3 -42z" />
    <glyph glyph-name="numbersign" unicode="#" 
d="M319 256l28 155h-142l-28 -155h142zM272 -3l39 214h-142l-39 -214h-48l39 214h-111l11 45h108l28 155h-112l9 45h111l39 214h48l-39 -214h142l39 214h48l-39 -214h111l-7 -45h-112l-28 -155h112l-9 -45h-111l-39 -214h-48z" />
    <glyph glyph-name="dollar" unicode="$" 
d="M275 301l-44 -276c107 6 165 78 165 155c0 60 -23 79 -121 121zM257 391l41 258c-84 -1 -134 -60 -134 -132c0 -59 20 -91 93 -126zM80 157v-74c18 -22 63 -53 119 -58l45 289c-95 41 -140 90 -140 166c0 103 81 196 201 209c3 19 7 45 8 57l2 3h30l3 -3
c-3 -12 -8 -37 -11 -57c60 0 101 -14 139 -35l15 -7l3 -4c-14 -41 -23 -88 -28 -125l-3 -3h-21l-3 3l-6 75c-15 19 -49 50 -103 56l-43 -273l64 -26c85 -35 111 -80 111 -133c0 -133 -115 -215 -237 -229l-4 -27c-5 -30 -10 -59 -10 -75l-3 -3h-33l-3 3c5 15 12 47 16 74
l4 25c-80 0 -133 21 -162 35l-3 4c11 39 24 95 29 133l3 3h18z" />
    <glyph glyph-name="percent" unicode="%" horiz-adv-x="796" 
d="M68 448c0 111 67 235 195 235c69 0 124 -34 124 -131c0 -86 -49 -237 -193 -237c-68 0 -126 42 -126 133zM128 439c0 -57 26 -97 75 -97c96 0 124 125 124 205c0 77 -22 109 -77 109c-75 0 -122 -86 -122 -217zM441 118c0 111 67 235 195 235c69 0 124 -34 124 -131
c0 -86 -49 -237 -193 -237c-68 0 -126 42 -126 133zM501 109c0 -57 26 -97 75 -97c96 0 124 125 124 205c0 77 -22 109 -77 109c-75 0 -122 -86 -122 -217zM161 -47l448 762l3 3h39l3 -3l-448 -762l-3 -3h-39z" />
    <glyph glyph-name="ampersand" unicode="&#x26;" horiz-adv-x="722" 
d="M353 413l-19 -38c-3 2 -16 3 -28 3c-118 0 -210 -79 -210 -183c0 -120 95 -171 186 -171c145 0 247 88 247 184c0 51 -27 92 -84 92c-56 0 -77 -36 -80 -82l-3 -3h-18l-3 3l9 95c13 13 41 32 96 40l148 22c73 9 104 35 104 80c0 31 -21 47 -42 55v3l21 13h3
c12 -7 42 -30 42 -79c0 -103 -88 -124 -213 -133v-2c41 -5 80 -30 80 -89c0 -99 -138 -235 -341 -235c-140 0 -224 80 -224 188c0 122 118 204 219 218v2c-31 7 -90 21 -90 99c0 89 121 197 236 197c40 0 68 -8 84 -15l3 -5c-11 -32 -21 -84 -22 -118l-3 -3h-18l-3 3v78
c-19 12 -49 20 -81 20c-62 0 -136 -51 -136 -129c0 -65 36 -109 106 -109c10 0 23 1 31 3z" />
    <glyph glyph-name="quoteright" unicode="&#x2019;" horiz-adv-x="259" 
d="M256 704l9 -10c-25 -62 -94 -170 -143 -226l-30 -12l-6 5c38 54 79 151 94 221c23 2 60 14 76 22z" />
    <glyph glyph-name="parenleft" unicode="(" horiz-adv-x="315" 
d="M224 -110l-19 -9h-3c-69 115 -123 235 -123 379c0 196 116 357 262 477h3l13 -14v-3c-81 -71 -215 -248 -215 -503c0 -150 42 -238 82 -324v-3z" />
    <glyph glyph-name="parenright" unicode=")" horiz-adv-x="315" 
d="M111 728l19 9h3c69 -115 123 -235 123 -379c0 -196 -116 -357 -262 -477h-3l-13 14v3c81 71 215 248 215 503c0 150 -42 238 -82 324v3z" />
    <glyph glyph-name="asterisk" unicode="*" horiz-adv-x="444" 
d="M256 518l-139 67v3c14 14 28 35 34 53l3 2l112 -108l28 154h3c12 -10 38 -20 55 -22l3 -3l-71 -137l148 28l3 -3c-4 -18 -3 -47 4 -63l-3 -3l-152 20l70 -127v-3c-18 -3 -45 -17 -58 -27h-3l-29 151l-113 -103h-3c-6 20 -18 45 -29 59v3z" />
    <glyph glyph-name="plus" unicode="+" horiz-adv-x="600" 
d="M276 0v229h-229v48h229v229h48v-229h229v-48h-229v-229h-48z" />
    <glyph glyph-name="comma" unicode="," horiz-adv-x="250" 
d="M156 109l6 -7c-10 -22 -29 -61 -59 -109c-27 -43 -61 -91 -94 -128l-28 -11l-6 5c41 48 89 161 98 224c24 3 64 17 83 26z" />
    <glyph glyph-name="hyphen" unicode="-" horiz-adv-x="370" 
d="M60 214l-8 6c8 17 14 39 17 60c23 -4 63 -6 116 -6c49 0 103 2 128 6l3 -5c-8 -15 -16 -42 -19 -61c-19 3 -72 6 -118 6c-59 0 -98 -3 -119 -6z" />
    <glyph glyph-name="period" unicode="." horiz-adv-x="250" 
d="M50 27c0 37 26 67 52 67c25 0 36 -17 36 -39c0 -37 -26 -67 -52 -67c-25 0 -36 17 -36 39z" />
    <glyph glyph-name="slash" unicode="/" horiz-adv-x="259" 
d="M-29 -12l308 713l3 3h39l3 -3l-308 -713l-3 -3h-39z" />
    <glyph glyph-name="zero" unicode="0" 
d="M54 229c0 139 60 454 261 454c127 0 161 -103 161 -232c0 -175 -71 -466 -264 -466c-133 0 -159 130 -158 244zM120 192c0 -113 21 -180 101 -180c141 0 189 303 189 466c0 116 -19 178 -100 178c-126 0 -190 -235 -190 -464z" />
    <glyph glyph-name="one" unicode="1" 
d="M222 173l60 314c10 53 20 102 22 135l-198 -96l-3 2c7 16 13 45 15 64c29 2 99 24 210 68c22 9 43 18 52 23l9 -9c-22 -60 -75 -359 -107 -543c-7 -43 -10 -63 -10 -75c0 -22 7 -30 53 -31l76 -2l3 -3l-5 -20l-3 -3c-54 1 -108 3 -162 3c-55 0 -109 -2 -163 -3l-3 3l5 20
l3 3l65 2c31 1 45 6 51 21c14 35 20 73 30 127z" />
    <glyph glyph-name="two" unicode="2" 
d="M101 530l59 113c28 20 67 40 132 40c96 0 161 -59 161 -144c0 -95 -55 -180 -160 -287c-72 -74 -150 -144 -200 -191v-2c29 -1 63 -3 126 -2c73 0 135 5 188 12l4 -4c-11 -18 -16 -47 -17 -65l-3 -3c-42 1 -115 3 -181 3c-77 0 -159 -2 -209 -3l-3 3l2 15l89 81
c69 67 140 136 187 193c47 56 108 131 108 222c0 90 -63 116 -110 116c-86 0 -122 -60 -152 -107h-3l-18 7v3z" />
    <glyph glyph-name="three" unicode="3" 
d="M145 350l15 44c12 -3 28 -5 45 -5c113 0 165 69 165 150c0 56 -40 91 -100 91c-68 0 -111 -51 -137 -88h-3l-18 10v3l63 98c28 17 74 30 111 30c75 0 150 -43 150 -126c0 -77 -56 -144 -147 -174v-2c64 -4 151 -32 151 -156c0 -147 -136 -240 -276 -240
c-73 0 -115 30 -135 47c9 27 19 101 22 126l3 3h18l3 -3c-2 -10 -3 -21 -3 -32c0 -54 19 -111 109 -111c133 0 187 111 187 197c0 78 -22 147 -141 147c-29 0 -55 -7 -78 -14z" />
    <glyph glyph-name="four" unicode="4" 
d="M279 192h-149c-41 0 -78 -2 -103 -4l-3 3v19l82 119c60 87 122 166 172 233c36 50 73 95 91 111c17 2 43 6 58 10l5 -5c-10 -26 -26 -109 -37 -168l-49 -270c82 0 114 4 133 7l4 -4c-7 -12 -15 -37 -16 -54l-3 -3c-16 2 -53 6 -125 6l-12 -85c-4 -25 -5 -45 -5 -55
c0 -17 5 -25 56 -27l63 -2l3 -3l-4 -20l-3 -3c-53 1 -105 3 -158 3s-105 -2 -158 -3l-3 3l5 20l3 3l55 2c43 1 57 9 63 15c9 11 13 39 18 64zM286 240l37 200c11 66 23 129 35 173l-2 2l-34 -45c-67 -85 -209 -282 -236 -325l2 -5h198z" />
    <glyph glyph-name="five" unicode="5" 
d="M194 616l-49 -237l2 -2c31 33 77 48 131 48c116 0 165 -67 165 -155c0 -169 -129 -285 -268 -285c-84 0 -124 32 -146 52c9 33 19 99 19 128l3 3h21l3 -3c-2 -7 -3 -19 -3 -31c0 -66 30 -116 118 -116c125 0 184 120 184 228s-68 139 -119 139c-72 0 -109 -38 -132 -61
l-19 6c17 71 46 233 54 280c5 26 10 54 12 65l4 3c37 -8 89 -8 146 -8c72 0 139 2 164 8l7 -8l-35 -55c-33 -2 -81 -3 -140 -3c-50 0 -96 2 -122 4z" />
    <glyph glyph-name="six" unicode="6" 
d="M58 180c0 193 96 410 283 487c24 10 45 16 76 16s52 -7 61 -11c-8 -13 -15 -41 -16 -56l-8 -2c-10 16 -25 29 -64 29c-138 0 -222 -173 -253 -331h2c27 35 89 98 175 98c65 0 143 -39 143 -147c0 -184 -151 -278 -248 -278c-99 0 -151 84 -151 195zM124 169
c0 -79 27 -144 111 -144c79 0 156 67 156 220c0 58 -23 118 -106 118s-161 -71 -161 -194z" />
    <glyph glyph-name="seven" unicode="7" 
d="M457 610h-149c-96 0 -172 -3 -196 -6l-9 6c5 7 9 19 11 32s3 26 3 34l6 4c22 -3 57 -6 96 -8c38 -1 79 -2 113 -2c86 0 149 2 189 6l3 -3v-26c-107 -158 -241 -380 -323 -545c-21 -42 -39 -82 -45 -102l-3 -3c-13 1 -27 3 -40 3c-14 0 -28 -2 -42 -3l-4 5
c14 21 52 74 91 138z" />
    <glyph glyph-name="eight" unicode="8" 
d="M178 515c0 -73 47 -108 111 -132c70 33 121 85 121 166c0 65 -45 98 -97 98c-57 0 -135 -48 -135 -132zM41 131c0 107 88 177 181 218c-47 21 -104 52 -104 130c0 104 118 204 221 204c76 0 131 -44 131 -119c0 -117 -101 -170 -154 -194c69 -31 117 -78 117 -153
c0 -117 -120 -232 -242 -232c-95 0 -150 65 -150 146zM101 144c0 -84 52 -123 111 -123c71 0 155 54 155 171c0 71 -43 110 -119 143c-114 -52 -147 -135 -147 -191z" />
    <glyph glyph-name="nine" unicode="9" 
d="M73 3l-33 103l3 3l16 4l3 -2c12 -35 44 -86 106 -86c149 0 203 189 230 335l-2 2c-33 -49 -99 -101 -176 -101c-65 0 -143 39 -143 147c0 181 151 275 248 275c104 0 152 -92 151 -205c-2 -278 -163 -493 -327 -493c-32 0 -59 8 -76 18zM410 503c0 78 -27 140 -111 140
c-79 0 -156 -67 -156 -217c0 -58 23 -118 106 -118s161 71 161 195z" />
    <glyph glyph-name="colon" unicode=":" horiz-adv-x="250" 
d="M112 392c0 37 26 67 52 67c25 0 36 -17 36 -39c0 -37 -26 -67 -52 -67c-25 0 -36 17 -36 39zM50 27c0 37 26 67 52 67c25 0 36 -17 36 -39c0 -37 -26 -67 -52 -67c-25 0 -36 17 -36 39z" />
    <glyph glyph-name="semicolon" unicode=";" horiz-adv-x="250" 
d="M156 109l6 -7c-10 -22 -29 -61 -59 -109c-27 -43 -61 -91 -94 -128l-28 -11l-6 5c41 48 89 161 98 224c24 3 64 17 83 26zM112 392c0 37 26 67 52 67c25 0 36 -17 36 -39c0 -37 -26 -67 -52 -67c-25 0 -36 17 -36 39z" />
    <glyph glyph-name="less" unicode="&#x3c;" horiz-adv-x="600" 
d="M553 -8l-506 234v54l506 234v-55l-446 -206l446 -206v-55z" />
    <glyph glyph-name="equal" unicode="=" horiz-adv-x="600" 
d="M47 327v48h506v-48h-506zM47 131v48h506v-48h-506z" />
    <glyph glyph-name="greater" unicode="&#x3e;" horiz-adv-x="600" 
d="M47 -8v55l446 206l-446 206v55l506 -234v-54z" />
    <glyph glyph-name="question" unicode="?" horiz-adv-x="389" 
d="M207 191l-22 -6c-15 7 -38 27 -38 63c0 50 31 83 104 161c62 66 92 106 92 152c0 44 -30 89 -98 89s-92 -37 -118 -88l-3 -3l-17 7l-3 3c14 27 33 69 45 103c23 15 56 32 104 32c94 0 156 -57 156 -134c0 -73 -33 -104 -127 -192c-101 -95 -102 -113 -102 -131
c0 -31 19 -41 29 -47zM104 27c0 37 26 67 52 67c25 0 36 -17 36 -39c0 -37 -26 -67 -52 -67c-25 0 -36 17 -36 39z" />
    <glyph glyph-name="at" unicode="@" horiz-adv-x="800" 
d="M323 275c0 -66 19 -89 53 -89c44 0 145 92 145 233c0 49 -29 68 -53 68c-58 0 -145 -93 -145 -212zM633 64l14 -21c-45 -25 -136 -58 -216 -58c-272 0 -390 203 -390 344c0 224 168 375 388 375c205 0 330 -137 330 -307c0 -136 -78 -247 -192 -247c-69 0 -87 42 -90 72
h-2c-27 -40 -77 -72 -121 -72c-56 0 -103 44 -103 129c0 126 111 248 207 248c36 0 64 -19 75 -54h2l8 41h69l-69 -271c-2 -9 -3 -17 -3 -26c0 -24 20 -37 42 -37c87 0 147 92 147 216c0 149 -123 278 -298 278c-191 0 -312 -125 -312 -356c0 -149 115 -303 311 -303
c91 0 154 25 203 49z" />
    <glyph glyph-name="A" unicode="A" horiz-adv-x="667" 
d="M42 76l366 624h45l105 -591c6 -32 9 -58 19 -71c6 -8 20 -12 40 -13l27 -2l3 -3l-5 -20l-3 -3c-26 1 -65 3 -107 3c-39 0 -81 -2 -127 -3l-3 3l3 20l3 3l42 2c24 1 35 8 40 19c4 10 0 34 -6 73l-26 158c-30 1 -77 2 -127 2s-93 -1 -127 -2l-94 -174
c-13 -24 -21 -38 -21 -54s10 -20 50 -22l35 -2l3 -3l-4 -20l-3 -3c-46 1 -84 3 -115 3c-28 0 -71 -2 -106 -3l-3 3l2 20l3 3l25 2c25 2 45 15 66 51zM453 310l-52 307h-2l-177 -307c31 -2 71 -3 118 -3c46 0 87 1 113 3z" />
    <glyph glyph-name="B" unicode="B" horiz-adv-x="574" 
d="M94 129l72 410c6 37 12 70 12 87c0 23 -5 36 -42 38l-47 2l-3 3l4 20l3 3c39 -1 64 -3 106 -3c57 0 139 3 184 3c72 0 147 -37 147 -131c0 -111 -104 -177 -180 -197v-2c86 0 164 -40 164 -137c0 -121 -138 -228 -258 -228c-38 0 -85 3 -124 3c-47 0 -95 -2 -109 -3l-3 3
l4 20l3 3c35 2 47 17 51 30c5 18 11 46 16 76zM200 342l-31 -192c-6 -36 -12 -75 -13 -104c26 -6 67 -13 112 -13c115 0 168 87 168 181c0 98 -60 128 -184 128h-52zM234 537l-28 -162h48c109 0 204 56 204 175c0 73 -46 109 -125 109c-26 0 -44 -1 -74 -3
c-8 -28 -17 -71 -25 -119z" />
    <glyph glyph-name="C" unicode="C" horiz-adv-x="648" 
d="M605 103l-11 -37c-31 -27 -139 -81 -240 -81c-184 0 -289 99 -296 287c-9 267 196 432 397 432c60 0 143 -17 192 -38l3 -3c-11 -39 -21 -101 -23 -134l-3 -3h-18l-3 3l-6 81c-53 34 -107 46 -172 46c-229 0 -292 -190 -292 -356c0 -196 128 -270 237 -270
c78 0 174 39 227 79h3z" />
    <glyph glyph-name="D" unicode="D" horiz-adv-x="722" 
d="M94 129l72 410c6 37 12 70 12 87c0 23 -5 36 -42 38l-47 2l-3 3l4 20l3 3c39 -1 80 -3 122 -3c77 0 137 3 198 3c164 0 288 -72 288 -256c0 -219 -170 -439 -417 -439c-55 0 -103 3 -126 3c-56 0 -121 -2 -135 -3l-3 3l4 20l3 3c35 2 47 17 51 30c5 18 11 46 16 76z
M620 422c0 158 -87 234 -249 234c-34 0 -90 -2 -113 -4c-22 -92 -80 -434 -103 -603c37 -9 102 -16 127 -16c222 -5 338 182 338 389z" />
    <glyph glyph-name="E" unicode="E" horiz-adv-x="556" 
d="M94 129l72 410c6 37 12 70 12 87c0 23 -5 36 -42 38l-47 2l-3 3l4 20l3 3c39 -1 80 -3 122 -3c108 0 235 2 320 3l3 -3c-9 -65 -14 -112 -15 -142l-3 -3h-18l-3 3c-3 37 2 92 -16 99c-23 9 -81 10 -127 10c-48 0 -81 -1 -98 -3c-7 -28 -13 -57 -20 -97l-31 -180h95
c63 0 133 5 154 6l6 -5c-6 -12 -14 -32 -20 -44c-24 4 -88 7 -144 7h-97l-50 -303h153c70 0 132 1 149 13c14 35 27 81 32 104l3 3h18l3 -3c-8 -40 -18 -105 -24 -154l-3 -3c-86 1 -215 3 -324 3c-56 0 -121 -2 -135 -3l-3 3l4 20l3 3c35 2 47 17 51 30c5 18 11 46 16 76z
" />
    <glyph glyph-name="F" unicode="F" 
d="M87 92l80 463c6 33 10 62 10 75c0 20 -8 33 -37 34l-49 2l-2 3l4 20l3 3c40 -1 83 -3 126 -3c101 0 222 2 303 3l3 -3c-9 -44 -13 -95 -16 -142l-3 -3h-18l-3 3c-2 42 -1 88 -10 94c-17 11 -71 15 -115 15s-84 -3 -106 -4c-7 -33 -14 -63 -22 -111l-29 -185h87
c72 0 139 5 162 13l5 -6c-9 -12 -18 -33 -23 -48c-28 3 -82 5 -146 5h-91l-37 -214c-3 -16 -5 -38 -5 -52c0 -23 12 -26 59 -29l38 -2l3 -3l-4 -20l-3 -3c-17 1 -76 3 -137 3c-42 0 -85 -2 -123 -3l-3 3l4 20l3 3l40 2c35 2 43 14 52 67z" />
    <glyph glyph-name="G" unicode="G" horiz-adv-x="704" 
d="M429 251l5 20l3 3c18 -1 63 -3 112 -3c45 0 100 2 126 3l3 -3l-4 -20l-3 -3c-44 -2 -45 -4 -55 -49c-12 -55 -22 -110 -22 -131c0 -6 0 -12 2 -15c1 -2 3 -4 5 -4l-3 -15h-9c-16 0 -110 -49 -237 -49c-158 0 -297 77 -297 302c0 227 177 417 411 417
c73 0 144 -22 193 -39l3 -3c-12 -40 -20 -102 -24 -134l-3 -3h-18l-3 3c0 20 -2 59 -4 82c-48 28 -126 49 -188 49c-212 0 -289 -201 -289 -359c0 -183 92 -279 251 -279c72 0 118 21 140 35c14 70 25 149 25 157c0 24 -10 31 -58 33l-59 2z" />
    <glyph glyph-name="H" unicode="H" horiz-adv-x="741" 
d="M87 92l80 463c6 33 10 62 10 75c0 20 -8 33 -37 34l-49 2l-2 3l4 20l3 3c40 -1 83 -3 126 -3s85 2 125 3l2 -3l-4 -20l-3 -3l-33 -2c-43 -3 -50 -9 -58 -49l-42 -234c60 -1 121 -3 188 -3c58 0 118 2 176 3l36 201c5 26 5 41 5 49c0 22 -12 32 -37 33l-51 2l-3 3l4 20
l3 3c41 -1 84 -3 127 -3s86 2 125 3l3 -3l-4 -20l-3 -3l-35 -2c-45 -3 -50 -9 -57 -51l-87 -505c-4 -21 -6 -38 -6 -49c0 -16 5 -31 32 -34l53 -2l3 -3l-4 -20l-3 -3c-40 1 -82 3 -125 3s-86 -2 -126 -3l-3 3l4 20l3 3l40 2c40 2 49 14 58 67l43 253c-57 1 -119 3 -181 3
s-124 -2 -184 -3l-41 -246c-3 -20 -5 -37 -5 -43c0 -21 4 -28 45 -31l41 -2l2 -3l-4 -20l-4 -3c-38 1 -81 3 -123 3s-85 -2 -123 -3l-3 3l4 20l3 3l40 2c35 2 43 14 52 67z" />
    <glyph glyph-name="I" unicode="I" horiz-adv-x="315" 
d="M99 125l77 439c5 26 8 48 8 69c0 14 -5 29 -42 31l-47 2l-3 3l4 20l3 3c39 -1 80 -2 122 -3c47 1 93 2 135 3l3 -3l-3 -20l-3 -3l-38 -2c-49 -3 -51 -10 -61 -66l-81 -465c-6 -40 -10 -64 -10 -76c0 -18 10 -31 40 -32l52 -2l3 -3l-4 -20l-3 -3c-43 1 -88 3 -133 3
c-43 0 -87 -2 -127 -3l-3 3l4 20l3 3l48 2c40 2 45 35 56 100z" />
    <glyph glyph-name="J" unicode="J" horiz-adv-x="278" 
d="M66 10l82 518c9 56 15 81 15 99c0 17 -5 35 -42 37l-52 2l-3 3l4 20l3 3c44 -1 85 -2 127 -3c47 1 93 2 135 3l3 -3l-3 -20l-3 -3l-38 -2c-48 -3 -55 -4 -67 -82l-88 -550c-21 -130 -69 -237 -193 -237c-9 0 -17 1 -27 3c0 10 -4 34 -7 45l9 3c6 -8 19 -18 41 -18
c61 0 87 76 104 182z" />
    <glyph glyph-name="K" unicode="K" horiz-adv-x="630" 
d="M277 366l220 -272c47 -59 65 -69 106 -71l3 -3l-5 -20l-3 -3c-17 1 -39 3 -58 3c-23 0 -45 -2 -64 -3c-21 34 -49 72 -91 123l-178 222l-34 -209c-6 -40 -10 -64 -10 -76c0 -18 10 -31 40 -32l41 -2l3 -3l-4 -20l-3 -3c-32 1 -77 3 -122 3c-43 0 -87 -2 -127 -3l-3 3
l4 20l3 3l48 2c40 2 45 35 56 100l78 439c5 26 8 48 8 69c0 14 -5 29 -42 31l-47 2l-3 3l4 20l3 3c39 -1 80 -2 122 -3c46 1 92 2 126 3l3 -3l-3 -20l-3 -3l-30 -2c-48 -3 -50 -10 -64 -82l-41 -230c59 46 132 123 226 218c68 68 84 89 91 119l3 3c14 -1 33 -3 58 -3
c23 0 47 2 59 3l3 -3l-3 -20l-3 -3c-47 -1 -68 -15 -107 -54z" />
    <glyph glyph-name="L" unicode="L" horiz-adv-x="537" 
d="M94 129l72 410c6 37 12 70 12 87c0 23 -5 36 -42 38l-47 2l-3 3l4 20l3 3c39 -1 80 -3 122 -3c47 0 93 2 144 3l3 -3l-3 -20l-3 -3l-47 -2c-48 -2 -50 -5 -64 -82l-75 -428c-7 -40 -15 -92 -17 -121h131c56 0 136 5 152 18c13 11 37 93 43 110l3 3h18l3 -3
c-6 -27 -23 -104 -27 -161l-3 -3c-85 1 -210 3 -315 3c-56 0 -121 -2 -135 -3l-3 3l4 20l3 3c35 2 47 17 51 30c5 18 11 46 16 76z" />
    <glyph glyph-name="M" unicode="M" horiz-adv-x="926" 
d="M78 113l123 434c11 39 16 62 16 80c0 20 -11 34 -53 37l-37 2l-3 3l4 20l3 3c17 -1 39 -3 73 -3c30 0 59 2 76 3c9 -45 25 -94 43 -162l117 -436l346 598c20 -1 46 -3 83 -3c31 0 62 2 75 3l3 -3l-5 -20l-3 -3l-25 -2c-24 -2 -45 -3 -54 -12c-12 -12 -12 -38 -16 -97
l-31 -443c-1 -18 -3 -34 -3 -55c0 -19 10 -30 40 -32l49 -2l3 -3l-5 -20l-3 -3c-42 1 -84 3 -126 3s-84 -2 -126 -3l-3 3l5 20l3 3l32 2c28 2 45 7 50 17c9 16 12 60 14 86l39 471h-2l-283 -476c-36 -61 -61 -111 -76 -138h-21c-10 39 -27 101 -52 194l-104 383h-2
l-109 -410c-14 -53 -23 -83 -23 -100c0 -23 17 -26 41 -27l42 -2l3 -3l-5 -20l-3 -3c-35 1 -70 3 -104 3c-35 0 -70 -2 -105 -3l-3 3l4 20l3 3l28 2c26 2 34 5 41 19c5 12 17 38 26 69z" />
    <glyph glyph-name="N" unicode="N" horiz-adv-x="741" 
d="M103 183l75 436l-11 15c-12 17 -26 25 -61 28l-31 4l-3 3l4 20l3 3c24 -1 49 -3 73 -3s49 2 73 3c23 -49 53 -105 103 -189l244 -404l76 461c8 48 9 69 9 81c0 18 -21 21 -53 23l-32 2l-3 3l5 20l3 3c36 -1 72 -3 109 -3c36 0 72 2 108 3l3 -3l-4 -20l-3 -3l-42 -2
c-20 -1 -29 -3 -37 -17c-10 -17 -18 -59 -25 -99l-67 -384c-14 -78 -23 -142 -25 -176h-45c-18 42 -58 108 -88 159l-254 425l-73 -451c-4 -25 -8 -53 -8 -70c0 -14 9 -25 39 -26l44 -2l3 -3l-5 -20l-3 -3c-36 1 -72 3 -107 3c-36 0 -72 -2 -108 -3l-3 3l5 20l3 3l29 2
c29 2 43 4 50 23c10 26 19 70 30 135z" />
    <glyph glyph-name="O" unicode="O" horiz-adv-x="741" 
d="M136 266c0 -134 51 -245 211 -245c194 0 288 219 288 409c0 156 -77 238 -212 238c-258 0 -287 -308 -287 -402zM58 256c0 239 140 448 399 448c178 0 256 -119 256 -258c0 -270 -179 -461 -393 -461c-183 0 -262 108 -262 271z" />
    <glyph glyph-name="P" unicode="P" horiz-adv-x="556" 
d="M99 125l77 439c5 26 8 48 8 69c0 14 -5 29 -42 31l-47 2l-3 3l4 20l3 3c39 -1 80 -2 122 -3c65 -2 117 3 165 3c81 0 173 -28 173 -148c0 -133 -97 -247 -229 -247c-30 0 -62 9 -84 18l-3 3v23l3 3c14 -7 38 -17 70 -17c88 0 165 75 165 197c0 107 -75 135 -142 135
c-29 0 -56 -3 -74 -6c-10 -35 -16 -69 -22 -107l-70 -413c-6 -40 -10 -64 -10 -76c0 -18 10 -31 40 -32l52 -2l3 -3l-4 -20l-3 -3c-43 1 -88 3 -133 3c-43 0 -87 -2 -127 -3l-3 3l4 20l3 3l48 2c40 2 45 35 56 100z" />
    <glyph glyph-name="Q" unicode="Q" horiz-adv-x="741" 
d="M136 266c0 -134 51 -245 211 -245c194 0 288 219 288 409c0 156 -77 238 -212 238c-258 0 -287 -308 -287 -402zM657 -58h18l3 -3c-8 -31 -36 -137 -125 -137c-43 0 -85 24 -158 71c-80 51 -118 75 -160 75c-41 0 -67 -35 -87 -104h-3l-17 9l-2 3c16 57 43 137 126 137v2
c-135 21 -194 120 -194 261c0 239 140 448 399 448c178 0 256 -119 256 -258c0 -270 -179 -461 -393 -461c-7 0 -14 1 -18 2v-2c24 -5 54 -21 110 -54c93 -55 116 -69 157 -69c52 0 69 28 85 77z" />
    <glyph glyph-name="R" unicode="R" horiz-adv-x="611" 
d="M94 92l82 472c5 26 8 48 8 69c0 14 -5 29 -42 31l-47 2l-3 3l4 20l3 3c39 -1 80 -2 122 -3c47 0 102 3 165 3c77 0 164 -31 164 -131c0 -139 -149 -207 -217 -213l117 -177c32 -49 61 -87 80 -112s41 -34 76 -37l3 -2l-4 -20l-3 -3c-18 1 -39 3 -60 3
c-22 0 -43 -2 -64 -3c-9 19 -34 61 -66 111l-178 257l3 12c10 -1 19 -2 29 -2c144 0 206 85 206 173c0 91 -73 111 -134 111c-29 0 -59 -4 -73 -7c-9 -38 -18 -81 -24 -119l-68 -400c-6 -40 -10 -64 -10 -76c0 -18 10 -31 40 -32l41 -2l3 -3l-4 -20l-3 -3
c-32 1 -77 3 -122 3c-43 0 -87 -2 -127 -3l-3 3l4 20l3 3l48 2c40 2 45 35 51 67z" />
    <glyph glyph-name="S" unicode="S" horiz-adv-x="519" 
d="M80 160v-75c20 -26 76 -60 141 -60c112 0 175 77 175 158c0 64 -28 84 -147 135c-99 42 -145 92 -145 171c0 116 99 215 237 215c56 0 97 -14 135 -35l15 -8l3 -4c-14 -42 -23 -90 -27 -127l-3 -3h-21l-3 3l-6 77c-18 19 -60 57 -128 57c-88 0 -142 -63 -142 -138
c0 -82 38 -115 170 -164c103 -38 128 -83 128 -141c0 -150 -141 -236 -274 -236c-76 0 -129 21 -158 36l-3 4c10 37 24 95 29 135l3 3h18z" />
    <glyph glyph-name="T" unicode="T" horiz-adv-x="593" 
d="M236 125l68 386c10 57 16 103 21 141h-52c-62 0 -129 -6 -138 -11c-15 -8 -34 -89 -40 -112l-3 -3h-18l-3 3c8 45 13 101 17 156l4 7c100 -1 180 -3 274 -3c112 0 222 2 264 3l4 -7c-11 -43 -22 -98 -25 -151l-3 -3h-18l-3 3c-1 26 -1 95 -5 101c-7 11 -98 17 -146 17
h-34l-90 -519c-6 -40 -10 -64 -10 -76c0 -18 10 -31 40 -32l52 -2l3 -3l-4 -20l-3 -3c-43 1 -88 3 -133 3c-43 0 -87 -2 -127 -3l-3 3l4 20l3 3l48 2c40 2 45 35 56 100z" />
    <glyph glyph-name="U" unicode="U" horiz-adv-x="741" 
d="M111 276l46 272c5 32 11 64 11 80c0 20 -7 33 -49 36l-37 2l-3 3l4 20l3 3c23 -1 42 -3 80 -3c44 0 76 2 90 3c-8 -26 -15 -66 -22 -106l-65 -366c-4 -23 -7 -44 -7 -70c0 -70 43 -114 129 -114c115 0 192 72 252 133l63 373c6 39 10 59 10 87c0 26 -18 32 -53 35l-34 2
l-3 3l4 20l3 3c33 -1 73 -3 122 -3c53 0 104 2 130 3l3 -3l-4 -20l-3 -3l-34 -2c-54 -3 -54 -13 -64 -71l-80 -460c-4 -26 -10 -58 -10 -72c0 -26 19 -34 55 -36l32 -2l3 -3l-4 -20l-3 -3c-23 1 -50 3 -76 3c-27 0 -53 -2 -80 -3l-6 6l23 117l-2 2
c-62 -66 -161 -137 -271 -137c-77 0 -171 40 -171 159c0 35 12 99 18 132z" />
    <glyph glyph-name="V" unicode="V" horiz-adv-x="630" 
d="M225 -8l-85 590c-10 67 -13 78 -48 82l-37 2l-3 3l6 20l3 3c31 -1 74 -3 115 -3c38 0 104 2 118 3l3 -3l-4 -20l-3 -3l-30 -2c-46 -3 -51 -12 -51 -29c0 -15 4 -47 7 -75l60 -478h2l240 432c32 57 57 103 57 127c0 21 -23 22 -40 23l-37 2l-3 3l5 20l3 3
c27 -1 69 -3 107 -3c42 0 97 2 110 3l3 -3l-4 -20l-3 -3l-26 -2c-30 -2 -42 -11 -64 -50l-359 -622h-42z" />
    <glyph glyph-name="W" unicode="W" horiz-adv-x="963" 
d="M646 -8l-120 559l-306 -559h-45l-37 598c-4 65 -11 71 -59 74l-19 2l-3 3l4 20l3 3c33 -1 58 -3 113 -3c47 0 107 2 122 3l3 -3l-5 -20l-3 -3l-34 -2c-46 -3 -51 -16 -49 -66l23 -501h2l221 404c41 78 73 141 92 193h18c15 -105 37 -209 64 -324l60 -284h2l188 442
c15 36 36 85 36 105c0 22 -11 29 -55 31l-30 2l-3 3l5 20l3 3c38 -1 77 -3 114 -3c49 0 92 2 104 3l3 -3l-4 -20l-3 -3l-22 -2c-32 -1 -52 -22 -85 -95l-253 -577h-45z" />
    <glyph glyph-name="X" unicode="X" horiz-adv-x="648" 
d="M326 308l-143 -186c-23 -30 -47 -62 -47 -75c0 -17 12 -20 45 -22l37 -2l3 -3l-5 -20l-3 -3c-15 1 -69 3 -112 3c-40 0 -91 -2 -119 -3l-3 3l6 20l3 3l26 2c28 3 37 4 62 31c18 20 44 51 58 69l174 219l-109 207c-17 33 -32 65 -46 88c-11 17 -30 24 -49 25l-41 2l-3 3
l7 20l3 3c31 -1 77 -3 120 -3c44 0 113 2 129 3l3 -3l-4 -20l-3 -3l-55 -2c-13 0 -25 -5 -25 -19c0 -16 13 -39 26 -65l93 -184l138 181c23 30 40 55 40 67s-10 18 -32 20l-53 2l-3 3l5 20l3 3c28 -1 76 -3 128 -3s94 2 108 3l3 -3l-4 -20l-3 -3l-38 -2
c-16 -1 -36 -7 -65 -42l-209 -259l144 -273c30 -57 41 -63 70 -65l35 -2l3 -3l-5 -20l-3 -3c-32 1 -76 3 -119 3c-46 0 -97 -2 -131 -3l-3 3l5 20l3 3l45 2c22 1 37 4 37 24c0 11 -14 38 -27 64z" />
    <glyph glyph-name="Y" unicode="Y" horiz-adv-x="611" 
d="M672 704l-6 -75c-112 -9 -203 -153 -268 -280c-31 -61 -40 -103 -43 -121c-16 -92 -25 -161 -25 -170c0 -23 16 -31 51 -33l34 -2l3 -3l-5 -20l-3 -3c-17 1 -78 3 -122 3c-54 0 -99 -2 -126 -3l-3 3l5 20l4 3l29 2c39 2 53 13 60 46c8 40 29 149 29 185
c0 64 -83 385 -176 385c-20 0 -36 -6 -53 -16l-3 3l-3 21l3 4c16 7 59 34 77 51c100 -8 147 -106 212 -396h2c45 111 156 338 327 396z" />
    <glyph glyph-name="Z" unicode="Z" horiz-adv-x="630" 
d="M112 37h143c103 0 243 6 261 17c14 9 34 73 41 104l3 3h18l3 -3c-9 -46 -19 -113 -22 -158l-3 -3c-62 1 -161 3 -269 3c-114 0 -216 -2 -281 -3l-3 3l6 21c14 17 40 49 66 82l435 550h-190c-79 0 -149 -4 -163 -14c-11 -8 -26 -72 -31 -98l-3 -3h-18l-3 3
c5 39 11 113 13 148l3 3c87 -1 213 -3 320 -3c55 0 129 2 182 3l3 -3l-3 -16c-17 -19 -34 -38 -53 -62z" />
    <glyph glyph-name="bracketleft" unicode="[" horiz-adv-x="315" 
d="M96 156l38 261c20 135 34 251 38 305l6 5c23 -2 48 -3 81 -3c31 0 58 1 81 3l3 -3l-4 -21l-3 -3c-67 -3 -93 -5 -99 -21c-11 -28 -27 -137 -50 -293l-30 -199c-13 -85 -35 -212 -35 -238c0 -28 27 -28 106 -31l3 -3l-5 -21l-3 -3c-18 1 -52 3 -87 3c-34 0 -66 -2 -87 -3
l-3 5c15 43 33 140 50 260z" />
    <glyph glyph-name="backslash" unicode="\" horiz-adv-x="259" 
d="M206 -12l-160 713l3 3h39l3 -3l160 -713l-4 -3h-39z" />
    <glyph glyph-name="bracketright" unicode="]" horiz-adv-x="315" 
d="M239 462l-38 -261c-20 -135 -34 -251 -38 -305l-6 -5c-23 2 -48 3 -81 3c-31 0 -58 -1 -81 -3l-3 3l4 21l3 3c67 3 93 5 99 21c11 28 27 137 50 293l30 199c13 85 35 212 35 238c0 28 -27 28 -106 31l-3 3l5 21l3 3c18 -1 52 -3 87 -3c34 0 66 2 87 3l3 -5
c-15 -43 -33 -140 -50 -260z" />
    <glyph glyph-name="asciicircum" unicode="^" horiz-adv-x="600" 
d="M93 305l183 365h48l183 -365h-55l-152 299l-152 -299h-55z" />
    <glyph glyph-name="underscore" unicode="_" 
d="M500 -125h-500v50h500v-50z" />
    <glyph glyph-name="quoteleft" unicode="&#x2018;" horiz-adv-x="259" 
d="M95 456l-9 10c25 62 94 170 143 226l30 12l6 -5c-38 -54 -79 -151 -94 -221c-23 -2 -60 -14 -76 -22z" />
    <glyph glyph-name="a" unicode="a" horiz-adv-x="481" 
d="M428 476l8 -8c-36 -74 -97 -378 -97 -400c0 -18 5 -26 13 -26c12 0 27 7 53 26l29 23h3l7 -16v-3l-43 -33c-38 -29 -75 -51 -104 -51c-19 0 -24 13 -24 27c0 27 23 136 29 166l-2 2c-56 -83 -172 -195 -236 -195c-30 0 -44 30 -44 86c0 130 65 265 89 302
c13 19 106 100 190 100c46 0 75 -9 98 -20zM86 82c0 -25 4 -40 22 -40c46 0 147 107 191 178c20 33 52 173 55 195c-19 7 -47 13 -68 13c-54 0 -87 -3 -105 -21c-14 -14 -35 -51 -54 -112c-18 -57 -41 -129 -41 -213z" />
    <glyph glyph-name="b" unicode="b" horiz-adv-x="463" 
d="M370 343c0 49 -8 85 -36 85c-50 0 -141 -63 -181 -140c-33 -63 -46 -140 -46 -185c0 -47 23 -79 74 -79c131 0 189 204 189 319zM60 185l61 321c11 56 22 118 22 141c0 15 -7 21 -39 21h-39l-3 3l4 15l3 3c21 2 109 15 153 38l8 -8c-8 -24 -20 -78 -33 -140l-55 -267h2
c83 127 190 164 238 164c38 0 57 -30 57 -109c0 -184 -131 -379 -288 -379c-66 0 -107 33 -107 94c0 30 8 64 16 103z" />
    <glyph glyph-name="c" unicode="c" horiz-adv-x="370" 
d="M342 90l-56 -44c-44 -32 -97 -58 -145 -58c-78 0 -117 55 -117 149c0 95 31 170 53 210s116 129 215 129c40 0 64 -12 79 -21l3 -5c-15 -29 -21 -92 -21 -118l-3 -3h-18l-3 3v81c-10 4 -34 15 -74 15c-79 0 -112 -49 -134 -112c-25 -73 -31 -128 -31 -177
c0 -61 28 -106 82 -106c58 0 110 33 159 75h3l8 -15v-3z" />
    <glyph glyph-name="d" unicode="d" 
d="M90 112c0 -35 5 -76 32 -76c36 0 118 81 173 165c39 60 56 131 71 212c-22 9 -48 18 -93 18c-56 0 -81 -21 -92 -31c-20 -18 -91 -174 -91 -288zM460 579l-79 -383c-10 -55 -21 -109 -21 -138c0 -9 2 -16 9 -16c10 0 31 13 85 52h3l8 -16v-3c-70 -48 -121 -87 -154 -87
c-18 0 -26 12 -26 31c0 29 16 95 34 167l-2 2c-72 -108 -177 -200 -239 -200c-39 0 -54 38 -54 101c0 133 74 276 97 299c38 40 116 88 174 88c31 0 57 -6 79 -14l10 44c11 56 22 118 22 141c0 15 -7 21 -39 21h-39l-3 3l4 15l3 3c21 2 109 15 153 38l8 -8
c-8 -24 -20 -78 -33 -140z" />
    <glyph glyph-name="e" unicode="e" horiz-adv-x="389" 
d="M341 90l-35 -28c-50 -41 -118 -74 -180 -74c-67 0 -106 42 -106 128c0 113 48 228 78 258c58 58 116 102 196 102c52 0 84 -22 84 -75c0 -99 -118 -155 -219 -179l-64 -15c-5 -18 -9 -51 -9 -89c0 -54 21 -90 78 -90s110 34 138 57l28 23h3l8 -15v-3zM100 229l55 12
c76 16 160 76 160 145c0 34 -15 54 -53 54c-76 0 -125 -70 -147 -154z" />
    <glyph glyph-name="f" unicode="f" horiz-adv-x="278" 
d="M220 534l-17 -99h20c36 0 73 3 84 8l7 -11c-7 -12 -16 -32 -18 -46l-4 -3c-23 2 -51 4 -75 4h-23l-52 -278c-19 -102 -37 -199 -84 -267c-18 -26 -76 -115 -145 -115c-23 0 -35 5 -45 10c7 16 16 51 20 71l8 6c8 -12 29 -30 61 -30c50 0 68 61 82 109
c14 47 26 108 38 178l57 316h-16c-25 0 -52 -2 -66 -5l-3 3l3 16l4 4c31 4 65 21 85 36l15 84c9 53 21 79 60 116c44 40 106 86 149 86c34 0 53 -4 63 -7c-8 -18 -20 -59 -22 -77l-12 -4c-10 17 -43 34 -73 34c-53 0 -85 -44 -101 -139z" />
    <glyph glyph-name="g" unicode="g" horiz-adv-x="444" 
d="M241 -42l-75 45l-31 -13c-48 -20 -112 -61 -112 -129c0 -58 48 -107 136 -107c91 0 156 35 156 107c0 36 -26 68 -74 97zM116 273c0 -64 24 -113 90 -113c96 0 127 118 127 176c0 70 -23 116 -88 116c-74 0 -129 -71 -129 -179zM98 -2l49 19l-14 10c-14 9 -27 18 -28 33
s8 26 21 38l46 41c-34 5 -119 18 -119 125s77 212 221 212c41 0 78 -15 103 -48c37 0 82 1 99 8l4 -7c-6 -12 -11 -33 -14 -49c-15 1 -44 3 -71 3c2 -12 4 -28 4 -46c0 -113 -96 -196 -200 -200l-13 -11c-12 -10 -24 -25 -24 -35s34 -30 103 -76c70 -47 116 -80 116 -136
c0 -89 -106 -152 -224 -152c-133 0 -197 49 -197 125s92 127 138 146z" />
    <glyph glyph-name="h" unicode="h" horiz-adv-x="519" 
d="M30 -12l-6 8c28 80 131 608 131 651c0 16 -8 21 -39 21h-39l-3 3l4 15l3 3c48 4 111 20 150 38l8 -8c-8 -24 -21 -78 -33 -140l-66 -334l2 -2c108 179 227 229 279 229c22 0 32 -16 32 -39c0 -17 -6 -46 -12 -68l-46 -184c-13 -50 -24 -105 -24 -116c0 -14 4 -20 13 -20
c14 0 60 32 86 52h3l6 -17v-3c-50 -38 -118 -89 -152 -89c-21 0 -31 14 -31 34c0 38 85 314 85 369c0 12 -5 21 -20 21c-39 0 -110 -56 -153 -115c-79 -108 -104 -203 -115 -294c-21 -4 -45 -9 -63 -15z" />
    <glyph glyph-name="i" unicode="i" horiz-adv-x="278" 
d="M66 90l61 246c6 27 10 54 10 64c0 8 -2 13 -9 13c-10 0 -29 -11 -52 -25l-32 -20h-3l-6 14v3l32 23c61 44 97 68 118 68c18 0 27 -6 27 -26c0 -16 -6 -38 -13 -68l-61 -245c-7 -31 -13 -57 -13 -74c0 -16 3 -21 12 -21c6 0 20 7 41 22l42 30h3l8 -17v-3l-41 -28
c-44 -30 -85 -58 -107 -58c-24 0 -27 21 -27 35c0 18 4 40 10 67zM169 634c0 39 26 66 51 66s33 -16 33 -33c0 -39 -26 -66 -51 -66s-33 16 -33 33z" />
    <glyph glyph-name="j" unicode="j" horiz-adv-x="241" 
d="M53 -14l58 298c10 53 17 89 17 108c0 11 -2 16 -12 16c-15 0 -43 -21 -79 -46h-3l-9 16v3l60 41c45 31 74 54 96 54c15 0 22 -10 22 -26c0 -26 -10 -62 -19 -107l-73 -363c-11 -55 -25 -92 -46 -132c-37 -69 -89 -121 -139 -121c-22 0 -35 3 -44 8c8 16 15 53 15 73l11 4
c11 -17 32 -37 56 -37c32 0 43 26 52 54c12 36 25 95 37 157zM160 634c0 39 26 66 51 66s33 -16 33 -33c0 -39 -26 -66 -51 -66s-33 16 -33 33z" />
    <glyph glyph-name="k" unicode="k" horiz-adv-x="444" 
d="M242 83l-57 167c-60 -77 -78 -100 -92 -247c-17 -2 -52 -9 -61 -15l-9 8c49 158 132 600 132 651c0 14 -5 21 -22 21h-55l-3 3l4 15l3 3c50 4 101 19 150 38l11 -7c-8 -20 -19 -67 -29 -115l-80 -385h2c88 116 203 256 278 256c9 0 18 -1 27 -2l-16 -62c-9 2 -19 4 -30 4
c-42 0 -67 -21 -165 -117l71 -190c16 -47 30 -72 47 -72c7 0 19 4 30 11l33 20h3l8 -14v-3l-57 -38c-19 -13 -48 -25 -61 -25c-17 0 -35 15 -62 95z" />
    <glyph glyph-name="l" unicode="l" horiz-adv-x="259" 
d="M73 172l68 334c11 56 22 118 22 141c0 15 -7 21 -39 21h-39l-3 3l4 15l3 3c21 2 109 15 153 38l8 -8c-8 -24 -20 -78 -33 -140l-79 -383c-10 -55 -21 -109 -21 -138c0 -9 2 -16 9 -16c10 0 31 13 85 52h3l8 -16v-3c-70 -48 -121 -87 -154 -87c-14 0 -26 6 -26 27
c0 25 16 77 31 157z" />
    <glyph glyph-name="m" unicode="m" horiz-adv-x="759" 
d="M46 -12l-9 8c42 132 86 373 86 402c0 8 -1 15 -9 15c-9 0 -35 -14 -57 -29l-30 -20h-3l-7 17v3l40 27c48 33 100 65 123 65c11 0 15 -6 15 -21c0 -19 -8 -56 -17 -95l-24 -104h2c120 183 232 220 257 220c19 0 31 -12 31 -31c0 -18 -6 -42 -14 -77l-27 -112h2
c110 161 228 220 268 220c19 0 29 -12 29 -37c0 -10 -4 -37 -8 -52l-50 -206c-13 -50 -25 -105 -25 -116c0 -14 3 -20 14 -20c14 0 60 32 85 52h3l7 -17v-3c-47 -35 -113 -89 -152 -89c-21 0 -29 14 -29 34c0 42 83 320 83 373c0 12 -5 21 -17 21c-34 0 -105 -56 -148 -115
c-76 -87 -102 -211 -109 -302l-60 -11l-9 5c13 44 85 339 85 396c0 17 -7 27 -20 27c-25 0 -99 -54 -151 -131c-47 -69 -84 -160 -95 -286z" />
    <glyph glyph-name="n" unicode="n" horiz-adv-x="519" 
d="M44 -12l-8 8c28 84 86 370 86 399c0 15 -2 18 -12 18c-13 0 -58 -31 -84 -49h-3l-7 17v3c29 20 129 92 163 92c11 0 15 -6 15 -21c0 -19 -8 -56 -17 -95l-23 -104h2c91 137 195 220 264 220c27 0 37 -16 37 -35c0 -21 -6 -50 -12 -72l-46 -188c-13 -50 -24 -105 -24 -116
c0 -14 2 -20 13 -20c14 0 60 32 85 52h3l7 -17v-3c-47 -35 -113 -89 -152 -89c-21 0 -31 14 -31 34c0 42 85 320 85 373c0 12 -5 21 -17 21c-37 0 -107 -49 -152 -110c-78 -104 -100 -208 -111 -303z" />
    <glyph glyph-name="o" unicode="o" horiz-adv-x="444" 
d="M344 302c0 78 -21 141 -87 141c-114 0 -167 -160 -167 -296c0 -98 36 -132 91 -132c108 0 163 175 163 287zM24 144c0 173 98 332 251 332c104 0 135 -73 135 -147c0 -153 -94 -341 -258 -341c-91 0 -128 64 -128 156z" />
    <glyph glyph-name="p" unicode="p" horiz-adv-x="481" 
d="M133 142l-18 -92c15 -6 49 -22 93 -22c112 0 183 184 183 330c0 58 -14 67 -43 67c-66 0 -181 -110 -215 -283zM14 384l55 34c40 26 89 58 105 58c13 0 19 -8 19 -21c0 -15 -6 -41 -15 -82l-20 -92h2c52 91 136 195 235 195c41 0 62 -21 62 -94
c0 -254 -163 -394 -294 -394c-30 0 -47 6 -60 9c-8 -39 -42 -196 -44 -257c-19 -1 -51 -7 -64 -13l-9 6c17 57 67 264 111 519c10 59 21 117 21 147c0 9 -4 12 -10 12c-9 0 -23 -9 -46 -23l-40 -26h-3l-5 19v3z" />
    <glyph glyph-name="q" unicode="q" horiz-adv-x="481" 
d="M253 -148l65 334h-2c-54 -97 -166 -198 -236 -198c-38 0 -56 30 -56 92c0 128 56 260 96 305c32 37 115 91 184 91c43 0 76 -11 101 -18l31 18l9 -6c-19 -46 -31 -98 -48 -174c-63 -281 -94 -520 -99 -554c-21 -2 -58 -9 -76 -15l-6 9c16 14 24 51 37 116zM90 109
c0 -32 3 -70 36 -70c62 0 153 119 191 193c17 33 35 117 49 183c-25 8 -52 16 -93 16c-62 0 -85 -18 -98 -36c-45 -63 -85 -205 -85 -286z" />
    <glyph glyph-name="r" unicode="r" horiz-adv-x="370" 
d="M20 380l56 38c40 29 87 58 106 58c14 0 18 -14 18 -27c0 -16 -5 -38 -13 -74l-28 -123h2c24 48 114 224 215 224c8 0 13 -1 17 -3l3 -5c-12 -21 -18 -66 -18 -91h-18c0 6 -4 13 -8 17c-6 5 -14 7 -24 7c-79 0 -200 -196 -213 -397c-19 -2 -50 -8 -64 -16l-7 12
c30 85 84 347 84 399c0 9 -4 13 -10 13c-8 0 -31 -13 -53 -28l-33 -22h-3l-9 15v3z" />
    <glyph glyph-name="s" unicode="s" horiz-adv-x="370" 
d="M55 129l-6 -71c18 -14 48 -34 101 -34c66 0 115 43 115 113c0 51 -33 62 -105 71c-47 6 -118 15 -118 97c0 100 126 171 201 171c46 0 73 -12 86 -20l2 -4c-12 -34 -20 -82 -23 -102l-3 -3h-18l-3 3l6 59c-15 9 -40 22 -92 22c-62 0 -96 -39 -96 -95c0 -45 14 -65 86 -73
l27 -3c88 -10 110 -40 110 -101c0 -79 -105 -171 -213 -171c-48 0 -84 11 -101 15l-2 4c11 34 20 95 22 122l3 3h18z" />
    <glyph glyph-name="t" unicode="t" horiz-adv-x="296" 
d="M71 96l58 292c-28 -2 -55 -2 -83 -6l-4 3l3 16l5 4c22 3 64 20 89 36c10 48 22 114 25 160c21 3 52 17 65 26l8 -7c-18 -51 -34 -137 -41 -184c35 0 86 3 107 8l6 -5c-7 -13 -14 -34 -18 -51c-27 1 -77 3 -103 3l-43 -234c-7 -42 -14 -72 -14 -94c0 -12 1 -21 13 -21
c11 0 42 20 70 42l28 22h3l11 -14v-3l-34 -27c-58 -46 -103 -74 -135 -74c-17 0 -28 9 -28 28c0 18 5 42 12 80z" />
    <glyph glyph-name="u" unicode="u" horiz-adv-x="519" 
d="M27 385l42 29c42 28 98 62 120 62c11 0 20 -8 20 -22c0 -20 -11 -49 -19 -87l-11 -48c-44 -196 -53 -222 -53 -242c0 -17 2 -29 18 -29c24 0 101 63 162 151c65 93 90 203 93 260c19 2 52 11 62 17l8 -8c-35 -90 -89 -353 -89 -395c0 -16 3 -25 14 -25c9 0 23 8 54 31
l28 20h3l6 -17v-3l-31 -23c-37 -29 -99 -68 -122 -68c-15 0 -21 8 -21 21c0 20 5 46 16 103l23 113h-2c-71 -122 -195 -237 -255 -237c-31 0 -36 24 -36 45s6 50 59 289c8 35 15 66 15 84c0 7 -1 11 -8 11c-11 0 -23 -8 -61 -33l-26 -17h-3l-6 15v3z" />
    <glyph glyph-name="v" unicode="v" horiz-adv-x="481" 
d="M296 412l62 59c3 3 10 5 26 5c48 0 71 -43 71 -99c0 -138 -134 -389 -285 -389c-83 0 -112 59 -112 133c0 127 120 265 155 304l-2 2c-11 -6 -35 -13 -56 -13c-24 0 -39 6 -62 6c-21 0 -34 -7 -39 -9l-28 -57l-4 -3h-15l-3 3c9 21 28 71 38 110c10 4 28 7 55 7
c39 0 66 -9 103 -9c31 0 47 7 57 11l10 -9c-41 -45 -143 -186 -143 -326c0 -72 30 -105 76 -105c107 0 195 172 195 310c0 46 -8 79 -36 79c-21 0 -38 -14 -50 -23h-3l-10 10v3z" />
    <glyph glyph-name="w" unicode="w" horiz-adv-x="704" 
d="M54 411l-28 -57l-4 -3h-15l-3 3c9 21 28 71 38 110c10 4 28 7 55 7c39 0 66 -9 103 -9c31 0 47 7 57 11l10 -9c-41 -45 -143 -186 -143 -344c0 -53 16 -87 55 -87c87 0 169 215 203 421c19 2 49 12 64 19l7 -5c-38 -110 -77 -276 -77 -352c0 -54 16 -83 59 -83
c85 0 180 151 180 310c0 46 -8 79 -36 79c-21 0 -38 -14 -50 -23h-3l-10 10v3l62 59c3 3 10 5 26 5c48 0 71 -43 71 -99c0 -165 -149 -389 -274 -389c-55 0 -79 44 -79 103c0 30 4 55 8 79h-2c-32 -72 -90 -182 -182 -182c-58 0 -88 49 -88 133c0 127 120 265 155 304l-2 2
c-11 -6 -35 -13 -56 -13c-24 0 -39 6 -62 6c-21 0 -34 -7 -39 -9z" />
    <glyph glyph-name="x" unicode="x" horiz-adv-x="426" 
d="M300 355l-60 -97l31 -157c8 -39 19 -56 36 -56c25 0 51 22 84 47h3l8 -14v-3l-47 -41c-28 -24 -53 -46 -89 -46c-31 0 -44 34 -54 89l-18 100h-2l-79 -114c-35 -50 -64 -75 -99 -75c-17 0 -32 7 -40 10c6 19 15 66 15 90l3 3l13 2l3 -3l4 -34c6 -5 16 -8 28 -8
c27 0 58 38 82 72l67 92l-27 138c-6 32 -16 66 -45 66c-25 0 -47 -18 -71 -49h-3l-14 8l-1 3c14 16 40 59 46 73c11 9 35 25 68 25c36 0 62 -22 72 -76l20 -111l53 87c33 54 78 100 120 100c15 0 25 -4 32 -6c-8 -22 -13 -59 -13 -77l-3 -3l-12 -2l-3 2c-1 12 -8 26 -26 26
c-24 0 -52 -14 -82 -61z" />
    <glyph glyph-name="y" unicode="y" horiz-adv-x="481" 
d="M7 393l50 34c39 27 76 49 92 49c22 0 27 -20 27 -50c0 -33 -3 -74 -14 -196c-5 -56 -8 -114 -8 -143c0 -24 7 -36 21 -36c27 0 112 95 154 181c38 78 59 176 69 229c21 1 51 9 66 15l7 -8c-14 -24 -30 -77 -46 -130l-33 -113c-30 -106 -58 -220 -108 -317
c-45 -88 -125 -181 -208 -181c-36 0 -66 18 -76 48c-4 14 -5 32 -5 45c14 8 38 25 47 35l12 -5c-3 -7 -5 -12 -5 -26c0 -22 15 -57 59 -57c90 0 149 151 213 407h-2c-49 -75 -135 -186 -186 -186c-31 0 -42 25 -42 62c0 30 4 64 6 90l11 150c3 28 5 62 5 86
c0 26 -7 40 -21 40c-9 0 -23 -6 -51 -24l-25 -16h-3l-6 14v3z" />
    <glyph glyph-name="z" unicode="z" horiz-adv-x="370" 
d="M-35 9l341 391l-2 2c-6 -2 -18 -3 -29 -4c-12 -1 -25 -1 -34 -1c-11 0 -30 2 -52 6c-16 3 -30 6 -47 6c-14 0 -28 -2 -38 -4l-30 -57l-4 -2h-16l-3 3c14 31 29 74 37 110c9 4 23 13 58 13c51 0 107 -30 156 -30c36 0 57 19 70 34l12 -4v-28l-332 -382l2 -2
c16 5 32 8 54 8c21 0 45 -4 68 -9c23 -4 45 -8 62 -8c27 0 36 3 43 6l26 64l3 3h18l3 -3c-8 -20 -29 -97 -35 -125c-17 -4 -32 -8 -60 -8c-30 0 -55 8 -87 16c-34 8 -59 16 -92 16c-37 0 -61 -18 -78 -32h-3l-11 18v3z" />
    <glyph glyph-name="braceleft" unicode="{" horiz-adv-x="315" 
d="M162 432l23 143c15 101 51 152 162 152l-3 -12c-74 -16 -94 -67 -104 -132l-21 -135c-11 -69 -27 -119 -103 -138v-2c46 -13 66 -39 66 -75c0 -19 -3 -40 -7 -63l-21 -133c-4 -22 -4 -40 -4 -60c0 -40 19 -63 70 -74l-3 -12c-90 0 -121 33 -121 99c0 16 2 34 5 53l23 143
c2 16 4 29 4 42c0 40 -14 66 -60 81c67 20 84 58 94 123z" />
    <glyph glyph-name="bar" unicode="|" horiz-adv-x="222" 
d="M87 -250v1000h48v-1000h-48z" />
    <glyph glyph-name="braceright" unicode="}" horiz-adv-x="315" 
d="M171 186l-23 -143c-15 -101 -51 -152 -162 -152l3 12c74 16 94 67 104 132l21 135c11 69 27 119 103 138v2c-46 13 -66 39 -66 75c0 19 3 40 7 63l21 133c4 22 4 40 4 60c0 40 -19 63 -70 74l3 12c90 0 121 -33 121 -99c0 -16 -2 -34 -5 -53l-23 -143
c-2 -16 -4 -29 -4 -42c0 -40 14 -66 60 -81c-67 -20 -84 -58 -94 -123z" />
    <glyph glyph-name="asciitilde" unicode="~" horiz-adv-x="600" 
d="M105 197l-36 30c22 42 58 86 125 86c37 0 77 -14 115 -34c37 -19 73 -34 101 -34c37 0 62 37 85 68l36 -30c-22 -42 -58 -86 -125 -86c-37 0 -77 14 -115 34c-37 19 -73 34 -101 34c-37 0 -62 -37 -85 -68z" />
    <glyph glyph-name="exclamdown" unicode="&#xa1;" horiz-adv-x="278" 
d="M140 277l25 12l8 -5c-17 -95 -57 -397 -63 -493c-26 -4 -68 -20 -85 -31l-7 7c40 148 94 364 122 510zM134 409c0 37 26 67 52 67c25 0 36 -17 36 -39c0 -37 -26 -67 -52 -67c-25 0 -36 17 -36 39z" />
    <glyph glyph-name="cent" unicode="&#xa2;" 
d="M186 49l144 378c-2 1 -7 1 -13 1c-79 0 -112 -49 -134 -112c-25 -73 -31 -128 -31 -177c0 -39 12 -72 34 -90zM359 423l-146 -387c6 -2 13 -3 21 -3c58 0 110 33 159 75h3l8 -15v-3l-56 -44c-44 -32 -97 -58 -145 -58c-3 0 -6 0 -8 1l-6 -15c-8 -21 -19 -50 -24 -66
l-3 -3h-27l-3 3c7 14 18 45 28 72l5 14c-53 15 -79 66 -79 143c0 95 31 170 53 210c22 39 112 126 210 129l2 5c10 25 19 51 23 64l3 3h27l3 -3c-6 -9 -14 -33 -27 -66l-2 -5c26 -3 43 -12 55 -19l3 -5c-15 -29 -21 -92 -21 -118l-3 -3h-18l-3 3v81c-6 2 -16 7 -32 10z" />
    <glyph glyph-name="sterling" unicode="&#xa3;" 
d="M434 538v84c-14 7 -46 22 -88 22c-102 0 -134 -67 -150 -292h50c30 0 86 3 108 6l4 -5c-5 -7 -9 -26 -9 -34l-4 -3c-18 3 -50 3 -90 3h-63c-4 -57 -15 -161 -87 -259c22 1 43 2 65 2c44 0 134 -11 178 -11c30 0 55 4 64 6c13 23 29 62 33 78l3 3h19l3 -3
c-11 -35 -24 -93 -30 -135c-13 -7 -40 -15 -65 -15c-36 0 -83 15 -142 26c-53 10 -108 21 -149 21c-17 -19 -48 -39 -71 -47h-17l7 50c10 5 27 14 71 22c39 60 45 108 52 262h-32c-22 0 -42 -1 -52 -3l-4 3c4 8 7 20 8 31l6 4c5 -1 21 -2 43 -2h32c2 38 5 91 9 126
c5 41 17 74 56 113c28 28 94 98 190 98c46 0 84 -15 98 -24l3 -4c-12 -26 -22 -89 -25 -123l-3 -3h-18z" />
    <glyph glyph-name="fraction" unicode="&#x2044;" horiz-adv-x="167" 
d="M-151 -30l451 728l3 3h40l3 -3l-450 -728l-3 -3h-41z" />
    <glyph glyph-name="yen" unicode="&#xa5;" 
d="M562 689l-6 -75c-92 -9 -169 -138 -224 -265c-15 -33 -24 -60 -28 -80h143l3 -3l-9 -28l-4 -3h-140l-10 -64h146l3 -3l-9 -28l-4 -3h-141c-10 -53 -11 -72 -11 -79c0 -23 13 -31 41 -33l28 -2l2 -3l-4 -20l-3 -3c-13 1 -63 3 -99 3c-45 0 -81 -2 -103 -3l-3 3l5 20l2 3
l25 2c32 2 43 13 50 46c3 15 7 39 11 66h-147l-3 3l9 28l4 3h142l9 64h-147l-3 3l9 28l4 3h138c-5 83 -65 357 -137 357c-13 0 -23 -4 -34 -10l-11 -7l-3 3l-3 22l3 4c16 7 51 34 66 51c82 0 119 -91 167 -381h2c38 111 133 338 274 381z" />
    <glyph glyph-name="florin" unicode="&#x192;" 
d="M159 5l56 333h-39c-25 0 -47 -1 -57 -3l-3 3l8 36l5 3c10 -2 31 -3 57 -3h34l15 81c14 73 32 114 84 164c38 36 99 70 147 70c24 0 45 -4 55 -8c-13 -28 -22 -54 -26 -78l-8 -5c-13 24 -40 40 -70 40c-59 0 -88 -40 -115 -179l-16 -85h54c20 0 46 1 63 3l3 -3l-8 -36
l-3 -3c-12 2 -43 3 -67 3h-47l-47 -248c-11 -60 -32 -161 -67 -223c-61 -108 -121 -140 -168 -140c-21 0 -29 4 -38 10c10 24 17 58 19 75l11 3c9 -21 30 -31 50 -31c42 0 86 29 118 221z" />
    <glyph glyph-name="section" unicode="&#xa7;" 
d="M59 -38v-92c11 -10 62 -48 120 -48c88 0 149 70 149 144c0 56 -29 74 -180 157c-78 43 -106 89 -106 138c0 71 56 127 114 158c-23 18 -47 43 -47 89c0 92 93 196 217 196c62 0 110 -18 128 -30l3 -4c-17 -43 -26 -92 -30 -127l-3 -3h-15l-3 3v89c-18 12 -55 32 -104 32
c-84 0 -139 -62 -139 -124c0 -58 41 -85 164 -155c72 -41 115 -66 115 -138c0 -59 -28 -105 -112 -156c21 -16 52 -43 52 -99c0 -92 -102 -210 -231 -210c-67 0 -121 28 -142 46l-3 5c15 31 30 99 32 129l3 3h15zM174 181l133 -75c39 26 81 64 81 119c0 48 -37 74 -99 111
l-110 65c-29 -19 -83 -55 -83 -117c0 -46 24 -73 78 -103z" />
    <glyph glyph-name="currency" unicode="&#xa4;" 
d="M38 162l49 52c-34 41 -49 88 -49 139c0 49 14 100 51 139l-51 52l35 35l51 -50c40 34 92 50 140 50c51 0 100 -16 140 -50l51 50l35 -35l-49 -49c34 -40 49 -91 49 -142c0 -49 -15 -98 -48 -140l48 -51l-35 -35l-48 53c-41 -37 -91 -53 -143 -53c-51 0 -100 15 -143 53
l-48 -53zM86 353c0 -98 80 -178 178 -178s178 80 178 178s-80 178 -178 178s-178 -80 -178 -178z" />
    <glyph glyph-name="quotesingle" unicode="'" horiz-adv-x="259" 
d="M219 627l-12 -146c-1 -11 -6 -25 -19 -25s-18 14 -19 25l-12 146c-2 19 -3 31 -3 42c0 12 9 35 34 35s34 -23 34 -35c0 -11 -1 -23 -3 -42z" />
    <glyph glyph-name="quotedblleft" unicode="&#x201c;" horiz-adv-x="389" 
d="M249 456l-9 10c25 62 94 170 143 226l30 12l6 -5c-38 -54 -79 -151 -94 -221c-23 -2 -60 -14 -76 -22zM73 456l-9 10c25 62 94 170 143 226l30 12l6 -5c-38 -54 -79 -151 -94 -221c-23 -2 -60 -14 -76 -22z" />
    <glyph glyph-name="guillemotleft" unicode="&#xab;" horiz-adv-x="481" 
d="M133 231l98 -173v-3l-14 -9h-3c-41 57 -110 139 -152 182l3 18c59 44 142 120 193 170h3l11 -11v-3zM300 231l98 -173v-3l-14 -9h-3c-41 57 -110 139 -152 182l3 18c59 44 142 120 193 170h3l11 -11v-3z" />
    <glyph glyph-name="guilsinglleft" unicode="&#x2039;" horiz-adv-x="315" 
d="M131 231l98 -173v-3l-14 -9h-3c-41 57 -110 139 -152 182l3 18c59 44 142 120 193 170h3l11 -11v-3z" />
    <glyph glyph-name="guilsinglright" unicode="&#x203a;" horiz-adv-x="315" 
d="M184 231l-98 173v3l14 9h3c41 -57 110 -139 152 -182l-3 -18c-59 -44 -142 -120 -193 -170h-3l-11 11v3z" />
    <glyph glyph-name="endash" unicode="&#x2013;" 
d="M-6 224l12 46h500l-12 -46h-500z" />
    <glyph glyph-name="dagger" unicode="&#x2020;" 
d="M212 190l37 230h-55c-48 0 -93 -3 -115 -8l-3 3c8 19 12 40 12 58l3 3c12 -3 28 -5 48 -6s43 -2 67 -2h51l12 71c12 74 14 115 14 153l5 3c8 -2 20 -4 33 -4c11 0 22 1 30 3l5 1l5 -3c-11 -27 -25 -83 -36 -144l-14 -80h51c50 0 91 3 118 8l3 -3c-5 -13 -10 -42 -10 -58
l-3 -3c-25 4 -74 8 -120 8h-47l-34 -228c-12 -81 -23 -150 -21 -192l-4 -3c-12 3 -28 5 -39 5c-12 0 -29 -2 -36 -5l-5 3c20 49 34 104 48 190z" />
    <glyph glyph-name="daggerdbl" unicode="&#x2021;" 
d="M234 -21l-6 -49c-8 -62 -15 -135 -12 -169l-5 -3c-13 2 -25 3 -35 3c-15 0 -24 -1 -37 -3l-4 3c13 29 37 105 45 169l6 49h-32c-54 0 -110 -3 -130 -9l-3 5c5 14 7 37 7 52l4 5c25 -6 76 -8 126 -8h33l7 38c12 64 12 128 13 170c14 33 31 102 38 152l6 45h-29
c-54 0 -112 -3 -138 -10l-6 4c4 10 9 21 9 33c0 8 0 17 -1 22l5 5c17 -6 75 -9 128 -9h37l8 44c12 76 13 135 12 172l7 5c7 -1 16 -3 32 -3c15 0 25 2 33 3l3 -5c-12 -23 -27 -86 -39 -166l-8 -50h40c48 0 104 3 127 9l4 -5c-5 -11 -9 -36 -9 -55l-5 -4
c-22 6 -73 10 -116 10h-46l-6 -43c-9 -58 -15 -119 -12 -155c-16 -42 -25 -101 -34 -155l-9 -52h34c60 0 110 3 130 8l4 -5c-7 -15 -8 -32 -8 -52l-5 -5c-28 4 -73 9 -133 9h-30z" />
    <glyph glyph-name="periodcentered" unicode="&#xb7;" horiz-adv-x="250" 
d="M75 313c0 28 22 50 50 50s50 -22 50 -50s-22 -50 -50 -50s-50 22 -50 50z" />
    <glyph glyph-name="paragraph" unicode="&#xb6;" horiz-adv-x="600" 
d="M260 307l55 352c-125 0 -169 -106 -169 -217c0 -91 42 -135 114 -135zM464 601l-111 -716c-2 -14 -4 -24 -4 -33c0 -25 16 -31 78 -37l-3 -18h-133l134 862h-62l-134 -862h-133l3 18c86 6 88 17 96 70l61 392c-117 0 -177 53 -176 162c0 163 82 250 244 250h239l-3 -18
c-86 -6 -88 -17 -96 -70z" />
    <glyph glyph-name="bullet" unicode="&#x2022;" 
d="M78 344c0 95 77 172 172 172s172 -77 172 -172s-77 -172 -172 -172s-172 77 -172 172z" />
    <glyph glyph-name="quotesinglbase" unicode="&#x201a;" horiz-adv-x="259" 
d="M170 109l9 -10c-25 -62 -94 -170 -143 -226l-30 -12l-6 5c38 54 79 151 94 221c23 2 60 14 76 22z" />
    <glyph glyph-name="quotedblbase" unicode="&#x201e;" horiz-adv-x="389" 
d="M140 109l9 -10c-25 -62 -94 -170 -143 -226l-30 -12l-6 5c38 54 79 151 94 221c23 2 60 14 76 22zM316 109l9 -10c-25 -62 -94 -170 -143 -226l-30 -12l-6 5c38 54 79 151 94 221c23 2 60 14 76 22z" />
    <glyph glyph-name="quotedblright" unicode="&#x201d;" horiz-adv-x="389" 
d="M234 704l9 -10c-25 -62 -94 -170 -143 -226l-30 -12l-6 5c38 54 79 151 94 221c23 2 60 14 76 22zM410 704l9 -10c-25 -62 -94 -170 -143 -226l-30 -12l-6 5c38 54 79 151 94 221c23 2 60 14 76 22z" />
    <glyph glyph-name="guillemotright" unicode="&#xbb;" horiz-adv-x="481" 
d="M348 231l-98 173v3l14 9h3c41 -57 110 -139 152 -182l-3 -18c-59 -44 -142 -120 -193 -170h-3l-11 11v3zM181 231l-98 173v3l14 9h3c41 -57 110 -139 152 -182l-3 -18c-59 -44 -142 -120 -193 -170h-3l-11 11v3z" />
    <glyph glyph-name="ellipsis" unicode="&#x2026;" horiz-adv-x="1000" 
d="M123 27c0 37 26 67 52 67c25 0 36 -17 36 -39c0 -37 -26 -67 -52 -67c-25 0 -36 17 -36 39zM456 27c0 37 26 67 52 67c25 0 36 -17 36 -39c0 -37 -26 -67 -52 -67c-25 0 -36 17 -36 39zM789 27c0 37 26 67 52 67c25 0 36 -17 36 -39c0 -37 -26 -67 -52 -67
c-25 0 -36 17 -36 39z" />
    <glyph glyph-name="perthousand" unicode="&#x2030;" horiz-adv-x="1167" 
d="M811 118c0 111 67 235 195 235c69 0 124 -34 124 -131c0 -86 -49 -237 -193 -237c-68 0 -126 42 -126 133zM871 109c0 -57 26 -97 75 -97c96 0 124 125 124 205c0 77 -22 109 -77 109c-75 0 -122 -86 -122 -217zM68 448c0 111 67 235 195 235c69 0 124 -34 124 -131
c0 -86 -49 -237 -193 -237c-68 0 -126 42 -126 133zM128 439c0 -57 26 -97 75 -97c96 0 124 125 124 205c0 77 -22 109 -77 109c-75 0 -122 -86 -122 -217zM441 118c0 111 67 235 195 235c69 0 124 -34 124 -131c0 -86 -49 -237 -193 -237c-68 0 -126 42 -126 133zM501 109
c0 -57 26 -97 75 -97c96 0 124 125 124 205c0 77 -22 109 -77 109c-75 0 -122 -86 -122 -217zM161 -47l448 762l3 3h39l3 -3l-448 -762l-3 -3h-39z" />
    <glyph glyph-name="questiondown" unicode="&#xbf;" horiz-adv-x="389" 
d="M182 273l22 6c15 -7 38 -27 38 -63c0 -50 -31 -83 -104 -161c-62 -66 -92 -106 -92 -152c0 -44 30 -89 98 -89s92 37 118 88l3 3l17 -7l3 -3c-14 -27 -33 -69 -45 -103c-23 -15 -56 -32 -104 -32c-94 0 -156 57 -156 134c0 73 33 104 127 192c101 95 102 113 102 131
c0 31 -19 41 -29 47zM197 409c0 37 26 67 52 67c25 0 36 -17 36 -39c0 -37 -26 -67 -52 -67c-25 0 -36 17 -36 39z" />
    <glyph glyph-name="grave" unicode="`" horiz-adv-x="278" 
d="M220 537l-123 100c-16 13 -28 24 -28 37s11 29 30 29c16 0 28 -12 45 -33l106 -133h-30z" />
    <glyph glyph-name="acute" unicode="&#xb4;" horiz-adv-x="278" 
d="M132 538l148 137c30 28 45 28 52 28c16 0 26 -14 26 -26c0 -17 -17 -28 -28 -35l-162 -104h-36z" />
    <glyph glyph-name="circumflex" unicode="&#x2c6;" horiz-adv-x="278" 
d="M46 538l162 165h41l88 -165h-30l-85 108l-143 -108h-33z" />
    <glyph glyph-name="tilde" unicode="&#x2dc;" horiz-adv-x="278" 
d="M67 572h-21c0 22 24 102 81 102c31 0 49 -9 83 -22c37 -14 58 -24 82 -24c37 0 44 33 50 50h21c-5 -24 -25 -101 -85 -101c-27 0 -48 12 -93 29c-30 12 -47 20 -65 20c-29 0 -46 -30 -53 -54z" />
    <glyph glyph-name="macron" unicode="&#xaf;" horiz-adv-x="278" 
d="M57 606l8 40h283l-8 -40h-283z" />
    <glyph glyph-name="breve" unicode="&#x2d8;" horiz-adv-x="278" 
d="M72 703h24c0 -50 16 -107 103 -107c100 0 135 87 141 107h25c-17 -61 -62 -161 -171 -161c-62 0 -95 36 -110 69c-7 18 -12 35 -12 92z" />
    <glyph glyph-name="dotaccent" unicode="&#x2d9;" horiz-adv-x="278" 
d="M165 645c0 23 21 44 44 44s44 -21 44 -44c0 -24 -21 -44 -44 -44s-44 20 -44 44z" />
    <glyph glyph-name="dieresis" unicode="&#xa8;" horiz-adv-x="278" 
d="M75 645c0 23 21 44 44 44s44 -21 44 -44c0 -24 -21 -44 -44 -44s-44 20 -44 44zM258 645c0 23 21 44 44 44s44 -21 44 -44c0 -24 -21 -44 -44 -44s-44 20 -44 44z" />
    <glyph glyph-name="ring" unicode="&#x2da;" horiz-adv-x="278" 
d="M136 620c0 -38 30 -69 68 -69s69 31 69 69s-31 68 -69 68s-68 -30 -68 -68zM106 620c0 58 44 98 98 98s99 -40 99 -98s-45 -99 -99 -99s-98 41 -98 99z" />
    <glyph glyph-name="cedilla" unicode="&#xb8;" horiz-adv-x="278" 
d="M138 -1h33l-45 -70l2 -2c10 4 22 6 40 6c42 0 65 -23 64 -61c0 -60 -76 -85 -125 -85c-36 0 -68 9 -86 17v3l12 20l4 2c15 -7 39 -12 61 -12c41 0 74 16 74 47c0 27 -24 39 -48 39c-16 0 -30 -2 -41 -6l-5 5z" />
    <glyph glyph-name="hungarumlaut" unicode="&#x2dd;" horiz-adv-x="278" 
d="M-3 538l148 137c30 28 45 28 52 28c16 0 26 -14 26 -26c0 -17 -17 -28 -28 -35l-162 -104h-36zM180 538l148 137c30 28 45 28 52 28c16 0 26 -14 26 -26c0 -17 -17 -28 -28 -35l-162 -104h-36z" />
    <glyph glyph-name="ogonek" unicode="&#x2db;" horiz-adv-x="278" 
d="M152 -181l9 -22l-3 -4c-5 -2 -24 -6 -42 -6c-56 0 -106 25 -106 76c0 48 43 94 104 136h30c-51 -44 -77 -81 -77 -128c0 -31 21 -54 53 -54c15 0 22 2 29 5z" />
    <glyph glyph-name="caron" unicode="&#x2c7;" horiz-adv-x="278" 
d="M174 538l-88 165h27l87 -111l143 111h33l-162 -165h-40z" />
    <glyph glyph-name="emdash" unicode="&#x2014;" horiz-adv-x="1000" 
d="M-6 224l12 46h1000l-12 -46h-1000z" />
    <glyph glyph-name="AE" unicode="&#xc6;" horiz-adv-x="889" 
d="M427 129l24 146h-237l-95 -148c-26 -41 -41 -72 -41 -83c0 -12 2 -17 44 -19l40 -2l3 -3l-5 -20l-3 -3c-16 1 -64 3 -116 3c-40 0 -76 -2 -102 -3l-3 3l6 20l3 3c52 2 55 4 89 54l345 500c22 31 38 58 38 67c0 20 -34 18 -61 20l-33 2l-3 3l5 20l3 3c31 -1 111 -3 210 -3
c118 0 245 2 330 3l3 -3c-9 -65 -14 -112 -15 -142l-3 -3h-18l-3 3c-3 37 2 92 -16 99c-23 9 -81 10 -127 10c-48 0 -81 -1 -98 -3c-7 -28 -13 -57 -20 -97l-31 -180h95c63 0 133 5 154 6l6 -5c-6 -12 -14 -32 -20 -44c-24 4 -88 7 -144 7h-97l-49 -303h152
c70 0 132 1 149 13c14 35 27 81 32 104l3 3h18l3 -3c-8 -40 -18 -105 -24 -154l-3 -3c-86 1 -215 3 -324 3c-56 0 -121 -2 -135 -3l-3 3l4 20l3 3c35 2 47 17 51 30c5 18 11 46 16 76zM458 308l58 346h-31c-16 -17 -84 -105 -134 -178l-116 -168h223z" />
    <glyph glyph-name="ordfeminine" unicode="&#xaa;" horiz-adv-x="289" 
d="M324 458l5 -10v-2l-27 -18c-26 -18 -53 -32 -69 -32c-12 0 -18 8 -18 16c0 14 3 26 8 47l13 54h-2c-34 -50 -111 -117 -152 -117c-24 0 -34 18 -34 56c0 73 47 154 63 177c8 12 69 60 123 60c30 0 49 -6 64 -12l20 12l5 -5c-23 -45 -63 -223 -63 -236c0 -11 4 -16 9 -16
c8 0 20 5 34 14l19 12h2zM96 466c0 -25 3 -34 14 -34c30 0 94 63 119 100c23 30 39 103 41 116c-10 4 -27 8 -54 8c-62 0 -67 -4 -92 -73c-14 -38 -28 -85 -28 -117z" />
    <glyph glyph-name="Lslash" unicode="&#x141;" horiz-adv-x="537" 
d="M94 129l30 170l-94 -50l-4 2l-13 23l2 4l116 62l35 199c6 37 12 70 12 87c0 23 -5 36 -42 38l-47 2l-3 3l4 20l3 3c39 -1 80 -3 122 -3c47 0 93 2 144 3l3 -3l-3 -20l-3 -3l-47 -2c-48 -2 -50 -5 -64 -82l-35 -200l171 91l4 -1l13 -24l-2 -4l-193 -103l-33 -187
c-7 -40 -15 -92 -17 -121h131c56 0 136 5 152 18c13 11 37 93 43 110l3 3h18l3 -3c-6 -27 -23 -104 -27 -161l-3 -3c-85 1 -210 3 -315 3c-56 0 -121 -2 -135 -3l-3 3l4 20l3 3c35 2 47 17 51 30c5 18 11 46 16 76z" />
    <glyph glyph-name="Oslash" unicode="&#xd8;" horiz-adv-x="741" 
d="M158 134l436 454c-35 53 -94 80 -171 80c-258 0 -287 -308 -287 -402c0 -49 7 -94 22 -132zM18 -12l87 91c-32 46 -47 107 -47 177c0 239 140 448 399 448c82 0 143 -26 184 -66l86 89h3l23 -23v-3l-88 -91c33 -46 48 -103 48 -164c0 -270 -179 -461 -393 -461
c-87 0 -150 24 -191 67l-85 -89h-3l-23 22v3zM612 555l-436 -454c32 -49 86 -80 171 -80c194 0 288 219 288 409c0 50 -8 93 -23 125z" />
    <glyph glyph-name="OE" unicode="&#x152;" horiz-adv-x="1019" 
d="M664 340l-49 -303h152c70 0 132 1 149 13c14 35 27 81 32 104l3 3h18l3 -3c-8 -40 -18 -105 -24 -154l-3 -3c-75 1 -150 3 -225 3c-70 0 -128 -2 -179 -3l-5 5c8 20 16 64 22 94l-2 2c-29 -36 -97 -113 -241 -113c-121 0 -257 53 -257 268c0 247 150 451 392 451
c89 0 165 -35 199 -91c4 20 6 43 6 70l6 9c51 -3 102 -3 153 -3c61 0 123 2 184 3l3 -3c-9 -65 -14 -112 -15 -142l-3 -3h-18l-3 3c-3 37 2 92 -16 99c-23 9 -81 10 -127 10c-48 0 -81 -1 -98 -3c-7 -28 -13 -57 -20 -97l-31 -180h95c63 0 133 5 154 6l6 -5
c-6 -12 -14 -32 -20 -44c-24 4 -88 7 -144 7h-97zM429 668c-201 0 -293 -178 -293 -416c0 -135 59 -231 202 -231c142 0 205 99 230 174c20 66 52 282 51 308c0 55 -41 165 -190 165z" />
    <glyph glyph-name="ordmasculine" unicode="&#xba;" horiz-adv-x="266" 
d="M106 483c0 -47 17 -66 53 -66c68 0 108 97 108 167c0 43 -14 81 -59 81c-64 0 -102 -82 -102 -182zM58 489c0 104 66 200 166 200c70 0 91 -44 91 -89c0 -108 -69 -204 -171 -204c-61 0 -86 36 -86 93z" />
    <glyph glyph-name="ae" unicode="&#xe6;" horiz-adv-x="630" 
d="M120 422l-16 -71l-3 -3h-15l-3 3c1 11 2 25 2 39s0 27 -2 34l82 43c13 7 34 9 50 9c56 0 117 -17 137 -101c49 48 118 101 190 101c46 0 85 -20 85 -69c0 -107 -115 -164 -215 -170l-65 -4c-7 -30 -16 -70 -16 -119c0 -60 37 -84 78 -84c55 0 104 33 168 80h3l8 -11v-3
c-18 -17 -120 -108 -216 -108c-62 0 -96 49 -98 102c-48 -61 -112 -102 -175 -102c-71 0 -96 51 -96 104c0 98 79 134 128 148c36 10 109 12 167 14c5 22 8 54 8 88c0 64 -58 94 -119 94c-26 0 -47 -6 -67 -14zM133 28c81 0 114 64 130 99c10 22 23 68 31 106
c-43 -1 -96 -3 -135 -17c-50 -19 -93 -56 -93 -118c0 -45 24 -70 67 -70zM352 254l47 4c78 6 162 52 162 130c0 29 -20 48 -54 48c-90 0 -132 -87 -146 -145z" />
    <glyph glyph-name="dotlessi" unicode="&#x131;" horiz-adv-x="278" 
d="M66 90l61 246c6 27 10 54 10 64c0 8 -2 13 -9 13c-10 0 -29 -11 -52 -25l-32 -20h-3l-6 14v3l32 23c61 44 97 68 118 68c18 0 27 -6 27 -26c0 -16 -6 -38 -13 -68l-61 -245c-7 -31 -13 -57 -13 -74c0 -16 3 -21 12 -21c6 0 20 7 41 22l42 30h3l8 -17v-3l-41 -28
c-44 -30 -85 -58 -107 -58c-24 0 -27 21 -27 35c0 18 4 40 10 67z" />
    <glyph glyph-name="lslash" unicode="&#x142;" horiz-adv-x="259" 
d="M73 172l38 185l-88 -55l-4 1l-10 19l1 4l108 68l23 112c11 56 22 118 22 141c0 15 -7 21 -39 21h-39l-3 3l4 15l3 3c21 2 109 15 153 38l8 -8c-8 -24 -20 -78 -33 -140l-30 -142l78 48l4 -1l9 -18l-1 -4l-97 -61l-42 -205c-10 -55 -21 -109 -21 -138c0 -9 2 -16 9 -16
c10 0 31 13 85 52h3l8 -16v-3c-70 -48 -121 -87 -154 -87c-14 0 -26 6 -26 27c0 25 16 77 31 157z" />
    <glyph glyph-name="oslash" unicode="&#xf8;" horiz-adv-x="444" 
d="M92 106l236 291c-14 28 -37 46 -71 46c-114 0 -167 -160 -167 -296c0 -24 0 -33 2 -41zM-20 -32l64 80c-14 25 -20 58 -20 96c0 173 98 332 251 332c42 0 72 -12 92 -30l59 73h3l18 -16v-3l-61 -76c17 -26 24 -61 24 -95c0 -153 -94 -341 -258 -341c-42 0 -72 13 -91 35
l-60 -74h-3l-18 16v3zM338 365l-237 -296c15 -37 41 -54 80 -54c108 0 163 175 163 287c0 23 -2 44 -6 63z" />
    <glyph glyph-name="oe" unicode="&#x153;" horiz-adv-x="667" 
d="M344 302c0 78 -21 141 -87 141c-114 0 -167 -160 -167 -296c0 -98 36 -132 91 -132c108 0 163 175 163 287zM611 108l8 -15v-3l-35 -28c-50 -41 -118 -74 -180 -74c-49 0 -83 28 -98 74c-40 -48 -93 -74 -154 -74c-91 0 -128 64 -128 156c0 173 98 332 251 332
c63 0 110 -37 124 -84c48 45 110 84 173 84c52 0 84 -22 84 -75c0 -99 -118 -155 -219 -179l-64 -15c-5 -18 -9 -51 -9 -89c0 -54 21 -90 78 -90s110 34 138 57l28 23h3zM378 229l55 12c76 16 160 76 160 145c0 34 -15 54 -53 54c-76 0 -125 -70 -147 -154z" />
    <glyph glyph-name="germandbls" unicode="&#xdf;" horiz-adv-x="481" 
d="M63 16l64 372c-27 0 -57 -2 -82 -6l-3 3l3 16l4 4c27 3 66 22 90 37l13 78c14 72 29 92 77 135c64 57 96 72 150 72c58 0 96 -39 96 -98c0 -41 -12 -68 -68 -144c-41 -55 -65 -88 -65 -105c0 -13 3 -27 32 -78l42 -74c17 -29 23 -50 23 -69c0 -71 -88 -171 -170 -171
c-38 0 -61 14 -75 21c10 24 21 79 21 103l3 3h18l3 -3l-6 -63c12 -9 32 -21 63 -21c49 0 89 37 89 96c0 18 -4 34 -21 64l-56 98c-10 18 -17 31 -17 48c0 27 13 46 53 102c75 105 77 131 77 171c0 47 -28 80 -80 80c-36 0 -69 -20 -89 -49c-15 -21 -22 -46 -31 -91l-80 -423
c-13 -71 -33 -173 -51 -212c-28 -64 -99 -185 -183 -185c-25 0 -36 5 -43 7c8 17 16 57 18 77l10 3c6 -8 26 -30 64 -30c60 0 90 131 107 232z" />
    <glyph glyph-name="onesuperior" unicode="&#xb9;" horiz-adv-x="325" 
d="M156 374l38 188c6 32 12 59 14 78l-124 -54l-2 3c5 10 8 28 10 39c19 1 64 16 111 32c26 9 53 20 59 23l10 -5c-14 -37 -49 -217 -68 -329c-4 -22 -7 -36 -7 -43c0 -10 10 -13 41 -16l37 -2l3 -3l-4 -14l-4 -3c-33 0 -68 3 -103 3c-36 0 -71 -3 -105 -3l-3 3l3 14l3 3
l28 2c31 2 40 7 45 16c7 24 12 39 18 68z" />
    <glyph glyph-name="logicalnot" unicode="&#xac;" horiz-adv-x="600" 
d="M505 111v216h-458v48h506v-264h-48z" />
    <glyph glyph-name="mu" unicode="&#xb5;" horiz-adv-x="519" 
d="M27 385l42 29c42 28 98 62 120 62c11 0 20 -8 20 -22c0 -20 -11 -49 -19 -87l-11 -48c-44 -196 -53 -222 -53 -242c0 -17 2 -29 18 -29c24 0 101 63 162 151c65 93 90 203 93 260c19 2 52 11 62 17l8 -8c-35 -90 -89 -353 -89 -395c0 -16 3 -25 14 -25c9 0 23 8 54 31
l28 20h3l6 -17v-3l-31 -23c-37 -29 -99 -68 -122 -68c-15 0 -21 8 -21 21c0 20 5 46 16 103l23 113h-2c-70 -120 -200 -237 -229 -237c-9 0 -12 2 -17 7c-7 -37 -41 -194 -43 -255c-19 -1 -51 -7 -64 -13l-9 6c13 42 43 165 73 330l57 259c8 35 15 66 15 84c0 7 -1 11 -8 11
c-11 0 -23 -8 -61 -33l-26 -17h-3l-6 15v3z" />
    <glyph glyph-name="trademark" unicode="&#x2122;" horiz-adv-x="1000" 
d="M171 285v21c44 0 51 7 51 35v327h-53c-42 0 -66 -29 -66 -67h-21v88h334v-88h-21c0 38 -24 67 -66 67h-53v-327c0 -28 7 -35 51 -35v-21h-156zM829 285v21c46 0 51 7 51 32v262h-2l-158 -315h-9l-156 312h-2v-250c0 -34 9 -41 53 -41v-21h-129v21c44 0 52 7 52 41v275
c0 11 -21 48 -67 46v21h109l161 -322l166 322h94v-21c-38 0 -58 -15 -58 -54v-276c0 -25 4 -32 50 -32v-21h-155z" />
    <glyph glyph-name="Eth" unicode="&#xd0;" horiz-adv-x="722" 
d="M94 129l38 219h-109l-2 3l6 27l4 3h107l28 158c6 37 12 70 12 87c0 23 -5 36 -42 38l-47 2l-3 3l4 20l3 3c39 -1 80 -3 122 -3c77 0 137 3 198 3c164 0 288 -72 288 -256c0 -219 -170 -439 -417 -439c-55 0 -103 3 -126 3c-56 0 -121 -2 -135 -3l-3 3l4 20l3 3
c35 2 47 17 51 30c5 18 11 46 16 76zM208 381h197l2 -3l-6 -27l-4 -3h-195c-19 -111 -37 -223 -47 -299c37 -9 102 -16 127 -16c222 -5 338 182 338 389c0 158 -87 234 -249 234c-34 0 -90 -2 -113 -4c-11 -45 -31 -153 -50 -271z" />
    <glyph glyph-name="onehalf" unicode="&#xbd;" horiz-adv-x="750" 
d="M127 -30l451 728l3 3h40l3 -3l-450 -728l-3 -3h-41zM135 374l38 188c6 32 12 59 14 78l-124 -54l-2 3c5 10 8 28 10 39c19 1 64 16 111 32c26 9 53 20 59 23l10 -5c-14 -37 -49 -217 -68 -329c-4 -22 -7 -36 -7 -43c0 -10 10 -13 41 -16l37 -2l3 -3l-4 -14l-4 -3
c-33 0 -68 3 -103 3c-36 0 -71 -3 -105 -3l-3 3l3 14l3 3l28 2c31 2 40 7 45 16c7 24 12 39 18 68zM485 320l38 68c18 12 44 24 86 24c65 0 107 -36 107 -87c0 -100 -76 -146 -230 -287v-2c22 -2 49 -3 90 -3c43 0 73 4 108 8l2 -2c-7 -12 -10 -29 -11 -42
c-40 0 -79 3 -119 3c-46 0 -91 -3 -136 -3l-2 2v8c186 164 250 228 250 301c0 51 -37 68 -71 68c-56 0 -79 -34 -99 -63h-2l-11 5v2z" />
    <glyph glyph-name="plusminus" unicode="&#xb1;" horiz-adv-x="600" 
d="M276 90v184h-229v48h229v184h48v-184h229v-48h-229v-184h-48zM47 0v48h506v-48h-506z" />
    <glyph glyph-name="Thorn" unicode="&#xde;" horiz-adv-x="556" 
d="M99 125l77 439c5 26 8 48 8 69c0 14 -5 29 -42 31l-47 2l-3 3l4 20l3 3c39 -1 80 -2 122 -3c47 1 93 2 135 3l3 -3l-3 -20l-3 -3l-38 -2c-49 -3 -51 -10 -61 -66l-2 -14c19 3 56 8 114 8c81 0 173 -28 173 -148c0 -133 -97 -247 -229 -247c-30 0 -62 9 -84 18l-3 3v23
l3 3c14 -7 38 -17 70 -17c88 0 165 75 165 197c0 107 -75 135 -142 135c-23 0 -53 -3 -73 -6l-73 -420c-6 -40 -10 -64 -10 -76c0 -18 10 -31 40 -32l52 -2l3 -3l-4 -20l-3 -3c-43 1 -88 3 -133 3c-43 0 -87 -2 -127 -3l-3 3l4 20l3 3l48 2c40 2 45 35 56 100z" />
    <glyph glyph-name="onequarter" unicode="&#xbc;" horiz-adv-x="750" 
d="M582 115h-96c-26 0 -51 -1 -66 -3l-3 4v15c47 70 172 236 222 276c14 0 30 3 45 5l8 -3c-6 -14 -14 -51 -24 -101l-32 -163c44 0 65 3 77 4l3 -2c-5 -7 -10 -22 -11 -32l-2 -3c-10 1 -34 3 -73 3l-8 -45c-2 -15 -3 -27 -3 -34c0 -10 9 -15 36 -18h32l3 -3l-4 -15l-3 -3
c-32 2 -66 3 -100 3s-68 -1 -103 -3l-2 3l4 15l3 3h34c28 3 37 7 41 11c6 7 9 24 12 39zM585 145l21 105c9 46 21 96 28 121l-2 1l-21 -27c-44 -52 -136 -171 -153 -197l1 -3h126zM147 -30l451 728l3 3h40l3 -3l-450 -728l-3 -3h-41zM135 374l38 188c6 32 12 59 14 78
l-124 -54l-2 3c5 10 8 28 10 39c19 1 64 16 111 32c26 9 53 20 59 23l10 -5c-14 -37 -49 -217 -68 -329c-4 -22 -7 -36 -7 -43c0 -10 10 -13 41 -16l37 -2l3 -3l-4 -14l-4 -3c-33 0 -68 3 -103 3c-36 0 -71 -3 -105 -3l-3 3l3 14l3 3l28 2c31 2 40 7 45 16c7 24 12 39 18 68
z" />
    <glyph glyph-name="divide" unicode="&#xf7;" horiz-adv-x="600" 
d="M47 229v48h506v-48h-506zM250 462c0 28 22 50 50 50s50 -22 50 -50s-22 -50 -50 -50s-50 22 -50 50zM250 44c0 28 22 50 50 50s50 -22 50 -50s-22 -50 -50 -50s-50 22 -50 50z" />
    <glyph glyph-name="brokenbar" unicode="&#xa6;" horiz-adv-x="222" 
d="M87 -175v350h48v-350h-48zM87 325v350h48v-350h-48z" />
    <glyph glyph-name="degree" unicode="&#xb0;" horiz-adv-x="400" 
d="M103 540c0 81 62 143 143 143s143 -62 143 -143s-62 -143 -143 -143s-143 62 -143 143zM148 540c0 -57 44 -103 98 -103s98 46 98 103s-44 103 -98 103s-98 -46 -98 -103z" />
    <glyph glyph-name="thorn" unicode="&#xfe;" horiz-adv-x="481" 
d="M133 142l-18 -92c15 -6 49 -22 93 -22c112 0 183 184 183 330c0 58 -14 67 -43 67c-66 0 -181 -110 -215 -283zM87 210l53 280c14 72 25 134 25 157c0 15 -7 21 -39 21h-39l-3 3l4 15l3 3c21 2 109 15 153 38l8 -8c-8 -24 -20 -78 -33 -140l-61 -298h2
c52 91 136 195 235 195c41 0 62 -21 62 -94c0 -254 -163 -394 -294 -394c-30 0 -47 6 -60 9c-8 -39 -42 -196 -44 -257c-19 -1 -51 -7 -64 -13l-9 6c17 57 59 252 101 477z" />
    <glyph glyph-name="threequarters" unicode="&#xbe;" horiz-adv-x="750" 
d="M582 115h-96c-26 0 -51 -1 -66 -3l-3 4v15l48 68c38 54 79 100 111 141c24 30 51 58 63 67c14 0 30 3 45 5l8 -3c-6 -14 -14 -51 -24 -101l-32 -163c44 0 65 3 77 4l3 -2c-5 -7 -10 -22 -11 -32l-2 -3c-10 1 -34 3 -73 3l-8 -45c-2 -15 -3 -27 -3 -34c0 -10 9 -15 36 -18
h32l3 -3l-4 -15l-3 -3c-32 2 -66 3 -100 3s-68 -1 -103 -3l-2 3l4 15l3 3h34c28 3 37 7 41 11c6 7 9 24 12 39zM585 145l21 105c9 46 21 96 28 121l-2 1l-21 -27c-44 -52 -136 -171 -153 -197l1 -3h126zM147 -30l451 728l3 3h40l3 -3l-450 -728l-3 -3h-41zM98 606l41 59
c18 11 48 18 72 18c52 0 100 -26 100 -76c0 -47 -39 -87 -98 -105v-2c41 -2 101 -19 101 -91c0 -89 -91 -145 -182 -145c-48 0 -75 18 -94 28c6 17 11 61 11 76l4 2h20l3 -2c-4 -8 -6 -17 -6 -30c0 -21 14 -53 73 -53c84 0 120 64 120 116c0 44 -14 83 -90 83
c-19 0 -36 -4 -51 -8l-3 3l10 29c8 -2 18 -3 29 -3c74 0 108 42 108 90c0 34 -26 55 -65 55c-45 0 -73 -30 -90 -52h-1l-12 6v2z" />
    <glyph glyph-name="twosuperior" unicode="&#xb2;" horiz-adv-x="325" 
d="M101 591l38 68c18 12 44 24 86 24c65 0 107 -36 107 -87c0 -100 -76 -146 -230 -287v-2c22 -2 49 -3 90 -3c43 0 73 4 108 8l2 -2c-7 -12 -10 -29 -11 -42c-40 0 -79 3 -119 3c-46 0 -91 -3 -136 -3l-2 2v8c186 164 250 228 250 301c0 51 -37 68 -71 68
c-56 0 -79 -34 -99 -63h-2l-11 5v2z" />
    <glyph glyph-name="registered" unicode="&#xae;" horiz-adv-x="800" 
d="M236 155v18c33 0 52 6 52 44v255c0 30 -19 41 -52 42v18h170c86 0 126 -35 126 -92c0 -56 -37 -94 -85 -109l70 -103c21 -30 37 -55 73 -55v-18h-55c-24 0 -39 13 -63 47l-82 122h-51v-107c0 -38 17 -44 58 -44v-18h-161zM339 514v-172h54c53 0 79 35 79 92
c0 56 -33 80 -95 80h-38zM41 344c0 199 161 360 359 360s359 -161 359 -360c0 -198 -161 -359 -359 -359s-359 161 -359 359zM92 344c0 -172 136 -311 308 -311s308 139 308 311s-136 312 -308 312s-308 -140 -308 -312z" />
    <glyph glyph-name="minus" unicode="&#x2212;" horiz-adv-x="600" 
d="M47 229v48h506v-48h-506z" />
    <glyph glyph-name="eth" unicode="&#xf0;" horiz-adv-x="444" 
d="M90 135c0 -86 36 -120 91 -120c108 0 163 175 163 289c0 76 -21 139 -94 139c-101 0 -160 -136 -160 -308zM95 569l123 66c-28 28 -66 54 -92 69v3l32 20c27 -12 73 -42 104 -69l109 58h3l18 -19v-3l-106 -57c53 -49 124 -144 124 -306c0 -155 -94 -343 -258 -343
c-93 0 -128 64 -128 158c0 171 98 330 251 330c18 0 36 -4 49 -15l2 2c-18 60 -56 118 -85 150l-125 -66h-3l-18 19v3z" />
    <glyph glyph-name="multiply" unicode="&#xd7;" horiz-adv-x="600" 
d="M78 61l192 192l-192 191l31 31l191 -191l191 191l31 -31l-190 -191l190 -192l-31 -31l-191 192l-191 -192z" />
    <glyph glyph-name="threesuperior" unicode="&#xb3;" horiz-adv-x="325" 
d="M98 606l41 59c18 11 48 18 72 18c52 0 100 -26 100 -76c0 -47 -39 -87 -98 -105v-2c41 -2 101 -19 101 -94c0 -89 -91 -145 -182 -145c-48 0 -75 18 -94 28c6 17 11 61 11 76l4 2h20l3 -2c-4 -8 -6 -17 -6 -30c0 -21 14 -53 73 -53c84 0 120 64 120 116
c0 47 -14 86 -90 86c-19 0 -36 -4 -51 -8l-3 3l10 29c8 -2 18 -3 29 -3c74 0 108 42 108 90c0 34 -26 55 -65 55c-45 0 -73 -30 -90 -52h-1l-12 6v2z" />
    <glyph glyph-name="copyright" unicode="&#xa9;" horiz-adv-x="800" 
d="M41 344c0 199 161 360 359 360s359 -161 359 -360c0 -198 -161 -359 -359 -359s-359 161 -359 359zM550 439h-18c0 43 -26 89 -116 89c-104 0 -156 -72 -157 -173c-1 -111 53 -186 166 -186c75 0 109 40 127 84h15l-17 -71c-3 -10 -18 -18 -39 -24
c-23 -7 -55 -13 -97 -13c-152 0 -218 93 -218 206c0 114 87 201 224 201c54 0 89 -10 111 -18c14 -6 19 -14 19 -27v-68zM92 344c0 -172 136 -311 308 -311s308 139 308 311s-136 312 -308 312s-308 -140 -308 -312z" />
    <glyph glyph-name="Aacute" unicode="&#xc1;" horiz-adv-x="667" 
d="M42 76l366 624h45l105 -591c6 -32 9 -58 19 -71c6 -8 20 -12 40 -13l27 -2l3 -3l-5 -20l-3 -3c-26 1 -65 3 -107 3c-39 0 -81 -2 -127 -3l-3 3l3 20l3 3l42 2c24 1 35 8 40 19c4 10 0 34 -6 73l-26 158c-30 1 -77 2 -127 2s-93 -1 -127 -2l-94 -174
c-13 -24 -21 -38 -21 -54s10 -20 50 -22l35 -2l3 -3l-4 -20l-3 -3c-46 1 -84 3 -115 3c-28 0 -71 -2 -106 -3l-3 3l2 20l3 3l25 2c25 2 45 15 66 51zM453 310l-52 307h-2l-177 -307c31 -2 71 -3 118 -3c46 0 87 1 113 3zM362 729l148 137c30 28 45 28 52 28
c16 0 26 -14 26 -26c0 -17 -17 -28 -28 -35l-162 -104h-36z" />
    <glyph glyph-name="Acircumflex" unicode="&#xc2;" horiz-adv-x="667" 
d="M42 76l366 624h45l105 -591c6 -32 9 -58 19 -71c6 -8 20 -12 40 -13l27 -2l3 -3l-5 -20l-3 -3c-26 1 -65 3 -107 3c-39 0 -81 -2 -127 -3l-3 3l3 20l3 3l42 2c24 1 35 8 40 19c4 10 0 34 -6 73l-26 158c-30 1 -77 2 -127 2s-93 -1 -127 -2l-94 -174
c-13 -24 -21 -38 -21 -54s10 -20 50 -22l35 -2l3 -3l-4 -20l-3 -3c-46 1 -84 3 -115 3c-28 0 -71 -2 -106 -3l-3 3l2 20l3 3l25 2c25 2 45 15 66 51zM453 310l-52 307h-2l-177 -307c31 -2 71 -3 118 -3c46 0 87 1 113 3zM276 729l162 165h41l88 -165h-30l-85 108l-143 -108
h-33z" />
    <glyph glyph-name="Adieresis" unicode="&#xc4;" horiz-adv-x="667" 
d="M42 76l366 624h45l105 -591c6 -32 9 -58 19 -71c6 -8 20 -12 40 -13l27 -2l3 -3l-5 -20l-3 -3c-26 1 -65 3 -107 3c-39 0 -81 -2 -127 -3l-3 3l3 20l3 3l42 2c24 1 35 8 40 19c4 10 0 34 -6 73l-26 158c-30 1 -77 2 -127 2s-93 -1 -127 -2l-94 -174
c-13 -24 -21 -38 -21 -54s10 -20 50 -22l35 -2l3 -3l-4 -20l-3 -3c-46 1 -84 3 -115 3c-28 0 -71 -2 -106 -3l-3 3l2 20l3 3l25 2c25 2 45 15 66 51zM453 310l-52 307h-2l-177 -307c31 -2 71 -3 118 -3c46 0 87 1 113 3zM310 836c0 23 21 44 44 44s44 -21 44 -44
c0 -24 -21 -44 -44 -44s-44 20 -44 44zM493 836c0 23 21 44 44 44s44 -21 44 -44c0 -24 -21 -44 -44 -44s-44 20 -44 44z" />
    <glyph glyph-name="Agrave" unicode="&#xc0;" horiz-adv-x="667" 
d="M42 76l366 624h45l105 -591c6 -32 9 -58 19 -71c6 -8 20 -12 40 -13l27 -2l3 -3l-5 -20l-3 -3c-26 1 -65 3 -107 3c-39 0 -81 -2 -127 -3l-3 3l3 20l3 3l42 2c24 1 35 8 40 19c4 10 0 34 -6 73l-26 158c-30 1 -77 2 -127 2s-93 -1 -127 -2l-94 -174
c-13 -24 -21 -38 -21 -54s10 -20 50 -22l35 -2l3 -3l-4 -20l-3 -3c-46 1 -84 3 -115 3c-28 0 -71 -2 -106 -3l-3 3l2 20l3 3l25 2c25 2 45 15 66 51zM453 310l-52 307h-2l-177 -307c31 -2 71 -3 118 -3c46 0 87 1 113 3zM455 728l-123 100c-16 13 -28 24 -28 37s11 29 30 29
c16 0 28 -12 45 -33l106 -133h-30z" />
    <glyph glyph-name="Aring" unicode="&#xc5;" horiz-adv-x="667" 
d="M42 76l366 624h45l105 -591c6 -32 9 -58 19 -71c6 -8 20 -12 40 -13l27 -2l3 -3l-5 -20l-3 -3c-26 1 -65 3 -107 3c-39 0 -81 -2 -127 -3l-3 3l3 20l3 3l42 2c24 1 35 8 40 19c4 10 0 34 -6 73l-26 158c-30 1 -77 2 -127 2s-93 -1 -127 -2l-94 -174
c-13 -24 -21 -38 -21 -54s10 -20 50 -22l35 -2l3 -3l-4 -20l-3 -3c-46 1 -84 3 -115 3c-28 0 -71 -2 -106 -3l-3 3l2 20l3 3l25 2c25 2 45 15 66 51zM453 310l-52 307h-2l-177 -307c31 -2 71 -3 118 -3c46 0 87 1 113 3zM371 816c0 -38 30 -69 68 -69s69 31 69 69
s-31 68 -69 68s-68 -30 -68 -68zM341 816c0 58 44 98 98 98s99 -40 99 -98s-45 -99 -99 -99s-98 41 -98 99z" />
    <glyph glyph-name="Atilde" unicode="&#xc3;" horiz-adv-x="667" 
d="M42 76l366 624h45l105 -591c6 -32 9 -58 19 -71c6 -8 20 -12 40 -13l27 -2l3 -3l-5 -20l-3 -3c-26 1 -65 3 -107 3c-39 0 -81 -2 -127 -3l-3 3l3 20l3 3l42 2c24 1 35 8 40 19c4 10 0 34 -6 73l-26 158c-30 1 -77 2 -127 2s-93 -1 -127 -2l-94 -174
c-13 -24 -21 -38 -21 -54s10 -20 50 -22l35 -2l3 -3l-4 -20l-3 -3c-46 1 -84 3 -115 3c-28 0 -71 -2 -106 -3l-3 3l2 20l3 3l25 2c25 2 45 15 66 51zM453 310l-52 307h-2l-177 -307c31 -2 71 -3 118 -3c46 0 87 1 113 3zM297 763h-21c0 22 24 102 81 102c31 0 49 -9 83 -22
c37 -14 58 -24 82 -24c37 0 44 33 50 50h21c-5 -24 -25 -101 -85 -101c-27 0 -48 12 -93 29c-30 12 -47 20 -65 20c-29 0 -46 -30 -53 -54z" />
    <glyph glyph-name="Ccedilla" unicode="&#xc7;" horiz-adv-x="648" 
d="M269 -98l52 83c-163 10 -256 110 -263 287c-9 267 196 432 397 432c60 0 143 -17 192 -38l3 -3c-11 -39 -21 -101 -23 -134l-3 -3h-18l-3 3l-6 81c-53 34 -107 46 -172 46c-229 0 -292 -190 -292 -356c0 -196 128 -270 237 -270c78 0 174 39 227 79h3l5 -6l-11 -37
c-31 -27 -139 -81 -240 -81l-37 -58c14 4 26 6 42 6c42 0 65 -23 64 -61c0 -60 -76 -85 -125 -85c-36 0 -68 9 -86 17v3l12 20l4 2c15 -7 39 -12 61 -12c41 0 74 16 74 47c0 27 -24 39 -48 39c-16 0 -30 -3 -41 -6z" />
    <glyph glyph-name="Eacute" unicode="&#xc9;" horiz-adv-x="556" 
d="M94 129l72 410c6 37 12 70 12 87c0 23 -5 36 -42 38l-47 2l-3 3l4 20l3 3c39 -1 80 -3 122 -3c108 0 235 2 320 3l3 -3c-9 -65 -14 -112 -15 -142l-3 -3h-18l-3 3c-3 37 2 92 -16 99c-23 9 -81 10 -127 10c-48 0 -81 -1 -98 -3c-7 -28 -13 -57 -20 -97l-31 -180h95
c63 0 133 5 154 6l6 -5c-6 -12 -14 -32 -20 -44c-24 4 -88 7 -144 7h-97l-50 -303h153c70 0 132 1 149 13c14 35 27 81 32 104l3 3h18l3 -3c-8 -40 -18 -105 -24 -154l-3 -3c-86 1 -215 3 -324 3c-56 0 -121 -2 -135 -3l-3 3l4 20l3 3c35 2 47 17 51 30c5 18 11 46 16 76z
M271 729l148 137c30 28 45 28 52 28c16 0 26 -14 26 -26c0 -17 -17 -28 -28 -35l-162 -104h-36z" />
    <glyph glyph-name="Ecircumflex" unicode="&#xca;" horiz-adv-x="556" 
d="M94 129l72 410c6 37 12 70 12 87c0 23 -5 36 -42 38l-47 2l-3 3l4 20l3 3c39 -1 80 -3 122 -3c108 0 235 2 320 3l3 -3c-9 -65 -14 -112 -15 -142l-3 -3h-18l-3 3c-3 37 2 92 -16 99c-23 9 -81 10 -127 10c-48 0 -81 -1 -98 -3c-7 -28 -13 -57 -20 -97l-31 -180h95
c63 0 133 5 154 6l6 -5c-6 -12 -14 -32 -20 -44c-24 4 -88 7 -144 7h-97l-50 -303h153c70 0 132 1 149 13c14 35 27 81 32 104l3 3h18l3 -3c-8 -40 -18 -105 -24 -154l-3 -3c-86 1 -215 3 -324 3c-56 0 -121 -2 -135 -3l-3 3l4 20l3 3c35 2 47 17 51 30c5 18 11 46 16 76z
M185 729l162 165h41l88 -165h-30l-85 108l-143 -108h-33z" />
    <glyph glyph-name="Edieresis" unicode="&#xcb;" horiz-adv-x="556" 
d="M94 129l72 410c6 37 12 70 12 87c0 23 -5 36 -42 38l-47 2l-3 3l4 20l3 3c39 -1 80 -3 122 -3c108 0 235 2 320 3l3 -3c-9 -65 -14 -112 -15 -142l-3 -3h-18l-3 3c-3 37 2 92 -16 99c-23 9 -81 10 -127 10c-48 0 -81 -1 -98 -3c-7 -28 -13 -57 -20 -97l-31 -180h95
c63 0 133 5 154 6l6 -5c-6 -12 -14 -32 -20 -44c-24 4 -88 7 -144 7h-97l-50 -303h153c70 0 132 1 149 13c14 35 27 81 32 104l3 3h18l3 -3c-8 -40 -18 -105 -24 -154l-3 -3c-86 1 -215 3 -324 3c-56 0 -121 -2 -135 -3l-3 3l4 20l3 3c35 2 47 17 51 30c5 18 11 46 16 76z
M214 836c0 23 21 44 44 44s44 -21 44 -44c0 -24 -21 -44 -44 -44s-44 20 -44 44zM397 836c0 23 21 44 44 44s44 -21 44 -44c0 -24 -21 -44 -44 -44s-44 20 -44 44z" />
    <glyph glyph-name="Egrave" unicode="&#xc8;" horiz-adv-x="556" 
d="M94 129l72 410c6 37 12 70 12 87c0 23 -5 36 -42 38l-47 2l-3 3l4 20l3 3c39 -1 80 -3 122 -3c108 0 235 2 320 3l3 -3c-9 -65 -14 -112 -15 -142l-3 -3h-18l-3 3c-3 37 2 92 -16 99c-23 9 -81 10 -127 10c-48 0 -81 -1 -98 -3c-7 -28 -13 -57 -20 -97l-31 -180h95
c63 0 133 5 154 6l6 -5c-6 -12 -14 -32 -20 -44c-24 4 -88 7 -144 7h-97l-50 -303h153c70 0 132 1 149 13c14 35 27 81 32 104l3 3h18l3 -3c-8 -40 -18 -105 -24 -154l-3 -3c-86 1 -215 3 -324 3c-56 0 -121 -2 -135 -3l-3 3l4 20l3 3c35 2 47 17 51 30c5 18 11 46 16 76z
M359 728l-123 100c-16 13 -28 24 -28 37s11 29 30 29c16 0 28 -12 45 -33l106 -133h-30z" />
    <glyph glyph-name="Iacute" unicode="&#xcd;" horiz-adv-x="315" 
d="M99 125l77 439c5 26 8 48 8 69c0 14 -5 29 -42 31l-47 2l-3 3l4 20l3 3c39 -1 80 -2 122 -3c47 1 93 2 135 3l3 -3l-3 -20l-3 -3l-38 -2c-49 -3 -51 -10 -61 -66l-81 -465c-6 -40 -10 -64 -10 -76c0 -18 10 -31 40 -32l52 -2l3 -3l-4 -20l-3 -3c-43 1 -88 3 -133 3
c-43 0 -87 -2 -127 -3l-3 3l4 20l3 3l48 2c40 2 45 35 56 100zM166 729l148 137c30 28 45 28 52 28c16 0 26 -14 26 -26c0 -17 -17 -28 -28 -35l-162 -104h-36z" />
    <glyph glyph-name="Icircumflex" unicode="&#xce;" horiz-adv-x="315" 
d="M99 125l77 439c5 26 8 48 8 69c0 14 -5 29 -42 31l-47 2l-3 3l4 20l3 3c39 -1 80 -2 122 -3c47 1 93 2 135 3l3 -3l-3 -20l-3 -3l-38 -2c-49 -3 -51 -10 -61 -66l-81 -465c-6 -40 -10 -64 -10 -76c0 -18 10 -31 40 -32l52 -2l3 -3l-4 -20l-3 -3c-43 1 -88 3 -133 3
c-43 0 -87 -2 -127 -3l-3 3l4 20l3 3l48 2c40 2 45 35 56 100zM80 729l162 165h41l88 -165h-30l-85 108l-143 -108h-33z" />
    <glyph glyph-name="Idieresis" unicode="&#xcf;" horiz-adv-x="315" 
d="M99 125l77 439c5 26 8 48 8 69c0 14 -5 29 -42 31l-47 2l-3 3l4 20l3 3c39 -1 80 -2 122 -3c47 1 93 2 135 3l3 -3l-3 -20l-3 -3l-38 -2c-49 -3 -51 -10 -61 -66l-81 -465c-6 -40 -10 -64 -10 -76c0 -18 10 -31 40 -32l52 -2l3 -3l-4 -20l-3 -3c-43 1 -88 3 -133 3
c-43 0 -87 -2 -127 -3l-3 3l4 20l3 3l48 2c40 2 45 35 56 100zM109 836c0 23 21 44 44 44s44 -21 44 -44c0 -24 -21 -44 -44 -44s-44 20 -44 44zM292 836c0 23 21 44 44 44s44 -21 44 -44c0 -24 -21 -44 -44 -44s-44 20 -44 44z" />
    <glyph glyph-name="Igrave" unicode="&#xcc;" horiz-adv-x="315" 
d="M99 125l77 439c5 26 8 48 8 69c0 14 -5 29 -42 31l-47 2l-3 3l4 20l3 3c39 -1 80 -2 122 -3c47 1 93 2 135 3l3 -3l-3 -20l-3 -3l-38 -2c-49 -3 -51 -10 -61 -66l-81 -465c-6 -40 -10 -64 -10 -76c0 -18 10 -31 40 -32l52 -2l3 -3l-4 -20l-3 -3c-43 1 -88 3 -133 3
c-43 0 -87 -2 -127 -3l-3 3l4 20l3 3l48 2c40 2 45 35 56 100zM239 728l-123 100c-16 13 -28 24 -28 37s11 29 30 29c16 0 28 -12 45 -33l106 -133h-30z" />
    <glyph glyph-name="Ntilde" unicode="&#xd1;" horiz-adv-x="741" 
d="M103 183l75 436l-11 15c-12 17 -26 25 -61 28l-31 4l-3 3l4 20l3 3c24 -1 49 -3 73 -3s49 2 73 3c23 -49 53 -105 103 -189l244 -404l76 461c8 48 9 69 9 81c0 18 -21 21 -53 23l-32 2l-3 3l5 20l3 3c36 -1 72 -3 109 -3c36 0 72 2 108 3l3 -3l-4 -20l-3 -3l-42 -2
c-20 -1 -29 -3 -37 -17c-10 -17 -18 -59 -25 -99l-67 -384c-14 -78 -23 -142 -25 -176h-45c-18 42 -58 108 -88 159l-254 425l-73 -451c-4 -25 -8 -53 -8 -70c0 -14 9 -25 39 -26l44 -2l3 -3l-5 -20l-3 -3c-36 1 -72 3 -107 3c-36 0 -72 -2 -108 -3l-3 3l5 20l3 3l29 2
c29 2 43 4 50 23c10 26 19 70 30 135zM314 763h-21c0 22 24 102 81 102c31 0 49 -9 83 -22c37 -14 58 -24 82 -24c37 0 44 33 50 50h21c-5 -24 -25 -101 -85 -101c-27 0 -48 12 -93 29c-30 12 -47 20 -65 20c-29 0 -46 -30 -53 -54z" />
    <glyph glyph-name="Oacute" unicode="&#xd3;" horiz-adv-x="741" 
d="M136 266c0 -134 51 -245 211 -245c194 0 288 219 288 409c0 156 -77 238 -212 238c-258 0 -287 -308 -287 -402zM58 256c0 239 140 448 399 448c178 0 256 -119 256 -258c0 -270 -179 -461 -393 -461c-183 0 -262 108 -262 271zM374 729l148 137c30 28 45 28 52 28
c16 0 26 -14 26 -26c0 -17 -17 -28 -28 -35l-162 -104h-36z" />
    <glyph glyph-name="Ocircumflex" unicode="&#xd4;" horiz-adv-x="741" 
d="M136 266c0 -134 51 -245 211 -245c194 0 288 219 288 409c0 156 -77 238 -212 238c-258 0 -287 -308 -287 -402zM58 256c0 239 140 448 399 448c178 0 256 -119 256 -258c0 -270 -179 -461 -393 -461c-183 0 -262 108 -262 271zM288 729l162 165h41l88 -165h-30l-85 108
l-143 -108h-33z" />
    <glyph glyph-name="Odieresis" unicode="&#xd6;" horiz-adv-x="741" 
d="M136 266c0 -134 51 -245 211 -245c194 0 288 219 288 409c0 156 -77 238 -212 238c-258 0 -287 -308 -287 -402zM58 256c0 239 140 448 399 448c178 0 256 -119 256 -258c0 -270 -179 -461 -393 -461c-183 0 -262 108 -262 271zM317 836c0 23 21 44 44 44s44 -21 44 -44
c0 -24 -21 -44 -44 -44s-44 20 -44 44zM500 836c0 23 21 44 44 44s44 -21 44 -44c0 -24 -21 -44 -44 -44s-44 20 -44 44z" />
    <glyph glyph-name="Ograve" unicode="&#xd2;" horiz-adv-x="741" 
d="M136 266c0 -134 51 -245 211 -245c194 0 288 219 288 409c0 156 -77 238 -212 238c-258 0 -287 -308 -287 -402zM58 256c0 239 140 448 399 448c178 0 256 -119 256 -258c0 -270 -179 -461 -393 -461c-183 0 -262 108 -262 271zM462 728l-123 100c-16 13 -28 24 -28 37
s11 29 30 29c16 0 28 -12 45 -33l106 -133h-30z" />
    <glyph glyph-name="Otilde" unicode="&#xd5;" horiz-adv-x="741" 
d="M136 266c0 -134 51 -245 211 -245c194 0 288 219 288 409c0 156 -77 238 -212 238c-258 0 -287 -308 -287 -402zM58 256c0 239 140 448 399 448c178 0 256 -119 256 -258c0 -270 -179 -461 -393 -461c-183 0 -262 108 -262 271zM309 763h-21c0 22 24 102 81 102
c31 0 49 -9 83 -22c37 -14 58 -24 82 -24c37 0 44 33 50 50h21c-5 -24 -25 -101 -85 -101c-27 0 -48 12 -93 29c-30 12 -47 20 -65 20c-29 0 -46 -30 -53 -54z" />
    <glyph glyph-name="Scaron" unicode="&#x160;" horiz-adv-x="519" 
d="M80 160v-75c20 -26 76 -60 141 -60c112 0 175 77 175 158c0 64 -28 84 -147 135c-99 42 -145 92 -145 171c0 116 99 215 237 215c56 0 97 -14 135 -35l15 -8l3 -4c-14 -42 -23 -90 -27 -127l-3 -3h-21l-3 3l-6 77c-18 19 -60 57 -128 57c-88 0 -142 -63 -142 -138
c0 -82 38 -115 170 -164c103 -38 128 -83 128 -141c0 -150 -141 -236 -274 -236c-76 0 -129 21 -158 36l-3 4c10 37 24 95 29 135l3 3h18zM305 729l-88 165h27l87 -111l143 111h33l-162 -165h-40z" />
    <glyph glyph-name="Uacute" unicode="&#xda;" horiz-adv-x="741" 
d="M111 276l46 272c5 32 11 64 11 80c0 20 -7 33 -49 36l-37 2l-3 3l4 20l3 3c23 -1 42 -3 80 -3c44 0 76 2 90 3c-8 -26 -15 -66 -22 -106l-65 -366c-4 -23 -7 -44 -7 -70c0 -70 43 -114 129 -114c115 0 192 72 252 133l63 373c6 39 10 59 10 87c0 26 -18 32 -53 35l-34 2
l-3 3l4 20l3 3c33 -1 73 -3 122 -3c53 0 104 2 130 3l3 -3l-4 -20l-3 -3l-34 -2c-54 -3 -54 -13 -64 -71l-80 -460c-4 -26 -10 -58 -10 -72c0 -26 19 -34 55 -36l32 -2l3 -3l-4 -20l-3 -3c-23 1 -50 3 -76 3c-27 0 -53 -2 -80 -3l-6 6l23 117l-2 2
c-62 -66 -161 -137 -271 -137c-77 0 -171 40 -171 159c0 35 12 99 18 132zM364 729l148 137c30 28 45 28 52 28c16 0 26 -14 26 -26c0 -17 -17 -28 -28 -35l-162 -104h-36z" />
    <glyph glyph-name="Ucircumflex" unicode="&#xdb;" horiz-adv-x="741" 
d="M111 276l46 272c5 32 11 64 11 80c0 20 -7 33 -49 36l-37 2l-3 3l4 20l3 3c23 -1 42 -3 80 -3c44 0 76 2 90 3c-8 -26 -15 -66 -22 -106l-65 -366c-4 -23 -7 -44 -7 -70c0 -70 43 -114 129 -114c115 0 192 72 252 133l63 373c6 39 10 59 10 87c0 26 -18 32 -53 35l-34 2
l-3 3l4 20l3 3c33 -1 73 -3 122 -3c53 0 104 2 130 3l3 -3l-4 -20l-3 -3l-34 -2c-54 -3 -54 -13 -64 -71l-80 -460c-4 -26 -10 -58 -10 -72c0 -26 19 -34 55 -36l32 -2l3 -3l-4 -20l-3 -3c-23 1 -50 3 -76 3c-27 0 -53 -2 -80 -3l-6 6l23 117l-2 2
c-62 -66 -161 -137 -271 -137c-77 0 -171 40 -171 159c0 35 12 99 18 132zM278 729l162 165h41l88 -165h-30l-85 108l-143 -108h-33z" />
    <glyph glyph-name="Udieresis" unicode="&#xdc;" horiz-adv-x="741" 
d="M111 276l46 272c5 32 11 64 11 80c0 20 -7 33 -49 36l-37 2l-3 3l4 20l3 3c23 -1 42 -3 80 -3c44 0 76 2 90 3c-8 -26 -15 -66 -22 -106l-65 -366c-4 -23 -7 -44 -7 -70c0 -70 43 -114 129 -114c115 0 192 72 252 133l63 373c6 39 10 59 10 87c0 26 -18 32 -53 35l-34 2
l-3 3l4 20l3 3c33 -1 73 -3 122 -3c53 0 104 2 130 3l3 -3l-4 -20l-3 -3l-34 -2c-54 -3 -54 -13 -64 -71l-80 -460c-4 -26 -10 -58 -10 -72c0 -26 19 -34 55 -36l32 -2l3 -3l-4 -20l-3 -3c-23 1 -50 3 -76 3c-27 0 -53 -2 -80 -3l-6 6l23 117l-2 2
c-62 -66 -161 -137 -271 -137c-77 0 -171 40 -171 159c0 35 12 99 18 132zM307 836c0 23 21 44 44 44s44 -21 44 -44c0 -24 -21 -44 -44 -44s-44 20 -44 44zM490 836c0 23 21 44 44 44s44 -21 44 -44c0 -24 -21 -44 -44 -44s-44 20 -44 44z" />
    <glyph glyph-name="Ugrave" unicode="&#xd9;" horiz-adv-x="741" 
d="M111 276l46 272c5 32 11 64 11 80c0 20 -7 33 -49 36l-37 2l-3 3l4 20l3 3c23 -1 42 -3 80 -3c44 0 76 2 90 3c-8 -26 -15 -66 -22 -106l-65 -366c-4 -23 -7 -44 -7 -70c0 -70 43 -114 129 -114c115 0 192 72 252 133l63 373c6 39 10 59 10 87c0 26 -18 32 -53 35l-34 2
l-3 3l4 20l3 3c33 -1 73 -3 122 -3c53 0 104 2 130 3l3 -3l-4 -20l-3 -3l-34 -2c-54 -3 -54 -13 -64 -71l-80 -460c-4 -26 -10 -58 -10 -72c0 -26 19 -34 55 -36l32 -2l3 -3l-4 -20l-3 -3c-23 1 -50 3 -76 3c-27 0 -53 -2 -80 -3l-6 6l23 117l-2 2
c-62 -66 -161 -137 -271 -137c-77 0 -171 40 -171 159c0 35 12 99 18 132zM452 728l-123 100c-16 13 -28 24 -28 37s11 29 30 29c16 0 28 -12 45 -33l106 -133h-30z" />
    <glyph glyph-name="Yacute" unicode="&#xdd;" horiz-adv-x="611" 
d="M672 704l-6 -75c-112 -9 -203 -153 -268 -280c-31 -61 -40 -103 -43 -121c-16 -92 -25 -161 -25 -170c0 -23 16 -31 51 -33l34 -2l3 -3l-5 -20l-3 -3c-17 1 -78 3 -122 3c-54 0 -99 -2 -126 -3l-3 3l5 20l4 3l29 2c39 2 53 13 60 46c8 40 29 149 29 185
c0 64 -83 385 -176 385c-20 0 -36 -6 -53 -16l-3 3l-3 21l3 4c16 7 59 34 77 51c100 -8 147 -106 212 -396h2c45 111 156 338 327 396zM319 729l148 137c30 28 45 28 52 28c16 0 26 -14 26 -26c0 -17 -17 -28 -28 -35l-162 -104h-36z" />
    <glyph glyph-name="Ydieresis" unicode="&#x178;" horiz-adv-x="611" 
d="M672 704l-6 -75c-112 -9 -203 -153 -268 -280c-31 -61 -40 -103 -43 -121c-16 -92 -25 -161 -25 -170c0 -23 16 -31 51 -33l34 -2l3 -3l-5 -20l-3 -3c-17 1 -78 3 -122 3c-54 0 -99 -2 -126 -3l-3 3l5 20l4 3l29 2c39 2 53 13 60 46c8 40 29 149 29 185
c0 64 -83 385 -176 385c-20 0 -36 -6 -53 -16l-3 3l-3 21l3 4c16 7 59 34 77 51c100 -8 147 -106 212 -396h2c45 111 156 338 327 396zM262 836c0 23 21 44 44 44s44 -21 44 -44c0 -24 -21 -44 -44 -44s-44 20 -44 44zM445 836c0 23 21 44 44 44s44 -21 44 -44
c0 -24 -21 -44 -44 -44s-44 20 -44 44z" />
    <glyph glyph-name="Zcaron" unicode="&#x17d;" horiz-adv-x="630" 
d="M112 37h143c103 0 243 6 261 17c14 9 34 73 41 104l3 3h18l3 -3c-9 -46 -19 -113 -22 -158l-3 -3c-62 1 -161 3 -269 3c-114 0 -216 -2 -281 -3l-3 3l6 21c14 17 40 49 66 82l435 550h-190c-79 0 -149 -4 -163 -14c-11 -8 -26 -72 -31 -98l-3 -3h-18l-3 3
c5 39 11 113 13 148l3 3c87 -1 213 -3 320 -3c55 0 129 2 182 3l3 -3l-3 -16c-17 -19 -34 -38 -53 -62zM350 729l-88 165h27l87 -111l143 111h33l-162 -165h-40z" />
    <glyph glyph-name="aacute" unicode="&#xe1;" horiz-adv-x="481" 
d="M428 476l8 -8c-36 -74 -97 -378 -97 -400c0 -18 5 -26 13 -26c12 0 27 7 53 26l29 23h3l7 -16v-3l-43 -33c-38 -29 -75 -51 -104 -51c-19 0 -24 13 -24 27c0 27 23 136 29 166l-2 2c-56 -83 -172 -195 -236 -195c-30 0 -44 30 -44 86c0 130 65 265 89 302
c13 19 106 100 190 100c46 0 75 -9 98 -20zM86 82c0 -25 4 -40 22 -40c46 0 147 107 191 178c20 33 52 173 55 195c-19 7 -47 13 -68 13c-54 0 -87 -3 -105 -21c-14 -14 -35 -51 -54 -112c-18 -57 -41 -129 -41 -213zM234 538l148 137c30 28 45 28 52 28c16 0 26 -14 26 -26
c0 -17 -17 -28 -28 -35l-162 -104h-36z" />
    <glyph glyph-name="acircumflex" unicode="&#xe2;" horiz-adv-x="481" 
d="M428 476l8 -8c-36 -74 -97 -378 -97 -400c0 -18 5 -26 13 -26c12 0 27 7 53 26l29 23h3l7 -16v-3l-43 -33c-38 -29 -75 -51 -104 -51c-19 0 -24 13 -24 27c0 27 23 136 29 166l-2 2c-56 -83 -172 -195 -236 -195c-30 0 -44 30 -44 86c0 130 65 265 89 302
c13 19 106 100 190 100c46 0 75 -9 98 -20zM86 82c0 -25 4 -40 22 -40c46 0 147 107 191 178c20 33 52 173 55 195c-19 7 -47 13 -68 13c-54 0 -87 -3 -105 -21c-14 -14 -35 -51 -54 -112c-18 -57 -41 -129 -41 -213zM148 538l162 165h41l88 -165h-30l-85 108l-143 -108h-33
z" />
    <glyph glyph-name="adieresis" unicode="&#xe4;" horiz-adv-x="481" 
d="M428 476l8 -8c-36 -74 -97 -378 -97 -400c0 -18 5 -26 13 -26c12 0 27 7 53 26l29 23h3l7 -16v-3l-43 -33c-38 -29 -75 -51 -104 -51c-19 0 -24 13 -24 27c0 27 23 136 29 166l-2 2c-56 -83 -172 -195 -236 -195c-30 0 -44 30 -44 86c0 130 65 265 89 302
c13 19 106 100 190 100c46 0 75 -9 98 -20zM86 82c0 -25 4 -40 22 -40c46 0 147 107 191 178c20 33 52 173 55 195c-19 7 -47 13 -68 13c-54 0 -87 -3 -105 -21c-14 -14 -35 -51 -54 -112c-18 -57 -41 -129 -41 -213zM177 645c0 23 21 44 44 44s44 -21 44 -44
c0 -24 -21 -44 -44 -44s-44 20 -44 44zM360 645c0 23 21 44 44 44s44 -21 44 -44c0 -24 -21 -44 -44 -44s-44 20 -44 44z" />
    <glyph glyph-name="agrave" unicode="&#xe0;" horiz-adv-x="481" 
d="M428 476l8 -8c-36 -74 -97 -378 -97 -400c0 -18 5 -26 13 -26c12 0 27 7 53 26l29 23h3l7 -16v-3l-43 -33c-38 -29 -75 -51 -104 -51c-19 0 -24 13 -24 27c0 27 23 136 29 166l-2 2c-56 -83 -172 -195 -236 -195c-30 0 -44 30 -44 86c0 130 65 265 89 302
c13 19 106 100 190 100c46 0 75 -9 98 -20zM86 82c0 -25 4 -40 22 -40c46 0 147 107 191 178c20 33 52 173 55 195c-19 7 -47 13 -68 13c-54 0 -87 -3 -105 -21c-14 -14 -35 -51 -54 -112c-18 -57 -41 -129 -41 -213zM322 537l-123 100c-16 13 -28 24 -28 37s11 29 30 29
c16 0 28 -12 45 -33l106 -133h-30z" />
    <glyph glyph-name="aring" unicode="&#xe5;" horiz-adv-x="481" 
d="M428 476l8 -8c-36 -74 -97 -378 -97 -400c0 -18 5 -26 13 -26c12 0 27 7 53 26l29 23h3l7 -16v-3l-43 -33c-38 -29 -75 -51 -104 -51c-19 0 -24 13 -24 27c0 27 23 136 29 166l-2 2c-56 -83 -172 -195 -236 -195c-30 0 -44 30 -44 86c0 130 65 265 89 302
c13 19 106 100 190 100c46 0 75 -9 98 -20zM86 82c0 -25 4 -40 22 -40c46 0 147 107 191 178c20 33 52 173 55 195c-19 7 -47 13 -68 13c-54 0 -87 -3 -105 -21c-14 -14 -35 -51 -54 -112c-18 -57 -41 -129 -41 -213zM238 620c0 -38 30 -69 68 -69s69 31 69 69
s-31 68 -69 68s-68 -30 -68 -68zM208 620c0 58 44 98 98 98s99 -40 99 -98s-45 -99 -99 -99s-98 41 -98 99z" />
    <glyph glyph-name="atilde" unicode="&#xe3;" horiz-adv-x="481" 
d="M428 476l8 -8c-36 -74 -97 -378 -97 -400c0 -18 5 -26 13 -26c12 0 27 7 53 26l29 23h3l7 -16v-3l-43 -33c-38 -29 -75 -51 -104 -51c-19 0 -24 13 -24 27c0 27 23 136 29 166l-2 2c-56 -83 -172 -195 -236 -195c-30 0 -44 30 -44 86c0 130 65 265 89 302
c13 19 106 100 190 100c46 0 75 -9 98 -20zM86 82c0 -25 4 -40 22 -40c46 0 147 107 191 178c20 33 52 173 55 195c-19 7 -47 13 -68 13c-54 0 -87 -3 -105 -21c-14 -14 -35 -51 -54 -112c-18 -57 -41 -129 -41 -213zM169 572h-21c0 22 24 102 81 102c31 0 49 -9 83 -22
c37 -14 58 -24 82 -24c37 0 44 33 50 50h21c-5 -24 -25 -101 -85 -101c-27 0 -48 12 -93 29c-30 12 -47 20 -65 20c-29 0 -46 -30 -53 -54z" />
    <glyph glyph-name="ccedilla" unicode="&#xe7;" horiz-adv-x="370" 
d="M342 90l-56 -44c-38 -28 -82 -51 -125 -55l-32 -50l2 -2c10 4 22 6 40 6c42 0 65 -23 64 -61c0 -60 -76 -85 -125 -85c-36 0 -68 9 -86 17v3l12 20l4 2c15 -7 39 -12 61 -12c41 0 74 16 74 47c0 27 -24 39 -48 39c-16 0 -30 -2 -41 -6l-5 5l48 74c-70 6 -105 60 -105 149
c0 95 31 170 53 210s116 129 215 129c40 0 64 -12 79 -21l3 -5c-15 -29 -21 -92 -21 -118l-3 -3h-18l-3 3v81c-10 4 -34 15 -74 15c-79 0 -112 -49 -134 -112c-25 -73 -31 -128 -31 -177c0 -61 28 -106 82 -106c58 0 110 33 159 75h3l8 -15v-3z" />
    <glyph glyph-name="eacute" unicode="&#xe9;" horiz-adv-x="389" 
d="M341 90l-35 -28c-50 -41 -118 -74 -180 -74c-67 0 -106 42 -106 128c0 113 48 228 78 258c58 58 116 102 196 102c52 0 84 -22 84 -75c0 -99 -118 -155 -219 -179l-64 -15c-5 -18 -9 -51 -9 -89c0 -54 21 -90 78 -90s110 34 138 57l28 23h3l8 -15v-3zM100 229l55 12
c76 16 160 76 160 145c0 34 -15 54 -53 54c-76 0 -125 -70 -147 -154zM188 538l148 137c30 28 45 28 52 28c16 0 26 -14 26 -26c0 -17 -17 -28 -28 -35l-162 -104h-36z" />
    <glyph glyph-name="ecircumflex" unicode="&#xea;" horiz-adv-x="389" 
d="M341 90l-35 -28c-50 -41 -118 -74 -180 -74c-67 0 -106 42 -106 128c0 113 48 228 78 258c58 58 116 102 196 102c52 0 84 -22 84 -75c0 -99 -118 -155 -219 -179l-64 -15c-5 -18 -9 -51 -9 -89c0 -54 21 -90 78 -90s110 34 138 57l28 23h3l8 -15v-3zM100 229l55 12
c76 16 160 76 160 145c0 34 -15 54 -53 54c-76 0 -125 -70 -147 -154zM102 538l162 165h41l88 -165h-30l-85 108l-143 -108h-33z" />
    <glyph glyph-name="edieresis" unicode="&#xeb;" horiz-adv-x="389" 
d="M341 90l-35 -28c-50 -41 -118 -74 -180 -74c-67 0 -106 42 -106 128c0 113 48 228 78 258c58 58 116 102 196 102c52 0 84 -22 84 -75c0 -99 -118 -155 -219 -179l-64 -15c-5 -18 -9 -51 -9 -89c0 -54 21 -90 78 -90s110 34 138 57l28 23h3l8 -15v-3zM100 229l55 12
c76 16 160 76 160 145c0 34 -15 54 -53 54c-76 0 -125 -70 -147 -154zM131 645c0 23 21 44 44 44s44 -21 44 -44c0 -24 -21 -44 -44 -44s-44 20 -44 44zM314 645c0 23 21 44 44 44s44 -21 44 -44c0 -24 -21 -44 -44 -44s-44 20 -44 44z" />
    <glyph glyph-name="egrave" unicode="&#xe8;" horiz-adv-x="389" 
d="M341 90l-35 -28c-50 -41 -118 -74 -180 -74c-67 0 -106 42 -106 128c0 113 48 228 78 258c58 58 116 102 196 102c52 0 84 -22 84 -75c0 -99 -118 -155 -219 -179l-64 -15c-5 -18 -9 -51 -9 -89c0 -54 21 -90 78 -90s110 34 138 57l28 23h3l8 -15v-3zM100 229l55 12
c76 16 160 76 160 145c0 34 -15 54 -53 54c-76 0 -125 -70 -147 -154zM276 537l-123 100c-16 13 -28 24 -28 37s11 29 30 29c16 0 28 -12 45 -33l106 -133h-30z" />
    <glyph glyph-name="iacute" unicode="&#xed;" horiz-adv-x="278" 
d="M66 90l61 246c6 27 10 54 10 64c0 8 -2 13 -9 13c-10 0 -29 -11 -52 -25l-32 -20h-3l-6 14v3l32 23c61 44 97 68 118 68c18 0 27 -6 27 -26c0 -16 -6 -38 -13 -68l-61 -245c-7 -31 -13 -57 -13 -74c0 -16 3 -21 12 -21c6 0 20 7 41 22l42 30h3l8 -17v-3l-41 -28
c-44 -30 -85 -58 -107 -58c-24 0 -27 21 -27 35c0 18 4 40 10 67zM132 538l148 137c30 28 45 28 52 28c16 0 26 -14 26 -26c0 -17 -17 -28 -28 -35l-162 -104h-36z" />
    <glyph glyph-name="icircumflex" unicode="&#xee;" horiz-adv-x="278" 
d="M66 90l61 246c6 27 10 54 10 64c0 8 -2 13 -9 13c-10 0 -29 -11 -52 -25l-32 -20h-3l-6 14v3l32 23c61 44 97 68 118 68c18 0 27 -6 27 -26c0 -16 -6 -38 -13 -68l-61 -245c-7 -31 -13 -57 -13 -74c0 -16 3 -21 12 -21c6 0 20 7 41 22l42 30h3l8 -17v-3l-41 -28
c-44 -30 -85 -58 -107 -58c-24 0 -27 21 -27 35c0 18 4 40 10 67zM46 538l162 165h41l88 -165h-30l-85 108l-143 -108h-33z" />
    <glyph glyph-name="idieresis" unicode="&#xef;" horiz-adv-x="278" 
d="M66 90l61 246c6 27 10 54 10 64c0 8 -2 13 -9 13c-10 0 -29 -11 -52 -25l-32 -20h-3l-6 14v3l32 23c61 44 97 68 118 68c18 0 27 -6 27 -26c0 -16 -6 -38 -13 -68l-61 -245c-7 -31 -13 -57 -13 -74c0 -16 3 -21 12 -21c6 0 20 7 41 22l42 30h3l8 -17v-3l-41 -28
c-44 -30 -85 -58 -107 -58c-24 0 -27 21 -27 35c0 18 4 40 10 67zM75 645c0 23 21 44 44 44s44 -21 44 -44c0 -24 -21 -44 -44 -44s-44 20 -44 44zM258 645c0 23 21 44 44 44s44 -21 44 -44c0 -24 -21 -44 -44 -44s-44 20 -44 44z" />
    <glyph glyph-name="igrave" unicode="&#xec;" horiz-adv-x="278" 
d="M66 90l61 246c6 27 10 54 10 64c0 8 -2 13 -9 13c-10 0 -29 -11 -52 -25l-32 -20h-3l-6 14v3l32 23c61 44 97 68 118 68c18 0 27 -6 27 -26c0 -16 -6 -38 -13 -68l-61 -245c-7 -31 -13 -57 -13 -74c0 -16 3 -21 12 -21c6 0 20 7 41 22l42 30h3l8 -17v-3l-41 -28
c-44 -30 -85 -58 -107 -58c-24 0 -27 21 -27 35c0 18 4 40 10 67zM220 537l-123 100c-16 13 -28 24 -28 37s11 29 30 29c16 0 28 -12 45 -33l106 -133h-30z" />
    <glyph glyph-name="ntilde" unicode="&#xf1;" horiz-adv-x="519" 
d="M44 -12l-8 8c28 84 86 370 86 399c0 15 -2 18 -12 18c-13 0 -58 -31 -84 -49h-3l-7 17v3c29 20 129 92 163 92c11 0 15 -6 15 -21c0 -19 -8 -56 -17 -95l-23 -104h2c91 137 195 220 264 220c27 0 37 -16 37 -35c0 -21 -6 -50 -12 -72l-46 -188c-13 -50 -24 -105 -24 -116
c0 -14 2 -20 13 -20c14 0 60 32 85 52h3l7 -17v-3c-47 -35 -113 -89 -152 -89c-21 0 -31 14 -31 34c0 42 85 320 85 373c0 12 -5 21 -17 21c-37 0 -107 -49 -152 -110c-78 -104 -100 -208 -111 -303zM178 572h-21c0 22 24 102 81 102c31 0 49 -9 83 -22
c37 -14 58 -24 82 -24c37 0 44 33 50 50h21c-5 -24 -25 -101 -85 -101c-27 0 -48 12 -93 29c-30 12 -47 20 -65 20c-29 0 -46 -30 -53 -54z" />
    <glyph glyph-name="oacute" unicode="&#xf3;" horiz-adv-x="444" 
d="M344 302c0 78 -21 141 -87 141c-114 0 -167 -160 -167 -296c0 -98 36 -132 91 -132c108 0 163 175 163 287zM24 144c0 173 98 332 251 332c104 0 135 -73 135 -147c0 -153 -94 -341 -258 -341c-91 0 -128 64 -128 156zM215 538l148 137c30 28 45 28 52 28
c16 0 26 -14 26 -26c0 -17 -17 -28 -28 -35l-162 -104h-36z" />
    <glyph glyph-name="ocircumflex" unicode="&#xf4;" horiz-adv-x="444" 
d="M344 302c0 78 -21 141 -87 141c-114 0 -167 -160 -167 -296c0 -98 36 -132 91 -132c108 0 163 175 163 287zM24 144c0 173 98 332 251 332c104 0 135 -73 135 -147c0 -153 -94 -341 -258 -341c-91 0 -128 64 -128 156zM129 538l162 165h41l88 -165h-30l-85 108l-143 -108
h-33z" />
    <glyph glyph-name="odieresis" unicode="&#xf6;" horiz-adv-x="444" 
d="M344 302c0 78 -21 141 -87 141c-114 0 -167 -160 -167 -296c0 -98 36 -132 91 -132c108 0 163 175 163 287zM24 144c0 173 98 332 251 332c104 0 135 -73 135 -147c0 -153 -94 -341 -258 -341c-91 0 -128 64 -128 156zM158 645c0 23 21 44 44 44s44 -21 44 -44
c0 -24 -21 -44 -44 -44s-44 20 -44 44zM341 645c0 23 21 44 44 44s44 -21 44 -44c0 -24 -21 -44 -44 -44s-44 20 -44 44z" />
    <glyph glyph-name="ograve" unicode="&#xf2;" horiz-adv-x="444" 
d="M344 302c0 78 -21 141 -87 141c-114 0 -167 -160 -167 -296c0 -98 36 -132 91 -132c108 0 163 175 163 287zM24 144c0 173 98 332 251 332c104 0 135 -73 135 -147c0 -153 -94 -341 -258 -341c-91 0 -128 64 -128 156zM303 537l-123 100c-16 13 -28 24 -28 37
s11 29 30 29c16 0 28 -12 45 -33l106 -133h-30z" />
    <glyph glyph-name="otilde" unicode="&#xf5;" horiz-adv-x="444" 
d="M344 302c0 78 -21 141 -87 141c-114 0 -167 -160 -167 -296c0 -98 36 -132 91 -132c108 0 163 175 163 287zM24 144c0 173 98 332 251 332c104 0 135 -73 135 -147c0 -153 -94 -341 -258 -341c-91 0 -128 64 -128 156zM150 572h-21c0 22 24 102 81 102c31 0 49 -9 83 -22
c37 -14 58 -24 82 -24c37 0 44 33 50 50h21c-5 -24 -25 -101 -85 -101c-27 0 -48 12 -93 29c-30 12 -47 20 -65 20c-29 0 -46 -30 -53 -54z" />
    <glyph glyph-name="scaron" unicode="&#x161;" horiz-adv-x="370" 
d="M55 129l-6 -71c18 -14 48 -34 101 -34c66 0 115 43 115 113c0 51 -33 62 -105 71c-47 6 -118 15 -118 97c0 100 126 171 201 171c46 0 73 -12 86 -20l2 -4c-12 -34 -20 -82 -23 -102l-3 -3h-18l-3 3l6 59c-15 9 -40 22 -92 22c-62 0 -96 -39 -96 -95c0 -45 14 -65 86 -73
l27 -3c88 -10 110 -40 110 -101c0 -79 -105 -171 -213 -171c-48 0 -84 11 -101 15l-2 4c11 34 20 95 22 122l3 3h18zM214 538l-88 165h27l87 -111l143 111h33l-162 -165h-40z" />
    <glyph glyph-name="uacute" unicode="&#xfa;" horiz-adv-x="519" 
d="M27 385l42 29c42 28 98 62 120 62c11 0 20 -8 20 -22c0 -20 -11 -49 -19 -87l-11 -48c-44 -196 -53 -222 -53 -242c0 -17 2 -29 18 -29c24 0 101 63 162 151c65 93 90 203 93 260c19 2 52 11 62 17l8 -8c-35 -90 -89 -353 -89 -395c0 -16 3 -25 14 -25c9 0 23 8 54 31
l28 20h3l6 -17v-3l-31 -23c-37 -29 -99 -68 -122 -68c-15 0 -21 8 -21 21c0 20 5 46 16 103l23 113h-2c-71 -122 -195 -237 -255 -237c-31 0 -36 24 -36 45s6 50 59 289c8 35 15 66 15 84c0 7 -1 11 -8 11c-11 0 -23 -8 -61 -33l-26 -17h-3l-6 15v3zM253 538l148 137
c30 28 45 28 52 28c16 0 26 -14 26 -26c0 -17 -17 -28 -28 -35l-162 -104h-36z" />
    <glyph glyph-name="ucircumflex" unicode="&#xfb;" horiz-adv-x="519" 
d="M27 385l42 29c42 28 98 62 120 62c11 0 20 -8 20 -22c0 -20 -11 -49 -19 -87l-11 -48c-44 -196 -53 -222 -53 -242c0 -17 2 -29 18 -29c24 0 101 63 162 151c65 93 90 203 93 260c19 2 52 11 62 17l8 -8c-35 -90 -89 -353 -89 -395c0 -16 3 -25 14 -25c9 0 23 8 54 31
l28 20h3l6 -17v-3l-31 -23c-37 -29 -99 -68 -122 -68c-15 0 -21 8 -21 21c0 20 5 46 16 103l23 113h-2c-71 -122 -195 -237 -255 -237c-31 0 -36 24 -36 45s6 50 59 289c8 35 15 66 15 84c0 7 -1 11 -8 11c-11 0 -23 -8 -61 -33l-26 -17h-3l-6 15v3zM157 538l162 165h41
l88 -165h-30l-85 108l-143 -108h-33z" />
    <glyph glyph-name="udieresis" unicode="&#xfc;" horiz-adv-x="519" 
d="M27 385l42 29c42 28 98 62 120 62c11 0 20 -8 20 -22c0 -20 -11 -49 -19 -87l-11 -48c-44 -196 -53 -222 -53 -242c0 -17 2 -29 18 -29c24 0 101 63 162 151c65 93 90 203 93 260c19 2 52 11 62 17l8 -8c-35 -90 -89 -353 -89 -395c0 -16 3 -25 14 -25c9 0 23 8 54 31
l28 20h3l6 -17v-3l-31 -23c-37 -29 -99 -68 -122 -68c-15 0 -21 8 -21 21c0 20 5 46 16 103l23 113h-2c-71 -122 -195 -237 -255 -237c-31 0 -36 24 -36 45s6 50 59 289c8 35 15 66 15 84c0 7 -1 11 -8 11c-11 0 -23 -8 -61 -33l-26 -17h-3l-6 15v3zM186 645
c0 23 21 44 44 44s44 -21 44 -44c0 -24 -21 -44 -44 -44s-44 20 -44 44zM369 645c0 23 21 44 44 44s44 -21 44 -44c0 -24 -21 -44 -44 -44s-44 20 -44 44z" />
    <glyph glyph-name="ugrave" unicode="&#xf9;" horiz-adv-x="519" 
d="M27 385l42 29c42 28 98 62 120 62c11 0 20 -8 20 -22c0 -20 -11 -49 -19 -87l-11 -48c-44 -196 -53 -222 -53 -242c0 -17 2 -29 18 -29c24 0 101 63 162 151c65 93 90 203 93 260c19 2 52 11 62 17l8 -8c-35 -90 -89 -353 -89 -395c0 -16 3 -25 14 -25c9 0 23 8 54 31
l28 20h3l6 -17v-3l-31 -23c-37 -29 -99 -68 -122 -68c-15 0 -21 8 -21 21c0 20 5 46 16 103l23 113h-2c-71 -122 -195 -237 -255 -237c-31 0 -36 24 -36 45s6 50 59 289c8 35 15 66 15 84c0 7 -1 11 -8 11c-11 0 -23 -8 -61 -33l-26 -17h-3l-6 15v3zM341 537l-123 100
c-16 13 -28 24 -28 37s11 29 30 29c16 0 28 -12 45 -33l106 -133h-30z" />
    <glyph glyph-name="yacute" unicode="&#xfd;" horiz-adv-x="481" 
d="M7 393l50 34c39 27 76 49 92 49c22 0 27 -20 27 -50c0 -33 -3 -74 -14 -196c-5 -56 -8 -114 -8 -143c0 -24 7 -36 21 -36c27 0 112 95 154 181c38 78 59 176 69 229c21 1 51 9 66 15l7 -8c-14 -24 -30 -77 -46 -130l-33 -113c-30 -106 -58 -220 -108 -317
c-45 -88 -125 -181 -208 -181c-36 0 -66 18 -76 48c-4 14 -5 32 -5 45c14 8 38 25 47 35l12 -5c-3 -7 -5 -12 -5 -26c0 -22 15 -57 59 -57c90 0 149 151 213 407h-2c-49 -75 -135 -186 -186 -186c-31 0 -42 25 -42 62c0 30 4 64 6 90l11 150c3 28 5 62 5 86
c0 26 -7 40 -21 40c-9 0 -23 -6 -51 -24l-25 -16h-3l-6 14v3zM234 538l148 137c30 28 45 28 52 28c16 0 26 -14 26 -26c0 -17 -17 -28 -28 -35l-162 -104h-36z" />
    <glyph glyph-name="ydieresis" unicode="&#xff;" horiz-adv-x="481" 
d="M7 393l50 34c39 27 76 49 92 49c22 0 27 -20 27 -50c0 -33 -3 -74 -14 -196c-5 -56 -8 -114 -8 -143c0 -24 7 -36 21 -36c27 0 112 95 154 181c38 78 59 176 69 229c21 1 51 9 66 15l7 -8c-14 -24 -30 -77 -46 -130l-33 -113c-30 -106 -58 -220 -108 -317
c-45 -88 -125 -181 -208 -181c-36 0 -66 18 -76 48c-4 14 -5 32 -5 45c14 8 38 25 47 35l12 -5c-3 -7 -5 -12 -5 -26c0 -22 15 -57 59 -57c90 0 149 151 213 407h-2c-49 -75 -135 -186 -186 -186c-31 0 -42 25 -42 62c0 30 4 64 6 90l11 150c3 28 5 62 5 86
c0 26 -7 40 -21 40c-9 0 -23 -6 -51 -24l-25 -16h-3l-6 14v3zM171 645c0 23 21 44 44 44s44 -21 44 -44c0 -24 -21 -44 -44 -44s-44 20 -44 44zM354 645c0 23 21 44 44 44s44 -21 44 -44c0 -24 -21 -44 -44 -44s-44 20 -44 44z" />
    <glyph glyph-name="zcaron" unicode="&#x17e;" horiz-adv-x="370" 
d="M-35 9l341 391l-2 2c-6 -2 -18 -3 -29 -4c-12 -1 -25 -1 -34 -1c-11 0 -30 2 -52 6c-16 3 -30 6 -47 6c-14 0 -28 -2 -38 -4l-30 -57l-4 -2h-16l-3 3c14 31 29 74 37 110c9 4 23 13 58 13c51 0 107 -30 156 -30c36 0 57 19 70 34l12 -4v-28l-332 -382l2 -2
c16 5 32 8 54 8c21 0 45 -4 68 -9c23 -4 45 -8 62 -8c27 0 36 3 43 6l26 64l3 3h18l3 -3c-8 -20 -29 -97 -35 -125c-17 -4 -32 -8 -60 -8c-30 0 -55 8 -87 16c-34 8 -59 16 -92 16c-37 0 -61 -18 -78 -32h-3l-11 18v3zM220 538l-88 165h27l87 -111l143 111h33l-162 -165h-40
z" />
    <glyph glyph-name="Delta" unicode="&#x2206;" horiz-adv-x="566" 
d="M489 0h-500l3 18l349 656l28 8l123 -664zM421 37l-98 544l-286 -544h384z" />
    <glyph glyph-name="Omega" unicode="&#x2126;" horiz-adv-x="654" 
d="M600 123l-43 -123h-206l-2 16c55 77 164 206 190 355c35 207 -47 286 -141 286c-103 0 -205 -82 -242 -291c-25 -144 28 -262 64 -350l-10 -16h-203l1 123l20 1c7 -65 21 -75 55 -75h99c-43 54 -122 162 -94 323c34 191 171 311 316 311c148 0 237 -113 204 -303
c-26 -144 -137 -261 -211 -331h100c39 0 50 7 82 75z" />
    <glyph glyph-name="uni03BC" unicode="&#x3bc;" horiz-adv-x="519" 
d="M27 385l42 29c42 28 98 62 120 62c11 0 20 -8 20 -22c0 -20 -11 -49 -19 -87l-11 -48c-44 -196 -53 -222 -53 -242c0 -17 2 -29 18 -29c24 0 101 63 162 151c65 93 90 203 93 260c19 2 52 11 62 17l8 -8c-35 -90 -89 -353 -89 -395c0 -16 3 -25 14 -25c9 0 23 8 54 31
l28 20h3l6 -17v-3l-31 -23c-37 -29 -99 -68 -122 -68c-15 0 -21 8 -21 21c0 20 5 46 16 103l23 113h-2c-70 -120 -200 -237 -229 -237c-9 0 -12 2 -17 7c-7 -37 -41 -194 -43 -255c-19 -1 -51 -7 -64 -13l-9 6c13 42 43 165 73 330l57 259c8 35 15 66 15 84c0 7 -1 11 -8 11
c-11 0 -23 -8 -61 -33l-26 -17h-3l-6 15v3z" />
    <glyph glyph-name="pi" unicode="&#x3c0;" horiz-adv-x="508" 
d="M497 455l18 -8c-14 -35 -30 -55 -44 -71c-15 -3 -39 -3 -66 -3c-15 -59 -36 -179 -48 -248c-9 -56 -6 -91 27 -91c20 0 34 11 55 33l10 -16c-32 -46 -69 -62 -99 -62c-45 0 -71 24 -54 120c16 90 38 185 57 266c-57 1 -116 2 -155 2l-4 -22c-40 -223 -108 -335 -123 -350
c-14 -6 -40 -15 -53 -16l-3 13c86 87 135 272 153 376c-66 0 -93 -21 -129 -46l-9 17c30 28 74 78 165 78c66 0 149 -4 241 -4c28 0 40 5 61 32z" />
    <glyph glyph-name="Euro" unicode="&#x20ac;" 
d="M513 655c-9 -38 -16 -77 -19 -116l-3 -3l-22 -1l-2 3l-2 65c-29 29 -55 39 -96 39c-133 0 -176 -118 -203 -231c79 0 159 -1 238 2l2 -3l-10 -27l-4 -3c-55 2 -109 2 -164 2h-67c-3 -20 -10 -72 -9 -90c67 0 135 -1 202 2l3 -3l-11 -27l-3 -3c-64 3 -129 2 -193 2
c-1 -10 -1 -21 -1 -31c0 -100 26 -203 147 -203c53 0 111 33 148 69l9 -7l-5 -35c-38 -39 -114 -71 -169 -71c-160 0 -202 124 -202 259v19c-21 0 -43 -1 -64 -2l-2 3l11 27l3 3c18 -1 36 -2 54 -2c2 30 6 60 12 90c-20 0 -41 -1 -61 -2l-2 3l10 27l4 3c19 -1 37 -2 56 -2
c35 138 130 276 287 276c37 0 95 -10 126 -30c1 0 1 -1 2 -2z" />
    <glyph glyph-name="afii61289" unicode="&#x2113;" horiz-adv-x="361" 
d="M301 96l13 -13c-43 -63 -97 -96 -158 -96c-39 0 -66 13 -80 38c-16 27 -19 62 -5 139l16 90l-64 -46l-8 19l77 58l21 119c30 170 46 222 95 269c25 26 49 39 75 39c50 0 66 -56 54 -124c-21 -119 -103 -216 -187 -293l-18 -102c-23 -130 5 -164 57 -164
c43 0 80 28 112 67zM180 464l-23 -131c69 72 126 171 141 255c10 56 2 98 -28 98c-37 0 -62 -64 -90 -222z" />
    <glyph glyph-name="estimated" unicode="&#x212e;" horiz-adv-x="916" 
d="M883 324h-627c-3 0 -5 -1 -5 -4v-190c0 -8 3 -16 8 -22c61 -63 144 -103 237 -103c100 0 189 45 249 116h56c-69 -82 -181 -135 -306 -135c-213 0 -387 155 -387 347c0 193 174 348 387 348c214 0 388 -155 388 -348v-9zM740 348v191c0 8 -3 17 -9 23
c-61 60 -143 99 -235 99s-175 -40 -236 -102c-6 -6 -9 -15 -9 -24v-187c0 -2 2 -6 5 -6h480c3 0 4 4 4 6z" />
    <glyph glyph-name="partialdiff" unicode="&#x2202;" horiz-adv-x="471" 
d="M264 412h1c44 0 93 -21 116 -71c8 31 17 65 24 102c10 50 12 104 2 157c-9 49 -48 107 -110 107c-46 0 -91 -21 -128 -48c-14 -3 -25 27 -14 46c34 21 81 40 131 40c83 0 129 -52 156 -137c22 -74 13 -167 3 -223c-12 -69 -40 -173 -86 -249c-52 -88 -121 -149 -203 -149
c-97 0 -149 73 -127 195c11 66 45 121 80 158c38 40 99 72 155 72zM274 379h-1c-43 0 -82 -19 -118 -58c-36 -45 -60 -107 -71 -170c-13 -70 13 -138 75 -138c54 0 100 51 131 102c37 60 55 111 78 188c-7 28 -41 76 -94 76z" />
    <glyph glyph-name="product" unicode="&#x220f;" horiz-adv-x="680" 
d="M654 672v-21c-79 -6 -82 -11 -82 -56v-594c0 -53 6 -61 80 -66v-20h-216v20c73 5 78 9 78 66v615c0 25 -5 29 -31 29h-213c-25 0 -30 -3 -30 -26v-618c0 -53 -1 -59 72 -66v-20h-209v20c72 6 79 10 79 66v594c0 45 -5 50 -82 56v21h554z" />
    <glyph glyph-name="summation" unicode="&#x2211;" horiz-adv-x="569" 
d="M547 75l-37 -161h-409v18l209 352l-203 369v19h404c0 -18 6 -86 10 -144l-21 -4c-7 46 -17 74 -28 93c-11 21 -25 28 -95 28h-194l181 -323l-207 -354h244c77 0 88 5 124 113z" />
    <glyph glyph-name="uni2219" unicode="&#x2219;" horiz-adv-x="250" 
d="M75 313c0 28 22 50 50 50s50 -22 50 -50s-22 -50 -50 -50s-50 22 -50 50z" />
    <glyph glyph-name="radical" unicode="&#x221a;" horiz-adv-x="574" 
d="M554 870l-147 -1005l-15 -9l-201 535l-79 -38l-9 26l129 62l163 -445h2l126 882z" />
    <glyph glyph-name="infinity" unicode="&#x221e;" horiz-adv-x="724" 
d="M679 281v-1c0 -87 -65 -142 -136 -142c-57 0 -102 35 -165 107c-48 -54 -97 -107 -170 -107s-134 60 -134 138c0 82 59 142 140 142c68 0 119 -52 167 -108c47 52 93 108 168 108c78 -1 130 -57 130 -137zM213 178h1c59 0 103 57 141 97c-40 49 -82 104 -147 104
c-58 0 -91 -49 -91 -104c1 -54 39 -97 96 -97zM545 379h-1c-61 0 -110 -68 -141 -100c59 -66 94 -101 143 -101c58 0 91 50 91 99c0 65 -40 102 -92 102z" />
    <glyph glyph-name="integral" unicode="&#x222b;" horiz-adv-x="407" 
d="M225 25l-18 408c-14 323 53 388 131 388c21 0 48 -12 48 -38c0 -21 -15 -32 -33 -32c-27 0 -24 34 -46 34s-53 -32 -47 -168l17 -380c16 -358 -55 -418 -129 -418c-31 0 -50 19 -50 39c-1 20 16 36 39 36c24 0 24 -36 44 -36c31 0 49 65 44 167z" />
    <glyph glyph-name="approxequal" unicode="&#x2248;" horiz-adv-x="521" 
d="M453 403l28 -22c-23 -47 -59 -86 -114 -86c-36 0 -61 14 -103 37c-27 17 -53 31 -82 31c-41 0 -66 -31 -87 -68l-29 22c26 54 70 86 121 86c44 0 76 -24 100 -37c31 -17 52 -31 83 -31c35 0 59 24 83 68zM453 254l28 -23c-23 -47 -59 -86 -114 -86c-36 0 -61 14 -103 37
c-28 17 -53 31 -82 31c-42 0 -66 -32 -87 -68l-29 22c26 54 70 86 121 86c45 0 76 -23 100 -36c29 -17 51 -32 83 -32c36 0 58 24 83 69z" />
    <glyph glyph-name="notequal" unicode="&#x2260;" horiz-adv-x="534" 
d="M391 468l-40 -88h138v-42h-154l-60 -131h214v-41h-231l-47 -104l-33 15l40 89h-132v41h150l58 131h-208v42h225l47 103z" />
    <glyph glyph-name="lessequal" unicode="&#x2264;" horiz-adv-x="548" 
d="M500 101l-396 206v43l396 205v-51l-351 -174v-2l351 -176v-51zM503 20h-404v43h404v-43z" />
    <glyph glyph-name="greaterequal" unicode="&#x2265;" horiz-adv-x="547" 
d="M105 555l396 -205v-43l-396 -206v51l350 175v2l-350 175v51zM502 20h-402v43h402v-43z" />
    <glyph glyph-name="lozenge" unicode="&#x25ca;" horiz-adv-x="579" 
d="M534 326l-181 -389h-49l-182 389l183 392h48zM487 326l-156 344h-3l-158 -342l158 -345h3z" />
    <glyph glyph-name="uni00A0" unicode="&#xa0;" horiz-adv-x="250" 
 />
    <glyph glyph-name="uni00AD" unicode="&#xad;" horiz-adv-x="370" 
d="M60 214l-8 6c8 17 14 39 17 60c23 -4 63 -6 116 -6c49 0 103 2 128 6l3 -5c-8 -15 -16 -42 -19 -61c-19 3 -72 6 -118 6c-59 0 -98 -3 -119 -6z" />
    <glyph glyph-name="uni02C9" unicode="&#x2c9;" horiz-adv-x="278" 
d="M57 606l8 40h283l-8 -40h-283z" />
    <glyph glyph-name="uni03A9" unicode="&#x3a9;" horiz-adv-x="654" 
d="M600 123l-43 -123h-206l-2 16c55 77 164 206 190 355c35 207 -47 286 -141 286c-103 0 -205 -82 -242 -291c-25 -144 28 -262 64 -350l-10 -16h-203l1 123l20 1c7 -65 21 -75 55 -75h99c-43 54 -122 162 -94 323c34 191 171 311 316 311c148 0 237 -113 204 -303
c-26 -144 -137 -261 -211 -331h100c39 0 50 7 82 75z" />
    <glyph glyph-name="uni2215" unicode="&#x2215;" horiz-adv-x="167" 
d="M-151 -30l451 728l3 3h40l3 -3l-450 -728l-3 -3h-41z" />
    <glyph glyph-name="Amacron" unicode="&#x100;" horiz-adv-x="667" 
d="M42 76l366 624h45l105 -591c6 -32 9 -58 19 -71c6 -8 20 -12 40 -13l27 -2l3 -3l-5 -20l-3 -3c-26 1 -65 3 -107 3c-39 0 -81 -2 -127 -3l-3 3l3 20l3 3l42 2c24 1 35 8 40 19c4 10 0 34 -6 73l-26 158c-30 1 -77 2 -127 2s-93 -1 -127 -2l-94 -174
c-13 -24 -21 -38 -21 -54s10 -20 50 -22l35 -2l3 -3l-4 -20l-3 -3c-46 1 -84 3 -115 3c-28 0 -71 -2 -106 -3l-3 3l2 20l3 3l25 2c25 2 45 15 66 51zM453 310l-52 307h-2l-177 -307c31 -2 71 -3 118 -3c46 0 87 1 113 3zM297 767l8 40h283l-8 -40h-283z" />
    <glyph glyph-name="amacron" unicode="&#x101;" horiz-adv-x="481" 
d="M428 476l8 -8c-36 -74 -97 -378 -97 -400c0 -18 5 -26 13 -26c12 0 27 7 53 26l29 23h3l7 -16v-3l-43 -33c-38 -29 -75 -51 -104 -51c-19 0 -24 13 -24 27c0 27 23 136 29 166l-2 2c-56 -83 -172 -195 -236 -195c-30 0 -44 30 -44 86c0 130 65 265 89 302
c13 19 106 100 190 100c46 0 75 -9 98 -20zM86 82c0 -25 4 -40 22 -40c46 0 147 107 191 178c20 33 52 173 55 195c-19 7 -47 13 -68 13c-54 0 -87 -3 -105 -21c-14 -14 -35 -51 -54 -112c-18 -57 -41 -129 -41 -213zM177 576l8 40h283l-8 -40h-283z" />
    <glyph glyph-name="Ddotbelow" unicode="&#x1e0c;" horiz-adv-x="722" 
d="M94 129l72 410c6 37 12 70 12 87c0 23 -5 36 -42 38l-47 2l-3 3l4 20l3 3c39 -1 80 -3 122 -3c77 0 137 3 198 3c164 0 288 -72 288 -256c0 -219 -170 -439 -417 -439c-55 0 -103 3 -126 3c-56 0 -121 -2 -135 -3l-3 3l4 20l3 3c35 2 47 17 51 30c5 18 11 46 16 76z
M620 422c0 158 -87 234 -249 234c-34 0 -90 -2 -113 -4c-22 -92 -80 -434 -103 -603c37 -9 102 -16 127 -16c222 -5 338 182 338 389zM249 -162c0 37 26 67 52 67c25 0 36 -17 36 -39c0 -37 -26 -67 -52 -67c-25 0 -36 17 -36 39z" />
    <glyph glyph-name="ddotbelow" unicode="&#x1e0d;" 
d="M90 112c0 -35 5 -76 32 -76c36 0 118 81 173 165c39 60 56 131 71 212c-22 9 -48 18 -93 18c-56 0 -81 -21 -92 -31c-20 -18 -91 -174 -91 -288zM460 579l-79 -383c-10 -55 -21 -109 -21 -138c0 -9 2 -16 9 -16c10 0 31 13 85 52h3l8 -16v-3c-70 -48 -121 -87 -154 -87
c-18 0 -26 12 -26 31c0 29 16 95 34 167l-2 2c-72 -108 -177 -200 -239 -200c-39 0 -54 38 -54 101c0 133 74 276 97 299c38 40 116 88 174 88c31 0 57 -6 79 -14l10 44c11 56 22 118 22 141c0 15 -7 21 -39 21h-39l-3 3l4 15l3 3c21 2 109 15 153 38l8 -8
c-8 -24 -20 -78 -33 -140zM172 -161c0 37 26 67 52 67c25 0 36 -17 36 -39c0 -37 -26 -67 -52 -67c-25 0 -36 17 -36 39z" />
    <glyph glyph-name="Hdotbelow" unicode="&#x1e24;" horiz-adv-x="741" 
d="M87 92l80 463c6 33 10 62 10 75c0 20 -8 33 -37 34l-49 2l-2 3l4 20l3 3c40 -1 83 -3 126 -3s85 2 125 3l2 -3l-4 -20l-3 -3l-33 -2c-43 -3 -50 -9 -58 -49l-42 -234c60 -1 121 -3 188 -3c58 0 118 2 176 3l36 201c5 26 5 41 5 49c0 22 -12 32 -37 33l-51 2l-3 3l4 20
l3 3c41 -1 84 -3 127 -3s86 2 125 3l3 -3l-4 -20l-3 -3l-35 -2c-45 -3 -50 -9 -57 -51l-87 -505c-4 -21 -6 -38 -6 -49c0 -16 5 -31 32 -34l53 -2l3 -3l-4 -20l-3 -3c-40 1 -82 3 -125 3s-86 -2 -126 -3l-3 3l4 20l3 3l40 2c40 2 49 14 58 67l43 253c-57 1 -119 3 -181 3
s-124 -2 -184 -3l-41 -246c-3 -20 -5 -37 -5 -43c0 -21 4 -28 45 -31l41 -2l2 -3l-4 -20l-4 -3c-38 1 -81 3 -123 3s-85 -2 -123 -3l-3 3l4 20l3 3l40 2c35 2 43 14 52 67zM283 -162c0 37 26 67 52 67c25 0 36 -17 36 -39c0 -37 -26 -67 -52 -67c-25 0 -36 17 -36 39z" />
    <glyph glyph-name="hdotbelow" unicode="&#x1e25;" horiz-adv-x="519" 
d="M30 -12l-6 8c28 80 131 608 131 651c0 16 -8 21 -39 21h-39l-3 3l4 15l3 3c48 4 111 20 150 38l8 -8c-8 -24 -21 -78 -33 -140l-66 -334l2 -2c108 179 227 229 279 229c22 0 32 -16 32 -39c0 -17 -6 -46 -12 -68l-46 -184c-13 -50 -24 -105 -24 -116c0 -14 4 -20 13 -20
c14 0 60 32 86 52h3l6 -17v-3c-50 -38 -118 -89 -152 -89c-21 0 -31 14 -31 34c0 38 85 314 85 369c0 12 -5 21 -20 21c-39 0 -110 -56 -153 -115c-79 -108 -104 -203 -115 -294c-21 -4 -45 -9 -63 -15zM171 -162c0 37 26 67 52 67c25 0 36 -17 36 -39
c0 -37 -26 -67 -52 -67c-25 0 -36 17 -36 39z" />
    <glyph glyph-name="Imacron" unicode="&#x12a;" horiz-adv-x="315" 
d="M99 125l77 439c5 26 8 48 8 69c0 14 -5 29 -42 31l-47 2l-3 3l4 20l3 3c39 -1 80 -2 122 -3c47 1 93 2 135 3l3 -3l-3 -20l-3 -3l-38 -2c-49 -3 -51 -10 -61 -66l-81 -465c-6 -40 -10 -64 -10 -76c0 -18 10 -31 40 -32l52 -2l3 -3l-4 -20l-3 -3c-43 1 -88 3 -133 3
c-43 0 -87 -2 -127 -3l-3 3l4 20l3 3l48 2c40 2 45 35 56 100zM99 769l8 40h283l-8 -40h-283z" />
    <glyph glyph-name="imacron" unicode="&#x12b;" horiz-adv-x="278" 
d="M66 90l61 246c6 27 10 54 10 64c0 8 -2 13 -9 13c-10 0 -29 -11 -52 -25l-32 -20h-3l-6 14v3l32 23c61 44 97 68 118 68c18 0 27 -6 27 -26c0 -16 -6 -38 -13 -68l-61 -245c-7 -31 -13 -57 -13 -74c0 -16 3 -21 12 -21c6 0 20 7 41 22l42 30h3l8 -17v-3l-41 -28
c-44 -30 -85 -58 -107 -58c-24 0 -27 21 -27 35c0 18 4 40 10 67zM29 577l8 40h283l-8 -40h-283z" />
    <glyph glyph-name="Ldotbelow" unicode="&#x1e36;" horiz-adv-x="537" 
d="M94 129l72 410c6 37 12 70 12 87c0 23 -5 36 -42 38l-47 2l-3 3l4 20l3 3c39 -1 80 -3 122 -3c47 0 93 2 144 3l3 -3l-3 -20l-3 -3l-47 -2c-48 -2 -50 -5 -64 -82l-75 -428c-7 -40 -15 -92 -17 -121h131c56 0 136 5 152 18c13 11 37 93 43 110l3 3h18l3 -3
c-6 -27 -23 -104 -27 -161l-3 -3c-85 1 -210 3 -315 3c-56 0 -121 -2 -135 -3l-3 3l4 20l3 3c35 2 47 17 51 30c5 18 11 46 16 76zM229 -162c0 37 26 67 52 67c25 0 36 -17 36 -39c0 -37 -26 -67 -52 -67c-25 0 -36 17 -36 39z" />
    <glyph glyph-name="ldotbelow" unicode="&#x1e37;" horiz-adv-x="259" 
d="M73 172l68 334c11 56 22 118 22 141c0 15 -7 21 -39 21h-39l-3 3l4 15l3 3c21 2 109 15 153 38l8 -8c-8 -24 -20 -78 -33 -140l-79 -383c-10 -55 -21 -109 -21 -138c0 -9 2 -16 9 -16c10 0 31 13 85 52h3l8 -16v-3c-70 -48 -121 -87 -154 -87c-14 0 -26 6 -26 27
c0 25 16 77 31 157zM56 -162c0 37 26 67 52 67c25 0 36 -17 36 -39c0 -37 -26 -67 -52 -67c-25 0 -36 17 -36 39z" />
    <glyph glyph-name="Mdotaccent" unicode="&#x1e40;" horiz-adv-x="926" 
d="M78 113l123 434c11 39 16 62 16 80c0 20 -11 34 -53 37l-37 2l-3 3l4 20l3 3c17 -1 39 -3 73 -3c30 0 59 2 76 3c9 -45 25 -94 43 -162l117 -436l346 598c20 -1 46 -3 83 -3c31 0 62 2 75 3l3 -3l-5 -20l-3 -3l-25 -2c-24 -2 -45 -3 -54 -12c-12 -12 -12 -38 -16 -97
l-31 -443c-1 -18 -3 -34 -3 -55c0 -19 10 -30 40 -32l49 -2l3 -3l-5 -20l-3 -3c-42 1 -84 3 -126 3s-84 -2 -126 -3l-3 3l5 20l3 3l32 2c28 2 45 7 50 17c9 16 12 60 14 86l39 471h-2l-283 -476c-36 -61 -61 -111 -76 -138h-21c-10 39 -27 101 -52 194l-104 383h-2
l-109 -410c-14 -53 -23 -83 -23 -100c0 -23 17 -26 41 -27l42 -2l3 -3l-5 -20l-3 -3c-35 1 -70 3 -104 3c-35 0 -70 -2 -105 -3l-3 3l4 20l3 3l28 2c26 2 34 5 41 19c5 12 17 38 26 69zM500 807c0 37 26 67 52 67c25 0 36 -17 36 -39c0 -37 -26 -67 -52 -67
c-25 0 -36 17 -36 39z" />
    <glyph glyph-name="mdotaccent" unicode="&#x1e41;" horiz-adv-x="759" 
d="M46 -12l-9 8c42 132 86 373 86 402c0 8 -1 15 -9 15c-9 0 -35 -14 -57 -29l-30 -20h-3l-7 17v3l40 27c48 33 100 65 123 65c11 0 15 -6 15 -21c0 -19 -8 -56 -17 -95l-24 -104h2c120 183 232 220 257 220c19 0 31 -12 31 -31c0 -18 -6 -42 -14 -77l-27 -112h2
c110 161 228 220 268 220c19 0 29 -12 29 -37c0 -10 -4 -37 -8 -52l-50 -206c-13 -50 -25 -105 -25 -116c0 -14 3 -20 14 -20c14 0 60 32 85 52h3l7 -17v-3c-47 -35 -113 -89 -152 -89c-21 0 -29 14 -29 34c0 42 83 320 83 373c0 12 -5 21 -17 21c-34 0 -105 -56 -148 -115
c-76 -87 -102 -211 -109 -302l-60 -11l-9 5c13 44 85 339 85 396c0 17 -7 27 -20 27c-25 0 -99 -54 -151 -131c-47 -69 -84 -160 -95 -286zM449 616c0 37 26 67 52 67c25 0 36 -17 36 -39c0 -37 -26 -67 -52 -67c-25 0 -36 17 -36 39z" />
    <glyph glyph-name="Ndotaccent" unicode="&#x1e44;" horiz-adv-x="741" 
d="M103 183l75 436l-11 15c-12 17 -26 25 -61 28l-31 4l-3 3l4 20l3 3c24 -1 49 -3 73 -3s49 2 73 3c23 -49 53 -105 103 -189l244 -404l76 461c8 48 9 69 9 81c0 18 -21 21 -53 23l-32 2l-3 3l5 20l3 3c36 -1 72 -3 109 -3c36 0 72 2 108 3l3 -3l-4 -20l-3 -3l-42 -2
c-20 -1 -29 -3 -37 -17c-10 -17 -18 -59 -25 -99l-67 -384c-14 -78 -23 -142 -25 -176h-45c-18 42 -58 108 -88 159l-254 425l-73 -451c-4 -25 -8 -53 -8 -70c0 -14 9 -25 39 -26l44 -2l3 -3l-5 -20l-3 -3c-36 1 -72 3 -107 3c-36 0 -72 -2 -108 -3l-3 3l5 20l3 3l29 2
c29 2 43 4 50 23c10 26 19 70 30 135zM408 807c0 37 26 67 52 67c25 0 36 -17 36 -39c0 -37 -26 -67 -52 -67c-25 0 -36 17 -36 39z" />
    <glyph glyph-name="ndotaccent" unicode="&#x1e45;" horiz-adv-x="519" 
d="M44 -12l-8 8c28 84 86 370 86 399c0 15 -2 18 -12 18c-13 0 -58 -31 -84 -49h-3l-7 17v3c29 20 129 92 163 92c11 0 15 -6 15 -21c0 -19 -8 -56 -17 -95l-23 -104h2c91 137 195 220 264 220c27 0 37 -16 37 -35c0 -21 -6 -50 -12 -72l-46 -188c-13 -50 -24 -105 -24 -116
c0 -14 2 -20 13 -20c14 0 60 32 85 52h3l7 -17v-3c-47 -35 -113 -89 -152 -89c-21 0 -31 14 -31 34c0 42 85 320 85 373c0 12 -5 21 -17 21c-37 0 -107 -49 -152 -110c-78 -104 -100 -208 -111 -303zM247 616c0 37 26 67 52 67c25 0 36 -17 36 -39c0 -37 -26 -67 -52 -67
c-25 0 -36 17 -36 39z" />
    <glyph glyph-name="Ndotbelow" unicode="&#x1e46;" horiz-adv-x="741" 
d="M103 183l75 436l-11 15c-12 17 -26 25 -61 28l-31 4l-3 3l4 20l3 3c24 -1 49 -3 73 -3s49 2 73 3c23 -49 53 -105 103 -189l244 -404l76 461c8 48 9 69 9 81c0 18 -21 21 -53 23l-32 2l-3 3l5 20l3 3c36 -1 72 -3 109 -3c36 0 72 2 108 3l3 -3l-4 -20l-3 -3l-42 -2
c-20 -1 -29 -3 -37 -17c-10 -17 -18 -59 -25 -99l-67 -384c-14 -78 -23 -142 -25 -176h-45c-18 42 -58 108 -88 159l-254 425l-73 -451c-4 -25 -8 -53 -8 -70c0 -14 9 -25 39 -26l44 -2l3 -3l-5 -20l-3 -3c-36 1 -72 3 -107 3c-36 0 -72 -2 -108 -3l-3 3l5 20l3 3l29 2
c29 2 43 4 50 23c10 26 19 70 30 135zM275 -162c0 37 26 67 52 67c25 0 36 -17 36 -39c0 -37 -26 -67 -52 -67c-25 0 -36 17 -36 39z" />
    <glyph glyph-name="ndotbelow" unicode="&#x1e47;" horiz-adv-x="519" 
d="M44 -12l-8 8c28 84 86 370 86 399c0 15 -2 18 -12 18c-13 0 -58 -31 -84 -49h-3l-7 17v3c29 20 129 92 163 92c11 0 15 -6 15 -21c0 -19 -8 -56 -17 -95l-23 -104h2c91 137 195 220 264 220c27 0 37 -16 37 -35c0 -21 -6 -50 -12 -72l-46 -188c-13 -50 -24 -105 -24 -116
c0 -14 2 -20 13 -20c14 0 60 32 85 52h3l7 -17v-3c-47 -35 -113 -89 -152 -89c-21 0 -31 14 -31 34c0 42 85 320 85 373c0 12 -5 21 -17 21c-37 0 -107 -49 -152 -110c-78 -104 -100 -208 -111 -303zM172 -162c0 37 26 67 52 67c25 0 36 -17 36 -39c0 -37 -26 -67 -52 -67
c-25 0 -36 17 -36 39z" />
    <glyph glyph-name="Rdotbelow" unicode="&#x1e5a;" horiz-adv-x="611" 
d="M94 92l82 472c5 26 8 48 8 69c0 14 -5 29 -42 31l-47 2l-3 3l4 20l3 3c39 -1 80 -2 122 -3c47 0 102 3 165 3c77 0 164 -31 164 -131c0 -139 -149 -207 -217 -213l117 -177c32 -49 61 -87 80 -112s41 -34 76 -37l3 -2l-4 -20l-3 -3c-18 1 -39 3 -60 3
c-22 0 -43 -2 -64 -3c-9 19 -34 61 -66 111l-178 257l3 12c10 -1 19 -2 29 -2c144 0 206 85 206 173c0 91 -73 111 -134 111c-29 0 -59 -4 -73 -7c-9 -38 -18 -81 -24 -119l-68 -400c-6 -40 -10 -64 -10 -76c0 -18 10 -31 40 -32l41 -2l3 -3l-4 -20l-3 -3
c-32 1 -77 3 -122 3c-43 0 -87 -2 -127 -3l-3 3l4 20l3 3l48 2c40 2 45 35 51 67zM269 -161c0 37 26 67 52 67c25 0 36 -17 36 -39c0 -37 -26 -67 -52 -67c-25 0 -36 17 -36 39z" />
    <glyph glyph-name="rdotbelow" unicode="&#x1e5b;" horiz-adv-x="370" 
d="M20 380l56 38c40 29 87 58 106 58c14 0 18 -14 18 -27c0 -16 -5 -38 -13 -74l-28 -123h2c24 48 114 224 215 224c8 0 13 -1 17 -3l3 -5c-12 -21 -18 -66 -18 -91h-18c0 6 -4 13 -8 17c-6 5 -14 7 -24 7c-79 0 -200 -196 -213 -397c-19 -2 -50 -8 -64 -16l-7 12
c30 85 84 347 84 399c0 9 -4 13 -10 13c-8 0 -31 -13 -53 -28l-33 -22h-3l-9 15v3zM23 -161c0 37 26 67 52 67c25 0 36 -17 36 -39c0 -37 -26 -67 -52 -67c-25 0 -36 17 -36 39z" />
    <glyph glyph-name="Rdotbelowmacron" unicode="&#x1e5c;" horiz-adv-x="611" 
d="M94 92l82 472c5 26 8 48 8 69c0 14 -5 29 -42 31l-47 2l-3 3l4 20l3 3c39 -1 80 -2 122 -3c47 0 102 3 165 3c77 0 164 -31 164 -131c0 -139 -149 -207 -217 -213l117 -177c32 -49 61 -87 80 -112s41 -34 76 -37l3 -2l-4 -20l-3 -3c-18 1 -39 3 -60 3
c-22 0 -43 -2 -64 -3c-9 19 -34 61 -66 111l-178 257l3 12c10 -1 19 -2 29 -2c144 0 206 85 206 173c0 91 -73 111 -134 111c-29 0 -59 -4 -73 -7c-9 -38 -18 -81 -24 -119l-68 -400c-6 -40 -10 -64 -10 -76c0 -18 10 -31 40 -32l41 -2l3 -3l-4 -20l-3 -3
c-32 1 -77 3 -122 3c-43 0 -87 -2 -127 -3l-3 3l4 20l3 3l48 2c40 2 45 35 51 67zM216 769l8 40h283l-8 -40h-283zM263 -162c0 37 26 67 52 67c25 0 36 -17 36 -39c0 -37 -26 -67 -52 -67c-25 0 -36 17 -36 39z" />
    <glyph glyph-name="rdotbelowmacron" unicode="&#x1e5d;" horiz-adv-x="370" 
d="M20 380l56 38c40 29 87 58 106 58c14 0 18 -14 18 -27c0 -16 -5 -38 -13 -74l-28 -123h2c24 48 114 224 215 224c8 0 13 -1 17 -3l3 -5c-12 -21 -18 -66 -18 -91h-18c0 6 -4 13 -8 17c-6 5 -14 7 -24 7c-79 0 -200 -196 -213 -397c-19 -2 -50 -8 -64 -16l-7 12
c30 85 84 347 84 399c0 9 -4 13 -10 13c-8 0 -31 -13 -53 -28l-33 -22h-3l-9 15v3zM107 576l8 40h283l-8 -40h-283zM24 -162c0 37 26 67 52 67c25 0 36 -17 36 -39c0 -37 -26 -67 -52 -67c-25 0 -36 17 -36 39z" />
    <glyph glyph-name="Sdotbelow" unicode="&#x1e62;" horiz-adv-x="519" 
d="M80 160v-75c20 -26 76 -60 141 -60c112 0 175 77 175 158c0 64 -28 84 -147 135c-99 42 -145 92 -145 171c0 116 99 215 237 215c56 0 97 -14 135 -35l15 -8l3 -4c-14 -42 -23 -90 -27 -127l-3 -3h-21l-3 3l-6 77c-18 19 -60 57 -128 57c-88 0 -142 -63 -142 -138
c0 -82 38 -115 170 -164c103 -38 128 -83 128 -141c0 -150 -141 -236 -274 -236c-76 0 -129 21 -158 36l-3 4c10 37 24 95 29 135l3 3h18zM182 -162c0 37 26 67 52 67c25 0 36 -17 36 -39c0 -37 -26 -67 -52 -67c-25 0 -36 17 -36 39z" />
    <glyph glyph-name="sdotbelow" unicode="&#x1e63;" horiz-adv-x="370" 
d="M55 129l-6 -71c18 -14 48 -34 101 -34c66 0 115 43 115 113c0 51 -33 62 -105 71c-47 6 -118 15 -118 97c0 100 126 171 201 171c46 0 73 -12 86 -20l2 -4c-12 -34 -20 -82 -23 -102l-3 -3h-18l-3 3l6 59c-15 9 -40 22 -92 22c-62 0 -96 -39 -96 -95c0 -45 14 -65 86 -73
l27 -3c88 -10 110 -40 110 -101c0 -79 -105 -171 -213 -171c-48 0 -84 11 -101 15l-2 4c11 34 20 95 22 122l3 3h18zM91 -161c0 37 26 67 52 67c25 0 36 -17 36 -39c0 -37 -26 -67 -52 -67c-25 0 -36 17 -36 39z" />
    <glyph glyph-name="Sacute" unicode="&#x15a;" horiz-adv-x="519" 
d="M80 160v-75c20 -26 76 -60 141 -60c112 0 175 77 175 158c0 64 -28 84 -147 135c-99 42 -145 92 -145 171c0 116 99 215 237 215c56 0 97 -14 135 -35l15 -8l3 -4c-14 -42 -23 -90 -27 -127l-3 -3h-21l-3 3l-6 77c-18 19 -60 57 -128 57c-88 0 -142 -63 -142 -138
c0 -82 38 -115 170 -164c103 -38 128 -83 128 -141c0 -150 -141 -236 -274 -236c-76 0 -129 21 -158 36l-3 4c10 37 24 95 29 135l3 3h18zM230 768l148 137c30 28 45 28 52 28c16 0 26 -14 26 -26c0 -17 -17 -28 -28 -35l-162 -104h-36z" />
    <glyph glyph-name="sacute" unicode="&#x15b;" horiz-adv-x="370" 
d="M55 129l-6 -71c18 -14 48 -34 101 -34c66 0 115 43 115 113c0 51 -33 62 -105 71c-47 6 -118 15 -118 97c0 100 126 171 201 171c46 0 73 -12 86 -20l2 -4c-12 -34 -20 -82 -23 -102l-3 -3h-18l-3 3l6 59c-15 9 -40 22 -92 22c-62 0 -96 -39 -96 -95c0 -45 14 -65 86 -73
l27 -3c88 -10 110 -40 110 -101c0 -79 -105 -171 -213 -171c-48 0 -84 11 -101 15l-2 4c11 34 20 95 22 122l3 3h18zM142 538l148 137c30 28 45 28 52 28c16 0 26 -14 26 -26c0 -17 -17 -28 -28 -35l-162 -104h-36z" />
    <glyph glyph-name="Tdotbelow" unicode="&#x1e6c;" horiz-adv-x="593" 
d="M236 125l68 386c10 57 16 103 21 141h-52c-62 0 -129 -6 -138 -11c-15 -8 -34 -89 -40 -112l-3 -3h-18l-3 3c8 45 13 101 17 156l4 7c100 -1 180 -3 274 -3c112 0 222 2 264 3l4 -7c-11 -43 -22 -98 -25 -151l-3 -3h-18l-3 3c-1 26 -1 95 -5 101c-7 11 -98 17 -146 17
h-34l-90 -519c-6 -40 -10 -64 -10 -76c0 -18 10 -31 40 -32l52 -2l3 -3l-4 -20l-3 -3c-43 1 -88 3 -133 3c-43 0 -87 -2 -127 -3l-3 3l4 20l3 3l48 2c40 2 45 35 56 100zM210 -161c0 37 26 67 52 67c25 0 36 -17 36 -39c0 -37 -26 -67 -52 -67c-25 0 -36 17 -36 39z" />
    <glyph glyph-name="tdotbelow" unicode="&#x1e6d;" horiz-adv-x="296" 
d="M71 96l58 292c-28 -2 -55 -2 -83 -6l-4 3l3 16l5 4c22 3 64 20 89 36c10 48 22 114 25 160c21 3 52 17 65 26l8 -7c-18 -51 -34 -137 -41 -184c35 0 86 3 107 8l6 -5c-7 -13 -14 -34 -18 -51c-27 1 -77 3 -103 3l-43 -234c-7 -42 -14 -72 -14 -94c0 -12 1 -21 13 -21
c11 0 42 20 70 42l28 22h3l11 -14v-3l-34 -27c-58 -46 -103 -74 -135 -74c-17 0 -28 9 -28 28c0 18 5 42 12 80zM53 -161c0 37 26 67 52 67c25 0 36 -17 36 -39c0 -37 -26 -67 -52 -67c-25 0 -36 17 -36 39z" />
    <glyph glyph-name="Umacron" unicode="&#x16a;" horiz-adv-x="741" 
d="M111 276l46 272c5 32 11 64 11 80c0 20 -7 33 -49 36l-37 2l-3 3l4 20l3 3c23 -1 42 -3 80 -3c44 0 76 2 90 3c-8 -26 -15 -66 -22 -106l-65 -366c-4 -23 -7 -44 -7 -70c0 -70 43 -114 129 -114c115 0 192 72 252 133l63 373c6 39 10 59 10 87c0 26 -18 32 -53 35l-34 2
l-3 3l4 20l3 3c33 -1 73 -3 122 -3c53 0 104 2 130 3l3 -3l-4 -20l-3 -3l-34 -2c-54 -3 -54 -13 -64 -71l-80 -460c-4 -26 -10 -58 -10 -72c0 -26 19 -34 55 -36l32 -2l3 -3l-4 -20l-3 -3c-23 1 -50 3 -76 3c-27 0 -53 -2 -80 -3l-6 6l23 117l-2 2
c-62 -66 -161 -137 -271 -137c-77 0 -171 40 -171 159c0 35 12 99 18 132zM166 768l8 40h493l-12 -40h-489z" />
    <glyph glyph-name="umacron" unicode="&#x16b;" horiz-adv-x="519" 
d="M27 385l42 29c42 28 98 62 120 62c11 0 20 -8 20 -22c0 -20 -11 -49 -19 -87l-11 -48c-44 -196 -53 -222 -53 -242c0 -17 2 -29 18 -29c24 0 101 63 162 151c65 93 90 203 93 260c19 2 52 11 62 17l8 -8c-35 -90 -89 -353 -89 -395c0 -16 3 -25 14 -25c9 0 23 8 54 31
l28 20h3l6 -17v-3l-31 -23c-37 -29 -99 -68 -122 -68c-15 0 -21 8 -21 21c0 20 5 46 16 103l23 113h-2c-71 -122 -195 -237 -255 -237c-31 0 -36 24 -36 45s6 50 59 289c8 35 15 66 15 84c0 7 -1 11 -8 11c-11 0 -23 -8 -61 -33l-26 -17h-3l-6 15v3zM177 576l8 40h283
l-8 -40h-283z" />
    <glyph glyph-name="candrabindunosp" unicode="&#x310;" horiz-adv-x="0" 
d="M373 663h-31c-53 -55 -104 -82 -153 -82s-70 27 -65 82h-31c-16 -72 2 -117 73 -120c38 2 75 14 112 37c38 24 70 52 95 83zM179 670c14 25 47 45 72 45s35 -20 21 -45s-47 -45 -72 -45s-35 20 -21 45z" />
    <glyph glyph-name="Odblacute" unicode="&#x150;" horiz-adv-x="741" 
d="M136 266c0 -134 51 -245 211 -245c194 0 288 219 288 409c0 156 -77 238 -212 238c-258 0 -287 -308 -287 -402zM58 256c0 239 140 448 399 448c178 0 256 -119 256 -258c0 -270 -179 -461 -393 -461c-183 0 -262 108 -262 271zM304 729l148 137c30 28 45 28 52 28
c16 0 26 -14 26 -26c0 -17 -17 -28 -28 -35l-162 -104h-36zM494 729l148 137c30 28 45 28 52 28c16 0 26 -14 26 -26c0 -17 -17 -28 -28 -35l-162 -104h-36z" />
    <glyph glyph-name="Udblacute" unicode="&#x170;" horiz-adv-x="741" 
d="M111 276l46 272c5 32 11 64 11 80c0 20 -7 33 -49 36l-37 2l-3 3l4 20l3 3c23 -1 42 -3 80 -3c44 0 76 2 90 3c-8 -26 -15 -66 -22 -106l-65 -366c-4 -23 -7 -44 -7 -70c0 -70 43 -114 129 -114c115 0 192 72 252 133l63 373c6 39 10 59 10 87c0 26 -18 32 -53 35l-34 2
l-3 3l4 20l3 3c33 -1 73 -3 122 -3c53 0 104 2 130 3l3 -3l-4 -20l-3 -3l-34 -2c-54 -3 -54 -13 -64 -71l-80 -460c-4 -26 -10 -58 -10 -72c0 -26 19 -34 55 -36l32 -2l3 -3l-4 -20l-3 -3c-23 1 -50 3 -76 3c-27 0 -53 -2 -80 -3l-6 6l23 117l-2 2
c-62 -66 -161 -137 -271 -137c-77 0 -171 40 -171 159c0 35 12 99 18 132zM284 729l148 137c30 28 45 28 52 28c16 0 26 -14 26 -26c0 -17 -17 -28 -28 -35l-162 -104h-36zM444 729l148 137c30 28 45 28 52 28c16 0 26 -14 26 -26c0 -17 -17 -28 -28 -35l-162 -104h-36z" />
    <glyph glyph-name="odblacute" unicode="&#x151;" horiz-adv-x="444" 
d="M344 302c0 78 -21 141 -87 141c-114 0 -167 -160 -167 -296c0 -98 36 -132 91 -132c108 0 163 175 163 287zM24 144c0 173 98 332 251 332c104 0 135 -73 135 -147c0 -153 -94 -341 -258 -341c-91 0 -128 64 -128 156zM155 538l148 137c30 28 45 28 52 28
c16 0 26 -14 26 -26c0 -17 -17 -28 -28 -35l-162 -104h-36zM325 538l148 137c30 28 45 28 52 28c16 0 26 -14 26 -26c0 -17 -17 -28 -28 -35l-162 -104h-36z" />
    <glyph glyph-name="udblacute" unicode="&#x171;" horiz-adv-x="519" 
d="M27 385l42 29c42 28 98 62 120 62c11 0 20 -8 20 -22c0 -20 -11 -49 -19 -87l-11 -48c-44 -196 -53 -222 -53 -242c0 -17 2 -29 18 -29c24 0 101 63 162 151c65 93 90 203 93 260c19 2 52 11 62 17l8 -8c-35 -90 -89 -353 -89 -395c0 -16 3 -25 14 -25c9 0 23 8 54 31
l28 20h3l6 -17v-3l-31 -23c-37 -29 -99 -68 -122 -68c-15 0 -21 8 -21 21c0 20 5 46 16 103l23 113h-2c-71 -122 -195 -237 -255 -237c-31 0 -36 24 -36 45s6 50 59 289c8 35 15 66 15 84c0 7 -1 11 -8 11c-11 0 -23 -8 -61 -33l-26 -17h-3l-6 15v3zM163 538l148 137
c30 28 45 28 52 28c16 0 26 -14 26 -26c0 -17 -17 -28 -28 -35l-162 -104h-36zM325 538l148 137c30 28 45 28 52 28c16 0 26 -14 26 -26c0 -17 -17 -28 -28 -35l-162 -104h-36z" />
    </font>
</defs>
</svg>
