<?xml version="1.0" standalone="no"?>
<!DOCTYPE svg PUBLIC "-//W3C//DTD SVG 1.1//EN" "http://www.w3.org/Graphics/SVG/1.1/DTD/svg11.dtd" >
<svg xmlns="http://www.w3.org/2000/svg" xmlns:xlink="http://www.w3.org/1999/xlink" version="1.1">
<metadata>
Created by FontForge 20190801 at Wed May  1 09:56:26 2013
 By Jimmy Wärting
Copyright (c) 1991, 2002 Adobe Systems Incorporated.  All Rights Reserved. (c) 1981, 2002 Heidelberger Druckmaschinen AG. All rights reserved.
</metadata>
<defs>
<font id="PalatinoLTStd-Medium" horiz-adv-x="500" >
  <font-face 
    font-family="Palatino LT Std Light"
    font-weight="600"
    font-stretch="normal"
    units-per-em="1000"
    panose-1="2 4 5 2 5 3 5 3 3 4"
    ascent="800"
    descent="-200"
    x-height="458"
    cap-height="694"
    bbox="-288 -280 1049 1110"
    underline-thickness="50"
    underline-position="-100"
    stemh="48"
    stemv="100"
    unicode-range="U+0020-FB02"
  />
<missing-glyph 
d="M0 0v700h500v-700h-500zM250 395l170 255h-340zM280 350l170 -255v510zM80 50h340l-170 255zM50 605v-510l170 255z" />
    <glyph glyph-name="fi" unicode="fi" horiz-adv-x="611" 
d="M20 380v17l2 4l68 35c4 2 6 10 6 24c0 79 1 106 40 152c94 111 117 118 164 118c20 0 37 -3 56 -9c-6 -45 -8 -73 -8 -92l-11 -6c-21 20 -46 35 -78 35c-36 0 -63 -16 -63 -76v-145c59 0 98 0 129 6l5 -7c-2 -12 -6 -36 -6 -50l-4 -3c-42 1 -82 2 -122 2v-220
c0 -82 0 -116 8 -125c5 -6 27 -10 83 -10l3 -3v-29l-3 -3c-56 2 -97 5 -144 5c-41 0 -82 -3 -126 -5l-3 3v29l3 3c44 0 66 4 71 10c8 9 8 43 8 125v151c0 32 -1 54 -1 67c-8 0 -50 -4 -74 -6zM343 398v29l3 3c12 0 90 11 158 41l14 -9c-4 -37 -5 -98 -5 -136v-161
c0 -82 0 -116 8 -125c5 -6 27 -10 65 -10l3 -3v-29l-3 -3c-38 2 -79 5 -126 5c-41 0 -82 -3 -120 -5l-3 3v29l3 3c38 0 60 4 65 10c8 9 8 43 8 125v118c0 87 0 103 -10 108c-9 4 -50 4 -57 4zM395 631c0 35 29 64 64 64s64 -29 64 -64s-29 -64 -64 -64s-64 29 -64 64z" />
    <glyph glyph-name="fl" unicode="fl" horiz-adv-x="611" 
d="M198 385v-220c0 -82 0 -116 8 -125c5 -6 27 -10 83 -10l3 -3v-29l-3 -3c-56 2 -97 5 -144 5c-41 0 -82 -3 -126 -5l-3 3v29l3 3c44 0 66 4 71 10c8 9 8 43 8 125v151c0 32 -1 54 -1 67c-8 0 -50 -4 -74 -6l-3 3v17l2 4l68 35c4 2 6 10 6 24c0 79 1 106 40 152
c94 111 117 118 164 118c20 0 37 -3 54 -8c-1 -10 -2 -21 -3 -31c19 0 92 12 153 39l14 -9c-4 -37 -5 -98 -5 -136v-420c0 -82 0 -116 8 -125c5 -6 27 -10 65 -10l3 -3v-29l-3 -3c-38 2 -79 5 -126 5c-41 0 -82 -3 -120 -5l-3 3v29l3 3c38 0 60 4 65 10c8 9 8 43 8 125v377
c0 87 0 103 -10 108c-8 4 -46 4 -56 4c0 -8 -1 -17 -1 -25l-11 -6c-21 20 -44 35 -76 35c-36 0 -63 -16 -63 -76v-145c59 0 98 0 129 6l5 -7c-2 -12 -6 -36 -6 -50l-4 -3c-42 1 -82 2 -122 2z" />
    <glyph glyph-name="Amacronbindu" unicode="&#x100;&#x310;" horiz-adv-x="759" 
d="M468 -2v29l3 3c73 0 75 6 75 16c0 15 -10 39 -67 179h-264c-61 -139 -63 -154 -63 -167c0 -24 26 -25 81 -28l3 -3v-29l-3 -3c-36 2 -76 5 -115 5s-79 -3 -115 -5l-3 3v29l3 3c61 2 64 7 92 67c89 190 192 427 262 597h42c220 -520 250 -592 277 -638
c11 -19 20 -25 65 -26l3 -3v-29l-3 -3c-43 2 -89 5 -135 5s-92 -3 -135 -5zM459 273l-112 267l-112 -267h224zM225 772v60h306v-60h-306zM374 895c-33 5 -117 22 -152 182l33 -20c19 -28 49 -102 122 -102c67 0 105 58 105 117l20 -9c16 -93 -55 -179 -128 -168zM377 1110
c27 0 48 -21 48 -48s-21 -49 -48 -49s-49 22 -49 49s22 48 49 48z" />
    <glyph glyph-name="amacronbindu" unicode="&#x101;&#x310;" horiz-adv-x="519" 
d="M83 337l4 62c96 62 120 72 164 72c89 0 176 -36 176 -144c0 -67 -1 -116 -1 -154c0 -92 0 -121 3 -128c6 -13 20 -15 55 -15l3 -3v-29l-3 -3c-24 3 -51 5 -78 5c-24 0 -53 -2 -77 -5l-6 5c1 27 4 53 4 77c-32 -22 -92 -72 -101 -79c-12 -9 -31 -16 -65 -16
c-81 0 -121 50 -121 122c0 93 27 116 287 171c0 48 -11 124 -113 124c-34 0 -73 -13 -79 -19c-5 -5 -20 -43 -22 -52l-5 -2l-22 7zM327 122v118c-170 -38 -183 -65 -183 -111c0 -50 30 -75 71 -75c35 0 67 22 112 68zM101 575v60h306v-60h-306zM254 695
c-33 5 -117 22 -152 182l33 -20c19 -28 49 -102 122 -102c67 0 105 58 105 117l20 -9c16 -93 -55 -179 -128 -168zM257 910c27 0 48 -21 48 -48s-21 -49 -48 -49s-49 22 -49 49s22 48 49 48z" />
    <glyph glyph-name="Imacronbindu" unicode="&#x12a;&#x310;" horiz-adv-x="352" 
d="M27 662v29l3 3c50 -2 98 -5 146 -5s96 3 146 5l3 -3v-29l-3 -3c-38 0 -68 -5 -77 -13c-11 -10 -14 -19 -14 -251v-101c0 -232 3 -241 14 -251c9 -8 39 -13 77 -13l3 -3v-29l-3 -3c-50 2 -98 5 -146 5s-96 -3 -146 -5l-3 3v29l3 3c38 0 68 5 77 13c11 10 14 19 14 251v101
c0 232 -3 241 -14 251c-9 8 -39 13 -77 13zM24 771v60h306v-60h-306zM174 895c-33 5 -117 22 -152 182l33 -20c19 -28 49 -102 122 -102c67 0 105 58 105 117l20 -9c16 -93 -55 -179 -128 -168zM177 1110c27 0 48 -21 48 -48s-21 -49 -48 -49s-49 22 -49 49s22 48 49 48z
" />
    <glyph glyph-name="imacronbindu" unicode="&#x12b;&#x310;" horiz-adv-x="296" 
d="M22 398v29l3 3c14 0 96 11 164 41l14 -9c-4 -37 -5 -98 -5 -136v-161c0 -82 0 -116 8 -125c5 -6 27 -10 65 -10l3 -3v-29l-3 -3c-38 2 -79 5 -126 5c-41 0 -82 -3 -120 -5l-3 3v29l3 3c38 0 60 4 65 10c8 9 8 43 8 125v118c0 87 0 103 -10 108c-9 4 -54 4 -63 4zM-24 575
v60h306v-60h-306zM124 695c-33 5 -117 22 -152 182l33 -20c19 -28 49 -102 122 -102c67 0 105 58 105 117l20 -9c16 -93 -55 -179 -128 -168zM127 910c27 0 48 -21 48 -48s-21 -49 -48 -49s-49 22 -49 49s22 48 49 48z" />
    <glyph glyph-name="umacronbindu" unicode="&#x16b;&#x310;" horiz-adv-x="610" 
d="M332 398v29l3 3c14 0 96 11 163 41l17 -13c-4 -36 -7 -117 -7 -244c0 -120 0 -149 5 -168c4 -15 21 -16 66 -16l3 -3v-29l-3 -3c-29 3 -61 5 -93 5c-24 0 -50 -2 -75 -5l-7 5c1 17 4 60 4 75l-83 -73c-16 -14 -37 -20 -78 -20c-85 0 -143 48 -143 144v157
c0 87 0 103 -10 108c-9 4 -54 4 -63 4l-3 3v29l3 3c14 0 96 11 164 41l16 -13c-1 -31 -7 -125 -7 -276c0 -85 29 -122 93 -122c35 0 71 17 95 43c15 16 16 18 16 178c0 89 0 105 -10 110c-9 4 -54 4 -63 4zM137 575v60h306v-60h-306zM284 695c-33 5 -117 22 -152 182l33 -20
c19 -28 49 -102 122 -102c67 0 105 58 105 117l20 -9c16 -93 -55 -179 -128 -168zM287 910c27 0 48 -21 48 -48s-21 -49 -48 -49s-49 22 -49 49s22 48 49 48z" />
    <glyph glyph-name="Umacronbindu" unicode="&#x16a;&#x310;" horiz-adv-x="796" 
d="M538 662v29l3 3c27 -3 64 -5 112 -5c47 0 89 3 120 5l3 -3v-29l-3 -3c-38 0 -68 -5 -77 -13c-11 -10 -14 -19 -14 -251v-135c0 -187 -93 -278 -293 -278c-156 0 -275 57 -275 233v180c0 232 -3 241 -14 251c-9 8 -39 13 -77 13l-3 3v29l3 3c50 -2 98 -5 146 -5
s96 3 146 5l3 -3v-29l-3 -3c-38 0 -68 -5 -77 -13c-11 -10 -14 -19 -14 -251v-164c0 -84 41 -177 199 -177c148 0 209 66 209 200v141c0 232 -3 241 -14 251c-9 8 -39 13 -77 13zM166 772v60h487v-60h-487zM404 895c-33 5 -117 22 -152 182l33 -20c19 -28 49 -102 122 -102
c67 0 105 58 105 117l20 -9c16 -93 -55 -179 -128 -168zM407 1110c27 0 48 -21 48 -48s-21 -49 -48 -49s-49 22 -49 49s22 48 49 48z" />
    <glyph glyph-name="Abindu" unicode="A&#x310;" horiz-adv-x="759" 
d="M468 -2v29l3 3c73 0 75 6 75 16c0 15 -10 39 -67 179h-264c-61 -139 -63 -154 -63 -167c0 -24 26 -25 81 -28l3 -3v-29l-3 -3c-36 2 -76 5 -115 5s-79 -3 -115 -5l-3 3v29l3 3c61 2 64 7 92 67c89 190 192 427 262 597h42c220 -520 250 -592 277 -638
c11 -19 20 -25 65 -26l3 -3v-29l-3 -3c-43 2 -89 5 -135 5s-92 -3 -135 -5zM459 273l-112 267l-112 -267h224zM374 755c-33 5 -117 22 -152 182l33 -20c19 -28 49 -102 122 -102c67 0 105 58 105 117l20 -9c16 -93 -55 -179 -128 -168zM377 970c27 0 48 -21 48 -48
s-21 -49 -48 -49s-49 22 -49 49s22 48 49 48z" />
    <glyph glyph-name="Ebindu" unicode="E&#x310;" horiz-adv-x="630" 
d="M27 662v29l3 3c50 -2 98 -5 146 -5c185 0 312 3 377 5l6 -5c-5 -52 -9 -105 -12 -154l-3 -3h-29l-3 3c0 20 0 83 -9 91c-10 9 -94 16 -170 16c-41 0 -77 -3 -97 -4c-5 -88 -5 -174 -5 -260c38 -1 79 -2 117 -2c55 0 89 3 95 14c9 16 13 53 13 69l3 3h26l3 -3
c0 -39 -2 -79 -2 -119c0 -27 2 -67 2 -102l-3 -3h-26l-3 3c0 15 -7 54 -14 72c-5 13 -38 18 -123 18c-34 0 -60 -1 -88 -2c0 -93 0 -187 2 -279c53 0 259 0 281 13c12 7 26 88 26 103l3 3h32l3 -3c-4 -42 -9 -108 -11 -163l-8 -5c-66 2 -137 3 -207 4c-69 1 -136 1 -195 1
c-24 0 -51 -1 -86 -5l-3 3v19l4 5c33 15 40 20 42 26c3 9 7 20 7 347c0 232 -3 241 -14 251c-9 8 -39 13 -77 13zM294 755c-33 5 -117 22 -152 182l33 -20c19 -28 49 -102 122 -102c67 0 105 58 105 117l20 -9c16 -93 -55 -179 -128 -168zM297 970c27 0 48 -21 48 -48
s-21 -49 -48 -49s-49 22 -49 49s22 48 49 48z" />
    <glyph glyph-name="Ibindu" unicode="I&#x310;" horiz-adv-x="352" 
d="M27 662v29l3 3c50 -2 98 -5 146 -5s96 3 146 5l3 -3v-29l-3 -3c-38 0 -68 -5 -77 -13c-11 -10 -14 -19 -14 -251v-101c0 -232 3 -241 14 -251c9 -8 39 -13 77 -13l3 -3v-29l-3 -3c-50 2 -98 5 -146 5s-96 -3 -146 -5l-3 3v29l3 3c38 0 68 5 77 13c11 10 14 19 14 251v101
c0 232 -3 241 -14 251c-9 8 -39 13 -77 13zM174 745c-33 5 -117 22 -152 182l33 -20c19 -28 49 -102 122 -102c67 0 105 58 105 117l20 -9c16 -93 -55 -179 -128 -168zM177 960c27 0 48 -21 48 -48s-21 -49 -48 -49s-49 22 -49 49s22 48 49 48z" />
    <glyph glyph-name="Obindu" unicode="O&#x310;" horiz-adv-x="833" 
d="M44 350c0 224 167 357 382 357c202 0 363 -109 363 -345c0 -210 -160 -380 -388 -380c-273 0 -357 199 -357 368zM671 328c0 257 -153 331 -262 331c-141 0 -247 -107 -247 -273c0 -217 116 -356 267 -356c163 0 242 136 242 298zM404 765c-33 5 -117 22 -152 182l33 -20
c19 -28 49 -102 122 -102c67 0 105 58 105 117l20 -9c16 -93 -55 -179 -128 -168zM407 980c27 0 48 -21 48 -48s-21 -49 -48 -49s-49 22 -49 49s22 48 49 48z" />
    <glyph glyph-name="Ubindu" unicode="U&#x310;" horiz-adv-x="796" 
d="M538 662v29l3 3c27 -3 64 -5 112 -5c47 0 89 3 120 5l3 -3v-29l-3 -3c-38 0 -68 -5 -77 -13c-11 -10 -14 -19 -14 -251v-135c0 -187 -93 -278 -293 -278c-156 0 -275 57 -275 233v180c0 232 -3 241 -14 251c-9 8 -39 13 -77 13l-3 3v29l3 3c50 -2 98 -5 146 -5
s96 3 146 5l3 -3v-29l-3 -3c-38 0 -68 -5 -77 -13c-11 -10 -14 -19 -14 -251v-164c0 -84 41 -177 199 -177c148 0 209 66 209 200v141c0 232 -3 241 -14 251c-9 8 -39 13 -77 13zM404 755c-33 5 -117 22 -152 182l33 -20c19 -28 49 -102 122 -102c67 0 105 58 105 117l20 -9
c16 -93 -55 -179 -128 -168zM407 970c27 0 48 -21 48 -48s-21 -49 -48 -49s-49 22 -49 49s22 48 49 48z" />
    <glyph glyph-name="abindu" unicode="a&#x310;" horiz-adv-x="519" 
d="M83 337l4 62c96 62 120 72 164 72c89 0 176 -36 176 -144c0 -67 -1 -116 -1 -154c0 -92 0 -121 3 -128c6 -13 20 -15 55 -15l3 -3v-29l-3 -3c-24 3 -51 5 -78 5c-24 0 -53 -2 -77 -5l-6 5c1 27 4 53 4 77c-32 -22 -92 -72 -101 -79c-12 -9 -31 -16 -65 -16
c-81 0 -121 50 -121 122c0 93 27 116 287 171c0 48 -11 124 -113 124c-34 0 -73 -13 -79 -19c-5 -5 -20 -43 -22 -52l-5 -2l-22 7zM327 122v118c-170 -38 -183 -65 -183 -111c0 -50 30 -75 71 -75c35 0 67 22 112 68zM244 535c-33 5 -117 22 -152 182l33 -20
c19 -28 49 -102 122 -102c67 0 105 58 105 117l20 -9c16 -93 -55 -179 -128 -168zM247 750c27 0 48 -21 48 -48s-21 -49 -48 -49s-49 22 -49 49s22 48 49 48z" />
    <glyph glyph-name="ebindu" unicode="e&#x310;" horiz-adv-x="519" 
d="M263 433c-96 0 -110 -114 -110 -159c52 -3 90 -4 128 -4c37 0 70 1 88 4c0 83 -20 159 -106 159zM452 86l12 -9c-8 -16 -16 -33 -22 -49c-31 -20 -92 -46 -167 -46c-142 0 -229 94 -229 233c0 97 23 155 65 184c70 48 121 72 169 72c193 0 193 -152 193 -216l-3 -5
c-59 -18 -110 -18 -165 -18h-149c5 -107 55 -190 175 -190c29 0 69 10 121 44zM274 535c-33 5 -117 22 -152 182l33 -20c19 -28 49 -102 122 -102c67 0 105 58 105 117l20 -9c16 -93 -55 -179 -128 -168zM277 750c27 0 48 -21 48 -48s-21 -49 -48 -49s-49 22 -49 49
s22 48 49 48z" />
    <glyph glyph-name="ibindu" unicode="i&#x310;" horiz-adv-x="296" 
d="M22 398v29l3 3c14 0 96 11 164 41l14 -9c-4 -37 -5 -98 -5 -136v-161c0 -82 0 -116 8 -125c5 -6 27 -10 65 -10l3 -3v-29l-3 -3c-38 2 -79 5 -126 5c-41 0 -82 -3 -120 -5l-3 3v29l3 3c38 0 60 4 65 10c8 9 8 43 8 125v118c0 87 0 103 -10 108c-9 4 -54 4 -63 4zM80 631
c0 35 29 64 64 64s64 -29 64 -64s-29 -64 -64 -64s-64 29 -64 64zM144 755c-33 5 -117 22 -152 182l33 -20c19 -28 49 -102 122 -102c67 0 105 58 105 117l20 -9c16 -93 -55 -179 -128 -168zM147 970c27 0 48 -21 48 -48s-21 -49 -48 -49s-49 22 -49 49s22 48 49 48z" />
    <glyph glyph-name="obindu" unicode="o&#x310;" horiz-adv-x="556" 
d="M406 200c0 154 -58 233 -133 233c-85 0 -123 -66 -123 -194c0 -133 48 -219 132 -219s124 70 124 180zM40 214c0 159 92 257 240 257c175 0 236 -130 236 -241c0 -164 -126 -248 -246 -248c-161 0 -230 110 -230 232zM264 535c-33 5 -117 22 -152 182l33 -20
c19 -28 49 -102 122 -102c67 0 105 58 105 117l20 -9c16 -93 -55 -179 -128 -168zM267 750c27 0 48 -21 48 -48s-21 -49 -48 -49s-49 22 -49 49s22 48 49 48z" />
    <glyph glyph-name="ubindu" unicode="u&#x310;" horiz-adv-x="610" 
d="M332 398v29l3 3c14 0 96 11 163 41l17 -13c-4 -36 -7 -117 -7 -244c0 -120 0 -149 5 -168c4 -15 21 -16 66 -16l3 -3v-29l-3 -3c-29 3 -61 5 -93 5c-24 0 -50 -2 -75 -5l-7 5c1 17 4 60 4 75l-83 -73c-16 -14 -37 -20 -78 -20c-85 0 -143 48 -143 144v157
c0 87 0 103 -10 108c-9 4 -54 4 -63 4l-3 3v29l3 3c14 0 96 11 164 41l16 -13c-1 -31 -7 -125 -7 -276c0 -85 29 -122 93 -122c35 0 71 17 95 43c15 16 16 18 16 178c0 89 0 105 -10 110c-9 4 -54 4 -63 4zM304 525c-33 5 -117 22 -152 182l33 -20c19 -28 49 -102 122 -102
c67 0 105 58 105 117l20 -9c16 -93 -55 -179 -128 -168zM307 740c27 0 48 -21 48 -48s-21 -49 -48 -49s-49 22 -49 49s22 48 49 48z" />
    <glyph glyph-name=".notdef" 
d="M0 0v700h500v-700h-500zM250 395l170 255h-340zM280 350l170 -255v510zM80 50h340l-170 255zM50 605v-510l170 255z" />
    <glyph glyph-name="space" unicode=" " horiz-adv-x="250" 
 />
    <glyph glyph-name="exclam" unicode="!" horiz-adv-x="296" 
d="M79 640l92 49h46c0 -90 -15 -208 -52 -482l-35 -21l-10 7c-4 100 -41 392 -41 447zM79 58c0 38 31 69 69 69s69 -31 69 -69s-31 -69 -69 -69s-69 31 -69 69z" />
    <glyph glyph-name="quotedbl" unicode="&#x22;" 
d="M133 434l-12 100c-6 59 -8 84 -8 100c0 39 17 55 50 55c32 0 50 -16 50 -55c0 -16 -3 -41 -9 -100l-11 -100c-4 -34 -14 -42 -30 -42c-17 0 -27 8 -30 42zM307 434l-12 100c-6 59 -8 84 -8 100c0 39 17 55 50 55c32 0 50 -16 50 -55c0 -16 -3 -41 -9 -100l-11 -100
c-4 -34 -14 -42 -30 -42c-17 0 -27 8 -30 42z" />
    <glyph glyph-name="numbersign" unicode="#" 
d="M303 277l19 135h-125l-19 -135h125zM70 0l29 207h-87v70h97l18 135h-87v70h97l29 207h69l-29 -207h125l29 207h70l-29 -207h87v-70h-97l-18 -135h87v-70h-97l-29 -207h-69l29 207h-125l-29 -207h-70z" />
    <glyph glyph-name="dollar" unicode="$" 
d="M222 398v236c-63 -14 -102 -63 -102 -127c0 -72 45 -96 102 -109zM266 289v-251c67 14 117 59 117 145c0 68 -25 90 -117 106zM222 34v262c-126 22 -192 64 -192 170c0 132 72 204 192 221v52l3 3h38l3 -3v-50h6c68 0 140 -25 166 -42l3 -5c-6 -46 -12 -91 -15 -133
l-4 -3l-27 3l-3 3c1 7 2 18 2 28c0 23 -1 42 -6 49c-13 18 -64 45 -122 48v-247c152 -20 204 -64 204 -168c0 -95 -59 -214 -204 -235v-100l-3 -3h-38l-3 3v96c-6 -1 -12 -1 -19 -1c-77 0 -139 19 -170 41l-3 7c9 46 12 93 12 137l3 3h26l3 -3c0 -68 2 -73 10 -83
c27 -34 73 -50 136 -50h2z" />
    <glyph glyph-name="percent" unicode="%" horiz-adv-x="889" 
d="M538 127v30c0 100 55 153 126 153c79 0 126 -53 126 -145v-17c0 -113 -65 -167 -126 -166c-73 -1 -126 53 -126 145zM613 178v-36c0 -93 12 -133 51 -133s51 30 51 105v36c0 93 -12 133 -51 133s-51 -30 -51 -105zM174 551v-36c0 -93 12 -133 51 -133s51 30 51 105v36
c0 93 -12 133 -51 133s-51 -30 -51 -105zM99 500v30c0 100 55 153 126 153c79 0 126 -53 126 -145v-17c0 -113 -65 -167 -126 -166c-73 -1 -126 53 -126 145zM239 -34l362 735l4 3h39l2 -4l-362 -735l-4 -3h-39z" />
    <glyph glyph-name="ampersand" unicode="&#x26;" horiz-adv-x="815" 
d="M439 341l26 50c112 0 171 3 301 8l5 -4c-7 -24 -12 -47 -14 -64l-5 -3c-37 5 -94 7 -141 7c3 -14 6 -28 6 -45c0 -55 -24 -109 -71 -154c46 -33 100 -53 156 -53c33 0 37 4 73 41h4l21 -22v-4c-33 -34 -66 -69 -95 -104c-11 -4 -27 -7 -39 -7c-57 0 -123 27 -190 76
c-61 -50 -135 -81 -221 -81c-133 0 -212 104 -212 201c0 80 44 138 155 201c-20 41 -34 84 -34 131c0 32 4 46 12 57c24 34 73 83 92 100c17 15 53 26 81 26c50 0 105 -33 105 -105c0 -91 -86 -157 -157 -198c51 -89 127 -172 212 -233c24 24 38 54 38 93
c0 35 -13 66 -23 80c-14 1 -26 2 -39 2c-14 0 -29 -1 -43 -2zM313 50c43 0 86 14 122 42c-99 77 -166 159 -219 254c-45 -32 -69 -69 -69 -111c0 -91 71 -185 166 -185zM370 570c0 46 -26 68 -59 68c-32 0 -63 -33 -63 -85c0 -39 12 -76 32 -119c66 49 90 88 90 136z" />
    <glyph glyph-name="quoteright" unicode="&#x2019;" horiz-adv-x="278" 
d="M40 392l-14 14c47 67 76 166 89 250c41 7 82 17 123 33l14 -15c-34 -94 -87 -176 -158 -256c-18 -6 -36 -15 -54 -26z" />
    <glyph glyph-name="parenleft" unicode="(" horiz-adv-x="333" 
d="M263 741l25 -22v-5c-98 -107 -134 -242 -134 -430s36 -323 134 -430v-5l-25 -22h-5c-140 133 -212 279 -212 457s72 324 212 457h5z" />
    <glyph glyph-name="parenright" unicode=")" horiz-adv-x="333" 
d="M70 -173l-25 22v5c98 107 134 242 134 430s-36 323 -134 430v5l25 22h5c140 -133 212 -279 212 -457s-72 -324 -212 -457h-5z" />
    <glyph glyph-name="asterisk" unicode="*" horiz-adv-x="444" 
d="M47 574l-3 9c17 23 34 49 45 74h11c33 -40 69 -80 107 -119c9 50 15 100 20 151l9 5c28 -13 55 -21 83 -26l3 -10c-29 -41 -57 -85 -86 -132c49 11 98 21 147 33l7 -7c0 -27 3 -54 10 -81l-8 -7c-52 13 -104 24 -156 33c22 -40 47 -81 75 -120l-3 -10
c-24 -8 -51 -20 -78 -32l-10 4c-3 51 -8 101 -15 151c-36 -34 -71 -71 -107 -109h-12c-10 24 -24 49 -41 72l3 11c45 17 90 33 136 50c-45 23 -91 44 -137 60z" />
    <glyph glyph-name="plus" unicode="+" horiz-adv-x="600" 
d="M261 292v214h78v-214h214v-78h-214v-214h-78v214h-214v78h214z" />
    <glyph glyph-name="comma" unicode="," horiz-adv-x="250" 
d="M-10 -165l-14 14c47 67 76 166 89 250c41 7 82 17 123 33l14 -15c-34 -94 -87 -176 -158 -256c-18 -6 -36 -15 -54 -26z" />
    <glyph glyph-name="hyphen" unicode="-" horiz-adv-x="389" 
d="M47 203l-7 10c12 27 21 55 28 84c49 -3 101 -5 147 -5c43 0 88 3 127 5l7 -10c-12 -27 -21 -55 -28 -84c-49 3 -101 5 -147 5c-43 0 -88 -3 -127 -5z" />
    <glyph glyph-name="period" unicode="." horiz-adv-x="250" 
d="M56 58c0 38 31 69 69 69s69 -31 69 -69s-31 -69 -69 -69s-69 31 -69 69z" />
    <glyph glyph-name="slash" unicode="/" horiz-adv-x="389" 
d="M60 -14l189 718l5 3h72l3 -4l-189 -718l-5 -3h-72z" />
    <glyph glyph-name="zero" unicode="0" 
d="M31 292v65c0 213 86 326 219 326c159 0 219 -113 219 -309v-37c0 -242 -96 -355 -219 -355c-159 0 -219 113 -219 310zM359 251v103c0 197 -26 284 -109 284c-85 0 -109 -66 -109 -224v-103c0 -198 26 -284 109 -284c85 0 109 65 109 224z" />
    <glyph glyph-name="one" unicode="1" 
d="M90 -2v29l3 3c66 0 96 5 105 13c11 10 14 18 14 243c0 253 0 301 -6 301c-17 0 -123 -56 -153 -75l-9 4l-9 61c90 32 187 65 271 106l17 -9c-7 -63 -7 -248 -7 -388c0 -225 3 -233 14 -243c9 -8 39 -13 105 -13l3 -3v-29l-3 -3c-57 2 -119 5 -168 5
c-55 0 -117 -3 -174 -5z" />
    <glyph glyph-name="two" unicode="2" 
d="M12 -2v32c268 263 316 329 316 430c0 73 -37 133 -128 133c-50 0 -85 -22 -100 -39c-7 -7 -22 -67 -22 -76l-3 -3h-32l-3 3c7 36 14 110 14 140c46 42 107 65 168 65c135 0 216 -67 216 -181c0 -99 -37 -167 -293 -404l1 -4c108 0 213 0 319 6l4 -3c-3 -17 -4 -40 -4 -59
c0 -12 1 -24 4 -40l-6 -3c-65 2 -129 5 -194 5c-53 0 -210 0 -254 -5z" />
    <glyph glyph-name="three" unicode="3" 
d="M133 310l15 63c11 0 26 -1 42 -1c69 0 129 34 129 115c0 70 -45 112 -116 112c-53 0 -98 -28 -106 -39c-11 -15 -20 -41 -26 -58l-4 -3h-31l-2 3c12 39 22 84 29 128c50 32 101 53 162 53c96 0 184 -45 184 -151c0 -68 -44 -125 -109 -160v-2c77 -4 155 -49 155 -147
c0 -141 -151 -241 -281 -241c-58 0 -99 8 -137 25c-8 49 -19 97 -32 144l2 3l27 9l5 -3c43 -96 82 -130 163 -130c88 0 139 59 139 151c0 85 -52 135 -136 135c-18 0 -44 -4 -60 -14z" />
    <glyph glyph-name="four" unicode="4" 
d="M20 171l-11 33c75 148 159 304 262 443c31 10 61 23 92 36l18 -9c-4 -62 -4 -284 -4 -428c22 0 66 0 99 2l3 -5c-1 -12 -3 -24 -3 -37c0 -10 2 -23 3 -32l-3 -3c-14 1 -66 3 -99 3v-90c0 -54 21 -54 104 -54l3 -3v-29l-3 -3c-58 2 -116 5 -175 5c-49 0 -98 -3 -148 -5
l-3 3v29l3 3c60 0 100 2 112 22c7 10 7 32 7 122c-53 0 -103 1 -154 1c-41 0 -69 -2 -103 -4zM81 246h196c0 113 3 226 5 339c-1 0 -1 1 -2 1c-74 -113 -141 -227 -199 -340z" />
    <glyph glyph-name="five" unicode="5" 
d="M18 150l24 9l4 -2c35 -75 77 -123 159 -123c75 0 143 48 143 166c0 95 -56 155 -137 155c-53 0 -88 -21 -133 -60l-20 12c4 31 7 111 7 168c0 126 -1 162 -5 198l7 6c40 -1 108 -5 184 -5c55 0 109 4 163 5l8 -7c-1 -13 -3 -29 -3 -43s2 -28 2 -40l-7 -9
c-47 0 -97 2 -144 2c-51 0 -102 -1 -153 -2c-5 -65 -8 -127 -10 -189c27 21 82 41 132 41c121 0 209 -69 209 -193c0 -151 -144 -257 -278 -257c-59 0 -102 14 -121 25c-9 47 -20 94 -33 139z" />
    <glyph glyph-name="six" unicode="6" 
d="M144 331l55 48c28 24 56 30 89 30c105 0 179 -64 179 -192c0 -134 -85 -235 -219 -235c-158 0 -215 119 -215 270c0 213 141 403 359 431c14 -14 27 -25 41 -33l-7 -11c-178 -11 -264 -152 -284 -306zM251 338c-74 0 -114 -53 -114 -148c0 -117 51 -166 114 -166
s116 35 116 155c0 98 -43 159 -116 159z" />
    <glyph glyph-name="seven" unicode="7" 
d="M83 4l312 565l-4 5c-43 0 -89 2 -132 2c-100 0 -153 -1 -162 -10c-14 -14 -22 -97 -22 -102l-5 -4h-30l-3 4c1 26 3 54 3 75c0 44 0 88 -5 130l12 10c44 -1 133 -5 218 -5c74 0 180 4 218 5l3 -3v-47c-52 -80 -210 -381 -290 -631l-5 -3c-17 2 -32 5 -49 5
c-18 0 -36 -3 -54 -5z" />
    <glyph glyph-name="eight" unicode="8" 
d="M251 683c101 0 188 -46 188 -144c0 -61 -30 -112 -111 -156v-3c91 -38 141 -87 141 -168c0 -141 -113 -230 -242 -230c-93 0 -196 54 -196 170c0 80 35 136 128 183v4c-64 29 -107 80 -107 151c0 122 97 193 199 193zM379 156c0 65 -36 103 -176 161
c-63 -35 -88 -89 -88 -156c0 -78 49 -137 137 -137c80 0 127 60 127 132zM359 534c0 62 -42 108 -115 108c-68 0 -105 -49 -105 -106c0 -56 33 -86 146 -135c51 30 74 74 74 133z" />
    <glyph glyph-name="nine" unicode="9" 
d="M67 15l7 12c178 11 264 151 284 305l-2 2l-55 -47c-28 -24 -56 -31 -89 -31c-105 0 -179 64 -179 192c0 134 85 235 219 235c158 0 215 -119 215 -270c0 -213 -141 -403 -359 -431c-14 14 -27 25 -41 33zM249 327c74 0 114 54 114 148c0 117 -51 167 -114 167
s-116 -36 -116 -156c0 -97 43 -159 116 -159z" />
    <glyph glyph-name="colon" unicode=":" horiz-adv-x="250" 
d="M56 58c0 38 31 69 69 69s69 -31 69 -69s-31 -69 -69 -69s-69 31 -69 69zM56 374c0 38 31 69 69 69s69 -31 69 -69s-31 -69 -69 -69s-69 31 -69 69z" />
    <glyph glyph-name="semicolon" unicode=";" horiz-adv-x="250" 
d="M-10 -165l-14 14c47 67 76 166 89 250c41 7 82 17 123 33l14 -15c-34 -94 -87 -176 -158 -256c-18 -6 -36 -15 -54 -26zM56 374c0 38 31 69 69 69s69 -31 69 -69s-31 -69 -69 -69s-69 31 -69 69z" />
    <glyph glyph-name="less" unicode="&#x3c;" horiz-adv-x="600" 
d="M553 517v-77l-410 -187l410 -187v-77l-506 227v74z" />
    <glyph glyph-name="equal" unicode="=" horiz-adv-x="600" 
d="M47 310v78h506v-78h-506zM47 118v78h506v-78h-506z" />
    <glyph glyph-name="greater" unicode="&#x3e;" horiz-adv-x="600" 
d="M47 -11v77l410 187l-410 187v77l506 -227v-74z" />
    <glyph glyph-name="question" unicode="?" horiz-adv-x="444" 
d="M57 518l-30 5l-3 3c4 13 31 107 31 122c30 28 91 59 153 59c95 0 183 -53 183 -156c0 -161 -202 -203 -202 -295c0 -15 6 -28 11 -36l-1 -5l-29 -15l-5 1c-17 23 -22 39 -22 64c0 100 134 152 134 254c0 57 -48 97 -100 97c-47 0 -68 -9 -78 -18c-3 -3 -28 -40 -38 -77z
M118 58c0 38 31 69 69 69s69 -31 69 -69s-31 -69 -69 -69s-69 31 -69 69z" />
    <glyph glyph-name="at" unicode="@" horiz-adv-x="800" 
d="M503 404c0 54 -24 75 -56 75c-51 0 -125 -73 -125 -203c0 -51 19 -76 46 -76c65 0 135 100 135 204zM637 82l13 -39c-56 -29 -129 -61 -220 -61c-206 0 -393 137 -393 352c0 220 171 373 382 373c210 0 344 -147 344 -309c0 -149 -86 -250 -192 -250
c-62 0 -105 22 -106 74h-2c-28 -50 -78 -74 -124 -74c-68 0 -107 46 -107 132c0 138 100 251 211 251c42 0 66 -17 78 -53h2l10 43h74c-66 -263 -68 -277 -68 -297c0 -18 11 -28 29 -28c78 0 135 90 135 201c0 126 -109 258 -283 258s-289 -134 -289 -323
c0 -166 118 -298 301 -298c84 0 152 20 205 48z" />
    <glyph glyph-name="A" unicode="A" horiz-adv-x="759" 
d="M468 -2v29l3 3c73 0 75 6 75 16c0 15 -10 39 -67 179h-264c-61 -139 -63 -154 -63 -167c0 -24 26 -25 81 -28l3 -3v-29l-3 -3c-36 2 -76 5 -115 5s-79 -3 -115 -5l-3 3v29l3 3c61 2 64 7 92 67c89 190 192 427 262 597h42c220 -520 250 -592 277 -638
c11 -19 20 -25 65 -26l3 -3v-29l-3 -3c-43 2 -89 5 -135 5s-92 -3 -135 -5zM459 273l-112 267l-112 -267h224z" />
    <glyph glyph-name="B" unicode="B" horiz-adv-x="630" 
d="M427 532c0 71 -38 110 -138 110c-38 0 -54 -2 -70 -4c-1 -79 -3 -176 -3 -237c15 1 82 3 95 4c80 6 116 54 116 127zM12 662v29l3 3c25 -1 52 -2 72 -3c24 -1 46 -2 65 -2c49 0 108 5 190 5c129 0 199 -41 199 -141c0 -73 -48 -143 -167 -168v-2c117 -1 203 -54 203 -162
c0 -99 -80 -226 -288 -226c-36 0 -90 5 -147 5c-24 0 -51 -1 -86 -5l-3 3v19l4 5c34 15 40 20 42 26c3 9 7 20 7 347c0 232 -3 241 -14 251c-9 8 -39 13 -77 13zM455 205c0 120 -83 148 -169 148c-18 0 -38 0 -70 -1c0 -100 1 -207 4 -301c20 -5 29 -8 62 -8
c103 0 173 46 173 162z" />
    <glyph glyph-name="C" unicode="C" horiz-adv-x="741" 
d="M671 96l12 -7c-8 -19 -15 -38 -22 -57c-65 -31 -140 -50 -231 -50c-197 0 -386 120 -386 356c0 224 151 369 401 369c83 0 189 -22 232 -37l6 -7c-14 -42 -20 -116 -19 -141l-3 -3h-32l-3 3c0 25 -3 50 -6 75c-24 29 -99 62 -188 62c-187 0 -270 -148 -270 -286
c0 -182 105 -331 320 -331c59 0 133 16 189 54z" />
    <glyph glyph-name="D" unicode="D" horiz-adv-x="796" 
d="M27 662v29l3 3c50 -2 98 -5 146 -5c52 0 102 5 162 5c256 0 408 -90 408 -324c0 -168 -116 -375 -400 -375c-77 0 -131 5 -189 5c-24 0 -51 -1 -86 -5l-3 3v19l4 5c33 15 40 20 42 26c3 9 7 20 7 347c0 232 -3 241 -14 251c-9 8 -39 13 -77 13zM628 360
c0 180 -102 286 -281 286c-54 0 -82 -3 -112 -8c-2 -66 -4 -148 -4 -287c0 -161 2 -235 4 -300c30 -7 55 -8 92 -8c196 0 301 110 301 317z" />
    <glyph glyph-name="E" unicode="E" horiz-adv-x="630" 
d="M27 662v29l3 3c50 -2 98 -5 146 -5c185 0 312 3 377 5l6 -5c-5 -52 -9 -105 -12 -154l-3 -3h-29l-3 3c0 20 0 83 -9 91c-10 9 -94 16 -170 16c-41 0 -77 -3 -97 -4c-5 -88 -5 -174 -5 -260c38 -1 79 -2 117 -2c55 0 89 3 95 14c9 16 13 53 13 69l3 3h26l3 -3
c0 -39 -2 -79 -2 -119c0 -27 2 -67 2 -102l-3 -3h-26l-3 3c0 15 -7 54 -14 72c-5 13 -38 18 -123 18c-34 0 -60 -1 -88 -2c0 -93 0 -187 2 -279c53 0 259 0 281 13c12 7 26 88 26 103l3 3h32l3 -3c-4 -42 -9 -108 -11 -163l-8 -5c-66 2 -137 3 -207 4c-69 1 -136 1 -195 1
c-24 0 -51 -1 -86 -5l-3 3v19l4 5c33 15 40 20 42 26c3 9 7 20 7 347c0 232 -3 241 -14 251c-9 8 -39 13 -77 13z" />
    <glyph glyph-name="F" unicode="F" horiz-adv-x="556" 
d="M27 662v29l3 3c50 -2 98 -5 146 -5c161 0 288 3 353 5l6 -5c-5 -52 -9 -105 -12 -154l-3 -3h-29l-3 3c0 20 0 83 -9 91c-10 9 -94 16 -146 16c-41 0 -77 -3 -97 -4c-5 -88 -5 -174 -5 -260c38 -1 79 -2 105 -2c43 0 77 3 83 14c9 16 13 53 13 69l3 3h26l3 -3
c0 -39 -2 -79 -2 -119c0 -27 2 -67 2 -102l-3 -3h-26l-3 3c0 15 -7 54 -14 72c-5 13 -38 18 -99 18c-34 0 -60 -1 -88 -2c0 -264 3 -273 14 -283c9 -8 39 -13 77 -13l3 -3v-29l-3 -3c-50 2 -98 5 -146 5s-96 -3 -146 -5l-3 3v29l3 3c38 0 68 5 77 13c11 10 14 19 14 251v101
c0 232 -3 241 -14 251c-9 8 -39 13 -77 13z" />
    <glyph glyph-name="G" unicode="G" horiz-adv-x="815" 
d="M523 249v29l3 3c15 -1 81 -4 131 -4c36 0 104 3 118 4l3 -3v-21l-2 -4c-24 -12 -34 -19 -37 -23c-4 -5 -7 -21 -7 -90c0 -40 3 -69 6 -99l-4 -6c-92 -30 -201 -53 -298 -53c-252 0 -392 150 -392 362c0 240 192 363 401 363c109 0 207 -16 284 -45l3 -7
c-11 -25 -23 -122 -23 -140l-3 -3h-26l-3 3c-3 33 -5 72 -13 83c-9 14 -107 61 -208 61c-191 0 -290 -123 -290 -298c0 -199 126 -327 295 -327c59 0 121 13 157 27c3 38 4 77 4 95c0 63 -1 72 -8 76c-16 9 -77 14 -88 14z" />
    <glyph glyph-name="H" unicode="H" horiz-adv-x="834" 
d="M27 -2v29l3 3c38 0 68 5 77 13c11 10 14 19 14 251v101c0 232 -3 241 -14 251c-9 8 -39 13 -77 13l-3 3v29l3 3c50 -2 98 -5 146 -5s96 3 146 5l3 -3v-29l-3 -3c-38 0 -68 -5 -77 -13c-11 -10 -14 -19 -14 -255c65 -1 126 -2 186 -2s121 1 186 2c0 236 -3 245 -14 255
c-9 8 -39 13 -77 13l-3 3v29l3 3c50 -2 98 -5 146 -5s96 3 146 5l3 -3v-29l-3 -3c-38 0 -68 -5 -77 -13c-11 -10 -14 -19 -14 -251v-101c0 -232 3 -241 14 -251c9 -8 39 -13 77 -13l3 -3v-29l-3 -3c-50 2 -98 5 -146 5s-96 -3 -146 -5l-3 3v29l3 3c38 0 68 5 77 13
c11 10 14 19 14 255v41c-65 1 -126 2 -186 2s-121 -1 -186 -2v-41c0 -236 3 -245 14 -255c9 -8 39 -13 77 -13l3 -3v-29l-3 -3c-50 2 -98 5 -146 5s-96 -3 -146 -5z" />
    <glyph glyph-name="I" unicode="I" horiz-adv-x="352" 
d="M27 662v29l3 3c50 -2 98 -5 146 -5s96 3 146 5l3 -3v-29l-3 -3c-38 0 -68 -5 -77 -13c-11 -10 -14 -19 -14 -251v-101c0 -232 3 -241 14 -251c9 -8 39 -13 77 -13l3 -3v-29l-3 -3c-50 2 -98 5 -146 5s-96 -3 -146 -5l-3 3v29l3 3c38 0 68 5 77 13c11 10 14 19 14 251v101
c0 232 -3 241 -14 251c-9 8 -39 13 -77 13z" />
    <glyph glyph-name="J" unicode="J" horiz-adv-x="352" 
d="M121 1v394c0 232 -3 241 -14 251c-9 8 -39 13 -77 13l-3 3v29l3 3c50 -2 98 -5 146 -5s96 3 146 5l3 -3v-29l-3 -3c-38 0 -68 -5 -77 -13c-11 -10 -14 -19 -14 -251v-320c0 -190 -137 -273 -206 -273c-21 0 -41 4 -53 10c2 15 4 32 4 50c0 13 0 26 -1 38l14 3
c16 -19 45 -33 80 -33c36 0 52 9 52 131z" />
    <glyph glyph-name="K" unicode="K" horiz-adv-x="722" 
d="M532 657v34l4 3c19 -5 55 -6 80 -6c24 0 49 2 74 6l3 -3v-29l-3 -3c-46 -3 -82 -16 -173 -100l-185 -171l302 -310c40 -41 56 -48 85 -48l3 -3v-29l-3 -3c-29 2 -58 5 -87 5c-24 0 -48 -2 -72 -5l-329 343v-44c0 -232 3 -241 14 -251c9 -8 39 -13 77 -13l3 -3v-29l-3 -3
c-50 2 -98 5 -146 5s-96 -3 -146 -5l-3 3v29l3 3c38 0 68 5 77 13c11 10 14 19 14 251v101c0 232 -3 241 -14 251c-9 8 -39 13 -77 13l-3 3v29l3 3c50 -2 98 -5 146 -5s96 3 146 5l3 -3v-29l-3 -3c-38 0 -68 -5 -77 -13c-11 -10 -14 -19 -14 -251v-34c93 73 199 188 301 296
z" />
    <glyph glyph-name="L" unicode="L" horiz-adv-x="611" 
d="M27 662v29l3 3c50 -2 98 -5 146 -5s96 3 146 5l3 -3v-29l-3 -3c-38 0 -68 -5 -77 -13c-11 -10 -14 -19 -14 -251v-69c0 -93 0 -187 2 -279c53 0 266 0 282 18c9 10 19 48 29 106l3 3h32l3 -3c-4 -46 -9 -114 -15 -176c-70 2 -143 3 -214 4c-70 1 -137 1 -196 1
c-24 0 -51 -1 -86 -5l-3 3v20l3 3c34 16 41 21 43 27c3 9 7 20 7 347c0 232 -3 241 -14 251c-9 8 -39 13 -77 13z" />
    <glyph glyph-name="M" unicode="M" horiz-adv-x="981" 
d="M27 662v29l3 3c50 -2 74 -5 118 -5c31 0 66 3 84 5c93 -204 221 -454 263 -538c91 179 179 357 266 538c27 -2 63 -5 92 -5s70 3 98 5l3 -3v-29l-3 -3c-38 0 -68 -5 -77 -13c-11 -10 -14 -19 -14 -251v-101c0 -232 3 -241 14 -251c9 -8 39 -13 77 -13l3 -3v-29l-3 -3
c-50 2 -98 5 -146 5s-96 -3 -146 -5l-3 3v29l3 3c38 0 68 5 77 13c11 10 14 19 14 251v246h-2c-96 -185 -253 -490 -275 -558h-21c-27 80 -225 456 -275 558h-2v-246c0 -232 3 -241 14 -251c9 -8 39 -13 74 -13l3 -3v-29l-3 -3c-37 2 -75 5 -112 5c-40 0 -81 -3 -121 -5
l-3 3v29l3 3c38 0 68 5 77 13c11 10 14 19 14 251v101c0 232 -3 241 -14 251c-9 8 -39 13 -77 13z" />
    <glyph glyph-name="N" unicode="N" horiz-adv-x="833" 
d="M570 662v29l3 3c45 -2 89 -5 134 -5c34 0 68 3 102 5l3 -3v-29l-3 -3c-38 0 -63 -5 -75 -20c-15 -19 -16 -325 -16 -395c0 -118 4 -206 6 -262l-6 -5c-24 8 -71 16 -89 16c-75 81 -313 375 -458 562h-2v-261c0 -232 3 -241 14 -251c9 -8 39 -13 77 -13l3 -3v-29l-3 -3
c-39 2 -79 5 -118 5s-79 -3 -118 -5l-3 3v29l3 3c38 0 68 5 77 13c11 10 14 19 14 251v101c0 232 -3 241 -14 251c-9 8 -39 13 -77 13l-3 3v29l3 3c37 -2 73 -5 111 -5c31 0 52 2 75 5c36 -61 381 -484 456 -574h2c0 32 -4 138 -4 275c0 232 -3 241 -14 251
c-9 8 -39 13 -77 13z" />
    <glyph glyph-name="O" unicode="O" horiz-adv-x="833" 
d="M44 350c0 224 167 357 382 357c202 0 363 -109 363 -345c0 -210 -160 -380 -388 -380c-273 0 -357 199 -357 368zM671 328c0 257 -153 331 -262 331c-141 0 -247 -107 -247 -273c0 -217 116 -356 267 -356c163 0 242 136 242 298z" />
    <glyph glyph-name="P" unicode="P" horiz-adv-x="611" 
d="M277 361l9 9c12 -4 27 -8 44 -8c86 0 150 50 150 152c0 90 -64 132 -159 132c-29 0 -63 -5 -86 -12c-1 -38 -4 -100 -4 -340c0 -232 3 -241 14 -251c9 -8 39 -13 78 -13l3 -3v-29l-3 -3c-51 2 -99 5 -147 5s-96 -3 -146 -5l-3 3v29l3 3c38 0 68 5 77 13
c11 10 14 19 14 251v101c0 232 -3 241 -14 251c-9 8 -39 13 -77 13l-3 3v29l3 3c50 -2 98 -5 146 -5c60 0 120 5 176 5c144 0 242 -28 242 -164c0 -128 -102 -210 -234 -210c-32 0 -55 4 -70 7z" />
    <glyph glyph-name="Q" unicode="Q" horiz-adv-x="833" 
d="M273 -130l-8 29l2 5c51 35 106 75 137 76v2c-276 0 -360 199 -360 368c0 224 167 357 382 357c202 0 363 -109 363 -345c0 -210 -168 -380 -373 -380v-2c92 -20 258 -85 310 -85c26 0 54 10 77 22l3 -2l-3 -31l-2 -5c-30 -13 -70 -42 -99 -62c-110 0 -254 85 -351 85
c-19 0 -42 -11 -74 -33zM671 328c0 257 -153 331 -262 331c-141 0 -247 -107 -247 -273c0 -217 116 -356 267 -356c163 0 242 136 242 298z" />
    <glyph glyph-name="R" unicode="R" horiz-adv-x="685" 
d="M279 353l10 18c11 -1 20 -2 30 -2c106 0 161 70 161 150c0 85 -64 127 -159 127c-29 0 -63 -5 -86 -12c-1 -38 -4 -100 -4 -340c0 -232 3 -241 14 -251c9 -8 39 -13 73 -13l3 -3v-29l-3 -3c-46 2 -94 5 -142 5s-96 -3 -146 -5l-3 3v29l3 3c38 0 68 5 77 13
c11 10 14 19 14 251v101c0 232 -3 241 -14 251c-9 8 -39 13 -77 13l-3 3v29l3 3c50 -2 98 -5 146 -5c60 0 120 5 176 5c144 0 242 -28 242 -150c0 -117 -89 -176 -172 -196l194 -278c24 -34 36 -40 66 -40l3 -3v-29l-3 -3c-23 2 -50 5 -76 5c-27 0 -53 -3 -80 -5
c-78 119 -168 257 -247 358z" />
    <glyph glyph-name="S" unicode="S" horiz-adv-x="593" 
d="M64 176h32l3 -3c0 -37 0 -49 3 -67c2 -15 49 -72 161 -72c114 0 180 58 180 153c0 201 -393 24 -393 297c0 137 99 223 267 223c56 0 140 -14 189 -41l3 -7c-10 -35 -17 -107 -17 -135l-3 -3l-32 3l-3 3c0 60 0 71 -6 78c-16 18 -65 50 -141 50
c-108 0 -157 -61 -157 -132c0 -90 48 -106 212 -131c116 -17 181 -59 181 -163c0 -109 -85 -247 -304 -247c-74 0 -147 21 -186 42l-3 6c7 45 11 99 11 143z" />
    <glyph glyph-name="T" unicode="T" horiz-adv-x="630" 
d="M166 -2v29l3 3c38 0 68 5 77 13c11 10 14 19 14 251c0 72 -4 182 -6 343c-41 1 -71 1 -103 1c-52 0 -71 -2 -78 -11c-7 -8 -8 -16 -15 -92l-4 -4h-31l-3 3c0 73 0 120 -6 157l3 3c94 -3 209 -5 298 -5s204 2 298 5l3 -3c-6 -37 -6 -84 -6 -157l-3 -3h-31l-4 4
c-7 76 -8 84 -15 92c-7 9 -26 11 -78 11c-32 0 -62 0 -103 -1c-2 -161 -6 -271 -6 -343c0 -232 3 -241 14 -251c9 -8 39 -13 77 -13l3 -3v-29l-3 -3c-50 2 -98 5 -146 5s-96 -3 -146 -5z" />
    <glyph glyph-name="U" unicode="U" horiz-adv-x="796" 
d="M538 662v29l3 3c27 -3 64 -5 112 -5c47 0 89 3 120 5l3 -3v-29l-3 -3c-38 0 -68 -5 -77 -13c-11 -10 -14 -19 -14 -251v-135c0 -187 -93 -278 -293 -278c-156 0 -275 57 -275 233v180c0 232 -3 241 -14 251c-9 8 -39 13 -77 13l-3 3v29l3 3c50 -2 98 -5 146 -5
s96 3 146 5l3 -3v-29l-3 -3c-38 0 -68 -5 -77 -13c-11 -10 -14 -19 -14 -251v-164c0 -84 41 -177 199 -177c148 0 209 66 209 200v141c0 232 -3 241 -14 251c-9 8 -39 13 -77 13z" />
    <glyph glyph-name="V" unicode="V" horiz-adv-x="722" 
d="M496 662v29l3 3c40 -2 80 -5 120 -5c33 0 65 3 95 5l3 -3v-29l-3 -3c-38 0 -50 -4 -63 -33c-114 -255 -249 -566 -272 -637h-52c-7 53 -259 611 -275 644c-11 23 -40 26 -63 26l-3 3v29l3 3c42 -2 84 -5 126 -5c48 0 95 3 142 5l3 -3v-29l-3 -3c-63 0 -75 -5 -75 -21
c0 -24 170 -430 202 -499c68 159 199 456 199 493c0 19 -9 27 -84 27z" />
    <glyph glyph-name="W" unicode="W" horiz-adv-x="1037" 
d="M832 662v29l3 3c40 -3 80 -5 120 -5c30 0 60 2 91 5l3 -3v-29l-3 -3c-47 0 -59 -5 -74 -53c-19 -60 -133 -447 -179 -617h-49l-218 545c-83 -182 -214 -466 -243 -545h-48l-150 608c-13 52 -18 62 -74 62l-3 3v29l3 3c46 -3 91 -5 137 -5c42 0 84 2 126 5l3 -3v-29l-3 -3
c-58 0 -75 -9 -75 -32c0 -35 57 -285 103 -458h2c82 176 233 501 242 527h32c11 -42 139 -351 211 -527h2c93 329 120 429 120 457c0 31 -28 33 -76 33z" />
    <glyph glyph-name="X" unicode="X" horiz-adv-x="667" 
d="M24 632v30l3 4c50 7 100 17 150 28c56 -47 112 -144 179 -264c61 87 163 230 176 264c18 -1 37 -3 55 -3c19 0 37 2 56 3l3 -3v-29l-3 -3c-35 0 -63 -14 -104 -70l-154 -207l201 -320c18 -29 32 -32 65 -32l3 -3v-29l-3 -3c-25 3 -50 5 -75 5c-27 0 -53 -2 -80 -5
l-178 295c-66 -98 -187 -276 -191 -295c-20 1 -40 3 -59 3c-17 0 -35 -2 -52 -3l-3 3v29l3 3c40 0 45 2 64 27c88 116 148 199 207 282c-46 76 -94 152 -144 228c-36 54 -64 67 -90 67c-10 0 -20 -1 -26 -5z" />
    <glyph glyph-name="Y" unicode="Y" horiz-adv-x="667" 
d="M195 -2v29l3 3c38 0 68 5 77 13c11 10 14 19 14 251c-193 332 -227 347 -276 347c-4 0 -7 -1 -11 -1l-3 3v30l3 3c21 0 107 14 127 18c54 -8 128 -141 235 -333c55 84 171 280 190 333c17 -1 33 -3 50 -3s33 2 47 3l3 -3v-9c-55 -54 -261 -351 -261 -399
c0 -221 3 -230 14 -240c9 -8 39 -13 77 -13l3 -3v-29l-3 -3c-50 2 -98 5 -143 5s-93 -3 -143 -5z" />
    <glyph glyph-name="Z" unicode="Z" horiz-adv-x="648" 
d="M31 -2v32c140 202 278 404 410 608c-43 2 -96 4 -137 4c-111 0 -172 -6 -188 -17c-10 -7 -17 -81 -17 -91l-3 -3h-32l-3 3c1 27 3 58 3 88c0 22 -2 45 -3 67l7 5c91 -3 181 -5 270 -5c87 0 173 2 256 5l3 -3v-32c-150 -193 -282 -408 -417 -612h186c62 0 171 9 180 16
c13 10 19 31 30 107l3 3h35l3 -3c-3 -28 -10 -122 -10 -171l-5 -4c-112 2 -225 5 -335 5c-79 0 -157 -3 -233 -5z" />
    <glyph glyph-name="bracketleft" unicode="[" horiz-adv-x="333" 
d="M315 -123v-29l-3 -3c-36 1 -73 5 -107 5c-31 0 -65 -4 -100 -5l-7 5c10 32 10 256 10 434s0 402 -10 434l7 5c35 -1 69 -5 100 -5c34 0 71 4 107 5l3 -3v-29l-3 -3c-57 -1 -82 -2 -94 -14c-9 -9 -16 -26 -16 -390s7 -381 16 -390c12 -12 37 -13 94 -14z" />
    <glyph glyph-name="backslash" unicode="\" horiz-adv-x="389" 
d="M140 704l189 -718l-3 -4h-72l-5 3l-189 718l3 4h72z" />
    <glyph glyph-name="bracketright" unicode="]" horiz-adv-x="333" 
d="M18 691v29l3 3c36 -1 73 -5 107 -5c31 0 65 4 100 5l7 -5c-10 -32 -10 -256 -10 -434s0 -402 10 -434l-7 -5c-35 1 -69 5 -100 5c-34 0 -71 -4 -107 -5l-3 3v29l3 3c57 1 82 2 94 14c9 9 16 26 16 390s-7 381 -16 390c-12 12 -37 13 -94 14z" />
    <glyph glyph-name="asciicircum" unicode="^" horiz-adv-x="600" 
d="M86 309l181 365h66l181 -365h-78l-136 270l-136 -270h-78z" />
    <glyph glyph-name="underscore" unicode="_" 
d="M0 -125v50h500v-50h-500z" />
    <glyph glyph-name="quoteleft" unicode="&#x2018;" horiz-adv-x="278" 
d="M25 392l-14 15c34 94 87 176 158 256c18 6 36 15 54 26l14 -14c-47 -67 -76 -166 -89 -250c-41 -7 -82 -17 -123 -33z" />
    <glyph glyph-name="a" unicode="a" horiz-adv-x="519" 
d="M83 337l4 62c96 62 120 72 164 72c89 0 176 -36 176 -144c0 -67 -1 -116 -1 -154c0 -92 0 -121 3 -128c6 -13 20 -15 55 -15l3 -3v-29l-3 -3c-24 3 -51 5 -78 5c-24 0 -53 -2 -77 -5l-6 5c1 27 4 53 4 77c-32 -22 -92 -72 -101 -79c-12 -9 -31 -16 -65 -16
c-81 0 -121 50 -121 122c0 93 27 116 287 171c0 48 -11 124 -113 124c-34 0 -73 -13 -79 -19c-5 -5 -20 -43 -22 -52l-5 -2l-22 7zM327 122v118c-170 -38 -183 -65 -183 -111c0 -50 30 -75 71 -75c35 0 67 22 112 68z" />
    <glyph glyph-name="b" unicode="b" horiz-adv-x="593" 
d="M6 657v29l3 3c14 0 96 11 164 41l14 -9c-5 -30 -5 -60 -5 -354l75 72c25 24 70 32 107 32c85 0 177 -62 177 -207c0 -78 -42 -158 -73 -181c-54 -40 -96 -68 -123 -86c-17 -11 -51 -15 -85 -15c-55 0 -90 14 -123 42l-46 -42l-16 13c5 75 7 105 7 170v377
c0 87 0 103 -10 108c-9 4 -54 4 -63 4zM441 233c0 87 -37 160 -132 160c-64 0 -118 -51 -124 -77c-2 -8 -3 -80 -3 -156c0 -58 3 -62 15 -76c29 -34 62 -46 108 -46c72 0 136 63 136 195z" />
    <glyph glyph-name="c" unicode="c" horiz-adv-x="463" 
d="M423 74l8 -7c-7 -17 -14 -34 -19 -50c-37 -23 -95 -35 -151 -35c-122 0 -221 76 -221 226c0 106 37 161 92 193c113 66 122 70 175 70c47 0 107 -13 117 -24l3 -6c-10 -47 -15 -91 -18 -132l-5 -3h-22l-5 3c0 7 -5 52 -9 59c-8 14 -63 43 -106 43
c-72 0 -118 -44 -118 -132c0 -148 64 -237 171 -237c35 0 80 13 108 32z" />
    <glyph glyph-name="d" unicode="d" horiz-adv-x="611" 
d="M342 657v29l3 3c14 0 96 11 164 41l14 -9c-4 -37 -5 -98 -5 -136v-420c0 -82 0 -116 8 -125c5 -6 27 -10 65 -10l3 -3v-29l-3 -3c-28 2 -56 5 -85 5s-58 -3 -88 -5l-6 5c4 22 6 52 6 79c-39 -29 -69 -57 -102 -85c-20 -7 -41 -12 -72 -12c-98 0 -192 74 -192 233
c0 80 16 140 80 181c114 73 134 75 177 75c45 0 82 -15 109 -35v106c0 87 0 103 -10 108c-9 4 -54 4 -63 4zM418 191c0 80 -2 117 -3 158c-24 36 -74 70 -133 70c-73 0 -130 -60 -130 -174c0 -119 65 -191 145 -191c51 0 121 44 121 137z" />
    <glyph glyph-name="e" unicode="e" horiz-adv-x="519" 
d="M263 433c-96 0 -110 -114 -110 -159c52 -3 90 -4 128 -4c37 0 70 1 88 4c0 83 -20 159 -106 159zM452 86l12 -9c-8 -16 -16 -33 -22 -49c-31 -20 -92 -46 -167 -46c-142 0 -229 94 -229 233c0 97 23 155 65 184c70 48 121 72 169 72c193 0 193 -152 193 -216l-3 -5
c-59 -18 -110 -18 -165 -18h-149c5 -107 55 -190 175 -190c29 0 69 10 121 44z" />
    <glyph glyph-name="f" unicode="f" horiz-adv-x="333" 
d="M20 380v17l2 4l68 35c4 2 6 10 6 24c0 79 1 106 40 152c94 111 117 118 164 118c20 0 37 -3 56 -9c-6 -45 -8 -73 -8 -92l-11 -6c-21 20 -46 35 -78 35c-36 0 -63 -16 -63 -76v-145c59 0 98 0 129 6l5 -7c-2 -12 -6 -36 -6 -50l-4 -3c-42 1 -82 2 -122 2v-220
c0 -82 0 -116 8 -125c5 -6 27 -10 83 -10l3 -3v-29l-3 -3c-56 2 -97 5 -144 5c-41 0 -82 -3 -126 -5l-3 3v29l3 3c44 0 66 4 71 10c8 9 8 43 8 125v151c0 32 -1 54 -1 67c-8 0 -50 -4 -74 -6z" />
    <glyph glyph-name="g" unicode="g" horiz-adv-x="556" 
d="M546 436l7 -9c-10 -16 -20 -32 -29 -48c-12 1 -26 1 -39 1c-15 0 -30 0 -42 -1c5 -10 13 -42 13 -67c0 -108 -121 -172 -207 -172c-12 0 -23 1 -32 1c-34 -28 -39 -38 -39 -51c0 -21 12 -25 81 -25c40 0 80 3 126 3c87 0 143 -46 143 -124c0 -122 -121 -211 -277 -211
c-167 0 -211 91 -211 142c0 28 12 55 29 73c26 13 50 27 73 41c-37 12 -51 29 -51 58c0 16 3 30 15 47c25 18 49 36 71 55c-57 10 -115 56 -115 131c0 55 16 97 66 138c30 25 103 53 157 53c56 0 96 -16 123 -39c56 0 101 0 138 4zM438 -93c0 53 -38 83 -129 83
c-58 0 -96 -3 -118 -7c-47 -28 -64 -53 -64 -95c0 -80 62 -117 133 -117c105 0 178 51 178 136zM356 278c0 88 -44 151 -102 151c-59 0 -96 -43 -96 -99c0 -111 56 -152 96 -152c54 0 102 27 102 100z" />
    <glyph glyph-name="h" unicode="h" horiz-adv-x="610" 
d="M204 382l87 77c5 4 35 12 72 12c110 0 155 -70 155 -160c0 -57 -3 -147 -3 -242c0 -36 8 -39 62 -39l5 -5v-25l-5 -5c-27 2 -53 5 -80 5s-53 -3 -80 -5l-11 9c9 72 9 136 9 220c0 99 -1 169 -95 169c-54 0 -116 -33 -116 -75v-153c0 -82 0 -116 8 -125
c5 -6 27 -10 65 -10l3 -3v-29l-3 -3c-38 2 -79 5 -126 5c-41 0 -82 -3 -120 -5l-3 3v29l3 3c38 0 60 4 65 10c8 9 8 43 8 125v377c0 87 0 103 -10 108c-9 4 -54 4 -63 4l-3 3v29l3 3c14 0 96 11 164 41l14 -9c-4 -37 -5 -98 -5 -136v-203z" />
    <glyph glyph-name="i" unicode="i" horiz-adv-x="296" 
d="M22 398v29l3 3c14 0 96 11 164 41l14 -9c-4 -37 -5 -98 -5 -136v-161c0 -82 0 -116 8 -125c5 -6 27 -10 65 -10l3 -3v-29l-3 -3c-38 2 -79 5 -126 5c-41 0 -82 -3 -120 -5l-3 3v29l3 3c38 0 60 4 65 10c8 9 8 43 8 125v118c0 87 0 103 -10 108c-9 4 -54 4 -63 4zM80 631
c0 35 29 64 64 64s64 -29 64 -64s-29 -64 -64 -64s-64 29 -64 64z" />
    <glyph glyph-name="j" unicode="j" horiz-adv-x="278" 
d="M22 398v29l3 3c14 0 96 11 164 41l14 -9c-4 -37 -5 -56 -5 -297c0 -43 2 -85 2 -147c0 -201 -85 -298 -175 -298c-10 0 -17 1 -26 3l-11 33l5 4c7 -1 15 -2 22 -2c58 0 83 75 83 230v295c0 87 0 103 -10 108c-9 4 -54 4 -63 4zM80 631c0 35 29 64 64 64s64 -29 64 -64
s-29 -64 -64 -64s-64 29 -64 64z" />
    <glyph glyph-name="k" unicode="k" horiz-adv-x="556" 
d="M22 657v29l3 3c14 0 96 11 164 41l14 -9c-4 -37 -5 -98 -5 -136v-320c65 58 128 117 176 162c18 17 20 25 21 31c19 -2 38 -5 57 -5c21 0 41 3 62 5l3 -3v-29l-3 -3c-51 0 -52 0 -236 -143l230 -231c19 -19 25 -19 51 -19l3 -3v-29l-3 -3c-23 2 -46 5 -70 5
c-22 0 -45 -3 -68 -5c-72 79 -147 158 -223 235v-65c0 -82 0 -116 8 -125c5 -6 27 -10 59 -10l3 -3v-29l-3 -3c-32 2 -73 5 -120 5c-41 0 -82 -3 -120 -5l-3 3v29l3 3c38 0 60 4 65 10c8 9 8 43 8 125v377c0 87 0 103 -10 108c-9 4 -54 4 -63 4z" />
    <glyph glyph-name="l" unicode="l" horiz-adv-x="296" 
d="M22 657v29l3 3c14 0 96 11 164 41l14 -9c-4 -37 -5 -98 -5 -136v-420c0 -82 0 -116 8 -125c5 -6 27 -10 65 -10l3 -3v-29l-3 -3c-38 2 -79 5 -126 5c-41 0 -82 -3 -120 -5l-3 3v29l3 3c38 0 60 4 65 10c8 9 8 43 8 125v377c0 87 0 103 -10 108c-9 4 -54 4 -63 4z" />
    <glyph glyph-name="m" unicode="m" horiz-adv-x="907" 
d="M201 379l90 80c5 4 35 12 72 12c73 0 122 -40 138 -99l98 92c16 5 38 7 59 7c112 0 157 -70 157 -160c0 -57 -3 -147 -3 -242c0 -36 8 -39 62 -39l5 -5v-25l-5 -5c-27 2 -53 5 -80 5s-53 -3 -80 -5l-11 9c9 72 9 136 9 220c0 99 -1 169 -98 169c-47 0 -106 -37 -106 -75
v-153c0 -82 0 -116 8 -125c5 -6 27 -10 65 -10l3 -3v-29l-3 -3c-38 2 -79 5 -126 5c-41 0 -82 -3 -120 -5l-3 3v29l3 3c38 0 60 4 65 10c8 9 8 43 8 125v130c0 60 -29 98 -89 98c-53 0 -115 -33 -115 -75v-153c0 -82 0 -116 8 -125c5 -6 27 -10 65 -10l3 -3v-29l-3 -3
c-38 2 -79 5 -126 5c-41 0 -82 -3 -120 -5l-3 3v29l3 3c38 0 60 4 65 10c8 9 8 43 8 125v118c0 87 0 103 -10 108c-9 4 -54 4 -63 4l-3 3v29l3 3c14 0 96 11 164 41l10 -7c-2 -23 -4 -51 -4 -85z" />
    <glyph glyph-name="n" unicode="n" horiz-adv-x="610" 
d="M201 379l90 80c5 4 35 12 72 12c110 0 155 -70 155 -160c0 -57 -3 -147 -3 -242c0 -36 8 -39 62 -39l5 -5v-25l-5 -5c-27 2 -53 5 -80 5s-53 -3 -80 -5l-11 9c9 72 9 136 9 220c0 99 -1 169 -95 169c-54 0 -116 -33 -116 -75v-153c0 -82 0 -116 8 -125
c5 -6 27 -10 65 -10l3 -3v-29l-3 -3c-38 2 -79 5 -126 5c-41 0 -82 -3 -120 -5l-3 3v29l3 3c38 0 60 4 65 10c8 9 8 43 8 125v118c0 87 0 103 -10 108c-9 4 -54 4 -63 4l-3 3v29l3 3c14 0 96 11 164 41l10 -7c-2 -23 -4 -51 -4 -85z" />
    <glyph glyph-name="o" unicode="o" horiz-adv-x="556" 
d="M406 200c0 154 -58 233 -133 233c-85 0 -123 -66 -123 -194c0 -133 48 -219 132 -219s124 70 124 180zM40 214c0 159 92 257 240 257c175 0 236 -130 236 -241c0 -164 -126 -248 -246 -248c-161 0 -230 110 -230 232z" />
    <glyph glyph-name="p" unicode="p" horiz-adv-x="611" 
d="M28 398v29l3 3c14 0 96 11 164 41l11 -9c-4 -37 -5 -54 -5 -92l75 69c25 23 70 32 107 32c85 0 176 -62 176 -207c0 -78 -37 -153 -72 -181c-15 -12 -43 -28 -64 -43c-18 -13 -42 -32 -59 -43s-51 -15 -70 -15c-32 0 -72 8 -90 27v-111c0 -82 0 -116 8 -125
c5 -6 27 -10 65 -10l3 -3v-29l-3 -3c-38 2 -79 5 -126 5c-41 0 -82 -3 -126 -5l-3 3v29l3 3c44 0 66 4 71 10c8 9 8 43 8 125v385c0 87 0 103 -10 108c-9 4 -54 4 -63 4zM459 233c0 87 -36 160 -131 160c-64 0 -118 -51 -124 -77c-2 -8 -4 -80 -4 -156c0 -55 3 -61 16 -76
c29 -34 62 -46 108 -46c72 0 135 63 135 195z" />
    <glyph glyph-name="q" unicode="q" horiz-adv-x="611" 
d="M152 248c0 -130 74 -194 141 -194c43 0 78 25 120 74c2 79 2 159 2 237c-22 32 -67 58 -124 58c-75 0 -139 -53 -139 -175zM458 425l51 43l20 -9c-10 -40 -16 -89 -16 -131v-430c0 -82 0 -116 8 -125c5 -6 27 -10 65 -10l3 -3v-29l-3 -3c-38 0 -79 5 -126 5
c-41 0 -82 -5 -120 -5l-3 3v29l3 3c38 0 60 4 65 10c8 9 8 43 8 125v179c-36 -27 -66 -55 -99 -83c-20 -7 -41 -12 -72 -12c-98 0 -190 74 -190 233c0 100 41 156 93 187c99 59 117 69 158 69c72 0 122 -18 155 -46z" />
    <glyph glyph-name="r" unicode="r" horiz-adv-x="407" 
d="M22 398v29l3 3c20 0 102 11 167 41l14 -9c-3 -30 -6 -76 -6 -100c14 13 26 28 37 41c35 42 64 68 113 68c17 0 33 -3 44 -7l5 -6c-6 -29 -11 -84 -11 -126h-18c-12 28 -25 41 -70 41c-54 0 -96 -34 -96 -97v-111c0 -82 0 -116 8 -125c5 -6 33 -10 83 -10l3 -3v-29l-3 -3
c-44 2 -91 5 -144 5c-41 0 -82 -3 -126 -5l-3 3v29l3 3c44 0 66 4 71 10c8 9 8 43 8 125v118c0 87 0 103 -10 108c-9 4 -54 4 -69 4z" />
    <glyph glyph-name="s" unicode="s" horiz-adv-x="444" 
d="M44 4l-5 9c5 37 10 88 10 129l3 3h32l3 -3c0 -34 0 -63 9 -77c5 -8 60 -45 119 -45c61 0 103 34 103 94c0 126 -275 16 -275 208c0 72 59 149 184 149c32 0 111 -10 140 -23l8 -12c-6 -25 -6 -64 -6 -103l-3 -3h-32l-3 3c0 29 -4 53 -8 61c-6 11 -54 39 -107 39
c-49 0 -86 -27 -86 -77c0 -51 31 -61 137 -80c89 -16 138 -50 138 -124c0 -109 -97 -170 -211 -170c-61 0 -117 14 -150 22z" />
    <glyph glyph-name="t" unicode="t" horiz-adv-x="333" 
d="M14 376v19l3 4c23 10 48 22 75 36c0 51 0 103 -3 154c34 10 69 28 100 48l14 -12c-11 -64 -11 -128 -11 -192c42 0 106 0 127 4l5 -5l-8 -53l-4 -3c-17 0 -37 1 -58 1s-42 -1 -63 -1c0 -79 -1 -147 -1 -236c0 -67 25 -86 69 -86c23 0 45 7 57 15l10 -14
c-23 -22 -44 -43 -60 -64c-18 -5 -44 -9 -62 -9c-74 0 -118 34 -118 125c0 107 6 199 6 271c-13 0 -45 -3 -75 -5z" />
    <glyph glyph-name="u" unicode="u" horiz-adv-x="610" 
d="M332 398v29l3 3c14 0 96 11 163 41l17 -13c-4 -36 -7 -117 -7 -244c0 -120 0 -149 5 -168c4 -15 21 -16 66 -16l3 -3v-29l-3 -3c-29 3 -61 5 -93 5c-24 0 -50 -2 -75 -5l-7 5c1 17 4 60 4 75l-83 -73c-16 -14 -37 -20 -78 -20c-85 0 -143 48 -143 144v157
c0 87 0 103 -10 108c-9 4 -54 4 -63 4l-3 3v29l3 3c14 0 96 11 164 41l16 -13c-1 -31 -7 -125 -7 -276c0 -85 29 -122 93 -122c35 0 71 17 95 43c15 16 16 18 16 178c0 89 0 105 -10 110c-9 4 -54 4 -63 4z" />
    <glyph glyph-name="v" unicode="v" horiz-adv-x="537" 
d="M346 426v29l3 3c32 -3 64 -5 96 -5c29 0 58 2 86 5l3 -3v-29l-3 -3c-36 0 -44 -2 -67 -52c-27 -60 -161 -353 -168 -382h-62c-59 141 -168 397 -186 421c-6 8 -31 13 -42 13l-3 3v29l3 3c38 -3 75 -5 112 -5c38 0 76 2 114 5l3 -3v-29l-3 -3c-24 0 -58 0 -58 -19
c0 -12 7 -34 121 -310c114 281 118 294 118 308s-13 18 -64 21z" />
    <glyph glyph-name="w" unicode="w" horiz-adv-x="796" 
d="M607 426v29l3 3c32 -3 64 -5 96 -5c29 0 58 2 86 5l3 -3v-29l-3 -3c-36 0 -44 -2 -67 -52c-59 -128 -141 -339 -151 -382h-57c-11 35 -121 309 -128 332c-48 -110 -96 -220 -144 -332h-59c-42 141 -125 404 -130 414c-6 12 -34 20 -52 20l-3 3v29l3 3c38 -3 75 -5 112 -5
c38 0 76 2 114 5l3 -3v-29l-3 -3c-24 0 -62 0 -62 -19c0 -16 4 -35 81 -285h2c13 35 142 307 150 339h38c14 -50 123 -318 133 -350h2c86 230 100 268 100 294c0 14 -13 18 -64 21z" />
    <glyph glyph-name="x" unicode="x" 
d="M11 -2v29l3 3c27 0 36 0 60 28l135 156c-34 50 -68 107 -107 149c-43 47 -59 47 -88 47l-3 3l-3 26l3 3c45 3 108 12 142 21c42 -57 86 -114 120 -170c42 54 106 139 119 165c13 -1 26 -3 39 -3c14 0 29 2 44 3l3 -3v-29l-3 -3c-31 1 -40 0 -176 -170l85 -124
c68 -99 77 -99 105 -99l3 -3v-29l-3 -3c-25 2 -48 5 -72 5c-23 0 -45 -3 -68 -5c-40 61 -78 120 -116 181c-46 -61 -92 -120 -126 -181c-16 0 -31 3 -47 3c-15 0 -31 -3 -46 -3z" />
    <glyph glyph-name="y" unicode="y" horiz-adv-x="537" 
d="M344 426v29l3 3c28 -2 58 -5 89 -5c32 0 63 3 92 5l3 -3v-29l-3 -3c-24 0 -42 -6 -58 -39c-38 -78 -129 -278 -194 -434c-80 -193 -115 -230 -184 -230c-23 0 -46 5 -67 13c9 27 15 52 20 78l14 6c20 -23 32 -29 51 -29c46 0 80 49 131 187l-184 423c-6 15 -14 21 -53 25
l-3 3v29l3 3c37 -2 77 -5 117 -5c38 0 76 3 111 5l3 -3v-29l-3 -3c-43 -5 -60 -7 -60 -27c0 -9 5 -21 122 -296c110 264 117 286 117 302c0 14 -13 21 -64 21z" />
    <glyph glyph-name="z" unicode="z" horiz-adv-x="481" 
d="M8 -2l-7 32c110 126 209 253 307 379c-21 1 -33 1 -50 1c-54 0 -144 -2 -154 -5c-20 -6 -21 -13 -30 -77l-3 -3h-26l-3 3c1 22 3 53 3 79c0 14 0 31 -1 44l9 7c90 -2 181 -5 271 -5c38 0 81 2 116 5l3 -3v-38c-111 -125 -202 -237 -298 -374c243 2 246 2 256 18
c4 6 17 67 17 76l3 3h32l3 -3c-10 -65 -15 -118 -15 -137l-6 -5c-82 3 -164 5 -303 5c-41 0 -82 -1 -120 -5z" />
    <glyph glyph-name="braceleft" unicode="{" horiz-adv-x="333" 
d="M268 727v-29l-3 -3c-66 0 -66 -3 -66 -209c0 -155 -6 -166 -89 -201v-2c83 -35 89 -46 89 -201c0 -206 0 -209 66 -209l3 -3v-29l-3 -3c-166 0 -166 72 -166 249c0 158 -4 164 -75 197c71 33 75 39 75 197c0 177 0 249 166 249z" />
    <glyph glyph-name="bar" unicode="|" horiz-adv-x="222" 
d="M72 -250v1000h78v-1000h-78z" />
    <glyph glyph-name="braceright" unicode="}" horiz-adv-x="333" 
d="M65 -159v29l3 3c66 0 66 3 66 209c0 155 6 166 89 201v2c-83 35 -89 46 -89 201c0 206 0 209 -66 209l-3 3v29l3 3c166 0 166 -72 166 -249c0 -158 4 -164 75 -197c-71 -33 -75 -39 -75 -197c0 -177 0 -249 -166 -249z" />
    <glyph glyph-name="asciitilde" unicode="~" horiz-adv-x="600" 
d="M105 175l-36 66c25 52 69 86 125 86c35 0 77 -17 115 -35s75 -35 98 -35c29 0 53 20 88 74l36 -66c-25 -52 -69 -86 -125 -86c-35 0 -76 18 -115 35s-74 35 -98 35c-29 0 -53 -20 -88 -74z" />
    <glyph glyph-name="exclamdown" unicode="&#xa1;" horiz-adv-x="296" 
d="M131 253l35 21l10 -7c4 -100 41 -392 41 -447l-92 -49h-46c0 90 15 208 52 482zM79 402c0 38 31 69 69 69s69 -31 69 -69s-31 -69 -69 -69s-69 31 -69 69z" />
    <glyph glyph-name="cent" unicode="&#xa2;" 
d="M216 102l95 306c-9 2 -18 3 -26 3c-72 0 -118 -44 -118 -132c0 -76 17 -137 49 -177zM331 471l20 67l5 3h31l2 -3l-21 -69c36 -4 72 -14 80 -23l2 -4c-10 -48 -15 -92 -18 -133l-5 -3h-22l-5 3c0 7 -5 52 -9 59c-4 8 -23 20 -45 29l-100 -325c24 -20 56 -30 92 -30
c35 0 80 13 108 32l8 -7c-7 -17 -14 -34 -19 -50c-37 -23 -95 -35 -151 -35c-22 0 -43 2 -63 8l-26 -85l-5 -4h-34l-2 3l31 98c-72 30 -122 99 -122 206c0 106 37 161 92 193c113 66 122 70 175 70h1z" />
    <glyph glyph-name="sterling" unicode="&#xa3;" 
d="M42 -18h-14c-1 12 -2 23 -2 37c0 13 1 25 3 41c21 15 42 28 62 37c17 37 27 180 27 227h-87l-4 3v38l5 4c29 -1 57 -3 85 -3c1 141 7 174 85 231c67 49 145 92 208 92c30 0 65 -10 81 -21l2 -6c-6 -38 -10 -106 -10 -138l-3 -3h-32l-3 3c-2 54 -2 60 -9 70
c-12 17 -44 31 -71 31c-61 0 -109 -57 -115 -124l-12 -135c26 0 109 0 168 3l6 -4v-41l-4 -5c-9 0 -142 5 -175 5c-11 -81 -42 -150 -106 -229c44 2 67 4 89 4c57 0 156 -10 204 -10c25 0 27 6 36 85l3 3h32l3 -3c-4 -34 -7 -84 -7 -138v-39c-11 -6 -32 -15 -52 -15
c-85 0 -225 61 -340 61z" />
    <glyph glyph-name="fraction" unicode="&#x2044;" horiz-adv-x="167" 
d="M-164 -34l431 735l5 3h57l2 -4l-431 -735l-5 -3h-57z" />
    <glyph glyph-name="yen" unicode="&#xa5;" 
d="M295 286v-82c40 0 85 0 131 3l3 -3v-42l-3 -3c-47 3 -93 3 -131 3c2 -106 5 -112 11 -119c6 -8 29 -13 57 -13l3 -3v-29l-3 -3c-37 2 -73 5 -114 5s-77 -3 -115 -5l-2 3v29l2 3c29 0 51 5 58 13c6 7 9 13 11 119c-37 0 -84 0 -131 -3l-3 3v42l3 3c47 -3 92 -3 131 -3v82
c-37 0 -84 0 -131 -3l-3 3v42l3 3c40 -3 80 -3 116 -3c-133 291 -159 305 -193 305c-3 0 -5 -1 -8 -1l-3 3v30l3 3c22 0 72 9 105 17c41 -8 96 -139 176 -329c42 83 129 277 143 329c13 -3 25 -5 40 -5c16 0 28 2 41 5v-12c-34 -44 -146 -254 -184 -345c36 0 77 0 118 3
l3 -3v-42l-3 -3c-47 3 -93 3 -131 3z" />
    <glyph glyph-name="florin" unicode="&#x192;" 
d="M72 355v42l3 3c36 -3 69 -3 102 -3c8 92 15 147 100 220c73 62 115 72 144 72c20 0 31 -4 59 -14c-9 -32 -18 -64 -22 -96l-7 -4c-21 27 -58 46 -85 46c-58 0 -71 -66 -85 -224c41 0 81 0 123 3l3 -3v-42l-3 -3c-42 3 -84 3 -127 3l-37 -353
c-18 -170 -144 -282 -240 -282c-24 0 -37 4 -52 9c12 32 18 64 20 96l13 3c17 -21 50 -40 77 -40c42 0 60 17 74 158l41 409c-32 0 -64 0 -98 -3z" />
    <glyph glyph-name="section" unicode="&#xa7;" 
d="M49 -174l-4 8c5 50 9 97 10 142l3 3h32l3 -3c0 -25 5 -80 11 -86c38 -38 66 -52 143 -52c86 0 135 54 135 107c0 159 -360 94 -360 286c0 66 37 117 91 154c-38 24 -54 54 -54 98c0 74 63 224 238 224c37 0 85 -11 124 -30l6 -8c-5 -48 -11 -96 -13 -142l-3 -3h-32l-3 3
c0 18 -4 73 -8 79c-10 15 -51 41 -112 41c-67 0 -131 -35 -131 -105c0 -149 353 -84 353 -276c0 -76 -42 -119 -88 -156c36 -25 63 -55 63 -104c0 -107 -97 -224 -259 -224c-63 0 -110 20 -145 44zM404 207c0 96 -104 100 -262 163c-32 -28 -46 -56 -46 -91
c0 -75 87 -82 266 -152c21 16 42 51 42 80z" />
    <glyph glyph-name="currency" unicode="&#xa4;" 
d="M382 509l48 49h3l39 -40v-3l-48 -48c27 -36 44 -82 44 -131s-17 -95 -44 -131l48 -48v-3l-39 -40h-3l-48 49c-37 -28 -83 -45 -132 -45s-95 17 -132 45l-48 -49h-3l-39 40v3l48 48c-27 36 -44 82 -44 131s17 95 44 131l-48 48v3l39 40h3l48 -49c37 28 83 45 132 45
s95 -17 132 -45zM396 336c0 81 -65 146 -146 146s-146 -65 -146 -146s65 -146 146 -146s146 65 146 146z" />
    <glyph glyph-name="quotesingle" unicode="'" horiz-adv-x="278" 
d="M109 434l-12 100c-6 59 -8 84 -8 100c0 39 17 55 50 55c32 0 50 -16 50 -55c0 -16 -3 -41 -9 -100l-11 -100c-4 -34 -14 -42 -30 -42c-17 0 -27 8 -30 42z" />
    <glyph glyph-name="quotedblleft" unicode="&#x201c;" 
d="M31 392l-14 15c34 94 87 176 158 256c18 6 36 15 54 26l14 -14c-47 -67 -76 -166 -89 -250c-41 -7 -82 -17 -123 -33zM235 392l-14 15c34 94 87 176 158 256c18 6 36 15 54 26l14 -14c-47 -67 -76 -166 -89 -250c-41 -7 -82 -17 -123 -33z" />
    <glyph glyph-name="guillemotleft" unicode="&#xab;" 
d="M50 235v30l187 177h4l17 -15l1 -4c-35 -50 -70 -107 -106 -173c36 -66 71 -123 106 -173l-1 -4l-17 -15h-4zM249 235v30l187 177h4l17 -15l1 -4c-35 -50 -70 -107 -106 -173c36 -66 71 -123 106 -173l-1 -4l-17 -15h-4z" />
    <glyph glyph-name="guilsinglleft" unicode="&#x2039;" horiz-adv-x="333" 
d="M56 235v30l187 177h4l17 -15l1 -4c-35 -50 -70 -107 -106 -173c36 -66 71 -123 106 -173l-1 -4l-17 -15h-4z" />
    <glyph glyph-name="guilsinglright" unicode="&#x203a;" horiz-adv-x="333" 
d="M69 427l17 15h4l187 -177v-30l-187 -177h-4l-17 15l-1 4c35 50 70 107 106 173c-36 66 -71 123 -106 173z" />
    <glyph glyph-name="endash" unicode="&#x2013;" 
d="M0 214v72h500v-72h-500z" />
    <glyph glyph-name="dagger" unicode="&#x2020;" 
d="M26 471l5 5c41 -3 98 -5 180 -5c0 116 -1 142 -11 218l4 5c14 -3 32 -5 49 -5s35 2 49 5l4 -5c-10 -76 -11 -102 -11 -218c76 0 133 2 174 5l5 -5c-3 -14 -4 -28 -5 -39c1 -11 2 -25 5 -39l-5 -5c-41 3 -98 5 -174 5c0 -133 5 -309 16 -393l-6 -5c-13 2 -34 5 -52 5
s-39 -3 -52 -5l-6 5c11 84 16 260 16 393c-82 0 -139 -2 -180 -5l-5 5c3 14 4 28 5 39c-1 11 -2 25 -5 39z" />
    <glyph glyph-name="daggerdbl" unicode="&#x2021;" 
d="M27 491l6 6c56 -8 116 -9 175 -9c0 49 -2 104 -14 201l7 5c15 -2 34 -5 49 -5s34 3 49 5l7 -5c-12 -97 -14 -152 -14 -201c59 0 119 1 175 9l6 -6c-2 -14 -5 -28 -5 -39s3 -24 5 -38l-6 -6c-47 8 -116 14 -175 14c0 -87 4 -117 10 -157c-6 -40 -10 -70 -10 -157
c59 0 128 6 175 14l6 -6c-2 -14 -5 -27 -5 -38s3 -25 5 -39l-6 -6c-56 8 -116 9 -175 9c0 -49 2 -104 14 -201l-7 -5c-15 2 -34 5 -49 5s-34 -3 -49 -5l-7 5c12 97 14 152 14 201c-59 0 -119 -1 -175 -9l-6 6c2 14 5 28 5 39s-3 24 -5 38l6 6c47 -8 116 -14 175 -14
c0 87 -4 117 -10 157c6 40 10 70 10 157c-59 0 -128 -6 -175 -14l-6 6c2 14 5 27 5 38s-3 25 -5 39z" />
    <glyph glyph-name="periodcentered" unicode="&#xb7;" horiz-adv-x="250" 
d="M125 365c35 0 64 -29 64 -64s-29 -64 -64 -64s-64 29 -64 64s29 64 64 64z" />
    <glyph glyph-name="paragraph" unicode="&#xb6;" horiz-adv-x="600" 
d="M235 -106v377c-132 0 -198 88 -198 212c0 121 70 206 206 206h319v-35h-12c-49 0 -69 -20 -69 -59v-701c0 -39 20 -59 69 -59h12v-35h-161v841h-86v-841h-161v35h12c49 0 69 20 69 59zM235 319v322c-64 0 -108 -50 -108 -160c0 -112 44 -162 108 -162z" />
    <glyph glyph-name="bullet" unicode="&#x2022;" 
d="M78 345c0 95 77 172 172 172s172 -77 172 -172s-77 -172 -172 -172s-172 77 -172 172z" />
    <glyph glyph-name="quotesinglbase" unicode="&#x201a;" horiz-adv-x="278" 
d="M40 -165l-14 14c47 67 76 166 89 250c41 7 82 17 123 33l14 -15c-34 -94 -87 -176 -158 -256c-18 -6 -36 -15 -54 -26z" />
    <glyph glyph-name="quotedblbase" unicode="&#x201e;" 
d="M253 -165l-14 14c47 67 76 166 89 250c41 7 82 17 123 33l14 -15c-34 -94 -87 -176 -158 -256c-18 -6 -36 -15 -54 -26zM49 -165l-14 14c47 67 76 166 89 250c41 7 82 17 123 33l14 -15c-34 -94 -87 -176 -158 -256c-18 -6 -36 -15 -54 -26z" />
    <glyph glyph-name="quotedblright" unicode="&#x201d;" 
d="M259 392l-14 14c47 67 76 166 89 250c41 7 82 17 123 33l14 -15c-34 -94 -87 -176 -158 -256c-18 -6 -36 -15 -54 -26zM55 392l-14 14c47 67 76 166 89 250c41 7 82 17 123 33l14 -15c-34 -94 -87 -176 -158 -256c-18 -6 -36 -15 -54 -26z" />
    <glyph glyph-name="guillemotright" unicode="&#xbb;" 
d="M242 427l17 15h4l187 -177v-30l-187 -177h-4l-17 15l-1 4c35 50 70 107 106 173c-36 66 -71 123 -106 173zM43 427l17 15h4l187 -177v-30l-187 -177h-4l-17 15l-1 4c35 50 70 107 106 173c-36 66 -71 123 -106 173z" />
    <glyph glyph-name="ellipsis" unicode="&#x2026;" horiz-adv-x="1000" 
d="M98 58c0 38 31 69 69 69s69 -31 69 -69s-31 -69 -69 -69s-69 31 -69 69zM431 58c0 38 31 69 69 69s69 -31 69 -69s-31 -69 -69 -69s-69 31 -69 69zM764 58c0 38 31 69 69 69s69 -31 69 -69s-31 -69 -69 -69s-69 31 -69 69z" />
    <glyph glyph-name="perthousand" unicode="&#x2030;" horiz-adv-x="1074" 
d="M508 178v-36c0 -93 12 -133 51 -133s51 30 51 105v36c0 93 -12 133 -51 133s-51 -30 -51 -105zM433 127v30c0 100 55 153 126 153c79 0 126 -53 126 -145v-17c0 -113 -65 -167 -126 -166c-73 -1 -126 53 -126 145zM755 127v30c0 100 55 153 126 153
c79 0 126 -53 126 -145v-17c0 -113 -65 -167 -126 -166c-73 -1 -126 53 -126 145zM830 178v-36c0 -93 12 -133 51 -133s51 30 51 105v36c0 93 -12 133 -51 133s-51 -30 -51 -105zM142 551v-36c0 -93 12 -133 51 -133s51 30 51 105v36c0 93 -12 133 -51 133s-51 -30 -51 -105
zM67 500v30c0 100 55 153 126 153c79 0 126 -53 126 -145v-17c0 -113 -65 -167 -126 -166c-73 -1 -126 53 -126 145zM147 -34l407 734l5 4h40l2 -4l-407 -734l-5 -4h-40z" />
    <glyph glyph-name="questiondown" unicode="&#xbf;" horiz-adv-x="444" 
d="M245 245l29 15l5 -1c17 -23 22 -39 22 -64c0 -100 -134 -152 -134 -254c0 -57 48 -97 100 -97c47 0 68 9 78 18c3 3 28 40 38 77l4 3l30 -5l3 -3c-4 -13 -31 -107 -31 -122c-30 -28 -91 -59 -153 -59c-95 0 -183 53 -183 156c0 161 202 203 202 295c0 15 -6 28 -11 36z
M188 402c0 38 31 69 69 69s69 -31 69 -69s-31 -69 -69 -69s-69 31 -69 69z" />
    <glyph glyph-name="grave" unicode="`" horiz-adv-x="278" 
d="M259 540h-44c-185 96 -190 100 -190 130c0 20 16 37 43 37s42 -8 191 -162v-5z" />
    <glyph glyph-name="acute" unicode="&#xb4;" horiz-adv-x="278" 
d="M63 540h-44v5c149 154 164 162 191 162s43 -17 43 -37c0 -30 -5 -34 -190 -130z" />
    <glyph glyph-name="circumflex" unicode="&#x2c6;" horiz-adv-x="278" 
d="M-20 538l127 169h64l127 -169h-47c-34 33 -71 66 -112 101c-41 -35 -78 -68 -112 -101h-47z" />
    <glyph glyph-name="tilde" unicode="&#x2dc;" horiz-adv-x="278" 
d="M-14 575h-32c5 32 20 60 41 81s49 33 75 33c39 0 134 -42 168 -42c26 0 46 19 54 42h32c-10 -63 -60 -114 -116 -114c-39 0 -134 42 -168 42c-26 0 -46 -19 -54 -42z" />
    <glyph glyph-name="macron" unicode="&#xaf;" horiz-adv-x="278" 
d="M-14 597v60h306v-60h-306z" />
    <glyph glyph-name="breve" unicode="&#x2d8;" horiz-adv-x="278" 
d="M-9 707h26c0 -27 23 -96 122 -96c87 0 122 79 122 96h26c0 -67 -43 -164 -148 -164c-120 0 -148 97 -148 164z" />
    <glyph glyph-name="dotaccent" unicode="&#x2d9;" horiz-adv-x="278" 
d="M75 625c0 35 29 64 64 64s64 -29 64 -64s-29 -64 -64 -64s-64 29 -64 64z" />
    <glyph glyph-name="dieresis" unicode="&#xa8;" horiz-adv-x="278" 
d="M185 625c0 35 29 64 64 64s64 -29 64 -64s-29 -64 -64 -64s-64 29 -64 64zM-35 625c0 35 29 64 64 64s64 -29 64 -64s-29 -64 -64 -64s-64 29 -64 64z" />
    <glyph glyph-name="ring" unicode="&#x2da;" horiz-adv-x="278" 
d="M35 626c0 57 47 104 104 104s104 -47 104 -104s-47 -104 -104 -104s-104 47 -104 104zM201 626c0 34 -28 62 -62 62s-62 -28 -62 -62s28 -62 62 -62s62 28 62 62z" />
    <glyph glyph-name="cedilla" unicode="&#xb8;" horiz-adv-x="278" 
d="M79 -101l42 96h38l-28 -64c14 2 24 4 35 4c61 0 98 -35 98 -72c0 -47 -61 -87 -132 -87c-56 0 -103 16 -127 28l-1 5l15 29l5 2c21 -13 51 -26 75 -26c42 0 69 19 69 43c0 27 -28 40 -52 40c-9 0 -18 -1 -26 -5z" />
    <glyph glyph-name="hungarumlaut" unicode="&#x2dd;" horiz-adv-x="278" 
d="M-44 540h-44v5c149 154 164 162 191 162s43 -17 43 -37c0 -30 -5 -34 -190 -130zM176 540h-44v5c149 154 164 162 191 162s43 -17 43 -37c0 -30 -5 -34 -190 -130z" />
    <glyph glyph-name="ogonek" unicode="&#x2db;" horiz-adv-x="278" 
d="M156 3h60c-60 -33 -84 -62 -84 -108c0 -48 25 -75 61 -75c26 0 41 4 59 15l6 -2l6 -18l-3 -8c-23 -18 -54 -29 -97 -29c-58 0 -112 40 -112 110c0 66 54 102 104 115z" />
    <glyph glyph-name="caron" unicode="&#x2c7;" horiz-adv-x="278" 
d="M107 538l-127 169h47c34 -33 71 -66 112 -101c41 35 78 68 112 101h47l-127 -169h-64z" />
    <glyph glyph-name="emdash" unicode="&#x2014;" horiz-adv-x="1000" 
d="M0 214v72h1000v-72h-1000z" />
    <glyph glyph-name="AE" unicode="&#xc6;" horiz-adv-x="1019" 
d="M516 225h-265c-81 -142 -87 -154 -87 -170c0 -18 25 -25 80 -25l3 -3v-29l-3 -3c-37 3 -73 5 -110 5c-40 0 -80 -2 -120 -5l-3 3v29l3 3c44 0 61 12 74 32c9 14 346 545 346 576c0 21 -59 21 -106 21l-3 3v29l3 3c24 -3 139 -5 240 -5c182 0 309 3 374 5l6 -5
c-5 -52 -9 -105 -12 -154l-3 -3h-29l-3 3c0 20 0 83 -9 91c-10 9 -94 16 -167 16c-38 0 -74 -3 -94 -4c-5 -88 -5 -174 -5 -260c38 -1 79 -2 114 -2c52 0 86 3 92 14c9 16 13 53 13 69l3 3h26l3 -3c0 -39 -2 -79 -2 -119c0 -27 2 -67 2 -102l-3 -3h-26l-3 3
c0 15 -7 54 -14 72c-5 13 -38 18 -120 18c-31 0 -57 -1 -85 -2c0 -93 0 -187 2 -279c47 0 253 0 275 13c12 7 26 88 26 103l3 3h32l3 -3c-4 -42 -9 -108 -11 -163l-8 -5c-66 2 -137 3 -206 4c-68 1 -134 1 -190 1c-24 0 -51 -1 -86 -5l-3 3v19l4 5c33 15 40 20 42 26
c6 19 7 117 7 177zM516 273v337c0 20 -5 24 -11 24c-5 0 -7 -2 -17 -18l-211 -343h239z" />
    <glyph glyph-name="ordfeminine" unicode="&#xaa;" horiz-adv-x="333" 
d="M45 608l4 37c62 38 78 44 113 44c57 0 114 -22 114 -87c0 -40 -1 -69 -1 -90c0 -55 0 -73 2 -77c4 -8 13 -9 36 -9l2 -2v-21l-2 -2c-16 2 -33 5 -54 5c-18 0 -37 -3 -53 -5l-4 3c1 18 3 34 3 48c-68 -40 -59 -58 -108 -58c-53 0 -79 31 -79 74c0 59 18 73 187 106
c0 23 -7 67 -74 67c-22 0 -47 -6 -51 -10c-3 -3 -11 -23 -12 -28l-3 -1l-18 4zM205 482v65c-105 -20 -113 -36 -113 -64c0 -29 19 -41 40 -41c23 0 44 13 73 40z" />
    <glyph glyph-name="Lslash" unicode="&#x141;" horiz-adv-x="611" 
d="M25 222l-20 29l1 5l114 70c1 16 1 42 1 69c0 232 -3 241 -14 251c-9 8 -39 13 -77 13l-3 3v29l3 3c50 -2 98 -5 146 -5s96 3 146 5l3 -3v-29l-3 -3c-38 0 -68 -5 -77 -13c-11 -10 -14 -19 -14 -253l135 82l3 -1l20 -29l-1 -5l-157 -95v-19c0 -93 0 -187 2 -279
c53 0 266 0 282 18c9 10 19 48 29 106l3 3h32l3 -3c-4 -46 -9 -114 -15 -173l-7 -3c-70 2 -142 3 -211 4s-134 1 -192 1c-24 0 -51 -1 -86 -5l-3 3v20l3 3c34 16 41 21 43 27c2 7 5 16 6 229l-92 -56z" />
    <glyph glyph-name="Oslash" unicode="&#xd8;" horiz-adv-x="833" 
d="M622 537l-381 -413c47 -60 113 -94 188 -94c163 0 242 136 242 298c0 91 -19 160 -49 209zM217 160l380 412c-54 64 -128 87 -188 87c-141 0 -247 -107 -247 -273c0 -90 20 -167 55 -226zM660 641l83 89h3l27 -27v-3l-80 -86c60 -57 96 -140 96 -252
c0 -210 -160 -380 -388 -380c-100 0 -175 27 -228 69l-83 -90h-3l-27 27v3l82 88c-72 73 -98 177 -98 271c0 224 167 357 382 357c90 0 172 -22 234 -66z" />
    <glyph glyph-name="OE" unicode="&#x152;" horiz-adv-x="1037" 
d="M950 166h32l3 -3c-4 -42 -9 -108 -11 -163l-8 -5c-49 2 -104 3 -169 4s-141 1 -233 1c-28 0 -58 -4 -88 -9s-61 -9 -95 -9c-196 0 -337 138 -337 371c0 218 147 350 362 350c33 0 60 -2 93 -7c29 -4 60 -7 90 -7c179 0 306 3 371 5l6 -5c-5 -52 -9 -105 -12 -154l-3 -3
h-29l-3 3c0 20 0 83 -9 91c-10 9 -94 15 -167 15c-38 0 -74 -2 -96 -4c-5 -87 -5 -173 -5 -259c40 -1 81 -2 116 -2c52 0 86 3 92 14c9 16 13 53 13 69l3 3h26l3 -3c0 -39 -2 -79 -2 -119c0 -27 2 -67 2 -102l-3 -3h-26l-3 3c0 15 -7 54 -14 72c-5 13 -38 18 -120 18
c-31 0 -57 -1 -87 -2c0 -93 0 -187 2 -279c49 0 255 0 277 13c12 7 26 88 26 103zM532 338c0 106 -1 252 -7 285c-30 19 -70 32 -126 32c-111 0 -233 -76 -233 -291c0 -196 89 -334 242 -334c46 0 63 4 114 18c7 34 10 168 10 290z" />
    <glyph glyph-name="ordmasculine" unicode="&#xba;" horiz-adv-x="333" 
d="M241 526c0 88 -37 135 -78 135c-48 0 -71 -39 -71 -112c0 -76 30 -127 77 -127s72 41 72 104zM12 534c0 96 60 155 156 155c114 0 153 -78 153 -145c0 -98 -81 -150 -159 -150c-105 0 -150 67 -150 140z" />
    <glyph glyph-name="ae" unicode="&#xe6;" horiz-adv-x="778" 
d="M716 86l12 -9c-8 -16 -16 -33 -22 -49c-31 -20 -92 -46 -167 -46c-94 0 -159 39 -198 106c-29 -20 -70 -52 -115 -90c-12 -9 -31 -16 -65 -16c-81 0 -121 50 -121 122c0 93 27 116 287 171c0 48 -11 124 -113 124c-34 0 -73 -13 -79 -19c-5 -5 -20 -43 -22 -52l-5 -2
l-22 7l-3 4l4 62c96 62 120 72 164 72c62 0 108 -19 147 -64c26 31 92 64 146 64c193 0 193 -152 193 -216l-3 -5c-59 -18 -110 -18 -165 -18h-149c5 -107 55 -190 175 -190c29 0 69 10 121 44zM327 122v118c-170 -38 -183 -65 -183 -111c0 -50 30 -75 71 -75
c35 0 67 22 112 68zM527 433c-96 0 -110 -114 -110 -159c52 -3 90 -4 128 -4c37 0 70 1 88 4c0 83 -20 159 -106 159z" />
    <glyph glyph-name="dotlessi" unicode="&#x131;" horiz-adv-x="296" 
d="M22 398v29l3 3c14 0 96 11 164 41l14 -9c-4 -37 -5 -98 -5 -136v-161c0 -82 0 -116 8 -125c5 -6 27 -10 65 -10l3 -3v-29l-3 -3c-38 2 -79 5 -126 5c-41 0 -82 -3 -120 -5l-3 3v29l3 3c38 0 60 4 65 10c8 9 8 43 8 125v118c0 87 0 103 -10 108c-9 4 -54 4 -63 4z" />
    <glyph glyph-name="lslash" unicode="&#x142;" horiz-adv-x="296" 
d="M98 392v150c0 87 0 103 -10 108c-9 4 -54 4 -63 4l-3 3v29l3 3c14 0 96 11 164 41l14 -9c-4 -37 -5 -98 -5 -136v-130l77 48h3l18 -29v-3l-98 -61v-245c0 -82 0 -116 8 -125c5 -6 27 -10 65 -10l3 -3v-29l-3 -3c-38 2 -79 5 -126 5c-41 0 -82 -3 -120 -5l-3 3v29l3 3
c38 0 60 4 65 10c8 9 8 43 8 125v182l-71 -45h-3l-18 29v3z" />
    <glyph glyph-name="oslash" unicode="&#xf8;" horiz-adv-x="556" 
d="M391 318l-218 -215c22 -53 59 -83 109 -83c84 0 124 70 124 180c0 46 -5 86 -15 118zM162 139l216 214c-24 54 -61 80 -105 80c-85 0 -123 -66 -123 -194c0 -37 4 -71 12 -100zM441 416l54 55h3l21 -22v-3l-55 -55c37 -45 52 -105 52 -161c0 -164 -126 -248 -246 -248
c-72 0 -125 22 -161 57l-63 -62h-3l-20 20v3l63 64c-32 41 -46 94 -46 150c0 159 92 257 240 257c72 0 124 -21 161 -55z" />
    <glyph glyph-name="oe" unicode="&#x153;" horiz-adv-x="852" 
d="M150 239c0 -133 48 -219 132 -219c78 0 118 70 118 180c0 154 -68 233 -131 233c-74 0 -119 -66 -119 -194zM603 433c-96 0 -110 -114 -110 -159c52 -3 90 -4 128 -4c37 0 70 1 88 4c0 83 -20 159 -106 159zM792 86l12 -9c-8 -16 -16 -33 -22 -49
c-31 -20 -92 -46 -167 -46c-72 0 -129 18 -173 71c-53 -50 -108 -71 -172 -71c-161 0 -230 110 -230 232c0 159 92 257 240 257c81 0 137 -27 173 -77c44 52 120 77 167 77c193 0 193 -152 193 -216l-3 -5c-59 -18 -110 -18 -165 -18h-149c5 -107 55 -190 175 -190
c29 0 69 10 121 44z" />
    <glyph glyph-name="germandbls" unicode="&#xdf;" horiz-adv-x="593" 
d="M293 116l32 5c0 -19 0 -50 2 -58s34 -25 63 -25c31 0 76 17 76 68c0 100 -187 111 -187 213c0 56 74 143 138 143c9 0 17 -1 25 -2c6 24 11 46 11 78c0 85 -48 140 -123 140c-85 0 -126 -64 -126 -168v-345c0 -82 0 -116 8 -125c6 -7 32 -10 69 -10c5 29 10 57 12 86z
M28 401l68 35c4 2 6 10 6 24c0 52 11 115 43 150c73 81 128 120 213 120c100 0 163 -61 163 -151c0 -47 -29 -154 -41 -193l-8 -4c-16 14 -44 28 -61 28c-37 0 -57 -22 -57 -44c0 -68 192 -61 192 -211c0 -42 -11 -62 -23 -80c-12 -19 -70 -72 -103 -82
c-14 -4 -28 -7 -44 -7c-31 0 -65 7 -87 23v-11l-3 -3c-43 2 -89 5 -135 5c-41 0 -82 -3 -126 -5l-3 3v29l3 3c44 0 66 4 71 10c8 9 8 43 8 125c0 165 -1 202 -1 218c-8 0 -50 -4 -74 -6l-3 3v17z" />
    <glyph glyph-name="onesuperior" unicode="&#xb9;" horiz-adv-x="333" 
d="M62 265v17l3 3c39 0 59 3 64 8c7 7 9 11 9 146c0 151 0 176 -4 176c-11 0 -80 -34 -97 -45l-5 2l-6 46c58 19 121 39 182 65l14 -9c-4 -34 -4 -145 -4 -231c0 -139 2 -143 9 -150c5 -5 25 -8 64 -8l3 -3v-17l-3 -3c-36 2 -73 5 -113 5c-39 0 -76 -3 -113 -5z" />
    <glyph glyph-name="logicalnot" unicode="&#xac;" horiz-adv-x="600" 
d="M47 310v78h506v-280h-78v202h-428z" />
    <glyph glyph-name="mu" unicode="&#xb5;" horiz-adv-x="610" 
d="M332 398v29l3 3c14 0 96 11 163 41l17 -13c-4 -36 -7 -117 -7 -244c0 -120 0 -149 5 -168c4 -15 21 -16 66 -16l3 -3v-29l-3 -3c-29 3 -61 5 -93 5c-24 0 -50 -2 -75 -5l-7 5c1 17 4 60 4 75l-83 -73c-16 -14 -37 -20 -78 -20c-19 0 -40 10 -53 18c0 -116 1 -142 11 -267
l-4 -5c-14 3 -32 5 -52 5s-38 -2 -52 -5l-4 5c10 125 11 151 11 267v327c0 43 0 59 -10 64c-9 4 -54 4 -63 4l-3 3v29l3 3c14 0 96 11 164 41l16 -13c-1 -31 -7 -125 -7 -276c0 -85 29 -122 93 -122c35 0 71 17 95 43c15 16 16 18 16 178c0 89 0 105 -10 110
c-9 4 -54 4 -63 4z" />
    <glyph glyph-name="trademark" unicode="&#x2122;" horiz-adv-x="1000" 
d="M101 285v24c33 0 49 0 49 35v315h-86c-25 0 -25 -28 -25 -60h-24v90h348v-90h-24c0 32 0 60 -25 60h-86v-315c0 -35 16 -35 49 -35v-24h-176zM769 285v24c33 0 49 0 49 35v225h-2l-145 -284h-17l-144 294h-2v-235c0 -35 13 -35 46 -35v-24h-130v24c33 0 46 0 46 35v273
c0 48 -26 48 -61 48v24h133l139 -290l153 290h117v-24c-39 0 -55 0 -55 -35v-286c0 -35 16 -35 49 -35v-24h-176z" />
    <glyph glyph-name="Eth" unicode="&#xd0;" horiz-adv-x="796" 
d="M27 338v36l3 3h91c0 250 -3 259 -14 269c-9 8 -39 13 -77 13l-3 3v29l3 3c50 -2 98 -5 146 -5c52 0 102 5 162 5c256 0 408 -90 408 -324c0 -168 -116 -375 -400 -375c-77 0 -131 5 -189 5c-24 0 -51 -1 -86 -5l-3 3v22c37 17 44 22 46 28c3 8 6 18 7 287h-91zM428 335
h-197c0 -151 2 -222 4 -284c30 -7 55 -8 92 -8c196 0 301 110 301 317c0 180 -102 286 -281 286c-54 0 -82 -3 -112 -8c-2 -60 -4 -133 -4 -261h197l3 -3v-36z" />
    <glyph glyph-name="onehalf" unicode="&#xbd;" horiz-adv-x="814" 
d="M502 -1v22c172 160 201 199 201 259c0 43 -22 77 -79 77c-32 0 -56 -12 -65 -24c-4 -5 -14 -38 -14 -43l-3 -3h-19l-3 3c5 24 9 69 9 87c30 26 70 39 115 39c90 0 145 -40 145 -110c0 -62 -26 -103 -193 -241l1 -2c62 0 130 0 198 4l4 -4c-2 -14 -3 -29 -3 -40
c0 -7 1 -15 4 -23l-5 -5c-54 2 -109 5 -163 5c-43 0 -85 -3 -127 -5zM62 265v17l3 3c39 0 59 3 64 8c7 7 9 11 9 146c0 151 0 176 -4 176c-11 0 -80 -34 -97 -45l-5 2l-6 46c58 19 121 39 182 65l14 -9c-4 -34 -4 -145 -4 -231c0 -139 2 -143 9 -150c5 -5 25 -8 64 -8l3 -3
v-17l-3 -3c-36 2 -73 5 -113 5c-39 0 -76 -3 -113 -5zM171 -34l431 735l5 3h57l2 -4l-431 -735l-5 -3h-57z" />
    <glyph glyph-name="plusminus" unicode="&#xb1;" horiz-adv-x="600" 
d="M261 357v149h78v-149h214v-78h-214v-149h-78v149h-214v78h214zM47 0v78h506v-78h-506z" />
    <glyph glyph-name="Thorn" unicode="&#xde;" horiz-adv-x="611" 
d="M277 212l9 9c12 -4 27 -8 44 -8c86 0 150 50 150 152c0 90 -64 132 -159 132c-29 0 -63 -5 -90 -12v-191c0 -232 3 -241 14 -251c9 -8 39 -13 78 -13l3 -3v-29l-3 -3c-51 2 -99 5 -147 5s-96 -3 -146 -5l-3 3v29l3 3c38 0 68 5 77 13c11 10 14 19 14 251v101
c0 232 -3 241 -14 251c-9 8 -39 13 -77 13l-3 3v29l3 3c50 -2 98 -5 146 -5s96 3 146 5l3 -3v-29l-3 -3c-38 0 -68 -5 -77 -13c-14 -12 -14 -78 -14 -105c52 2 87 4 121 4c144 0 242 -28 242 -164c0 -128 -102 -210 -234 -210c-32 0 -55 4 -70 7z" />
    <glyph glyph-name="onequarter" unicode="&#xbc;" horiz-adv-x="814" 
d="M492 95l-7 30c49 90 103 185 170 270c20 6 40 14 66 23l16 -6c-3 -39 -3 -174 -3 -260c14 0 39 0 60 1l2 -3c-1 -9 -2 -16 -2 -24c0 -6 1 -14 2 -29l-2 -2c-9 0 -38 2 -60 2c0 -18 0 -67 4 -71c5 -5 25 -8 59 -8l3 -3v-17l-3 -3c-38 2 -76 5 -116 5c-35 0 -66 -3 -98 -5
l-3 3v17l3 3c36 0 64 3 69 8c4 4 4 53 4 71c-34 0 -64 1 -97 1c-27 0 -45 -2 -67 -3zM542 152h114c0 67 2 136 2 191h-2c-40 -63 -84 -133 -114 -191zM171 -34l431 735l5 3h57l2 -4l-431 -735l-5 -3h-57zM62 265v17l3 3c39 0 59 3 64 8c7 7 9 11 9 146c0 151 0 176 -4 176
c-11 0 -80 -34 -97 -45l-5 2l-6 46c58 19 121 39 182 65l14 -9c-4 -34 -4 -145 -4 -231c0 -139 2 -143 9 -150c5 -5 25 -8 64 -8l3 -3v-17l-3 -3c-36 2 -73 5 -113 5c-39 0 -76 -3 -113 -5z" />
    <glyph glyph-name="divide" unicode="&#xf7;" horiz-adv-x="600" 
d="M47 214v78h506v-78h-506zM231 57c0 38 31 69 69 69s69 -31 69 -69s-31 -69 -69 -69s-69 31 -69 69zM231 449c0 38 31 69 69 69s69 -31 69 -69s-31 -69 -69 -69s-69 31 -69 69z" />
    <glyph glyph-name="brokenbar" unicode="&#xa6;" horiz-adv-x="222" 
d="M72 -175v350h78v-350h-78zM72 325v350h78v-350h-78z" />
    <glyph glyph-name="degree" unicode="&#xb0;" horiz-adv-x="400" 
d="M57 540c0 79 64 143 143 143s143 -64 143 -143s-64 -143 -143 -143s-143 64 -143 143zM287 540c0 48 -39 87 -87 87s-87 -39 -87 -87s39 -87 87 -87s87 39 87 87z" />
    <glyph glyph-name="thorn" unicode="&#xfe;" horiz-adv-x="611" 
d="M28 657v29l3 3c14 0 96 11 164 41l14 -9c-5 -18 -5 -77 -5 -347l72 65c25 23 70 32 107 32c85 0 176 -62 176 -207c0 -78 -37 -153 -72 -181c-15 -12 -43 -28 -64 -43c-18 -13 -42 -32 -59 -43s-51 -15 -70 -15c-32 0 -72 8 -90 27v-111c0 -82 0 -116 8 -125
c5 -6 27 -10 65 -10l3 -3v-29l-3 -3c-38 2 -79 5 -126 5c-41 0 -82 -3 -126 -5l-3 3v29l3 3c44 0 66 4 71 10c8 9 8 43 8 125v267v377c0 42 -3 102 -8 105c-7 4 -40 7 -65 7zM459 233c0 87 -36 160 -131 160c-64 0 -118 -51 -124 -77c-2 -8 -4 -80 -4 -156
c0 -55 3 -61 16 -76c29 -34 62 -46 108 -46c72 0 135 63 135 195z" />
    <glyph glyph-name="threequarters" unicode="&#xbe;" horiz-adv-x="814" 
d="M492 95l-7 30c49 90 103 185 170 270c20 6 40 14 66 23l16 -6c-3 -39 -3 -174 -3 -260c14 0 39 0 60 1l2 -3c-1 -9 -2 -16 -2 -24c0 -6 1 -14 2 -29l-2 -2c-9 0 -38 2 -60 2c0 -18 0 -67 4 -71c5 -5 25 -8 59 -8l3 -3v-17l-3 -3c-38 2 -76 5 -116 5c-35 0 -66 -3 -98 -5
l-3 3v17l3 3c36 0 64 3 69 8c4 4 4 53 4 71c-34 0 -64 1 -97 1c-27 0 -45 -2 -67 -3zM542 152h114c0 67 2 136 2 191h-2c-40 -63 -84 -133 -114 -191zM183 -34l431 735l5 3h57l2 -4l-431 -735l-5 -3h-57zM104 456l10 44c7 0 17 -1 27 -1c43 0 80 20 80 63
c0 36 -27 62 -71 62c-35 0 -63 -17 -68 -24c-7 -9 -13 -25 -16 -33l-4 -3h-20l-3 4c9 30 15 57 20 83c32 20 65 32 108 32c66 0 123 -27 123 -91c0 -41 -29 -76 -71 -97v-2c50 -2 101 -29 101 -88c0 -85 -99 -146 -186 -146c-41 0 -67 5 -92 15c-5 30 -12 59 -21 86l2 3
l18 5l4 -2c26 -51 52 -69 104 -69c55 0 88 33 88 78c0 50 -33 80 -86 80c-12 0 -28 -2 -39 -7z" />
    <glyph glyph-name="twosuperior" unicode="&#xb2;" horiz-adv-x="333" 
d="M8 266v22c172 160 201 199 201 259c0 43 -22 77 -79 77c-32 0 -56 -12 -65 -24c-4 -5 -14 -38 -14 -43l-3 -3h-19l-3 3c5 24 9 69 9 87c30 26 70 39 115 39c90 0 145 -40 145 -110c0 -62 -26 -103 -193 -241l1 -2c62 0 130 0 198 4l4 -4c-2 -14 -3 -29 -3 -40
c0 -7 1 -15 4 -23l-5 -5c-54 2 -109 5 -163 5c-43 0 -85 -3 -127 -5z" />
    <glyph glyph-name="registered" unicode="&#xae;" horiz-adv-x="800" 
d="M354 511v-163h38c41 0 75 23 75 89c0 58 -31 74 -76 74h-37zM224 516v24h189c86 0 132 -31 132 -102c0 -49 -33 -87 -80 -102c86 -146 97 -159 124 -159v-24h-79c-16 0 -33 7 -122 166h-40v-100c0 -32 12 -42 46 -42v-24h-170v24c34 0 46 10 46 42v255
c0 32 -12 42 -46 42zM103 345c0 -165 133 -303 297 -303s297 138 297 303s-133 302 -297 302s-297 -137 -297 -302zM37 345c0 200 163 362 363 362s363 -162 363 -362s-163 -363 -363 -363s-363 163 -363 363z" />
    <glyph glyph-name="minus" unicode="&#x2212;" horiz-adv-x="600" 
d="M47 214v78h506v-78h-506z" />
    <glyph glyph-name="eth" unicode="&#xf0;" horiz-adv-x="556" 
d="M406 200c0 154 -58 233 -133 233c-85 0 -123 -66 -123 -194c0 -133 48 -219 132 -219s124 70 124 180zM88 516l-22 30l1 5l156 65c-43 35 -91 62 -138 78v4l37 32h3c56 -24 109 -54 157 -89l154 64l5 -1l21 -29l-1 -5l-140 -59c114 -94 195 -220 195 -361
c0 -184 -126 -268 -246 -268c-161 0 -230 110 -230 232c0 204 154 257 240 257c29 0 59 -8 85 -30l2 2c-27 52 -65 101 -108 142l-166 -70z" />
    <glyph glyph-name="multiply" unicode="&#xd7;" horiz-adv-x="600" 
d="M300 304l178 178l51 -51l-178 -178l178 -178l-51 -51l-178 178l-178 -178l-51 51l178 178l-178 178l51 51z" />
    <glyph glyph-name="threesuperior" unicode="&#xb3;" horiz-adv-x="333" 
d="M92 456l10 44c7 0 17 -1 27 -1c43 0 80 20 80 63c0 36 -27 62 -71 62c-35 0 -63 -17 -68 -24c-7 -9 -13 -25 -16 -33l-4 -3h-20l-3 4c9 30 15 57 20 83c32 20 65 32 108 32c66 0 123 -27 123 -91c0 -41 -29 -76 -71 -97v-2c50 -2 101 -29 101 -88
c0 -85 -99 -146 -186 -146c-41 0 -67 5 -92 15c-5 30 -12 59 -21 86l2 3l18 5l4 -2c26 -51 52 -69 104 -69c55 0 88 33 88 78c0 50 -33 80 -86 80c-12 0 -28 -2 -39 -7z" />
    <glyph glyph-name="copyright" unicode="&#xa9;" horiz-adv-x="800" 
d="M548 258h23l-17 -79c-3 -13 -64 -36 -133 -36c-119 0 -216 69 -216 210c0 125 93 205 213 205c72 0 137 -30 137 -45v-71h-24c-4 38 -33 86 -103 86c-76 0 -133 -50 -133 -169c0 -101 39 -186 136 -186c61 0 97 42 117 85zM37 345c0 200 163 362 363 362
s363 -162 363 -362s-163 -363 -363 -363s-363 163 -363 363zM103 345c0 -165 133 -303 297 -303s297 138 297 303s-133 302 -297 302s-297 -137 -297 -302z" />
    <glyph glyph-name="Aacute" unicode="&#xc1;" horiz-adv-x="759" 
d="M468 -2v29l3 3c73 0 75 6 75 16c0 15 -10 39 -67 179h-264c-61 -139 -63 -154 -63 -167c0 -24 26 -25 81 -28l3 -3v-29l-3 -3c-36 2 -76 5 -115 5s-79 -3 -115 -5l-3 3v29l3 3c61 2 64 7 92 67c89 190 192 427 262 597h42c220 -520 250 -592 277 -638
c11 -19 20 -25 65 -26l3 -3v-29l-3 -3c-43 2 -89 5 -135 5s-92 -3 -135 -5zM459 273l-112 267l-112 -267h224zM324 736h-44v5c149 154 164 162 191 162s43 -17 43 -37c0 -30 -5 -34 -190 -130z" />
    <glyph glyph-name="Acircumflex" unicode="&#xc2;" horiz-adv-x="759" 
d="M468 -2v29l3 3c73 0 75 6 75 16c0 15 -10 39 -67 179h-264c-61 -139 -63 -154 -63 -167c0 -24 26 -25 81 -28l3 -3v-29l-3 -3c-36 2 -76 5 -115 5s-79 -3 -115 -5l-3 3v29l3 3c61 2 64 7 92 67c89 190 192 427 262 597h42c220 -520 250 -592 277 -638
c11 -19 20 -25 65 -26l3 -3v-29l-3 -3c-43 2 -89 5 -135 5s-92 -3 -135 -5zM459 273l-112 267l-112 -267h224zM221 734l127 169h64l127 -169h-47c-34 33 -71 66 -112 101c-41 -35 -78 -68 -112 -101h-47z" />
    <glyph glyph-name="Adieresis" unicode="&#xc4;" horiz-adv-x="759" 
d="M468 -2v29l3 3c73 0 75 6 75 16c0 15 -10 39 -67 179h-264c-61 -139 -63 -154 -63 -167c0 -24 26 -25 81 -28l3 -3v-29l-3 -3c-36 2 -76 5 -115 5s-79 -3 -115 -5l-3 3v29l3 3c61 2 64 7 92 67c89 190 192 427 262 597h42c220 -520 250 -592 277 -638
c11 -19 20 -25 65 -26l3 -3v-29l-3 -3c-43 2 -89 5 -135 5s-92 -3 -135 -5zM459 273l-112 267l-112 -267h224zM426 821c0 35 29 64 64 64s64 -29 64 -64s-29 -64 -64 -64s-64 29 -64 64zM206 821c0 35 29 64 64 64s64 -29 64 -64s-29 -64 -64 -64s-64 29 -64 64z" />
    <glyph glyph-name="Agrave" unicode="&#xc0;" horiz-adv-x="759" 
d="M468 -2v29l3 3c73 0 75 6 75 16c0 15 -10 39 -67 179h-264c-61 -139 -63 -154 -63 -167c0 -24 26 -25 81 -28l3 -3v-29l-3 -3c-36 2 -76 5 -115 5s-79 -3 -115 -5l-3 3v29l3 3c61 2 64 7 92 67c89 190 192 427 262 597h42c220 -520 250 -592 277 -638
c11 -19 20 -25 65 -26l3 -3v-29l-3 -3c-43 2 -89 5 -135 5s-92 -3 -135 -5zM459 273l-112 267l-112 -267h224zM480 736h-44c-185 96 -190 100 -190 130c0 20 16 37 43 37s42 -8 191 -162v-5z" />
    <glyph glyph-name="Aring" unicode="&#xc5;" horiz-adv-x="759" 
d="M468 -2v29l3 3c73 0 75 6 75 16c0 15 -10 39 -67 179h-264c-61 -139 -63 -154 -63 -167c0 -24 26 -25 81 -28l3 -3v-29l-3 -3c-36 2 -76 5 -115 5s-79 -3 -115 -5l-3 3v29l3 3c61 2 64 7 92 67c89 190 192 427 262 597h42c220 -520 250 -592 277 -638
c11 -19 20 -25 65 -26l3 -3v-29l-3 -3c-43 2 -89 5 -135 5s-92 -3 -135 -5zM459 273l-112 267l-112 -267h224zM276 822c0 57 47 104 104 104s104 -47 104 -104s-47 -104 -104 -104s-104 47 -104 104zM442 822c0 34 -28 62 -62 62s-62 -28 -62 -62s28 -62 62 -62s62 28 62 62
z" />
    <glyph glyph-name="Atilde" unicode="&#xc3;" horiz-adv-x="759" 
d="M468 -2v29l3 3c73 0 75 6 75 16c0 15 -10 39 -67 179h-264c-61 -139 -63 -154 -63 -167c0 -24 26 -25 81 -28l3 -3v-29l-3 -3c-36 2 -76 5 -115 5s-79 -3 -115 -5l-3 3v29l3 3c61 2 64 7 92 67c89 190 192 427 262 597h42c220 -520 250 -592 277 -638
c11 -19 20 -25 65 -26l3 -3v-29l-3 -3c-43 2 -89 5 -135 5s-92 -3 -135 -5zM459 273l-112 267l-112 -267h224zM227 771h-32c5 32 20 60 41 81s49 33 75 33c39 0 134 -42 168 -42c26 0 46 19 54 42h32c-10 -63 -60 -114 -116 -114c-39 0 -134 42 -168 42
c-26 0 -46 -19 -54 -42z" />
    <glyph glyph-name="Ccedilla" unicode="&#xc7;" horiz-adv-x="741" 
d="M370 -101l37 83c-188 9 -363 129 -363 356c0 224 151 369 401 369c83 0 189 -22 232 -37l6 -7c-14 -42 -20 -116 -19 -141l-3 -3h-32l-3 3c0 25 -3 50 -6 75c-24 29 -99 62 -188 62c-187 0 -270 -148 -270 -286c0 -182 105 -331 320 -331c59 0 133 16 189 54l12 -7
c-8 -19 -15 -38 -22 -57c-61 -29 -131 -48 -216 -50l-23 -51c14 2 24 4 35 4c61 0 98 -35 98 -72c0 -47 -61 -87 -132 -87c-56 0 -103 16 -127 28l-1 5l15 29l5 2c21 -13 51 -26 75 -26c42 0 69 19 69 43c0 27 -28 40 -52 40c-9 0 -18 -1 -26 -5z" />
    <glyph glyph-name="Eacute" unicode="&#xc9;" horiz-adv-x="630" 
d="M27 662v29l3 3c50 -2 98 -5 146 -5c185 0 312 3 377 5l6 -5c-5 -52 -9 -105 -12 -154l-3 -3h-29l-3 3c0 20 0 83 -9 91c-10 9 -94 16 -170 16c-41 0 -77 -3 -97 -4c-5 -88 -5 -174 -5 -260c38 -1 79 -2 117 -2c55 0 89 3 95 14c9 16 13 53 13 69l3 3h26l3 -3
c0 -39 -2 -79 -2 -119c0 -27 2 -67 2 -102l-3 -3h-26l-3 3c0 15 -7 54 -14 72c-5 13 -38 18 -123 18c-34 0 -60 -1 -88 -2c0 -93 0 -187 2 -279c53 0 259 0 281 13c12 7 26 88 26 103l3 3h32l3 -3c-4 -42 -9 -108 -11 -163l-8 -5c-66 2 -137 3 -207 4c-69 1 -136 1 -195 1
c-24 0 -51 -1 -86 -5l-3 3v19l4 5c33 15 40 20 42 26c3 9 7 20 7 347c0 232 -3 241 -14 251c-9 8 -39 13 -77 13zM274 736h-44v5c149 154 164 162 191 162s43 -17 43 -37c0 -30 -5 -34 -190 -130z" />
    <glyph glyph-name="Ecircumflex" unicode="&#xca;" horiz-adv-x="630" 
d="M27 662v29l3 3c50 -2 98 -5 146 -5c185 0 312 3 377 5l6 -5c-5 -52 -9 -105 -12 -154l-3 -3h-29l-3 3c0 20 0 83 -9 91c-10 9 -94 16 -170 16c-41 0 -77 -3 -97 -4c-5 -88 -5 -174 -5 -260c38 -1 79 -2 117 -2c55 0 89 3 95 14c9 16 13 53 13 69l3 3h26l3 -3
c0 -39 -2 -79 -2 -119c0 -27 2 -67 2 -102l-3 -3h-26l-3 3c0 15 -7 54 -14 72c-5 13 -38 18 -123 18c-34 0 -60 -1 -88 -2c0 -93 0 -187 2 -279c53 0 259 0 281 13c12 7 26 88 26 103l3 3h32l3 -3c-4 -42 -9 -108 -11 -163l-8 -5c-66 2 -137 3 -207 4c-69 1 -136 1 -195 1
c-24 0 -51 -1 -86 -5l-3 3v19l4 5c33 15 40 20 42 26c3 9 7 20 7 347c0 232 -3 241 -14 251c-9 8 -39 13 -77 13zM156 734l127 169h64l127 -169h-47c-34 33 -71 66 -112 101c-41 -35 -78 -68 -112 -101h-47z" />
    <glyph glyph-name="Edieresis" unicode="&#xcb;" horiz-adv-x="630" 
d="M27 662v29l3 3c50 -2 98 -5 146 -5c185 0 312 3 377 5l6 -5c-5 -52 -9 -105 -12 -154l-3 -3h-29l-3 3c0 20 0 83 -9 91c-10 9 -94 16 -170 16c-41 0 -77 -3 -97 -4c-5 -88 -5 -174 -5 -260c38 -1 79 -2 117 -2c55 0 89 3 95 14c9 16 13 53 13 69l3 3h26l3 -3
c0 -39 -2 -79 -2 -119c0 -27 2 -67 2 -102l-3 -3h-26l-3 3c0 15 -7 54 -14 72c-5 13 -38 18 -123 18c-34 0 -60 -1 -88 -2c0 -93 0 -187 2 -279c53 0 259 0 281 13c12 7 26 88 26 103l3 3h32l3 -3c-4 -42 -9 -108 -11 -163l-8 -5c-66 2 -137 3 -207 4c-69 1 -136 1 -195 1
c-24 0 -51 -1 -86 -5l-3 3v19l4 5c33 15 40 20 42 26c3 9 7 20 7 347c0 232 -3 241 -14 251c-9 8 -39 13 -77 13zM361 821c0 35 29 64 64 64s64 -29 64 -64s-29 -64 -64 -64s-64 29 -64 64zM141 821c0 35 29 64 64 64s64 -29 64 -64s-29 -64 -64 -64s-64 29 -64 64z" />
    <glyph glyph-name="Egrave" unicode="&#xc8;" horiz-adv-x="630" 
d="M27 662v29l3 3c50 -2 98 -5 146 -5c185 0 312 3 377 5l6 -5c-5 -52 -9 -105 -12 -154l-3 -3h-29l-3 3c0 20 0 83 -9 91c-10 9 -94 16 -170 16c-41 0 -77 -3 -97 -4c-5 -88 -5 -174 -5 -260c38 -1 79 -2 117 -2c55 0 89 3 95 14c9 16 13 53 13 69l3 3h26l3 -3
c0 -39 -2 -79 -2 -119c0 -27 2 -67 2 -102l-3 -3h-26l-3 3c0 15 -7 54 -14 72c-5 13 -38 18 -123 18c-34 0 -60 -1 -88 -2c0 -93 0 -187 2 -279c53 0 259 0 281 13c12 7 26 88 26 103l3 3h32l3 -3c-4 -42 -9 -108 -11 -163l-8 -5c-66 2 -137 3 -207 4c-69 1 -136 1 -195 1
c-24 0 -51 -1 -86 -5l-3 3v19l4 5c33 15 40 20 42 26c3 9 7 20 7 347c0 232 -3 241 -14 251c-9 8 -39 13 -77 13zM400 736h-44c-185 96 -190 100 -190 130c0 20 16 37 43 37s42 -8 191 -162v-5z" />
    <glyph glyph-name="Iacute" unicode="&#xcd;" horiz-adv-x="352" 
d="M27 662v29l3 3c50 -2 98 -5 146 -5s96 3 146 5l3 -3v-29l-3 -3c-38 0 -68 -5 -77 -13c-11 -10 -14 -19 -14 -251v-101c0 -232 3 -241 14 -251c9 -8 39 -13 77 -13l3 -3v-29l-3 -3c-50 2 -98 5 -146 5s-96 -3 -146 -5l-3 3v29l3 3c38 0 68 5 77 13c11 10 14 19 14 251v101
c0 232 -3 241 -14 251c-9 8 -39 13 -77 13zM135 736h-44v5c149 154 164 162 191 162s43 -17 43 -37c0 -30 -5 -34 -190 -130z" />
    <glyph glyph-name="Icircumflex" unicode="&#xce;" horiz-adv-x="352" 
d="M27 662v29l3 3c50 -2 98 -5 146 -5s96 3 146 5l3 -3v-29l-3 -3c-38 0 -68 -5 -77 -13c-11 -10 -14 -19 -14 -251v-101c0 -232 3 -241 14 -251c9 -8 39 -13 77 -13l3 -3v-29l-3 -3c-50 2 -98 5 -146 5s-96 -3 -146 -5l-3 3v29l3 3c38 0 68 5 77 13c11 10 14 19 14 251v101
c0 232 -3 241 -14 251c-9 8 -39 13 -77 13zM17 734l127 169h64l127 -169h-47c-34 33 -71 66 -112 101c-41 -35 -78 -68 -112 -101h-47z" />
    <glyph glyph-name="Idieresis" unicode="&#xcf;" horiz-adv-x="352" 
d="M27 662v29l3 3c50 -2 98 -5 146 -5s96 3 146 5l3 -3v-29l-3 -3c-38 0 -68 -5 -77 -13c-11 -10 -14 -19 -14 -251v-101c0 -232 3 -241 14 -251c9 -8 39 -13 77 -13l3 -3v-29l-3 -3c-50 2 -98 5 -146 5s-96 -3 -146 -5l-3 3v29l3 3c38 0 68 5 77 13c11 10 14 19 14 251v101
c0 232 -3 241 -14 251c-9 8 -39 13 -77 13zM222 821c0 35 29 64 64 64s64 -29 64 -64s-29 -64 -64 -64s-64 29 -64 64zM2 821c0 35 29 64 64 64s64 -29 64 -64s-29 -64 -64 -64s-64 29 -64 64z" />
    <glyph glyph-name="Igrave" unicode="&#xcc;" horiz-adv-x="352" 
d="M27 662v29l3 3c50 -2 98 -5 146 -5s96 3 146 5l3 -3v-29l-3 -3c-38 0 -68 -5 -77 -13c-11 -10 -14 -19 -14 -251v-101c0 -232 3 -241 14 -251c9 -8 39 -13 77 -13l3 -3v-29l-3 -3c-50 2 -98 5 -146 5s-96 -3 -146 -5l-3 3v29l3 3c38 0 68 5 77 13c11 10 14 19 14 251v101
c0 232 -3 241 -14 251c-9 8 -39 13 -77 13zM261 736h-44c-185 96 -190 100 -190 130c0 20 16 37 43 37s42 -8 191 -162v-5z" />
    <glyph glyph-name="Ntilde" unicode="&#xd1;" horiz-adv-x="833" 
d="M570 662v29l3 3c45 -2 89 -5 134 -5c34 0 68 3 102 5l3 -3v-29l-3 -3c-38 0 -63 -5 -75 -20c-15 -19 -16 -325 -16 -395c0 -118 4 -206 6 -262l-6 -5c-24 8 -71 16 -89 16c-75 81 -313 375 -458 562h-2v-261c0 -232 3 -241 14 -251c9 -8 39 -13 77 -13l3 -3v-29l-3 -3
c-39 2 -79 5 -118 5s-79 -3 -118 -5l-3 3v29l3 3c38 0 68 5 77 13c11 10 14 19 14 251v101c0 232 -3 241 -14 251c-9 8 -39 13 -77 13l-3 3v29l3 3c37 -2 73 -5 111 -5c31 0 52 2 75 5c36 -61 381 -484 456 -574h2c0 32 -4 138 -4 275c0 232 -3 241 -14 251
c-9 8 -39 13 -77 13zM279 771h-32c5 32 20 60 41 81s49 33 75 33c39 0 134 -42 168 -42c26 0 46 19 54 42h32c-10 -63 -60 -114 -116 -114c-39 0 -134 42 -168 42c-26 0 -46 -19 -54 -42z" />
    <glyph glyph-name="Oacute" unicode="&#xd3;" horiz-adv-x="833" 
d="M44 350c0 224 167 357 382 357c202 0 363 -109 363 -345c0 -210 -160 -380 -388 -380c-273 0 -357 199 -357 368zM671 328c0 257 -153 331 -262 331c-141 0 -247 -107 -247 -273c0 -217 116 -356 267 -356c163 0 242 136 242 298zM376 736h-44v5c149 154 164 162 191 162
s43 -17 43 -37c0 -30 -5 -34 -190 -130z" />
    <glyph glyph-name="Ocircumflex" unicode="&#xd4;" horiz-adv-x="833" 
d="M44 350c0 224 167 357 382 357c202 0 363 -109 363 -345c0 -210 -160 -380 -388 -380c-273 0 -357 199 -357 368zM671 328c0 257 -153 331 -262 331c-141 0 -247 -107 -247 -273c0 -217 116 -356 267 -356c163 0 242 136 242 298zM258 734l127 169h64l127 -169h-47
c-34 33 -71 66 -112 101c-41 -35 -78 -68 -112 -101h-47z" />
    <glyph glyph-name="Odieresis" unicode="&#xd6;" horiz-adv-x="833" 
d="M44 350c0 224 167 357 382 357c202 0 363 -109 363 -345c0 -210 -160 -380 -388 -380c-273 0 -357 199 -357 368zM671 328c0 257 -153 331 -262 331c-141 0 -247 -107 -247 -273c0 -217 116 -356 267 -356c163 0 242 136 242 298zM463 821c0 35 29 64 64 64
s64 -29 64 -64s-29 -64 -64 -64s-64 29 -64 64zM243 821c0 35 29 64 64 64s64 -29 64 -64s-29 -64 -64 -64s-64 29 -64 64z" />
    <glyph glyph-name="Ograve" unicode="&#xd2;" horiz-adv-x="833" 
d="M44 350c0 224 167 357 382 357c202 0 363 -109 363 -345c0 -210 -160 -380 -388 -380c-273 0 -357 199 -357 368zM671 328c0 257 -153 331 -262 331c-141 0 -247 -107 -247 -273c0 -217 116 -356 267 -356c163 0 242 136 242 298zM502 736h-44c-185 96 -190 100 -190 130
c0 20 16 37 43 37s42 -8 191 -162v-5z" />
    <glyph glyph-name="Otilde" unicode="&#xd5;" horiz-adv-x="833" 
d="M44 350c0 224 167 357 382 357c202 0 363 -109 363 -345c0 -210 -160 -380 -388 -380c-273 0 -357 199 -357 368zM671 328c0 257 -153 331 -262 331c-141 0 -247 -107 -247 -273c0 -217 116 -356 267 -356c163 0 242 136 242 298zM264 771h-32c5 32 20 60 41 81
s49 33 75 33c39 0 134 -42 168 -42c26 0 46 19 54 42h32c-10 -63 -60 -114 -116 -114c-39 0 -134 42 -168 42c-26 0 -46 -19 -54 -42z" />
    <glyph glyph-name="Scaron" unicode="&#x160;" horiz-adv-x="593" 
d="M64 176h32l3 -3c0 -37 0 -49 3 -67c2 -15 49 -72 161 -72c114 0 180 58 180 153c0 201 -393 24 -393 297c0 137 99 223 267 223c56 0 140 -14 189 -41l3 -7c-10 -35 -17 -107 -17 -135l-3 -3l-32 3l-3 3c0 60 0 71 -6 78c-16 18 -65 50 -141 50
c-108 0 -157 -61 -157 -132c0 -90 48 -106 212 -131c116 -17 181 -59 181 -163c0 -109 -85 -247 -304 -247c-74 0 -147 21 -186 42l-3 6c7 45 11 99 11 143zM265 734l-127 169h47c34 -33 71 -66 112 -101c41 35 78 68 112 101h47l-127 -169h-64z" />
    <glyph glyph-name="Uacute" unicode="&#xda;" horiz-adv-x="796" 
d="M538 662v29l3 3c27 -3 64 -5 112 -5c47 0 89 3 120 5l3 -3v-29l-3 -3c-38 0 -68 -5 -77 -13c-11 -10 -14 -19 -14 -251v-135c0 -187 -93 -278 -293 -278c-156 0 -275 57 -275 233v180c0 232 -3 241 -14 251c-9 8 -39 13 -77 13l-3 3v29l3 3c50 -2 98 -5 146 -5
s96 3 146 5l3 -3v-29l-3 -3c-38 0 -68 -5 -77 -13c-11 -10 -14 -19 -14 -251v-164c0 -84 41 -177 199 -177c148 0 209 66 209 200v141c0 232 -3 241 -14 251c-9 8 -39 13 -77 13zM367 736h-44v5c149 154 164 162 191 162s43 -17 43 -37c0 -30 -5 -34 -190 -130z" />
    <glyph glyph-name="Ucircumflex" unicode="&#xdb;" horiz-adv-x="796" 
d="M538 662v29l3 3c27 -3 64 -5 112 -5c47 0 89 3 120 5l3 -3v-29l-3 -3c-38 0 -68 -5 -77 -13c-11 -10 -14 -19 -14 -251v-135c0 -187 -93 -278 -293 -278c-156 0 -275 57 -275 233v180c0 232 -3 241 -14 251c-9 8 -39 13 -77 13l-3 3v29l3 3c50 -2 98 -5 146 -5
s96 3 146 5l3 -3v-29l-3 -3c-38 0 -68 -5 -77 -13c-11 -10 -14 -19 -14 -251v-164c0 -84 41 -177 199 -177c148 0 209 66 209 200v141c0 232 -3 241 -14 251c-9 8 -39 13 -77 13zM259 734l127 169h64l127 -169h-47c-34 33 -71 66 -112 101c-41 -35 -78 -68 -112 -101h-47z
" />
    <glyph glyph-name="Udieresis" unicode="&#xdc;" horiz-adv-x="796" 
d="M538 662v29l3 3c27 -3 64 -5 112 -5c47 0 89 3 120 5l3 -3v-29l-3 -3c-38 0 -68 -5 -77 -13c-11 -10 -14 -19 -14 -251v-135c0 -187 -93 -278 -293 -278c-156 0 -275 57 -275 233v180c0 232 -3 241 -14 251c-9 8 -39 13 -77 13l-3 3v29l3 3c50 -2 98 -5 146 -5
s96 3 146 5l3 -3v-29l-3 -3c-38 0 -68 -5 -77 -13c-11 -10 -14 -19 -14 -251v-164c0 -84 41 -177 199 -177c148 0 209 66 209 200v141c0 232 -3 241 -14 251c-9 8 -39 13 -77 13zM464 821c0 35 29 64 64 64s64 -29 64 -64s-29 -64 -64 -64s-64 29 -64 64zM244 821
c0 35 29 64 64 64s64 -29 64 -64s-29 -64 -64 -64s-64 29 -64 64z" />
    <glyph glyph-name="Ugrave" unicode="&#xd9;" horiz-adv-x="796" 
d="M538 662v29l3 3c27 -3 64 -5 112 -5c47 0 89 3 120 5l3 -3v-29l-3 -3c-38 0 -68 -5 -77 -13c-11 -10 -14 -19 -14 -251v-135c0 -187 -93 -278 -293 -278c-156 0 -275 57 -275 233v180c0 232 -3 241 -14 251c-9 8 -39 13 -77 13l-3 3v29l3 3c50 -2 98 -5 146 -5
s96 3 146 5l3 -3v-29l-3 -3c-38 0 -68 -5 -77 -13c-11 -10 -14 -19 -14 -251v-164c0 -84 41 -177 199 -177c148 0 209 66 209 200v141c0 232 -3 241 -14 251c-9 8 -39 13 -77 13zM518 736h-44c-185 96 -190 100 -190 130c0 20 16 37 43 37s42 -8 191 -162v-5z" />
    <glyph glyph-name="Yacute" unicode="&#xdd;" horiz-adv-x="667" 
d="M195 -2v29l3 3c38 0 68 5 77 13c11 10 14 19 14 251c-193 332 -227 347 -276 347c-4 0 -7 -1 -11 -1l-3 3v30l3 3c21 0 107 14 127 18c54 -8 128 -141 235 -333c55 84 171 280 190 333c17 -1 33 -3 50 -3s33 2 47 3l3 -3v-9c-55 -54 -261 -351 -261 -399
c0 -221 3 -230 14 -240c9 -8 39 -13 77 -13l3 -3v-29l-3 -3c-50 2 -98 5 -143 5s-93 -3 -143 -5zM303 736h-44v5c149 154 164 162 191 162s43 -17 43 -37c0 -30 -5 -34 -190 -130z" />
    <glyph glyph-name="Ydieresis" unicode="&#x178;" horiz-adv-x="667" 
d="M195 -2v29l3 3c38 0 68 5 77 13c11 10 14 19 14 251c-193 332 -227 347 -276 347c-4 0 -7 -1 -11 -1l-3 3v30l3 3c21 0 107 14 127 18c54 -8 128 -141 235 -333c55 84 171 280 190 333c17 -1 33 -3 50 -3s33 2 47 3l3 -3v-9c-55 -54 -261 -351 -261 -399
c0 -221 3 -230 14 -240c9 -8 39 -13 77 -13l3 -3v-29l-3 -3c-50 2 -98 5 -143 5s-93 -3 -143 -5zM400 821c0 35 29 64 64 64s64 -29 64 -64s-29 -64 -64 -64s-64 29 -64 64zM180 821c0 35 29 64 64 64s64 -29 64 -64s-29 -64 -64 -64s-64 29 -64 64z" />
    <glyph glyph-name="Zcaron" unicode="&#x17d;" horiz-adv-x="648" 
d="M31 -2v32c140 202 278 404 410 608c-43 2 -96 4 -137 4c-111 0 -172 -6 -188 -17c-10 -7 -17 -81 -17 -91l-3 -3h-32l-3 3c1 27 3 58 3 88c0 22 -2 45 -3 67l7 5c91 -3 181 -5 270 -5c87 0 173 2 256 5l3 -3v-32c-150 -193 -282 -408 -417 -612h186c62 0 171 9 180 16
c13 10 19 31 30 107l3 3h35l3 -3c-3 -28 -10 -122 -10 -171l-5 -4c-112 2 -225 5 -335 5c-79 0 -157 -3 -233 -5zM292 734l-127 169h47c34 -33 71 -66 112 -101c41 35 78 68 112 101h47l-127 -169h-64z" />
    <glyph glyph-name="aacute" unicode="&#xe1;" horiz-adv-x="519" 
d="M83 337l4 62c96 62 120 72 164 72c89 0 176 -36 176 -144c0 -67 -1 -116 -1 -154c0 -92 0 -121 3 -128c6 -13 20 -15 55 -15l3 -3v-29l-3 -3c-24 3 -51 5 -78 5c-24 0 -53 -2 -77 -5l-6 5c1 27 4 53 4 77c-32 -22 -92 -72 -101 -79c-12 -9 -31 -16 -65 -16
c-81 0 -121 50 -121 122c0 93 27 116 287 171c0 48 -11 124 -113 124c-34 0 -73 -13 -79 -19c-5 -5 -20 -43 -22 -52l-5 -2l-22 7zM327 122v118c-170 -38 -183 -65 -183 -111c0 -50 30 -75 71 -75c35 0 67 22 112 68zM214 540h-44v5c149 154 164 162 191 162s43 -17 43 -37
c0 -30 -5 -34 -190 -130z" />
    <glyph glyph-name="acircumflex" unicode="&#xe2;" horiz-adv-x="519" 
d="M83 337l4 62c96 62 120 72 164 72c89 0 176 -36 176 -144c0 -67 -1 -116 -1 -154c0 -92 0 -121 3 -128c6 -13 20 -15 55 -15l3 -3v-29l-3 -3c-24 3 -51 5 -78 5c-24 0 -53 -2 -77 -5l-6 5c1 27 4 53 4 77c-32 -22 -92 -72 -101 -79c-12 -9 -31 -16 -65 -16
c-81 0 -121 50 -121 122c0 93 27 116 287 171c0 48 -11 124 -113 124c-34 0 -73 -13 -79 -19c-5 -5 -20 -43 -22 -52l-5 -2l-22 7zM327 122v118c-170 -38 -183 -65 -183 -111c0 -50 30 -75 71 -75c35 0 67 22 112 68zM101 538l127 169h64l127 -169h-47
c-34 33 -71 66 -112 101c-41 -35 -78 -68 -112 -101h-47z" />
    <glyph glyph-name="adieresis" unicode="&#xe4;" horiz-adv-x="519" 
d="M83 337l4 62c96 62 120 72 164 72c89 0 176 -36 176 -144c0 -67 -1 -116 -1 -154c0 -92 0 -121 3 -128c6 -13 20 -15 55 -15l3 -3v-29l-3 -3c-24 3 -51 5 -78 5c-24 0 -53 -2 -77 -5l-6 5c1 27 4 53 4 77c-32 -22 -92 -72 -101 -79c-12 -9 -31 -16 -65 -16
c-81 0 -121 50 -121 122c0 93 27 116 287 171c0 48 -11 124 -113 124c-34 0 -73 -13 -79 -19c-5 -5 -20 -43 -22 -52l-5 -2l-22 7zM327 122v118c-170 -38 -183 -65 -183 -111c0 -50 30 -75 71 -75c35 0 67 22 112 68zM306 625c0 35 29 64 64 64s64 -29 64 -64
s-29 -64 -64 -64s-64 29 -64 64zM86 625c0 35 29 64 64 64s64 -29 64 -64s-29 -64 -64 -64s-64 29 -64 64z" />
    <glyph glyph-name="agrave" unicode="&#xe0;" horiz-adv-x="519" 
d="M83 337l4 62c96 62 120 72 164 72c89 0 176 -36 176 -144c0 -67 -1 -116 -1 -154c0 -92 0 -121 3 -128c6 -13 20 -15 55 -15l3 -3v-29l-3 -3c-24 3 -51 5 -78 5c-24 0 -53 -2 -77 -5l-6 5c1 27 4 53 4 77c-32 -22 -92 -72 -101 -79c-12 -9 -31 -16 -65 -16
c-81 0 -121 50 -121 122c0 93 27 116 287 171c0 48 -11 124 -113 124c-34 0 -73 -13 -79 -19c-5 -5 -20 -43 -22 -52l-5 -2l-22 7zM327 122v118c-170 -38 -183 -65 -183 -111c0 -50 30 -75 71 -75c35 0 67 22 112 68zM350 540h-44c-185 96 -190 100 -190 130
c0 20 16 37 43 37s42 -8 191 -162v-5z" />
    <glyph glyph-name="aring" unicode="&#xe5;" horiz-adv-x="519" 
d="M83 337l4 62c96 62 120 72 164 72c89 0 176 -36 176 -144c0 -67 -1 -116 -1 -154c0 -92 0 -121 3 -128c6 -13 20 -15 55 -15l3 -3v-29l-3 -3c-24 3 -51 5 -78 5c-24 0 -53 -2 -77 -5l-6 5c1 27 4 53 4 77c-32 -22 -92 -72 -101 -79c-12 -9 -31 -16 -65 -16
c-81 0 -121 50 -121 122c0 93 27 116 287 171c0 48 -11 124 -113 124c-34 0 -73 -13 -79 -19c-5 -5 -20 -43 -22 -52l-5 -2l-22 7zM327 122v118c-170 -38 -183 -65 -183 -111c0 -50 30 -75 71 -75c35 0 67 22 112 68zM156 626c0 57 47 104 104 104s104 -47 104 -104
s-47 -104 -104 -104s-104 47 -104 104zM322 626c0 34 -28 62 -62 62s-62 -28 -62 -62s28 -62 62 -62s62 28 62 62z" />
    <glyph glyph-name="atilde" unicode="&#xe3;" horiz-adv-x="519" 
d="M83 337l4 62c96 62 120 72 164 72c89 0 176 -36 176 -144c0 -67 -1 -116 -1 -154c0 -92 0 -121 3 -128c6 -13 20 -15 55 -15l3 -3v-29l-3 -3c-24 3 -51 5 -78 5c-24 0 -53 -2 -77 -5l-6 5c1 27 4 53 4 77c-32 -22 -92 -72 -101 -79c-12 -9 -31 -16 -65 -16
c-81 0 -121 50 -121 122c0 93 27 116 287 171c0 48 -11 124 -113 124c-34 0 -73 -13 -79 -19c-5 -5 -20 -43 -22 -52l-5 -2l-22 7zM327 122v118c-170 -38 -183 -65 -183 -111c0 -50 30 -75 71 -75c35 0 67 22 112 68zM107 575h-32c5 32 20 60 41 81s49 33 75 33
c39 0 134 -42 168 -42c26 0 46 19 54 42h32c-10 -63 -60 -114 -116 -114c-39 0 -134 42 -168 42c-26 0 -46 -19 -54 -42z" />
    <glyph glyph-name="ccedilla" unicode="&#xe7;" horiz-adv-x="463" 
d="M207 -101l37 83c-114 7 -204 83 -204 226c0 106 37 161 92 193c113 66 122 70 175 70c47 0 107 -13 117 -24l3 -6c-10 -47 -15 -91 -18 -132l-5 -3h-22l-5 3c0 7 -5 52 -9 59c-8 14 -63 43 -106 43c-72 0 -118 -44 -118 -132c0 -148 64 -237 171 -237c35 0 80 13 108 32
l8 -7c-7 -17 -14 -34 -19 -50c-32 -20 -80 -32 -130 -35l-23 -51c14 2 24 4 35 4c61 0 98 -35 98 -72c0 -47 -61 -87 -132 -87c-56 0 -103 16 -127 28l-1 5l15 29l5 2c21 -13 51 -26 75 -26c42 0 69 19 69 43c0 27 -28 40 -52 40c-9 0 -18 -1 -26 -5z" />
    <glyph glyph-name="eacute" unicode="&#xe9;" horiz-adv-x="519" 
d="M263 433c-96 0 -110 -114 -110 -159c52 -3 90 -4 128 -4c37 0 70 1 88 4c0 83 -20 159 -106 159zM452 86l12 -9c-8 -16 -16 -33 -22 -49c-31 -20 -92 -46 -167 -46c-142 0 -229 94 -229 233c0 97 23 155 65 184c70 48 121 72 169 72c193 0 193 -152 193 -216l-3 -5
c-59 -18 -110 -18 -165 -18h-149c5 -107 55 -190 175 -190c29 0 69 10 121 44zM214 540h-44v5c149 154 164 162 191 162s43 -17 43 -37c0 -30 -5 -34 -190 -130z" />
    <glyph glyph-name="ecircumflex" unicode="&#xea;" horiz-adv-x="519" 
d="M263 433c-96 0 -110 -114 -110 -159c52 -3 90 -4 128 -4c37 0 70 1 88 4c0 83 -20 159 -106 159zM452 86l12 -9c-8 -16 -16 -33 -22 -49c-31 -20 -92 -46 -167 -46c-142 0 -229 94 -229 233c0 97 23 155 65 184c70 48 121 72 169 72c193 0 193 -152 193 -216l-3 -5
c-59 -18 -110 -18 -165 -18h-149c5 -107 55 -190 175 -190c29 0 69 10 121 44zM101 538l127 169h64l127 -169h-47c-34 33 -71 66 -112 101c-41 -35 -78 -68 -112 -101h-47z" />
    <glyph glyph-name="edieresis" unicode="&#xeb;" horiz-adv-x="519" 
d="M263 433c-96 0 -110 -114 -110 -159c52 -3 90 -4 128 -4c37 0 70 1 88 4c0 83 -20 159 -106 159zM452 86l12 -9c-8 -16 -16 -33 -22 -49c-31 -20 -92 -46 -167 -46c-142 0 -229 94 -229 233c0 97 23 155 65 184c70 48 121 72 169 72c193 0 193 -152 193 -216l-3 -5
c-59 -18 -110 -18 -165 -18h-149c5 -107 55 -190 175 -190c29 0 69 10 121 44zM306 625c0 35 29 64 64 64s64 -29 64 -64s-29 -64 -64 -64s-64 29 -64 64zM86 625c0 35 29 64 64 64s64 -29 64 -64s-29 -64 -64 -64s-64 29 -64 64z" />
    <glyph glyph-name="egrave" unicode="&#xe8;" horiz-adv-x="519" 
d="M263 433c-96 0 -110 -114 -110 -159c52 -3 90 -4 128 -4c37 0 70 1 88 4c0 83 -20 159 -106 159zM452 86l12 -9c-8 -16 -16 -33 -22 -49c-31 -20 -92 -46 -167 -46c-142 0 -229 94 -229 233c0 97 23 155 65 184c70 48 121 72 169 72c193 0 193 -152 193 -216l-3 -5
c-59 -18 -110 -18 -165 -18h-149c5 -107 55 -190 175 -190c29 0 69 10 121 44zM350 540h-44c-185 96 -190 100 -190 130c0 20 16 37 43 37s42 -8 191 -162v-5z" />
    <glyph glyph-name="iacute" unicode="&#xed;" horiz-adv-x="296" 
d="M22 398v29l3 3c14 0 96 11 164 41l14 -9c-4 -37 -5 -98 -5 -136v-161c0 -82 0 -116 8 -125c5 -6 27 -10 65 -10l3 -3v-29l-3 -3c-38 2 -79 5 -126 5c-41 0 -82 -3 -120 -5l-3 3v29l3 3c38 0 60 4 65 10c8 9 8 43 8 125v118c0 87 0 103 -10 108c-9 4 -54 4 -63 4zM102 540
h-44v5c149 154 164 162 191 162s43 -17 43 -37c0 -30 -5 -34 -190 -130z" />
    <glyph glyph-name="icircumflex" unicode="&#xee;" horiz-adv-x="296" 
d="M22 398v29l3 3c14 0 96 11 164 41l14 -9c-4 -37 -5 -98 -5 -136v-161c0 -82 0 -116 8 -125c5 -6 27 -10 65 -10l3 -3v-29l-3 -3c-38 2 -79 5 -126 5c-41 0 -82 -3 -120 -5l-3 3v29l3 3c38 0 60 4 65 10c8 9 8 43 8 125v118c0 87 0 103 -10 108c-9 4 -54 4 -63 4zM-11 538
l127 169h64l127 -169h-47c-34 33 -71 66 -112 101c-41 -35 -78 -68 -112 -101h-47z" />
    <glyph glyph-name="idieresis" unicode="&#xef;" horiz-adv-x="296" 
d="M22 398v29l3 3c14 0 96 11 164 41l14 -9c-4 -37 -5 -98 -5 -136v-161c0 -82 0 -116 8 -125c5 -6 27 -10 65 -10l3 -3v-29l-3 -3c-38 2 -79 5 -126 5c-41 0 -82 -3 -120 -5l-3 3v29l3 3c38 0 60 4 65 10c8 9 8 43 8 125v118c0 87 0 103 -10 108c-9 4 -54 4 -63 4zM194 625
c0 35 29 64 64 64s64 -29 64 -64s-29 -64 -64 -64s-64 29 -64 64zM-26 625c0 35 29 64 64 64s64 -29 64 -64s-29 -64 -64 -64s-64 29 -64 64z" />
    <glyph glyph-name="igrave" unicode="&#xec;" horiz-adv-x="296" 
d="M22 398v29l3 3c14 0 96 11 164 41l14 -9c-4 -37 -5 -98 -5 -136v-161c0 -82 0 -116 8 -125c5 -6 27 -10 65 -10l3 -3v-29l-3 -3c-38 2 -79 5 -126 5c-41 0 -82 -3 -120 -5l-3 3v29l3 3c38 0 60 4 65 10c8 9 8 43 8 125v118c0 87 0 103 -10 108c-9 4 -54 4 -63 4zM223 540
h-44c-185 96 -190 100 -190 130c0 20 16 37 43 37s42 -8 191 -162v-5z" />
    <glyph glyph-name="ntilde" unicode="&#xf1;" horiz-adv-x="610" 
d="M201 379l90 80c5 4 35 12 72 12c110 0 155 -70 155 -160c0 -57 -3 -147 -3 -242c0 -36 8 -39 62 -39l5 -5v-25l-5 -5c-27 2 -53 5 -80 5s-53 -3 -80 -5l-11 9c9 72 9 136 9 220c0 99 -1 169 -95 169c-54 0 -116 -33 -116 -75v-153c0 -82 0 -116 8 -125
c5 -6 27 -10 65 -10l3 -3v-29l-3 -3c-38 2 -79 5 -126 5c-41 0 -82 -3 -120 -5l-3 3v29l3 3c38 0 60 4 65 10c8 9 8 43 8 125v118c0 87 0 103 -10 108c-9 4 -54 4 -63 4l-3 3v29l3 3c14 0 96 11 164 41l10 -7c-2 -23 -4 -51 -4 -85zM152 575h-32c5 32 20 60 41 81
s49 33 75 33c39 0 134 -42 168 -42c26 0 46 19 54 42h32c-10 -63 -60 -114 -116 -114c-39 0 -134 42 -168 42c-26 0 -46 -19 -54 -42z" />
    <glyph glyph-name="oacute" unicode="&#xf3;" horiz-adv-x="556" 
d="M406 200c0 154 -58 233 -133 233c-85 0 -123 -66 -123 -194c0 -133 48 -219 132 -219s124 70 124 180zM40 214c0 159 92 257 240 257c175 0 236 -130 236 -241c0 -164 -126 -248 -246 -248c-161 0 -230 110 -230 232zM232 540h-44v5c149 154 164 162 191 162
s43 -17 43 -37c0 -30 -5 -34 -190 -130z" />
    <glyph glyph-name="ocircumflex" unicode="&#xf4;" horiz-adv-x="556" 
d="M406 200c0 154 -58 233 -133 233c-85 0 -123 -66 -123 -194c0 -133 48 -219 132 -219s124 70 124 180zM40 214c0 159 92 257 240 257c175 0 236 -130 236 -241c0 -164 -126 -248 -246 -248c-161 0 -230 110 -230 232zM119 538l127 169h64l127 -169h-47
c-34 33 -71 66 -112 101c-41 -35 -78 -68 -112 -101h-47z" />
    <glyph glyph-name="odieresis" unicode="&#xf6;" horiz-adv-x="556" 
d="M406 200c0 154 -58 233 -133 233c-85 0 -123 -66 -123 -194c0 -133 48 -219 132 -219s124 70 124 180zM40 214c0 159 92 257 240 257c175 0 236 -130 236 -241c0 -164 -126 -248 -246 -248c-161 0 -230 110 -230 232zM324 625c0 35 29 64 64 64s64 -29 64 -64
s-29 -64 -64 -64s-64 29 -64 64zM104 625c0 35 29 64 64 64s64 -29 64 -64s-29 -64 -64 -64s-64 29 -64 64z" />
    <glyph glyph-name="ograve" unicode="&#xf2;" horiz-adv-x="556" 
d="M406 200c0 154 -58 233 -133 233c-85 0 -123 -66 -123 -194c0 -133 48 -219 132 -219s124 70 124 180zM40 214c0 159 92 257 240 257c175 0 236 -130 236 -241c0 -164 -126 -248 -246 -248c-161 0 -230 110 -230 232zM368 540h-44c-185 96 -190 100 -190 130
c0 20 16 37 43 37s42 -8 191 -162v-5z" />
    <glyph glyph-name="otilde" unicode="&#xf5;" horiz-adv-x="556" 
d="M406 200c0 154 -58 233 -133 233c-85 0 -123 -66 -123 -194c0 -133 48 -219 132 -219s124 70 124 180zM40 214c0 159 92 257 240 257c175 0 236 -130 236 -241c0 -164 -126 -248 -246 -248c-161 0 -230 110 -230 232zM125 575h-32c5 32 20 60 41 81s49 33 75 33
c39 0 134 -42 168 -42c26 0 46 19 54 42h32c-10 -63 -60 -114 -116 -114c-39 0 -134 42 -168 42c-26 0 -46 -19 -54 -42z" />
    <glyph glyph-name="scaron" unicode="&#x161;" horiz-adv-x="444" 
d="M44 4l-5 9c5 37 10 88 10 129l3 3h32l3 -3c0 -34 0 -63 9 -77c5 -8 60 -45 119 -45c61 0 103 34 103 94c0 126 -275 16 -275 208c0 72 59 149 184 149c32 0 111 -10 140 -23l8 -12c-6 -25 -6 -64 -6 -103l-3 -3h-32l-3 3c0 29 -4 53 -8 61c-6 11 -54 39 -107 39
c-49 0 -86 -27 -86 -77c0 -51 31 -61 137 -80c89 -16 138 -50 138 -124c0 -109 -97 -170 -211 -170c-61 0 -117 14 -150 22zM190 538l-127 169h47c34 -33 71 -66 112 -101c41 35 78 68 112 101h47l-127 -169h-64z" />
    <glyph glyph-name="uacute" unicode="&#xfa;" horiz-adv-x="610" 
d="M332 398v29l3 3c14 0 96 11 163 41l17 -13c-4 -36 -7 -117 -7 -244c0 -120 0 -149 5 -168c4 -15 21 -16 66 -16l3 -3v-29l-3 -3c-29 3 -61 5 -93 5c-24 0 -50 -2 -75 -5l-7 5c1 17 4 60 4 75l-83 -73c-16 -14 -37 -20 -78 -20c-85 0 -143 48 -143 144v157
c0 87 0 103 -10 108c-9 4 -54 4 -63 4l-3 3v29l3 3c14 0 96 11 164 41l16 -13c-1 -31 -7 -125 -7 -276c0 -85 29 -122 93 -122c35 0 71 17 95 43c15 16 16 18 16 178c0 89 0 105 -10 110c-9 4 -54 4 -63 4zM259 540h-44v5c149 154 164 162 191 162s43 -17 43 -37
c0 -30 -5 -34 -190 -130z" />
    <glyph glyph-name="ucircumflex" unicode="&#xfb;" horiz-adv-x="610" 
d="M332 398v29l3 3c14 0 96 11 163 41l17 -13c-4 -36 -7 -117 -7 -244c0 -120 0 -149 5 -168c4 -15 21 -16 66 -16l3 -3v-29l-3 -3c-29 3 -61 5 -93 5c-24 0 -50 -2 -75 -5l-7 5c1 17 4 60 4 75l-83 -73c-16 -14 -37 -20 -78 -20c-85 0 -143 48 -143 144v157
c0 87 0 103 -10 108c-9 4 -54 4 -63 4l-3 3v29l3 3c14 0 96 11 164 41l16 -13c-1 -31 -7 -125 -7 -276c0 -85 29 -122 93 -122c35 0 71 17 95 43c15 16 16 18 16 178c0 89 0 105 -10 110c-9 4 -54 4 -63 4zM146 538l127 169h64l127 -169h-47c-34 33 -71 66 -112 101
c-41 -35 -78 -68 -112 -101h-47z" />
    <glyph glyph-name="udieresis" unicode="&#xfc;" horiz-adv-x="610" 
d="M332 398v29l3 3c14 0 96 11 163 41l17 -13c-4 -36 -7 -117 -7 -244c0 -120 0 -149 5 -168c4 -15 21 -16 66 -16l3 -3v-29l-3 -3c-29 3 -61 5 -93 5c-24 0 -50 -2 -75 -5l-7 5c1 17 4 60 4 75l-83 -73c-16 -14 -37 -20 -78 -20c-85 0 -143 48 -143 144v157
c0 87 0 103 -10 108c-9 4 -54 4 -63 4l-3 3v29l3 3c14 0 96 11 164 41l16 -13c-1 -31 -7 -125 -7 -276c0 -85 29 -122 93 -122c35 0 71 17 95 43c15 16 16 18 16 178c0 89 0 105 -10 110c-9 4 -54 4 -63 4zM351 625c0 35 29 64 64 64s64 -29 64 -64s-29 -64 -64 -64
s-64 29 -64 64zM131 625c0 35 29 64 64 64s64 -29 64 -64s-29 -64 -64 -64s-64 29 -64 64z" />
    <glyph glyph-name="ugrave" unicode="&#xf9;" horiz-adv-x="610" 
d="M332 398v29l3 3c14 0 96 11 163 41l17 -13c-4 -36 -7 -117 -7 -244c0 -120 0 -149 5 -168c4 -15 21 -16 66 -16l3 -3v-29l-3 -3c-29 3 -61 5 -93 5c-24 0 -50 -2 -75 -5l-7 5c1 17 4 60 4 75l-83 -73c-16 -14 -37 -20 -78 -20c-85 0 -143 48 -143 144v157
c0 87 0 103 -10 108c-9 4 -54 4 -63 4l-3 3v29l3 3c14 0 96 11 164 41l16 -13c-1 -31 -7 -125 -7 -276c0 -85 29 -122 93 -122c35 0 71 17 95 43c15 16 16 18 16 178c0 89 0 105 -10 110c-9 4 -54 4 -63 4zM395 540h-44c-185 96 -190 100 -190 130c0 20 16 37 43 37
s42 -8 191 -162v-5z" />
    <glyph glyph-name="yacute" unicode="&#xfd;" horiz-adv-x="537" 
d="M344 426v29l3 3c28 -2 58 -5 89 -5c32 0 63 3 92 5l3 -3v-29l-3 -3c-24 0 -42 -6 -58 -39c-38 -78 -129 -278 -194 -434c-80 -193 -115 -230 -184 -230c-23 0 -46 5 -67 13c9 27 15 52 20 78l14 6c20 -23 32 -29 51 -29c46 0 80 49 131 187l-184 423c-6 15 -14 21 -53 25
l-3 3v29l3 3c37 -2 77 -5 117 -5c38 0 76 3 111 5l3 -3v-29l-3 -3c-43 -5 -60 -7 -60 -27c0 -9 5 -21 122 -296c110 264 117 286 117 302c0 14 -13 21 -64 21zM238 540h-44v5c149 154 164 162 191 162s43 -17 43 -37c0 -30 -5 -34 -190 -130z" />
    <glyph glyph-name="ydieresis" unicode="&#xff;" horiz-adv-x="537" 
d="M344 426v29l3 3c28 -2 58 -5 89 -5c32 0 63 3 92 5l3 -3v-29l-3 -3c-24 0 -42 -6 -58 -39c-38 -78 -129 -278 -194 -434c-80 -193 -115 -230 -184 -230c-23 0 -46 5 -67 13c9 27 15 52 20 78l14 6c20 -23 32 -29 51 -29c46 0 80 49 131 187l-184 423c-6 15 -14 21 -53 25
l-3 3v29l3 3c37 -2 77 -5 117 -5c38 0 76 3 111 5l3 -3v-29l-3 -3c-43 -5 -60 -7 -60 -27c0 -9 5 -21 122 -296c110 264 117 286 117 302c0 14 -13 21 -64 21zM315 625c0 35 29 64 64 64s64 -29 64 -64s-29 -64 -64 -64s-64 29 -64 64zM95 625c0 35 29 64 64 64
s64 -29 64 -64s-29 -64 -64 -64s-64 29 -64 64z" />
    <glyph glyph-name="zcaron" unicode="&#x17e;" horiz-adv-x="481" 
d="M8 -2l-7 32c110 126 209 253 307 379c-21 1 -33 1 -50 1c-54 0 -144 -2 -154 -5c-20 -6 -21 -13 -30 -77l-3 -3h-26l-3 3c1 22 3 53 3 79c0 14 0 31 -1 44l9 7c90 -2 181 -5 271 -5c38 0 81 2 116 5l3 -3v-38c-111 -125 -202 -237 -298 -374c243 2 246 2 256 18
c4 6 17 67 17 76l3 3h32l3 -3c-10 -65 -15 -118 -15 -137l-6 -5c-82 3 -164 5 -303 5c-41 0 -82 -1 -120 -5zM209 538l-127 169h47c34 -33 71 -66 112 -101c41 35 78 68 112 101h47l-127 -169h-64z" />
    <glyph glyph-name="Delta" unicode="&#x2206;" horiz-adv-x="586" 
d="M554 0h-523v28l236 646l42 11l245 -657v-28zM435 51l-177 484l-171 -484h348z" />
    <glyph glyph-name="Omega" unicode="&#x2126;" horiz-adv-x="654" 
d="M624 147l-23 -147h-218l-8 18c39 93 108 228 108 358c-1 205 -75 277 -157 277c-87 0 -155 -67 -155 -280c0 -128 59 -254 105 -355l-8 -18h-217l-21 147h26c19 -60 34 -70 71 -70h90c-60 54 -156 148 -156 303c0 187 117 305 267 305c152 0 264 -112 264 -299
c0 -141 -91 -239 -160 -309h97c36 0 48 8 67 70h28z" />
    <glyph glyph-name="uni03BC" unicode="&#x3bc;" horiz-adv-x="610" 
d="M332 398v29l3 3c14 0 96 11 163 41l17 -13c-4 -36 -7 -117 -7 -244c0 -120 0 -149 5 -168c4 -15 21 -16 66 -16l3 -3v-29l-3 -3c-29 3 -61 5 -93 5c-24 0 -50 -2 -75 -5l-7 5c1 17 4 60 4 75l-83 -73c-16 -14 -37 -20 -78 -20c-19 0 -40 10 -53 18c0 -116 1 -142 11 -267
l-4 -5c-14 3 -32 5 -52 5s-38 -2 -52 -5l-4 5c10 125 11 151 11 267v327c0 43 0 59 -10 64c-9 4 -54 4 -63 4l-3 3v29l3 3c14 0 96 11 164 41l16 -13c-1 -31 -7 -125 -7 -276c0 -85 29 -122 93 -122c35 0 71 17 95 43c15 16 16 18 16 178c0 89 0 105 -10 110
c-9 4 -54 4 -63 4z" />
    <glyph glyph-name="pi" unicode="&#x3c0;" horiz-adv-x="524" 
d="M474 459l25 -7c-6 -39 -21 -77 -33 -95c-15 -5 -36 -5 -60 -5c-6 -62 -5 -146 -5 -213c1 -60 12 -88 39 -88c17 0 28 9 44 26l12 -22c-23 -42 -64 -67 -101 -67c-49 0 -87 26 -87 128c0 91 4 161 9 238c-47 0 -92 2 -129 2v-15c0 -226 -47 -316 -62 -336
c-18 -8 -44 -16 -60 -17l-7 18c69 94 87 252 87 352c-59 0 -81 -14 -117 -40l-14 24c26 33 62 91 162 89c69 0 155 -3 243 -3c30 0 40 6 54 31z" />
    <glyph glyph-name="Euro" unicode="&#x20ac;" 
d="M473 651c-10 -45 -15 -89 -17 -135l-3 -3h-26s-2 1 -3 1l-2 3c-1 27 -3 52 -7 79c-21 31 -54 45 -90 45c-119 0 -149 -125 -157 -221c73 0 147 -2 220 3l3 -3l-12 -42l-3 -3c-70 4 -141 3 -211 3v-9c0 -25 0 -49 2 -73c62 0 124 -1 186 3l3 -3l-12 -42l-3 -3
c-57 4 -114 3 -171 3c12 -100 52 -216 172 -216c45 0 85 20 115 52l14 -12l-10 -52c-43 -29 -93 -42 -144 -42c-161 0 -238 125 -258 270c-25 0 -49 -1 -74 -3l-3 3l12 42l3 3c19 -1 39 -3 58 -3c-1 11 -1 23 -1 34c0 16 1 32 2 48c-24 0 -47 -1 -71 -3l-3 3l12 42l3 3
c21 -2 42 -3 63 -3c21 145 98 268 259 268c52 0 102 -17 151 -31z" />
    <glyph glyph-name="afii61289" unicode="&#x2113;" horiz-adv-x="391" 
d="M355 114l21 -18c-36 -71 -89 -112 -160 -112c-48 0 -80 15 -99 38c-22 29 -32 58 -32 142v78l-52 -39l-13 26l65 51v131c0 151 10 201 49 250c25 35 57 53 89 53c59 0 89 -57 89 -131c0 -115 -55 -199 -133 -282v-89c0 -128 24 -166 77 -166c43 0 74 31 99 68zM179 465
v-114c46 57 80 146 80 231c0 62 -13 101 -40 101c-31 0 -40 -48 -40 -218z" />
    <glyph glyph-name="estimated" unicode="&#x212e;" horiz-adv-x="844" 
d="M810 322h-629c-3 0 -5 -1 -5 -4v-191c0 -8 3 -15 8 -21c61 -63 145 -104 238 -104c100 0 189 46 251 116h55c-69 -82 -182 -135 -307 -135c-214 0 -388 156 -388 348c0 194 174 350 388 350c215 0 389 -156 389 -350v-9zM667 347v192c0 8 -3 16 -9 22
c-61 60 -144 100 -236 100s-176 -41 -237 -103c-6 -6 -9 -14 -9 -24v-187c0 -2 2 -6 5 -6h482c3 0 4 4 4 6z" />
    <glyph glyph-name="partialdiff" unicode="&#x2202;" horiz-adv-x="493" 
d="M244 412h1c40 0 86 -18 115 -60c4 32 8 69 10 107c2 48 -3 102 -23 150c-18 42 -58 82 -115 82c-50 0 -95 -28 -127 -55c-15 -2 -39 45 -30 68c31 21 74 39 129 39c89 0 153 -53 195 -140c37 -75 47 -169 47 -230c0 -75 -13 -171 -44 -241c-38 -87 -103 -148 -194 -148
c-101 0 -169 70 -169 192c0 68 26 126 55 163c34 42 90 73 150 73zM266 372h-1c-33 0 -63 -13 -90 -56c-28 -50 -42 -126 -42 -195c-1 -61 27 -106 76 -106c45 0 78 56 98 104c24 58 35 111 45 190c-10 24 -43 63 -86 63z" />
    <glyph glyph-name="product" unicode="&#x220f;" horiz-adv-x="640" 
d="M614 677v-28c-79 -6 -85 -14 -85 -78v-541c0 -71 7 -80 84 -87v-28h-252v28c67 6 72 11 72 86v580c0 29 -6 33 -35 33h-160c-28 0 -32 -3 -32 -29v-584c0 -69 -1 -79 66 -86v-28h-246v28c75 7 83 15 83 86v542c0 65 -6 72 -86 78v28h591z" />
    <glyph glyph-name="summation" unicode="&#x2211;" horiz-adv-x="510" 
d="M490 100l-42 -189h-422v25l204 326l-200 389v26h419c1 -18 6 -95 11 -158l-29 -6c-8 42 -18 72 -31 96c-13 26 -29 34 -98 34h-154l166 -312l-207 -335h222c81 0 94 5 132 111z" />
    <glyph glyph-name="uni2219" unicode="&#x2219;" horiz-adv-x="250" 
d="M125 365c35 0 64 -29 64 -64s-29 -64 -64 -64s-64 29 -64 64s29 64 64 64z" />
    <glyph glyph-name="radical" unicode="&#x221a;" horiz-adv-x="516" 
d="M501 857l-159 -1012l-22 -10l-197 531l-81 -36l-11 34l156 69l143 -404h2l128 837z" />
    <glyph glyph-name="infinity" unicode="&#x221e;" horiz-adv-x="707" 
d="M663 280v-1c0 -97 -70 -155 -145 -155c-54 0 -102 25 -163 104c-47 -57 -96 -104 -170 -104c-75 0 -142 62 -142 151c0 90 64 154 150 154c67 0 117 -43 165 -103c40 45 85 103 166 103c79 0 139 -59 139 -149zM193 182h1c53 0 92 48 128 90c-38 51 -72 100 -133 100
c-54 0 -85 -43 -85 -98c0 -51 38 -92 89 -92zM518 372h-1c-57 0 -100 -61 -129 -94c56 -69 85 -96 133 -96c52 0 82 50 82 93c0 57 -35 97 -85 97z" />
    <glyph glyph-name="integral" unicode="&#x222b;" horiz-adv-x="363" 
d="M151 2l-20 397c-16 347 77 416 155 416c27 0 63 -16 63 -49c0 -32 -24 -48 -49 -48c-33 0 -29 51 -50 51c-20 0 -39 -28 -33 -154l17 -364c17 -343 -65 -446 -157 -446c-36 0 -63 24 -63 51c-1 30 27 52 55 52c29 0 29 -55 49 -55c27 0 38 58 33 149z" />
    <glyph glyph-name="approxequal" unicode="&#x2248;" horiz-adv-x="490" 
d="M414 424l40 -34c-26 -53 -68 -94 -120 -94c-36 0 -61 11 -100 36c-26 17 -49 31 -77 31c-40 0 -62 -33 -83 -67l-41 33c27 55 75 94 130 94c43 0 73 -21 95 -34c31 -19 50 -33 77 -33c34 0 55 27 79 68zM414 258l40 -34c-26 -52 -67 -94 -121 -94c-35 0 -60 12 -99 36
c-27 18 -49 32 -77 32c-41 0 -62 -34 -83 -68l-41 34c27 54 75 93 129 93c45 0 73 -21 96 -34c28 -16 48 -33 76 -33c35 0 56 27 80 68z" />
    <glyph glyph-name="notequal" unicode="&#x2260;" horiz-adv-x="490" 
d="M358 481l-36 -82h123v-62h-146l-54 -126h200v-62h-223l-44 -102l-49 19l36 83h-122v62h146l53 126h-199v62h222l44 101z" />
    <glyph glyph-name="lessequal" unicode="&#x2264;" horiz-adv-x="490" 
d="M443 99l-395 207v67l395 206v-73l-333 -165v-2l333 -166v-74zM447 0h-402v64h402v-64z" />
    <glyph glyph-name="greaterequal" unicode="&#x2265;" horiz-adv-x="490" 
d="M50 579l395 -207v-66l-395 -207v74l333 166v2l-333 165v73zM446 0h-401v64h401v-64z" />
    <glyph glyph-name="lozenge" unicode="&#x25ca;" horiz-adv-x="519" 
d="M473 327l-176 -392h-76l-176 392l178 395h74zM404 327l-142 328h-4l-144 -327l145 -328h3z" />
    <glyph glyph-name="uni00A0" unicode="&#xa0;" horiz-adv-x="250" 
 />
    <glyph glyph-name="uni00AD" unicode="&#xad;" horiz-adv-x="389" 
d="M47 203l-7 10c12 27 21 55 28 84c49 -3 101 -5 147 -5c43 0 88 3 127 5l7 -10c-12 -27 -21 -55 -28 -84c-49 3 -101 5 -147 5c-43 0 -88 -3 -127 -5z" />
    <glyph glyph-name="uni02C9" unicode="&#x2c9;" horiz-adv-x="278" 
d="M-14 597v60h306v-60h-306z" />
    <glyph glyph-name="uni03A9" unicode="&#x3a9;" horiz-adv-x="654" 
d="M624 147l-23 -147h-218l-8 18c39 93 108 228 108 358c-1 205 -75 277 -157 277c-87 0 -155 -67 -155 -280c0 -128 59 -254 105 -355l-8 -18h-217l-21 147h26c19 -60 34 -70 71 -70h90c-60 54 -156 148 -156 303c0 187 117 305 267 305c152 0 264 -112 264 -299
c0 -141 -91 -239 -160 -309h97c36 0 48 8 67 70h28z" />
    <glyph glyph-name="uni2215" unicode="&#x2215;" horiz-adv-x="167" 
d="M-164 -34l431 735l5 3h57l2 -4l-431 -735l-5 -3h-57z" />
    <glyph glyph-name="Amacron" unicode="&#x100;" horiz-adv-x="759" 
d="M468 -2v29l3 3c73 0 75 6 75 16c0 15 -10 39 -67 179h-264c-61 -139 -63 -154 -63 -167c0 -24 26 -25 81 -28l3 -3v-29l-3 -3c-36 2 -76 5 -115 5s-79 -3 -115 -5l-3 3v29l3 3c61 2 64 7 92 67c89 190 192 427 262 597h42c220 -520 250 -592 277 -638
c11 -19 20 -25 65 -26l3 -3v-29l-3 -3c-43 2 -89 5 -135 5s-92 -3 -135 -5zM459 273l-112 267l-112 -267h224zM225 772v60h306v-60h-306z" />
    <glyph glyph-name="amacron" unicode="&#x101;" horiz-adv-x="519" 
d="M83 337l4 62c96 62 120 72 164 72c89 0 176 -36 176 -144c0 -67 -1 -116 -1 -154c0 -92 0 -121 3 -128c6 -13 20 -15 55 -15l3 -3v-29l-3 -3c-24 3 -51 5 -78 5c-24 0 -53 -2 -77 -5l-6 5c1 27 4 53 4 77c-32 -22 -92 -72 -101 -79c-12 -9 -31 -16 -65 -16
c-81 0 -121 50 -121 122c0 93 27 116 287 171c0 48 -11 124 -113 124c-34 0 -73 -13 -79 -19c-5 -5 -20 -43 -22 -52l-5 -2l-22 7zM327 122v118c-170 -38 -183 -65 -183 -111c0 -50 30 -75 71 -75c35 0 67 22 112 68zM101 575v60h306v-60h-306z" />
    <glyph glyph-name="Imacron" unicode="&#x12a;" horiz-adv-x="352" 
d="M27 662v29l3 3c50 -2 98 -5 146 -5s96 3 146 5l3 -3v-29l-3 -3c-38 0 -68 -5 -77 -13c-11 -10 -14 -19 -14 -251v-101c0 -232 3 -241 14 -251c9 -8 39 -13 77 -13l3 -3v-29l-3 -3c-50 2 -98 5 -146 5s-96 -3 -146 -5l-3 3v29l3 3c38 0 68 5 77 13c11 10 14 19 14 251v101
c0 232 -3 241 -14 251c-9 8 -39 13 -77 13zM24 771v60h306v-60h-306z" />
    <glyph glyph-name="imacron" unicode="&#x12b;" horiz-adv-x="296" 
d="M22 398v29l3 3c14 0 96 11 164 41l14 -9c-4 -37 -5 -98 -5 -136v-161c0 -82 0 -116 8 -125c5 -6 27 -10 65 -10l3 -3v-29l-3 -3c-38 2 -79 5 -126 5c-41 0 -82 -3 -120 -5l-3 3v29l3 3c38 0 60 4 65 10c8 9 8 43 8 125v118c0 87 0 103 -10 108c-9 4 -54 4 -63 4zM-24 575
v60h306v-60h-306z" />
    <glyph glyph-name="Umacron" unicode="&#x16a;" horiz-adv-x="796" 
d="M538 662v29l3 3c27 -3 64 -5 112 -5c47 0 89 3 120 5l3 -3v-29l-3 -3c-38 0 -68 -5 -77 -13c-11 -10 -14 -19 -14 -251v-135c0 -187 -93 -278 -293 -278c-156 0 -275 57 -275 233v180c0 232 -3 241 -14 251c-9 8 -39 13 -77 13l-3 3v29l3 3c50 -2 98 -5 146 -5
s96 3 146 5l3 -3v-29l-3 -3c-38 0 -68 -5 -77 -13c-11 -10 -14 -19 -14 -251v-164c0 -84 41 -177 199 -177c148 0 209 66 209 200v141c0 232 -3 241 -14 251c-9 8 -39 13 -77 13zM166 772v60h487v-60h-487z" />
    <glyph glyph-name="Ddotbelow" unicode="&#x1e0c;" horiz-adv-x="796" 
d="M27 662v29l3 3c50 -2 98 -5 146 -5c52 0 102 5 162 5c256 0 408 -90 408 -324c0 -168 -116 -375 -400 -375c-77 0 -131 5 -189 5c-24 0 -51 -1 -86 -5l-3 3v19l4 5c33 15 40 20 42 26c3 9 7 20 7 347c0 232 -3 241 -14 251c-9 8 -39 13 -77 13zM628 360
c0 180 -102 286 -281 286c-54 0 -82 -3 -112 -8c-2 -66 -4 -148 -4 -287c0 -161 2 -235 4 -300c30 -7 55 -8 92 -8c196 0 301 110 301 317zM328 -155c0 38 31 69 69 69s69 -31 69 -69s-31 -69 -69 -69s-69 31 -69 69z" />
    <glyph glyph-name="ddotbelow" unicode="&#x1e0d;" horiz-adv-x="611" 
d="M342 657v29l3 3c14 0 96 11 164 41l14 -9c-4 -37 -5 -98 -5 -136v-420c0 -82 0 -116 8 -125c5 -6 27 -10 65 -10l3 -3v-29l-3 -3c-28 2 -56 5 -85 5s-58 -3 -88 -5l-6 5c4 22 6 52 6 79c-39 -29 -69 -57 -102 -85c-20 -7 -41 -12 -72 -12c-98 0 -192 74 -192 233
c0 80 16 140 80 181c114 73 134 75 177 75c45 0 82 -15 109 -35v106c0 87 0 103 -10 108c-9 4 -54 4 -63 4zM418 191c0 80 -2 117 -3 158c-24 36 -74 70 -133 70c-73 0 -130 -60 -130 -174c0 -119 65 -191 145 -191c51 0 121 44 121 137zM228 -154c0 38 31 69 69 69
s69 -31 69 -69s-31 -69 -69 -69s-69 31 -69 69z" />
    <glyph glyph-name="Hdotbelow" unicode="&#x1e24;" horiz-adv-x="834" 
d="M27 -2v29l3 3c38 0 68 5 77 13c11 10 14 19 14 251v101c0 232 -3 241 -14 251c-9 8 -39 13 -77 13l-3 3v29l3 3c50 -2 98 -5 146 -5s96 3 146 5l3 -3v-29l-3 -3c-38 0 -68 -5 -77 -13c-11 -10 -14 -19 -14 -255c65 -1 126 -2 186 -2s121 1 186 2c0 236 -3 245 -14 255
c-9 8 -39 13 -77 13l-3 3v29l3 3c50 -2 98 -5 146 -5s96 3 146 5l3 -3v-29l-3 -3c-38 0 -68 -5 -77 -13c-11 -10 -14 -19 -14 -251v-101c0 -232 3 -241 14 -251c9 -8 39 -13 77 -13l3 -3v-29l-3 -3c-50 2 -98 5 -146 5s-96 -3 -146 -5l-3 3v29l3 3c38 0 68 5 77 13
c11 10 14 19 14 255v41c-65 1 -126 2 -186 2s-121 -1 -186 -2v-41c0 -236 3 -245 14 -255c9 -8 39 -13 77 -13l3 -3v-29l-3 -3c-50 2 -98 5 -146 5s-96 -3 -146 -5zM347 -155c0 38 31 69 69 69s69 -31 69 -69s-31 -69 -69 -69s-69 31 -69 69z" />
    <glyph glyph-name="hdotbelow" unicode="&#x1e25;" horiz-adv-x="610" 
d="M204 382l87 77c5 4 35 12 72 12c110 0 155 -70 155 -160c0 -57 -3 -147 -3 -242c0 -36 8 -39 62 -39l5 -5v-25l-5 -5c-27 2 -53 5 -80 5s-53 -3 -80 -5l-11 9c9 72 9 136 9 220c0 99 -1 169 -95 169c-54 0 -116 -33 -116 -75v-153c0 -82 0 -116 8 -125
c5 -6 27 -10 65 -10l3 -3v-29l-3 -3c-38 2 -79 5 -126 5c-41 0 -82 -3 -120 -5l-3 3v29l3 3c38 0 60 4 65 10c8 9 8 43 8 125v377c0 87 0 103 -10 108c-9 4 -54 4 -63 4l-3 3v29l3 3c14 0 96 11 164 41l14 -9c-4 -37 -5 -98 -5 -136v-203zM239 -156c0 38 31 69 69 69
s69 -31 69 -69s-31 -69 -69 -69s-69 31 -69 69z" />
    <glyph glyph-name="Ldotbelow" unicode="&#x1e36;" horiz-adv-x="611" 
d="M27 662v29l3 3c50 -2 98 -5 146 -5s96 3 146 5l3 -3v-29l-3 -3c-38 0 -68 -5 -77 -13c-11 -10 -14 -19 -14 -251v-69c0 -93 0 -187 2 -279c53 0 266 0 282 18c9 10 19 48 29 106l3 3h32l3 -3c-4 -46 -9 -114 -15 -176c-70 2 -143 3 -214 4c-70 1 -137 1 -196 1
c-24 0 -51 -1 -86 -5l-3 3v20l3 3c34 16 41 21 43 27c3 9 7 20 7 347c0 232 -3 241 -14 251c-9 8 -39 13 -77 13zM280 -156c0 38 31 69 69 69s69 -31 69 -69s-31 -69 -69 -69s-69 31 -69 69z" />
    <glyph glyph-name="ldotbelow" unicode="&#x1e37;" horiz-adv-x="296" 
d="M22 657v29l3 3c14 0 96 11 164 41l14 -9c-4 -37 -5 -98 -5 -136v-420c0 -82 0 -116 8 -125c5 -6 27 -10 65 -10l3 -3v-29l-3 -3c-38 2 -79 5 -126 5c-41 0 -82 -3 -120 -5l-3 3v29l3 3c38 0 60 4 65 10c8 9 8 43 8 125v377c0 87 0 103 -10 108c-9 4 -54 4 -63 4zM79 -154
c0 38 31 69 69 69s69 -31 69 -69s-31 -69 -69 -69s-69 31 -69 69z" />
    <glyph glyph-name="Mdotaccent" unicode="&#x1e40;" horiz-adv-x="981" 
d="M27 662v29l3 3c50 -2 74 -5 118 -5c31 0 66 3 84 5c93 -204 221 -454 263 -538c91 179 179 357 266 538c27 -2 63 -5 92 -5s70 3 98 5l3 -3v-29l-3 -3c-38 0 -68 -5 -77 -13c-11 -10 -14 -19 -14 -251v-101c0 -232 3 -241 14 -251c9 -8 39 -13 77 -13l3 -3v-29l-3 -3
c-50 2 -98 5 -146 5s-96 -3 -146 -5l-3 3v29l3 3c38 0 68 5 77 13c11 10 14 19 14 251v246h-2c-96 -185 -253 -490 -275 -558h-21c-27 80 -225 456 -275 558h-2v-246c0 -232 3 -241 14 -251c9 -8 39 -13 74 -13l3 -3v-29l-3 -3c-37 2 -75 5 -112 5c-40 0 -81 -3 -121 -5
l-3 3v29l3 3c38 0 68 5 77 13c11 10 14 19 14 251v101c0 232 -3 241 -14 251c-9 8 -39 13 -77 13zM425 835c0 35 29 64 64 64s64 -29 64 -64s-29 -64 -64 -64s-64 29 -64 64z" />
    <glyph glyph-name="mdotaccent" unicode="&#x1e41;" horiz-adv-x="907" 
d="M201 379l90 80c5 4 35 12 72 12c73 0 122 -40 138 -99l98 92c16 5 38 7 59 7c112 0 157 -70 157 -160c0 -57 -3 -147 -3 -242c0 -36 8 -39 62 -39l5 -5v-25l-5 -5c-27 2 -53 5 -80 5s-53 -3 -80 -5l-11 9c9 72 9 136 9 220c0 99 -1 169 -98 169c-47 0 -106 -37 -106 -75
v-153c0 -82 0 -116 8 -125c5 -6 27 -10 65 -10l3 -3v-29l-3 -3c-38 2 -79 5 -126 5c-41 0 -82 -3 -120 -5l-3 3v29l3 3c38 0 60 4 65 10c8 9 8 43 8 125v130c0 60 -29 98 -89 98c-53 0 -115 -33 -115 -75v-153c0 -82 0 -116 8 -125c5 -6 27 -10 65 -10l3 -3v-29l-3 -3
c-38 2 -79 5 -126 5c-41 0 -82 -3 -120 -5l-3 3v29l3 3c38 0 60 4 65 10c8 9 8 43 8 125v118c0 87 0 103 -10 108c-9 4 -54 4 -63 4l-3 3v29l3 3c14 0 96 11 164 41l10 -7c-2 -23 -4 -51 -4 -85zM397 637c0 35 29 64 64 64s64 -29 64 -64s-29 -64 -64 -64s-64 29 -64 64z
" />
    <glyph glyph-name="Ndotaccent" unicode="&#x1e44;" horiz-adv-x="833" 
d="M570 662v29l3 3c45 -2 89 -5 134 -5c34 0 68 3 102 5l3 -3v-29l-3 -3c-38 0 -63 -5 -75 -20c-15 -19 -16 -325 -16 -395c0 -118 4 -206 6 -262l-6 -5c-24 8 -71 16 -89 16c-75 81 -313 375 -458 562h-2v-261c0 -232 3 -241 14 -251c9 -8 39 -13 77 -13l3 -3v-29l-3 -3
c-39 2 -79 5 -118 5s-79 -3 -118 -5l-3 3v29l3 3c38 0 68 5 77 13c11 10 14 19 14 251v101c0 232 -3 241 -14 251c-9 8 -39 13 -77 13l-3 3v29l3 3c37 -2 73 -5 111 -5c31 0 52 2 75 5c36 -61 381 -484 456 -574h2c0 32 -4 138 -4 275c0 232 -3 241 -14 251
c-9 8 -39 13 -77 13zM345 835c0 35 29 64 64 64s64 -29 64 -64s-29 -64 -64 -64s-64 29 -64 64z" />
    <glyph glyph-name="ndotaccent" unicode="&#x1e45;" horiz-adv-x="610" 
d="M201 379l90 80c5 4 35 12 72 12c110 0 155 -70 155 -160c0 -57 -3 -147 -3 -242c0 -36 8 -39 62 -39l5 -5v-25l-5 -5c-27 2 -53 5 -80 5s-53 -3 -80 -5l-11 9c9 72 9 136 9 220c0 99 -1 169 -95 169c-54 0 -116 -33 -116 -75v-153c0 -82 0 -116 8 -125
c5 -6 27 -10 65 -10l3 -3v-29l-3 -3c-38 2 -79 5 -126 5c-41 0 -82 -3 -120 -5l-3 3v29l3 3c38 0 60 4 65 10c8 9 8 43 8 125v118c0 87 0 103 -10 108c-9 4 -54 4 -63 4l-3 3v29l3 3c14 0 96 11 164 41l10 -7c-2 -23 -4 -51 -4 -85zM245 635c0 35 29 64 64 64s64 -29 64 -64
s-29 -64 -64 -64s-64 29 -64 64z" />
    <glyph glyph-name="Ndotbelow" unicode="&#x1e46;" horiz-adv-x="833" 
d="M570 662v29l3 3c45 -2 89 -5 134 -5c34 0 68 3 102 5l3 -3v-29l-3 -3c-38 0 -63 -5 -75 -20c-15 -19 -16 -325 -16 -395c0 -118 4 -206 6 -262l-6 -5c-24 8 -71 16 -89 16c-75 81 -313 375 -458 562h-2v-261c0 -232 3 -241 14 -251c9 -8 39 -13 77 -13l3 -3v-29l-3 -3
c-39 2 -79 5 -118 5s-79 -3 -118 -5l-3 3v29l3 3c38 0 68 5 77 13c11 10 14 19 14 251v101c0 232 -3 241 -14 251c-9 8 -39 13 -77 13l-3 3v29l3 3c37 -2 73 -5 111 -5c31 0 52 2 75 5c36 -61 381 -484 456 -574h2c0 32 -4 138 -4 275c0 232 -3 241 -14 251
c-9 8 -39 13 -77 13zM351 -155c0 38 31 69 69 69s69 -31 69 -69s-31 -69 -69 -69s-69 31 -69 69z" />
    <glyph glyph-name="ndotbelow" unicode="&#x1e47;" horiz-adv-x="610" 
d="M201 379l90 80c5 4 35 12 72 12c110 0 155 -70 155 -160c0 -57 -3 -147 -3 -242c0 -36 8 -39 62 -39l5 -5v-25l-5 -5c-27 2 -53 5 -80 5s-53 -3 -80 -5l-11 9c9 72 9 136 9 220c0 99 -1 169 -95 169c-54 0 -116 -33 -116 -75v-153c0 -82 0 -116 8 -125
c5 -6 27 -10 65 -10l3 -3v-29l-3 -3c-38 2 -79 5 -126 5c-41 0 -82 -3 -120 -5l-3 3v29l3 3c38 0 60 4 65 10c8 9 8 43 8 125v118c0 87 0 103 -10 108c-9 4 -54 4 -63 4l-3 3v29l3 3c14 0 96 11 164 41l10 -7c-2 -23 -4 -51 -4 -85zM240 -155c0 38 31 69 69 69
s69 -31 69 -69s-31 -69 -69 -69s-69 31 -69 69z" />
    <glyph glyph-name="Rdotbelow" unicode="&#x1e5a;" horiz-adv-x="685" 
d="M279 353l10 18c11 -1 20 -2 30 -2c106 0 161 70 161 150c0 85 -64 127 -159 127c-29 0 -63 -5 -86 -12c-1 -38 -4 -100 -4 -340c0 -232 3 -241 14 -251c9 -8 39 -13 73 -13l3 -3v-29l-3 -3c-46 2 -94 5 -142 5s-96 -3 -146 -5l-3 3v29l3 3c38 0 68 5 77 13
c11 10 14 19 14 251v101c0 232 -3 241 -14 251c-9 8 -39 13 -77 13l-3 3v29l3 3c50 -2 98 -5 146 -5c60 0 120 5 176 5c144 0 242 -28 242 -150c0 -117 -89 -176 -172 -196l194 -278c24 -34 36 -40 66 -40l3 -3v-29l-3 -3c-23 2 -50 5 -76 5c-27 0 -53 -3 -80 -5
c-78 119 -168 257 -247 358zM309 -154c0 38 31 69 69 69s69 -31 69 -69s-31 -69 -69 -69s-69 31 -69 69z" />
    <glyph glyph-name="rdotbelow" unicode="&#x1e5b;" horiz-adv-x="407" 
d="M22 398v29l3 3c20 0 102 11 167 41l14 -9c-3 -30 -6 -76 -6 -100c14 13 26 28 37 41c35 42 64 68 113 68c17 0 33 -3 44 -7l5 -6c-6 -29 -11 -84 -11 -126h-18c-12 28 -25 41 -70 41c-54 0 -96 -34 -96 -97v-111c0 -82 0 -116 8 -125c5 -6 33 -10 83 -10l3 -3v-29l-3 -3
c-44 2 -91 5 -144 5c-41 0 -82 -3 -126 -5l-3 3v29l3 3c44 0 66 4 71 10c8 9 8 43 8 125v118c0 87 0 103 -10 108c-9 4 -54 4 -69 4zM99 -154c0 38 31 69 69 69s69 -31 69 -69s-31 -69 -69 -69s-69 31 -69 69z" />
    <glyph glyph-name="Rdotbelowmacron" unicode="&#x1e5c;" horiz-adv-x="685" 
d="M279 353l10 18c11 -1 20 -2 30 -2c106 0 161 70 161 150c0 85 -64 127 -159 127c-29 0 -63 -5 -86 -12c-1 -38 -4 -100 -4 -340c0 -232 3 -241 14 -251c9 -8 39 -13 73 -13l3 -3v-29l-3 -3c-46 2 -94 5 -142 5s-96 -3 -146 -5l-3 3v29l3 3c38 0 68 5 77 13
c11 10 14 19 14 251v101c0 232 -3 241 -14 251c-9 8 -39 13 -77 13l-3 3v29l3 3c50 -2 98 -5 146 -5c60 0 120 5 176 5c144 0 242 -28 242 -150c0 -117 -89 -176 -172 -196l194 -278c24 -34 36 -40 66 -40l3 -3v-29l-3 -3c-23 2 -50 5 -76 5c-27 0 -53 -3 -80 -5
c-78 119 -168 257 -247 358zM289 -156c0 38 31 69 69 69s69 -31 69 -69s-31 -69 -69 -69s-69 31 -69 69zM165 772v60h306v-60h-306z" />
    <glyph glyph-name="rdotbelowmacron" unicode="&#x1e5d;" horiz-adv-x="407" 
d="M22 398v29l3 3c20 0 102 11 167 41l14 -9c-3 -30 -6 -76 -6 -100c14 13 26 28 37 41c35 42 64 68 113 68c17 0 33 -3 44 -7l5 -6c-6 -29 -11 -84 -11 -126h-18c-12 28 -25 41 -70 41c-54 0 -96 -34 -96 -97v-111c0 -82 0 -116 8 -125c5 -6 33 -10 83 -10l3 -3v-29l-3 -3
c-44 2 -91 5 -144 5c-41 0 -82 -3 -126 -5l-3 3v29l3 3c44 0 66 4 71 10c8 9 8 43 8 125v118c0 87 0 103 -10 108c-9 4 -54 4 -69 4zM87 -155c0 38 31 69 69 69s69 -31 69 -69s-31 -69 -69 -69s-69 31 -69 69zM61 575v60h306v-60h-306z" />
    <glyph glyph-name="Sacute" unicode="&#x15a;" horiz-adv-x="593" 
d="M64 176h32l3 -3c0 -37 0 -49 3 -67c2 -15 49 -72 161 -72c114 0 180 58 180 153c0 201 -393 24 -393 297c0 137 99 223 267 223c56 0 140 -14 189 -41l3 -7c-10 -35 -17 -107 -17 -135l-3 -3l-32 3l-3 3c0 60 0 71 -6 78c-16 18 -65 50 -141 50
c-108 0 -157 -61 -157 -132c0 -90 48 -106 212 -131c116 -17 181 -59 181 -163c0 -109 -85 -247 -304 -247c-74 0 -147 21 -186 42l-3 6c7 45 11 99 11 143zM282 768h-44v5c149 154 164 162 191 162s43 -17 43 -37c0 -30 -5 -34 -190 -130z" />
    <glyph glyph-name="sacute" unicode="&#x15b;" horiz-adv-x="444" 
d="M44 4l-5 9c5 37 10 88 10 129l3 3h32l3 -3c0 -34 0 -63 9 -77c5 -8 60 -45 119 -45c61 0 103 34 103 94c0 126 -275 16 -275 208c0 72 59 149 184 149c32 0 111 -10 140 -23l8 -12c-6 -25 -6 -64 -6 -103l-3 -3h-32l-3 3c0 29 -4 53 -8 61c-6 11 -54 39 -107 39
c-49 0 -86 -27 -86 -77c0 -51 31 -61 137 -80c89 -16 138 -50 138 -124c0 -109 -97 -170 -211 -170c-61 0 -117 14 -150 22zM186 538h-44v5c149 154 164 162 191 162s43 -17 43 -37c0 -30 -5 -34 -190 -130z" />
    <glyph glyph-name="Tdotbelow" unicode="&#x1e6c;" horiz-adv-x="630" 
d="M166 -2v29l3 3c38 0 68 5 77 13c11 10 14 19 14 251c0 72 -4 182 -6 343c-41 1 -71 1 -103 1c-52 0 -71 -2 -78 -11c-7 -8 -8 -16 -15 -92l-4 -4h-31l-3 3c0 73 0 120 -6 157l3 3c94 -3 209 -5 298 -5s204 2 298 5l3 -3c-6 -37 -6 -84 -6 -157l-3 -3h-31l-4 4
c-7 76 -8 84 -15 92c-7 9 -26 11 -78 11c-32 0 -62 0 -103 -1c-2 -161 -6 -271 -6 -343c0 -232 3 -241 14 -251c9 -8 39 -13 77 -13l3 -3v-29l-3 -3c-50 2 -98 5 -146 5s-96 -3 -146 -5zM247 -155c0 38 31 69 69 69s69 -31 69 -69s-31 -69 -69 -69s-69 31 -69 69z" />
    <glyph glyph-name="tdotbelow" unicode="&#x1e6d;" horiz-adv-x="333" 
d="M14 376v19l3 4c23 10 48 22 75 36c0 51 0 103 -3 154c34 10 69 28 100 48l14 -12c-11 -64 -11 -128 -11 -192c42 0 106 0 127 4l5 -5l-8 -53l-4 -3c-17 0 -37 1 -58 1s-42 -1 -63 -1c0 -79 -1 -147 -1 -236c0 -67 25 -86 69 -86c23 0 45 7 57 15l10 -14
c-23 -22 -44 -43 -60 -64c-18 -5 -44 -9 -62 -9c-74 0 -118 34 -118 125c0 107 6 199 6 271c-13 0 -45 -3 -75 -5zM129 -156c0 38 31 69 69 69s69 -31 69 -69s-31 -69 -69 -69s-69 31 -69 69z" />
    <glyph glyph-name="Sdotbelow" unicode="&#x1e62;" horiz-adv-x="593" 
d="M64 176h32l3 -3c0 -37 0 -49 3 -67c2 -15 49 -72 161 -72c114 0 180 58 180 153c0 201 -393 24 -393 297c0 137 99 223 267 223c56 0 140 -14 189 -41l3 -7c-10 -35 -17 -107 -17 -135l-3 -3l-32 3l-3 3c0 60 0 71 -6 78c-16 18 -65 50 -141 50
c-108 0 -157 -61 -157 -132c0 -90 48 -106 212 -131c116 -17 181 -59 181 -163c0 -109 -85 -247 -304 -247c-74 0 -147 21 -186 42l-3 6c7 45 11 99 11 143zM241 -156c0 38 31 69 69 69s69 -31 69 -69s-31 -69 -69 -69s-69 31 -69 69z" />
    <glyph glyph-name="sdotbelow" unicode="&#x1e63;" horiz-adv-x="444" 
d="M44 4l-5 9c5 37 10 88 10 129l3 3h32l3 -3c0 -34 0 -63 9 -77c5 -8 60 -45 119 -45c61 0 103 34 103 94c0 126 -275 16 -275 208c0 72 59 149 184 149c32 0 111 -10 140 -23l8 -12c-6 -25 -6 -64 -6 -103l-3 -3h-32l-3 3c0 29 -4 53 -8 61c-6 11 -54 39 -107 39
c-49 0 -86 -27 -86 -77c0 -51 31 -61 137 -80c89 -16 138 -50 138 -124c0 -109 -97 -170 -211 -170c-61 0 -117 14 -150 22zM159 -155c0 38 31 69 69 69s69 -31 69 -69s-31 -69 -69 -69s-69 31 -69 69z" />
    <glyph glyph-name="candrabindunosp" unicode="&#x310;" horiz-adv-x="0" 
d="M-136 785c-33 5 -117 22 -152 182l33 -20c19 -28 49 -102 122 -102c67 0 105 58 105 117l20 -9c16 -93 -55 -179 -128 -168zM-133 1000c27 0 48 -21 48 -48s-21 -49 -48 -49s-49 22 -49 49s22 48 49 48z" />
    <glyph glyph-name="umacron" unicode="&#x16b;" horiz-adv-x="610" 
d="M332 398v29l3 3c14 0 96 11 163 41l17 -13c-4 -36 -7 -117 -7 -244c0 -120 0 -149 5 -168c4 -15 21 -16 66 -16l3 -3v-29l-3 -3c-29 3 -61 5 -93 5c-24 0 -50 -2 -75 -5l-7 5c1 17 4 60 4 75l-83 -73c-16 -14 -37 -20 -78 -20c-85 0 -143 48 -143 144v157
c0 87 0 103 -10 108c-9 4 -54 4 -63 4l-3 3v29l3 3c14 0 96 11 164 41l16 -13c-1 -31 -7 -125 -7 -276c0 -85 29 -122 93 -122c35 0 71 17 95 43c15 16 16 18 16 178c0 89 0 105 -10 110c-9 4 -54 4 -63 4zM137 575v60h306v-60h-306z" />
    <glyph glyph-name="Odblacute" unicode="&#x150;" horiz-adv-x="833" 
d="M44 350c0 224 167 357 382 357c202 0 363 -109 363 -345c0 -210 -160 -380 -388 -380c-273 0 -357 199 -357 368zM671 328c0 257 -153 331 -262 331c-141 0 -247 -107 -247 -273c0 -217 116 -356 267 -356c163 0 242 136 242 298zM276 736h-44v5c149 154 164 162 191 162
s43 -17 43 -37c0 -30 -5 -34 -190 -130zM476 736h-44v5c149 154 164 162 191 162s43 -17 43 -37c0 -30 -5 -34 -190 -130z" />
    <glyph glyph-name="odblacute" unicode="&#x151;" horiz-adv-x="556" 
d="M406 200c0 154 -58 233 -133 233c-85 0 -123 -66 -123 -194c0 -133 48 -219 132 -219s124 70 124 180zM40 214c0 159 92 257 240 257c175 0 236 -130 236 -241c0 -164 -126 -248 -246 -248c-161 0 -230 110 -230 232zM155 539h-44v5c149 154 164 162 191 162
s43 -17 43 -37c0 -30 -5 -34 -190 -130zM355 539h-44v5c149 154 164 162 191 162s43 -17 43 -37c0 -30 -5 -34 -190 -130zM155 539h-44v5c149 154 164 162 191 162s43 -17 43 -37c0 -30 -5 -34 -190 -130zM355 539h-44v5c149 154 164 162 191 162s43 -17 43 -37
c0 -30 -5 -34 -190 -130z" />
    <glyph glyph-name="Udblacute" unicode="&#x170;" horiz-adv-x="796" 
d="M538 662v29l3 3c27 -3 64 -5 112 -5c47 0 89 3 120 5l3 -3v-29l-3 -3c-38 0 -68 -5 -77 -13c-11 -10 -14 -19 -14 -251v-135c0 -187 -93 -278 -293 -278c-156 0 -275 57 -275 233v180c0 232 -3 241 -14 251c-9 8 -39 13 -77 13l-3 3v29l3 3c50 -2 98 -5 146 -5
s96 3 146 5l3 -3v-29l-3 -3c-38 0 -68 -5 -77 -13c-11 -10 -14 -19 -14 -251v-164c0 -84 41 -177 199 -177c148 0 209 66 209 200v141c0 232 -3 241 -14 251c-9 8 -39 13 -77 13zM276 736h-44v5c149 154 164 162 191 162s43 -17 43 -37c0 -30 -5 -34 -190 -130zM476 736h-44
v5c149 154 164 162 191 162s43 -17 43 -37c0 -30 -5 -34 -190 -130z" />
    <glyph glyph-name="udblacute" unicode="&#x171;" horiz-adv-x="610" 
d="M332 398v29l3 3c14 0 96 11 163 41l17 -13c-4 -36 -7 -117 -7 -244c0 -120 0 -149 5 -168c4 -15 21 -16 66 -16l3 -3v-29l-3 -3c-29 3 -61 5 -93 5c-24 0 -50 -2 -75 -5l-7 5c1 17 4 60 4 75l-83 -73c-16 -14 -37 -20 -78 -20c-85 0 -143 48 -143 144v157
c0 87 0 103 -10 108c-9 4 -54 4 -63 4l-3 3v29l3 3c14 0 96 11 164 41l16 -13c-1 -31 -7 -125 -7 -276c0 -85 29 -122 93 -122c35 0 71 17 95 43c15 16 16 18 16 178c0 89 0 105 -10 110c-9 4 -54 4 -63 4zM159 540h-44v5c149 154 164 162 191 162s43 -17 43 -37
c0 -30 -5 -34 -190 -130zM359 540h-44v5c149 154 164 162 191 162s43 -17 43 -37c0 -30 -5 -34 -190 -130z" />
    </font>
</defs>
</svg>
