<?xml version="1.0" standalone="no"?>
<!DOCTYPE svg PUBLIC "-//W3C//DTD SVG 1.1//EN" "http://www.w3.org/Graphics/SVG/1.1/DTD/svg11.dtd" >
<svg xmlns="http://www.w3.org/2000/svg" xmlns:xlink="http://www.w3.org/1999/xlink" version="1.1">
<metadata>
Created by FontForge 20190801 at Sat Mar  2 05:08:37 2013
 By Jimmy Wärting
Copyright (c) 2013 by Sri Chaitanya Saraswat Math. All rights reserved.
</metadata>
<defs>
<font id="Veda-Italic" horiz-adv-x="1024" >
  <font-face 
    font-family="Veda"
    font-weight="400"
    font-style="italic"
    font-stretch="normal"
    units-per-em="2048"
    panose-1="2 4 5 3 5 2 3 3 2 2"
    ascent="1638"
    descent="-410"
    x-height="820"
    cap-height="1361"
    bbox="-1961.8 -1024.14 3017 2221"
    underline-thickness="120"
    underline-position="-193"
    unicode-range="U+0020-F56D"
  />
<missing-glyph 
 />
    <glyph glyph-name=".notdef" 
 />
    <glyph glyph-name="dv_chandrabindu" unicode="&#x901;" horiz-adv-x="1415" 
d="M596 1662l215 147l79 -147l-216 -146zM420 1735l61 -113q0 -29 2 -67t15.5 -71.5t45 -56.5t90.5 -23q48 0 94.5 22t88 53t74.5 65.5t53 60.5l79 52l62 -118q-16 -22 -44 -53.5t-65 -65.5t-81 -67t-91.5 -60t-95.5 -43.5t-93 -16.5q-66 0 -114 23t-81 60.5t-52.5 85.5
t-28.5 97.5t-9 96.5t6 83z" />
    <glyph glyph-name="dv_bindu" unicode="&#x902;" horiz-adv-x="0" 
d="M-209 1621l304 198l115 -198l-300 -199z" />
    <glyph glyph-name="dv_visarga" unicode="&#x903;" horiz-adv-x="901" 
d="M382 954l312 206l116 -206l-308 -207zM90 326l312 206l116 -206l-309 -207z" />
    <glyph glyph-name="dv_short_a" unicode="&#x904;" horiz-adv-x="1839" 
d="M1944 1193h-255l-557 -1193l-119 88l233 501q-53 -18 -92 -25t-74 -7q-11 0 -17.5 0.5t-12.5 1.5q-30 7 -68 26.5t-83 52.5q-5 -32 -14.5 -66t-23.5 -63q-66 -139 -214 -224q-137 -75 -287 -75q-316 0 -317 476l97 43q1 -63 10.5 -116.5t29.5 -98.5q66 -153 226 -155
q95 -2 208 75q55 38 93.5 78t58.5 83q31 67 14 117q-21 49 -65 53q-5 0 -31.5 -8.5t-77.5 -25.5q-53 -18 -95 -27.5t-76 -10.5q-62 111 -38 163q93 36 193 42q54 3 86 5.5t42 4.5q19 9 43 25t50 36q32 26 58 56t43 59q29 54 3 105q-33 56 -120 46q-37 -5 -158 -48
q-62 -23 -106 -35t-69 -13l-4 148q198 68 314 73q127 5 211 -93q104 -116 49 -232q-43 -94 -199 -209q23 -32 54.5 -55.5t75.5 -41.5q77 -34 122 -28q57 7 121 29t133 58l189 405h-296l-120 149h727zM1313 1583q-41 0 -75 17t-61 56t-48 103.5t-34 160.5l83 57l62 -112
q3 -24 7 -44t13.5 -34.5t26.5 -23t46 -8.5h149q60 0 99.5 -27.5t66.5 -74t44.5 -107t32.5 -126.5q4 -14 8.5 -33t8.5 -35l-86 -59l-61 116q-5 38 -11.5 70t-20.5 55t-37.5 36t-62.5 13h-150z" />
    <glyph glyph-name="dv_a" unicode="&#x905;" horiz-adv-x="1836" 
d="M1939 1193h-255l-557 -1193l-119 88l233 501q-53 -18 -92 -25t-74 -7q-11 0 -17.5 0.5t-12.5 1.5q-30 7 -68 26.5t-83 52.5q-5 -32 -14.5 -66t-23.5 -63q-66 -139 -214 -224q-137 -75 -287 -75q-316 0 -317 476l97 43q1 -63 10.5 -116.5t29.5 -98.5q66 -153 226 -155
q95 -2 208 75q55 38 93.5 78t58.5 83q31 67 14 117q-21 49 -65 53q-5 0 -31.5 -8.5t-77.5 -25.5q-53 -18 -95 -27.5t-76 -10.5q-62 111 -38 163q93 36 193 42q54 3 86 5.5t42 4.5q19 9 43 25t50 36q32 26 58 56t43 59q29 54 3 105q-33 56 -120 46q-37 -5 -158 -48
q-62 -23 -106 -35t-69 -13l-4 148q198 68 314 73q127 5 211 -93q104 -116 49 -232q-43 -94 -199 -209q23 -32 54.5 -55.5t75.5 -41.5q77 -34 122 -28q57 7 121 29t133 58l189 405h-296l-82 149h691z" />
    <glyph glyph-name="dv_aa" unicode="&#x906;" horiz-adv-x="2132" 
d="M2269 1193h-260l-556 -1193l-129 62l528 1131h-143l-556 -1193l-119 88l233 501q-54 -18 -93 -25t-74 -7q-11 0 -17.5 0.5t-12.5 1.5q-62 14 -151 79q-5 -32 -14.5 -66t-23.5 -63q-66 -139 -213 -224q-138 -75 -288 -75q-314 0 -317 476l97 43q1 -63 10.5 -116.5
t29.5 -98.5q67 -154 226 -155q95 -2 208 75q111 75 152 161q31 67 14 117q-18 50 -66 53q-6 -1 -32.5 -9.5t-75.5 -24.5q-105 -37 -171 -38q-60 112 -37 163q92 36 193 42q53 3 85 5.5t43 4.5q18 9 42.5 25t49.5 36q32 26 58 56t43 59q29 54 3 105q-33 56 -120 46
q-38 -5 -157 -48q-63 -23 -107 -35t-69 -13l-4 148q198 68 314 73q127 5 211 -93q52 -58 65 -115t-15 -117q-22 -48 -72 -100t-128 -109q23 -32 55 -55.5t75 -41.5q78 -34 123 -28q57 7 120.5 29t133.5 58l189 405h-296l-78 149h1025z" />
    <glyph glyph-name="dv_i" unicode="&#x907;" horiz-adv-x="887" 
d="M970 1193h-216l-121 -259q-23 -33 -68 -41l-318 2q-62 -11 -107.5 -39.5t-67.5 -75.5q-23 -48 -11 -79t55 -44q32 -2 200 37q8 1 16.5 2t18.5 1q47 0 73 -36q46 -67 53 -135.5t-27 -140.5q-37 -78 -160 -161q-70 -46 -139.5 -74t-148.5 -42q34 -76 71.5 -161t69.5 -160
l-119 -66q-62 174 -98 264.5t-48 98.5l2 -2q-111 30 -123 37q-74 45 -40 146q16 42 70 84q58 41 98 37q37 -4 64 -83q24 -68 23 -68q110 15 214 67q66 34 111.5 76t68.5 91q13 26 8 55h1q-9 29 -43 24q-6 -1 -31 -7t-65 -17q-37 -11 -66 -17t-42 -5q-93 6 -142 107
q-26 55 -26 124.5t23 143.5q14 39 43.5 71t74.5 54q70 35 158 35h270l73 156h-597l-83 149h961z" />
    <glyph glyph-name="dv_ii" unicode="&#x908;" horiz-adv-x="891" 
d="M963 1193h-216l-121 -259q-21 -31 -66 -39h-321q-61 -11 -106 -39.5t-67 -75.5q-23 -48 -11 -79t55 -44q32 -2 200 37q8 1 16.5 2t18.5 1q47 0 73 -36q93 -134 27 -276q-18 -39 -58.5 -79t-102.5 -82q-70 -46 -139.5 -74t-148.5 -42q34 -76 71.5 -161t69.5 -160l-119 -66
q-120 343 -146 363l2 -2q-111 30 -123 37q-75 46 -40 146q8 22 25 42.5t45 41.5q58 41 98 37q37 -5 64 -83q24 -68 23 -68q110 15 214 67q66 34 111.5 76t68.5 91q13 26 8 55h1q-9 29 -43 24q-6 -1 -31 -7t-65 -17q-37 -11 -66 -17t-42 -5q-45 3 -80.5 32t-60.5 75
q-55 114 -2 269l-1 -1q13 39 42.5 71t74.5 54q70 35 158 35h268l73 156h-597l-71 149h762q-11 38 -24 76.5t-26 75.5q-28 129 23 239q47 101 141 171q98 71 191 72q112 2 149 -89q17 -41 16 -88t-18 -101l-68 -34q-20 162 -76 163t-113 -28q-38 -20 -68 -57t-50 -85
q-29 -79 -2 -206q22 -109 29 -109h99z" />
    <glyph glyph-name="dv_u" unicode="&#x909;" horiz-adv-x="1048" 
d="M1122 1193h-369q17 -38 23 -104q8 -93 -22 -154q-31 -69 -143 -133q-8 -5 -40 -19.5t-89 -40.5q-6 -4 -14 -6l30 -24t29 -24q30 -27 54 -59t35 -61q15 -42 13.5 -88.5t-21.5 -90.5q-59 -125 -225 -218q-152 -85 -276 -85q-211 0 -305 210q-59 134 -58 280l107 47
q14 -106 28 -173t27 -98q56 -134 197 -134q110 0 222 76q100 69 139 151q67 142 -138 241q-28 -7 -64.5 -11t-83.5 -7q-42 -3 -67 -4t-30 0q-22 10 -37 133l16 35q63 18 116 18q23 0 57.5 -4t76.5 -12q32 1 68.5 11.5t81.5 30.5q126 52 164 133q24 53 3 119q-18 65 -48 65
h-578l-66 149h1113z" />
    <glyph glyph-name="dv_uu" unicode="&#x90a;" horiz-adv-x="1454" 
d="M1539 1193h-781q2 -14 3.5 -25.5t3.5 -25.5q2 -17 4 -35.5t5 -35.5q3 -56 0 -96t-16 -66q-25 -56 -127 -109q-21 -9 -38 -17t-33 -15t-32.5 -14.5t-36.5 -16.5q19 -14 44.5 -34t60.5 -51q268 170 387 170q118 0 155 -107q17 -53 10 -113t-39 -129q-20 -42 -56.5 -94.5
t-88.5 -112.5q-45 -51 -90 -95.5t-85 -78.5l-111 83q292 268 341 372q65 140 -69 140q-32 0 -130 -49q-45 -23 -86 -46t-76 -46q5 -32 -3 -72t-29 -85q-59 -125 -225 -218q-152 -85 -277 -85q-105 0 -181 53.5t-123 156.5q-28 64 -43.5 136.5t-15.5 143.5l107 47
q14 -106 27.5 -173.5t27.5 -97.5q56 -134 198 -134q111 0 221 76q101 67 140 151q67 142 -138 241q-28 -7 -64.5 -11t-83.5 -7q-42 -3 -67.5 -4t-31.5 0q-20 9 -35 133l16 35q63 18 115 18q24 0 58.5 -4t76.5 -12q30 1 66.5 11.5t83.5 30.5q125 51 163 133q25 55 7 119
q-17 65 -48 65h-599l-65 149h1521z" />
    <glyph glyph-name="dv_ri" unicode="&#x90b;" horiz-adv-x="1600" 
d="M1127 4q-173 -96 -311 -96t-225 99q-87 100 -33 218q35 73 175 149q57 27 119 57t135 68q6 8 13 15q10 10 12 15q8 89 -5 134q-63 -25 -96.5 -38.5t-36.5 -14.5l1 1q-34 -11 -66 -17.5t-61 -7.5q-9 0 -25.5 3t-38.5 8.5t-48 13t-52 15.5l-3 -7q-15 -32 -49.5 -107
t-89.5 -196l-147 -316l-124 90l196 424q-152 -82 -307 -165.5t-307 -164.5l-76 110l766 394q-19 22 -41.5 47.5t-42.5 46.5q-35 35 -71.5 52t-72.5 17q-35 0 -72 -6t-72 -16q-24 -7 -51.5 -16.5t-61.5 -21.5q-3 11 -8 27t-10.5 34t-11.5 37t-11 37q180 74 314 74
q80 0 136 -46q14 -13 33.5 -36t42.5 -57q29 -43 55 -66l186 398h-681l-76 149h1676l74 -149h-829l-216 -462q-1 -5 40 -16q51 -12 76 -9q31 3 95.5 29t171.5 80q2 7 3 19t3 28q1 2 0.5 2t-0.5 2l1 -1q2 23 6 40.5t10 31.5q7 14 19 28t25 25q23 15 48 15q22 0 60 -16l113 -74
h-1q55 -30 27 -81q-14 -28 -168 -96q0 -65 0.5 -128t0.5 -128q-7 -56 -40 -75l-368 -165h1q-50 -25 -74 -79q-30 -63 3 -103q36 -41 101 -41q58 0 263 97z" />
    <glyph glyph-name="dv_li" unicode="&#x90c;" horiz-adv-x="1549" 
d="M40 26l-61 113q-6 11 -11.5 21.5t-10.5 21.5q-34 64 -61 121t-40 112.5t-8 113t35 122.5q35 76 88.5 134.5t115.5 99t128.5 61.5t128.5 21q43 -1 75 -10.5t57 -27.5t45.5 -45t40.5 -64q72 58 137.5 91.5t127.5 47.5l110 237h-940l-50 146h1606l59 -146h-506l-115 -248
q49 -18 84.5 -56t51.5 -89.5t10.5 -115t-38.5 -133.5q-18 -38 -45.5 -71t-62 -63t-75.5 -58.5t-86 -59.5q-12 -9 -24.5 -18t-25.5 -18q-29 -21 -50.5 -38.5t-37 -33.5t-26.5 -32t-20 -34q-14 -29 -4 -50.5t40 -21.5q20 0 37 4t33 11.5t32.5 18t36.5 22.5q8 5 11.5 7.5
t8.5 5.5l75 51l63 -120q-100 -85 -177 -128t-137 -43q-43 0 -83 26.5t-66.5 69.5t-32 98t20.5 111q12 25 26.5 45t31 37t35.5 32t40 30l13 9q17 11 32 22.5t30 22.5q45 32 83.5 60t69.5 55t54 54t37 57q21 45 22.5 78.5t-11 56.5t-38 34.5t-59.5 11.5q-77 0 -163 -56
t-176 -147l-75 -53l-63 120q21 24 40.5 44t33.5 34q-22 25 -56 41.5t-85 16.5q-44 0 -88 -13t-83.5 -38.5t-73 -64t-57.5 -89.5q-23 -49 -26 -98t8 -99t32 -102t46 -107q10 -22 21.5 -48.5t22.5 -49.5z" />
    <glyph glyph-name="dv_e_chandra" unicode="&#x90d;" horiz-adv-x="1002" 
d="M526 -144q-5 -31 -64 -90h1q-29 -30 -55 -52t-49 -36q-14 5 -74 120q11 12 25.5 28.5t25.5 27.5v-1q14 16 23 28.5t13 20.5q2 11 -17 35t-52 57q-83 72 -195 169t-252 219q-27 25 -33 57t12 70l319 684h-161l-91 149h1100l79 -149h-201l-319 -684q-37 -78 -120 -78
q-148 0 -197 17q-11 31 -21 64.5t-19 71.5h183q23 8 39 20t24 27l262 562h-391l-321 -688q-29 -60 22 -108q84 -72 199 -172t259 -225q60 -55 46 -144zM719 2014l59 -114q0 -31 3 -69t18 -71t46 -55.5t88 -22.5q48 0 95 21.5t89 52.5t75.5 66t53.5 61l76 52l63 -117
q-16 -23 -44 -54.5t-64.5 -65.5t-80 -67.5t-90 -60t-95.5 -43.5t-97 -17q-65 0 -113.5 23t-82 60.5t-54 85.5t-29.5 97.5t-8.5 97t9.5 83.5z" />
    <glyph glyph-name="dv_e_short" unicode="&#x90e;" horiz-adv-x="1016" 
d="M526 -144q-5 -31 -64 -90h1q-29 -30 -55 -52t-49 -36q-14 5 -74 120q11 12 25.5 28.5t25.5 27.5v-1q14 16 23 28.5t13 20.5q2 11 -17 35t-52 57q-83 72 -195 169t-252 219q-27 25 -33 57t12 70l319 684h-161l-73 149h1096l65 -149h-201l-319 -684q-37 -78 -120 -78
q-148 0 -197 17q-11 31 -21 64.5t-19 71.5h183q23 8 39 20t24 27l262 562h-391l-321 -688q-29 -60 22 -108q84 -72 199 -172t259 -225q60 -55 46 -144zM540 1583q-41 0 -75 17t-61 56t-48 103.5t-34 160.5l83 57l62 -112q3 -24 7 -44t13.5 -34.5t26.5 -23t46 -8.5h149
q60 0 99.5 -27.5t66.5 -74t44.5 -107t32.5 -126.5q4 -14 9 -33t8 -35l-86 -59l-61 116q-5 38 -11.5 70t-20.5 55t-37.5 36t-62.5 13h-150z" />
    <glyph glyph-name="dv_e" unicode="&#x90f;" horiz-adv-x="1020" 
d="M536 -144q-5 -31 -64 -90h1q-29 -30 -55 -52t-49 -36q-14 5 -74 120q11 12 25.5 28.5t25.5 27.5v-1q14 16 23 28.5t13 20.5q2 11 -17 35t-52 57q-83 72 -195 169t-252 219q-27 25 -33 57t12 70l319 684h-161l-65 149h1085l68 -149h-201l-319 -684q-37 -78 -120 -78
q-148 0 -197 17q-11 31 -21 64.5t-19 71.5h183q23 8 39 20t24 27l262 562h-391l-321 -688q-29 -60 22 -108q84 -72 199 -172t259 -225q60 -55 46 -144z" />
    <glyph glyph-name="dv_ai" unicode="&#x910;" horiz-adv-x="1001" 
d="M535 -144q-5 -31 -64 -90h1q-29 -30 -55 -52t-49 -36q-14 5 -74 120q11 12 25.5 28.5t25.5 27.5v-1q14 16 23 28.5t13 20.5q2 11 -17 35t-52 57q-83 72 -195 169t-252 219q-27 25 -33 57t12 70l319 684h-161l-84 149h1088l84 -149h-201l-319 -684q-37 -78 -120 -78
q-148 0 -197 17q-11 31 -21 64.5t-19 71.5h183q23 8 39 20t24 27l262 562h-391l-321 -688q-29 -60 22 -108q84 -72 199 -172t259 -225q60 -55 46 -144zM834 1294q-3 7 -19 52t-42 120q-7 21 -14.5 44t-16.5 49q-29 86 -59 142t-59 73q-17 11 -49 11q-27 0 -64 -7t-84 -21
l-25 209l56 30q21 2 40 3.5t38 1.5q56 0 118 -28q30 -16 68 -89.5t75 -184.5q11 -38 24.5 -85t27 -96.5t25 -97t19.5 -87.5z" />
    <glyph glyph-name="dv_o_chandra" unicode="&#x911;" horiz-adv-x="1864" 
d="M1955 1193h-260l-555 -1193l-130 62l528 1131h-143l-555 -1193l-120 88l233 501q-53 -18 -92 -25t-74 -7q-11 0 -18 0.5t-12 1.5q-30 7 -68 26.5t-83 52.5q-5 -32 -15 -66t-24 -63q-66 -139 -213 -224q-137 -75 -287 -75q-316 0 -317 476l97 43q1 -63 10 -116.5t29 -98.5
q67 -153 226 -155q97 -2 208 75q113 76 153 161q31 67 14 117q-20 50 -66 53q-6 -1 -32.5 -9.5t-75.5 -24.5q-107 -37 -172 -38q-60 112 -37 163q93 36 193 42q53 3 85 5.5t43 4.5q19 9 43 25t50 36q32 26 58 56t43 59q14 26 15.5 52.5t-12.5 52.5q-17 28 -46 39.5t-74 6.5
q-36 -4 -158 -48q-62 -23 -106 -35t-69 -13l-5 148q199 68 315 73q127 5 211 -93q51 -58 64 -115t-15 -117q-43 -94 -199 -209q23 -32 54.5 -55.5t74.5 -41.5q79 -34 123 -28q57 7 121 29t133 58l189 405h-296l-85 149h1014zM1508 2033l60 -112q-1 -31 2 -69t18 -71.5
t46 -56t87 -22.5q48 0 95 21.5t89 53t75 65.5t53 60l78 53l64 -115q-17 -23 -45 -55t-64.5 -66t-79.5 -67.5t-90 -60t-96 -43.5t-97 -17q-65 0 -113 23t-82 60.5t-54.5 85t-29.5 97t-8.5 96.5t8.5 83z" />
    <glyph glyph-name="dv_o_short" unicode="&#x912;" horiz-adv-x="1936" 
d="M1233 1563q-42 0 -76 16.5t-61 55.5t-47.5 103.5t-34.5 160.5l85 58l63 -113q1 -24 5.5 -44t14 -35t27 -23t44.5 -8h148q61 1 100 -23.5t64.5 -67t42 -100t32.5 -122.5q5 -17 9.5 -38t9.5 -41h278l101 -149h-260l-555 -1193l-130 62l528 1131h-143l-555 -1193l-120 88
l233 501q-53 -18 -92 -25t-74 -7q-11 0 -18 0.5t-12 1.5q-30 7 -68 26.5t-83 52.5q-5 -32 -15 -66t-24 -63q-66 -139 -213 -224q-137 -75 -287 -75q-316 0 -317 476l97 43q1 -63 10 -116.5t29 -98.5q67 -153 226 -155q97 -2 208 75q113 76 153 161q31 67 14 117
q-20 50 -66 53q-6 -1 -32.5 -9.5t-75.5 -24.5q-107 -37 -172 -38q-60 112 -37 163q93 36 193 42q53 3 85 5.5t43 4.5q19 9 43 25t50 36q32 26 58 56t43 59q14 26 15.5 52.5t-12.5 52.5q-17 28 -46 39.5t-74 6.5q-36 -4 -158 -48q-62 -23 -106 -35t-69 -13l-5 148
q199 68 315 73q127 5 211 -93q51 -58 64 -115t-15 -117q-43 -94 -199 -209q23 -32 54.5 -55.5t74.5 -41.5q79 -34 123 -28q57 7 121 29t133 58l189 405h-296l-85 149h604q-7 13 -13 24l-12 22q-6 39 -13 71t-21 55t-37 36t-62 13h-150z" />
    <glyph glyph-name="dv_o" unicode="&#x913;" horiz-adv-x="2035" 
d="M2132 1193h-258l-555 -1193l-110 95l512 1098h-172l-555 -1193l-121 88l233 501q-53 -18 -92 -25t-74 -7q-11 0 -18 0.5t-12 1.5q-30 7 -68 26.5t-83 52.5q-5 -32 -14.5 -66t-23.5 -63q-66 -139 -214 -224q-137 -75 -287 -75q-316 0 -317 476l97 43q1 -63 10.5 -116.5
t29.5 -98.5q66 -153 226 -155q95 -2 208 75q55 38 93.5 78t58.5 83q31 67 14 117q-21 49 -65 53q-5 0 -31.5 -8.5t-77.5 -25.5q-53 -18 -95 -27.5t-76 -10.5q-62 111 -38 163q93 36 193 42q54 3 86 5.5t42 4.5q19 9 43 25t50 36q32 26 58 56t43 59q29 54 3 105
q-33 56 -120 46q-37 -5 -158 -48q-62 -23 -106 -35t-69 -13l-4 148q198 68 314 73q127 5 211 -93q104 -116 49 -232q-43 -94 -199 -209q23 -32 54.5 -55.5t75.5 -41.5q77 -34 122 -28q57 7 121 29t133 58l189 405h-296l-24 149h752q-9 46 -28 114t-47 156v-1
q-69 172 -148 182q-14 2 -36 -0.5t-54 -9.5q-65 -14 -74 -12q-14 9 -39 193q42 45 131 45q142 0 209 -117q7 -13 32 -78.5t69 -185.5q15 -49 35 -119t46 -167h212z" />
    <glyph glyph-name="dv_ou" unicode="&#x914;" horiz-adv-x="2033" 
d="M2138 1193h-269l-557 -1193l-119 90l515 1103h-166l-556 -1193l-120 88l233 501q-53 -18 -92 -25t-74 -7q-11 0 -17.5 0.5t-12.5 1.5q-30 7 -68 26.5t-83 52.5q-5 -32 -14.5 -66t-23.5 -63q-66 -139 -214 -224q-137 -75 -287 -75q-316 0 -317 476l97 43
q1 -63 10.5 -116.5t29.5 -98.5q66 -153 226 -155q95 -2 208 75q55 38 93.5 78t58.5 83q31 67 14 117q-21 49 -65 53q-5 0 -31.5 -8.5t-77.5 -25.5q-53 -18 -95 -27.5t-76 -10.5q-62 111 -38 163q93 36 193 42q54 3 86 5.5t42 4.5q19 9 43 25t50 36q32 26 58 56t43 59
q29 54 3 105q-33 56 -120 46q-37 -5 -158 -48q-62 -23 -106 -35t-69 -13l-4 148q198 68 314 73q127 5 211 -93q104 -116 49 -232q-43 -94 -199 -209q23 -32 54.5 -55.5t75.5 -41.5q77 -34 122 -28q57 7 121 29t133 58l189 405h-296l-24 149h704q-113 343 -223 341
q-17 0 -53.5 -10t-92.5 -32q-8 83 -8 141t10 92q42 52 93 43q125 -25 235 -243q38 -78 67 -160t48 -170h13q11 56 20 106.5t16 98.5q15 113 16 201t-14 136q-21 65 -86 65q-22 0 -77 -13l25 109q17 73 35 111q28 63 67 63q56 0 91 -54t49 -156q9 -84 6 -175.5t-20 -176.5
q-11 -58 -26 -135.5t-34 -181.5h209z" />
    <glyph glyph-name="dv_k" unicode="&#x915;" horiz-adv-x="1549" 
d="M1655 1193h-701l-193 -413q20 9 42.5 20t43.5 22q88 41 142 47q8 1 17 1.5t19 0.5q131 0 154 -137q20 -130 -48 -264q-88 -173 -300 -353l-75 130q45 42 94 87.5t95 87.5l-1 -1q94 96 129 170q65 138 -82 134q-30 0 -151 -57q-60 -27 -103 -49t-69 -39l-270 -580l-124 92
l171 366q-29 -13 -66.5 -30.5t-65.5 -31.5q-60 -24 -111 -36t-95 -14q-130 -2 -198 101h1q-77 113 -8 260q55 116 167 191q126 84 285 84q66 0 115 -20.5t81 -56.5q12 -17 26 -45.5t25 -66.5l187 400h-787l-124 149h1661zM546 653q-2 3 -2 10q5 4 12 8zM293 529
q41 19 104.5 53t146.5 81q-58 175 -244 175q-83 0 -162 -45q-98 -54 -144 -156q-37 -78 1 -124q29 -39 94 -39q40 0 92 14.5t112 40.5z" />
    <glyph glyph-name="dv_kh" unicode="&#x916;" horiz-adv-x="1560" 
d="M1645 1193h-211l-560 -1201l-112 112l191 409q-215 -114 -300 -107q-126 10 -182 108v-1q-64 101 -4 232q30 66 81 121t115 93q54 30 111.5 47.5t111.5 17.5q106 0 163 -60q17 -17 32.5 -50t27.5 -71l163 350h-739l-192 -412q-20 -42 -46 -78t-58 -67q-14 -14 -46 -37
t-81 -58q35 -64 128.5 -181t250.5 -291q-11 -10 -29 -26t-32 -30q-5 -5 -17.5 -17t-19.5 -18q-45 54 -117.5 143.5t-169.5 207.5q-36 46 -70.5 96t-60.5 99q-81 150 -49 221q20 42 48 63.5t60 16.5q26 -3 52 -16.5t53 -35.5q3 -3 9 -3q33 0 99 143l131 280h-361
q0 14 -0.5 32.5t-0.5 38.5v40.5v37.5h1627zM1058 695q-2 4 -1 7q4 4 7 6zM868 598q139 64 189 104q-11 83 -64.5 130.5t-138.5 47.5q-90 0 -179 -58q-87 -57 -122 -135q-29 -66 -6 -105.5t95 -52.5q32 -4 89 13.5t137 55.5z" />
    <glyph glyph-name="dv_g" unicode="&#x917;" horiz-adv-x="1229" 
d="M1295 1193h-247l-557 -1193l-131 56l530 1137h-377l-268 -574q-32 -70 -80 -118l1 1q-60 -62 -114 -62q-53 0 -93 117q-17 56 -22 92t3 54q37 82 120 82h8t8 -1q2 0 3.5 -0.5t3.5 -0.5h22q54 0 76 48l169 362q-85 0 -172 -1t-172 -1l-74 151h1297z" />
    <glyph glyph-name="dv_gh" unicode="&#x918;" horiz-adv-x="1204" 
d="M1303 1193h-236l-557 -1193l-115 88l195 420q-41 -21 -81 -43t-79 -44q-149 -68 -260 -68q-74 0 -130 23.5t-93 68.5q-38 48 -44 104.5t23 119.5q40 84 116 142q23 17 56 35.5t77 37.5q-60 48 -89.5 89t-29.5 79q1 17 5.5 36.5t14.5 41.5q8 15 16 29.5t22 33.5h-109
l-17 149h1283zM908 1193h-558q-33 -13 -72 -50q-20 -20 -32.5 -39t-17.5 -37q-12 -45 -0.5 -81.5t50.5 -65.5q181 0 226 -58q3 -43 1 -72.5t-7 -46.5q-14 -30 -39 -33q-25 8 -73.5 19t-110.5 19q-35 1 -72.5 -10.5t-75.5 -33.5q-36 -22 -61.5 -47.5t-36.5 -54.5
q-24 -63 3 -109q15 -20 42.5 -31t64.5 -9q44 2 112.5 27t161.5 74l-1 -1q69 38 133.5 74t132.5 74z" />
    <glyph glyph-name="dv_nga" unicode="&#x919;" horiz-adv-x="1352" 
d="M1229 759l-216 -148l-85 154l222 143zM1537 1193h-466l-96 -206q-21 -55 -55 -84t-79 -29h-368q-46 0 -104 -40q-57 -40 -80 -91q-60 -128 51 -128q8 0 31.5 3t64.5 10q50 8 99.5 14t93.5 10q59 3 104.5 -27.5t66.5 -83.5q33 -106 -16 -212q-32 -67 -88.5 -121.5
t-137.5 -97.5q-138 -72 -254 -70q-225 5 -361 209q-33 49 -128 275l100 58q84 -223 132 -275q95 -119 292 -120q93 0 188 53q53 30 92 69.5t66 87.5q24 50 22.5 76.5t-43.5 26.5q-12 -2 -24 -2.5t-25 -2.5q-15 -2 -33 -4t-41 -4q-128 -12 -210 -12q-18 0 -34.5 0.5
t-29.5 1.5q-72 8 -101 130q-14 60 -8.5 118t31.5 112q21 44 53.5 78t74.5 58q37 21 77.5 33t81.5 12h353l82 175h-796l-13 149h1421z" />
    <glyph glyph-name="dv_c" unicode="&#x91a;" horiz-adv-x="1342" 
d="M1427 1193h-260l-555 -1193l-117 88l165 354q-58 -30 -115 -55.5t-109.5 -44t-99 -28.5t-82.5 -10q-138 0 -207 94q-69 97 -13 217q43 92 136 173q-60 -1 -122.5 -2t-120.5 -2l-12 150h833l21 -130l-229 -2q-270 -2 -389 -257q-65 -138 100 -138q85 0 281 110
q74 40 129 74t88 60q64 137 127 270t128 272h-1006l-23 149h1430z" />
    <glyph glyph-name="dv_ch" unicode="&#x91b;" horiz-adv-x="1370" 
d="M1505 1193h-373l-76 -162q73 -51 97 -145q21 -112 -45 -244q-46 -91 -130.5 -182.5t-207.5 -186.5q-128 -98 -304 -169q-88 -35 -159 -51.5t-127 -16.5q-163 0 -256 94q-93 96 -37 217q20 43 64.5 87.5t101.5 82.5q-181 122 -91 268q123 203 346 215q13 1 26 1.5t25 0.5
q48 0 80.5 -6.5t54.5 -19.5q8 -27 11 -63.5t3 -82.5q-66 12 -113.5 18t-70.5 7q-94 -7 -161 -45.5t-99 -108.5q-23 -51 31 -87h-1q45 -24 94 -24q22 4 47.5 8t49.5 7t45 4.5t36 1.5q49 0 62 -14l17 -120l-22 -31l-166 4q-106 -22 -173.5 -68.5t-91.5 -114.5
q-38 -114 136 -114q72 0 153.5 20.5t166.5 55.5q77 35 155 82t150 102q-32 33 -63.5 64.5l-63.5 63.5q-88 122 -32 246q83 178 315 261l68 145h-907l-16 149h1435zM1010 723q17 40 26.5 74.5t9.5 63.5v-1q-3 75 -73 75q-58 0 -131 -59q-72 -59 -95 -118q-32 -80 -11.5 -148
t96.5 -128q121 116 178 241z" />
    <glyph glyph-name="dv_j" unicode="&#x91c;" horiz-adv-x="1339" 
d="M1425 1193h-218l-555 -1193l-124 78l337 722h-353q17 -41 28.5 -71.5t17.5 -50.5q24 -112 -19 -201q-26 -54 -66.5 -94t-95.5 -69q-90 -45 -190 -45q-273 0 -273 567l104 45q-4 -73 1 -136t19 -118q49 -193 196 -197q46 -1 98 31q61 38 89 98q50 107 -18 215l1 -1
q-14 15 -31.5 34.5t-35 39.5t-35 39.5t-31.5 35.5q12 0 30.5 9t35.5 27h601l110 235h-1018l-10 149h1392z" />
    <glyph glyph-name="dv_jh" unicode="&#x91d;" horiz-adv-x="1346" 
d="M1534 1193h-227l-556 -1193l-118 84l229 492q-32 -7 -69.5 -11t-77.5 -6q-74 -3 -128 16q2 -20 1.5 -42t-2.5 -42q0 -59 -19 -100q-46 -97 -172 -180q-67 -43 -140 -71.5t-156 -41.5q21 -54 59.5 -132.5t93.5 -184.5l-112 -77q-54 162 -92.5 254.5t-65.5 117.5
q-223 18 -152 188q8 19 21 37t34 35h-1q44 35 92 35q45 0 63 -53q6 -22 11.5 -42t11.5 -43q69 3 133.5 22t127.5 54q113 66 153 145q9 16 11.5 31.5t-1.5 27.5t-15.5 19.5t-31.5 9.5q-39 -9 -86 -20t-86 -20q-17 -4 -40 -4q-35 0 -65 13q-75 33 -96 152q-20 121 20 215
q27 63 102 105q83 47 186 47l245 2q6 2 9.5 3t10.5 5l72 153h-582l-21 149h1415zM1150 1193h-293l-97 -207q-47 -102 -116 -102h-300q-49 0 -105 -38q-56 -39 -69 -78q-25 -68 15 -100q28 -22 81 -16h-1q39 8 78 17t79 17q8 1 17 1h18q35 0 65.5 -7t55.5 -23q49 0 93.5 5.5
t84.5 16.5q57 14 101.5 28.5t79.5 29.5z" />
    <glyph glyph-name="dv_nya" unicode="&#x91e;" horiz-adv-x="1319" 
d="M1475 1193h-203l-559 -1193l-121 82l225 487q-49 -3 -96 -7t-97 -8q-170 -234 -444 -234q-254 0 -336 354l96 55q42 -130 89 -184q63 -81 174 -81q113 0 223 80q103 73 153 168q26 55 11 101q-13 46 -63 46q-14 0 -79 -36t-183 -110l-72 134q158 115 312 115
q151 0 192 -109q27 -75 4 -145q42 5 88 11t106 17l213 457h-1030l-14 149h1395z" />
    <glyph glyph-name="dv_tt" unicode="&#x91f;" horiz-adv-x="1087" 
d="M1219 1193h-303l-204 -437l-66 -31l-420 -93q-35 -8 -70.5 -27t-67.5 -48q-65 -58 -85 -120q-25 -78 3 -135q41 -76 178 -78q23 -1 81.5 12.5t154.5 43.5h-1q79 25 144 48t115 42l2 -146q-279 -137 -468 -132q-182 4 -273 115q-118 151 -37 324q86 185 253 238l421 93
q8 4 12.5 7t12.5 8l148 316h-683l-18 149h1162z" />
    <glyph glyph-name="dv_tth" unicode="&#x920;" horiz-adv-x="1167" 
d="M1308 1193h-361q2 -20 3 -40.5t1 -41.5q2 -26 -6 -57t-24 -63q-54 -106 -205 -206q38 -19 66 -43.5t48 -56.5q64 -107 1 -242q-70 -150 -255 -266q-185 -115 -346 -115q-215 0 -315 151q-53 75 -56 160.5t42 181.5q62 132 191 204q48 26 111 46.5t140 32.5q60 9 119.5 17
t119.5 16q124 23 195 163q50 100 15 159h-713l-20 149h1238zM696 487q94 202 -97 242q-76 -11 -151 -23t-152 -23h1q-230 -54 -308 -224q-52 -108 25 -186q68 -74 182 -74q136 0 283 78q80 42 133.5 94.5t83.5 115.5z" />
    <glyph glyph-name="dv_dd" unicode="&#x921;" horiz-adv-x="1154" 
d="M1344 1193h-288l-137 -294l-31 -21h-392q-145 0 -211 -115q-12 -22 -18.5 -44t-4.5 -45h-1q3 -21 10.5 -36t23.5 -24q64 11 145 22t184 25q58 7 104 -18t76 -76q62 -105 6 -228q-27 -58 -74.5 -108t-113.5 -92q-149 -93 -328 -93q-106 0 -197.5 52t-161.5 147
q-21 31 -41 67t-36 74t-28.5 76.5t-18.5 74.5l97 49q3 -11 8 -25.5t8 -25.5q8 -23 15 -46.5t14 -48.5h-1q39 -103 108 -167q48 -36 114.5 -58t142.5 -22q110 0 225 59q118 59 162 155q46 97 -45 97q-4 0 -15.5 -0.5t-34.5 -2.5t-58 -7t-85 -15q-53 -11 -90 -16.5t-60 -6.5
q-124 -8 -163 139q-34 132 23 256q37 78 130 127l-2 -1q82 45 157 45h368l80 171h-809l-28 149h1250z" />
    <glyph glyph-name="dv_ddh" unicode="&#x922;" horiz-adv-x="1165" 
d="M1286 1193h-276l-162 -347h-339q-358 0 -496 -293q-45 -99 -23 -195q29 -116 168 -156q11 118 59 221q51 111 161 186q111 75 240 69q107 -6 135 -106q32 -98 -37 -245q-28 -60 -76 -109.5t-117 -91.5q-136 -82 -274 -82q-238 0 -335 234q-37 91 -34 198q2 51 12.5 97
t27.5 84q162 338 606 338h229l93 198h-800l-23 149h1253zM676 439q4 34 -25 63q-15 15 -33 21.5t-38 6.5q-71 0 -146 -47q-37 -23 -67 -52.5t-53 -63.5q-9 -14 -18 -31t-17 -35q-11 -23 -22 -49t-22 -56q11 -1 19.5 -1.5t18.5 -0.5q78 0 154 31q188 72 235 173q5 9 8 19.5
t6 22.5v-1z" />
    <glyph glyph-name="dv_nn" unicode="&#x923;" horiz-adv-x="1370" 
d="M1427 1193h-201l-556 -1193l-132 58l529 1135h-263l-274 -588q-35 -72 -134 -136q-57 -35 -112.5 -52t-112.5 -15h1q-118 4 -188 114q-70 111 -19 221l213 456h-179l-11 149h1427zM638 1193h-292l-248 -532q-33 -72 -23 -100q13 -35 93 -41q64 -6 135 48q32 26 55.5 51.5
t34.5 49.5z" />
    <glyph glyph-name="dv_t" unicode="&#x924;" horiz-adv-x="1086" 
d="M1198 1193h-205l-554 -1193l-131 68l341 730h-318q-72 0 -147 -54q-90 -65 -150 -191q-47 -103 -14 -243l1 1q14 -58 30 -120t32 -119l-111 -59q-23 60 -41 125t-29 136q-36 240 29 379q76 162 232 243q125 64 266 64h297l109 233h-778l-16 149h1145z" />
    <glyph glyph-name="dv_th" unicode="&#x925;" horiz-adv-x="1251" 
d="M1362 1193h-202l-559 -1193l-128 80l180 386q-108 -59 -150 -78q-139 -58 -245 -58q-240 0 -369 295l12 25q40 13 92.5 33.5t112.5 46.5q48 21 88.5 40t67.5 34q-66 45 -104 71.5t-43 30.5q-73 78 -13 206q25 54 68 100t98 80q116 72 218 70q52 -1 96.5 -21.5t76.5 -57.5
q41 -50 45 -113.5t-31 -141.5q-72 -156 -230 -257q-75 -48 -161 -94.5t-188 -94.5q1 -132 136 -139q48 -3 130 26t187 85q97 52 150.5 87.5t61.5 52.5l233 499h-140l-39 149h538zM548 1070q15 32 21 59.5t4 51.5q-2 29 -18.5 45.5t-44.5 21.5q-29 5 -65.5 -7t-75.5 -40
q-81 -58 -118 -136q-49 -107 117 -198q57 38 105.5 91.5t74.5 111.5z" />
    <glyph glyph-name="dv_d" unicode="&#x926;" horiz-adv-x="1083" 
d="M440 19q24 43 -84 162q-27 -6 -54 -8.5t-55 -2.5q-238 0 -322 176q-73 149 8 360q3 8 6.5 15.5t6.5 15.5q57 121 174 188q119 67 275 67h249l94 201h-701l-5 149h1154l7 -149h-294l-164 -351h-330q-176 0 -279 -96q-27 -24 -52.5 -61.5t-48.5 -87.5q-102 -218 118 -290v1
q31 -10 69 -10q27 0 52 2.5t52 9.5q-8 105 8 139q5 12 32 37v-1q30 31 73 31q26 0 46 -13h-1l79 -44q32 -21 42 -46t0 -51q-11 -26 -48.5 -61t-101.5 -75q20 -17 40.5 -35.5t34.5 -36.5q84 -96 70 -164l-1 1q-6 -41 -67 -96q-62 -55 -101 -69l-127 108q55 20 80 32t42 25.5
t24 27.5z" />
    <glyph glyph-name="dv_dh" unicode="&#x927;" horiz-adv-x="1313" 
d="M1382 1193h-243l-557 -1193l-126 86l175 376q-38 -20 -75 -39.5t-74 -38.5q-145 -68 -252 -77q-8 -1 -17 -1.5t-18 -0.5q-129 0 -210 102q-43 57 -50.5 111.5t17.5 108.5q63 136 239 204q-193 156 -119 314q59 124 175 188q40 20 81 31t83 11q115 0 141 -82q10 -32 6 -69
t-24 -79q-67 -145 -291 -209q62 -44 281 -44h42q10 -48 13.5 -82.5t-1.5 -57.5q-5 -4 -9 -8q-4 -3 -8.5 -6.5t-6.5 -6.5q-25 0 -60 1q-30 1 -74.5 3t-102.5 5q-35 -7 -70.5 -23t-67.5 -39q-75 -52 -103 -113q-24 -52 7 -104q36 -50 107 -43q177 16 537 249l245 526h-277
l-25 149h696zM435 1128q13 22 16.5 41.5t-0.5 36.5q-8 39 -63 39q-49 0 -90 -29q-52 -33 -79 -96q-42 -92 -1 -132q88 29 141 63.5t76 76.5z" />
    <glyph glyph-name="dv_n" unicode="&#x928;" horiz-adv-x="1076" 
d="M1175 1193h-227l-556 -1193l-126 82l262 563h-328q-44 -6 -61 -44l-19 -40q-14 -31 -24.5 -51.5t-17.5 -29.5q-36 -52 -90 -52q-37 0 -67 113q-15 54 -18 94t4 64q6 17 21.5 33.5t40.5 29.5q46 25 93 25h532l190 406h-759l-18 149h1147z" />
    <glyph glyph-name="dv_n_nukta" unicode="&#x929;" horiz-adv-x="1098" 
d="M1186 1193h-227l-556 -1193l-126 82l262 563h-328q-44 -6 -61 -44l-19 -40q-14 -31 -24.5 -51.5t-17.5 -29.5q-36 -52 -90 -52q-37 0 -67 113q-15 54 -18 94t4 64q6 17 21.5 33.5t40.5 29.5q46 25 93 25h532l190 406h-759l-18 149h1147zM36 -270l216 146l77 -146
l-213 -145z" />
    <glyph glyph-name="dv_p" unicode="&#x92a;" horiz-adv-x="1076" 
d="M1139 1193h-232l-556 -1193l-139 77l202 432q-66 -26 -129.5 -43.5t-108.5 -19.5q-96 -5 -181 103q-90 118 -37 231l193 413h-134l-23 149h1136zM733 1193h-421l-217 -466q-66 -141 70 -141q106 0 334 106z" />
    <glyph glyph-name="dv_ph" unicode="&#x92b;" horiz-adv-x="1456" 
d="M1519 1193h-648l-197 -423q35 14 71.5 29t71.5 29q42 17 76.5 27t61.5 10q113 6 149 -85q21 -55 12 -143q-5 -45 -16.5 -86t-30.5 -80q-23 -49 -96.5 -139t-197.5 -223q-92 97 -84 112q2 6 28 33t77 81q8 9 16 17.5t19 19.5q68 71 111 125.5t63 92.5q29 57 12.5 90.5
t-72.5 33.5q-18 0 -38.5 -3.5t-43.5 -9.5q-17 -5 -33.5 -10t-27.5 -9q-56 -26 -108 -50.5t-109 -50.5l-269 -581l-125 89l194 408q-32 -10 -56 -16t-37 -10q-72 -19 -122 -19q-128 -2 -195 117q-66 122 -13 236l181 388h-149l-6 149h1522zM706 1193h-397l-188 -402
q-101 -218 53 -218q72 0 294 109z" />
    <glyph glyph-name="dv_b" unicode="&#x92c;" horiz-adv-x="1303" 
d="M1395 1193h-269l-556 -1193l-115 88l183 394q-44 -32 -81 -56t-68 -38q-75 -35 -158 -53.5t-175 -18.5q-122 0 -201 111q-40 58 -45.5 119t25.5 127q37 78 100.5 140.5t148.5 106.5q73 37 151.5 56t162.5 19q237 0 272 -230l200 428h-966l-18 149h1379zM643 685
q43 91 10 142q-25 46 -102 51q-50 3 -95 -3.5t-88 -23.5q17 -89 31 -173.5t29 -174.5q82 33 135 79t80 103zM270 817q-160 -70 -233 -224q-45 -98 24 -138q42 -25 100 -25h16.5t18.5 2q31 4 64.5 11.5t71.5 21.5z" />
    <glyph glyph-name="dv_bh" unicode="&#x92d;" horiz-adv-x="1308" 
d="M1352 1193h-201l-557 -1193l-127 72l183 392h-399q-2 -5 -4 -9.5t-4 -9.5q-2 -4 -3 -7.5t-3 -8.5l-24 -50q-45 -97 -107 -97q-52 0 -107 117q-28 60 -38 99.5t0 60.5q25 54 109 65h104l77 164q-60 15 -106.5 42t-77.5 66q-33 47 -40 108t22 125q52 115 160 180h-1
q86 53 177 53q61 0 97 -34t49 -100q10 -54 3.5 -105.5t-28.5 -99.5l-189 -404h405l268 574h-296l-16 149h658zM399 1079q69 150 -29 148q-49 0 -98 -43q-53 -44 -80 -103q-60 -133 113 -203z" />
    <glyph glyph-name="dv_m" unicode="&#x92e;" horiz-adv-x="1198" 
d="M1328 1193l-201 -2l-555 -1191l-135 78l188 404q-118 0 -230 1t-230 1q-22 -48 -36.5 -78.5t-19.5 -38.5q-20 -34 -44 -51t-50 -18q-40 0 -99 104q-61 108 -39 155q30 65 101 77l-7 -3q7 2 33.5 4t71.5 3l258 553h-273l-5 151h1266zM694 630l263 563h-455l-263 -563h455z
" />
    <glyph glyph-name="dv_y" unicode="&#x92f;" horiz-adv-x="1192" 
d="M1280 1193h-242l-553 -1193l-124 82l193 415q-41 -17 -82.5 -33t-82.5 -32q-56 -21 -103 -30.5t-86 -8.5q-75 2 -132.5 28t-95.5 72q-38 52 -52.5 126t-1.5 170q4 28 123 66q72 21 121 38.5t78 30.5q106 49 123 112q13 44 15 82.5t-9 74.5h-359l-21 149h1278zM875 1193
h-379q1 -114 -10 -188t-34 -106q-23 -30 -72 -62t-120 -61q-78 -32 -123.5 -53.5t-62.5 -32.5q-5 -8 -9.5 -15.5t-7.5 -15.5q-68 -148 112 -143q144 2 473 178z" />
    <glyph glyph-name="dv_r" unicode="&#x930;" horiz-adv-x="817" 
d="M903 1193h-319l-210 -450q-16 -35 -50.5 -72.5t-85.5 -76.5q-42 -32 -84 -56t-80 -38q59 -111 112.5 -214.5t112.5 -214.5l-108 -71q-15 33 -30.5 63t-31.5 59.5t-33 61t-35 69.5q-8 17 -19 40.5t-21 40.5q-9 20 -18.5 41.5t-18.5 42.5q-10 21 -18.5 42t-17.5 42
q-52 132 -22 195q47 102 124 93q5 -2 21 -10.5t40 -22.5q51 -27 73 -27q6 0 12 2.5t9 5.5l212 455h-406l-14 149h885z" />
    <glyph glyph-name="dv_r_nukta" unicode="&#x931;" horiz-adv-x="817" 
d="M1075 1193h-319l-210 -450q-16 -35 -50.5 -72.5t-85.5 -76.5q-42 -32 -84 -56t-80 -38q29 -55 55 -107.5t50.5 -104t50 -104t54.5 -107.5l-108 -77q-15 33 -28.5 63t-26.5 59.5t-27.5 61t-32.5 69.5q-8 17 -19 40.5t-21 40.5q-9 20 -18.5 41.5t-18.5 42.5
q-10 21 -18.5 42t-17.5 42q-52 132 -22 195q47 102 124 93q5 -2 21 -10.5t40 -22.5q51 -27 73 -27q6 0 12 2.5t9 5.5l212 455h-406l-14 149h885zM-258 -270l216 146l77 -146l-213 -145z" />
    <glyph glyph-name="dv_l" unicode="&#x932;" horiz-adv-x="1419" 
d="M1544 1193h-416l-111 -237q93 -19 136 -89q53 -89 -9 -222q-33 -72 -105 -147t-186 -156q-68 -48 -135.5 -89t-136.5 -76l-42 124q71 32 136 69t125 77q100 67 163 129.5t89 121.5q66 158 -69 159q-113 2 -298 -133q-123 -88 -241 -208l-73 96l112 105q-11 60 -45.5 93.5
t-95.5 35.5q-82 3 -183 -78q-42 -34 -73.5 -72t-50.5 -80q-3 -7 -7 -16.5t-7 -17.5q-41 -127 14.5 -263t212.5 -267l-100 -69q-119 110 -190 239q-135 236 -48 433q22 48 54 93.5t79 90.5q69 67 144 101.5t157 35.5q112 2 165 -69q14 -20 29 -53.5t26 -75.5q25 22 55 43
t68 44q47 28 89.5 47.5t76.5 28.5l118 252h-934l-11 149h1497z" />
    <glyph glyph-name="dv_ll" unicode="&#x933;" horiz-adv-x="1638" 
d="M59 1193v149h1683l9 -149h-507l-133 -285q51 -20 84.5 -62t48 -95t9 -112t-30.5 -114q-29 -62 -78.5 -124t-113 -112.5t-137 -82t-149.5 -31.5q-43 0 -78.5 14.5t-65 40t-53.5 59.5t-43 74q-35 -32 -76.5 -65.5t-88.5 -60.5t-98 -44.5t-103 -17.5q-71 0 -126.5 38
t-87.5 97.5t-36 132.5t29 144q34 72 89.5 134t122.5 107.5t140.5 71.5t143.5 26q49 0 86 -14.5t65.5 -39t49.5 -57t38 -69.5q72 64 147 109t144 62l129 276h-1013zM457 532q26 29 49 55.5t50 58.5q-8 17 -19.5 36.5t-29.5 36t-45 27t-65 10.5q-60 0 -113.5 -21.5t-98 -55
t-77.5 -74.5t-51 -80q-19 -41 -17 -74.5t17.5 -57t42 -36.5t55.5 -13q44 0 83.5 14.5t76 39t71.5 59t71 75.5zM591 450q10 -20 24 -39t33.5 -34t47 -24t65.5 -9q57 0 107.5 23t91.5 59t72 79t49 82q12 24 16 53.5t-4.5 55t-30.5 43t-63 17.5q-59 0 -108.5 -21.5t-94 -57
t-84.5 -80.5t-79 -91q-13 -16 -21.5 -26t-21.5 -25z" />
    <glyph glyph-name="dv_ll_nukta" unicode="&#x934;" horiz-adv-x="1638" 
d="M110 -129l215 145l79 -145l-215 -146zM59 1193v149h1683l9 -149h-507l-133 -285q51 -20 84.5 -62t48 -95t9 -112t-30.5 -114q-29 -62 -78.5 -124t-113 -112.5t-137 -82t-149.5 -31.5q-43 0 -78.5 14.5t-65 40t-53.5 59.5t-43 74q-35 -32 -76.5 -65.5t-88.5 -60.5
t-98 -44.5t-103 -17.5q-71 0 -126.5 38t-87.5 97.5t-36 132.5t29 144q34 72 89.5 134t122.5 107.5t140.5 71.5t143.5 26q49 0 86 -14.5t65.5 -39t49.5 -57t38 -69.5q72 64 147 109t144 62l129 276h-1013zM457 532q26 29 49 55.5t50 58.5q-8 17 -19.5 36.5t-29.5 36t-45 27
t-65 10.5q-60 0 -113.5 -21.5t-98 -55t-77.5 -74.5t-51 -80q-19 -41 -17 -74.5t17.5 -57t42 -36.5t55.5 -13q44 0 83.5 14.5t76 39t71.5 59t71 75.5zM591 450q10 -20 24 -39t33.5 -34t47 -24t65.5 -9q57 0 107.5 23t91.5 59t72 79t49 82q12 24 16 53.5t-4.5 55t-30.5 43
t-63 17.5q-59 0 -108.5 -21.5t-94 -57t-84.5 -80.5t-79 -91q-13 -16 -21.5 -26t-21.5 -25z" />
    <glyph glyph-name="dv_v" unicode="&#x935;" horiz-adv-x="1198" 
d="M1302 1193h-243l-556 -1193l-118 85l189 405q-42 -21 -85 -42t-85 -42q-79 -36 -139 -52.5t-105 -15.5q-158 5 -226 116q-69 113 -6 249q32 67 80 120.5t116 94.5q131 82 278 82q161 0 231 -68q16 -18 34.5 -51.5t44.5 -95.5l190 408h-871l-25 149h1284zM664 681
q-2 2 -2.5 4.5t-2.5 4.5l13 9zM149 453q152 0 510 237q-56 83 -125 124t-150 41q-109 0 -207 -58q-108 -62 -152 -169q-16 -39 -16 -70t17 -56h-1q35 -49 124 -49z" />
    <glyph glyph-name="dv_sh" unicode="&#x936;" horiz-adv-x="1425" 
d="M1539 1193h-279l-556 -1193l-119 88l515 1105h-286q39 -168 -26 -298q-46 -91 -115 -171.5t-154 -145.5q-56 -41 -142 -90.5t-197 -103.5q26 -82 57 -172.5t64 -196.5l-140 -71q-20 78 -36 150.5t-30 147.5q-6 29 -14 56t-15 41q-63 17 -95 26.5t-37 11.5
q-40 24 -46.5 66t18.5 101q41 90 133 108q49 8 74 -57v1q9 -23 16.5 -43.5t15.5 -43.5q23 5 56.5 18.5t75.5 36.5v-1q55 31 109 69t112 87q-42 17 -86 35t-87 35q-66 36 -95 88.5t-22 117.5q3 29 17 62q31 63 108 136h-305l-17 149h1504zM661 951q66 141 27 215
q-24 52 -72 52q-49 0 -116 -43q-37 -23 -64 -51.5t-42 -60.5q-8 -17 -12 -34t-5 -35q-2 -80 70 -134v1q5 -4 17.5 -10.5t28 -14.5t34 -16.5t35.5 -16.5q12 14 22 28t24 29q15 21 28.5 44.5t24.5 46.5z" />
    <glyph glyph-name="dv_ss" unicode="&#x937;" horiz-adv-x="1089" 
d="M1161 1193h-225l-556 -1193l-124 84l191 411q-27 -15 -60 -33.5t-61 -34.5q-85 -41 -165 -41q-148 0 -205 114q-58 108 -2 231l216 462h-162l-16 149h1171zM570 749l207 444h-447zM271 1072l-179 -385q-23 -48 -33 -83.5t-8 -55.5q8 -45 74 -53q68 -6 209 72
q87 47 161 102z" />
    <glyph glyph-name="dv_s" unicode="&#x938;" horiz-adv-x="1339" 
d="M1445 1193h-248l-555 -1193l-118 82l227 487q-63 -25 -115 -36t-97 -9q-35 1 -72.5 14t-72.5 33q-33 20 -58 42.5t-40 46.5q-58 -45 -120 -82t-140 -71q11 -35 61 -144t139 -294l-112 -69q-78 186 -131.5 310.5t-73.5 190.5q-44 153 -6 225q21 41 48.5 59.5t56.5 16.5
q8 -2 26.5 -11t47.5 -24q49 -30 75 -26q26 3 52 62q45 101 86 195t86 195h-370l-16 149h1427zM1033 1193h-487q-47 -112 -91.5 -219.5t-92.5 -219.5q35 -33 78 -52.5t91 -23.5q94 -6 303 88z" />
    <glyph glyph-name="dv_h" unicode="&#x939;" horiz-adv-x="1083" 
d="M1222 1193h-247l-126 -270q-10 -20 -60 -55h-443q-66 0 -122 -26q-60 -25 -81 -71q-34 -75 28 -117q14 5 26 9.5t26 9.5q11 4 21.5 8t21.5 8q88 27 187 27q143 0 201 -116q53 -108 3 -215q-35 -75 -134 -137q-97 -62 -173 -65l-34 123q190 53 237 153q27 60 4 96.5
t-83 36.5q-116 0 -237 -64q-76 -38 -131 -93.5t-87 -125.5q-31 -66 -16 -123.5t78 -105.5q39 -31 112 -63.5t182 -67.5l-64 -86q-47 17 -89 32.5t-67 27.5q-63 28 -108.5 56t-73.5 57q-165 167 -83 343q45 95 121 167q9 8 16 13.5t13.5 11t13.5 11.5t16 14q-15 42 -33 84
q-22 87 19 177q14 29 37.5 55t59.5 51q68 49 136 49h433l85 181h-749l-18 149h1162z" />
    <glyph glyph-name="dv_oe_matra" unicode="&#x93a;" horiz-adv-x="0" 
d="M-111 1152l-65 114l209 449l80 54l63 -117l-208 -446z" />
    <glyph glyph-name="dv_ooe_matra" unicode="&#x93b;" horiz-adv-x="559" 
d="M-132 22l-63 117l491 1053h-178l-5 150h640l1 -150h-286l-520 -1115zM411 1187l-64 114l210 449l80 54l62 -117l-207 -445z" />
    <glyph glyph-name="dv_nukta" unicode="&#x93c;" horiz-adv-x="0" 
d="M-146 -270l215 146l78 -146l-214 -145z" />
    <glyph glyph-name="dv_avagraha" unicode="&#x93d;" horiz-adv-x="864" 
d="M1047 1193h-478q-25 0 -48 -7t-42 -19t-33 -27t-21 -31q-2 -5 -3 -9.5t-2 -9.5q0 -11 18.5 -48.5t51.5 -92.5q38 -64 69 -123t46 -101q23 -69 25.5 -128.5t-19.5 -107.5q-35 -75 -87.5 -137t-125.5 -114h1q-150 -108 -314 -108q-96 0 -169 83q-72 81 -99 230l94 59
q48 -229 187 -229q92 0 203 70q108 67 151 160q23 51 22 113.5t-25 130.5q-10 25 -41 85t-78 142q-34 59 -46.5 105.5t-2.5 73.5q34 88 110.5 136t195.5 53h443z" />
    <glyph glyph-name="dv_aakaar" unicode="&#x93e;" horiz-adv-x="529" 
d="M618 1193h-259l-552 -1193l-135 62l528 1131h-198l-75 149h602z" />
    <glyph glyph-name="dv_ikaar" unicode="&#x93f;" horiz-adv-x="599" 
d="M1099 1319q-75 -1 -86 11q43 184 -0.5 281.5t-160.5 106.5q-51 -2 -105 -19t-105 -50q-117 -81 -175 -205q-16 -34 -20.5 -58.5t0.5 -43.5h153l83 -149h-262l-553 -1193l-127 74l522 1119h-272l-77 149h442q-2 12 -4 24.5t-3 24.5q-6 87 24 155q20 42 56.5 86.5
t93.5 92.5q167 142 353 131q124 -7 225 -125q103 -116 31 -341z" />
    <glyph glyph-name="dv_iikaar" unicode="&#x940;" horiz-adv-x="521" 
d="M596 1193h-284l-561 -1193l-124 59l529 1134l-150 -1l-55 150h304l11 22q66 143 38 248q-16 64 -52.5 96t-99.5 27q-80 -7 -139.5 -48t-104 -98.5t-76.5 -123.5t-56 -123h-101q-1 6 4.5 25t14.5 45t21.5 57.5t26 62t27.5 58.5t27 47q35 48 74 92t96 83q58 40 114 59
t110 19q61 0 107 -26t75 -77q28 -51 35 -114t-7 -134q-10 -41 -20.5 -79.5t-24.5 -74.5q-8 -26 -13 -42l-1 -1h184z" />
    <glyph glyph-name="dv_ukaar" unicode="&#x941;" horiz-adv-x="0" 
d="M464 -285q-44 -89 -145 -160q-135 -94 -306 -94q-82 0 -167 37t-166 104q-64 54 -109.5 109t-68.5 109l72 57q28 -49 67 -94t86 -86q72 -56 149 -84.5t154 -23.5q103 6 213 64q52 27 88 59.5t53 70.5q14 30 2 67q-12 45 -58 44q-14 -1 -36.5 -9t-51.5 -25h1
q-42 -23 -71.5 -37.5t-49.5 -21.5q-72 101 -56 132q16 30 88 54q33 11 65.5 16.5t55.5 4.5q144 -6 198 -86q55 -82 -7 -207z" />
    <glyph glyph-name="dv_uukaar" unicode="&#x942;" horiz-adv-x="0" 
d="M319 -502q-40 96 -82.5 174t-82.5 137q-51 74 -97 112.5t-88 38.5q-35 0 -72.5 -12.5t-72.5 -34.5q-39 -26 -72 -63t-55 -84q-15 -34 4 -64q14 -30 61 -27q76 7 243 93l27 -128q-87 -39 -147 -56.5t-98 -15.5q-110 6 -164 81q-28 41 -30 91.5t25 107.5q64 139 206 208
q90 43 176 43q87 0 161 -96q0 -2 74 -127q26 -45 70.5 -127t101.5 -191z" />
    <glyph glyph-name="dv_rikaar" unicode="&#x943;" horiz-adv-x="0" 
d="M196 -394q-64 -14 -200 -26q-181 -4 -242 99l-1 -1q-55 87 -3 197q48 101 188 163q121 52 239 48l100 -120l-82 -12q-87 -14 -151 -29t-102 -32q-99 -39 -125 -115q-12 -35 23 -58q40 -25 93 -19h-1q59 7 123.5 21.5t136.5 37.5q2 -9 7.5 -44.5t13.5 -89.5z" />
    <glyph glyph-name="dv_rrikaar" unicode="&#x944;" horiz-adv-x="0" 
d="M90 -758q-109 -23 -194 -23q-38 0 -71.5 4.5t-62.5 15.5q-35 11 -60.5 30.5t-44.5 47.5q-48 72 -4 168q39 84 110 132q7 3 19 10q11 5 28 15t43 24q-59 118 -12 217q23 48 70.5 86.5t118.5 68.5q115 46 238 52l101 -120q-401 -49 -447 -145q-34 -73 41 -127
q33 10 70.5 15t85.5 8q26 2 47.5 3t36.5 1q8 0 18 -1l20 -2q15 -40 22 -67.5t7 -41.5q-7 -44 -77 -39q-49 1 -103.5 4t-97.5 8q-214 -48 -256 -146q-44 -107 99 -107q36 0 100.5 15.5t155.5 45.5q2 -20 5 -49t7 -57q1 -7 2 -13t2 -14z" />
    <glyph glyph-name="dv_chandra" unicode="&#x945;" horiz-adv-x="0" 
d="M-286 1913l60 -112q-2 -32 1.5 -70t18.5 -71t46.5 -55t87.5 -22q48 0 95.5 21.5t89 52.5t74.5 65t52 60l78 53l63 -116q-16 -23 -44 -54.5t-64.5 -65.5t-79.5 -67.5t-90 -60t-96 -43.5t-97 -17q-65 0 -113 23t-81.5 60.5t-54 85.5t-30 97.5t-9 96t9.5 82.5z" />
    <glyph glyph-name="dv_e_matra" unicode="&#x946;" horiz-adv-x="0" 
d="M-104 1483q-41 0 -75 16.5t-62 55.5t-48.5 103.5t-33.5 160.5l84 58l62 -112q2 -24 6 -44.5t13.5 -35t26.5 -23t46 -8.5h148q60 1 99 -23.5t64.5 -67t42 -99t32.5 -120.5q5 -20 11 -45t11 -47l-85 -58l-62 114q-6 39 -12.5 71t-20 55t-37 36t-62.5 13h-148z" />
    <glyph glyph-name="dv_ekaar" unicode="&#x947;" horiz-adv-x="0" 
d="M187 1294q-2 7 -18 52t-42 120q-8 21 -15 44t-16 49q-29 86 -59 142t-59 73q-19 11 -49 11q-54 0 -149 -29l-26 210l60 30q20 2 39 3.5t37 1.5q57 0 117 -28q63 -27 144 -274q28 -88 52.5 -181.5t43.5 -184.5z" />
    <glyph glyph-name="dv_aikaar" unicode="&#x948;" horiz-adv-x="0" 
d="M167 1327q19 98 29 185.5t13 165.5q8 217 -38 240q-22 13 -141 13q34 107 57.5 172t36.5 88q25 16 46 16q41 0 81 -54q17 -23 28 -44.5t14 -40.5q12 -66 11 -166.5t-17 -231.5q-5 -38 -21.5 -128t-41.5 -215h-57zM84 1296q-12 35 -37.5 95t-58.5 138h1q-71 144 -141 144
q-35 0 -140 -35q-11 34 -10.5 92t9.5 140q24 34 65 34q31 0 88 -26q38 -21 99 -101q56 -75 84 -139q32 -66 107 -312z" />
    <glyph glyph-name="dv_aakaar_chandra" unicode="&#x949;" horiz-adv-x="535" 
d="M586 1193h-260l-557 -1193l-129 62l528 1131h-198l-24 149h617zM229 2014l60 -114q-1 -31 2.5 -69t18.5 -71t46 -55.5t87 -22.5q48 0 95 21.5t89 52.5t76 66t54 61l76 52l62 -117q-17 -23 -44.5 -54.5t-64 -65.5t-79.5 -67.5t-90 -60t-95.5 -43.5t-96.5 -17
q-66 0 -114.5 23t-82 60.5t-53.5 85.5t-29 97.5t-8.5 97t8.5 83.5z" />
    <glyph glyph-name="dv_okaar_short" unicode="&#x94a;" horiz-adv-x="535" 
d="M741 1193h-260l-555 -1193l-132 62l528 1131h-198l-24 149h618zM105 1583q-41 0 -75 17t-61 56t-48 103.5t-34 160.5l83 57l62 -112q3 -24 7 -44t13.5 -34.5t26.5 -23t46 -8.5h149q60 0 99.5 -27.5t66.5 -74t44.5 -107t32.5 -126.5q4 -14 9 -33t8 -35l-86 -59l-61 116
q-5 38 -11.5 70t-20.5 55t-37.5 36t-62.5 13h-150z" />
    <glyph glyph-name="dv_okaar" unicode="&#x94b;" horiz-adv-x="578" 
d="M751 1193h-258l-552 -1193l-113 95l512 1098h-245l-2 149h346q-9 46 -28 114t-47 156v-1q-69 172 -148 182q-14 2 -36.5 -0.5t-53.5 -9.5q-65 -14 -75 -12q-12 7 -38 193q42 45 131 45q142 0 209 -117q7 -13 31.5 -78.5t68.5 -185.5q15 -49 35.5 -119t46.5 -167h212z" />
    <glyph glyph-name="dv_oukaar" unicode="&#x94c;" horiz-adv-x="584" 
d="M764 1193h-268l-554 -1193l-122 90l515 1103h-234l-21 149h312q-112 343 -223 341q-17 0 -53.5 -10t-92.5 -32q-8 83 -7.5 141t9.5 92q43 52 93 43q124 -26 234 -243q40 -78 68.5 -160t48.5 -170h12q11 56 20 106.5t17 98.5q14 113 15 201t-14 136q-21 65 -86 65
q-23 0 -76 -13q3 12 7 30.5t7 30.5q2 11 4.5 23t5.5 25q19 75 36 111q28 63 66 63q56 0 91 -54t49 -156q10 -84 6.5 -175.5t-19.5 -176.5q-12 -57 -27.5 -135.5t-32.5 -181.5h210z" />
    <glyph glyph-name="dv_halant" unicode="&#x94d;" horiz-adv-x="0" 
d="M272 -495q-19 -12 -61 -45q-72 134 -113 207t-44 78h1q-22 31 -61.5 51.5t-90.5 31.5q-15 3 -31 3q-17 0 -36 -3h1q-16 -4 -37 -8t-38 -7l-36 153q-9 8 -3 19q9 20 42 21q8 1 13.5 1.5t10.5 0.5q22 5 45 5q48 0 110 -18q118 -33 194 -176q11 -20 46.5 -93.5t95.5 -202.5z
" />
    <glyph glyph-name="dv_aakaar_pristhamatra" unicode="&#x94e;" horiz-adv-x="535" 
d="M741 1193h-259l-555 -1193l-132 62l528 1131h-198l-24 149h618z" />
    <glyph glyph-name="dv_awkaar" unicode="&#x94f;" horiz-adv-x="559" 
d="M-143 0l-55 138l491 1053h-177l8 151h629l-2 -151h-286l-520 -1115zM593 1520q8 17 2.5 35t-20 35.5t-35.5 34.5t-42 33q-36 25 -71.5 55t-59 67t-27.5 83t23 105q23 48 84 98t176 100l65 -120l-78 -52q-41 -18 -67 -41.5t-37 -46.5q-9 -19 -4 -36.5t19 -34.5t35 -33.5
t45 -34.5q35 -26 70.5 -55t58.5 -66t27 -83t-24 -105q-17 -36 -51.5 -68.5t-78 -61.5t-90 -54t-86.5 -44l-62 112q-5 39 -11.5 71t-21 55t-38 36t-60.5 13h-150q-41 0 -76 16.5t-63 55.5t-48 103.5t-31 160.5l84 58l62 -111q2 -24 6 -44.5t13.5 -35.5t26 -23.5t44.5 -8.5
h151q55 0 92 -20.5t62.5 -57t42 -85.5t31.5 -106q42 19 68.5 42.5t43.5 58.5z" />
    <glyph glyph-name="dv_aum" unicode="&#x950;" horiz-adv-x="2210" 
d="M1919 1507l-189 -171l-110 118l188 163zM2138 1337q-314 -302 -549 -302q-62 0 -116.5 38t-99.5 108q-38 63 -55 124.5t-9 115.5v-1q1 27 36 30q12 2 23 4.5t20 6.5q71 -293 231 -293q161 0 450 269q16 -14 38.5 -30.5t53.5 -35.5zM2134 523q-29 -62 -76 -115.5
t-113 -101.5q-121 -85 -228 -90q-92 -2 -147 67q-13 19 -28.5 50.5t-35.5 79.5q-162 -140 -275 -207t-186 -67q-68 0 -128 84l-36 58q-8 12 -11.5 19t-12.5 19q-45 -66 -105.5 -122t-127.5 -96q-66 -36 -135.5 -57.5t-133.5 -21.5q-107 0 -179.5 54t-111.5 155
q-19 57 -28 127.5t-5 153.5l91 48q20 -407 240 -407q53 0 108.5 20t117.5 59l-1 -1q115 79 155 164q56 122 -48 200q-61 -19 -128 -39t-127 -38q-32 20 -53 64q-24 55 0 87q17 20 51.5 33t91.5 20q19 2 38.5 4t39.5 4q19 2 36.5 3.5t37.5 3.5q89 49 143.5 97t78.5 99
q32 70 -4 111q-16 22 -43 31t-60 7q-24 -3 -114 -31.5t-245 -83.5l-11 145q32 14 75.5 27.5t100.5 27.5t94.5 21.5t57.5 7.5q164 0 239 -116q66 -110 14 -237q-28 -60 -103 -116q-14 -10 -27 -19.5t-25 -18.5q-10 -7 -20.5 -14t-21.5 -15q8 -14 33 -61.5t70 -132.5
q20 -38 40 -69.5t38 -55t34 -36.5t27 -13q92 0 190 67q30 21 80.5 63.5t123.5 108.5q114 104 179.5 162.5t85.5 75.5q78 60 146.5 90t130.5 31q60 1 102.5 -22.5t65.5 -73.5q29 -54 22.5 -121.5t-44.5 -149.5zM2033 592q74 176 -53 177q-83 0 -217 -112l1 1
q-14 -13 -27.5 -26.5t-27.5 -26.5q-35 -32 -64.5 -61t-64.5 -61q52 -128 146 -128q66 0 171 84q108 84 136 153z" />
    <glyph glyph-name="dv_udatta" unicode="&#x951;" horiz-adv-x="0" 
d="M-112 1477l-64 117l208 447l81 55l63 -116l-208 -445z" />
    <glyph glyph-name="dv_anudatta" unicode="&#x952;" horiz-adv-x="0" 
d="M-300 -590l-60 117l81 55h580l59 -118l-81 -54h-579z" />
    <glyph glyph-name="dv_grave" unicode="&#x953;" horiz-adv-x="0" 
d="M16 1552l-165 307l133 92l165 -310z" />
    <glyph glyph-name="dv_acute" unicode="&#x954;" horiz-adv-x="0" 
d="M-202 1552l-47 89l452 310l46 -92z" />
    <glyph glyph-name="dv_ekaar_chandra" unicode="&#x955;" horiz-adv-x="0" 
d="M-413 1375l-63 117l80 54h664l62 -117l-80 -54h-663zM-205 1987l62 -112q10 -21 24 -41t34 -35.5t47 -25t64 -9.5q52 0 99 17t87 42.5t71.5 55.5t52.5 55l78 53l63 -117q-14 -21 -40 -50t-61.5 -60t-78.5 -61t-90.5 -54t-98.5 -38.5t-102 -14.5q-72 0 -120 27t-81 72.5
t-54.5 107t-40.5 130.5z" />
    <glyph glyph-name="dv_kash_ue_mark" unicode="&#x956;" horiz-adv-x="0" 
d="M-352 -89q24 -32 58 -59.5t73 -47t82 -30.5t87 -11q57 0 108 9t101.5 27.5t104.5 46t117 65.5l63 -118l-75 -51q-39 -27 -86.5 -54t-102 -48.5t-116.5 -35t-131 -13.5q-71 0 -129.5 22.5t-105 59.5t-81 84t-56.5 95z" />
    <glyph glyph-name="dv_kash_uue_mark" unicode="&#x957;" horiz-adv-x="0" 
d="M-296 -89q25 -32 58.5 -59.5t72.5 -47t82 -30.5t87 -11q57 0 108 9t102 27.5t104.5 46t116.5 65.5l63 -118l-75 -51q-39 -27 -86 -54t-102 -48.5t-117 -35t-131 -13.5q-71 0 -129.5 22.5t-105 59.5t-81 84t-56.5 95zM-413 -412q26 -33 59.5 -60.5t72 -47.5t82 -31.5
t88.5 -11.5q57 0 108 9.5t101.5 28t104 47t115.5 66.5l63 -122l-74 -50q-40 -27 -87 -54t-102 -48.5t-117 -34.5t-131 -13q-69 1 -127.5 23t-105 58.5t-80.5 84t-54 98.5z" />
    <glyph glyph-name="dv_q" unicode="&#x958;" horiz-adv-x="1565" 
d="M1676 1193h-701l-193 -413q20 9 42.5 20t43.5 22q88 41 142 47q8 1 17 1.5t19 0.5q131 0 154 -137q20 -130 -48 -264q-88 -173 -300 -353l-75 130q45 42 94 87.5t95 87.5l-1 -1q94 96 129 170q65 138 -82 134q-30 0 -151 -57q-60 -27 -103 -49t-69 -39l-270 -580l-124 92
l171 366q-29 -13 -66.5 -30.5t-65.5 -31.5q-60 -24 -111 -36t-95 -14q-130 -2 -198 101h1q-77 113 -8 260q55 116 167 191q126 84 285 84q66 0 115 -20.5t81 -56.5q12 -17 26 -45.5t25 -66.5l187 400h-787l-21 149h1661zM567 653q-2 3 -2 10q5 4 12 8zM314 529
q41 19 104.5 53t146.5 81q-58 175 -244 175q-83 0 -162 -45q-98 -54 -144 -156q-37 -78 1 -124q29 -39 94 -39q40 0 92 14.5t112 40.5zM60 -270l216 146l77 -146l-213 -145z" />
    <glyph glyph-name="dv_khh" unicode="&#x959;" horiz-adv-x="1577" 
d="M1654 1193h-211l-560 -1201l-112 112l191 409q-215 -114 -300 -107q-126 10 -182 108v-1q-64 101 -4 232q30 66 81 121t115 93q54 30 111.5 47.5t111.5 17.5q106 0 163 -60q17 -17 32.5 -50t27.5 -71l163 350h-739l-192 -412q-20 -42 -46 -78t-58 -67q-14 -14 -46 -37
t-81 -58q35 -64 128.5 -181t250.5 -291q-11 -10 -29 -26t-32 -30q-5 -5 -17.5 -17t-19.5 -18q-45 54 -117.5 143.5t-169.5 207.5q-36 46 -70.5 96t-60.5 99q-81 150 -49 221q20 42 48 63.5t60 16.5q26 -3 52 -16.5t53 -35.5q3 -3 9 -3q33 0 99 143l131 280h-361
q0 14 -0.5 32.5t-0.5 38.5v40.5v37.5h1627zM1067 695q-2 4 -1 7q4 4 7 6zM877 598q139 64 189 104q-11 83 -64.5 130.5t-138.5 47.5q-90 0 -179 -58q-87 -57 -122 -135q-29 -66 -6 -105.5t95 -52.5q32 -4 89 13.5t137 55.5zM54 -270l215 146l78 -146l-214 -145z" />
    <glyph glyph-name="dv_ghh" unicode="&#x95a;" horiz-adv-x="1229" 
d="M1359 1193h-247l-557 -1193l-131 56l530 1137h-377l-268 -574q-32 -70 -80 -118l1 1q-60 -62 -114 -62q-53 0 -93 117q-17 56 -22 92t3 54q37 82 120 82h8t8 -1q2 0 3.5 -0.5t3.5 -0.5h22q54 0 76 48l169 362q-85 0 -172 -1t-172 -1l-17 151h1294zM-129 -270l215 146
l78 -146l-214 -145z" />
    <glyph glyph-name="dv_z" unicode="&#x95b;" horiz-adv-x="1339" 
d="M1440 1193h-218l-561 -1193l-118 78l337 722h-353q17 -41 28.5 -71.5t17.5 -50.5q24 -112 -19 -201q-26 -54 -66.5 -94t-95.5 -69q-90 -45 -190 -45q-273 0 -273 567l104 45q-4 -73 1 -136t19 -118q49 -193 196 -197q46 -1 98 31q61 38 89 98q50 107 -18 215l1 -1
q-14 15 -31.5 34.5t-35 39.5t-35 39.5t-31.5 35.5q12 0 30.5 9t35.5 27h601l110 235h-1018l-10 149h1392zM-101 -270l217 146l77 -146l-213 -145z" />
    <glyph glyph-name="dv_rr" unicode="&#x95c;" horiz-adv-x="1190" 
d="M1362 1193h-288l-137 -294l-31 -21h-392q-145 0 -211 -115q-12 -22 -18.5 -44t-4.5 -45h-1q3 -21 10.5 -36t23.5 -24q64 11 145 22t184 25q58 7 104 -18t76 -76q62 -105 6 -228q-27 -58 -74.5 -108t-113.5 -92q-149 -93 -328 -93q-106 0 -197.5 52t-161.5 147
q-21 31 -41 67t-36 74t-28.5 76.5t-18.5 74.5l97 49q3 -11 8 -25.5t8 -25.5q8 -23 15 -46.5t14 -48.5h-1q39 -103 108 -167q48 -36 114.5 -58t142.5 -22q110 0 225 59q118 59 162 155q46 97 -45 97q-4 0 -15.5 -0.5t-34.5 -2.5t-58 -7t-85 -15q-53 -11 -90 -16.5t-60 -6.5
q-124 -8 -163 139q-34 132 23 256q37 78 130 127l-2 -1q82 45 157 45h368l80 171h-809l-28 149h1250zM-71 -270l217 146l77 -146l-213 -145z" />
    <glyph glyph-name="dv_rrh" unicode="&#x95d;" horiz-adv-x="1165" 
d="M1301 1193h-276l-162 -347h-339q-358 0 -496 -293q-45 -99 -23 -195q29 -116 168 -156q11 118 59 221q51 111 161 186q111 75 240 69q107 -6 135 -106q32 -98 -37 -245q-28 -60 -76 -109.5t-117 -91.5q-136 -82 -274 -82q-238 0 -335 234q-37 91 -34 198q2 51 12.5 97
t27.5 84q162 338 606 338h229l93 198h-800l-23 149h1253zM691 439q4 34 -25 63q-15 15 -33 21.5t-38 6.5q-71 0 -146 -47q-37 -23 -67 -52.5t-53 -63.5q-9 -14 -18 -31t-17 -35q-11 -23 -22 -49t-22 -56q11 -1 19.5 -1.5t18.5 -0.5q78 0 154 31q188 72 235 173q5 9 8 19.5
t6 22.5v-1zM-136 -270l216 146l77 -146l-213 -145z" />
    <glyph glyph-name="dv_f" unicode="&#x95e;" horiz-adv-x="1456" 
d="M1519 1193h-648l-197 -423q35 14 71.5 29t71.5 29q42 17 76.5 27t61.5 10q113 6 149 -85q21 -55 12 -143q-5 -45 -16.5 -86t-30.5 -80q-23 -49 -96.5 -139t-197.5 -223q-92 97 -84 112q2 6 28 33t77 81q8 9 16 17.5t19 19.5q68 71 111 125.5t63 92.5q29 57 12.5 90.5
t-72.5 33.5q-18 0 -38.5 -3.5t-43.5 -9.5q-17 -5 -33.5 -10t-27.5 -9q-56 -26 -108 -50.5t-109 -50.5l-272 -581l-122 89l194 408q-32 -10 -56 -16t-37 -10q-72 -19 -122 -19q-128 -2 -195 117q-66 122 -13 236l181 388h-149l-6 149h1522zM706 1193h-397l-188 -402
q-101 -218 53 -218q72 0 294 109zM-47 -270l215 146l79 -146l-215 -145z" />
    <glyph glyph-name="dv_yy" unicode="&#x95f;" horiz-adv-x="1192" 
d="M1346 1193h-242l-556 -1193l-121 82l193 415q-41 -17 -82.5 -33t-82.5 -32q-56 -21 -103 -30.5t-86 -8.5q-75 2 -132.5 28t-95.5 72q-38 52 -52.5 126t-1.5 170q4 28 123 66q72 21 121 38.5t78 30.5q106 49 123 112q13 44 15 82.5t-9 74.5h-359l-21 149h1278zM941 1193
h-379q1 -114 -10 -188t-34 -106q-23 -30 -72 -62t-120 -61q-78 -32 -123.5 -53.5t-62.5 -32.5q-5 -8 -9.5 -15.5t-7.5 -15.5q-68 -148 112 -143q144 2 473 178zM-153 -270l216 146l78 -146l-214 -145z" />
    <glyph glyph-name="dv_rri" unicode="&#x960;" horiz-adv-x="1612" 
d="M1036 -455q-29 -5 -79 -11t-119 -14q-180 -4 -243 100v-1q-57 85 -3 195q23 48 65 86t103 69q-23 17 -41 38q-86 100 -32 218q35 73 175 149q57 27 119 57t135 68q2 3 5.5 6.5l8.5 8.5q4 5 7 9t4 6q8 89 -5 134q-63 -25 -96.5 -38.5t-36.5 -14.5l2 1q-35 -11 -67 -17.5
t-61 -7.5q-9 0 -25.5 3t-38.5 8.5t-47.5 13t-51.5 15.5l-3 -7q-15 -32 -50 -107t-90 -196l-147 -316l-124 90l196 424q-152 -82 -307 -165.5t-307 -164.5l-76 110l766 394q-19 22 -41.5 47.5t-42.5 46.5h1q-71 69 -145 69q-35 0 -72 -6t-72 -16q-24 -7 -51.5 -16.5
t-61.5 -21.5q-3 11 -8 27t-10.5 34t-11.5 37t-11 37q180 74 314 74q80 0 136 -46q14 -13 33.5 -36t42.5 -57q29 -43 55 -66l186 398h-681l-21 149h1679l16 -149h-829l-216 -462q-1 -5 40 -16q51 -12 76 -9q31 3 95.5 29t171.5 80q2 7 3 19t3 28q1 2 0.5 2t-0.5 2l1 -1
q2 23 6 40.5t10 31.5q7 14 19 28t25 25q23 15 48 15q22 0 60 -16l113 -74h-1q55 -30 27 -81q-14 -28 -168 -96q0 -65 0.5 -128t0.5 -128q-7 -56 -40 -75l-368 -165h1q-50 -25 -74 -79q-30 -61 3 -103q36 -39 101 -41q5 1 12 1.5t12 0.5q35 8 95.5 32t143.5 63l79 -112
q-91 -48 -166 -73l3 -4l-70 -29q-81 -16 -141 -32.5t-98 -32.5q-99 -41 -125 -116q-13 -36 23 -56q18 -13 42.5 -17.5t50.5 -2.5q57 6 122.5 21t134.5 38q4 -14 9.5 -47.5t12.5 -87.5z" />
    <glyph glyph-name="dv_lli" unicode="&#x961;" horiz-adv-x="1565" 
d="M823 -455q-29 -5 -79 -11t-119 -14q-90 -2 -150.5 24t-92.5 75q-28 42 -28.5 91.5t25.5 103.5q22 45 56.5 80.5t90.5 64.5q-7 11 -11 22t-6 22q-8 34 -4.5 72t21.5 76q23 50 57.5 81.5t76.5 62.5l12 9q17 11 32 22.5t30 22.5q45 32 83.5 60t69.5 55t54 54t37 57
q21 45 22.5 78.5t-11 56.5t-38 34.5t-59.5 11.5q-38 0 -79 -14.5t-83.5 -41.5t-87.5 -64.5t-90 -82.5l-74 -53l-63 120q22 24 41 44t33 34q-23 25 -56.5 41.5t-84.5 16.5q-44 0 -88 -13t-83.5 -38.5t-73.5 -64t-58 -89.5q-23 -49 -25.5 -98t8 -99t32 -102t46.5 -108
q10 -21 21.5 -47.5t21.5 -49.5l-88 -60l-60 112q-6 11 -11 22t-11 21q-34 64 -61.5 121.5t-40.5 113t-8 112.5t35 122q36 76 89.5 135t115.5 99.5t128.5 61.5t128.5 21q43 -1 75 -10.5t57 -27.5t45.5 -45.5t40.5 -64.5q72 59 138 92.5t127 47.5l110 237h-939l-63 114l81 57
h1601l59 -117l-79 -54h-491l-116 -249q49 -18 84.5 -55.5t52 -89t11 -115t-38.5 -133.5q-18 -38 -45.5 -71t-62 -63t-75 -58.5t-85.5 -59.5q-13 -9 -25.5 -18t-25.5 -19q-29 -21 -50.5 -38t-37 -33t-27 -32t-19.5 -34q-20 -45 12 -67h-1q6 -3 14 -5q34 6 65 8l-3 -1
q6 1 24 11q23 14 42.5 25t42.5 26l73 51l64 -120q-100 -85 -177.5 -128.5t-137.5 -43.5q-14 0 -26 2.5t-25 9.5q-16 -5 -34.5 -12t-29.5 -12q-101 -41 -126 -116q-12 -35 23 -56q40 -26 94 -20q60 6 123 20.5t132 37.5q9 -27 23 -134z" />
    <glyph glyph-name="bn_viram" unicode="&#x9e4;" horiz-adv-x="731" 
d="M22 85l604 1294l82 -123l-621 -1332z" />
    <glyph glyph-name="bn_dbl_viram" unicode="&#x9e5;" horiz-adv-x="1016" 
d="M27 85l604 1294l84 -123l-620 -1331zM302 85l604 1294l83 -123l-620 -1331z" />
    <glyph glyph-name="dv_zeo" unicode="&#x966;" horiz-adv-x="881" 
d="M825 652q-60 -126 -230 -254q-191 -142 -354 -142q-155 0 -211 104q-55 105 18 261q42 90 116 169t171 143q89 57 172 87t156 30q150 0 194 -118q44 -114 -32 -280zM649 587q69 148 22 247q-42 90 -145 90q-191 1 -293 -215q-69 -148 -14 -245q46 -84 156 -84
q82 0 157 60q38 32 67.5 68.5t49.5 78.5z" />
    <glyph glyph-name="dv_one" unicode="&#x967;" horiz-adv-x="801" 
d="M383 -125q-41 -88 -145 -110q-54 45 -114 113q86 34 101 67q23 50 5 116t-75 152h1q-34 44 -73.5 97t-86.5 116l-19 26l379 278q-54 57 -85.5 95.5t-42.5 56.5q-53 86 -7 179q61 122 185 207q113 78 212 80t148 -94q28 -51 42 -90t16 -65q3 -33 -18 -78
q-67 -141 -296 -327q-76 -59 -161.5 -125.5t-191.5 -149.5q8 -17 38 -67t78 -127q26 -43 53 -87.5t53 -87.5q22 -47 22.5 -90.5t-18.5 -84.5zM671 1049q30 64 17 109h1q-15 50 -84 50q-64 0 -136 -60q-75 -61 -100 -124q-26 -66 -1 -120h-1q8 -18 27.5 -41t48.5 -53
q60 40 129 110q73 76 99 129z" />
    <glyph glyph-name="dv_two" unicode="&#x968;" horiz-adv-x="1044" 
d="M448 -153l-132 -56q-1 40 -10.5 147.5t-27.5 275.5q-5 44 -14.5 95.5t-25.5 111.5q-30 7 -62 13.5t-63 11.5q-67 37 -7 161q45 95 86 128q36 28 83 27q19 -1 38.5 -40t39.5 -113q29 11 58 21.5t58 21.5h-1q58 24 107.5 52t90.5 61q117 88 172 208q64 136 16 194
q-36 48 -133 43q-37 -1 -94.5 -10.5t-132.5 -27.5q-44 -10 -96 -22.5t-96 -23.5l-37 144q251 88 431 88q13 0 25.5 -0.5t24.5 -1.5q114 -8 180 -103q42 -64 40.5 -151t-51.5 -193q-72 -156 -208 -269.5t-335 -186.5z" />
    <glyph glyph-name="dv_three" unicode="&#x969;" horiz-adv-x="1061" 
d="M837 503q-59 -128 -217 -228q-63 -38 -129 -65.5t-129 -41.5q23 -81 45.5 -161t45.5 -161l-120 -75q-12 75 -29 170t-40 204q-71 14 -113 24t-53 16h1q-35 20 -37.5 60.5t23.5 92.5q40 76 78.5 113t73.5 32q15 -2 29.5 -21t25.5 -45q8 -22 14 -40q5 -14 10 -27t10 -27
q63 0 121 16.5t115 48.5q114 64 161 165q34 73 4 140q-16 28 -33 42t-39 15q-53 -7 -133.5 -16t-189.5 -22q-20 -2 -36.5 12.5t-22.5 43.5q-13 52 0 83q3 10 13 19t21.5 15t23 9.5t17.5 3.5q136 -6 286 -6q191 58 240 175q56 128 -133 128h-359q-1 11 -3 28t-4.5 37t-5 41.5
t-5.5 40.5h452q55 0 95.5 -30.5t65.5 -90.5q23 -60 21.5 -120.5t-29.5 -117.5q-30 -62 -113 -127q-18 -14 -32 -24t-23 -18l-18 -15q3 -4 7 -10q4 -5 8.5 -12.5t11.5 -17.5h-1q19 -27 30.5 -51.5t16.5 -47.5q8 -38 4 -76.5t-23 -80.5z" />
    <glyph glyph-name="dv_four" unicode="&#x96a;" horiz-adv-x="1352" 
d="M1282 1222l-676 -478q26 -42 52 -80.5t53 -80.5q29 -57 32 -108t-19 -98q-25 -54 -71.5 -99.5t-109.5 -80.5q-58 -32 -119 -49.5t-120 -17.5q-144 0 -207 79q-66 86 -6 216q23 48 59.5 96t83.5 92q33 30 84.5 69.5t119.5 85.5q-91 121 -182.5 245t-181.5 244l132 84
l325 -499q186 134 371 268t368 268l20 -2zM567 398q29 62 16.5 128t-70.5 141q-152 -110 -236 -190.5t-102 -130.5q-18 -47 15 -77q32 -32 98 -32q83 0 177 65q83 54 102 96z" />
    <glyph glyph-name="dv_five" unicode="&#x96b;" horiz-adv-x="1067" 
d="M742 -176q-14 -12 -30 -20t-36 -15q-13 -5 -57 -13q17 143 30 308.5t24 361.5q-111 -55 -139 -65q-40 -15 -80 -21.5t-74 -5.5q-107 8 -184 109q-88 117 -48 254l-1 -1q13 53 50 135q104 224 313 498q94 -114 91 -135q-2 -5 -37.5 -53t-98.5 -134q-69 -94 -115 -167
t-69 -121q-57 -123 -15 -186h-1q20 -26 55.5 -40t89.5 -15q46 0 118 26q37 14 65 28.5t50 29.5h-1q8 6 19 19t26 32q1 8 1.5 24t2.5 39q1 21 4.5 41t10.5 34q8 17 23 30.5t35 23.5q43 21 66 12q39 -17 71 -53l1 1q44 -50 22 -100q-18 -40 -71 -96l-55 -53q-7 -8 -15 -15
q-12 -78 -20 -248.5t-14 -436.5z" />
    <glyph glyph-name="dv_six" unicode="&#x96c;" horiz-adv-x="1081" 
d="M636 -154l-120 -47q-1 58 -1.5 150t-0.5 216q-33 -2 -51 -2.5t-26 -0.5q-78 0 -148.5 23t-125.5 63q-35 26 -59.5 63t-35.5 85q-12 49 -6.5 97t27.5 96q69 147 217 217q-105 172 -50 291q117 251 512 251q30 0 90 -4.5t151 -14.5l12 -154q-70 8 -147.5 13t-164.5 7
q-106 1 -197 -35l1 1q-54 -23 -91 -61t-57 -86q-11 -30 -4.5 -57.5t30.5 -50.5q36 -35 86 -41q69 10 131.5 15.5t110.5 5.5q83 0 98 -19q12 -15 12 -59l1 1q0 -48 -17 -72q-12 -16 -33 -25t-51 -10l11 23q-8 -5 -39.5 -13t-79.5 -6q-31 1 -68 2.5t-84 3.5q-76 -8 -140 -57
q-35 -28 -65.5 -66.5t-52.5 -85.5q-20 -44 -20 -85.5t16 -71.5q21 -30 54.5 -46.5t78.5 -16.5q60 0 143 24q1 6 2 15t3 25q9 56 22 86q30 62 90 62q63 0 114 -54q56 -56 31 -110q-22 -46 -79 -87q-1 -1 -3 -2.5t-9 -8.5q-25 -18 -33.5 -24t-10.5 -8z" />
    <glyph glyph-name="dv_seven" unicode="&#x96d;" horiz-adv-x="1341" 
d="M1139 675q-60 -131 -141.5 -233.5t-183.5 -177.5q-185 -136 -369 -134q-76 1 -135.5 30t-101.5 85q-79 104 -73 281q5 142 56 342t150 464l107 26q-169 -429 -194 -655q-21 -183 48 -296q68 -120 214 -117q80 1 163 40.5t161 110.5q54 51 99 106.5t71 107.5
q-3 -1 -5.5 -2t-4.5 -1h1q-45 -17 -88.5 -31t-91.5 -14q-124 0 -170 110q-25 56 -20.5 118.5t36.5 131.5q42 89 128 153q89 66 181 66q52 0 96 -22.5t79 -64.5q57 -72 55.5 -177.5t-67.5 -246.5zM1091 868q48 186 -80 186q-79 0 -144.5 -49t-103.5 -132q-32 -69 -16 -114
q15 -45 77 -45q52 0 159 57v-1q99 57 108 98z" />
    <glyph glyph-name="dv_eight" unicode="&#x96e;" horiz-adv-x="1036" 
d="M868 273q-56 -42 -116 -80t-124 -71q-106 -54 -201 -83t-176 -29q-189 0 -288 125q-89 119 -32 244q17 37 61.5 82t116.5 102l1006 771l13 -150q-44 -36 -276.5 -216t-645.5 -497q-69 -54 -111 -99t-55 -76q-20 -59 25 -109q61 -55 185 -55q105 0 261 80h-1
q81 43 305 184z" />
    <glyph glyph-name="dv_nine" unicode="&#x96f;" horiz-adv-x="1081" 
d="M594 -15q-10 -21 -33.5 -47.5t-61.5 -58.5q-32 -26 -64 -47.5t-67 -40.5l-100 116q154 67 183 132q23 49 -62 231h1q-36 75 -83 176t-105 230q-20 51 -31 88t-16 58q-7 40 -2 82t25 84q69 148 234 251q154 95 287 95q130 0 196 -114q67 -113 2 -233q-65 -116 -223 -211
q-85 -53 -170 -82t-178 -35q27 -56 70 -141t102 -203q26 -46 50 -91.5t47 -91.5q30 -74 -1 -146v-1zM778 1070q38 74 22.5 104.5t-94.5 30.5q-102 0 -231 -88q-65 -45 -109.5 -92t-67.5 -98q-44 -92 -7 -135q121 0 250 58h-1q85 39 144.5 93.5t93.5 126.5z" />
    <glyph glyph-name="dv_abbreviation" unicode="&#x970;" 
d="M793 272q-53 -115 -175 -199q-119 -82 -237 -82q-117 0 -160 82q-44 80 11 199q28 59 70.5 108t103.5 91q121 82 237 82t160 -82q44 -84 -10 -199zM648 272q14 29 15 52.5t-10 43.5q-21 39 -78 39q-59 0 -116 -39q-54 -36 -83 -96q-27 -59 -7 -97t80 -38q56 0 115 39
q59 40 84 96z" />
    <glyph glyph-name="dv_high_bindu" unicode="&#x971;" horiz-adv-x="0" 
d="M-223 1845l321 208l126 -208l-320 -207z" />
    <glyph glyph-name="dv_marathi_a_chandra" unicode="&#x972;" horiz-adv-x="1597" 
d="M1613 1193h-255l-557 -1193l-119 88l233 501q-53 -18 -92 -25t-74 -7q-11 0 -17.5 0.5t-12.5 1.5q-30 7 -68 26.5t-83 52.5q-5 -32 -14.5 -66t-23.5 -63q-66 -139 -214 -224q-137 -75 -287 -75q-316 0 -317 476l97 43q1 -63 10.5 -116.5t29.5 -98.5q66 -153 226 -155
q95 -2 208 75q55 38 93.5 78t58.5 83q31 67 14 117q-21 49 -65 53q-5 0 -31.5 -8.5t-77.5 -25.5q-53 -18 -95 -27.5t-76 -10.5q-62 111 -38 163q93 36 193 42q54 3 86 5.5t42 4.5q19 9 43 25t50 36q32 26 58 56t43 59q29 54 3 105q-33 56 -120 46q-37 -5 -158 -48
q-62 -23 -106 -35t-69 -13l-4 148q198 68 314 73q127 5 211 -93q104 -116 49 -232q-43 -94 -199 -209q23 -32 54.5 -55.5t75.5 -41.5q77 -34 122 -28q57 7 121 29t133 58l189 405h-296l-24 149h716zM1221 2014l59 -114q-1 -31 2.5 -69t18.5 -71t46.5 -55.5t86.5 -22.5
q48 0 95.5 21.5t89.5 52.5t75.5 66t53.5 61l77 52l61 -117q-16 -23 -44 -54.5t-64.5 -65.5t-79.5 -67.5t-89.5 -60t-95 -43.5t-96.5 -17q-66 0 -115 23t-82.5 60.5t-53.5 85.5t-29 97.5t-8.5 97t8.5 83.5z" />
    <glyph glyph-name="dv_kash_oe" unicode="&#x973;" horiz-adv-x="1597" 
d="M1734 1193h-255l-557 -1193l-119 88l233 501q-53 -18 -92 -25t-74 -7q-11 0 -17.5 0.5t-12.5 1.5q-30 7 -68 26.5t-83 52.5q-5 -32 -14.5 -66t-23.5 -63q-66 -139 -214 -224q-137 -75 -287 -75q-316 0 -317 476l97 43q1 -63 10.5 -116.5t29.5 -98.5q66 -153 226 -155
q95 -2 208 75q55 38 93.5 78t58.5 83q31 67 14 117q-21 49 -65 53q-5 0 -31.5 -8.5t-77.5 -25.5q-53 -18 -95 -27.5t-76 -10.5q-62 111 -38 163q93 36 193 42q54 3 86 5.5t42 4.5q19 9 43 25t50 36q32 26 58 56t43 59q29 54 3 105q-33 56 -120 46q-37 -5 -158 -48
q-62 -23 -106 -35t-69 -13l-4 148q198 68 314 73q127 5 211 -93q104 -116 49 -232q-43 -94 -199 -209q23 -32 54.5 -55.5t75.5 -41.5q77 -34 122 -28q57 7 121 29t133 58l189 405h-296l-24 149h716zM1476 1291l-63 116l208 447l80 55l64 -116l-209 -447z" />
    <glyph glyph-name="dv_kash_ooe" unicode="&#x974;" horiz-adv-x="1597" 
d="M1583 1193h-255l-555 -1193l-120 88l233 501q-53 -18 -92 -25t-74 -7q-11 0 -18 0.5t-12 1.5q-30 7 -68 26.5t-83 52.5q-5 -32 -15 -66t-24 -63q-66 -139 -213 -224q-137 -75 -287 -75q-316 0 -317 476l97 43q1 -63 10 -116.5t29 -98.5q67 -153 226 -155q97 -2 208 75
q113 76 153 161q31 67 14 117q-21 49 -65 53q-5 0 -31.5 -8.5t-77.5 -25.5q-107 -37 -172 -38q-60 112 -37 163q93 36 193 42q53 3 85 5.5t43 4.5q19 9 43 25t50 36q32 26 58 56t43 59q14 26 15.5 52.5t-12.5 52.5q-17 28 -46 39.5t-74 6.5q-36 -4 -158 -48
q-62 -23 -106 -35t-69 -13l-5 148q199 68 315 73q127 5 211 -93q51 -58 64 -115t-15 -117q-43 -94 -199 -209q23 -32 54.5 -55.5t74.5 -41.5q79 -34 123 -28q57 7 121 29t133 58l189 405h-296l-25 149h717zM1888 1193h-260l-555 -1193l-130 62l528 1131h-198l-25 149h617z
M1626 1291l-64 116l208 447l81 55l63 -116l-209 -447z" />
    <glyph glyph-name="dv_kash_aw" unicode="&#x975;" horiz-adv-x="1597" 
d="M1586 1193h-255l-555 -1193l-120 88l233 501q-53 -18 -92 -25t-74 -7q-11 0 -18 0.5t-12 1.5q-30 7 -68 26.5t-83 52.5q-5 -32 -15 -66t-24 -63q-66 -139 -213 -224q-137 -75 -287 -75q-316 0 -317 476l97 43q1 -63 10 -116.5t29 -98.5q67 -153 226 -155q97 -2 208 75
q113 76 153 161q31 67 14 117q-21 49 -65 53q-5 0 -31.5 -8.5t-77.5 -25.5q-107 -37 -172 -38q-60 112 -37 163q93 36 193 42q53 3 85 5.5t43 4.5q19 9 43 25t50 36q32 26 58 56t43 59q14 26 15.5 52.5t-12.5 52.5q-17 28 -46 39.5t-74 6.5q-36 -4 -158 -48
q-62 -23 -106 -35t-69 -13l-5 148q199 68 315 73q127 5 211 -93q51 -58 64 -115t-15 -117q-43 -94 -199 -209q23 -32 54.5 -55.5t74.5 -41.5q79 -34 123 -28q57 7 121 29t133 58l189 405h-296l-25 149h717zM1891 1193h-260l-555 -1193l-130 62l528 1131h-198l-25 149h617z
M1745 1565q9 19 4.5 36.5t-19 34.5t-35.5 33.5t-45 34.5q-35 26 -70.5 55t-58.5 66t-27 83t24 106q11 24 31 48.5t51 49.5t74 50t101 50l64 -120l-75 -52q-42 -19 -68 -42t-37 -46q-9 -19 -4.5 -36.5t19 -34.5t35.5 -33.5t45 -34.5q35 -26 71 -55.5t59 -66t27 -82.5
t-24 -106q-16 -35 -51.5 -67.5t-79 -61.5t-90.5 -54t-86 -44l-62 112q-5 39 -12 71t-21 55t-38 36t-61 13h-150q-41 0 -75 16.5t-61.5 55.5t-48 103.5t-33.5 160.5l84 58l62 -112q2 -24 6 -44.5t13.5 -35t26.5 -23t46 -8.5h149q56 0 93 -20.5t61.5 -57t41 -86t31.5 -106.5
q42 18 69 42t44 59z" />
    <glyph glyph-name="dv_kash_ue" unicode="&#x976;" horiz-adv-x="1597" 
d="M1768 1193h-255l-557 -1193l-119 88l233 501q-53 -18 -92 -25t-74 -7q-11 0 -17.5 0.5t-12.5 1.5q-30 7 -68 26.5t-83 52.5q-5 -32 -14.5 -66t-23.5 -63q-66 -139 -214 -224q-137 -75 -287 -75q-316 0 -317 476l97 43q1 -63 10.5 -116.5t29.5 -98.5q66 -153 226 -155
q95 -2 208 75q55 38 93.5 78t58.5 83q31 67 14 117q-21 49 -65 53q-5 0 -31.5 -8.5t-77.5 -25.5q-53 -18 -95 -27.5t-76 -10.5q-62 111 -38 163q93 36 193 42q54 3 86 5.5t42 4.5q19 9 43 25t50 36q32 26 58 56t43 59q29 54 3 105q-33 56 -120 46q-37 -5 -158 -48
q-62 -23 -106 -35t-69 -13l-4 148q198 68 314 73q127 5 211 -93q104 -116 49 -232q-43 -94 -199 -209q23 -32 54.5 -55.5t75.5 -41.5q77 -34 122 -28q57 7 121 29t133 58l189 405h-296l-24 149h716zM-82 -89q24 -33 57.5 -60t73 -46.5t82.5 -30.5t87 -11q57 0 107.5 9
t101.5 27.5t104.5 46t116.5 65.5l64 -118l-75 -51q-40 -27 -87 -54t-101 -48.5t-116 -35t-133 -13.5t-129 22.5t-104.5 59.5t-81 84t-56.5 95z" />
    <glyph glyph-name="dv_kash_uue" unicode="&#x977;" horiz-adv-x="1597" 
d="M1795 1193h-255l-557 -1193l-119 88l233 501q-53 -18 -92 -25t-74 -7q-11 0 -17.5 0.5t-12.5 1.5q-30 7 -68 26.5t-83 52.5q-5 -32 -14.5 -66t-23.5 -63q-66 -139 -214 -224q-137 -75 -287 -75q-316 0 -317 476l97 43q1 -63 10.5 -116.5t29.5 -98.5q66 -153 226 -155
q95 -2 208 75q55 38 93.5 78t58.5 83q31 67 14 117q-21 49 -65 53q-5 0 -31.5 -8.5t-77.5 -25.5q-53 -18 -95 -27.5t-76 -10.5q-62 111 -38 163q93 36 193 42q54 3 86 5.5t42 4.5q19 9 43 25t50 36q32 26 58 56t43 59q29 54 3 105q-33 56 -120 46q-37 -5 -158 -48
q-62 -23 -106 -35t-69 -13l-4 148q198 68 314 73q127 5 211 -93q104 -116 49 -232q-43 -94 -199 -209q23 -32 54.5 -55.5t75.5 -41.5q77 -34 122 -28q57 7 121 29t133 58l189 405h-296l-24 149h716zM5 -89q24 -32 58 -59.5t73 -47t82 -30.5t87 -11q57 0 108 9t101.5 27.5
t104.5 46t117 65.5l63 -118l-75 -51q-39 -27 -86.5 -54t-102 -48.5t-116.5 -35t-131 -13.5q-71 0 -129.5 22.5t-105 59.5t-81 84t-56.5 95zM-112 -412q25 -33 58.5 -60.5t72.5 -47.5t82.5 -31.5t87.5 -11.5q57 0 108.5 9.5t102.5 28.5t104 47t115 66l63 -122l-74 -50
q-38 -27 -86 -54t-103.5 -48t-117.5 -34.5t-129 -13.5q-69 1 -128 23t-106 58.5t-81 84t-54 98.5z" />
    <glyph glyph-name="R.001" unicode="&#x979;" horiz-adv-x="1339" 
d="M1551 1193h-218l-547 -1193l-132 78l337 722h-353q17 -41 28.5 -71.5t17.5 -50.5q24 -112 -19 -201q-26 -54 -66.5 -94t-95.5 -69q-90 -45 -190 -45q-273 0 -273 567l104 45q-4 -73 1 -136t19 -118q49 -193 196 -197q46 -1 98 31q61 38 89 98q50 107 -18 215l1 -1
q-14 15 -31.5 34.5t-35 39.5t-35 39.5t-31.5 35.5q12 0 30.5 9t35.5 27h601l110 235h-1018l-10 149h1392zM-211 71l216 146l78 -146l-214 -145zM230 71l215 146l78 -146l-214 -145zM-93 -150l215 146l78 -146l-214 -145z" />
    <glyph glyph-name="dv_jya" unicode="&#x97a;" horiz-adv-x="1192" 
d="M1280 1193h-242l-556 -1193l-121 82l193 415q-41 -17 -82.5 -33t-82.5 -32q-56 -21 -103 -30.5t-86 -8.5q-75 2 -132.5 28t-95.5 72q-38 52 -52.5 126t-1.5 170q4 28 123 66q72 21 121 38.5t78 30.5q106 49 123 112q13 44 15 82.5t-9 74.5h-359l-21 149h1278zM875 1193
h-379q1 -114 -10 -188t-34 -106q-23 -30 -72 -62t-120 -61q-78 -32 -123.5 -53.5t-62.5 -32.5q-5 -8 -9.5 -15.5t-7.5 -15.5q-68 -148 112 -143q144 2 473 178zM589 411l-201 482l88 189l197 -491z" />
    <glyph glyph-name="dv_sindhi_gg" unicode="&#x97b;" horiz-adv-x="1229" 
d="M-177 5q3 8 41 12.5t98 4.5q23 0 49 -0.5t55 -0.5h124l334 -4l549 1176h-377l-268 -574q-32 -70 -80 -118l1 1q-60 -62 -114 -62q-53 0 -93 117q-17 56 -22 92t3 54q37 82 120 82h8t8 -1q2 0 3.5 -0.5t3.5 -0.5h22q54 0 76 48l169 362q-85 0 -172 -1t-172 -1l-17 151
h1294l12 -149h-247q-157 -337 -312 -671.5t-312 -671.5h-856z" />
    <glyph glyph-name="dv_sindhi_jj" unicode="&#x97c;" horiz-adv-x="1339" 
d="M-233 -74l80 172h837l328 702h-353q17 -41 28.5 -71.5t17.5 -50.5q24 -112 -19 -201q-26 -54 -66.5 -94t-95.5 -69q-90 -45 -190 -45q-273 0 -273 567l104 45q-4 -73 1 -136t19 -118q49 -193 196 -197q46 -1 98 31q61 38 89 98q50 107 -18 215l1 -1q-14 15 -31.5 34.5
t-35 39.5t-35 39.5t-31.5 35.5q12 0 30.5 9t35.5 27h601l110 235h-1018l-10 149h1392l13 -149h-218l-591 -1267h-996z" />
    <glyph glyph-name="dv_sindhi_limbu" unicode="&#x97d;" horiz-adv-x="1303" 
d="M43 -13l-60 116l139 300l74 50h47q175 0 286 61t158 163q18 39 18 73t-19 59.5t-57.5 40.5t-97.5 15q-66 0 -129.5 -18.5t-121.5 -45.5t-109.5 -58.5t-92.5 -58.5l-65 121l94 64q39 26 86.5 55t103 54t118.5 41t133 16q95 0 165.5 -33t109.5 -89.5t42 -132.5t-37 -163
q-31 -67 -88.5 -127t-135 -106t-171 -73.5t-197.5 -28.5l-112 -240zM-28 1157l-64 114l81 57h1345l62 -117l-80 -54h-1344z" />
    <glyph glyph-name="dv_sindhi_ddd" unicode="&#x97e;" horiz-adv-x="1190" 
d="M1532 1193h-288l-137 -294l-31 -21h-392q-145 0 -211 -115q-12 -22 -18.5 -44t-4.5 -45h-1q3 -21 10.5 -36t23.5 -24q64 11 145 22t184 25q58 7 104 -18t76 -76q62 -105 6 -228q-27 -58 -74.5 -108t-113.5 -92q-149 -93 -328 -93q-106 0 -197.5 52t-161.5 147
q-21 31 -41 67t-36 74t-28.5 76.5t-18.5 74.5l97 49q3 -11 8 -25.5t8 -25.5q8 -23 15 -46.5t14 -48.5h-1q39 -103 108 -167q48 -36 114.5 -58t142.5 -22q110 0 225 59q118 59 162 155q46 97 -45 97q-4 0 -15.5 -0.5t-34.5 -2.5t-58 -7t-85 -15q-53 -11 -90 -16.5t-60 -6.5
q-124 -8 -163 139q-34 132 23 256q37 78 130 127l-2 -1q82 45 157 45h368l80 171h-809l-28 149h1250zM-268 -124h1032l-78 -159h-1027z" />
    <glyph glyph-name="dv_sindhi_bb" unicode="&#x97f;" horiz-adv-x="1303" 
d="M1564 1193h-269q-146 -312 -296 -631t-296 -631l-79 159l183 392q-44 -32 -81 -56t-68 -38q-75 -35 -158 -53.5t-175 -18.5q-122 0 -201 111q-40 58 -45.5 119t25.5 127q37 78 100.5 140.5t148.5 106.5q73 37 151.5 56t162.5 19q237 0 272 -230l200 428h-966l-18 149
h1379zM812 685q43 91 10 142q-25 46 -102 51q-50 3 -95 -3.5t-88 -23.5q17 -89 31 -173.5t29 -174.5q82 33 135 79t80 103zM439 817q-160 -70 -233 -224q-45 -98 24 -138q42 -25 100 -25h16.5t18.5 2q31 4 64.5 11.5t71.5 21.5zM-190 107h835l72 -157h-978z" />
    <glyph glyph-name="dv_reph" horiz-adv-x="0" 
d="M184 1722q-11 87 -26 115q-26 52 -90 40q-128 -21 -198 -183q-30 -71 -37 -155t12 -184l-78 -37q-17 38 -26 86t-12 103q-8 145 41 257q50 121 151 192h-1q97 70 199 70q187 0 145 -278z" />
    <glyph glyph-name="dv_ekaar_reph" horiz-adv-x="0" 
d="M462 1697q-12 -22 -58 -39q-45 72 -95 67q-42 -5 -84 -36q-34 -26 -65 -67.5t-51 -92.5q-23 -55 -35.5 -93t-17.5 -58l-20 -55h-91l-11 53q-38 192 -86 291.5t-102 113.5q-15 3 -31.5 4.5t-31.5 1.5q-31 0 -64.5 -5.5t-68.5 -16.5l-19 190q13 45 84 52q9 1 17.5 1.5
t17.5 0.5q94 0 157 -55.5t99 -165.5q6 -17 28 -101.5t63 -241.5q5 2 11 7.5t8 13.5v-3q5 28 9.5 55t7.5 54q6 40 15.5 70t20.5 52q35 71 103 123q67 55 138 55q120 0 158 -144q1 -15 -6 -30v-1z" />
    <glyph glyph-name="dv_aikaar_reph_bindu" horiz-adv-x="0" 
d="M468 1840q-1 -52 -48 -59q-12 0 -46 26q-29 24 -66 24q-14 0 -30 -3.5t-34 -9.5q-124 -41 -224 -239q-17 -35 -44 -119q-21 -80 -32 -93q-5 -12 -10.5 -27.5t-9.5 -26.5h-108l-64 52q-21 31 -57 66t-81 70q-53 38 -97 57.5t-76 18.5q-10 0 -29 -6t-44 -16
q-63 -25 -71 -16q-19 18 -35 70q-8 26 -16.5 51t-16.5 50q0 10 5 19q6 13 16.5 22.5t28.5 16.5q12 1 25 1.5t24 0.5q43 0 83 -9.5t74 -29.5q4 -2 25 -19t60 -49h-1q24 -20 60 -57.5t81 -94.5q48 -55 77 -89t39 -42q8 -2 11 -2q2 0 3.5 5t2.5 13q-8 70 -19 132t-23 114
q-45 204 -108 234h1q-8 3 -19 5t-26 2q-26 0 -59 -5.5t-74 -16.5q-1 51 3 106t11 112q36 65 80 45l-1 1q168 -42 230 -305l1 1q14 -58 39 -265q9 -67 17 -103.5t19 -42.5q2 2 6.5 10t10.5 20q31 245 62 308q46 101 131 158q82 53 164 53q65 0 114 -40q9 -8 24.5 -27
t37.5 -48zM353 1591l304 198l115 -198l-300 -199z" />
    <glyph glyph-name="dv_v_mark" horiz-adv-x="0" 
d="M78 -623l-88 96l54 117q-51 -25 -83.5 -40t-42.5 -19l1 1q-106 -45 -164 -44q-117 1 -170 89q-53 86 -6 189q50 104 152 168q104 64 216 64q55 0 97 -12.5t68 -34.5q28 -25 56 -95l144 308h133zM115 -253q-2 2 -3.5 4.5t-2.5 4.5q3 2 7 4.5t7 4.5zM-242 -407
q105 0 351 163q-75 112 -187 112q-79 0 -149 -41q-71 -41 -101 -115q-22 -51 1 -85t85 -34z" />
    <glyph glyph-name="dv_aikaar_bindu" horiz-adv-x="0" 
d="M-139 1321q20 72 38 162t37 200v-1q7 216 -38 240q-13 6 -47.5 9.5t-94.5 3.5q34 107 57.5 172t36.5 88q26 16 46 16q40 0 82 -54q35 -45 42 -85q11 -66 9 -167t-16 -231q-3 -33 -15 -83.5t-31 -111.5q-14 -42 -23.5 -72.5t-14.5 -47.5q-2 -5 -3.5 -11.5t-3.5 -12.5
q-2 -7 -3 -14h-58zM-190 1301q-13 35 -38 94.5t-59 137.5h1q-70 143 -140 143q-38 0 -139 -34q-11 34 -11 91.5t8 140.5q24 34 65 34q33 0 90 -26q18 -11 43 -36t54 -65q28 -37 50 -72.5t36 -66.5q15 -32 41 -111t64 -201zM157 1621l304 198l115 -198l-300 -199z" />
    <glyph glyph-name="dv_aikaar_reph" horiz-adv-x="0" 
d="M554 1687l-52 -14q-36 89 -86 86q-37 -1 -85 -39q-70 -52 -115 -157q-20 -48 -32.5 -84.5t-19.5 -61.5q-8 -29 -11 -51l1 1q-1 -10 -2.5 -28t-2.5 -28h-134q-15 14 -32.5 29.5t-33.5 32.5q-188 200 -296 200q-55 0 -90 -17h1l-23 -11q-10 -5 -24 -13t-23 -13
q-10 9 -24.5 59t-38.5 143q13 43 81 43q14 0 34 -2t43 -5q72 -14 184.5 -110t261.5 -276q3 5 7 6q0 1 1 2q0 1 1 1v-2q2 57 -10.5 130.5t-36.5 161.5q-29 96 -61.5 151t-64.5 56q-40 0 -148 -27l7 221q9 23 27 34t40 9q66 -5 119 -54t92 -141q27 -66 47 -152.5t31 -197.5
q5 -48 9 -95.5t8 -95.5q5 20 13.5 63t22.5 113q13 60 27 108.5t25 71.5q41 70 94 113.5t117 56.5q6 1 11.5 1.5t13.5 0.5q59 0 100 -38q50 -50 41 -152z" />
    <glyph glyph-name="dv_ikaar_reph" horiz-adv-x="655" 
d="M1325 1867q-6 -12 -20 -21t-37 -18q-45 71 -95 67q-20 -2 -40.5 -10.5t-43.5 -25.5q-35 -26 -64.5 -66t-50.5 -94q-22 -55 -35 -92t-18 -57v1q-2 -8 -3.5 -20t-4 -25t-4.5 -25t-3 -20l-55 40l-1 4q-106 105 -211.5 159t-208.5 54q-106 0 -211 -69q-117 -79 -175 -205
q-16 -34 -21 -58.5t0 -43.5h218l9 -149h-253l-555 -1193l-117 88l515 1105h-313l-14 149h419q-2 14 -4 26t-3 23h1q-2 44 3.5 82.5t20.5 72.5q37 83 150 179q82 70 172 102t181 29q55 -4 115.5 -24t120.5 -55q54 -32 101 -70.5t84 -83.5q16 97 31 156t29 85q17 35 43 66
t58 57q35 27 70.5 41.5t69.5 14.5q119 0 156 -145q0 -19 -5 -30z" />
    <glyph glyph-name="dv_ekaar_reph_bindu" horiz-adv-x="0" 
d="M392 1832q-15 -31 -70 -40q-54 57 -106 57q-19 0 -46 -6q-68 -16 -129.5 -79.5t-115.5 -163.5q-10 -21 -23.5 -57.5t-25.5 -75.5q-26 -90 -30 -148h-63l-22 62q-8 29 -24.5 79t-39.5 122q-35 97 -71.5 155.5t-70.5 64.5q-6 2 -13.5 2h-15.5q-49 0 -159 -19
q-17 65 -21.5 113t1.5 81q10 18 26 27t37 12q14 1 27.5 1.5t25.5 0.5q63 2 113 -15.5t80 -59.5q17 -22 35 -68.5t38 -117.5q27 -95 47 -173.5t32 -141.5l-1 1l7.5 -16.5t7.5 -6.5q-4 0 -2 5t5 14t5 21l1 -1q5 92 20 166.5t43 133.5q46 100 144 165q96 64 181 64
q55 0 121 -59q69 -62 52 -99zM239 1571l303 198l116 -198l-301 -199z" />
    <glyph glyph-name="dv_iikaar_reph_bindu" horiz-adv-x="482" 
d="M769 1724q-4 -5 -15 -11.5t-25 -13.5q-78 72 -148 72q-24 0 -43 -6q-103 -24 -183 -121l1 1q-55 -67 -88 -147q-16 -35 -30.5 -70.5t-32.5 -85.5h228l5 -149h-262q-140 -299 -274.5 -597t-273.5 -596l-132 76l521 1117l-135 -1l2 150h231q10 83 11.5 146t-6.5 102
q-16 66 -54.5 102.5t-99.5 38.5q-65 2 -122 -26.5t-103.5 -81t-81 -124.5t-54.5 -157q-28 -5 -43.5 -3t-24.5 3q-10 -2 -18 -3t-14.5 -0.5t-11.5 3.5q-4 14 0.5 38t13.5 52.5t21.5 59t25 57t24 48t19.5 31.5q59 80 125.5 140t157.5 95q29 11 60 17.5t56 6.5q129 0 183 -137
q10 -28 14.5 -64.5t2.5 -81.5q-2 -30 -3.5 -60.5t-3.5 -61.5q40 94 65 148.5t33 68.5q52 89 120 146q87 72 169 72q76 -1 126 -45.5t75 -131.5q0 -7 -8 -16zM572 1451l303 198l116 -198l-301 -199z" />
    <glyph glyph-name="dv_ekaar_bindu" horiz-adv-x="0" 
d="M-88 1294q-3 7 -19 52t-42 120q-7 21 -14 44t-17 49q-29 86 -59 142t-59 73q-17 11 -48 11q-56 0 -149 -29l-26 210l60 30q20 2 38.5 3.5t37.5 1.5q57 0 117 -28q62 -27 143 -274q28 -88 53 -181.5t43 -184.5zM102 1811l303 198l116 -198l-301 -199z" />
    <glyph glyph-name="dv_iikaar_reph" horiz-adv-x="482" 
d="M876 1724q-4 -5 -15 -11.5t-25 -13.5q-78 72 -148 72q-24 0 -43 -6q-103 -24 -183 -121l1 1q-55 -67 -88 -147q-16 -35 -30.5 -70.5t-32.5 -85.5h228l5 -149h-262q-140 -299 -274.5 -597t-273.5 -596l-132 76l521 1117l-135 -1l2 150h231q10 83 11.5 146t-6.5 102
q-16 66 -54.5 102.5t-99.5 38.5q-65 2 -122 -26.5t-103.5 -81t-81 -124.5t-54.5 -157q-28 -5 -43.5 -3t-24.5 3q-10 -2 -18 -3t-14.5 -0.5t-11.5 3.5q-4 14 0.5 38t13.5 52.5t21.5 59t25 57t24 48t19.5 31.5q59 80 125.5 140t157.5 95q29 11 60 17.5t56 6.5q129 0 183 -137
q10 -28 14.5 -64.5t2.5 -81.5q-2 -30 -3.5 -60.5t-3.5 -61.5q40 94 65 148.5t33 68.5q52 89 120 146q87 72 169 72q76 -1 126 -45.5t75 -131.5q0 -7 -8 -16z" />
    <glyph glyph-name="dv_reph_bindu" horiz-adv-x="6" 
d="M22 1771l-20 36q-25 52 -90 40q-126 -19 -196 -182q-31 -71 -38 -155t13 -184l-80 -37q-17 37 -25.5 85.5t-11.5 103.5q-5 72 6 136.5t34 120.5q26 60 63 108.5t88 83.5h-1q99 70 200 70q184 0 217 -141zM16 1581l303 198l116 -198l-301 -199z" />
    <glyph glyph-name="dv_iikaar_bindu" horiz-adv-x="520" 
d="M554 1193h-284l-561 -1193l-124 59l529 1134l-150 -1l-1 150h250l11 22q66 143 38 248q-16 64 -52.5 96t-99.5 27q-80 -7 -139.5 -48t-104 -98.5t-76.5 -123.5t-56 -123h-101q-1 6 4.5 25t14.5 45t21.5 57.5t26 62t27.5 58.5t27 47q35 48 74 92t96 83q58 40 114 59
t110 19q61 0 107 -26t75 -77q28 -51 35 -114t-7 -134q-10 -41 -20.5 -79.5t-24.5 -74.5q-8 -26 -13 -42l-1 -1h249zM516 1691l303 198l116 -198l-301 -199z" />
    <glyph glyph-name="dv_rakaar.alt" horiz-adv-x="0" 
d="M412 471l-815 -481l-81 109l968 528z" />
    <glyph glyph-name="dv_rakaar" horiz-adv-x="0" 
d="M-304 -625l-65 120l500 341h21l217 -408l-88 -59l-159 295h-2z" />
    <glyph glyph-name="dv_half_b" horiz-adv-x="729" 
d="M869 1193h-890l-28 149h987zM617 580q-23 -34 -86 -91q-100 -75 -161 -103q-151 -70 -331 -70q-122 0 -201 111q-80 116 -20 246q37 78 101 140.5t149 106.5q72 37 151 56t162 19q242 0 274 -240q6 -109 -38 -174v-1zM527 685q41 89 9 142q-25 46 -102 51
q-50 3 -94.5 -3.5t-87.5 -23.5q15 -89 29 -174t30 -174q161 64 216 182zM153 817q-159 -70 -232 -224q-45 -98 24 -138q42 -25 99 -25h17t18 2q29 4 62.5 11.5t73.5 21.5z" />
    <glyph glyph-name="dv_half_nya" horiz-adv-x="911" 
d="M1105 1193h-1114l-30 149h1194zM795 568h-61q-51 -3 -98.5 -6t-98.5 -7q-168 -235 -444 -235q-254 0 -336 354l96 55q42 -130 89 -184q32 -41 76 -61t98 -20q112 0 224 80q102 72 152 168q26 54 12 101q-15 46 -63 46q-29 0 -263 -146l-72 134q158 115 312 115
q151 0 193 -109q27 -74 3 -145q43 5 92 12t106 16q12 2 33.5 6t33.5 6z" />
    <glyph glyph-name="dv_half_n" horiz-adv-x="614" 
d="M650 1193h-687l-18 149h704zM583 681h-392q-46 -6 -63 -44l-19 -40q-14 -31 -24.5 -51.5t-17.5 -29.5q-37 -52 -91 -52q-35 0 -67 113q-28 112 -12 159q5 17 20.5 33t40.5 29q46 25 93 25h672z" />
    <glyph glyph-name="dv_half_nn" horiz-adv-x="754" 
d="M893 1193h-238l-274 -588q-34 -71 -135 -136q-114 -71 -224 -67h1q-119 5 -189 114q-70 111 -19 221l213 456h-130l-27 149h1091zM488 1193h-292l-248 -532q-34 -72 -22 -100q12 -35 92 -41q64 -6 135 48q33 26 56 51.5t34 49.5z" />
    <glyph glyph-name="dv_half_m" horiz-adv-x="641" 
d="M746 787l-123 -148l-552 4q-23 -49 -38 -80.5t-20 -39.5q-40 -67 -92 -69q-38 -2 -98 106q-63 108 -41 153q30 65 101 77l-8 -4q4 2 30.5 4.5t74.5 3.5l186 399h-234l-30 149h964l-134 -149h-398l-190 -406h602z" />
    <glyph glyph-name="dv_half_j" horiz-adv-x="846" 
d="M930 1193h-978l-25 149h1072zM798 804h-412q18 -42 27 -67.5t13 -42.5v1q25 -97 -16 -182q-23 -47 -61 -84t-86 -63q-38 -19 -82 -30.5t-89 -11.5q-245 0 -245 513l96 39q-8 -131 18 -229q44 -170 175 -175q40 -1 94 30q50 32 75 85q47 100 -16 193l1 -1
q-26 28 -54.5 60.5t-53.5 61.5l48 45h530z" />
    <glyph glyph-name="dv_half_g" horiz-adv-x="670" 
d="M-71 1193l-14 149h903l-66 -149h-321l-268 -574q-16 -35 -35 -64t-45 -54l1 1q-59 -62 -114 -62q-54 0 -92 117q-35 112 -19 146q37 82 120 82h7.5t7.5 -1q2 0 3.5 -0.5t3.5 -0.5h23q53 0 75 48l169 362h-339z" />
    <glyph glyph-name="dv_half_p" horiz-adv-x="563" 
d="M443 620l-112 -55q-58 -29 -120 -46t-123 -19q-95 -4 -179 104q-92 116 -38 229l168 360h-145l-5 149h823l-69 -149h-443l-192 -412q-67 -141 70 -141q104 0 334 106l-1 -1q12 7 28.5 16.5t34 20t33.5 20t28 16.5z" />
    <glyph glyph-name="dv_half_v" horiz-adv-x="688" 
d="M839 1193h-924l-32 149h1025zM559 551l-106 -66q-302 -153 -419 -147q-139 6 -211 113q-39 56 -42.5 117.5t27.5 128.5q54 122 188 211q135 92 266 92q85 0 147 -15.5t98 -44.5q21 -20 43.5 -58.5t42.5 -95.5zM547 681q-2 2 -3 4.5t-3 4.5l14 9zM19 453q160 -5 522 237
q-62 88 -134 129t-158 36q-103 -6 -189 -56q-98 -55 -144 -160q-74 -179 103 -186z" />
    <glyph glyph-name="dv_half_s" horiz-adv-x="793" 
d="M1012 1342l-71 -149h-503q-48 -114 -94 -224t-94 -225q35 -34 77.5 -54t90.5 -24q45 -5 122 18t187 72l-82 -191q-63 -28 -117.5 -40t-99.5 -10q-35 1 -72.5 13.5t-72.5 33.5q-67 39 -99 89q-108 -87 -260 -154q8 -28 31 -83t56 -126q25 -50 49 -104q14 -29 31 -63
t31 -65l-113 -78q-80 187 -131 317t-72 194q-44 151 -5 227q22 42 49 60t56 14q20 -2 72 -32q51 -30 77 -26q27 3 51 59q47 104 89 201t89 201h-376l-16 149h1120z" />
    <glyph glyph-name="dv_half_y" horiz-adv-x="629" 
d="M701 1342l28 -149h-244q-1 -27 -3.5 -66.5t-8.5 -83.5q-8 -57 -16 -93t-16 -53q-15 -30 -65.5 -63t-119.5 -62q-81 -33 -130.5 -54.5t-63.5 -32.5q-5 -7 -9.5 -15t-7.5 -15q-68 -148 112 -143q74 2 189 46.5t273 135.5l-27 -178q-48 -20 -101 -42t-99 -40
q-64 -25 -114.5 -36t-88.5 -9h1q-153 4 -229 100q-81 103 -54 296q3 28 121 66q69 20 120.5 38t81.5 31q49 24 81 53t40 60q12 42 13.5 83t-6.5 77h-354l-23 149h720z" />
    <glyph glyph-name="dv_half_c" horiz-adv-x="903" 
d="M969 1193h-1022l-28 149h1119zM744 534l-128 -87q-251 -143 -411 -143q-137 0 -206 94q-69 97 -13 217q43 92 136 173q-61 -1 -122.5 -2t-121.5 -2l-12 150h834l19 -130l-228 -2q-270 -2 -388 -257q-65 -138 100 -138q82 0 282 109q81 44 137.5 77.5t85.5 57.5l134 95z
" />
    <glyph glyph-name="dv_half_k" horiz-adv-x="1094" 
d="M1002 704q-45 20 -84 19q-16 -2 -56.5 -17t-98.5 -41q-57 -26 -101 -48t-69 -39l-280 -600l-113 112l171 366q-31 -14 -66 -30.5t-64 -30.5q-60 -24 -112 -37t-96 -14q-130 -2 -198 101h1q-76 112 -8 260q55 116 167 191q126 84 284 84q66 0 115.5 -20.5t81.5 -56.5
q12 -17 26 -45.5t25 -66.5l188 402h-727l-28 149h1339l-70 -149h-349l-194 -416q5 2 9 4l8 4q17 8 34.5 16.5t33.5 16.5q44 21 81 34t63 15q8 1 15.5 1.5t16.5 0.5q66 0 112 -43zM473 652q-3 2 -3 9q2 2 5 4t7 4zM218 527q42 19 104 52.5t148 81.5q-58 175 -244 175
q-42 0 -82 -11t-81 -34q-98 -55 -144 -156q-38 -78 2 -124q14 -20 38 -29.5t56 -9.5q83 0 203 55z" />
    <glyph glyph-name="dv_half_t" horiz-adv-x="596" 
d="M782 1193h-880l-30 149h979zM569 790h-386q-73 0 -146 -52q-91 -64 -150 -191q-67 -143 61 -501l-117 -57q-34 149 -51.5 233t-19.5 92q-35 219 23 333q82 163 237 243q123 63 261 63h227l117 -40z" />
    <glyph glyph-name="dv_half_l" horiz-adv-x="1010" 
d="M1121 1193h-1091l-14 149h1089zM1011 706q-45 120 -115 120q-116 0 -402 -310l-80 97l91 90q-33 158 -151 158q-81 0 -178 -81q-41 -32 -69.5 -69t-48.5 -79q-4 -9 -8 -17.5t-7 -18.5q-47 -130 10 -267q58 -138 220 -266l-110 -80q-63 68 -111 130t-81 121
q-134 245 -48 443q20 45 56 92.5t84 92.5q72 66 148.5 100t157.5 36q110 2 166 -85q16 -34 29.5 -63.5t29.5 -62.5q21 21 48.5 44.5t60.5 46.5q55 38 102 56.5t88 18.5q126 0 182 -105z" />
    <glyph glyph-name="dv_half_sh" horiz-adv-x="893" 
d="M1050 1193h-348q39 -168 -26 -298q-46 -91 -115 -171.5t-154 -145.5q-56 -41 -142 -90.5t-197 -103.5q26 -82 58 -180t67 -204l-141 -71q-20 78 -37.5 158t-31.5 155q-6 29 -14 56t-15 41q-63 17 -95 26.5t-37 11.5q-40 24 -46.5 66t18.5 101q41 90 133 108q49 8 74 -57
v1q9 -23 16.5 -43.5t15.5 -43.5q22 5 56 18.5t76 36.5v-1q55 31 109 69t112 87q-42 17 -86 35t-87 35q-66 36 -95 88.5t-22 117.5q3 29 17 62q31 63 108 136h-306l-13 149h1217zM549 951q66 140 26 215q-22 52 -71 52t-116 -43q-37 -23 -64 -51.5t-42 -60.5q-8 -17 -12 -34
t-5 -35q-3 -80 70 -134v1q5 -4 17 -10.5t28 -14.5t34 -16.5t35 -16.5q12 14 22.5 28t24.5 29q15 21 28.5 44.5t24.5 46.5z" />
    <glyph glyph-name="dv_half_k_ss" horiz-adv-x="940" 
d="M1005 751q-36 -20 -77.5 -38t-91.5 -34q-62 -20 -114.5 -29t-100.5 -9q-57 0 -150 53q-24 15 -46 28.5t-48 27.5l-154 -77t-59 -31q-121 -73 -167 -171q-39 -83 8 -129q21 -21 53.5 -30.5t74.5 -9.5q31 0 57.5 4t53.5 14q-1 6 -1 20.5v38.5q2 55 9 70q28 63 111 63
q46 0 85 -36q22 -22 35 -36t17 -22q15 -30 0 -62q-4 -7 -8 -14.5t-10 -15.5q-26 -39 -119 -99q2 -15 16 -91.5t41 -218.5l-136 -67l-13 333q-19 -3 -37 -4t-38 -1q-136 0 -224 62q-70 52 -100 133q-15 45 -15 95.5t20 92.5q42 89 212 182q25 12 45.5 22t40.5 19.5t40.5 19
t44.5 20.5q-198 124 -128 273q54 117 192 189l-1 -1q106 59 191 59q51 0 94 -23t80 -68q41 -54 51 -113.5t-16 -116.5q-42 -87 -251 -220q22 -12 70 -24q29 -8 55 -12.5t43 -4.5q58 0 203 55q60 23 121 48.5t119 53.5zM589 1065q74 158 -60 158q-64 0 -142 -54
q-80 -54 -112 -124q-18 -39 -2.5 -83t69.5 -96q21 13 44.5 26t46.5 26l14 8t13 9q47 31 80.5 64.5t48.5 65.5z" />
    <glyph glyph-name="dv_half_ph" horiz-adv-x="897" 
d="M1079 1342l-71 -149h-258l-197 -421q36 14 72.5 29t71.5 29q42 17 76.5 26.5t61.5 10.5h21l-72 -155q-32 -7 -56.5 -13t-44.5 -14q-54 -25 -108.5 -51t-109.5 -51l-286 -615l-104 123l190 407q-69 -20 -122.5 -31.5t-92.5 -12.5q-63 -1 -112.5 28t-82.5 89
q-66 122 -13 236l180 386h-143l-11 149h1211zM585 1193h-397l-187 -400q-58 -125 -38 -178q17 -40 90 -40q72 0 294 109z" />
    <glyph glyph-name="dv_half_kh" horiz-adv-x="1087" 
d="M913 538l-32 -19q-32 -17 -70.5 -35.5t-79.5 -34.5q-52 -20 -96 -31t-68 -12q-60 6 -107 33t-75 75v-1q-64 101 -4 232q30 66 81 121t115 93q54 30 111.5 47.5t111.5 17.5q177 0 225 -188l9 -39zM1190 1193h-743l-192 -412q-20 -42 -46 -78t-58 -67q-14 -14 -46 -37
t-81 -58q35 -64 128.5 -181t250.5 -291q-11 -10 -29 -26t-32 -30q-5 -5 -17.5 -17t-19.5 -18q-45 54 -117.5 143.5t-169.5 207.5q-37 46 -71 96t-60 99q-81 150 -49 221q20 42 48 63.5t60 16.5q26 -3 52 -16.5t53 -35.5q3 -3 9 -3q33 0 99 143l130 278q-88 0 -178 1t-178 1
l-6 149h1332zM952 695q-1 2 -1 3.5t-1 3.5q2 2 4 3.5t4 3.5zM772 598q122 60 178 104q-21 178 -182 178q-90 0 -179 -58q-87 -57 -122 -135q-59 -134 89 -158q29 -5 86 13.5t130 55.5z" />
    <glyph glyph-name="dv_half_sh_r" horiz-adv-x="842" 
d="M701 1098q35 64 15 107q-19 43 -83 43q-50 0 -122 -44q-85 -54 -117 -133q-29 -72 4 -121q3 -2 20.5 -14.5t49.5 -33.5q71 29 134 84q34 29 58.5 56.5t40.5 55.5zM930 596l-103 -56l1 1q-208 -117 -418.5 -235.5t-418.5 -236.5l-90 98l851 468q-69 32 -132 61.5
t-132 61.5q-33 -17 -97.5 -49.5t-161.5 -81.5q-100 -49 -168.5 -82t-97.5 -47l-97 105q153 64 280 122.5t227 110.5q-195 105 -130 272q30 74 130 153q125 100 257 101q123 2 179 -100q58 -104 3 -221q-29 -61 -89 -115l1 1q-37 -36 -123 -97q35 -27 112.5 -58t186.5 -66
q16 -2 38.5 -5.5t38.5 -5.5z" />
    <glyph glyph-name="dv_half_gh" horiz-adv-x="729" 
d="M559 620l-80 -44l1 1q-13 -7 -23.5 -13t-21.5 -11h1q-21 -11 -27.5 -16t-13 -9t-19.5 -10.5t-46 -21.5h1q-132 -61 -234 -61q-132 0 -203 83q-69 85 -15 201q36 78 104 128q18 14 48 31t68 35q-52 43 -77.5 81.5t-26.5 70.5q0 14 5.5 33t13.5 37q6 14 14 27.5t20 30.5
h-116l-16 149h959l-69 -149h-547q-29 -11 -63 -44q-19 -18 -30.5 -36.5t-16.5 -34.5q-9 -37 1.5 -71t44.5 -61q162 0 202 -52q6 -76 -5 -107q-5 -12 -13.5 -19.5t-19.5 -12.5q-24 9 -67.5 18t-100.5 17q-66 1 -133 -39t-87 -91q-22 -59 4 -97q13 -20 37 -29.5t57 -8.5
q39 1 99.5 23.5t145.5 66.5l-1 -1q39 23 77.5 44t76.5 43l88 50h-1q8 5 21 13.5t26.5 18t26.5 18t21 13.5z" />
    <glyph glyph-name="dv_half_t.alt" horiz-adv-x="541" 
d="M590 692q-16 -16 -40.5 -39t-44.5 -42q-79 118 -200 118q-87 0 -174 -57q-86 -55 -117 -125q-19 -37 -14 -68q3 -38 17 -91.5t38 -122.5q22 -63 44.5 -117.5t44.5 -100.5l-110 -77q-34 57 -62 126t-52 153q-29 98 -37.5 173.5t1.5 130.5q7 41 26 80q23 49 72.5 95.5
t124.5 92.5h-1q105 65 221 65q101 0 177 -53v1q38 -26 60.5 -58.5t30.5 -71.5zM50 1342h611l2 -149h-608z" />
    <glyph glyph-name="dv_half_dh" horiz-adv-x="879" 
d="M379 1115q12 20 15 39t-1 38q-8 33 -58 33q-110 0 -161 -120q-38 -88 -1 -124q164 52 206 134zM673 567q-51 -30 -105 -62.5t-104 -63.5q-176 -98 -280 -109q-8 -1 -16 -1h-15q-125 0 -201 98q-80 107 -33 210q30 63 85.5 111t142.5 83q-183 148 -113 298q28 60 69.5 104
t96.5 73q41 20 79.5 30t76.5 10q54 0 88 -20.5t46 -56.5q9 -30 5.5 -65.5t-21.5 -74.5q-63 -137 -276 -199q62 -42 267 -42h40q20 -76 11 -127v3q-2 -4 -7.5 -11.5t-16.5 -18.5q-4 0 -8 -1q-3 -1 -6.5 -1.5t-6.5 0.5q-23 2 -74 4.5t-129 7.5q-33 -7 -67 -22t-64 -37
q-35 -26 -60 -52.5t-39 -55.5q-22 -50 9 -98q16 -23 41.5 -34t57.5 -8h-1q46 5 123.5 38.5t188.5 98.5h-1q6 4 31.5 20t66 41.5t94.5 59t118 73.5zM909 1193h-282l-11 149h362z" />
    <glyph glyph-name="dv_half_bh" horiz-adv-x="896" 
d="M924 1193h-314l-16 149h397zM611 544h-406q-2 -3 -3 -5.5l-3 -7.5q-2 -4 -3.5 -8.5t-3.5 -9.5l-21 -44q-42 -91 -104 -91q-48 0 -112 104q-66 104 -44 149q24 51 109 59h103l69 148q-123 27 -190 97q-39 44 -46.5 98.5t19.5 115.5q23 52 62 93.5t90 70.5q40 22 85 34.5
t90 12.5q60 0 97.5 -31t52.5 -90q24 -99 -15 -186l-172 -367h412zM326 1103q63 135 -34 134q-26 0 -51 -10t-47.5 -28t-41 -42t-31.5 -52q-55 -121 120 -185z" />
    <glyph glyph-name="dv_half_t_t" horiz-adv-x="729" 
d="M870 1193h-958l-7 149h962zM860 926l-149 -144h-288q-118 0 -215 -68q-87 -60 -134 -159q-21 -46 -23.5 -113.5t15.5 -157.5q12 -60 28 -113t33 -101l-109 -57q-21 40 -37.5 109t-30.5 162q-6 55 -8.5 107.5t0 98t9.5 84t20 65.5q17 35 49.5 72t74.5 71h-215l-21 144
h1001z" />
    <glyph glyph-name="dv_half_th" horiz-adv-x="893" 
d="M1058 1193h-262l-37 149h269zM748 567l-151 -102q-56 -30 -94 -50t-58 -28v1q-134 -58 -241 -58q-240 0 -369 295l12 25q40 13 92.5 33.5t112.5 46.5q51 23 91 41.5t69 34.5q-66 38 -102 63t-43 35l2 -1q-82 79 -21 209q25 54 68 100t98 80q116 72 218 70q103 -1 173 -79
q84 -99 14 -255q-70 -152 -233 -257q-75 -48 -162 -95.5t-184 -93.5q1 -132 136 -139q94 -6 303 112q66 36 122 71.5t104 68.5q15 11 35.5 26.5t42.5 31t42.5 30.5t35.5 26zM494 1070q15 32 21 59.5t4 51.5q-2 29 -18 46t-45 21q-29 5 -65.5 -7t-75.5 -40q-81 -57 -118 -136
q-49 -107 117 -198q57 38 105.5 91.5t74.5 111.5z" />
    <glyph glyph-name="dv_half_d" horiz-adv-x="958" 
d="M378 19q24 43 -84 162q-28 -6 -54.5 -8.5t-54.5 -2.5q-238 0 -322 176q-73 149 7 360q3 8 6.5 15.5t6.5 15.5q56 120 174 188q120 67 276 67h249l94 201h-701l-5 149h1154l7 -149h-294l-164 -351h-330q-176 0 -279 -96q-27 -24 -52.5 -61.5t-48.5 -87.5
q-102 -218 118 -290v1q30 -10 69 -10q26 0 51.5 2.5t52.5 9.5q-8 105 8 139q5 12 32 37v-1q30 31 73 31q26 0 45 -13h-1l80 -44q32 -21 42 -46t0 -51q-11 -26 -48.5 -61t-101.5 -75q20 -17 40 -35.5t34 -36.5q84 -97 71 -164l-1 1q-6 -41 -67 -96q-62 -55 -101 -69l-128 108
q29 11 48.5 18.5t32.5 13.5q25 12 42 25.5t24 27.5zM800 -543q-10 -7 -24 -18t-36 -28q-73 134 -114 207t-43 78h1q-22 31 -62 51.5t-91 31.5q-15 3 -30 3q-18 0 -36 -3h1q-17 -4 -38 -8t-38 -7l-36 153q-9 9 -4 19q9 19 43 21q8 1 14 1.5t11 0.5q20 5 45 5q47 0 109 -18
q119 -31 194 -176q11 -20 47 -93.5t96 -202.5z" />
    <glyph glyph-name="dv_half_tt" horiz-adv-x="942" 
d="M1162 1193h-303l-204 -437l-66 -31l-420 -93q-35 -8 -70.5 -27t-67.5 -48q-65 -58 -85 -120q-25 -78 3 -135q41 -76 178 -78q23 -1 81.5 12.5t154.5 43.5h-1q79 25 144 48t115 42l2 -146q-279 -137 -468 -132q-182 4 -273 115q-118 151 -37 324q86 185 253 238l421 93
q8 4 12.5 7t12.5 8l148 316h-683l-18 149h1162zM334 -514q-9 -6 -24 -17.5t-38 -28.5q-72 134 -112.5 207t-44.5 78h1q-23 29 -62 50.5t-90 32.5q-15 3 -31 3q-8 0 -17 -0.5t-17 -2.5q-18 -5 -37 -8t-39 -7l-35 153q-4 4 -6 9t0 10q9 19 45 20q8 1 13.5 1.5t11.5 0.5
q11 3 22.5 4t23.5 1q47 0 107 -17q57 -17 107 -62t88 -113q11 -20 46 -94t96 -203z" />
    <glyph glyph-name="dv_half_tth" horiz-adv-x="1110" 
d="M1290 1193h-361q2 -20 3 -40.5t1 -41.5q2 -26 -6 -57t-24 -63q-54 -106 -205 -206q38 -19 66 -43.5t48 -56.5q64 -107 1 -242q-70 -150 -255 -266q-185 -115 -346 -115q-215 0 -315 151q-53 75 -56 160.5t42 181.5q62 132 191 204q48 26 111 46.5t140 32.5q60 9 119.5 17
t119.5 16q124 23 195 163q50 100 15 159h-713l-20 149h1238zM678 487q94 202 -97 242q-76 -11 -151 -23t-152 -23h1q-230 -54 -308 -224q-52 -108 25 -186q68 -74 182 -74q136 0 283 78q80 42 133.5 94.5t83.5 115.5zM374 -514q-9 -6 -24 -17.5t-38 -28.5q-72 134 -113 207
t-45 78h1q-23 29 -61.5 50.5t-89.5 32.5q-15 3 -31 3q-17 0 -35 -3q-17 -5 -36 -8t-39 -7l-36 153q-3 4 -5 9t0 10q9 19 45 20q8 1 13.5 1.5t10.5 0.5q11 3 23 4t23 1q48 0 108 -17q57 -17 106.5 -62t87.5 -113q11 -20 46 -94t97 -203z" />
    <glyph glyph-name="dv_half_ch" horiz-adv-x="1276" 
d="M1458 1193h-373l-76 -162q73 -51 97 -145q21 -112 -45 -244q-46 -91 -130.5 -182.5t-207.5 -186.5q-128 -98 -304 -169q-88 -35 -159 -51.5t-127 -16.5q-163 0 -256 94q-93 96 -37 217q20 43 64.5 87.5t101.5 82.5q-181 122 -91 268q123 203 346 215q13 1 26 1.5t25 0.5
q48 0 80.5 -6.5t54.5 -19.5q8 -27 11 -63.5t3 -82.5q-66 12 -113.5 18t-70.5 7q-94 -7 -161 -45.5t-99 -108.5q-23 -51 31 -87h-1q45 -24 94 -24q22 4 47.5 8t49.5 7t45 4.5t36 1.5q49 0 62 -14l17 -120l-22 -31l-166 4q-106 -22 -173.5 -68.5t-91.5 -114.5
q-38 -114 136 -114q72 0 153.5 20.5t166.5 55.5q77 35 155 82t150 102q-32 33 -63.5 64.5l-63.5 63.5q-88 122 -32 246q83 178 315 261l68 145h-907l-16 149h1435zM963 723q17 40 26.5 74.5t9.5 63.5v-1q-3 75 -73 75q-58 0 -131 -59q-72 -59 -95 -118q-32 -80 -11.5 -148
t96.5 -128q121 116 178 241zM494 -575q-7 -5 -21.5 -16t-39.5 -30q-146 275 -156 286q-21 30 -60 51t-90 32q-15 3 -32 3q-16 0 -35 -3h1l-13 -3q-14 -3 -32 -6.5t-30 -5.5l-37 152q-3 5 -4.5 10t0.5 10q9 19 44 21q7 1 13 1.5t11 0.5q9 2 20.5 3t23.5 1q50 0 111 -16
q118 -35 193 -177q11 -20 46.5 -93.5t95.5 -202.5z" />
    <glyph glyph-name="dv_half_jh" horiz-adv-x="1227" 
d="M831 584q-43 -11 -85.5 -17t-90.5 -8q-74 -3 -128 16q2 -20 1.5 -42t-2.5 -42q0 -59 -19 -100q-46 -97 -172 -180q-67 -43 -140 -71.5t-156 -41.5q21 -54 59.5 -132.5t93.5 -184.5l-112 -77q-54 162 -92.5 254.5t-65.5 117.5q-223 18 -152 188q8 19 21 37t34 35h-1
q44 35 92 35q45 0 63 -53q6 -22 11.5 -42t11.5 -43q69 3 133.5 22t127.5 54q113 66 153 145q9 16 11.5 31.5t-1.5 27.5t-15.5 19.5t-31.5 9.5q-39 -9 -86 -20t-86 -20q-17 -4 -40 -4q-35 0 -65 13q-75 33 -96 152q-20 121 20 215q27 63 102 105q83 47 186 47l245 2
q6 2 9.5 3t10.5 5l72 153h-582l-21 149h1416l10 -149h-677l-97 -207q-47 -102 -116 -102h-300q-49 0 -105 -38q-56 -39 -69 -78q-25 -68 15 -100q28 -22 81 -16h-1q39 8 78 17t79 17q8 1 17 1h18q35 0 65.5 -7t55.5 -23q48 0 93.5 6t84.5 16q57 14 111 33t103 41z" />
    <glyph glyph-name="dv_half_dd" horiz-adv-x="1077" 
d="M1306 1193h-289l-137 -294l-31 -21h-392q-144 0 -211 -115q-24 -44 -23 -89h-1q6 -43 34 -60q64 11 145 22t184 25q58 7 104 -18t76 -76q62 -105 6 -228q-54 -116 -188 -200q-147 -93 -327 -93q-107 0 -198.5 52t-161.5 147q-21 31 -40.5 67t-36 74t-29 76.5t-18.5 74.5
l98 49q2 -11 7 -25.5t8 -25.5q8 -23 15.5 -46.5t13.5 -48.5h-1q40 -104 109 -167q48 -36 114 -58t142 -22q112 0 225 59q118 59 162 155q46 97 -45 97q-4 0 -15.5 -0.5t-34 -2.5t-57.5 -7t-86 -15q-53 -11 -89.5 -16.5t-59.5 -6.5q-125 -8 -164 139q-33 135 23 256
q38 78 131 127l-2 -1q81 45 157 45h367l80 171h-809l-28 149h1250zM523 -575q-8 -5 -22.5 -16t-38.5 -30q-149 276 -157 286q-21 30 -60 51t-90 32q-15 3 -31 3q-17 0 -36 -3h1l-12 -3q-14 -3 -32 -6.5t-31 -5.5l-36 152q-9 11 -5 20q9 19 44 21q7 1 13 1.5t11 0.5
q9 2 20.5 3t23.5 1q50 0 111 -16q117 -35 193 -177q11 -20 46.5 -93.5t96.5 -202.5z" />
    <glyph glyph-name="dv_half_ddh" horiz-adv-x="1036" 
d="M1222 1193h-276l-162 -347h-339q-358 0 -496 -293q-45 -99 -23 -195q29 -116 168 -156q11 118 59 221q51 111 161 186q111 75 240 69q107 -6 135 -106q32 -98 -37 -245q-28 -60 -76 -109.5t-117 -91.5q-134 -82 -273 -82q-239 0 -336 234q-37 91 -34 198q3 51 13 97
t27 84q162 338 606 338h229l93 198h-800l-23 149h1254zM612 439q4 34 -25 63q-15 15 -33 21.5t-38 6.5q-71 0 -146 -47q-37 -23 -67 -52.5t-52 -63.5q-18 -28 -36 -66q-11 -23 -21.5 -49t-21.5 -56q10 -1 18.5 -1.5t18.5 -0.5q78 0 154 31q188 72 235 173q5 9 8 19.5t6 22.5
v-1zM397 -615q-8 -5 -22.5 -16t-39.5 -30q-74 139 -112.5 210t-42.5 76q-22 30 -61 51t-90 32q-15 3 -31 3q-17 0 -36 -3h1l-13 -3q-14 -3 -31.5 -6.5t-30.5 -5.5l-37 151q-8 12 -3 21q9 20 43 21q7 0 13 0.5t11 0.5q20 5 44 5q23 0 51 -4t60 -12q118 -35 193 -177
q11 -20 46.5 -93.5t95.5 -202.5z" />
    <glyph glyph-name="dv_half_ss" horiz-adv-x="901" 
d="M310 1192l319 -559l-151 -114l-17 -9h1q-36 -20 -73.5 -41t-75.5 -42q-85 -41 -165 -41q-148 0 -205 114q-58 108 -2 231l216 462h-162l-16 149h980l30 -150h-679zM258 1072l-179 -385q-23 -48 -33 -83.5t-8 -55.5q8 -45 74 -53q68 -6 209 72q87 47 161 102z" />
    <glyph glyph-name="dv_half_h" horiz-adv-x="1094" 
d="M1323 1193h-247l-126 -270q-10 -20 -60 -55h-443q-66 0 -122 -26q-60 -25 -81 -71q-34 -75 28 -117q14 5 26 9.5t26 9.5q11 4 21.5 8t21.5 8q88 27 187 27q143 0 201 -116q53 -108 3 -215q-35 -75 -134 -137q-97 -62 -173 -65l-34 123q190 53 237 153q27 60 4 96.5
t-83 36.5q-116 0 -237 -64q-76 -38 -131 -93.5t-87 -125.5q-31 -66 -16 -123.5t78 -105.5q39 -31 112 -63.5t182 -67.5l-64 -86q-47 17 -89 32.5t-67 27.5q-63 28 -108.5 56t-73.5 57q-165 167 -83 343q45 95 121 167q9 8 16 13.5t13.5 11t13.5 11.5t16 14q-15 42 -33 84
q-22 87 19 177q14 29 37.5 55t59.5 51q68 49 136 49h433l85 181h-749l-18 149h1162zM323 -634q-7 -5 -22 -16.5t-40 -29.5q-32 59 -59 109.5t-46 84.5q-23 44 -35.5 66t-14.5 25q-23 29 -62 50.5t-89 32.5q-15 3 -32 3q-16 0 -35 -3h1q-16 -4 -37 -8.5t-37 -7.5l-39 154
q-8 8 -3 18q9 20 44 21q8 1 13 1.5t11 0.5q11 3 23 4t23 1q24 0 50.5 -4t58.5 -13q116 -32 193 -176q11 -20 46.5 -93.5t95.5 -202.5z" />
    <glyph glyph-name="dv_half_t_r" horiz-adv-x="818" 
d="M40 1193l-9 149h902l11 -149h-904zM688 717q-41 43 -79 85.5t-77 85.5q-55 68 -185 68q-17 0 -34.5 -1.5t-34.5 -4.5q-48 -8 -96 -16.5t-99 -17.5q8 -25 15 -48t15 -49q42 7 84.5 14.5t83.5 14.5q20 4 41 6t41 2q45 0 78.5 -10t57.5 -30l153 -129l-777 -389
q16 -29 27 -47.5t22 -33.5q174 87 345 171t346 172z" />
    <glyph glyph-name="dv_sh_r" horiz-adv-x="1405" 
d="M674 1098q35 64 15 107q-18 43 -83 43q-51 0 -121 -44q-86 -55 -118 -133q-29 -73 5 -121q6 -6 69 -48q37 15 69.5 35.5t64.5 48.5q68 58 99 112zM903 596l-103 -56l1 1q-208 -117 -418.5 -235.5t-417.5 -236.5l-90 98l850 468q-69 32 -132 61.5t-132 61.5
q-66 -35 -259 -131q-100 -49 -168.5 -82t-97.5 -47l-97 105q153 64 280 122.5t227 110.5q-195 105 -130 272q30 72 131 153q124 99 257 101q122 2 178 -100q59 -102 3 -221q-28 -60 -88 -115l1 1q-20 -18 -50.5 -42.5t-72.5 -54.5q34 -27 111.5 -58t186.5 -66q17 -2 39 -5.5
t38 -5.5zM1566 1193h-260l-555 -1193l-130 62l528 1131h-198l-25 149h617z" />
    <glyph glyph-name="dv_half_j_nya" horiz-adv-x="741" 
d="M868 1193h-827l-21 149h831zM927 1018l-67 -159h-510q2 -1 3 -2.5t3 -2.5l57 -59q32 -37 54 -71t35 -65q29 -92 -11 -178q-94 -202 -390 -288q37 -79 73.5 -163t72.5 -162l-118 -74l-141 369q-58 11 -92 18.5t-44 13.5q-42 26 -36 109v-1q-1 15 3 30.5t11 29.5
q22 47 72 76q20 11 35 16t29 5q38 0 91 -125q72 -5 155 42q87 47 125 128q51 110 -20 216q-74 111 -253 194q55 86 94 103h769z" />
    <glyph glyph-name="dv_half_nga" horiz-adv-x="1352" 
d="M1229 759l-216 -148l-85 154l222 143zM1537 1193h-466l-96 -206q-21 -55 -55 -84t-79 -29h-368q-46 0 -104 -40q-57 -40 -80 -91q-60 -128 51 -128q8 0 31.5 3t64.5 10q50 8 99.5 14t93.5 10q59 3 104.5 -27.5t66.5 -83.5q33 -106 -16 -212q-32 -67 -88.5 -121.5
t-137.5 -97.5q-138 -72 -254 -70q-225 5 -361 209q-33 49 -128 275l100 58q84 -223 132 -275q95 -119 292 -120q93 0 188 53q53 30 92 69.5t66 87.5q24 50 22.5 76.5t-43.5 26.5q-12 -2 -24 -2.5t-25 -2.5q-15 -2 -33 -4t-41 -4q-128 -12 -210 -12q-18 0 -34.5 0.5
t-29.5 1.5q-72 8 -101 130q-14 60 -8.5 118t31.5 112q21 44 53.5 78t74.5 58q37 21 77.5 33t81.5 12h353l82 175h-796l-13 149h1421zM638 -575q-7 -5 -21.5 -16t-39.5 -30q-146 275 -156 286q-21 30 -60 51t-90 32q-15 3 -32 3q-16 0 -35 -3h1l-13 -3q-14 -3 -32 -6.5
t-30 -5.5l-37 152q-8 10 -4 20q9 19 44 21q7 1 13 1.5t11 0.5q9 2 20.5 3t23.5 1q49 0 110 -16q119 -35 194 -177q11 -20 46.5 -93.5t95.5 -202.5z" />
    <glyph glyph-name="dv_ss_tt" horiz-adv-x="1155" 
d="M1323 1193h-237l-234 -502q-59 -125 -168 -156l-452 -124q-214 -58 -280 -200q-14 -29 -8.5 -54t27.5 -46q23 -17 54.5 -26.5t69.5 -9.5q51 0 121 14t159 40q142 41 255 94l23 -140q-54 -29 -134 -56.5t-191 -56.5q-28 -7 -65.5 -10.5t-86.5 -3.5q-116 0 -192.5 29
t-112.5 86q-31 52 -36.5 102.5t17.5 98.5q40 84 101 138q41 36 97 64.5t133 52.5q-42 64 -51 132.5t20 131.5l188 402h-226l-21 149h1218zM685 676l241 517h-400zM442 1100l-159 -341q-23 -51 -25 -110q2 -61 34 -82q11 1 146 34q35 8 60.5 14t44 10.5t31 8.5t22.5 7z" />
    <glyph glyph-name="dv_s_v" horiz-adv-x="1827" 
d="M1918 1193h-243l-556 -1193l-121 84l196 422q-21 -11 -40.5 -20t-40.5 -20q-17 -8 -33.5 -16.5t-33.5 -16.5q-71 -33 -124.5 -48.5t-93.5 -14.5q-111 1 -179 60q-34 30 -48 67t-7 85h-1q-229 0 -281 69q-107 -86 -261 -154q8 -28 31 -83t56 -126q25 -50 49 -104
q14 -29 31 -63t31 -65l-113 -78q-80 187 -131 317t-72 194q-44 151 -5 227q22 42 49 60t56 14q20 -2 72 -32q51 -30 77 -26q25 3 51 59q48 104 92 201t92 201h-382l-16 149h1887zM1515 1193h-950q-48 -114 -94 -224t-94 -225q17 -18 56 -27.5t99 -13.5h-1h12t18 1
q5 0 12 0.5t13 0.5q20 2 27 2.5t11 0.5q30 57 76 107t103 89q123 84 251 84q144 0 203 -75q19 -24 62 -140zM1281 679l-6 9l15 9zM1042 560q62 28 119.5 59.5t113.5 68.5q-113 167 -238 167q-97 0 -194 -63q-95 -60 -138 -160q-57 -137 121 -137q73 0 217 65h-1z" />
    <glyph glyph-name="dv_nga_gh" horiz-adv-x="1380" 
d="M1285 787l-194 -132l-73 136l194 132zM1584 1193h-444l-107 -228q-35 -100 -113 -100h-315q-49 0 -107 -33q-54 -31 -76 -75q-30 -67 34 -67q8 0 20 1t26 3l256 32q51 6 89.5 -12.5t61.5 -58.5q19 -34 23 -70t-5 -72q-9 -29 -38.5 -65t-77.5 -75l-435 -933l-99 86l99 211
q-109 -57 -196 -84t-155 -27q-123 0 -189 88q-65 90 -22 182q32 69 94 118q18 16 46 32.5t64 34.5q-39 36 -59 93q-24 67 -1 117q27 58 68 101.5t102 75.5q-36 52 -63 115t-39 129l96 53q87 -379 400 -379q78 0 179 47q98 45 116 82q13 28 13.5 45.5t-9.5 27.5
q-10 7 -27 9.5t-43 -1.5l-261 -28q-48 -3 -86 16.5t-61 64.5q-46 90 -4 182q31 68 114 117q79 45 153 45h306l93 200h-855l-14 149h1435zM631 280q-27 -8 -52 -10.5t-50 -2.5q-66 0 -140 21t-159 66q-17 -7 -37 -20.5t-44 -32.5q-24 -21 -38.5 -38.5t-19.5 -32.5
q-24 -77 33 -117q13 1 25.5 1.5t25.5 0.5q50 0 86 -10t57 -30q2 -38 0 -62.5t-9 -38.5q-10 -22 -30 -27q-44 10 -87 14.5t-85 4.5q-48 0 -110 -41q-65 -41 -87 -92q-10 -21 -7.5 -41t15.5 -34q33 -33 96 -33q72 0 224 73q128 60 227 130z" />
    <glyph glyph-name="dv_t_t_v" horiz-adv-x="2218" 
d="M2304 1193h-205l-556 -1193l-125 84l182 391q-204 -121 -373 -121q-54 0 -102 28t-84 73q-40 57 -43 124t33 144q8 18 27 46h-21q-63 0 -115.5 -15.5t-98.5 -50.5l-327 -703l-133 63l334 717q-20 5 -64.5 7.5t-115.5 2.5q-134 0 -254 -81q-121 -82 -171 -192
q-51 -109 1 -247l1 1q22 -52 94 -171l-115 -89q-34 54 -60 120.5t-43 140.5q-20 96 -17 182t32 149q21 45 60.5 88.5t99.5 85.5h-205l-25 149h848l125 267h-850l-18 149h2272zM1752 800l183 393h-883l-149 -319q42 22 87 32t94 10q26 0 53.5 -4t50.5 -10q77 57 156 87.5
t155 30.5q62 0 123 -29q26 -13 43 -28t24 -29zM1705 655q-3 4 -3 10l6 4t7 4zM1451 533q40 18 102 51t149 81q-40 116 -92 157h1q-48 40 -155 46q-79 6 -178 -56q-95 -57 -134 -142q-3 -7 -5.5 -13.5t-5.5 -14.5v1q-29 -86 10 -130v1q32 -38 102 -38q39 0 90.5 14t115.5 43z
" />
    <glyph glyph-name="dv_j_j" horiz-adv-x="1425" 
d="M1602 1193h-225l-555 -1193l-123 78l159 341q-55 -11 -106 -22t-101 -21.5t-101 -21.5t-107 -22q48 -54 57.5 -105.5t-14.5 -103.5q-17 -35 -48 -70t-76 -67q-50 -36 -100 -55t-98 -19q-279 0 -340 443l105 58q10 -69 25.5 -124.5t40.5 -101.5q67 -130 172 -130
q30 0 58.5 9.5t57.5 28.5q57 36 74 74q13 27 7.5 57t-28.5 59q-20 23 -44 41.5t-51 29.5q3 8 11.5 23.5t19.5 32.5l657 160l155 331h-405q48 -101 0 -202q-16 -35 -48.5 -67t-77.5 -59q-45 -26 -88.5 -40t-82.5 -14q-165 0 -210 186q-36 143 3 354l100 30q-21 -140 -3 -255
q13 -82 42.5 -123t80.5 -41q44 0 90 23q61 30 90 92q43 92 -46 204q2 3 8.5 11t9.5 11q4 5 11 13t15 16h575l71 151h-1114l-11 149h1496z" />
    <glyph glyph-name="dv_sh_l" horiz-adv-x="1432" 
d="M1546 1193h-288l-332 -711q48 -86 -16 -223q-20 -44 -64.5 -90t-107.5 -93q-52 -37 -100.5 -65t-90.5 -43l-51 97q51 23 102 51t99 62q117 79 147 145q53 112 -57 112t-389 -258l-50 91q26 33 63.5 69.5t81.5 69.5q-9 24 -35.5 34.5t-71.5 10.5q-56 0 -125 -50
q-79 -55 -116 -135q-43 -93 -3 -197q13 -37 34 -70.5t49 -65.5l-87 -74q-35 42 -62 89t-45 94q-29 76 -30.5 145.5t27.5 130.5q45 97 147 171q103 76 195 76q71 0 126 -41l1 1q2 -2 12.5 -11.5t27.5 -26.5q8 -8 15 -13.5t19 -16.5q18 14 42 28t47 26q37 16 72 26t66 12
l23 49q-106 34 -187.5 71t-142.5 76q-20 -9 -45.5 -20t-54.5 -23t-60 -24t-61 -24q-87 -32 -162.5 -55.5t-134.5 -37.5l-33 12l-56 108q112 15 246 58q68 22 127.5 45t111.5 49q-93 51 -123.5 118t2.5 152q31 75 133 151q130 95 260 95q54 0 94.5 -29t66.5 -85
q49 -108 11 -191q-26 -55 -78.5 -110.5t-140.5 -118.5q48 -37 116.5 -63t160.5 -47l227 487h-144l-6 149h600zM703 1088q32 59 15 107q-21 44 -80 44q-51 0 -122 -47q-82 -52 -115 -134q-25 -57 -6 -99t82 -66q30 15 64 37.5t66 47.5q29 26 55.5 55.5t40.5 54.5z" />
    <glyph glyph-name="dv_nga_gh_r" horiz-adv-x="1346" 
d="M1367 787l-195 -132l-73 136l194 132zM1658 1193h-436l-107 -228q-35 -100 -111 -100h-318q-49 0 -106 -33q-54 -32 -76 -75q-30 -67 36 -67q8 0 19 1t25 3l257 32q106 13 152 -71q19 -35 24 -69.5t-6 -72.5v1q-8 -29 -36 -63.5t-82 -77.5l-426 -914l-97 86l87 185
q-26 -11 -100.5 -42t-197.5 -83q-148 -63 -241.5 -102.5t-127.5 -54.5l-102 98l288 119q-55 41 -83 98q-27 66 4 133q33 70 94 118h-1q20 17 47 33t64 34q-19 18 -33 41t-26 52q-24 67 -1 117q27 58 68 101.5t102 75.5q-35 51 -62.5 114.5t-41.5 130.5l98 53
q87 -380 401 -380q79 0 177 47q97 45 115 82q13 28 13.5 45.5t-8.5 27.5q-10 7 -27 9.5t-43 -1.5l-261 -28q-48 -3 -86 16.5t-61 64.5q-47 88 -4 182q31 69 113 117q79 45 154 45h305q24 53 45 99.5t46 100.5h-842l-16 149h1424zM85 -300q-113 0 -117 6.5t118 18.5h10z
M530 -113l183 393q-27 -8 -52 -10.5t-50 -2.5q-130 0 -297 88q-17 -7 -39 -20t-46 -33q-25 -21 -38.5 -38t-17.5 -34q-10 -37 -2 -66.5t40 -50.5q12 1 23 1.5t22 0.5q101 0 144 -40q2 -38 0 -62.5t-9 -38.5q-10 -22 -30 -27q-44 10 -86.5 14.5t-83.5 4.5q-49 0 -111 -41
q-67 -43 -88 -92q-21 -46 8 -75q25 -30 86 -33q27 3 60 6z" />
    <glyph glyph-name="dv_l_l" horiz-adv-x="1241" 
d="M1405 1193h-336l-86 -183q14 -15 22 -38t11 -53q3 -41 -4 -80t-26 -78q-26 -57 -85.5 -116.5t-152.5 -121.5q31 -36 37 -99q2 -37 -4.5 -73.5t-23.5 -73.5q-41 -88 -177 -189q-110 -78 -201 -112l-54 103q117 49 210 112q120 83 153 154q25 53 8.5 83t-68.5 30
q-72 0 -192 -93q-29 -22 -76.5 -65t-116.5 -108l-51 96q23 31 60.5 67t90.5 77q-10 26 -37 37.5t-74 11.5q-54 0 -127 -56q-38 -28 -66 -63t-48 -77q-44 -98 -3 -204q14 -40 35 -74.5t51 -65.5l-90 -76q-74 82 -115 186q-62 161 -1 290q64 139 220 221q-20 69 -14.5 134.5
t33.5 125.5q23 48 60.5 93t85.5 81q103 76 197 76q112 0 211 -105q15 10 38.5 21t50.5 24q58 26 96 31l70 150h-816l-10 149h1305zM911 822q53 115 -50 115q-112 0 -386 -269l-49 96q23 32 57.5 66.5t82.5 72.5q-5 24 -28.5 38.5t-65.5 14.5q-56 0 -131 -54
q-74 -55 -113 -137q-39 -86 -14 -167q102 -6 207 -114q29 23 70.5 43t93.5 37q2 2 6 4q44 19 87.5 45t90.5 61q110 80 142 148z" />
    <glyph glyph-name="dv_nga_k" horiz-adv-x="1362" 
d="M1231 787l-194 -132l-73 136l194 132zM904 -249q-62 -135 -182 -231l-78 114q151 130 191 216q52 112 -37 112q-53 0 -150 -48h1q-28 -15 -55.5 -30t-56.5 -30q-11 -5 -19 -9t-19 -10l-225 -482l-99 113l122 261q-63 -42 -123.5 -61.5t-121.5 -19.5q-47 0 -87 17t-76 49
q-96 89 -23 247q58 122 179 186h-1q100 54 214 54q99 0 137 -62q2 -4 4 -9.5t4 -9.5v1q6 -14 10 -24.5t7.5 -20t8 -19.5t10.5 -23l112 240q-19 -2 -38 -3.5t-38 -1.5q-127 0 -226 49t-169 143q-40 55 -67.5 119t-38.5 134l94 53q87 -379 403 -379q78 0 176 47q97 45 115 82
q25 53 5 73q-20 15 -69 8l-261 -28q-48 -3 -86 16.5t-62 64.5q-47 88 -4 182q31 68 114 117q79 45 154 45h304l93 200h-836l-12 149h1419l7 -149h-444l-107 -228q-35 -100 -108 -100h-319q-48 0 -106 -33q-54 -32 -76 -75q-30 -67 37 -67q8 0 18.5 1t25.5 3l256 32
q106 13 153 -71q19 -35 24 -69.5t-6 -72.5v1q-2 -11 -12.5 -26.5t-29.5 -37.5l1 1q-42 -51 -92 -91l-164 -353q90 48 145.5 68.5t91.5 20.5q80 0 118 -95q37 -109 -30 -250zM398 -101q-2 6 -2 9q6 6 10 8zM208 -197q103 46 188 105q-45 150 -186 150q-89 0 -171 -62v1
q-34 -26 -58 -55.5t-40 -62.5q-28 -59 9 -94q16 -14 38.5 -21.5t48.5 -7.5q62 0 171 47z" />
    <glyph glyph-name="dv_t_n" horiz-adv-x="1309" 
d="M1432 1193h-207l-566 -1213l-112 112l246 527q-82 -25 -159 -47.5t-160 -47.5q-43 -142 -56 -170q-18 -36 -58 -42q-29 -6 -47 6h1q-82 58 -114 155v-1q-11 24 2 51q20 41 100 66l517 157q-32 24 -51.5 37t-26.5 16q-95 50 -222 50q-77 0 -149.5 -18t-139.5 -52
q-72 -38 -123.5 -88.5t-80.5 -111.5q-86 -186 43 -469l-112 -65q-22 56 -39.5 116.5t-27.5 120.5q-17 106 -9.5 197t42.5 166q79 170 252 262h-1q161 85 358 85q192 0 251 -67l99 -116l179 384h-1008l-18 149h1383z" />
    <glyph glyph-name="dv_tt_tt" horiz-adv-x="1149" 
d="M1372 1193h-357l-93 -198q-15 -34 -23 -42l1 2q-23 -28 -56 -29l-334 -18q-100 -6 -172 -46.5t-107 -114.5q-36 -79 45 -120q37 -18 85 -27.5t110 -9.5q150 0 434 124l11 -136q-35 -16 -92.5 -38t-135.5 -48l-112 -239q-16 -36 -24 -44l1 2q-22 -27 -55 -28l-335 -19
q-100 -7 -172.5 -47t-105.5 -112q-36 -79 45 -120q73 -38 194 -38q141 0 435 124l11 -135q-119 -59 -224 -90.5t-195 -35.5q-8 -1 -19.5 -1h-20.5q-149 0 -228 54q-37 28 -62 63t-36 79q-22 88 22 184q20 42 52 78.5t74 64t92.5 44.5t107.5 22l325 20l64 138
q-17 -2 -31.5 -2h-31.5q-77 0 -134 14t-95 40q-73 55 -97 141q-24 88 20 182q20 43 52.5 80t74.5 65t92.5 45.5t107.5 20.5l325 20l61 131h-723l-18 149h1238z" />
    <glyph glyph-name="dv_s_n" horiz-adv-x="1573" 
d="M1673 1193h-208l-557 -1193l-115 90l215 460q-39 -11 -73.5 -22t-66.5 -21h1q-149 -49 -198 -77q-27 -113 -40 -141q-27 -59 -76 -59q-48 0 -116 63q-65 64 -78 105q-2 18 3 27q21 47 103 74l601 201q-140 88 -225 84q-54 -3 -127 -13.5t-159 -28.5q-78 -16 -139.5 -32
t-98.5 -30q-25 -19 -50 -37.5t-49 -36.5q-8 -5 -44 -28t-111 -70q24 -42 93 -149t178 -278l-7 -16l-94 -75h-16q-28 50 -80 147t-126 243q-20 35 -42.5 75t-41.5 75q-11 26 -17.5 58t-10.5 71q-1 17 1.5 32t10.5 30q28 63 91 64q10 0 28 -4t47 -13q60 -20 82 -23q8 0 40 43
q18 25 33.5 50t28.5 51q11 23 21.5 44.5t19.5 41.5q32 67 53.5 121.5t34.5 96.5h-371l-20 149h1656zM1306 1193h-764q-40 -103 -74 -185t-69 -157l80 16t80 17q81 16 135.5 23t84.5 7q88 0 175.5 -28.5t169.5 -82.5z" />
    <glyph glyph-name="dv_t_t" horiz-adv-x="1192" 
d="M1278 1193h-211q-140 -299 -279 -596.5t-278 -596.5l-132 66l333 718h-222q-134 0 -238 -73q-105 -73 -158 -187q-77 -165 94 -457l-118 -63q-26 52 -48 117.5t-38 140.5q-24 111 -23 202t30 153q20 42 58.5 84.5t92.5 82.5h-205l-21 148h869l122 261h-895l-18 149h1269z
" />
    <glyph glyph-name="dv_j_nya" horiz-adv-x="1260" 
d="M1408 1193h-226l-564 -1193l-107 86l360 773h-484q2 -1 3 -2.5t3 -2.5l57 -59q32 -37 54 -71t35 -65q30 -90 -11 -178q-94 -202 -390 -288q37 -79 73.5 -163t72.5 -162l-118 -74l-141 369q-58 11 -92 18.5t-44 13.5q-42 26 -36 109v-1q-1 15 3 30.5t11 29.5q22 47 72 76
q20 11 35 16t29 5q19 0 41.5 -30.5t50.5 -94.5q71 -5 154 42q87 47 125 128q51 110 -20 216q-74 111 -253 194q29 46 58.5 68.5t56.5 22.5h724l87 187h-949l-21 149h1339z" />
    <glyph glyph-name="dv_d_r" horiz-adv-x="1032" 
d="M-198 -95l-76 113l582 246q-6 2 -10.5 3t-9.5 3q-127 35 -171.5 139.5t-6.5 262.5q9 44 30 89q124 267 430 267h265l77 165h-704l-16 149h1106l9 -149h-241l-121 -260q-24 -51 -81 -51h-306q-192 0 -312 -259q-59 -128 12 -201q63 -65 181 -65h17.5t16.5 1v22t-2 33
q0 50 12 73q34 60 90 60q22 0 36 -10q72 -34 102 -70.5t13 -74.5q-14 -30 -48 -54t-94 -44q17 -89 33 -179l32 -180q-11 -23 -31.5 -45.5t-47.5 -44.5q-20 -16 -40.5 -28.5t-39.5 -19.5l-130 114q29 9 51.5 16.5t33.5 12.5h-1q27 14 45 27.5t26 29.5q13 23 7 83.5t-27 156.5
z" />
    <glyph glyph-name="dv_h_y" horiz-adv-x="1419" 
d="M1590 1193h-212l-554 -1193l-126 63l84 181q-37 -21 -76 -43.5t-76 -42.5q-139 -68 -240 -68t-165 85q-54 78 -28 132q21 45 77 78l215 119q37 16 50 47q29 59 -72 59q-125 0 -285 -98q-157 -98 -205 -201q-45 -96 115 -229q29 -25 85 -48.5t140 -46.5l-72 -76
q-18 12 -57 29.5t-97 38.5q-102 41 -153 85q-38 34 -62 65.5t-36 57.5q-14 39 -9.5 85.5t27.5 96.5q34 76 87 130q17 17 45 39t67 50q-18 54 -26 83t-8 35v-2q-14 81 18 149q35 74 126 123h-1q38 20 75 31t72 11h387l82 175h-682l-16 149h1500zM1225 1193h-295l-120 -256
q-30 -65 -102 -65h-407q-127 0 -177 -107q-16 -36 3 -70q17 -33 40 -39q191 74 345 74q44 0 76.5 -24.5t52.5 -71.5q37 -88 7 -152q-3 -8 -9 -15.5t-13 -13.5q-19 -14 -45.5 -31t-64.5 -39q-46 -26 -84.5 -48.5t-70.5 -43.5q-30 -20 -38 -40q-13 -26 3 -41q8 -7 18.5 -9.5
t24.5 -2.5q24 0 59 9q38 11 87 31.5t105 49.5q75 38 140 81.5t122 93.5z" />
    <glyph glyph-name="dv_nga_kh" horiz-adv-x="1352" 
d="M1364 809l-203 -138l-70 134l202 138zM1625 1193h-405q-30 -65 -61 -129t-62 -129q-25 -55 -68 -55h-304q-172 0 -212 -85q-11 -23 -15.5 -38t-1.5 -23q3 -25 64 -18l277 29q42 3 78 -13t62 -53q59 -83 10 -186q-8 -17 -23 -35.5t-37 -38.5l-477 -1023l-73 134l137 294
q-75 -39 -140.5 -56.5t-116.5 -13.5q-50 3 -87 22t-59 51h1q-46 67 -3 158q23 50 61 90.5t92 72.5q47 28 92.5 43t88.5 15q91 0 134 -40q15 -17 28 -40.5t23 -61.5l117 251q-107 -35 -192 -35q-177 0 -314 152l-159 -341q-44 -92 -232 -223q15 -67 37.5 -150.5t48.5 -177.5
l-108 -106q-8 39 -18.5 93t-21.5 106q-6 36 -14 75t-16 82q-10 49 -15 82.5t-7 50.5l-1 -1q-12 81 2 117q8 25 30 39.5t57 15.5q21 1 43.5 -4t44.5 -16l-1 1q36 -12 92 109l171 370q-23 45 -41 91.5t-32 82.5l98 48q49 -163 145 -267h-1q94 -100 248 -100q45 0 94.5 12.5
t98.5 35.5q100 48 121 92q29 62 -52 62q-8 0 -17 -0.5t-20 -1.5l-232 -27q-123 -13 -167 94q-38 94 1 179q32 69 106 114q72 45 151 45h320l83 177q-216 0 -432.5 1t-431.5 1l-7 149h1409zM584 -32q-1 3 -3 7l10 7zM425 -102q109 46 156 77q-24 113 -157 113q-62 0 -138 -47
q-75 -45 -103 -107q-39 -83 73 -85q25 0 67 12.5t102 36.5z" />
    <glyph glyph-name="dv_n_n" horiz-adv-x="1161" 
d="M1285 1193h-200l-555 -1193l-122 84l231 496q-125 -54 -245 -106.5t-246 -106.5q-3 -13 -7 -28t-8 -33q-4 -16 -7 -34t-8 -38q-21 -74 -101 -74q-16 0 -38.5 15.5t-51.5 44.5q-31 33 -43.5 63t-1.5 54q26 56 114 99l47 19q13 5 25 10t25 10v-1q67 28 130.5 55t126 53.5
t126 53t130.5 55.5q-35 51 -87.5 84.5t-119.5 48.5q-50 12 -117 12h-22.5t-23.5 -1q-20 -43 -38 -76t-30 -50q-21 -27 -42 -41t-45 -14q-20 0 -37 22.5t-34 67.5q-31 91 -11 137q51 111 284 111q72 0 138.5 -24.5t125.5 -69.5q43 -34 78 -76t60 -88h26l214 459h-869l-11 149
h1239z" />
    <glyph glyph-name="dv_h_v" horiz-adv-x="1135" 
d="M1336 1193h-268l-108 -232q-39 -83 -110 -83h-494q-115 0 -162 -100q-21 -46 18 -104q13 3 24 5.5t24 5.5q18 5 36 8.5t35 8.5q121 28 218 28q82 0 148.5 -21t114.5 -57q41 -35 54.5 -72t-3.5 -75l-302 -647l-103 88l72 154q-75 -34 -136.5 -52t-107.5 -18
q-44 0 -78.5 18t-59.5 50q-26 37 -30 79t17 88q39 85 138 150q100 67 192 67q42 0 69.5 -2.5t39.5 -8.5q17 -8 39.5 -27.5t51.5 -54.5l57 122q23 49 3 70l1 -1q-17 19 -62 27.5t-117 8.5q-75 0 -158 -22t-165 -64q-43 -23 -82.5 -51t-73 -58.5t-59.5 -64t-42 -67.5
q-60 -128 12 -253q64 -110 251 -245l-97 -83q-73 56 -133.5 115.5t-102.5 113.5q-74 108 -92.5 216t28.5 208q66 141 280 275q-44 132 3 231q31 67 110 116q77 47 157 47h455l76 163h-782l-25 149h1212zM620 293q-14 38 -51 54.5t-98 16.5t-142 -54t-103 -103
q-33 -71 55 -71q5 0 12.5 0.5t14.5 1.5q20 2 50 11.5t70 25.5q52 20 99 44t85 49z" />
    <glyph glyph-name="dv_nga_g" horiz-adv-x="1380" 
d="M1256 787l-190 -132l-73 136l194 132zM1558 1193h-443l-107 -228q-35 -100 -113 -100h-315q-49 0 -107 -33q-54 -31 -76 -75q-30 -67 34 -67q8 0 20 1t26 3l256 32q105 13 151 -71q39 -68 18 -142q-21 -68 -129 -153l-260 -557l-99 100l170 369q-19 -2 -39.5 -3.5
t-40.5 -1.5q-69 0 -133 15t-121 47l-149 -319q-9 -19 -24.5 -36.5t-34.5 -30.5t-41 -21.5t-44 -9.5q-34 -1 -92 90q-27 48 -37 81t0 53q30 66 124 66q15 0 51 -3q17 -2 22 -3t12 -1l104 222q-108 119 -137 295l93 53q87 -379 400 -379q78 0 179 47q98 45 116 82
q13 28 13.5 45.5t-9.5 27.5q-10 7 -27 9.5t-43 -1.5l-261 -28q-48 -3 -86 16.5t-61 64.5q-46 90 -4 182q31 68 114 117q79 45 153 45h306l93 200h-857l-12 149h1435z" />
    <glyph glyph-name="dv_h_r" horiz-adv-x="1128" 
d="M1297 1193h-276l-102 -218q-45 -95 -112 -95h-466q-78 0 -130 -24.5t-75 -74.5q-26 -50 22 -122q35 20 78.5 35t98.5 28h-1q107 26 194 26t144 -39.5t84 -115.5q46 -136 -21 -279q-66 -143 -361 -300l-86 95q62 27 115 57.5t101 64.5q42 30 70 54.5t43 43.5q15 18 28 47
q3 7 6 13.5t6 14.5q8 20 14 35.5t8 27.5q-112 -61 -227.5 -124t-226.5 -123l-85 95l513 263q-48 42 -162 42q-67 0 -138.5 -23t-144.5 -68q-70 -45 -122.5 -99t-80.5 -114q-37 -79 -31 -150.5t52 -133.5q35 -46 109.5 -100.5t186.5 -118.5q-12 -13 -34.5 -34t-56.5 -48
q-90 49 -161 102t-125 112q-175 204 -78 413q64 137 196 235q-59 167 -13 264q34 75 109 122q74 47 157 47h477l78 167h-778l-16 149h1204z" />
    <glyph glyph-name="dv_sh_rikaar" horiz-adv-x="1315" 
d="M1485 1193h-192l-455 -976l-42 9q-82 -13 -145.5 -28t-105.5 -33q-97 -39 -123 -115q-14 -38 21 -64q36 -30 91 -24q115 12 253 57q13 -24 26.5 -60t28.5 -83q-54 -15 -115.5 -27t-136.5 -25q-95 -2 -157 25.5t-90 81.5q-20 45 -17.5 96.5t28.5 105.5q32 68 91 114.5
t144 72.5l141 32q-70 97 -137.5 192t-136.5 192q-37 -20 -103.5 -54t-161.5 -81q-206 -101 -263 -124l-97 105q154 62 289 124t259 128q-38 58 -56 88t-20 32q-45 95 -11 173q20 44 43 78t49 57q47 42 113.5 69.5t152.5 40.5q142 -6 190 -96q42 -85 -12 -214
q-50 -116 -263 -257q14 -19 46.5 -63.5t82.5 -110.5q26 -35 44.5 -59.5t30.5 -41.5t18 -28t8 -19l331 710h-144l-6 149h502zM721 1106q20 37 24.5 66.5t-5.5 49t-32 30t-54 10.5q-55 0 -113 -32q-73 -40 -112 -123q-13 -27 3.5 -78.5t64.5 -130.5q78 42 134 94.5t90 113.5z
" />
    <glyph glyph-name="dv_t_r" horiz-adv-x="1149" 
d="M1291 1193h-240l-555 -1193l-137 80l210 443q-158 -84 -321 -169t-321 -169q-14 21 -31 50.5t-37 67.5l764 384q-31 26 -64 53.5t-64 53.5q-41 36 -124 36q-19 0 -38.5 -2t-40.5 -6l-182 -31l-44 143l241 42q33 6 72 6q139 0 198 -74l110 -132l195 417h-822l-9 149h1234z
" />
    <glyph glyph-name="dv_h_n" horiz-adv-x="1135" 
d="M1323 1193h-269l-108 -232q-39 -85 -112 -85h-493q-114 0 -161 -98q-20 -44 17 -104q14 3 26 6t25 6l73 17q115 27 214 27q165 0 263 -66q89 -64 55 -137l-267 -573l-104 88l181 388q-63 -29 -120.5 -54.5t-121.5 -54.5q2 -80 -21 -128q-26 -57 -81 -57q-12 0 -38 8
q-146 129 -135 153q22 46 82 69h-1q125 51 243.5 99t243.5 99l11 22q-78 34 -187 34q-154 0 -312 -82q-88 -45 -149.5 -104.5t-95.5 -132.5q-116 -249 291 -473q-39 -43 -90 -85q-72 40 -134.5 90.5t-116.5 113.5q-181 214 -84 420q64 139 256 261q-47 143 -1 239
q32 69 110 118q77 47 160 47h453l75 161h-779l-11 149h1201z" />
    <glyph glyph-name="dv_sh_v" horiz-adv-x="1334" 
d="M1460 1193h-219l-553 -1185l-110 104l67 145q-109 -67 -205 -101t-175 -34q-97 0 -164 87q-75 97 -19 216q23 51 68.5 96.5t108.5 85.5q59 36 116 55.5t110 19.5q30 0 73 -8q-17 14 -37 28.5t-40 29.5q-19 14 -35.5 26.5t-37.5 27.5q-159 -65 -276.5 -108.5t-196.5 -69.5
l-22 10l-38 99q26 8 90 31.5t152 56.5h-1q42 16 71.5 28t50.5 20t34 13.5t21 9.5q-26 29 -43 56t-25 46q-29 60 5 134q17 37 52.5 77t79.5 76q60 47 124 72t128 25q110 0 163 -92v1q57 -90 15 -180q-20 -45 -51.5 -83t-72.5 -70q-40 -32 -150 -95q154 -108 279 -260l285 610
h-142l-12 149h529zM677 1118q57 123 -62 123q-52 0 -133 -55q-41 -26 -68 -56t-43 -63q-38 -82 24 -141q88 36 167 87q93 59 115 105zM745 470q-17 22 -42.5 38.5t-62.5 28.5q-63 21 -123 21h-15t-15 -1q-40 -4 -83 -19t-88 -41q-96 -58 -132 -134q-29 -63 -6.5 -96.5
t79.5 -33.5q38 0 88 13t110 38q69 28 137.5 68t137.5 91z" />
    <glyph glyph-name="dv_nya_j" horiz-adv-x="1417" 
d="M1587 1193h-212q-140 -299 -279 -597l-278 -596l-120 92l156 337q-54 -12 -103.5 -24t-98.5 -23.5t-99 -23t-104 -23.5q47 -54 57 -106t-14 -104q-17 -35 -48 -70t-76 -67q-50 -36 -100 -55t-98 -19q-280 0 -340 443l105 58q10 -69 25.5 -124.5t40.5 -101.5
q67 -130 172 -130q57 0 116 38q28 18 47 36.5t27 37.5q13 27 7.5 57t-28.5 59q-20 23 -44 41.5t-52 29.5q4 8 12 23t19 32q82 22 243.5 65t406.5 108l80 172q-5 0 -8 -0.5t-9 -0.5q-101 0 -174 25q-59 -88 -161 -151q-131 -81 -274 -81q-150 0 -266 131q-78 88 -102 178
l108 62q27 -96 93 -159q38 -40 82.5 -59t95.5 -19q103 0 206 68q95 63 133 145q11 25 14.5 47t-2.5 40q-11 35 -57 35q-60 0 -284 -148l-73 123q139 110 329 110q103 0 164 -63q29 -31 38.5 -64.5t-3.5 -73.5q4 -1 12.5 -1h15.5q93 0 203 30l122 261h-1103l-21 149h1488z
" />
    <glyph glyph-name="dv_nga_m" horiz-adv-x="1362" 
d="M1313 787l-191 -132l-72 136l192 130zM1611 1193h-437l-107 -230q-46 -98 -115 -98h-316q-23 0 -50 -8.5t-56 -25.5q-56 -32 -76 -76q-30 -65 36 -65q8 0 19 1t25 3l255 30q105 12 153 -71q37 -67 18 -142q-12 -43 -48 -83q-117 -250 -238 -507.5t-238 -507.5l-100 96
l152 327h-467q-22 -47 -36 -75.5t-18 -35.5q-38 -68 -86 -69q-35 -2 -90 96q-54 96 -35 138q27 59 92 70l-13 -10q8 4 34 8.5t68 5.5q60 128 116 251.5t116 251.5q-38 52 -65.5 112t-47.5 130l97 54q87 -379 401 -379q78 0 178 47q98 45 116 82q25 55 5 75q-10 7 -26.5 9.5
t-42.5 -1.5l-262 -29q-100 -11 -148 80q-25 45 -25.5 91t21.5 93q32 69 117 118q37 21 75.5 32.5t75.5 11.5h304l93 200h-847l-13 149h1427zM708 304q-60 -23 -106.5 -33.5t-81.5 -10.5q-129 0 -252 102l-184 -396h465z" />
    <glyph glyph-name="dv_d_m" horiz-adv-x="1370" 
d="M1431 1193h-217l-557 -1193l-119 84l70 150h-303l-40 -86q-28 -58 -81 -58q-35 0 -45 28h1q-36 71 -71 142q-14 30 1 61q11 22 30.5 33.5t51.5 12.5l122 4q5 8 8 15.5t7 16.5q59 125 -9 121l-178 -9q-114 -7 -150 114q-34 113 23 236q73 157 244 157h314l80 171h-607
l-17 149h1433zM674 371l383 822h-301l-114 -243q-30 -68 -89 -68h-335q-48 0 -97 -37q-23 -19 -42.5 -41.5t-30.5 -48.5q-51 -109 83 -100l189 13q67 4 112 -36q45 -42 14 -108q-15 -42 -26.5 -76.5l-25.5 -76.5h280z" />
    <glyph glyph-name="dv_d_g" 
d="M539 -29q-3 -20 -24 -46t-56 -52q-28 -23 -52.5 -39t-44.5 -24l-129 109q26 9 46.5 16.5t33.5 13.5q53 26 67 55q22 39 28 127.5t-4 224.5q-38 -12 -85 -12q-18 0 -33 1t-29 5q-25 -87 -48.5 -171.5t-47.5 -170.5q-2 -5 -3.5 -10t-4.5 -11q-10 -22 -27 -38.5t-36.5 -27.5
t-40.5 -15t-39 0q-13 4 -35 19.5t-50 42.5q-37 33 -51.5 63.5t-5.5 52.5q13 39 78 58q15 5 43 11t70 14q8 26 22 81t36 143q-8 7 -14 14t-14 15t-15.5 16.5t-15.5 16.5q-26 29 -42.5 60t-23.5 63q-18 91 34 204q25 53 66 98.5t101 85.5t119.5 59t121.5 19h268l71 151h-697
l-16 149h1099l2 -149h-233l-108 -232q-36 -60 -91 -60h-254q-262 0 -356 -204q-43 -92 6 -163h-1q57 -83 207 -83q15 0 27 1t24 3q-2 20 -2 48.5t1 65.5q14 65 92 65q6 0 12 -1t10 -4q76 -38 111 -79t17 -79q-11 -23 -72 -59q-8 -4 -15 -7t-14 -7q-8 -3 -14.5 -6t-14.5 -8
q10 -44 17 -85t13 -77q14 -92 18.5 -156t-1.5 -96z" />
    <glyph glyph-name="dv_d_dh" horiz-adv-x="1288" 
d="M657 342h-19q5 5 8.5 9t7.5 8zM401 146q70 47 129 95t108 101q-63 2 -121.5 15t-114.5 39h1q-69 30 -109 83t-51 126q-80 -21 -133 -53t-76 -74q-33 -64 4 -120q14 -13 36.5 -19.5t55.5 -3.5q119 61 136 61q7 -1 19 -29t34 -83q-48 -12 -93.5 -33t-83.5 -48
q-35 -26 -58 -50t-28 -43q-8 -34 10 -53.5t64 -19.5q17 0 41 3q42 5 99 31t131 75zM830 -23q-2 -5 -3.5 -9.5t-4.5 -10.5q-20 -46 -73 -88q-43 -35 -82 -51l-135 112q39 8 61 14t34 11q59 21 76 51q40 69 -17 220q-85 -75 -155 -124.5t-130 -81.5q-136 -70 -276 -70
q-50 0 -88 14t-68 40q-66 60 -25 147q9 20 29.5 48.5t54.5 67.5q-41 5 -91 19q-53 31 -70 85.5t12 117.5q88 183 375 241l20 43q52 110 173 189q121 80 244 80h268l71 151h-953l-18 149h1344l25 -149h-243l-107 -229q-38 -63 -93 -63h-252q-262 0 -359 -207
q-37 -80 -11 -148l1 1q27 -67 105 -83q43 -10 170 -11q-2 22 -2.5 49.5t-0.5 61.5q16 66 92 66q7 0 13 -1t9 -4q80 -42 113 -82t16 -76q-11 -25 -73 -59l1 1q-19 -10 -30.5 -16.5t-29.5 -16.5q15 -42 26.5 -80t21.5 -71q26 -88 35.5 -150t1.5 -94z" />
    <glyph glyph-name="dv_d_v" horiz-adv-x="1063" 
d="M422 254q13 10 18 22q3 7 5.5 17.5t1.5 18.5q-20 -4 -39.5 -5.5t-40.5 -1.5q-26 0 -50.5 2.5t-48.5 9.5q-143 -45 -224 -92.5t-105 -99.5q-17 -36 4 -60q12 -11 29.5 -17t39.5 -6q47 0 101.5 17.5t116.5 52.5q110 62 190 139zM484 15q26 46 17 185q-66 -71 -156 -134h1
q-148 -111 -275 -124h1q-23 -3 -46 -3q-103 0 -157 62q-61 68 -26 165l-1 -1q11 30 44 65.5t75 67.5q38 28 78 51t89 43q-150 133 -54 339q55 117 196 217q128 89 225 89h270l73 156h-745l-7 149h1131l16 -149h-244l-114 -245q-28 -57 -85 -57h-296q-89 0 -181 -71
q-95 -74 -137 -165q-53 -115 23 -183q64 -54 181 -54q15 0 29 1t28 3q-1 13 -1.5 25t-2.5 25q-4 49 8 72q35 62 84 62q8 0 17 -2.5t16 -6.5q74 -35 106.5 -73.5t15.5 -77.5q-7 -17 -31.5 -36.5t-75.5 -44.5q18 -80 30 -147q12 -82 15.5 -143.5t-2.5 -95.5q-12 -49 -79 -104
l2 1q-25 -23 -47.5 -37.5t-42.5 -22.5l-131 110q34 11 56 18.5t33 13.5q63 28 77 57z" />
    <glyph glyph-name="dv_d_bh" horiz-adv-x="1532" 
d="M205 450q2 4 2 7.5t2 8.5h16zM43 607q-64 -136 166 -141q62 250 -32 250q-38 0 -75 -30.5t-59 -78.5zM1032 -29q-4 -20 -23 -45.5t-49 -52.5q-30 -26 -57 -45.5t-45 -26.5l-129 113q29 10 49 17t31 12q27 14 45 28t28 30q19 29 20.5 102t-12.5 190q-36 -8 -183.5 -50
t-410.5 -118q-5 -27 -11 -50t-14 -40q-32 -69 -87 -69q-17 0 -32 7q-26 13 -52.5 26.5t-52.5 27.5q-42 24 -57.5 49.5t-4.5 48.5q21 47 87 65h-1q23 8 39.5 13t39.5 11q8 45 14.5 83.5t16.5 84.5q-15 -2 -30 -2h-30q-146 0 -216 62q-75 70 -23 183q38 81 139 135l-1 -1
q90 51 165 51q133 0 166 -138t-34 -419q42 10 83 20.5t87 22t98.5 25.5t115.5 31q-124 52 -176 140q-68 115 2 267q28 59 77.5 109.5t117.5 92.5q62 36 119 56t106 20h264l73 156h-1207l-18 149h1602l11 -149h-239l-113 -242q-28 -60 -81 -60h-294q-92 0 -182 -61t-130 -147
q-28 -60 -23 -108.5t39 -83.5q32 -27 80.5 -42t107.5 -15q22 0 46 3q6 47 10 71.5t6 29.5q34 60 87 60q18 0 35 -9q41 -23 75 -70q37 -63 19 -107q-16 -35 -79 -64l-26 -12h1q-11 -5 -15.5 -7t-17.5 -8q10 -35 18.5 -67.5t15.5 -62.5q33 -155 21 -221z" />
    <glyph glyph-name="dv_y_y" horiz-adv-x="1286" 
d="M1388 1193h-207l-555 -1193l-134 72l115 247q-100 -42 -177 -64.5t-122 -22.5q-178 0 -247 130q-25 49 -32 111t6 137q119 7 225 35q155 39 186 104q68 148 -304 148q-99 0 -243 -12l68 146l235 11q8 1 18.5 1h18.5q182 0 268 -94q99 -107 31 -250q-36 -78 -125 -129.5
t-238 -80.5q-36 -166 105 -166q36 0 96 22t135 62q60 33 110.5 63.5t82.5 56.5l311 666h-982l-10 149h1361z" />
    <glyph glyph-name="dv_s_r" horiz-adv-x="1486" 
d="M1588 1193h-199l-557 -1193l-118 90l244 522q-137 -59 -278 -119t-278 -119l-75 95l9 19l593 249q-90 51 -185 49q-50 -1 -117.5 -10t-148.5 -26q-63 -14 -114 -26.5t-88 -25.5q-5 -4 -19 -16q-10 -8 -23 -18t-27 -21q-14 -9 -31.5 -20t-36.5 -22t-32 -19t-35 -21
q21 -49 61.5 -117t87.5 -137q33 -48 68 -99.5t68 -99.5l-9 -18l-93 -72h-19q-33 53 -91.5 153.5t-139.5 246.5q-34 67 -60.5 140.5t-42.5 139.5q-7 28 7 57q29 62 93 63q21 0 71 -12q29 -8 50 -13.5t32 -7.5q25 -5 99 144q8 15 14 28.5t13 27.5q29 61 50 113.5t32 94.5h-357
l-9 149h1582zM1229 1193h-716q-42 -112 -75 -190t-59 -135q142 25 236 38.5t122 13.5q48 0 123.5 -35t175.5 -105z" />
    <glyph glyph-name="dv_k_k" horiz-adv-x="1466" 
d="M1614 1193h-662l-124 -265q31 13 62.5 25.5t63.5 26.5q99 38 168 38q83 0 132 -97q50 -96 10 -180q-20 -44 -48.5 -86.5t-65.5 -87.5l-96 99q44 50 104 140q40 87 -30 87q-32 0 -79.5 -13t-113.5 -39q-105 -38 -187 -84l-106 -229q201 74 282 74q85 0 143 -94
q57 -104 6 -213q-58 -125 -242 -306l-84 120q169 149 220 258q22 47 11.5 80.5t-54.5 33.5q-36 0 -175 -47q-61 -20 -106.5 -37t-76.5 -31l-169 -366l-137 64l108 231q-115 -47 -195 -67t-137 -20q-91 0 -149 93q-56 93 -17 178q45 95 183 171q-89 107 -39 215
q54 117 212 180q62 24 126 35.5t133 11.5q114 0 163 -53q8 -8 16.5 -25.5t18.5 -42.5l104 222h-706l-23 149h1540zM643 836q-2 2 -2 5t-2 5l15 9zM391 745q81 29 144 55t104 46q-59 110 -197 110q-54 0 -105 -13t-102 -41q-98 -53 -128 -119q-31 -66 79 -93q6 -2 24.5 1.5
t45.5 11t61.5 18.5t73.5 24zM549 678q-120 -50 -202.5 -73t-137.5 -23q-23 0 -42 7q-56 -26 -114 -73h1q-57 -48 -75 -87q-11 -23 -13.5 -43.5t4.5 -36t24 -25t46 -9.5q85 0 404 139z" />
    <glyph glyph-name="dv_k_v" horiz-adv-x="1419" 
d="M1588 1193h-643l-144 -309q25 11 50.5 21t49.5 21q100 38 165 38q54 0 91.5 -30.5t56.5 -86.5q35 -105 -17 -216q-113 -241 -314 -414l-85 120q252 213 320 358q23 52 -5 83q-29 33 -93 33q-42 0 -116.5 -24.5t-183.5 -76.5l-330 -710l-138 57l113 242q-208 -95 -354 -95
q-85 0 -143 87q-60 86 -22 166q44 98 174 181q-24 35 -32 88q-12 72 17 136q26 57 76 101.5t121 76.5q119 52 245 52q180 0 194 -57l-2 2q12 -17 18 -34l1 1q12 -27 10 -54l114 243h-693l-22 149h1504zM626 815l-2 4l-2 4q4 2 7.5 4t6.5 4zM375 721q149 46 247 102
q-16 75 -65 104q-45 27 -133 27q-109 0 -202 -47q-89 -44 -120 -110q-10 -21 -8 -43t16 -41q12 -17 28 -27t33 -10q31 0 81.5 11.5t122.5 33.5zM521 634q-103 -45 -181 -66.5t-135 -21.5q-28 0 -49.5 6t-35.5 16q-20 -9 -43 -25.5t-46 -36.5q-50 -47 -70 -89q-44 -96 68 -96
q30 0 83 12.5t121 34.5q60 21 111.5 41.5t89.5 37.5z" />
    <glyph glyph-name="dv_ri.alt1" horiz-adv-x="1634" 
d="M1811 1193h-813l-210 -450q66 16 122 41t107 63q2 3 3.5 5.5t3.5 5.5q14 26 29 53t30 55q43 76 92 76q24 0 98 -51q43 -29 60 -54.5t0 -45.5q-7 -8 -36 -27.5t-83 -51.5q-96 -54 -96 -57q-30 -64 14 -100q36 -28 165 -61q35 -11 57 -26.5t30 -39.5q7 -27 -0.5 -67
t-31.5 -94q-59 -130 -237 -225h1q-151 -81 -307 -90l-68 132q83 5 165 25t168 52h-1q166 63 188 114q9 20 -5.5 37t-49.5 28l-58 15q-31 8 -63 16.5t-64 16.5q-57 20 -69 71.5t23 137.5q-98 -39 -185 -39h-20.5t-18.5 2l-306 -660l-128 78l212 451q-53 -26 -212 -110.5
t-428 -228.5l-65 115q180 94 368 190.5t389 197.5q-17 24 -34 48.5t-34 49.5h1q-49 64 -124 64q-48 0 -123 -14.5t-177 -42.5l-44 134q49 17 97 30t99 24q54 11 102 17t80 5q89 -2 147 -91l22 -33t19 -29t18 -29t20 -33l187 400h-705l-18 149h1691z" />
    <glyph glyph-name="dv_d_rikaar" horiz-adv-x="1081" 
d="M1181 1193h-277l-91 -194q-27 -59 -42 -75q-28 -33 -82 -33h-390q-53 0 -108 -33q-33 -18 -55 -42t-36 -53q-18 -39 18 -80q16 -20 35.5 -31t39.5 -14q26 9 51 17t51 18q38 13 78 18.5t81 5.5q54 0 78 -21q28 -43 5 -105q-31 -35 -104 -43q-39 -3 -89 -3q-47 0 -104 3
q-137 -46 -203 -185q-25 -55 -1 -104q27 -55 99 -55q32 0 79.5 9.5t107.5 27.5q48 16 99 35.5t100 41.5l3 -143q-213 -87 -349 -87q-71 0 -127.5 30t-94.5 86q-41 61 -49.5 118.5t16.5 110.5q17 36 53.5 77t92.5 87q-20 20 -33 48.5t-19 61.5q-10 43 -6 87.5t24 87.5
q30 62 112 117q83 55 165 55h365l74 159h-727l-21 149h1156z" />
    <glyph glyph-name="dv_sh_c" horiz-adv-x="1376" 
d="M1540 1193h-192l-556 -1193l-127 70l61 130q-138 -85 -253.5 -129.5t-203.5 -44.5q-140 0 -197 91q-21 34 -17 78t30 100q-44 -13 -89.5 -26.5t-88.5 -26.5l-22 10l-48 94l8 17l495 134h-1q212 81 279 76l11 -7l36 -110q-401 -72 -478 -239q-48 -104 52 -104
q102 0 247 74t335 222q23 51 45.5 95t45.5 95q-106 34 -187.5 70.5t-144.5 76.5q-39 -18 -98.5 -43t-120.5 -48q-87 -32 -162.5 -55.5t-134.5 -37.5l-33 12l-56 108q112 15 246 58q68 22 127.5 45t111.5 49q-93 51 -123.5 118t2.5 152q31 75 133 151q130 95 260 95
q108 0 161 -114q48 -109 10 -191q-26 -55 -78 -110.5t-140 -118.5q48 -37 116.5 -63t160.5 -47l227 487h-143l-11 149h504zM794 1088q32 59 15 107q-21 44 -81 44q-26 0 -55.5 -12t-65.5 -35q-84 -55 -116 -134q-49 -115 76 -165q30 15 64.5 37.5t66.5 47.5q29 26 55.5 55.5
t40.5 54.5z" />
    <glyph glyph-name="dv_nya_c" horiz-adv-x="1417" 
d="M1592 1193h-208l-557 -1193l-118 116q-57 -33 -100.5 -56t-72.5 -37q-128 -53 -261 -53q-115 0 -172 72q-57 73 -6 183q6 12 13 24.5t16 25.5q-65 -14 -132.5 -29.5t-131.5 -29.5l-37 132l896 179l47 -125l-330 -62l2 1q-172 -45 -243 -197q-21 -44 18 -66q32 -23 77 -17
q81 10 211.5 77.5t316.5 195.5q50 108 99.5 211.5t100.5 212.5q-6 0 -9 -0.5t-8 -0.5q-101 0 -174 25q-59 -87 -162 -151h1q-131 -81 -276 -81q-150 0 -264 131q-78 88 -102 178l108 62q14 -48 36.5 -87.5t56.5 -71.5q74 -78 179 -78q102 0 205 68q95 62 134 145
q23 50 12 87q-11 35 -58 35q-61 0 -283 -148l-75 122q139 111 330 111q106 0 165 -62h-1q29 -29 38 -64t-2 -73q5 -1 12.5 -1h19.5q92 0 198 28l122 261h-1105l-21 149h1479z" />
    <glyph glyph-name="dv_nga_k_ss" horiz-adv-x="1337" 
d="M1330 787l-195 -132l-72 136l193 132zM1635 1193h-448l-107 -230q-46 -98 -113 -98h-316q-49 0 -106 -33q-54 -31 -76 -75q-30 -67 34 -67q8 0 20 1t26 3l255 32q105 13 152 -71q39 -68 18 -142q-7 -20 -26 -46t-51 -59l-519 -1113l-75 104l247 529q-64 -23 -127 -33
t-127 -9q-37 0 -75.5 8.5t-78.5 28.5q-23 10 -39 18.5t-27 15.5q-193 -81 -237 -170q-35 -71 -4 -109q21 -29 85 -29q49 0 105 18q-12 81 10 109l-2 -2q29 45 72 45h10.5t10.5 -1q1 0 2 -0.5t2 -0.5q23 -4 66 -56q21 -26 31 -47.5t5 -38.5q-9 -44 -88 -89q11 -82 21.5 -171
t21.5 -170l-118 -60q-3 27 -7 81t-7 124q-2 66 -3 101.5t0 51.5q-21 -4 -42.5 -5.5t-42.5 -1.5q-124 0 -197 68q-95 98 -55 225q24 69 109 127h-1q26 18 64.5 39.5t92.5 46.5q-20 21 -32.5 35.5t-19.5 22.5l-8 8q-20 32 -22 66.5t15 70.5q48 106 175 160q38 16 72 16
q14 0 28 -3t30 -8q-57 60 -92.5 135t-52.5 167l96 53q87 -379 400 -379q80 0 178 47q98 45 117 82q27 55 4 73l-1 -1q-21 16 -71 9l-259 -28q-50 -3 -88 16.5t-61 64.5q-46 90 -4 182q16 35 45 64t70 53q79 45 152 45h306l93 200h-809l-3 149h1394zM212 199q39 81 -50 81
q-81 0 -130 -105q-12 -26 -2.5 -50t41.5 -44q20 13 39.5 24.5t39.5 24.5q20 14 36.5 32.5t25.5 36.5zM317 336q1 -2 2 -3.5t2 -3.5q-4 2 -7.5 4.5t-7.5 5.5l20 6q-4 -5 -4 -4.5t-5 -4.5zM717 291q-36 -12 -73 -18t-70 -6q-69 0 -132.5 15t-120.5 47q9 -16 17 -33
q26 -68 -24 -166q-9 -18 -45 -49.5t-96 -73.5q37 -14 135 -14q54 0 133 26.5t188 81.5z" />
    <glyph glyph-name="dv_k_l" horiz-adv-x="1434" 
d="M1581 1193h-660l-121 -259q46 18 86.5 35.5t86.5 35.5q37 15 73 15q98 0 131 -115q30 -114 -33 -248q-19 -40 -74 -110q-29 -35 -57.5 -65.5t-60.5 -56.5l-85 105q84 78 134 135.5t67 95.5q26 57 9.5 87t-61.5 30q-36 0 -76 -17h1q-57 -27 -111.5 -52t-111.5 -51
l-140 -301q7 2 15.5 4t18.5 5q40 12 63 12q43 0 73 -21.5t48 -59.5q18 -43 12.5 -98.5t-37.5 -123.5q-20 -44 -65.5 -91t-111.5 -98q-54 -40 -103 -69t-91 -43l-62 107q57 25 110 53t101 59q124 76 153 139q26 57 14 95q-10 37 -62 37q-110 0 -391 -267l-59 93q26 32 70 72
t98 82q-20 19 -51.5 29.5t-73.5 10.5q-52 0 -125 -58q-39 -29 -66.5 -63.5t-47.5 -76.5q-20 -45 -20.5 -95.5t21.5 -106.5q14 -41 37 -76.5t55 -67.5l-106 -65q-38 40 -64.5 85.5t-46.5 96.5q-60 160 -1 286q23 49 60.5 92t91.5 85q110 82 202 82q50 0 91 -18.5t73 -60.5
l92 197q-48 -20 -75.5 -31t-36.5 -14q-70 -25 -126 -25q-146 0 -205 104q-58 98 -2 217q50 107 160 180q54 37 112.5 55t118.5 18q130 0 164 -68q7 -14 13 -25.5t11 -22t11 -22t14 -25.5l108 232h-694l-10 149h1493zM609 817q0 3 -2 7l10 8zM392 715q60 23 113.5 50
t101.5 59q-35 165 -197 165q-61 0 -140 -47q-94 -54 -133 -139q-30 -64 5 -103v1q31 -33 86 -33q46 0 164 47z" />
    <glyph glyph-name="dv_d_v_y" horiz-adv-x="1268" 
d="M1428 1193h-201l-556 -1193l-116 82l67 138q-68 -27 -135.5 -53t-133.5 -52q-131 -51 -227 -51q-63 0 -103 28q-60 44 -69 71l-1 -1q-21 52 23 140q-91 16 -121 63t7 126q65 138 243 213q-6 21 -12.5 41t-13.5 40q-12 63 16 124q67 143 263 143h272l66 141h-590l-5 149
h1325zM690 373l383 820h-214l-96 -205q-33 -72 -109 -72h-277q-29 0 -56.5 -6.5t-51.5 -18t-43 -27.5t-30 -35q-26 -39 -7 -92q45 17 116 17q171 0 188 -120q3 -23 -1 -45t-14 -44q-32 -67 -118.5 -127.5t-211.5 -108.5q-69 -35 -90 -81q-15 -32 -2.5 -53.5t47.5 -21.5
q26 0 67.5 12t95.5 33zM389 563q24 37 6.5 61.5t-71.5 20.5q-125 -9 -243 -74q-102 -56 -127 -107q-17 -31 -2.5 -55.5t61.5 -24.5q16 0 35.5 3.5t39.5 8.5q40 12 81 28.5t83 37.5q107 53 137 101z" />
    <glyph glyph-name="dv_d_dh_n" horiz-adv-x="1522" 
d="M201 531q21 45 7.5 74t-60.5 29q-32 0 -75 -32q-22 -17 -37.5 -36.5t-26.5 -42.5q-16 -34 2 -76q19 -44 62 -51q16 14 32 30t34 33q25 24 41 42.5t21 29.5zM1035 -32q-11 -41 -72 -95q-30 -27 -54.5 -44t-41.5 -25l-131 110q32 10 54 17t36 14q59 28 73 57q26 54 -10 213
q-155 -89 -313.5 -181.5t-339.5 -198.5q40 -113 26 -142q-7 -18 -22 -28l2 1q-28 -26 -105 -26q-164 0 -230 45q-19 14 -5 41q17 37 77 74l334 198h-13q-122 0 -168 58q-47 62 -6 151q9 20 22 39.5t28 37.5q-23 -4 -46.5 -6t-46.5 -2q-63 0 -115 19t-84 45q-35 35 -39.5 84
t24.5 111q45 96 136 154q82 48 169 48q98 0 125 -68q21 -61 -15 -138q-16 -34 -49.5 -70t-89.5 -78q8 -2 18 -2.5t26 -0.5q14 0 30 1t36 3q46 11 86 27t69 36l85 -108q-213 -74 -261 -178q-20 -41 10 -63q25 -20 73 -19q85 3 207 52q93 37 168.5 89t142.5 127q-7 -1 -14 -1
h-15q-79 0 -147.5 26.5t-127.5 77.5q-64 64 -78 149t31 182q28 60 73.5 108t110.5 88q116 67 217 67h284l70 149h-1141l-18 149h1589l10 -149h-290l-112 -240q-27 -56 -79 -56h-317q-47 0 -90.5 -14t-83.5 -40q-80 -52 -121 -138q-57 -123 21 -191q64 -61 187 -61q23 0 46 3
q0 4 -1 7q1 11 0 21t-2 21q-2 23 1 41t8 29q30 61 83 61q20 0 33 -7q156 -76 121 -154q-8 -16 -27 -33.5t-45 -34.5q-13 -8 -28 -17t-29 -17q15 -44 27.5 -82.5t21.5 -73.5h-1q49 -183 33 -249z" />
    <glyph glyph-name="dv_nga_k_rikaar" horiz-adv-x="1362" 
d="M1282 787l-194 -132l-73 136l194 132zM955 -249q-62 -135 -182 -231l-78 114q151 130 191 216q52 112 -37 112q-53 0 -150 -48h1l-56 -30t-57 -30l-18 -9t-19 -10l-222 -476l-75 -9q-81 -11 -145 -25.5t-107 -32.5q-99 -41 -126 -119q-13 -36 24 -56q40 -26 92 -20
q58 5 122 19.5t136 39.5q4 -15 10.5 -53t14.5 -98q-42 -8 -97.5 -15t-122.5 -14q-89 -2 -150 24t-93 75q-55 86 -3 195q50 104 193 164l-1 -1q59 25 117.5 38t116.5 11l114 245q-63 -42 -123.5 -61.5t-121.5 -19.5q-47 0 -87 17t-76 49q-96 89 -23 247q58 122 179 186h-1
q100 54 214 54q99 0 137 -62q2 -4 4 -9.5t4 -9.5v1q6 -14 10 -24.5t7.5 -20t8 -19.5t10.5 -23l112 240q-19 -2 -38 -3.5t-38 -1.5q-127 0 -226 49t-169 143q-40 55 -67.5 119t-38.5 134l94 53q87 -379 403 -379q78 0 176 47q97 45 115 82q25 53 5 73q-20 15 -69 8l-261 -28
q-48 -3 -86 16.5t-62 64.5q-47 88 -4 182q31 68 114 117q79 45 154 45h304l93 200h-836l-14 149h1423l5 -149h-444q-26 -57 -52.5 -114t-52.5 -114q-35 -100 -110 -100h-319q-48 0 -106 -33q-54 -32 -76 -75q-30 -67 37 -67q8 0 18.5 1t25.5 3l256 32q106 13 153 -71
q19 -35 24 -69.5t-6 -72.5v1q-2 -11 -12.5 -26.5t-29.5 -37.5l1 1q-42 -51 -92 -91l-164 -353q90 48 145.5 68.5t91.5 20.5q80 0 118 -95q37 -109 -30 -250zM449 -101q-2 6 -2 9q6 6 10 8zM259 -197q103 46 188 105q-45 150 -186 150q-89 0 -171 -62v1q-34 -26 -58 -55.5
t-40 -62.5q-28 -59 9 -94q16 -14 38.5 -21.5t48.5 -7.5q62 0 171 47z" />
    <glyph glyph-name="dv_p_n" horiz-adv-x="1057" 
d="M1258 1193h-197l-556 -1193l-126 76l204 437q-125 -45 -245 -88t-245 -88q-8 -23 -20 -55t-28 -72q-41 -103 -108 -86q-15 5 -36.5 21t-49.5 45h1q-64 66 -49 117q19 65 128 103q121 42 240 84t240 84l5 1q-24 0 -38 0.5t-22 1.5t-12 2.5t-8 3.5q-46 23 -80 50t-52 59
q-57 99 8 237l121 260h-201l-2 149h1116zM896 1193h-400l-124 -266q-48 -103 -9 -181q46 -87 196 -116q2 0 21.5 8.5t70.5 30.5z" />
    <glyph glyph-name="dv_ri.alt" horiz-adv-x="1612" 
d="M1256 4q-173 -96 -311 -96t-225 99q-87 100 -33 218q35 73 175 149q57 27 119 57t135 68q6 8 13 15q10 10 12 15q8 89 -5 134q-63 -25 -96.5 -38.5t-36.5 -14.5l1 1q-34 -11 -66 -17.5t-61 -7.5q-9 0 -25.5 3t-38.5 8.5t-48 13t-52 15.5l-3 -7q-15 -32 -49.5 -107
t-89.5 -196l-156 -335l-115 109l196 424q-152 -82 -307 -165.5t-307 -164.5l-76 110l766 394q-19 22 -41.5 47.5t-42.5 46.5q-35 35 -71.5 52t-72.5 17q-35 0 -72 -6t-72 -16q-24 -7 -51.5 -16.5t-61.5 -21.5q-3 11 -8 27t-10.5 34t-11.5 37t-11 37q180 74 314 74
q80 0 136 -46q14 -13 33.5 -36t42.5 -57q29 -43 55 -66l186 398h-681l-21 149h1679l16 -149h-829l-216 -462q-1 -5 40 -16q51 -12 76 -9q31 3 95.5 29t171.5 80q2 7 3 19t3 28q1 2 0.5 2t-0.5 2l1 -1q2 23 6 40.5t10 31.5q7 14 19 28t25 25q23 15 48 15q22 0 60 -16l113 -74
h-1q55 -30 27 -81q-14 -28 -168 -96q0 -65 0.5 -128t0.5 -128q-7 -56 -40 -75l-368 -165h1q-50 -25 -74 -79q-30 -63 3 -103q36 -41 101 -41q58 0 263 97z" />
    <glyph glyph-name="dv_k_r" horiz-adv-x="1479" 
d="M1653 1193h-640l-185 -396q49 19 97 37t97 36h-1q25 11 48.5 15.5t45.5 4.5q56 0 92 -30.5t52 -88.5q14 -54 9 -109.5t-31 -110.5q-103 -222 -330 -410l-70 120q264 233 328 368q13 28 13 49.5t-10.5 36.5t-30.5 23t-48 8q-38 0 -84 -16h1q-66 -26 -128.5 -51t-128.5 -51
l-299 -643l-115 107l211 442q-158 -81 -319.5 -166t-319.5 -167l-80 103l769 389q-35 26 -64 51.5t-63 51.5q-50 38 -135 38q-18 0 -36 -2t-37 -6l-178 -36l-45 144l241 42q34 6 74 6q141 0 195 -74q28 -37 52.5 -68t51.5 -69l197 422h-726l-8 149h1533z" />
    <glyph glyph-name="dv_p_t" horiz-adv-x="1075" 
d="M1213 1193h-228l-557 -1193l-118 78l226 486q-16 1 -32 1h-31q-53 0 -96 -3.5t-78 -9.5q-40 -9 -85.5 -27.5t-80.5 -43.5q-43 -32 -75.5 -69t-51.5 -79q-44 -93 -15 -192q3 -11 18.5 -42.5t47.5 -97.5l-75 -60l-30 44t-28.5 44.5t-25 47t-18.5 52.5q-20 75 -17.5 140.5
t26.5 117.5q28 60 73 107.5t105 84.5q35 20 67.5 34t66.5 22q-20 27 -33 49.5t-17 36.5q-33 82 7 168l142 304h-248l-10 149h1148zM828 1193h-369l-171 -366q-36 -79 -11 -121q17 -38 75 -38q60 0 128.5 23t147.5 74z" />
    <glyph glyph-name="dv_d_y" horiz-adv-x="1360" 
d="M1442 1193h-196l-556 -1193l-121 86l92 199q-74 -44 -131 -75t-95 -48q-77 -35 -148 -53.5t-134 -18.5q-48 0 -91.5 23t-83.5 68q-95 105 -36 232q48 104 168 161q-72 73 -93 149t4 147q14 27 36.5 57t50.5 51q65 48 113 48h341l78 167h-626l-18 149h1440zM1085 1193
h-295l-109 -234q-31 -64 -112 -75h-320q-35 0 -70 -23.5t-53 -61.5t-8 -77q6 -20 17 -35t30 -24q40 -17 104 -17q15 0 32 1t37 3q34 3 62.5 5t52.5 2q52 0 72 -10q21 -13 27 -55q3 -43 -14 -77q-58 -34 -86 -25q-77 24 -139 24q-8 0 -17.5 -0.5t-19.5 -1.5h2
q-69 -15 -132 -62q-72 -53 -97 -117q-24 -52 14 -96h-1q36 -36 84 -36q168 0 602 270z" />
    <glyph glyph-name="dv_d_c" horiz-adv-x="1559" 
d="M1755 1193h-195l-556 -1193l-123 85l104 223q-42 -25 -74.5 -43.5t-58.5 -34.5q-44 -25 -69.5 -39.5t-30.5 -17.5q-160 -83 -287 -83q-84 0 -155 76q-72 80 -68 185q-92 -50 -183.5 -99t-183.5 -98l-70 98l618 325q-146 143 -89 293q12 31 34 58t52 50q65 48 114 48h342
l78 167h-805l-5 149h1607zM1398 1193h-296l-109 -234q-30 -64 -113 -75h-318q-35 0 -70 -23.5t-53 -61.5q-18 -37 -7 -77q6 -20 17 -35t29 -24q39 -17 104 -17q14 0 32 1t37 3q30 3 58 5t49 2q46 0 68 -10q21 -12 27 -54q6 -40 -16 -76q-53 -36 -88 -27q-23 8 -50 11t-58 3
q-18 0 -37 -1t-39 -3h2q-148 -33 -205 -167q-24 -52 14 -96h-1q36 -36 85 -36q85 0 236 70t370 210z" />
    <glyph glyph-name="dv_c_c" horiz-adv-x="1360" 
d="M1443 1193h-198l-561 -1203l-117 96l64 138q-17 -8 -38 -16.5t-38 -16.5l-57 -24q-132 -49 -231 -49q-143 0 -210 82q-66 83 -7 211q11 22 31.5 51.5t60.5 73.5q-54 -2 -110 -4t-110 -4l-5 144h297q-11 29 -8 65.5t22 75.5q17 36 75 102q-59 -4 -118 -7t-116 -7l-13 143
h343q80 8 136.5 12t80.5 4h266q39 -100 23 -134q-48 -1 -102 -1.5t-104 -0.5q-64 -3 -117.5 -11.5t-93.5 -20.5q-48 -17 -83 -45.5t-52 -65.5q-37 -79 17 -106q26 5 77 7t132 2q46 0 77.5 -1t48.5 -4q4 -19 8 -47.5t9 -68.5h-1q2 -2 -0.5 -10.5t-6.5 -16.5q-51 7 -94.5 10.5
t-81.5 3.5q-290 0 -386 -209q-26 -54 -1 -93q25 -40 89 -40q27 0 70 11.5t101 33.5h-1q78 30 157 72t157 95l361 773h-1052l-5 149h1411z" />
    <glyph glyph-name="dv_d_b" horiz-adv-x="1010" 
d="M86 318q-149 -80 -191 -172q-30 -62 2 -95q30 -34 98 -34q20 0 54.5 9.5t79.5 26.5zM412 259q55 115 -83 123q-26 1 -62.5 -6.5t-92.5 -26.5q11 -67 21.5 -128.5t21.5 -128.5q141 55 195 167zM646 -22q-23 -83 -166 -163l-132 111q143 39 165 85q31 67 22 127
q-1 14 -7 34.5t-16 48.5q-56 -85 -226 -188q-203 -123 -322 -123q-68 0 -111.5 19.5t-63 55.5t-14.5 87t34 114q50 108 186 193q45 26 88.5 45t85.5 32q-150 141 -62 333q51 108 165 182q115 73 240 73h268l70 149h-697l-16 149h1085l14 -149h-235l-105 -225
q-38 -63 -88 -63h-254q-258 0 -353 -202q-17 -37 -15 -71.5t22 -66.5q37 -57 120 -82q33 -9 82 -9h13h10t10.5 0.5t15.5 1.5q-1 19 0.5 45t5.5 71q3 14 12 26.5t22.5 21.5t28.5 14t30 5q2 0 6 -1l8 -2q52 -17 94 -50q66 -54 43 -103q-11 -23 -49.5 -44.5t-96.5 -37.5
q116 -333 83 -443z" />
    <glyph glyph-name="dv_h_rikaar" horiz-adv-x="991" 
d="M1161 1193h-225l-120 -256q-30 -65 -103 -65h-407q-128 0 -178 -107q-16 -36 4 -70q8 -17 19.5 -26t23.5 -12q95 36 180 54.5t162 18.5q87 0 127 -100q17 -44 20 -82t-11 -69q-8 -16 -21 -26q-18 -14 -48 -32t-65 -38q-45 -26 -85 -50t-66 -41q-31 -20 -42 -43
q-12 -25 6 -39q7 -7 18 -9.5t25 -2.5q25 0 58 9q30 8 64 21t73 33l18 -128q-60 -23 -107 -33t-85 -10q-103 0 -164 85q-55 77 -28 132q21 47 76 78l214 119q36 15 50 47q29 59 -71 59q-125 0 -286 -98q-158 -99 -204 -201q-15 -32 -16 -66.5t10 -69.5q14 -36 36.5 -69.5
t55.5 -59.5q21 -19 58.5 -41t89.5 -50q29 -17 63.5 -36t65.5 -35l-81 -86q-112 66 -201 127.5t-141 108.5q-70 69 -87.5 153.5t28.5 181.5q28 60 77.5 115t121.5 103q-16 54 -24.5 83t-9.5 32q-13 82 18 151q35 74 125 123q38 20 75 31t72 11h388l82 175h-685l-13 149h1061z
" />
    <glyph glyph-name="dv_d_dh_v" horiz-adv-x="1522" 
d="M256 567q20 45 6.5 73t-60.5 28q-33 0 -73 -31q-43 -33 -66 -80q-8 -17 -7.5 -35.5t10.5 -38.5q18 -41 61 -52q16 14 32 29.5t33 32.5q52 49 64 74zM965 228q-7 0 -11 -1q2 8 2 10zM931 163q18 39 23 64q-175 -13 -294 -93q-96 -66 -129 -137q-25 -53 -2 -100
q21 -32 70 -32q59 0 131 49q122 83 201 249zM1240 -33q-4 -20 -21.5 -44.5t-48.5 -51.5q-28 -26 -54.5 -44t-43.5 -26l-129 110q27 9 50 17t35 13q54 26 69 55q23 42 -57 197q-5 -16 -14 -36q-37 -76 -98 -160q-61 -85 -113 -124q-71 -55 -138 -83.5t-127 -28.5
q-108 0 -157 93q-28 53 17 151q5 12 11 23t14 25q-14 -2 -29.5 -3.5t-27.5 -1.5q-120 0 -169 58q-48 61 -6 151q9 20 22 40t29 38q-54 -9 -107 -9q-139 0 -204 56q-75 68 -20 187q45 96 137 154q41 24 82 36.5t86 12.5q51 0 81 -17.5t44 -51.5l1 1q12 -29 8 -63.5t-22 -73.5
q-17 -35 -49.5 -71t-92.5 -79q17 -5 48 -5q10 0 19 0.5t23 1.5q23 14 74 31t127 37l86 -92q-214 -74 -263 -179q-20 -41 8 -64h-1q28 -19 76 -17q55 1 184 65l-11 -11q-13 -28 -4.5 -24.5t29.5 29.5l-14 13q12 9 32.5 20.5t50.5 28.5l-2 -4l4 3h-2l1 1q1 1 1.5 1t1.5 2
q32 22 69.5 52t79.5 70q-73 2 -138 28.5t-120 74.5q-74 66 -88.5 150t33.5 186q53 116 184 196q117 67 218 67h283l54 115h-1189l-12 149h1582l2 -149h-234l-96 -205q-27 -57 -78 -57h-317q-92 0 -175 -54q-79 -51 -120 -138q-57 -123 21 -191q64 -61 187 -61q24 0 47 3
q-1 14 -2 24.5t-2 24.5q-3 46 8 70q31 61 84 61q20 0 33 -7q154 -73 121 -153q-5 -16 -25.5 -34t-53.5 -38q33 -55 60.5 -101t50.5 -89q117 -215 107 -281z" />
    <glyph glyph-name="dv_k_t" horiz-adv-x="1653" 
d="M1719 1193h-647l-183 -393q91 48 165 73t127 25q132 0 158 -126q21 -111 -45 -253q-66 -139 -323 -389l-90 108q152 139 237.5 230t107.5 137q69 149 -86 149q-32 0 -115.5 -30.5t-214.5 -91.5l-293 -632l-137 66l337 714q-20 5 -64.5 7.5t-115.5 2.5q-135 0 -253 -81
q-120 -81 -171 -192q-51 -109 1 -247l1 1q11 -27 34.5 -69.5t60.5 -102.5l-117 -88q-35 54 -60.5 120.5t-42.5 140.5q-20 96 -17 182t32 149q23 48 59.5 90t98.5 84h-203l-25 149h848l125 267h-904l-16 149h1722z" />
    <glyph glyph-name="dv_s_t_r" horiz-adv-x="1573" 
d="M1675 1193h-217l-557 -1193l-119 90l174 372q-104 -62 -212 -125t-211 -124q-4 2 -10 6.5t-11 6.5l-52 92l530 288l12 26q-33 0 -96 -12.5t-142 -36.5q-192 -59 -359 -138l-35 18l-51 82l8 19q130 60 279.5 98t321.5 55q-40 45 -95.5 66t-126.5 21q-145 0 -408 -95
q-23 -29 -44.5 -50.5t-44.5 -38.5v1q-60 -45 -137 -82q38 -98 145 -255h-1q18 -25 36 -49.5t35 -50.5q18 -25 39 -53.5t39 -53.5l-109 -77q-74 104 -139.5 194.5t-113.5 183.5q-38 74 -62.5 149.5t-36.5 154.5q-10 21 4 51q7 15 18.5 28t25 23t28 14.5t27.5 3.5
q17 -4 37.5 -8t48.5 -10q14 -3 30.5 -5.5t33.5 -6.5q9 -2 35 33q31 42 51 88q47 100 78 175t46 125h-364l-21 149h1676zM1068 707l227 486h-778q-19 -57 -50.5 -137t-77.5 -180q95 32 168.5 48t122.5 16q230 0 342 -202z" />
    <glyph glyph-name="dv_h_nn" horiz-adv-x="1206" 
d="M1400 1193h-314q-27 -58 -54 -117.5t-53 -116.5q-31 -49 -80 -62v1q-9 -3 -29.5 -4t-52.5 -1h-408q-67 0 -126 -38q-47 -33 -70 -80q-13 -29 -7 -74q8 -33 28 -40q20 7 48 15.5t66 18.5q133 37 270 37q166 0 255 -59q107 -72 43 -208l-252 -541q-6 3 -17.5 10t-26.5 16
t-31.5 19.5t-32.5 21.5l224 480q35 77 3 111h1q-6 6 -17.5 12.5t-31.5 14.5l-172 -370q-22 -47 -49.5 -84.5t-58.5 -64t-64 -41t-64 -15.5q-104 -4 -170 86q-63 92 -18 189l98 211q-178 -81 -265 -265q-151 -326 364 -533l-88 -71q-128 62 -219.5 126t-142.5 124
q-66 87 -77.5 190t41.5 216q41 88 113 165t171 141q-23 75 -23 138t24 114q40 87 133 135q34 17 65.5 25.5t61.5 8.5h472l74 159h-825l-23 149h1286zM601 627q-36 1 -101 -9q-32 -5 -54 -9.5t-31 -9.5l-168 -360q-20 -43 -4 -74q16 -33 51 -33q76 0 136 129z" />
    <glyph glyph-name="dv_h_l" horiz-adv-x="1278" 
d="M1488 1193h-311l-93 -198q-43 -94 -112 -94h-535q-156 0 -205 -102q-10 -21 -2 -57h-1q5 -14 10.5 -26.5t11.5 -20.5q32 7 64 15.5t64 16.5q132 27 264 27q204 0 278 -134q36 -64 34 -150t-36 -180q-14 -35 -43 -74.5t-74 -81.5q-7 -6 -46 -39.5t-98 -83.5l-73 95
q74 57 150 130q81 79 106 125q6 25 -32 25q-53 0 -105 -26q-20 -9 -81 -56t-164 -131l-76 77q16 14 43 36.5t65 56.5q-39 37 -76 37q-19 0 -42 -10.5t-49 -32.5q-57 -44 -84 -105q-91 -194 275 -341l-9 -22l-65 -56q-432 221 -323 456q35 76 130 153q97 76 178 76
q32 0 67 -23t77 -72q110 75 190 75q43 0 94 -21q-14 84 -85 127.5t-203 43.5q-191 0 -361 -106q-173 -108 -249 -273q-65 -140 11 -276q100 -174 439 -313l-72 -69q-103 33 -193.5 85.5t-169.5 119.5q-127 115 -165.5 245t24.5 266q64 138 195 248q35 27 67 50.5t68 50.5
q-7 21 -13.5 41t-12.5 40q-18 74 13 138q33 73 108 122q38 26 77 37.5t80 11.5h545l69 147h-895l-16 149h1364z" />
    <glyph glyph-name="dv_k_ss" horiz-adv-x="1430" 
d="M986 751q-71 -41 -169 -72q-61 -20 -113.5 -29t-100.5 -9q-58 0 -151 53q-24 15 -45.5 28.5t-47.5 27.5q-103 -51 -154.5 -77t-58.5 -31q-62 -37 -103 -80t-64 -91q-40 -84 7 -129q21 -21 53.5 -30.5t75.5 -9.5q31 0 57 4t53 14q-1 6 -0.5 20.5t0.5 38.5q0 27 2.5 44.5
t6.5 25.5q28 63 111 63q24 0 44.5 -9.5t39.5 -26.5q22 -22 35.5 -36t16.5 -22q16 -29 1 -62q-4 -7 -8 -14.5t-10 -15.5q-26 -39 -119 -99q1 -15 15.5 -91.5t41.5 -218.5l-137 -67l-13 333q-18 -3 -36.5 -4t-37.5 -1q-138 0 -224 62q-69 50 -100 133q-15 45 -15 95.5t20 92.5
q42 89 212 182q24 12 45 22t40.5 19.5t40.5 19t45 20.5q-198 124 -128 273q54 116 191 189l-1 -1q108 59 191 59q51 0 94.5 -23t79.5 -68q41 -54 51.5 -113.5t-15.5 -116.5q-42 -88 -252 -220q25 -12 70 -24q29 -8 55 -12.5t44 -4.5q58 0 203 55q60 23 121 48.5t118 53.5z
M570 1065q74 158 -59 158q-65 0 -143 -54q-78 -53 -111 -124q-18 -39 -3 -83t69 -96q22 13 45 26l46 26q15 8 28 17q46 31 79.5 64.5t48.5 65.5zM1592 1193h-260l-557 -1193l-128 62l528 1131h-199l-25 149h618z" />
    <glyph glyph-name="dv_k_halant" horiz-adv-x="1565" 
d="M1676 1193h-701l-193 -413q20 9 42.5 20t43.5 22q88 41 142 47q8 1 17 1.5t19 0.5q131 0 154 -137q20 -130 -48 -264q-88 -173 -300 -353l-75 130q45 42 94 87.5t95 87.5l-1 -1q94 96 129 170q65 138 -82 134q-30 0 -151 -57q-60 -27 -103 -49t-69 -39l-279 -599
l-115 111l171 366q-29 -13 -66.5 -30.5t-65.5 -31.5q-60 -24 -111 -36t-95 -14q-130 -2 -198 101h1q-77 113 -8 260q55 116 167 191q126 84 285 84q66 0 115 -20.5t81 -56.5q12 -17 26 -45.5t25 -66.5l187 400h-787l-21 149h1661zM567 653q-2 3 -2 10q5 4 12 8zM314 529
q41 19 104.5 53t146.5 81q-58 175 -244 175q-83 0 -162 -45q-98 -54 -144 -156q-37 -78 1 -124q29 -39 94 -39q40 0 92 14.5t112 40.5zM748 -495q-13 -8 -61 -45q-73 134 -113.5 207t-43.5 78h1q-22 31 -61.5 51.5t-90.5 31.5q-15 3 -30 3q-18 0 -37 -3h1q-16 -4 -37 -8
t-38 -7l-37 153q-9 8 -3 19q9 19 43 21q8 1 13.5 1.5t10.5 0.5q22 5 44 5q23 0 51.5 -5t59.5 -13q58 -17 107 -61t86 -115q11 -20 46.5 -93.5t96.5 -202.5z" />
    <glyph glyph-name="dv_kh_halant" horiz-adv-x="1577" 
d="M1654 1193h-211l-560 -1201l-112 112l191 409q-215 -114 -300 -107q-127 11 -182 108v-1q-64 101 -4 232q30 66 81 121t115 93q54 30 111.5 47.5t111.5 17.5q106 0 163 -60q17 -17 32.5 -50t27.5 -71l163 350h-739l-192 -412q-20 -42 -46 -78t-58 -67q-14 -14 -46 -37
t-81 -58q35 -64 128.5 -181t250.5 -291q-11 -10 -29 -26t-32 -30q-5 -5 -17.5 -17t-19.5 -18q-45 54 -117.5 143.5t-169.5 207.5q-37 46 -71 96t-60 99q-81 150 -49 221q20 42 48 63.5t60 16.5q26 -3 52 -16.5t53 -35.5q3 -3 9 -3q33 0 99 143l131 280h-361q0 14 -0.5 32.5
t-0.5 38.5v40.5v37.5h1627zM1067 695q-2 4 -1 7q4 4 7 6zM877 598q139 64 189 104q-11 83 -65 130.5t-138 47.5q-90 0 -179 -58q-87 -57 -122 -135q-29 -66 -6 -105.5t95 -52.5q32 -4 89 13.5t137 55.5zM1201 -496q-11 -7 -26 -18t-34 -26q-75 138 -113.5 209t-42.5 76
q-22 30 -61.5 51t-90.5 32q-14 3 -30 3q-17 0 -36 -3l2 1q-4 -1 -11 -2.5t-9 -2.5q-27 -6 -58 -11l-35 153q-10 8 -4 19q9 19 43 21q8 1 14 1.5t11 0.5q10 2 20.5 3.5t23.5 1.5q23 0 51 -5t59 -13q58 -17 107.5 -61t86.5 -115q11 -20 46.5 -93.5t95.5 -202.5z" />
    <glyph glyph-name="dv_g_halant" horiz-adv-x="1229" 
d="M1295 1193h-247l-567 -1215l-121 78l530 1137h-377l-268 -574q-32 -70 -80 -118l1 1q-60 -62 -114 -62q-53 0 -93 117q-35 112 -19 146q37 82 120 82h8t8 -1q2 0 3.5 -0.5t3.5 -0.5h22q54 0 76 48l169 362q-85 0 -172 -1t-172 -1l-17 151h1294zM834 -496q-11 -7 -26 -18
t-34 -26q-73 134 -113.5 207t-43.5 78h1q-22 31 -62 51.5t-91 31.5q-15 3 -30 3q-17 0 -35 -3l2 1q-4 -1 -11 -2.5t-9 -2.5q-27 -6 -58 -11l-35 153q-6 4 -6.5 9t1.5 10q9 19 44 21q8 1 14 1.5t11 0.5q10 2 20.5 3.5t23.5 1.5q47 0 109 -18q119 -33 195 -176
q11 -20 46.5 -93.5t95.5 -202.5z" />
    <glyph glyph-name="dv_gh_halant" horiz-adv-x="1237" 
d="M1319 1193h-235l-567 -1215l-105 110l195 420q-41 -21 -81.5 -43t-79.5 -44q-148 -68 -259 -68q-74 0 -130 23.5t-93 68.5q-38 48 -44 104.5t23 119.5q40 84 116 142q46 35 132 73q-59 48 -88.5 89t-29.5 79q0 36 19 78q8 15 16 29.5t22 33.5h-108l-17 149h1283z
M925 1193h-558q-33 -13 -72 -50q-41 -39 -50 -76q-12 -45 -0.5 -81.5t49.5 -65.5q183 0 226 -58q4 -43 1.5 -72.5t-7.5 -46.5q-14 -30 -38 -33q-25 8 -73.5 19t-110.5 19q-35 1 -72.5 -10.5t-75.5 -33.5q-75 -45 -98 -102q-24 -64 3 -109q15 -20 42.5 -31t64.5 -9
q44 2 112 27t162 74l-2 -1q70 38 134.5 74t132.5 74zM827 -495q-7 -5 -22 -16t-39 -29q-72 134 -112.5 207t-43.5 78h1q-22 31 -61.5 51.5t-90.5 31.5q-15 3 -31 3q-17 0 -36 -3h1l-13 -3q-14 -3 -31.5 -6.5t-30.5 -5.5l-37 153q-9 8 -3 19q9 20 43 21q8 1 13.5 1.5
t10.5 0.5q22 5 44 5q23 0 51.5 -5t58.5 -13q58 -17 107.5 -61t86.5 -115q11 -20 46.5 -93.5t95.5 -202.5z" />
    <glyph glyph-name="dv_nga_halant" horiz-adv-x="1352" 
d="M1229 759l-216 -148l-85 154l222 143zM1537 1193h-466l-96 -206q-20 -55 -54 -84t-79 -29h-369q-45 0 -104 -40q-57 -40 -80 -91q-60 -128 52 -128q7 0 31 3t65 10q49 8 99 14t93 10q59 3 104.5 -27.5t66.5 -83.5q33 -106 -16 -212q-32 -67 -88.5 -121.5t-137.5 -97.5
q-137 -72 -254 -70q-112 2 -202 54t-159 155q-33 49 -128 275l100 58q84 -223 132 -275q95 -119 292 -120q93 0 188 53q53 30 92 69.5t66 87.5q24 50 22.5 76.5t-43.5 26.5q-12 -2 -23.5 -2.5t-25.5 -2.5q-15 -2 -33 -4t-40 -4q-129 -12 -211 -12q-18 0 -34.5 0.5t-29.5 1.5
q-72 8 -100 130q-30 121 23 230q21 44 53 78t74 58q37 21 77.5 33t81.5 12h354l82 175h-797l-13 149h1421zM796 -496q-11 -7 -26.5 -18t-33.5 -26q-150 274 -156 285q-22 30 -61.5 51t-90.5 32q-15 3 -30 3q-18 0 -36 -3l2 1q-4 -1 -11 -2.5t-9 -2.5q-14 -3 -28.5 -6
t-29.5 -5l-35 153q-10 8 -4 19q9 19 43 21q8 1 14 1.5t11 0.5q20 5 44 5q23 0 51 -5t59 -13q58 -17 107.5 -61t85.5 -115q24 -41 143 -296z" />
    <glyph glyph-name="dv_c_halant" horiz-adv-x="1343" 
d="M1428 1193h-260l-567 -1215l-106 110l165 354q-58 -30 -115 -55.5t-109.5 -44t-99 -28.5t-82.5 -10q-138 0 -207 94q-69 97 -13 217q21 45 55.5 89t81.5 84q-60 -1 -123 -2t-121 -2l-12 150h834l20 -130l-229 -2q-270 -2 -389 -257q-64 -138 101 -138q41 0 110.5 27
t169.5 83q74 40 129 74t89 60q64 137 126.5 270t127.5 272h-1006l-23 149h1430zM985 -495q-7 -5 -22 -16t-39 -29q-149 274 -156 285q-22 30 -61 51t-90 32q-15 3 -31 3q-17 0 -36 -3h1l-13 -3q-14 -3 -31.5 -6.5t-30.5 -5.5l-37 153q-9 8 -3 19q9 20 43 21q8 1 13.5 1.5
t10.5 0.5q22 5 44 5q23 0 51.5 -5t58.5 -13q58 -17 107.5 -61t86.5 -115q11 -20 46.5 -93.5t95.5 -202.5z" />
    <glyph glyph-name="dv_ch_halant" horiz-adv-x="1370" 
d="M1505 1193h-373l-76 -162q73 -51 97 -145q21 -112 -45 -244q-46 -91 -130.5 -182.5t-207.5 -186.5q-128 -98 -304 -169q-88 -35 -159 -51.5t-127 -16.5q-163 0 -256 94q-93 96 -37 217q20 43 64.5 87.5t101.5 82.5q-181 122 -91 268q123 203 346 215q13 1 26 1.5t25 0.5
q48 0 80.5 -6.5t54.5 -19.5q8 -27 11 -63.5t3 -82.5q-66 12 -113.5 18t-70.5 7q-94 -7 -161 -45.5t-99 -108.5q-23 -51 31 -87h-1q45 -24 94 -24q22 4 47.5 8t49.5 7t45 4.5t36 1.5q49 0 62 -14l17 -120l-22 -31l-166 4q-106 -22 -173.5 -68.5t-91.5 -114.5
q-38 -114 136 -114q72 0 153.5 20.5t166.5 55.5q77 35 155 82t150 102q-32 33 -63.5 64.5l-63.5 63.5q-88 122 -32 246q83 178 315 261l68 145h-907l-16 149h1435zM1010 723q17 40 26.5 74.5t9.5 63.5v-1q-3 75 -73 75q-58 0 -131 -59q-72 -59 -95 -118q-32 -80 -11.5 -148
t96.5 -128q121 116 178 241zM659 -496q-11 -7 -26.5 -18t-33.5 -26q-75 138 -114 209t-43 76q-22 30 -61 51t-90 32q-15 3 -30 3q-18 0 -37 -3l2 1q-4 -1 -10.5 -2.5t-8.5 -2.5q-14 -3 -28.5 -6t-29.5 -5l-36 153q-9 8 -3 19q9 19 43 21q8 1 13.5 1.5t10.5 0.5q22 5 44 5
q23 0 51.5 -5t59.5 -13q58 -17 107 -61t86 -115q11 -20 46.5 -93.5t96.5 -202.5z" />
    <glyph glyph-name="dv_j_halant" horiz-adv-x="1339" 
d="M1425 1193h-218l-567 -1215l-112 100l337 722h-353q17 -41 28.5 -71.5t17.5 -50.5q25 -110 -19 -201q-26 -54 -66.5 -94t-95.5 -69q-90 -45 -190 -45q-272 0 -272 567l104 45q-9 -143 20 -254q48 -193 196 -197q45 -2 97 31q63 39 90 98q50 107 -18 215l1 -1
q-15 15 -32 34.5t-35 39.5t-35.5 39.5t-31.5 35.5q12 0 30.5 9t35.5 27h601l110 235h-1018l-10 149h1392zM1035 -495q-10 -6 -24.5 -17t-35.5 -28q-73 134 -114 207t-43 78h1q-22 31 -62 51.5t-91 31.5q-15 3 -30 3q-18 0 -36 -3h1q-17 -4 -38 -8t-38 -7l-36 153
q-10 8 -4 19q9 19 43 21q8 1 14 1.5t11 0.5q20 5 45 5q47 0 109 -18q120 -33 194 -176q11 -20 47 -93.5t96 -202.5z" />
    <glyph glyph-name="dv_jh_halant" horiz-adv-x="1346" 
d="M1534 1193h-227l-569 -1219l-105 110l229 492q-32 -7 -69.5 -11t-77.5 -6q-74 -3 -128 16q2 -20 1.5 -42t-2.5 -42q0 -59 -19 -100q-46 -97 -172 -180q-67 -43 -140 -71.5t-155 -41.5q20 -54 58.5 -132.5t93.5 -184.5l-112 -77q-54 162 -92.5 254.5t-65.5 117.5
q-221 18 -152 188q15 38 55 72h-1q44 35 92 35q45 0 63 -53q6 -22 11.5 -42t11.5 -43q69 3 133.5 22t127.5 54q113 66 154 145q17 32 9.5 58.5t-47.5 29.5q-38 -9 -85.5 -20t-86.5 -20q-17 -4 -40 -4q-35 0 -64 13q-76 33 -97 152q-20 121 20 215q27 63 102 105
q83 47 186 47l246 2q5 2 8.5 3t10.5 5l72 153h-582l-21 149h1415zM1150 1193h-293l-97 -207q-47 -102 -116 -102h-300q-49 0 -105 -38q-56 -39 -69 -78q-25 -68 15 -100q28 -22 81 -16h-1q39 8 78 17t79 17q8 1 17 1h19q35 0 65 -7t55 -23q49 0 94 5.5t84 16.5
q57 14 101.5 28.5t79.5 29.5zM1101 -495q-8 -5 -23 -16t-39 -29q-149 274 -156 285q-22 30 -61 51t-90 32q-15 3 -31 3q-17 0 -36 -3h1l-12 -3q-14 -3 -32 -6.5t-31 -5.5l-37 153q-9 8 -3 19q9 20 43 21q8 1 13.5 1.5t10.5 0.5q22 5 44 5q23 0 51.5 -5t59.5 -13
q58 -17 107 -61t86 -115q11 -20 46.5 -93.5t96.5 -202.5z" />
    <glyph glyph-name="dv_nya_halant" horiz-adv-x="1362" 
d="M1497 1193h-203l-567 -1216l-112 105l225 487q-50 -3 -96.5 -7t-97.5 -8q-170 -234 -444 -234q-254 0 -336 354l96 55q22 -65 44 -111t45 -73q32 -41 76 -61t98 -20q112 0 224 80q102 72 152 168q26 54 12 101q-15 46 -63 46q-29 0 -263 -146l-71 134q157 115 311 115
q151 0 193 -109q27 -74 3 -145q42 5 88.5 11t106.5 17l213 457h-1031l-14 149h1395zM1108 -495q-13 -8 -61 -45q-150 274 -156 285q-22 30 -61.5 51t-90.5 32q-15 3 -30 3q-18 0 -36 -3h1l-13 -3q-14 -3 -31.5 -6.5t-31.5 -5.5l-36 153q-10 8 -4 19q9 19 43 21q8 1 14 1.5
t11 0.5q20 5 44 5q23 0 51 -5t59 -13q58 -17 107.5 -61t85.5 -115q24 -41 143 -296z" />
    <glyph glyph-name="dv_tt_halant" horiz-adv-x="1087" 
d="M1219 1193h-303l-204 -437l-67 -31l-419 -93q-35 -8 -70.5 -27t-67.5 -48q-67 -60 -85 -120q-25 -78 3 -135q40 -76 178 -78q23 -1 81 12.5t155 43.5h-1q79 25 144 48t115 42l2 -146q-280 -136 -468 -132q-182 4 -273 115q-118 151 -37 324q86 185 252 238l421 93
q8 4 13 7t13 8l148 316h-683l-18 149h1162zM587 -435q-10 -6 -24.5 -17t-35.5 -28q-73 134 -113.5 207t-43.5 78h1q-22 31 -62 51.5t-91 31.5q-15 3 -30 3q-17 0 -35 -3l2 1q-4 -1 -11 -2.5t-9 -2.5q-14 -3 -28.5 -6t-29.5 -5l-35 153q-6 4 -7 9t1 10q10 19 44 21
q8 1 14 1.5t11 0.5q22 5 45 5q47 0 109 -18q119 -33 195 -176q11 -20 46.5 -93.5t95.5 -202.5z" />
    <glyph glyph-name="dv_tth_halant" horiz-adv-x="1167" 
d="M1308 1193h-360q1 -20 2 -40.5t2 -41.5q1 -26 -7 -57t-24 -63q-54 -106 -204 -206q38 -19 65.5 -43.5t48.5 -56.5q63 -107 0 -242q-70 -150 -255 -266q-185 -115 -346 -115q-213 0 -315 151q-103 150 -14 342q62 132 191 204q49 26 111.5 46.5t139.5 32.5q60 9 119.5 17
t120.5 16q123 23 195 163q26 51 29 90t-15 69h-713l-20 149h1238zM697 487q94 201 -97 242q-77 -11 -152 -23t-152 -23h1q-230 -54 -308 -224q-52 -108 26 -186q68 -74 181 -74q135 0 284 78q80 42 133.5 94.5t83.5 115.5zM614 -465q-9 -6 -23.5 -17t-36.5 -28
q-73 134 -113.5 207t-43.5 78h1q-22 31 -61.5 51.5t-90.5 31.5q-15 3 -31 3q-17 0 -36 -3h1q-16 -4 -37 -8t-38 -7l-36 153q-6 4 -6.5 9t1.5 10q11 20 44 21q8 1 13.5 1.5t10.5 0.5q22 5 45 5q49 0 109 -18q119 -33 195 -176q11 -20 46.5 -93.5t95.5 -202.5z" />
    <glyph glyph-name="dv_dd_halant" horiz-adv-x="1190" 
d="M1362 1193h-288l-137 -294l-32 -21h-392q-144 0 -211 -115q-25 -45 -22 -89h-1q5 -43 33 -60q64 11 145 22t184 25q58 7 104.5 -18t76.5 -76q61 -105 5 -228q-54 -116 -188 -200q-147 -93 -327 -93q-107 0 -198.5 52t-160.5 147q-21 31 -41 67t-36.5 74t-28.5 76.5
t-18 74.5l97 49q3 -11 7.5 -25.5t7.5 -25.5q8 -23 15.5 -46.5t13.5 -48.5h-1q20 -51 47.5 -93t61.5 -74q48 -36 114.5 -58t141.5 -22q111 0 226 59q117 59 161 155q46 97 -44 97q-4 0 -15.5 -0.5t-34.5 -2.5t-58 -7t-85 -15q-54 -11 -90.5 -16.5t-59.5 -6.5
q-124 -8 -164 139q-33 133 24 256q19 39 50.5 70.5t79.5 56.5l-2 -1q81 45 157 45h367l80 171h-809l-27 149h1249zM686 -475q-10 -6 -24 -17t-36 -28q-72 134 -113 207t-45 78h1q-22 31 -61 51.5t-90 31.5q-15 3 -31 3q-17 0 -36 -3h1q-17 -4 -38 -8t-37 -7l-38 153
q-8 8 -3 19q9 19 44 21q7 1 13 1.5t11 0.5q20 5 44 5q48 0 110 -18q118 -33 194 -176q24 -41 143 -296z" />
    <glyph glyph-name="dv_ddh_halant" horiz-adv-x="1165" 
d="M1286 1193h-276l-162 -347h-339q-358 0 -496 -293q-45 -99 -23 -195q29 -116 169 -156q9 115 59 221q51 111 160 186q112 75 240 69q106 -6 136 -106q31 -96 -38 -245q-55 -117 -193 -201q-134 -82 -273 -82q-239 0 -336 234q-37 91 -34 198q3 51 13 97t27 84
q162 338 607 338h228l93 198h-800l-23 149h1254zM676 439q4 35 -25 63q-28 28 -71 28q-71 0 -146 -47q-37 -23 -66.5 -52.5t-52.5 -63.5q-18 -28 -36 -66q-11 -23 -21.5 -49t-21.5 -56q10 -1 18.5 -1.5t18.5 -0.5q41 0 79 8t76 23q187 72 234 173q5 9 8 19.5t6 22.5v-1z
M558 -495q-13 -8 -61 -45q-75 138 -114 209t-43 76q-22 30 -61 51t-90 32q-15 3 -30 3q-18 0 -37 -3h1l-12 -3q-14 -3 -31.5 -6.5t-31.5 -5.5l-36 153q-10 8 -4 19q9 19 43 21q8 1 13.5 1.5t10.5 0.5q22 5 44 5q23 0 51.5 -5t59.5 -13q58 -17 107 -61t86 -115
q11 -20 46.5 -93.5t96.5 -202.5z" />
    <glyph glyph-name="dv_nn_halant" horiz-adv-x="1370" 
d="M1428 1193h-201l-568 -1218l-121 83l529 1135h-263l-274 -588q-35 -72 -134 -136q-114 -71 -224 -67h1q-119 5 -189 114q-70 111 -19 221l213 456h-179l-11 149h1428zM638 1193h-292l-248 -532q-34 -72 -22 -100q12 -35 92 -41q64 -6 135 48q33 26 56 51.5t34 49.5z
M1037 -495q-9 -6 -23.5 -17t-36.5 -28q-72 134 -113 207t-44 78h1q-22 31 -61.5 51.5t-90.5 31.5q-15 3 -31 3q-17 0 -36 -3h1q-16 -4 -37 -8t-38 -7l-36 153q-5 4 -5.5 9t1.5 10q9 20 43 21q8 1 13.5 1.5t10.5 0.5q22 5 45 5q48 0 110 -18q118 -33 194 -176
q11 -20 46.5 -93.5t95.5 -202.5z" />
    <glyph glyph-name="dv_t_halant" horiz-adv-x="1108" 
d="M1209 1193h-206l-570 -1222l-115 97l341 730h-317q-72 0 -148 -54q-90 -65 -150 -191q-47 -103 -13 -243l1 1q14 -58 30 -120t31 -119l-111 -59q-46 118 -70 261q-36 240 29 379q76 162 233 243q124 64 265 64h297l109 233h-778l-16 149h1145zM820 -495q-8 -5 -22.5 -16
t-38.5 -29q-73 134 -113 207t-43 78h1q-22 31 -61.5 51.5t-91.5 31.5q-14 3 -30 3q-17 0 -36 -3h1q-17 -4 -37.5 -8t-37.5 -7l-37 153q-10 8 -4 19q9 19 44 21q7 1 13 1.5t11 0.5q10 2 20.5 3.5t23.5 1.5q23 0 51 -5t59 -13q58 -17 107.5 -61t86.5 -115q11 -20 46.5 -93.5
t95.5 -202.5z" />
    <glyph glyph-name="dv_th_halant" horiz-adv-x="1317" 
d="M1396 1193h-202l-569 -1220l-118 107l180 386q-55 -30 -91.5 -49t-59.5 -29q-137 -58 -244 -58q-240 0 -370 295l12 25q40 13 92.5 33.5t112.5 46.5q48 21 89 40t68 34q-67 45 -104.5 71.5t-42.5 30.5q-73 78 -13 206q25 54 68 100t98 80q116 72 217 70q53 -1 97.5 -21.5
t76.5 -57.5q41 -50 44.5 -113.5t-31.5 -141.5q-73 -157 -229 -257q-75 -48 -161 -94.5t-188 -94.5q1 -132 135 -139q49 -3 131 26t187 85q97 52 150.5 87.5t61.5 52.5l233 499h-140l-39 149h538zM582 1070q15 32 20.5 59.5t3.5 51.5q-1 29 -17.5 45.5t-44.5 21.5
q-61 9 -142 -47q-80 -57 -117 -136q-49 -107 117 -198q57 38 105.5 91.5t74.5 111.5zM997 -495q-13 -8 -61 -45q-150 274 -156 285q-22 30 -61.5 51t-90.5 32q-15 3 -30 3q-18 0 -36 -3h1l-13 -3q-14 -3 -31.5 -6.5t-31.5 -5.5l-36 153q-10 8 -4 19q9 19 43 21q8 1 14 1.5
t11 0.5q20 5 44 5q23 0 51 -5t59 -13q58 -17 107.5 -61t86.5 -115q11 -20 46.5 -93.5t95.5 -202.5z" />
    <glyph glyph-name="dv_d_halant.001" horiz-adv-x="1071" 
d="M434 19q24 43 -84 162q-28 -6 -54.5 -8.5t-54.5 -2.5q-238 0 -322 176q-73 149 7 360q3 8 6.5 15.5t6.5 15.5q56 120 174 188q120 67 276 67h249l94 201h-701l-5 149h1154l7 -149h-294l-164 -351h-330q-176 0 -279 -96q-27 -24 -52.5 -61.5t-48.5 -87.5
q-102 -218 118 -290v1q30 -10 69 -10q26 0 51.5 2.5t52.5 9.5q-8 105 8 139q5 12 32 37v-1q30 31 73 31q26 0 45 -13h-1l80 -44q32 -21 42 -46t0 -51q-11 -26 -48.5 -61t-101.5 -75q20 -17 40 -35.5t34 -36.5q84 -97 71 -164l-1 1q-6 -41 -67 -96q-62 -55 -101 -69l-128 108
q29 11 48.5 18.5t32.5 13.5q25 12 42 25.5t24 27.5zM852 -553q-11 -7 -25 -18t-36 -28q-72 134 -113 207t-44 78h1q-22 31 -61.5 51.5t-90.5 31.5q-15 3 -31 3q-17 0 -35 -3h1q-17 -4 -38 -8t-38 -6l-37 152q-9 9 -4 20q9 18 44 20q7 1 13.5 1.5t11.5 0.5q18 5 44 5
q47 0 110 -18q117 -31 194 -176q11 -20 47 -93.5t96 -202.5z" />
    <glyph glyph-name="dv_dh_halant.001" horiz-adv-x="1382" 
d="M1416 1193h-244l-567 -1216l-116 109l175 376q-38 -20 -75 -39.5t-73 -38.5q-145 -68 -252 -77q-9 -1 -17.5 -1.5t-17.5 -0.5q-129 0 -210 102q-43 57 -51 111.5t17 108.5q62 135 240 204q-193 156 -119 314q60 125 175 188q40 20 81 31t83 11q114 0 140 -82
q10 -32 6 -69t-24 -79q-66 -145 -290 -209q61 -44 281 -44h42q10 -48 13.5 -82.5t-1.5 -57.5l-10 -8q-4 -3 -8 -6.5t-7 -6.5q-25 0 -60 1q-30 1 -74 3t-102 5q-71 -14 -139 -62q-75 -52 -103 -113q-12 -26 -9.5 -52.5t16.5 -51.5q36 -50 107 -43q91 8 223.5 70t313.5 179
l245 526h-276l-25 149h696zM468 1128q13 22 16.5 41.5t0.5 36.5q-9 39 -63 39q-48 0 -91 -29q-52 -34 -79 -96q-42 -92 0 -132q88 29 140.5 63.5t75.5 76.5zM996 -495q-10 -6 -24 -17t-36 -28q-73 134 -113.5 207t-43.5 78h1q-22 31 -62 51.5t-91 31.5q-14 3 -30 3
q-17 0 -36 -3h1q-17 -4 -38 -8t-38 -7l-36 153q-10 8 -4 19q9 19 43 21q8 1 14 1.5t11 0.5q22 5 45 5q47 0 109 -18q119 -33 195 -176q11 -20 46.5 -93.5t95.5 -202.5z" />
    <glyph glyph-name="dv_n_halant.001" horiz-adv-x="1077" 
d="M1175 1193h-227l-571 -1224l-110 113l262 563h-329q-44 -6 -61 -44l-19 -40q-14 -31 -24.5 -51.5t-17.5 -29.5q-35 -52 -90 -52q-37 0 -67 113q-15 54 -17.5 94t3.5 64q13 37 62 63q46 25 93 25h533l190 406h-760l-18 149h1148zM762 -495q-10 -6 -24.5 -17t-35.5 -28
q-73 134 -114 207t-44 78h1q-22 31 -61.5 51.5t-90.5 31.5q-15 3 -30 3q-18 0 -37 -3h1q-16 -4 -37 -8t-38 -7l-36 153q-10 8 -4 19q9 19 43 21q8 1 13.5 1.5t10.5 0.5q22 5 45 5q48 0 110 -18q118 -33 194 -176q24 -41 143 -296z" />
    <glyph glyph-name="dv_p_halant.001" horiz-adv-x="1051" 
d="M1127 1193h-233l-568 -1217l-126 101l202 432q-66 -26 -129.5 -43.5t-109.5 -19.5q-95 -5 -180 103q-91 118 -38 231l193 413h-134l-23 149h1137zM721 1193h-422l-217 -466q-66 -141 70 -141q105 0 335 106zM710 -495q-10 -6 -24 -17t-36 -28q-73 134 -113.5 207
t-43.5 78h1q-22 31 -61.5 51.5t-91.5 31.5q-14 3 -30 3q-17 0 -36 -3h1q-17 -4 -37.5 -8t-37.5 -7l-37 153q-10 8 -4 19q9 19 44 21q7 1 13 1.5t11 0.5q22 5 45 5q47 0 109 -18q119 -33 195 -176q11 -20 46.5 -93.5t95.5 -202.5z" />
    <glyph glyph-name="dv_ph_halant" horiz-adv-x="1456" 
d="M1519 1193h-648l-197 -423q35 14 71.5 29t71.5 29q42 17 76.5 27t61.5 10q113 6 149 -85q21 -55 12 -143q-5 -45 -16.5 -86t-30.5 -80q-23 -49 -96.5 -139t-197.5 -223q-92 97 -84 112q2 6 28 33t77 81q8 9 16 17.5t19 19.5q68 71 111 125.5t63 92.5q29 57 12.5 90.5
t-72.5 33.5q-18 0 -38.5 -3.5t-43.5 -9.5q-17 -5 -33.5 -10t-27.5 -9q-56 -26 -108 -50.5t-109 -50.5l-286 -615l-108 123l194 408q-32 -10 -56 -16t-37 -10q-72 -19 -122 -19q-128 -2 -195 117q-66 122 -13 236l181 388h-149l-6 149h1522zM706 1193h-397l-188 -402
q-101 -218 53 -218q72 0 294 109zM661 -495q-13 -8 -61 -45q-73 134 -113.5 207t-43.5 78h1q-22 31 -61.5 51.5t-90.5 31.5q-15 3 -30 3q-18 0 -37 -3h1q-16 -4 -37 -8t-38 -7l-37 153q-9 8 -3 19q9 20 43 21q8 1 13.5 1.5t10.5 0.5q22 5 44 5q48 0 111 -18
q118 -33 194 -176q11 -20 46 -93.5t96 -202.5z" />
    <glyph glyph-name="dv_b_halant" horiz-adv-x="1303" 
d="M1395 1193h-269l-565 -1211l-106 106l183 394q-44 -32 -81 -56t-68 -38q-75 -35 -158 -53.5t-175 -18.5q-122 0 -201 111q-40 58 -45.5 119t25.5 127q37 78 100.5 140.5t149.5 106.5q72 37 151 56t162 19q237 0 272 -230l200 428h-966l-18 149h1379zM643 685
q43 91 10 142q-25 46 -102 51q-50 3 -95 -3.5t-88 -23.5q17 -89 31 -173.5t29 -174.5q82 33 135 79t80 103zM270 817q-160 -70 -233 -224q-45 -98 24 -138q42 -25 100 -25h16.5t18.5 2q31 4 64.5 11.5t71.5 21.5zM955 -495q-10 -6 -24.5 -17t-35.5 -28q-73 134 -114 207
t-43 78h1q-22 31 -62 51.5t-91 31.5q-15 3 -30 3q-17 0 -35 -3l2 1q-4 -1 -11 -2.5t-9 -2.5q-14 -3 -28.5 -6t-29.5 -5l-35 153q-6 4 -6.5 9t1.5 10q9 19 43 21q8 1 13 1.5t10 0.5h3q20 5 44 5q47 0 109 -18q120 -33 194 -176q11 -20 47 -93.5t96 -202.5z" />
    <glyph glyph-name="dv_bh_halant" horiz-adv-x="1364" 
d="M1381 1193h-202l-570 -1221l-114 100l183 392h-398q-2 -5 -4.5 -9.5t-4.5 -9.5q-2 -4 -3 -7.5t-3 -8.5l-24 -50q-45 -97 -107 -97q-52 0 -107 117q-28 60 -38 99.5t0 60.5q25 54 110 65h103l77 164q-60 15 -106.5 42t-76.5 66q-34 47 -40.5 108t22.5 125q52 115 159 180
h-1q86 53 177 53q61 0 97.5 -34t48.5 -100q20 -109 -24 -205l-189 -404h404l268 574h-296l-16 149h659zM427 1079q69 150 -29 148q-49 0 -98 -43q-27 -23 -46 -48.5t-33 -54.5q-61 -133 112 -203zM1003 -495q-13 -8 -61 -45q-75 138 -113.5 209t-42.5 76q-22 30 -61.5 51
t-90.5 32q-15 3 -30 3q-18 0 -36 -3h1l-13 -3q-14 -3 -31.5 -6.5t-31.5 -5.5l-36 153q-10 8 -4 19q9 19 43 21q8 1 14 1.5t11 0.5q10 2 20.5 3.5t23.5 1.5q23 0 51 -5t59 -13q58 -17 107.5 -61t86.5 -115q11 -20 46.5 -93.5t95.5 -202.5z" />
    <glyph glyph-name="dv_m_halant" horiz-adv-x="1210" 
d="M1334 1193l-201 -2l-571 -1225l-119 112l188 404q-118 0 -230 1t-230 1q-22 -48 -36.5 -78.5t-19.5 -38.5q-40 -67 -94 -69q-40 0 -99 104q-60 109 -38 155q30 65 100 77l-7 -3q7 2 33.5 4t71.5 3l258 553h-273l-5 151h1266zM700 630l263 563h-455l-263 -563h455z
M916 -495q-13 -8 -61 -45q-73 134 -113.5 207t-43.5 78h1q-21 31 -61 51.5t-91 31.5q-15 3 -30 3q-18 0 -37 -3h1l-12 -3q-14 -3 -31.5 -6.5t-31.5 -5.5l-36 153q-10 8 -4 19q9 19 43 21q8 1 14 1.5t11 0.5q20 5 44 5q23 0 51 -5t59 -13q58 -17 107.5 -61t85.5 -115
q24 -41 143 -296z" />
    <glyph glyph-name="dv_y_halant" horiz-adv-x="1192" 
d="M1280 1193h-242l-564 -1209l-113 98l193 415q-41 -17 -82.5 -33t-82.5 -32q-56 -21 -103 -30.5t-86 -8.5q-75 2 -132.5 28t-95.5 72q-38 52 -52.5 126t-1.5 170q4 28 123 66q72 21 121 38.5t78 30.5q106 49 123 112q13 44 15 82.5t-9 74.5h-359l-21 149h1278zM875 1193
h-379q1 -114 -9.5 -188t-33.5 -106q-23 -30 -72.5 -62t-120.5 -61q-78 -32 -123.5 -53.5t-62.5 -32.5q-5 -8 -9.5 -15.5t-7.5 -15.5q-68 -148 112 -143q144 2 473 178zM849 -496q-11 -7 -26 -18t-34 -26q-73 134 -113.5 207t-43.5 78h1q-22 31 -62 51.5t-91 31.5
q-15 3 -30 3q-17 0 -35 -3l2 1q-4 -1 -11 -2.5t-9 -2.5q-14 -3 -28.5 -6t-29.5 -5l-35 153q-6 4 -6.5 9t1.5 10q9 19 44 21q8 1 14 1.5t11 0.5q10 2 20.5 3.5t23.5 1.5q47 0 109 -18q119 -33 195 -176q11 -20 46.5 -93.5t95.5 -202.5z" />
    <glyph glyph-name="dv_r_halant" horiz-adv-x="817" 
d="M903 1193h-318l-210 -450q-16 -35 -51 -72.5t-86 -76.5q-42 -32 -84 -56t-80 -38q60 -111 120 -226t119 -226l-115 -89q-30 67 -65.5 143t-70.5 151q-8 17 -19.5 40.5t-21.5 40.5q-9 20 -18 41.5t-19 42.5l-36 84q-51 133 -21 195q47 102 124 93q5 -2 20.5 -10.5
t39.5 -22.5q51 -27 73 -27q7 0 13 2.5t9 5.5l212 455h-407l-14 149h885zM519 -495q-13 -8 -61 -45q-75 138 -114 209t-43 76q-21 30 -60.5 51t-90.5 32q-15 3 -30 3q-18 0 -37 -3h1l-12 -3q-14 -3 -31.5 -6.5t-31.5 -5.5l-36 153q-10 8 -4 19q9 19 43 21q8 1 14 1.5t11 0.5
q20 5 44 5q23 0 51 -5t59 -13q58 -17 107 -61t86 -115q11 -20 46.5 -93.5t96.5 -202.5z" />
    <glyph glyph-name="dv_l_halant" horiz-adv-x="1468" 
d="M1569 1193h-416l-111 -237q93 -19 136 -89q53 -89 -9 -222q-66 -143 -291 -303q-68 -48 -135.5 -89t-137.5 -76l-41 124q71 32 136 69t125 77q100 67 163 129.5t89 121.5q66 158 -70 159q-112 2 -297 -133q-62 -45 -122 -96.5t-119 -111.5l-73 96l112 105
q-11 60 -46 93.5t-96 35.5q-81 3 -182 -78q-42 -34 -73.5 -72t-50.5 -80q-3 -7 -7 -16.5t-7 -17.5q-41 -127 14.5 -263t212.5 -267l-101 -69q-59 55 -106.5 114t-82.5 125q-135 235 -49 433q22 48 54.5 93.5t79.5 90.5q69 67 144 101.5t157 35.5q111 1 165 -69
q14 -20 28.5 -53.5t25.5 -75.5q26 22 56 43t67 44q47 28 90 47.5t76 28.5l118 252h-933l-11 149h1497zM1109 -201q-7 -5 -22 -16.5t-40 -29.5q-72 134 -112 207t-44 78h1q-22 31 -61 51.5t-90 31.5q-15 3 -32 3q-16 0 -35 -3h1l-13 -3q-14 -3 -32 -6.5t-30 -5.5l-38 153
q-7 10 -3 19q9 20 44 21q7 1 13 1.5t11 0.5q20 5 43 5t52 -5t59 -13q58 -16 107.5 -60.5t86.5 -115.5q11 -20 46 -93.5t96 -202.5z" />
    <glyph glyph-name="dv_sh_halant" horiz-adv-x="1425" 
d="M1539 1193h-280l-569 -1220l-105 115l515 1105h-286q39 -168 -26 -298q-46 -91 -115 -171.5t-154 -145.5q-56 -41 -142 -90.5t-197 -103.5q26 -82 58 -180t67 -204l-141 -71q-20 78 -37.5 158t-31.5 155q-6 29 -14 56t-15 41q-63 17 -95 26.5t-37 11.5q-40 24 -46.5 66
t18.5 101q41 90 133 108q49 8 74 -57v1q9 -23 16.5 -43.5t15.5 -43.5q22 5 56 18.5t76 36.5v-1q55 31 109 69t112 87q-42 17 -86 35t-87 35q-66 36 -95 88.5t-22 117.5q3 29 17 62q31 63 108 136h-306l-16 149h1504zM661 951q65 140 27 215q-24 52 -72 52q-49 0 -116 -43
q-37 -23 -64 -51.5t-42 -60.5q-8 -17 -12 -34t-5 -35q-3 -80 70 -134v1q5 -4 17 -10.5t28 -14.5t34.5 -16.5t35.5 -16.5q11 14 21.5 28t24.5 29q15 21 28.5 44.5t24.5 46.5zM1066 -495q-9 -6 -23.5 -17t-36.5 -28q-72 134 -113 207t-44 78h1q-22 31 -61.5 51.5t-90.5 31.5
q-15 3 -31 3q-17 0 -36 -3h1q-16 -4 -37 -8t-38 -7l-36 153q-5 4 -5.5 9t1.5 10q9 20 43 21q8 1 13.5 1.5t10.5 0.5q22 5 45 5q48 0 110 -18q118 -33 194 -176q11 -20 46.5 -93.5t95.5 -202.5z" />
    <glyph glyph-name="dv_ss_halant" horiz-adv-x="1114" 
d="M1173 1193h-224l-563 -1207l-118 98l191 411q-27 -15 -60 -33.5t-60 -34.5q-44 -21 -85.5 -31t-80.5 -10q-148 0 -205 114q-29 54 -29 112t28 119l216 462h-163l-16 149h1171zM582 749l207 444h-447zM283 1072l-179 -385q-23 -48 -33 -83.5t-8 -55.5q8 -45 74 -53
q69 -6 209 72q87 47 161 102zM750 -495q-13 -8 -61 -45q-73 134 -113.5 207t-42.5 78h1q-22 31 -62 51.5t-91 31.5q-15 3 -30 3q-18 0 -36 -3h1q-17 -4 -38 -8t-38 -7l-36 153q-10 8 -4 19q9 19 43 21q8 1 14 1.5t11 0.5q20 5 44 5q23 0 51 -5t59 -13q58 -17 107.5 -61
t85.5 -115q24 -41 143 -296z" />
    <glyph glyph-name="dv_s_halant" horiz-adv-x="1348" 
d="M1449 1193h-248l-565 -1212l-108 101l227 487q-63 -25 -115 -36t-97 -9q-35 1 -72.5 14t-72.5 33q-33 20 -58 42.5t-40 46.5q-58 -45 -120 -82t-140 -71q11 -35 61 -144t139 -294l-115 -82q-78 186 -130 317t-72 197q-44 153 -6 225q21 41 48.5 59.5t56.5 16.5
q8 -2 26.5 -11t47.5 -24q49 -30 75 -26q26 3 52 62q45 101 86 195t86 195h-370l-16 149h1427zM1037 1193h-487q-47 -112 -91.5 -219.5t-92.5 -219.5q35 -33 78 -52.5t91 -23.5q94 -6 303 88zM1005 -495q-8 -5 -23 -16t-39 -29q-149 274 -156 285q-22 30 -61 51t-90 32
q-15 3 -31 3q-17 0 -36 -3h1l-12 -3q-14 -3 -32 -6.5t-31 -5.5l-37 153q-9 8 -3 19q9 20 43 21q8 1 13.5 1.5t10.5 0.5q22 5 44 5q23 0 51.5 -5t59.5 -13q58 -17 107 -61t86 -115q11 -20 46.5 -93.5t96.5 -202.5z" />
    <glyph glyph-name="dv_h_halant" horiz-adv-x="1094" 
d="M1250 1193h-247l-126 -270q-10 -20 -60 -55h-443q-66 0 -122 -26q-60 -25 -81 -71q-34 -75 28 -117q14 5 26 9.5t26 9.5q11 4 21.5 8t21.5 8q88 27 187 27q143 0 201 -116q53 -108 3 -215q-35 -75 -134 -137q-97 -62 -173 -65l-34 123q190 53 237 153q27 60 4 96.5
t-83 36.5q-116 0 -237 -64q-76 -38 -131 -93.5t-87 -125.5q-31 -66 -16 -123.5t78 -105.5q39 -31 112 -63.5t182 -67.5l-64 -86q-47 17 -89 32.5t-67 27.5q-63 28 -108.5 56t-73.5 57q-165 167 -83 343q45 95 121 167q9 8 16 13.5t13.5 11t13.5 11.5t16 14q-15 42 -33 84
q-22 87 19 177q14 29 37.5 55t59.5 51q68 49 136 49h433l85 181h-749l-18 149h1162zM397 -536q-22 -13 -61 -45q-72 134 -112.5 207.5t-44.5 78.5h1q-22 31 -61 51.5t-91 31.5q-14 3 -31 3q-15 0 -34 -3l1 1q-3 -1 -10 -2.5t-9 -2.5q-29 -6 -58 -11l-36 153q-6 4 -6.5 9
t1.5 10q9 19 45 21q7 1 13.5 1.5t11.5 0.5q16 4 43 4q49 0 110 -16q119 -33 194 -177q11 -20 46.5 -93.5t95.5 -202.5z" />
    <glyph glyph-name="uni0962.001" horiz-adv-x="1707" 
d="M1144 -414l63 -120q-25 -25 -54 -48.5t-58.5 -41.5t-57.5 -28.5t-51 -10.5q-43 0 -76.5 29.5t-54 70.5t-26 84t7.5 71q18 38 56 64.5t80 50.5q35 19 63 38.5t38 41.5q11 22 2 40.5t-34 18.5q-16 0 -35 -8.5t-37.5 -22t-35 -30.5t-28.5 -35l-79 -54l-62 112q-8 20 -25 29
t-37 9q-23 0 -42 -12.5t-30 -35.5q-10 -22 1 -38t32 -36l61 -114l-86 -59q-36 35 -71.5 71.5t-59.5 74.5t-31.5 78t12.5 84q13 29 39 57.5t58 51t67 36t68 13.5q48 0 81 -27.5t56 -69.5q24 19 50 36.5t52 31t51.5 21.5t48.5 8q35 0 63.5 -14.5t50 -38.5t35 -55t19.5 -63
t3 -63.5t-14 -56.5q-18 -38 -56 -65t-80 -50q-34 -19 -62.5 -38.5t-38.5 -40.5q-5 -11 2.5 -17.5t21.5 -6.5q27 0 66 27z" />
    <glyph glyph-name="uni0963.001" horiz-adv-x="1707" 
d="M1144 -414l63 -120q-45 -42 -95 -77t-95 -48h2q-38 -15 -57 -31.5t-27 -32.5q-5 -11 -0.5 -17.5t12.5 -6.5q28 0 66 21t84 56l62 -125q-63 -57 -123 -90t-107 -33q-39 0 -71.5 26t-53 64.5t-25 83t13.5 82.5q21 44 69 84q-13 21 -21 44.5t-11.5 46t-1.5 43.5t9 36
q18 38 56.5 64.5t80.5 50.5q34 19 62 38.5t38 41.5q11 22 2 40.5t-34 18.5q-16 0 -35 -8.5t-37.5 -22t-35 -30.5t-28.5 -35l-79 -54l-61 112q-8 20 -25.5 29t-37.5 9q-23 0 -41.5 -12.5t-29.5 -35.5q-10 -22 0.5 -38t31.5 -36l61 -114l-86 -59q-36 35 -71.5 71.5t-59.5 74.5
t-31 78t13 84q13 29 39 57.5t57.5 51t66.5 36t68 13.5q48 0 81.5 -27.5t56.5 -69.5q23 19 49 36.5t52 31t51.5 21.5t48.5 8q35 0 63.5 -14.5t50 -38.5t35 -55t19.5 -63t3 -63.5t-14 -56.5q-18 -38 -56 -65t-80 -50q-34 -19 -62.5 -38.5t-38.5 -40.5q-5 -11 2.5 -17.5
t21.5 -6.5q27 0 66 27z" />
    <glyph glyph-name="uni0978" unicode="&#x978;" horiz-adv-x="0" 
 />
    <glyph glyph-name="dv_chandrabindu_adhomukha" unicode="&#x900;" horiz-adv-x="1415" 
d="M835 1412l-205 -164l-103 129l205 162zM1028 1362l-77 99q-4 27 -11 60t-24.5 61.5t-48 48t-82.5 19.5h-14t-15 -1h1q-48 -6 -94.5 -32t-86.5 -59q-40 -32 -68.5 -70t-47.5 -65l-75 -57l-82 101q13 23 38 56.5t59 69.5t75.5 72.5t87 67t93.5 52t95 27.5q10 1 19 1.5
t19 0.5q61 0 109 -19.5t84.5 -51.5t61.5 -73.5t40.5 -84.5t21.5 -85t4 -75z" />
    <glyph glyph-name="space" unicode=" " horiz-adv-x="512" 
 />
    <glyph glyph-name="exclam" unicode="!" horiz-adv-x="989" 
d="M831 1224l-35 -62.5t-49 -88.5q-29 -51 -60 -106.5t-65 -116.5q-14 -24 -28 -49t-28 -51q-20 -36 -41 -74t-41 -76q-17 -32 -36 -66.5t-37 -68.5t-35 -65.5t-30 -56.5q-8 14 -15 15.5t-15 -0.5q-27 -6 -36 8q16 42 34.5 92t38.5 104t41 110.5t41 112.5q25 71 49.5 138.5
t46 125.5t38 103.5t27.5 71.5q8 18 17.5 41t20.5 47q18 39 41.5 80t52.5 74.5t63.5 54.5t75.5 21q38 0 53.5 -17t15.5 -44.5t-11.5 -63t-28.5 -71.5q-14 -29 -28 -56t-27 -49q-3 -5 -5 -9t-4 -7zM283 291q62 0 81 -45q22 -43 -6 -103q-14 -29 -37.5 -55t-53.5 -47
q-62 -43 -124 -43q-30 1 -50.5 13t-31.5 33q-21 43 9 105q27 58 90 100q64 43 123 42z" />
    <glyph glyph-name="quotedbl" unicode="&#x22;" horiz-adv-x="827" 
d="M339 1426q24 0 42 -1.5t27.5 -7.5t10.5 -18t-9 -34q-5 -11 -9 -16.5t-10 -16.5q-10 -16 -28 -46l-206 -326q-53 -38 -71 -1l99 327q5 14 9 25.5t7 20.5l4.5 16.5t6.5 16.5q10 22 22.5 34t27.5 18t34 7.5t43 1.5zM659 1426q24 0 42 -1.5t27.5 -7.5t10.5 -18t-9 -34
q-5 -11 -8.5 -15.5t-9.5 -13.5q-6 -10 -14 -22.5t-16 -27.5l-204 -326q-53 -37 -72 -1l100 327q5 15 9 27.5t7 22.5q3 9 4 13.5t6 15.5q10 22 22.5 34t27.5 18t34 7.5t43 1.5z" />
    <glyph glyph-name="numbersign" unicode="#" 
d="M526 806q-57 -77 -109 -148.5t-110 -149.5h208q57 78 110 149t110 149h-209zM845 806q-57 -77 -109 -148.5t-110 -149.5h197l-96 -126h-195q-68 -91 -140 -188t-138 -188h-104l274 376h-210q-33 -44 -68 -92t-71 -96.5t-71 -96t-68 -91.5h-103l277 376h-223l96 126h216
q57 78 109.5 149t109.5 149h-225l100 126h216q29 40 61.5 84l65 88t64 87.5t60.5 82.5h112l-251 -342h205q29 40 61 84t64.5 88t64.5 87.5t61 82.5h114l-252 -342h202l-92 -126h-204z" />
    <glyph glyph-name="dollar" unicode="$" 
d="M815 1222q-66 -3 -117.5 -24.5t-89 -51.5t-62.5 -64t-38 -63q-19 -39 -21 -71.5t11 -60.5h-1q24 -48 70 -88zM241 87q46 1 93.5 13t91 36t80.5 62t63 93q15 31 25 65t8 69t-20.5 70t-61.5 69zM956 1303q44 -3 89.5 -11t90.5 -19q-2 -17 -7.5 -46t-14 -63t-19.5 -68
t-24 -61q-7 -9 -18 -15t-22 -7.5t-20.5 0.5t-12.5 10q-1 3 -0.5 6t0.5 6q0 21 -0.5 46.5t-9 50.5t-28 47t-55.5 34q-69 -118 -136.5 -230.5t-136.5 -230.5q32 -20 58 -40v1q40 -26 67 -62t43 -78q31 -89 -28 -214q-36 -78 -95.5 -143t-135.5 -112.5t-165.5 -75t-186.5 -28.5
q-26 -45 -53.5 -91.5t-53.5 -91.5q-26 -15 -52 -15q-12 0 -22.5 4.5t-15.5 13.5l111 185q-48 4 -84 12t-61 18t-41 20t-24 17q-12 32 7 107q9 37 24.5 78.5t38.5 89.5q17 15 39.5 20t32.5 -9q-5 -32 -6 -70.5t10.5 -76t38 -68.5t76.5 -46q75 128 150.5 254.5t151.5 255.5
q-14 8 -27 16.5t-27 17.5q-34 23 -60 56t-38.5 75t-8.5 92.5t31 108.5q31 66 84 125t123 104t154.5 72.5t177.5 30.5q22 37 44 74.5t42 73.5q20 17 52 17t41 -19z" />
    <glyph glyph-name="percent" unicode="%" horiz-adv-x="1729" 
d="M1520 373q-19 -41 -48 -87t-66.5 -90.5t-82 -85t-94.5 -71.5t-104 -49t-110 -18q-57 0 -94 18t-58 49t-27.5 71.5t-2.5 85t17.5 90.5t32.5 87t48.5 86.5t67 90t82 85.5t94 71.5t104 49t110.5 18.5t93 -18.5t58 -49t27.5 -71.5t2.5 -85.5t-17.5 -90t-32.5 -86.5zM1351 373
q11 24 25 57.5t25.5 69t18 70.5t3 62.5t-19.5 44t-49 16.5t-65 -16.5t-61.5 -43.5t-56 -61.5t-49 -70t-40.5 -69.5t-30 -59q-12 -26 -25.5 -59.5t-24 -69t-16 -69.5t-1 -61t21 -43.5t49.5 -16.5t64.5 16.5t60.5 43.5t54.5 61.5t47.5 70t39 69t29 58.5zM873 905
q-19 -41 -48.5 -86.5t-67 -90t-82.5 -85.5t-94.5 -71.5t-103.5 -49t-109 -18.5q-57 0 -94 18.5t-58 49t-28 71.5t-3 85.5t17.5 90t32.5 86.5t48 87t66.5 90.5t82 85t94.5 71.5t104 49t111 18q55 0 92 -18t58 -49t28 -71.5t3 -85t-17 -90.5t-32 -87zM703 905q9 19 19 43.5
t20 51t17.5 54t11.5 52.5t3.5 46.5t-8 37.5t-22.5 25t-39 9q-50 0 -96 -35t-85 -85.5t-69.5 -105t-49.5 -93.5q-9 -20 -19.5 -44.5t-19.5 -51t-17 -54t-12 -52.5q-2 -23 -0.5 -44.5t9 -38t22.5 -26t39 -9.5q33 0 64.5 17t60 44t55 61.5t48 70t39 69t29.5 58.5zM163 -80
q-32 0 -48 16.5t-3 43.5l1442 1349q23 3 42 -9t27 -36z" />
    <glyph glyph-name="ampersand" unicode="&#x26;" horiz-adv-x="1675" 
d="M1459 982q58 0 102.5 0.5t79 1.5t60.5 2.5t47 3.5q11 -13 2 -35.5t-29 -37.5l-98 -14q-41 -6 -82 -27t-81.5 -50t-80 -64.5t-77.5 -71.5q-88 -81 -181 -160t-199 -168q3 -17 5 -30t4 -21q2 -16 4 -25t4 -16q12 -59 33 -93.5t48 -52.5t57.5 -23t60.5 -5q45 0 101.5 18
t108.5 54q18 -4 24 -18.5t-10 -35.5q-102 -80 -201.5 -111t-196.5 -31q-69 0 -122 17.5t-71 43.5q-6 10 -12 31.5t-10.5 46.5t-8 50t-5.5 43q-65 -48 -133 -90t-137 -73.5t-138 -50t-136 -18.5q-72 0 -122.5 16.5t-82.5 44.5t-46.5 65t-16 78.5t8.5 85t29 83.5
q36 78 90.5 141t121 115.5t144 96.5t160.5 84q-18 19 -32.5 43.5t-20 54.5t-1 65.5t24.5 77.5q29 62 77 114t106 89.5t120.5 58.5t120.5 21q117 0 161 -71l1 1q43 -70 -9 -181q-23 -49 -56 -85t-72.5 -64t-83.5 -49.5t-89 -41.5q26 -27 52.5 -63.5t51 -83t45.5 -102.5
t36 -121q29 24 72.5 63.5t92 85.5t97.5 94.5t90 90.5q49 50 68.5 73t22.5 31q6 12 -32 18q-17 2 -35 4t-34 4q-5 7 -4 17t6.5 20.5t15.5 20t22 15.5h168zM533 727l-8 -3q-2 2 -3 4zM724 288q-8 60 -25 121t-42.5 117.5t-58.5 107t-73 90.5q-44 -18 -96 -48.5t-102 -72
t-93 -92t-70 -107.5q-30 -64 -33.5 -117t16.5 -91.5t62.5 -59.5t105.5 -21q49 0 100 13t102.5 36t103.5 54.5t103 69.5zM825 1222q-30 0 -59 -11t-58 -35q-58 -46 -85 -105q-55 -117 55 -203q62 32 115.5 79.5t83.5 113.5q29 62 21 113q-7 48 -73 48z" />
    <glyph glyph-name="quotesingle" unicode="'" horiz-adv-x="481" 
d="M326 1426q24 0 42 -1.5t27.5 -7.5t10.5 -18t-9 -34q-5 -11 -14 -26t-26 -41q-2 -3 -4 -6.5t-4 -6.5v1q-50 -81 -102 -163t-103 -163q-53 -38 -71 -1l99 327q5 14 9 25.5t7 20.5q3 11 5 16.5t7 16.5q10 22 22 34t27.5 18t34 7.5t42.5 1.5z" />
    <glyph glyph-name="parenleft" unicode="(" horiz-adv-x="854" 
d="M73 -164q-35 50 -66.5 105t-54 116t-34.5 129t-7.5 145.5t27.5 165.5t70 188q64 136 155 253.5t201.5 220t235.5 191t256 168.5h89q-130 -90 -241 -179.5t-205.5 -189t-173 -214t-143.5 -254.5q-47 -101 -74.5 -186t-38.5 -158.5t-7.5 -138t18 -124.5t38.5 -118.5
t53 -119.5h-98z" />
    <glyph glyph-name="parenright" unicode=")" horiz-adv-x="885" 
d="M874 685q-71 -149 -167 -272t-208.5 -225.5t-236 -189t-249.5 -162.5h-94q128 91 239 178t207 185t177.5 214.5t152.5 267.5q66 141 94 255.5t26 213.5t-30 188.5t-74 179.5h90q56 -80 98.5 -168.5t58 -191t-2 -220t-81.5 -253.5z" />
    <glyph glyph-name="asterisk" unicode="*" horiz-adv-x="807" 
d="M504 1126q72 29 145.5 59.5t145.5 59.5q22 -4 23 -22.5t-14 -41.5l-290 -152q36 -37 73.5 -75t73.5 -75q-5 -22 -23.5 -41.5t-44.5 -23.5l-178 123q-32 -60 -66.5 -123.5t-66.5 -122.5q-20 -13 -42 -13t-31 13l93 246q-72 -30 -145.5 -61.5t-145.5 -61.5q-20 3 -22 23
t14 42l287 150q-35 37 -74 76.5t-74 75.5q5 23 24.5 41.5t43.5 22.5l182 -119q32 60 67 123.5t67 122.5q22 14 43.5 13.5t29.5 -13.5z" />
    <glyph glyph-name="plus" unicode="+" 
d="M244 0l168 362h-327l58 124h327l153 328h142l-153 -328h327l-58 -124h-327l-168 -362h-142z" />
    <glyph glyph-name="comma" unicode="," horiz-adv-x="512" 
d="M383 270q28 0 52.5 -13t37.5 -39t11 -65t-27 -92q-29 -62 -74 -110.5t-99.5 -85.5t-116.5 -63.5t-124 -43.5q-20 8 -15 32q5 27 28 39q26 8 60 21t67 32.5t62.5 46.5t46.5 64q10 22 8 38t-10.5 27t-20.5 18.5t-21 12.5q-5 2 -9.5 4.5t-6.5 4.5h1q-18 13 -18.5 30t9.5 39
q9 20 25 38.5t37 33t45.5 23t51.5 8.5z" />
    <glyph glyph-name="hyphen" unicode="-" horiz-adv-x="1000" 
d="M144 544l-52 142h530l60 -142h-538z" />
    <glyph glyph-name="period" unicode="." horiz-adv-x="512" 
d="M197 -28q-24 0 -43 8.5t-28.5 24t-9.5 38.5t14 52q13 29 34 53t46 41.5t52.5 27t53.5 9.5q29 0 47 -10.5t26 -28.5t5.5 -42t-14.5 -50q-12 -27 -31.5 -49.5t-43.5 -39t-51.5 -25.5t-56.5 -9z" />
    <glyph glyph-name="slash" unicode="/" horiz-adv-x="670" 
d="M-140 -32h-141l1092 1430h141z" />
    <glyph glyph-name="zero" unicode="0" 
d="M825 1306q58 0 99 -16.5t68 -45.5t40.5 -70t16.5 -89h-1q4 -48 -2.5 -102t-20.5 -111.5t-35.5 -116.5t-48.5 -116q-38 -80 -86 -160.5t-105 -154.5t-121.5 -138.5t-134 -112t-143 -74.5t-148.5 -27t-123.5 27t-73.5 74.5t-29.5 112t8 138.5t39 154.5t63.5 160.5
q27 57 60.5 116t72.5 116.5t83 111.5t92 102q49 48 100.5 89t105.5 70t110.5 45.5t113.5 16.5zM785 1220q-52 0 -103 -30t-98.5 -79.5t-91.5 -112t-81.5 -127t-68 -125.5t-52.5 -107t-48 -107t-48.5 -125.5t-37 -127t-12.5 -112t25 -79.5t75 -30t102.5 30t98.5 79
t91.5 111.5t81 127t68.5 126t52 107.5q22 46 48 107t48.5 125.5t37 127t12.5 112t-24.5 79.5t-74.5 30z" />
    <glyph glyph-name="one" unicode="1" 
d="M641 937q22 47 34 78.5t12 52t-12 31t-37 14.5q-23 2 -48 4t-47 4q-7 4 -7.5 13.5t4 20t13 20t19.5 14.5q68 10 127 25t107.5 31t86.5 32t64 29q25 0 28 -21q-8 -14 -21 -38.5t-29.5 -57.5t-35.5 -72.5t-40 -83.5l-362 -776q-25 -54 -39.5 -88.5t-16.5 -54.5t8.5 -28.5
t36.5 -10.5l86 -6q4 -7 1 -18.5t-9.5 -23.5t-15.5 -21t-18 -12q-57 4 -120.5 5t-116.5 1q-54 0 -119 -1t-125 -5q-8 3 -9 12.5t3 21t12.5 23t20.5 18.5l88 6q28 2 47 10.5t36 28.5t34.5 54.5t42.5 88.5z" />
    <glyph glyph-name="two" unicode="2" 
d="M517 149q133 0 201 42q32 22 53 40t37 33l-2 -1q2 2 5.5 5t5.5 5q9 3 18.5 3t18 -2.5t14.5 -8t7 -12.5q-28 -39 -58 -77t-59 -74q-61 -73 -102 -108q-61 3 -128 4.5t-134 1.5h-290q-85 0 -138.5 -1t-88.5 -5q-7 4 -11 13t3 25q5 8 16.5 16.5t27.5 16.5q43 22 85.5 47.5
t93.5 59t113.5 77.5t144.5 103q74 53 153 114.5t151.5 130t133 143t97.5 153.5q61 132 35 205.5t-142 73.5q-86 0 -173 -53.5t-168 -142.5q-14 -6 -26.5 -6.5t-21 4t-11 14t4.5 24.5q59 70 124 124.5t140 92.5q148 77 287 77q78 0 129.5 -24.5t75.5 -69.5t19.5 -107.5
t-39.5 -137.5q-43 -96 -144 -204q-50 -54 -120 -115t-162 -130l-187 -140q-94 -70 -149.5 -112t-84.5 -65.5t-38.5 -33t-11.5 -13.5q-2 -3 6.5 -4t40.5 -1h248z" />
    <glyph glyph-name="three" unicode="3" 
d="M42 -112q-36 0 -70.5 7t-57.5 22.5t-30 41.5t11 65q8 18 22 34t31.5 29t38 20.5t41.5 7.5t33.5 -7.5t20 -18.5t11 -25t5.5 -27l-1 1q8 -25 21 -40t51 -15q31 0 74.5 13t93 37.5t102 59t100 76.5t87 91t64.5 102q30 64 42 121t1.5 100t-45 68t-96.5 25q-71 0 -137.5 -30
t-119.5 -69q-31 5 -38.5 30.5t22.5 63.5q36 12 88 32t108.5 43.5t111.5 49t97 49.5q21 14 46.5 31.5t53.5 39.5q54 45 84 111q36 77 11 117q-25 42 -87 42q-43 0 -87 -13t-87.5 -36.5t-86.5 -55.5t-83 -70q-28 -6 -41 7t-2 36q50 55 110.5 101t125 79.5t130 52.5t126.5 19
q63 0 108.5 -17t71.5 -47q51 -66 -2 -179q-15 -32 -37.5 -63.5t-60.5 -63.5t-96.5 -66t-144.5 -71q-3 -9 9 -10q56 -5 99.5 -28.5t66.5 -64t21.5 -97.5t-35.5 -130q-52 -112 -151.5 -216.5t-235.5 -189.5q-79 -48 -154.5 -81.5t-141.5 -54t-120.5 -30t-91.5 -9.5z" />
    <glyph glyph-name="four" unicode="4" 
d="M-103 378q-42 0 -19 47q4 10 9.5 18t14.5 17.5t21.5 21t32.5 27.5h-1q266 225 530 448t530 448l-1 -1q20 17 36.5 25.5t36.5 8.5h34q43 0 30 -28q-7 -14 -27 -30h1q-263 -222 -524 -441t-524 -440q-11 -8 1 -9.5t40 -1.5h310q14 0 23 1.5t15.5 5.5t11.5 11.5t11 20.5
l172 368q5 12 16.5 26t31.5 25q12 6 28.5 12t33.5 11t33 8.5t29 4.5q16 1 23 -3t6.5 -13t-6 -22.5t-12.5 -29.5l-184 -393q-9 -20 -7.5 -26.5t19.5 -6.5h132q14 -19 -3 -53q-16 -35 -47 -57h-113q-15 0 -24.5 -0.5t-16 -3.5t-11.5 -9.5t-10 -17.5l-42 -90
q-25 -53 -37.5 -86.5t-13.5 -53.5t9.5 -29t31.5 -13q13 -2 28 -3t26 -3q5 -7 2.5 -18.5t-9.5 -23t-17 -21t-20 -12.5q-52 4 -106 5t-100 1q-54 0 -120 -1t-135 -5q-6 3 -6.5 12t3.5 21t12 23.5t19 18.5l96 6q29 2 49 10.5t37 28.5t34.5 54.5t42.5 88.5l40 84q13 31 11 33
q-4 4 -39 4h-478z" />
    <glyph glyph-name="five" unicode="5" 
d="M572 1203q12 14 21.5 24.5t20 18.5t22.5 13t28 7l514 68h-1q10 2 15 -0.5t7 -8t1 -11.5t-4 -12q-29 -36 -68 -72.5t-74 -61.5l-408 -55q-30 -3 -46 -13.5t-33 -32.5q-21 -27 -46.5 -59.5t-45.5 -59.5q-16 -18 7 -20l41 -4q45 -5 89.5 -14t84.5 -23t74.5 -33.5t60.5 -45.5
q27 -27 44 -60.5t21.5 -75t-5.5 -91t-37 -108.5q-62 -133 -183 -245q-59 -54 -126.5 -102t-137.5 -87q-141 -78 -293 -125q-150 -46 -275 -50q-23 10 -10 41q13 29 43 46q78 4 157.5 22t156.5 48t148.5 71.5t132.5 92t109.5 110.5t79.5 126q24 51 30.5 92.5t-1 75t-27 60
t-48.5 46.5q-30 20 -67.5 33.5t-79 22t-85 12.5t-85.5 5q-38 0 -22 35q8 16 27 43z" />
    <glyph glyph-name="six" unicode="6" 
d="M-99 485q30 64 78 141.5t117.5 161t161.5 168t211 164.5q115 77 223 129.5t201.5 85.5t168.5 50t125 23q6 -3 8 -11.5t0 -18.5t-8 -20t-16 -16q-54 -15 -119 -35.5t-137 -50.5t-149 -71t-156 -97q-185 -131 -310 -288q-60 -76 -108 -153.5t-85 -156.5q-39 -84 -60.5 -162
t-17 -138t37.5 -96t104 -36q53 0 103.5 23t95.5 62.5t83 93t67 114.5q29 62 42 120t5.5 102.5t-39 71.5t-91.5 27q-21 0 -41 -4t-37 -8l2 1q-16 -4 -18.5 -4t-6.5 -1q-13 9 -10 23t21 31q60 29 117 46.5t119 17.5q75 0 122.5 -28t67.5 -78t12 -118t-45 -147
q-42 -90 -110 -169t-152.5 -137t-180.5 -91.5t-193 -33.5q-113 0 -177.5 41t-86 111t-5 163.5t65.5 197.5z" />
    <glyph glyph-name="seven" unicode="7" 
d="M503 1128q-41 0 -71.5 -2.5t-58 -12.5t-56.5 -30t-67 -54q-16 -5 -33.5 -0.5t-18.5 25.5q18 21 40 47.5t45.5 56.5t47.5 62.5t47 64.5q26 -4 80.5 -5.5t137.5 -1.5h338h85.5t81.5 1t66 2t39 3q21 -10 10 -34q-36 -32 -74.5 -68.5t-81 -78.5t-90.5 -91t-103 -106
l-995 -1033q-34 -5 -53.5 9.5t-11.5 42.5l1102 1148q14 15 23.5 25.5t11.5 16.5q5 8 -6.5 10.5t-35.5 2.5h-399z" />
    <glyph glyph-name="eight" unicode="8" 
d="M857 1306q69 0 122 -19.5t82.5 -57.5t31 -95.5t-33.5 -132.5q-27 -59 -70 -105t-93 -82.5t-103 -65t-100 -51.5q37 -30 66.5 -65t43 -80t8 -101t-38.5 -127q-39 -82 -100 -147.5t-137 -111t-163.5 -69.5t-177.5 -24q-69 0 -129 18.5t-95 60t-38 107.5t41 161
q26 56 71 104t100.5 89t118 76.5t125.5 66.5q-29 25 -53.5 56t-36.5 70t-9 85.5t29 102.5q37 79 96 141.5t130.5 106t152 66.5t160.5 23zM255 58q103 0 188 61q89 62 138 168q26 55 23.5 103t-24 88.5t-57 72.5t-75.5 56q-62 -32 -111 -66.5t-84 -69.5q-73 -72 -102 -134
q-28 -60 -35 -111.5t6.5 -88.5t47 -58t85.5 -21zM802 1220q-48 0 -93 -17t-83.5 -46t-69 -66.5t-49.5 -79.5q-23 -49 -19.5 -88.5t24 -71.5t53 -58.5t67.5 -49.5q89 48 158.5 110.5t107.5 144.5q20 42 24.5 82t-7.5 71t-40 50t-73 19z" />
    <glyph glyph-name="nine" unicode="9" 
d="M848 1220q-44 0 -90.5 -17.5t-91.5 -49.5q-45 -33 -83 -82t-68 -113q-26 -57 -39.5 -114.5t-8 -104t32.5 -76t81 -29.5q19 0 32.5 0.5t21.5 1.5q7 1 16 2.5t23 4.5q22 -17 -5 -46q-46 -28 -102.5 -45.5t-117.5 -17.5q-63 0 -109 24.5t-68.5 70t-18.5 110.5t42 146
q43 93 112 170t152 133t174.5 87t180.5 31q97 0 155 -39t78.5 -109t4 -165.5t-69.5 -209.5q-39 -82 -99 -171t-138 -177t-172 -170.5t-202 -151.5q-78 -48 -160 -87.5t-160.5 -69.5t-148.5 -49.5t-124 -26.5q-8 3 -10.5 11.5t-0.5 19.5t8.5 21.5t15.5 16.5q98 26 188.5 61.5
t171.5 79.5q90 49 176 114.5t166 151.5t153.5 195.5t138.5 247.5q20 44 38.5 92.5t29.5 95t13.5 89t-8.5 74.5t-37.5 51t-72.5 19z" />
    <glyph glyph-name="colon" unicode=":" horiz-adv-x="625" 
d="M254 503q51 0 71 -38q21 -38 -3 -88q-22 -49 -79 -89q-56 -38 -107 -38q-50 0 -71 38q-20 39 3 89q24 50 79 88q58 38 107 38zM492 1022q52 0 70 -36t-5 -87q-12 -26 -32 -48t-44 -38.5t-50.5 -26t-52.5 -9.5t-44 9.5t-27 26t-8 38.5t13 48q22 48 76 87q54 36 104 36z
" />
    <glyph glyph-name="semicolon" unicode=";" horiz-adv-x="965" 
d="M597 245q-23 -49 -65 -94.5t-95.5 -85t-114 -70t-120.5 -49.5l-91 32q53 21 108 47t103.5 55.5t85.5 62.5t54 69q5 11 7.5 22.5t4.5 24.5q-1 0 -2.5 -1t-3.5 -1h1q-16 -7 -28.5 -11t-32.5 -4q-23 0 -41 6.5t-34 19.5q-30 27 0 93q13 29 34.5 52.5t48 39.5t56 24.5
t58.5 8.5q45 0 69 -21.5t30 -56t-3 -77.5t-29 -86zM771 1020q53 0 73 -38q21 -37 -4 -91q-26 -54 -81 -93q-56 -38 -109 -38q-50 0 -74 38q-21 39 4 93q24 52 81 91q29 18 56.5 28t53.5 10z" />
    <glyph glyph-name="less" unicode="&#x3c;" 
d="M1028 860l-69 -146l-755 -289q121 -72 242.5 -145.5t242.5 -145.5l-67 -144l-626 380l50 108z" />
    <glyph glyph-name="equal" unicode="=" 
d="M951 512h-796l58 124h796zM811 212h-796l58 123h796z" />
    <glyph glyph-name="greater" unicode="&#x3e;" 
d="M1027 478l-50 -108l-980 -380l67 144l756 291q-121 72 -243 144.5t-243 144.5l69 146z" />
    <glyph glyph-name="question" unicode="?" horiz-adv-x="657" 
d="M560 1318q62 0 109 -35t71.5 -93.5t21.5 -134.5t-41 -158q-42 -89 -92 -133q-48 -44 -80 -58l-198 -85q-78 -33 -98 -76q-11 -23 -19.5 -54.5t-15.5 -63.5q-18 -19 -39.5 -24t-32.5 7q-2 19 -3 44.5t0.5 53.5t7 56.5t16.5 52.5q16 34 35.5 59t45.5 41l-1 -1
q23 15 50 28.5t56 27.5l124 53v-1q69 30 108.5 64t56.5 71q14 30 20 60t-7 54q-21 39 -70 49t-126 10q-19 0 -37 25q-19 24 4 72q17 35 52 62t82 27zM-24 -28q-24 0 -43 8.5t-28.5 24t-9.5 38.5t14 52q13 29 34 53t46 41.5t52.5 27t53.5 9.5q29 0 47 -10.5t26 -28.5t5.5 -42
t-14.5 -50q-12 -27 -31.5 -49.5t-43.5 -39t-51.5 -25.5t-56.5 -9z" />
    <glyph glyph-name="at" unicode="@" horiz-adv-x="1567" 
d="M1013 651q-28 0 -62.5 -15t-82.5 -43q-38 -23 -78 -54t-79 -66t-75.5 -72t-67 -73t-53.5 -68.5t-35 -58.5q-6 -13 4 -13q8 0 57.5 22t141.5 78q50 33 108 78t112 90.5t97.5 86t63.5 63.5q-1 17 -12.5 31t-38.5 14zM1255 801q18 6 35.5 6t32 -5t25 -13.5t14.5 -18.5
q-10 -11 -34 -37.5t-56.5 -63t-72 -80.5t-80.5 -90t-81 -91.5t-75 -84.5t-61.5 -69t-39.5 -46q-16 -19 -21 -29q-10 -19 33 -18q78 2 160 30t157 79t139 123.5t106 163.5q48 103 47 186t-42.5 141t-119.5 89t-185 31q-97 0 -193 -25.5t-186.5 -71t-173.5 -109t-155.5 -139.5
t-131.5 -162t-101 -177q-41 -86 -56 -180q-17 -95 15 -174q29 -79 117 -130q45 -26 108.5 -39.5t148.5 -13.5q106 0 192 24q42 11 79.5 23t71.5 24q13 -5 13.5 -23.5t-14.5 -36.5q-61 -30 -122.5 -51t-120.5 -32q-118 -23 -204 -23q-126 0 -230.5 37.5t-166.5 116.5
q-30 39 -46.5 88.5t-17 109.5t15.5 130t52 149q56 117 136 220t175 189.5t202 155t218 116t222 72.5t214 26q147 0 239 -45t133.5 -119t35.5 -170t-54 -199q-46 -98 -123.5 -188t-177.5 -158t-217.5 -108.5t-242.5 -40.5q-54 0 -82.5 6t-40.5 15t-11.5 19t3.5 17
q4 9 14 22.5t34 42.5l71 83q-65 -42 -132.5 -79.5t-128 -65t-109.5 -44t-78 -16.5q-24 0 -38 8.5t-19 23t-2 33t12 38.5q6 13 27.5 43.5t59 72.5t91 93.5t124.5 106.5q57 45 123.5 90.5t136 82t138.5 60t132 23.5q17 0 33.5 -7.5t24.5 -22.5z" />
    <glyph glyph-name="A" unicode="A" horiz-adv-x="1276" 
d="M1023 476q6 30 -1 35q-8 6 -50 6h-305q-36 0 -49 -6q-6 -3 -15 -11t-20 -22l-168 -212q-104 -129 -119 -163q-5 -11 1 -17.5t32 -9.5q15 -2 34 -3t34 -3q4 -6 3 -17t-7 -22.5t-15.5 -22t-22.5 -14.5q-23 2 -51.5 2.5t-60.5 1.5h-21.5t-25.5 0.5l-26 1t-23 0.5
q-51 0 -104.5 -2t-94.5 -4q-6 4 -6 14.5t4.5 22t12 22.5t18.5 17l73 6q33 3 70.5 22t80.5 69q29 34 66.5 77t84.5 96q46 54 105.5 122t131.5 154q112 133 229.5 271.5t229.5 271.5q45 53 67.5 86t31.5 63q48 11 86.5 34.5t64.5 43.5q33 0 36 -26q-11 -68 -20 -136t-17 -134
l-103 -810q-6 -62 -7.5 -100t5.5 -59.5t23 -31t45 -13.5h-1q13 -2 28.5 -3t27.5 -3q4 -6 2.5 -17t-7 -22.5t-14 -22t-16.5 -14.5q-61 4 -119 5t-126 1q-74 0 -134 -2t-105 -4q-7 4 -7 14.5t4.5 22t13 22.5t19.5 17l66 6h-1q28 3 47 9t23 14q7 15 12.5 42t10.5 62zM1115 1113
l-10 -10v19l6 -5l13 6l-6 -6q-2 -2 -3 -4zM731 655q-8 -10 -15.5 -19.5t-6.5 -10.5q0 -2 37 -2h248q23 0 33 2t13 8q4 11 9 37q11 82 21.5 164t21.5 164q2 8 3.5 16.5t1.5 15.5q2 20 5 39.5t3 33.5l-37.5 -42.5t-45.5 -54.5z" />
    <glyph glyph-name="B" unicode="B" horiz-adv-x="1239" 
d="M540 1080q25 54 38.5 88t14 54t-13 29t-41.5 12q-15 1 -32.5 2t-32.5 3q-6 7 -5 18.5t7 22.5t15 20.5t20 14.5q87 9 194.5 13t251.5 4q97 0 180 -12t137 -46q53 -34 68 -97h-1q17 -66 -30 -167q-53 -113 -144 -180q-42 -29 -91 -55.5t-100 -47.5q1 -5 7 -6.5l14 -3.5h-1
q39 -8 77 -32t60.5 -66t21.5 -104.5t-40 -146.5q-85 -181 -275 -293q-186 -110 -462 -110q-20 0 -45 1t-53 2q-33 2 -69.5 2.5t-71.5 0.5q-62 0 -114 -1.5t-106 -3.5q-3 0 -7 -0.5t-8 -0.5q-7 3 -8 12.5t2.5 21t12 23t19.5 18.5l44 7q38 5 63 15t46 35t43.5 69.5t57.5 119.5
zM388 345q-12 -27 -25 -57.5t-22.5 -60t-13.5 -54t2 -39.5q11 -32 46.5 -42t79.5 -10q64 0 126.5 15t118 47t102 83.5t80.5 123.5q18 38 29.5 77.5t12 76.5t-13 69t-45.5 56t-84.5 38t-130.5 14q-36 0 -57.5 -2t-34.5 -6.5t-19.5 -12t-11.5 -18.5zM606 812q-12 -26 -9.5 -35
t36.5 -9h19.5t24.5 1q75 2 137.5 15t114.5 41.5t93 74.5t73 114q33 71 31.5 120t-27 80t-71 44.5t-99.5 13.5q-62 0 -93 -11q-14 -3 -21.5 -11t-17.5 -29z" />
    <glyph glyph-name="C" unicode="C" horiz-adv-x="1425" 
d="M-20 670q41 88 93.5 165t121.5 146q68 70 141.5 127t154.5 104q155 88 314 131t319 43q40 0 86.5 -3.5t92 -10t87 -15.5t72.5 -20l-2 1q5 -1 8.5 -2t7.5 -2q8 -3 18.5 -3.5t29.5 1.5q-8 -19 -21.5 -52.5t-29.5 -75.5t-33 -90t-33 -97q-10 -7 -22.5 -11.5t-24.5 -5.5
t-22 1.5t-14 9.5q7 33 10.5 67t-2.5 66t-23 60.5t-49 49.5t-82 33t-121 12q-113 0 -230.5 -36t-228.5 -110.5t-208.5 -187.5t-169.5 -266q-72 -155 -82 -275t31.5 -201.5t128 -124t208.5 -42.5q94 0 176.5 27.5t151 69.5t122 91.5t91.5 93.5q10 6 22 7.5t22 -1t17 -8
t8 -13.5q-25 -41 -57.5 -85.5t-65.5 -84t-63 -71.5t-50 -47q-25 -5 -45.5 -10t-38.5 -10h1q-19 -6 -57 -14.5t-85.5 -15.5t-100.5 -12t-101 -5q-138 0 -252.5 31t-192.5 105q-84 83 -104 224q-8 72 10 156.5t66 185.5z" />
    <glyph glyph-name="D" unicode="D" horiz-adv-x="1597" 
d="M564 1080q23 49 36 82.5t14.5 54.5t-10 32t-38.5 14l-44 5q-6 6 -6 17t5.5 22.5t16 21.5t25.5 15q134 9 259 13t255 4q127 0 231 -13.5t186 -48.5q83 -38 131.5 -100.5t64.5 -142.5t0.5 -172.5t-60.5 -190.5q-92 -196 -257 -355q-168 -161 -387 -256q-125 -54 -254.5 -76
t-248.5 -22q-49 0 -94.5 2t-88.5 6q-44 4 -77.5 6t-59.5 2q-65 0 -125 -1t-132 -5q-6 3 -6.5 12t3.5 21t12 23.5t19 19.5l52 6q43 5 69.5 15t48.5 34.5t45 69.5t58 120zM420 361q-35 -76 -52 -126.5t-9 -85.5q13 -42 61 -59.5t141 -17.5q144 0 269 45t230.5 126t191 194.5
t149.5 251.5q19 40 36 87.5t26.5 96.5t9.5 98t-15 92q-12 44 -41 82.5t-78 66.5t-120 44t-167 16q-88 0 -137.5 -7.5t-65.5 -16.5q-22 -13 -83 -144z" />
    <glyph glyph-name="E" unicode="E" horiz-adv-x="1196" 
d="M503 1088q26 56 37 91t8 56t-20 31t-47 15q-8 1 -16.5 2t-15.5 2q-13 13 1 39q8 15 18.5 24t21.5 13q63 -4 118.5 -5t117.5 -1h379h92.5t83.5 1q75 1 107 7q0 -14 -7.5 -40t-18 -57.5t-23.5 -66.5t-25 -66q-5 -14 -11 -29.5t-10 -26.5q-8 -8 -20.5 -12.5t-24.5 -6
t-21.5 1t-11.5 9.5l2 20q5 30 6.5 56t-3.5 47.5t-20 37.5t-43 25q-29 8 -75.5 9.5t-112.5 1.5h-144q-18 0 -28.5 -1.5t-18 -8t-14.5 -20t-18 -37.5l-188 -403q-8 -17 -10.5 -25.5t1 -13t14 -5t28.5 -0.5h116q64 0 109 3t65 9q16 5 30.5 17t36.5 44q14 21 28 42.5t28 42.5
q10 8 23 11t24 2t19.5 -5t9.5 -11q-8 -17 -19 -39l-22 -44q-15 -28 -32 -60.5t-32 -64.5q-14 -30 -26 -59.5t-23 -56.5q-8 -20 -17.5 -43t-16.5 -38q-8 -7 -20.5 -11t-24.5 -5t-22 2.5t-12 11.5l19 80q5 23 2.5 41t-25.5 25q-18 7 -53.5 9t-92.5 2h-116q-42 0 -52 -6
q-7 -4 -22 -36l-132 -284q-37 -78 -53.5 -128t-5.5 -73q3 -9 13 -16.5t33.5 -13.5t64 -9t104.5 -3q57 0 98 1.5t72 5t53.5 9t41.5 13.5l-1 -1q35 17 93 66t136 127q10 6 21.5 7t21.5 -1.5t16 -9.5t6 -17q-19 -27 -49.5 -67.5t-64 -83.5t-66 -82t-55.5 -61q-135 3 -272 4.5
t-271 1.5h-182q-32 0 -63.5 -0.5t-62.5 -1.5h-22t-25 -1q-23 -1 -49 -1.5t-55 -1.5q-8 3 -9 12.5t2.5 21.5t12 23.5t20.5 18.5l74 6q39 4 66 14t50.5 35t48 70.5t59.5 119.5z" />
    <glyph glyph-name="F" unicode="F" horiz-adv-x="1102" 
d="M491 774q-14 -30 -7.5 -35.5t42.5 -5.5h137q62 0 107.5 2.5t64.5 7.5h-1q16 5 32 16.5t39 45.5q14 20 29.5 42t29.5 42q20 17 46 17q28 0 29 -21q-8 -17 -19 -39t-23 -45q-14 -28 -31 -60t-31 -62t-26 -59.5t-24 -58.5q-8 -21 -17.5 -43.5t-17.5 -37.5q-8 -8 -19.5 -11.5
t-23 -4t-21.5 3t-14 10.5l16 81q5 26 1 43t-24 25v-1q-20 6 -55 8t-92 2h-137q-42 0 -51 -5q-7 -4 -22 -36l-131 -280q-34 -74 -51.5 -118.5t-18 -70t16.5 -36t53 -14.5q16 -2 34 -3t34 -3q14 -12 -1 -41q-14 -27 -38 -35q-29 1 -56.5 1.5t-50.5 1.5q-9 0 -21.5 0.5
t-20.5 0.5q-30 1 -59.5 1.5t-59.5 0.5q-66 0 -125.5 -1t-131.5 -5q-6 3 -6.5 12t3.5 21t12 23.5t19 19.5l56 6q40 5 66.5 15.5t49.5 36t47 70t58 117.5l354 758q29 63 43 101t12.5 60t-18.5 32t-50 15l-16 2t-15 2q-15 13 0 39q8 15 19 24t22 13q63 -4 117.5 -5t114.5 -1
h370h91.5t83.5 1q38 1 64.5 2.5t50.5 6.5q-17 -36 -34 -74t-34 -75t-32 -72t-27 -64q-6 -8 -17.5 -13t-23.5 -7t-22.5 0t-14.5 9q11 35 15 65t1 56q0 22 -17 38.5t-44 26.5q-29 8 -71 9.5t-99 1.5h-140q-18 0 -28.5 -1.5t-18 -8t-14.5 -20t-18 -37.5z" />
    <glyph glyph-name="G" unicode="G" horiz-adv-x="1530" 
d="M1061 218q-26 -57 -32 -89.5t14 -42.5q14 -23 -29 -48q-18 0 -46.5 -5t-60.5 -13q-44 -11 -95.5 -20t-102.5 -17q-52 -8 -100 -11.5t-90 -3.5q-92 0 -172.5 13t-146.5 40.5t-116.5 70.5t-80.5 104q-51 93 -43.5 211t70.5 254q61 132 163.5 257.5t248.5 228.5
q77 54 163 97.5t177 76.5q92 32 198.5 48.5t220.5 16.5q45 0 83 -3t71 -8q33 -6 56 -10.5t35 -7.5t27 -6.5t32 -8.5h-1q17 -3 33.5 -3.5t35.5 3.5q-27 -59 -56.5 -139t-56.5 -171q-20 -24 -50 -25q-12 -1 -21 2.5t-14 12.5q16 79 4 133t-48 86t-94 46t-133 14
q-143 0 -268.5 -47t-229.5 -126t-184 -181t-131 -213q-66 -143 -87 -266.5t10 -215t117.5 -144t234.5 -52.5q92 0 150.5 15t84.5 38q11 9 29.5 36t39.5 73l38 81q27 57 38 91t6.5 52.5t-24 26t-55.5 12.5q-20 2 -43 5.5t-43 5.5q-16 11 -1 39q14 27 39 36q43 -4 119 -5
t168 -1q114 0 219 6q6 -4 5.5 -14t-5 -21t-13 -22t-18.5 -18l-37 -4q-27 -4 -48 -16t-38 -31.5t-32 -47t-31 -62.5z" />
    <glyph glyph-name="H" unicode="H" horiz-adv-x="1651" 
d="M517 651q-32 0 -50 -1.5t-29.5 -7t-18 -16t-14.5 -27.5l-133 -284q-35 -75 -53 -120.5t-18 -70.5t18 -34.5t54 -13.5l57 -6q14 -12 -1 -41q-7 -14 -17.5 -22.5t-21.5 -12.5q-37 2 -69 3t-59 2h-12q-28 1 -57 1h-58q-60 0 -112 -1.5t-106 -3.5q-5 0 -9.5 -0.5t-9.5 -0.5
q-8 3 -9 12.5t2.5 21t12 23t19.5 18.5l42 7q39 7 65 17t48.5 35t45.5 69t58 118l338 724q34 74 51 119.5t17 71.5t-15.5 36.5t-46.5 14.5q-12 1 -27 2t-26 2q-13 13 1 39q8 15 18 23.5t21 13.5q23 -1 44.5 -1t40.5 -1q13 -1 24 -1.5t23 -0.5q29 -1 59 -1.5t62 -0.5
q60 0 116 1t123 5q8 -5 10 -13.5t-4 -23.5q-5 -12 -13.5 -22t-22.5 -17l-42 -4q-41 -5 -68 -15t-49.5 -35.5t-46.5 -71t-59 -120.5l-108 -231q-9 -20 -12 -30.5t3.5 -15t23.5 -5.5t49 -1h576q32 0 50 1t29 5.5t18 15t16 30.5l108 231q34 74 52 119t18.5 70.5t-16.5 36.5
t-52 16q-9 1 -20 2t-19 2q-14 13 1 39q14 28 39 37q35 -2 65.5 -3t59.5 -2t57.5 -1h60.5q59 0 115.5 1t126.5 5q18 -8 7 -37q-11 -27 -37 -39l-46 -4q-41 -5 -67.5 -15t-49.5 -35.5t-46.5 -71t-58.5 -120.5l-338 -724q-34 -73 -51.5 -117.5t-18 -70t16.5 -36t52 -15.5
q11 -2 23.5 -3t23.5 -3q14 -11 -2 -41q-7 -14 -17.5 -22.5t-21.5 -12.5q-71 4 -127 5t-115 1q-63 0 -122 -1t-127 -5q-6 3 -6.5 12t3.5 21t12 23.5t18 18.5l46 7q43 7 70.5 17t50 35t45 69t57.5 118l133 284q8 17 10.5 27.5t-3.5 16t-23 7t-49 1.5h-576z" />
    <glyph glyph-name="I" unicode="I" horiz-adv-x="692" 
d="M416 1035q35 75 53 121t18.5 72t-16 37t-51.5 16q-12 1 -25.5 2t-24.5 2q-15 13 0 39q8 15 18 23.5t21 13.5q35 -2 65.5 -3t56.5 -2h11q28 -1 58 -1h62h59.5t58.5 1h10q26 1 59 2t68 3q8 -5 9.5 -13.5t-4.5 -23.5q-5 -12 -13.5 -22t-21.5 -17l-54 -4q-41 -5 -68 -16
t-51 -37t-48.5 -72t-59.5 -121l-334 -716q-35 -75 -53 -120t-18 -70.5t17.5 -36.5t53.5 -16q11 -2 24 -3t24 -3q13 -12 -2 -41q-7 -13 -15.5 -21.5t-22.5 -13.5q-34 2 -65.5 3t-57.5 2h-10q-27 1 -56.5 1h-59.5h-62.5t-59.5 -1h-10q-26 -1 -58.5 -2t-68.5 -3q-6 3 -6.5 12
t4 21t12.5 23.5t19 19.5l56 6q40 5 67 16t50.5 36.5t48 70.5t59.5 120z" />
    <glyph glyph-name="J" unicode="J" horiz-adv-x="707" 
d="M615 1035q37 79 53 125.5t13.5 72t-22.5 34.5t-56 14q-12 1 -26 2t-25 2q-15 13 0 39q8 15 18 23.5t22 13.5q38 -2 71 -3t59 -2h17q28 -1 59 -1h63q60 0 116 1t118 5q18 -8 7 -37q-11 -27 -37 -39l-33 -4q-43 -6 -70.5 -17t-50.5 -36.5t-47 -71t-59 -121.5l-348 -746
q-57 -122 -113 -223t-118 -173q-55 -63 -120.5 -117t-136 -94.5t-144.5 -63.5t-146 -23q-11 0 -27 1.5t-29.5 6.5t-20 16t2.5 31q14 29 54 67l-1 -1q43 40 82 40q18 0 36.5 -3t35.5 -11v1q19 -6 36.5 -9.5t38.5 -3.5q26 0 48.5 13t40.5 32q16 17 35.5 43.5t39.5 59
t40.5 68.5t39.5 71q20 37 39 73.5t36 71.5q5 9 9 17t7 16q24 49 38 79z" />
    </font>
</defs>
</svg>
