<?xml version="1.0" standalone="no"?>
<!DOCTYPE svg PUBLIC "-//W3C//DTD SVG 1.1//EN" "http://www.w3.org/Graphics/SVG/1.1/DTD/svg11.dtd" >
<svg>
<metadata>
Created by FontForge 20120731 at Thu Jan 17 11:25:40 2013
 By Stefan Warting
Copyright (c) 2012 by Sri Chatanya Saraswat Math. All rights reserved. (c) 1989, 1992, 1994, 1996, 1998, 1999, 2000, 2001 Adobe Systems Incorporated. All rights reserved.
</metadata>
<defs>
<font id="Nadia-Bold" horiz-adv-x="520" >
  <font-face 
    font-family="Nadia"
    font-weight="700"
    font-stretch="normal"
    units-per-em="1000"
    panose-1="2 0 8 3 0 0 0 2 0 3"
    ascent="800"
    descent="-200"
    x-height="403"
    cap-height="663"
    bbox="-562 -499 1353 1146"
    underline-thickness="50"
    underline-position="-50"
    unicode-range="U+0020-E415"
  />
<missing-glyph horiz-adv-x="500" 
d="M0 700h500v-700h-500v700zM420 650h-340l170 -255zM450 95v510l-170 -255zM420 50l-170 255l-170 -255h340zM50 95l170 255l-170 255v-510z" />
    <glyph glyph-name=".notdef" horiz-adv-x="500" 
d="M0 700h500v-700h-500v700zM420 650h-340l170 -255zM450 95v510l-170 -255zM420 50l-170 255l-170 -255h340zM50 95l170 255l-170 255v-510z" />
    <glyph glyph-name="exclam" unicode="!" horiz-adv-x="483" 
d="M367 635q-2 -25 -7 -74.5t-11 -111.5t-11.5 -129.5t-8.5 -128.5h-44q-5 51 -12.5 118t-15 131.5t-13.5 117.5t-8 77q-1 20 -1.5 55t5.5 69t20 59t41 25q28 0 42.5 -25t20.5 -58.5t5.5 -68.5t-2.5 -56zM382 65q0 -33 -24 -57t-58 -24q-35 1 -58 25.5t-22 58.5
q0 16 6.5 30.5t17.5 26t26 17.5t32 6q33 0 56.5 -25t23.5 -58z" />
    <glyph glyph-name="quotedbl" unicode="&#x22;" horiz-adv-x="472" 
d="M136 700q32 0 48 -5t16 -29q0 -8 -2 -21.5t-6 -35.5l-37 -205q-8 -6 -19 -6t-19 6l-37 205q-4 22 -6 35.5t-2 21.5q0 24 16 29t48 5zM336 700q32 0 48 -5t16 -29q0 -8 -2 -21.5t-6 -35.5l-37 -205q-8 -6 -19 -6t-19 6l-37 205q-4 22 -6 35.5t-2 21.5q0 24 16 29t48 5z
" />
    <glyph glyph-name="numbersign" unicode="#" 
d="M234 396l-40 -147h97l39 147h-96zM393 396l-40 -147h88l-11 -64h-94l-50 -182h-60l48 182h-97l-50 -182h-59l48 182h-98l11 64h104l39 147h-99l12 65h104l43 163h64l-44 -163h95l43 163h65l-44 -163h90l-9 -65h-99z" />
    <glyph glyph-name="dollar" unicode="$" 
d="M276 581q-45 -3 -67 -27.5t-22 -59.5q0 -29 17.5 -50t50.5 -38zM260 46q51 4 75 30.5t24 67.5q0 32 -17.5 60t-57.5 49zM329 626q35 -2 64 -8.5t49 -11.5q6 -17 11.5 -53t5.5 -77q-4 -7 -16 -8.5t-18 5.5q-4 12 -11.5 28t-20 31t-30 27.5t-40.5 18.5l-23 -194l49 -21
q21 -9 44.5 -24t44 -37.5t33.5 -52t13 -67.5q0 -80 -61 -129.5t-169 -52.5l-11 -93q-2 -4 -9 -6t-15 -2t-15 2t-9 6l11 95q-54 3 -89.5 16t-48.5 22q-7 7 -13 22t-10 34t-6.5 41.5t-2.5 45.5q5 8 16 9t18 -7q6 -20 19 -41.5t31.5 -40.5t41.5 -33.5t50 -20.5l27 225l-32 14
q-26 11 -50.5 26t-43 35.5t-30 46.5t-11.5 59q0 37 14.5 68t41.5 53.5t66 35.5t87 15l9 76q2 4 9 5.5t15 1.5t15 -1.5t9 -5.5z" />
    <glyph glyph-name="percent" unicode="%" horiz-adv-x="866" 
d="M663 -12q-44 0 -75 19t-50 48t-27.5 63t-8.5 64t8.5 64t27.5 63t50 48t75 19t75 -19t50 -48t27.5 -63t8.5 -64t-8.5 -64t-27.5 -63t-50 -48t-75 -19zM601 183q0 -20 2 -47t9 -51t19.5 -40.5t33.5 -16.5t33 17t18 41t7.5 50.5t1.5 46.5q0 19 -1.5 45.5t-7.5 50.5t-18 40.5
t-33 16.5t-33.5 -16t-19.5 -39.5t-9 -50t-2 -47.5zM204 252q-44 0 -75 19t-50 48t-27.5 63t-8.5 64t8.5 64t27.5 63t50 48t75 19t75 -19t50 -48t27.5 -63t8.5 -64t-8.5 -64t-27.5 -63t-50 -48t-75 -19zM142 447q0 -20 2 -47t9 -51t19.5 -40.5t33.5 -16.5t33 17t18 41
t7.5 50.5t1.5 46.5q0 19 -1.5 45.5t-7.5 50.5t-18 40.5t-33 16.5t-33.5 -16t-19.5 -39.5t-9 -50t-2 -47.5zM268 -40q-14 -3 -27 4t-18 20q94 168 186.5 335t183.5 335q11 2 26 -4.5t19 -19.5q-94 -168 -186.5 -335t-183.5 -335z" />
    <glyph glyph-name="ampersand" unicode="&#x26;" horiz-adv-x="825" 
d="M313 640q36 0 65 -10.5t49.5 -28.5t31 -42.5t10.5 -52.5q0 -27 -10.5 -46.5t-25 -33.5t-30 -23.5t-26.5 -16.5q40 -21 78.5 -59.5t70.5 -80.5q17 29 28.5 52.5t24.5 53.5q11 24 18 43.5t7 26.5q0 13 -27 18l-18 3q-7 5 -6 18.5t9 16.5h41q58 0 108 2t89 4q4 -2 6.5 -6.5
t3 -10t-1.5 -11t-6 -7.5l-27 -4q-25 -4 -41.5 -13t-25.5 -17q-17 -13 -35 -40.5t-40 -59.5q-8 -11 -16.5 -24.5t-17 -26.5t-15.5 -23.5l-11 -16.5q-4 -5 -8 -12t-6 -14h2q0 3 3 -4t14 -25q13 -17 25.5 -35.5t29 -34t38.5 -25.5t55 -10q27 0 53 9.5t37 17.5q6 -2 10 -10
t2 -15q-9 -11 -26.5 -25t-42.5 -26t-57.5 -20.5t-72.5 -8.5q-53 0 -83.5 13.5t-40.5 29.5q-5 9 -15 23.5t-18 31.5q-21 -20 -42 -37.5t-45 -31t-52 -21.5t-63 -8q-50 0 -89.5 13.5t-67.5 37.5t-42.5 56.5t-14.5 71.5q0 43 17 76t41 57t50.5 39.5t46.5 23.5q-27 21 -46 52.5
t-19 67.5q0 38 14.5 67.5t38.5 50t54 31t60 10.5zM189 203q0 -32 11 -57t29.5 -42.5t43 -27t51.5 -9.5q28 0 50.5 9.5t38 21t24 21.5t8.5 11q0 2 -3.5 7.5t-12.5 21.5q-15 25 -34.5 48t-39.5 42.5t-39.5 34.5t-35.5 25q-9 6 -14.5 10t-9.5 4q-2 0 -12.5 -7.5t-22.5 -22.5
t-22 -37.5t-10 -52.5zM375 520q0 28 -14.5 52t-45.5 24q-26 0 -43 -20.5t-17 -52.5q0 -27 11 -46.5t24.5 -33t26 -20t15.5 -7.5q4 1 11 9.5t14 22t12.5 32t5.5 40.5z" />
    <glyph glyph-name="quotesingle" unicode="'" horiz-adv-x="253" 
d="M127 700q32 0 48 -5t16 -29q0 -8 -2 -21.5t-6 -35.5l-37 -205q-8 -6 -19 -6t-19 6l-37 205q-4 22 -6 35.5t-2 21.5q0 24 16 29t48 5z" />
    <glyph glyph-name="parenleft" unicode="(" horiz-adv-x="483" 
d="M330 -97q-46 39 -89 83.5t-76 97t-52.5 114.5t-19.5 138q0 69 18.5 129t50 112t74.5 97.5t92 86.5h68q-50 -52 -87 -99.5t-62 -97t-37 -105.5t-12 -125q0 -75 13 -132t39 -106t64 -95t87 -98h-71z" />
    <glyph glyph-name="parenright" unicode=")" horiz-adv-x="548" 
d="M448 336q0 -76 -19.5 -138t-52.5 -114.5t-76 -97t-90 -83.5h-69q49 52 86.5 98t63 95t38.5 106t13 132q0 69 -12 125t-37 105.5t-62 97t-87 99.5h68q49 -41 92 -86.5t75 -97.5t50.5 -112t18.5 -129z" />
    <glyph glyph-name="asterisk" unicode="*" horiz-adv-x="405" 
d="M355 605q8 -2 13 -11t3 -20l-114 -80l113 -78q2 -9 -2 -18t-12 -13l-125 64l-13 -132q-5 -4 -15.5 -4t-15.5 4l-13 132l-127 -64q-8 3 -11.5 11.5t-1.5 16.5l115 81l-115 81q-2 8 1.5 16.5t11.5 12.5l127 -65l13 133q6 4 16 4t15 -4l13 -133z" />
    <glyph glyph-name="plus" unicode="+" 
d="M217 0v177h-157v72h157v159h88v-159h156v-72h-156v-177h-88z" />
    <glyph glyph-name="comma" unicode="," horiz-adv-x="345" 
d="M284 59q0 -37 -18 -65.5t-41 -48t-45 -31.5t-28 -16q-10 5 -21 9q-10 4 -22 8.5t-26 9.5q42 23 78 48.5t46 56.5q3 9 3 16t-2 12q-14 -4 -31 -3t-31.5 8t-24 21.5t-9.5 36.5q0 38 22.5 53t49.5 15q48 0 74 -35.5t26 -94.5z" />
    <glyph glyph-name="hyphen" unicode="-" horiz-adv-x="378" 
d="M91 267l-73 88h288l77 -88h-292z" />
    <glyph glyph-name="period" unicode="." horiz-adv-x="260" 
d="M130 -14q-15 0 -29.5 6t-26 16.5t-18.5 25.5t-7 33q0 35 23.5 59t57.5 24q18 0 33 -7t25.5 -18.5t16.5 -26.5t6 -31q0 -35 -22.5 -58t-58.5 -23z" />
    <glyph glyph-name="slash" unicode="/" horiz-adv-x="339" 
d="M110 -16h-90l209 692h90z" />
    <glyph glyph-name="zero" unicode="0" 
d="M260 640q61 0 104.5 -29.5t71.5 -76t41.5 -105t13.5 -116.5q0 -60 -13.5 -119t-41.5 -105t-71.5 -74.5t-104.5 -28.5t-104.5 28.5t-71.5 74.5t-41.5 105t-13.5 119q0 58 13.5 116.5t41.5 105t71.5 76t104.5 29.5zM175 313q0 -22 1 -51.5t4 -61t9 -61.5t15.5 -54t23 -38.5
t32.5 -14.5t32.5 14.5t23 38.5t15.5 54t9 61.5t4 61t1 51.5t-1 51.5t-4 61t-9 61.5t-15.5 54t-23 38.5t-32.5 14.5t-32.5 -14.5t-23 -38.5t-15.5 -54t-9 -61.5t-4 -61t-1 -51.5z" />
    <glyph glyph-name="one" unicode="1" 
d="M330 129q0 -30 1.5 -48t7.5 -27.5t17 -13.5t29 -5l41 -3q3 -2 4.5 -7.5t1.5 -11t-2 -10.5t-6 -6q-27 2 -69 2.5t-89 0.5q-50 0 -92.5 -0.5t-69.5 -2.5q-4 1 -6 6t-2 10.5t1.5 11t4.5 7.5l41 3q18 1 29 5t17 13.5t7.5 27.5t1.5 48v327q0 25 -1.5 40.5t-6 25.5t-14.5 14.5
t-26 6.5l-46 6q-7 4 -7.5 17t5.5 18q31 5 64.5 12.5t63.5 15.5q33 10 58.5 21t30.5 11q4 0 8 -2.5t6 -8.5q-2 -17 -2.5 -49t-0.5 -70v-385z" />
    <glyph glyph-name="two" unicode="2" 
d="M342 103q27 0 44.5 1t29 6.5t20.5 16.5t20 31q5 5 18 4.5t16 -10.5q-3 -23 -9 -47t-12.5 -45t-14 -37.5t-13.5 -25.5q-30 2 -61 2.5t-79 0.5h-159q-39 0 -69 -0.5t-43 -2.5q-7 2 -9.5 8.5t-0.5 13.5q29 26 69.5 65t85.5 89q26 28 49.5 58.5t41.5 63.5t29 69t11 76
q0 52 -29 87t-80 35q-43 0 -74 -25t-55 -67q-9 -6 -20 -2t-13 16q31 76 94 116t136 40q44 0 79 -13.5t59.5 -36.5t37.5 -54t13 -66q0 -29 -6.5 -55.5t-24 -55t-46.5 -61.5t-74 -75l-48 -45q-33 -31 -43 -44t-10 -19q0 -5 4 -8.5t15 -3.5h121z" />
    <glyph glyph-name="three" unicode="3" 
d="M213 577q-36 0 -68 -24.5t-55 -58.5q-11 -3 -19.5 3.5t-8.5 15.5q30 61 85.5 94t123.5 33q74 0 116.5 -32t42.5 -83q0 -15 -4.5 -30.5t-18 -31.5t-38 -32.5t-65.5 -34.5q-8 -4 -4.5 -8.5t13.5 -4.5q34 1 64.5 -9.5t53.5 -31t36.5 -49.5t13.5 -65q0 -54 -27.5 -106.5
t-87.5 -97.5q-32 -23 -64.5 -38.5t-63 -24.5t-57 -13t-46.5 -4t-39.5 4t-34.5 12.5t-24.5 22t-9.5 32.5q0 20 15 37.5t45 17.5q13 0 24 -6.5t19.5 -15t14.5 -17.5t9 -14q9 -14 20.5 -18.5t22.5 -4.5q16 0 39 11t44 33t36 56t15 80q0 67 -31.5 110t-85.5 43
q-31 0 -55.5 -12.5t-43.5 -29.5q-15 3 -22.5 17t-0.5 31q15 6 36.5 14.5t44 19t44 23t36.5 24.5q14 11 28 33.5t14 56.5q0 28 -22.5 50.5t-59.5 22.5z" />
    <glyph glyph-name="four" unicode="4" 
d="M277 157q0 20 -3.5 24.5t-19.5 4.5h-231q-9 4 -11.5 13t0.5 19l325 464q8 12 15 18t18 6h29q13 0 17 -6t-7 -21l-300 -416q-7 -10 -4.5 -15.5t26.5 -5.5h123q16 0 19.5 4.5t3.5 24.5v140q0 17 5 24t17 12q10 4 24 9.5t28 10t26.5 8t18.5 3.5q13 0 13 -17v-190
q0 -20 3.5 -24.5t19.5 -4.5h66q6 -3 8.5 -11t2.5 -17t-2.5 -17t-8.5 -11h-66q-16 0 -19.5 -4.5t-3.5 -24.5v-28q0 -31 1.5 -49t7 -28t15 -13.5t26.5 -4.5l21 -2q3 -2 4.5 -7.5t1.5 -11t-2 -10.5t-6 -6q-27 2 -63.5 2.5t-71.5 0.5q-50 0 -92 -0.5t-68 -2.5q-4 1 -6 6t-2 10.5
t1.5 11t4.5 7.5l41 3q18 1 29 4.5t17 13t7.5 27.5t1.5 49v28z" />
    <glyph glyph-name="five" unicode="5" 
d="M430 654q11 0 11 -12q-7 -29 -21.5 -57t-33.5 -46l-226 -25q-11 -2 -15.5 -9t-7.5 -20l-6 -23q-5 -17 3.5 -22t23.5 -7q20 -2 46 -6t54 -10t55 -14t49 -19q42 -21 74 -63t32 -104q0 -39 -11 -71.5t-30 -59t-45.5 -47.5t-57.5 -38t-65.5 -29t-69.5 -20t-70 -12t-66 -5
q-6 3 -9.5 9t-4 13.5t1 14.5t6.5 10q27 1 55 4.5t54.5 9t49.5 13t41 18.5q45 26 69 60t24 75q0 54 -25 85.5t-62.5 48.5t-81.5 23t-81 9q-24 2 -29.5 9.5t-0.5 24.5l60 230q5 19 13 23t32 7z" />
    <glyph glyph-name="six" unicode="6" 
d="M29 254q0 85 35.5 164.5t95.5 137.5q29 28 65.5 52t77.5 42t85.5 29.5t89.5 13.5q8 -5 9.5 -15.5t-6.5 -19.5q-46 -11 -80 -24.5t-60.5 -30.5t-48 -38t-42.5 -47q-40 -50 -57.5 -117.5t-17.5 -137.5q0 -40 6.5 -81t20 -74.5t34.5 -54.5t49 -21q22 0 37 11t23.5 28
t12 36.5t3.5 37.5q0 25 -5.5 58t-19 62.5t-35.5 49.5t-54 20q-5 1 -10.5 0.5t-12.5 -1.5q-9 6 -7 18q7 8 18.5 16t25 14t28.5 10t28 4q46 0 80 -16t56.5 -42.5t33 -60.5t10.5 -70q0 -49 -16 -89.5t-46 -70t-72.5 -45.5t-94.5 -16q-57 0 -101.5 20t-75 55.5t-46.5 84.5
t-16 108z" />
    <glyph glyph-name="seven" unicode="7" 
d="M361 626h47.5t43.5 0.5t34.5 1t19.5 1.5q5 -2 7.5 -6.5t1.5 -9.5q-19 -28 -43 -68.5t-56 -96.5l-288 -510q-13 -2 -29.5 6t-18.5 25l263 457q17 29 25 47.5t8 31.5q0 10 -9 13t-20 3h-212q-22 0 -35.5 -2t-23 -7t-16.5 -14.5t-16 -25.5q-6 -7 -18.5 -4t-15.5 11
q13 37 22.5 79t16.5 71q12 -1 23.5 -1.5t25 -1t30.5 -0.5h41h192z" />
    <glyph glyph-name="eight" unicode="8" 
d="M255 -14q-44 0 -83.5 10t-69.5 30t-48 50.5t-18 71.5q0 56 36.5 96t95.5 70q-47 26 -76.5 63t-29.5 91q0 37 14.5 68.5t41.5 54.5t64.5 36t84.5 13q42 0 77.5 -11t61 -31.5t40 -49t14.5 -64.5q0 -27 -9.5 -47.5t-25 -37t-35 -29.5t-39.5 -24q28 -14 52.5 -31.5t42.5 -40
t28.5 -51t10.5 -64.5q0 -35 -14 -66.5t-42.5 -55t-71.5 -37.5t-102 -14zM271 32q33 0 58 24.5t25 69.5q0 59 -38 95t-100 65q-27 -27 -39 -59t-12 -68q0 -26 7.5 -49.5t21 -40.5t33.5 -27t44 -10zM265 594q-35 0 -58 -26t-23 -67q0 -35 27 -66.5t89 -57.5q23 14 35.5 43.5
t12.5 65.5q0 26 -7.5 46t-19 34t-26.5 21t-30 7z" />
    <glyph glyph-name="nine" unicode="9" 
d="M250 640q57 0 101.5 -20.5t75 -56t46 -82t15.5 -98.5q0 -91 -37 -168t-101 -136q-31 -29 -70 -54t-79.5 -43.5t-80 -29.5t-70.5 -12q-9 4 -10 16t6 17q73 18 128.5 57t92.5 92t56 117.5t19 133.5q0 28 -5 66.5t-17 72.5t-32.5 58t-51.5 24q-18 0 -31.5 -10t-23 -26
t-14.5 -37.5t-5 -43.5q0 -31 6 -61t19 -55t31.5 -42.5t44.5 -21.5q10 -2 15.5 -2h12.5q4 -2 5.5 -8.5t0.5 -12.5q-13 -14 -40.5 -22.5t-58.5 -8.5q-35 0 -66 13.5t-54 37.5t-36.5 56.5t-13.5 70.5q0 48 17 88t47 69.5t70.5 45.5t87.5 16z" />
    <glyph glyph-name="colon" unicode=":" horiz-adv-x="302" 
d="M228 433q0 -29 -20.5 -49.5t-49.5 -20.5t-49.5 20.5t-20.5 49.5t20.5 49.5t49.5 20.5t49.5 -20.5t20.5 -49.5zM232 172q0 -29 -21.5 -50.5t-50.5 -21.5t-50.5 21.5t-21.5 50.5t21.5 50.5t50.5 21.5t50.5 -21.5t21.5 -50.5z" />
    <glyph glyph-name="semicolon" unicode=";" horiz-adv-x="376" 
d="M269 429q0 -31 -21.5 -52.5t-51.5 -21.5t-52 21.5t-22 52.5q0 30 22 51.5t52 21.5t51.5 -21.5t21.5 -51.5zM298 106q0 -25 -10.5 -49.5t-29 -45.5t-43 -37.5t-52.5 -26.5l-75 23q30 16 56 31t44 31t26.5 33t4.5 36q-9 -5 -23 -5q-13 0 -26.5 4t-24 12t-17 21t-6.5 31
q0 32 22 51.5t56 19.5q24 0 42 -11.5t30.5 -29.5t19 -41t6.5 -47z" />
    <glyph glyph-name="less" unicode="&#x3c;" 
d="M455 414v-83l-286 -123v-2l286 -124v-82l-389 177v59z" />
    <glyph glyph-name="equal" unicode="=" 
d="M60 106v72h401v-72h-401zM60 250v72h401v-72h-401z" />
    <glyph glyph-name="greater" unicode="&#x3e;" 
d="M455 236v-59l-389 -177v82l286 124v2l-286 123v83z" />
    <glyph glyph-name="question" unicode="?" horiz-adv-x="640" 
d="M596 572q1 -43 -16 -76t-42.5 -59t-55.5 -46.5t-54.5 -38.5t-39.5 -34.5t-12 -34.5q5 -13 11 -32.5t15 -26.5q3 -5 17 -14t23 -34l-104 40q-7 11 -15 22t-15 23.5t-12 29t-5 39.5q-1 26 16 47.5t42 41.5t54.5 39t54.5 40.5t41 46.5t14 56q-2 27 -13 43t-26 24.5t-30 10.5
t-24 2q-22 0 -42.5 -12.5t-32.5 -30.5q26 -4 43.5 -22.5t17.5 -54.5q0 -18 -10 -31t-23 -21.5t-26.5 -13t-20.5 -4.5q-24 0 -42 8.5t-30.5 23t-18.5 33t-6 38.5q0 38 17 68t43.5 50.5t58 31.5t61.5 11q42 0 76.5 -15.5t59 -41t38 -58.5t13.5 -68zM478 71q1 -33 -21 -56.5
t-56 -25.5q-16 0 -30.5 5.5t-26 16t-18.5 25t-7 31.5q0 16 5.5 30.5t15.5 25.5t24.5 18t30.5 7q17 1 32 -5t26 -16.5t18 -24.5t7 -31z" />
    <glyph glyph-name="at" unicode="@" horiz-adv-x="769" 
d="M441 541q71 0 126 -22t92 -59.5t56 -86.5t19 -102q0 -49 -17.5 -91t-51.5 -73t-83.5 -48.5t-112.5 -17.5q-22 0 -35 3t-20 7.5t-9.5 9.5t-2.5 8q0 7 2.5 14t6.5 18l21 55l-2 1q-19 -23 -44 -44t-50 -37t-48 -25.5t-39 -9.5q-23 0 -33.5 13.5t-10.5 30.5q0 7 4 22t13 35.5
t23.5 46t35.5 52.5q17 21 39.5 43t48 40t53.5 29.5t56 11.5q26 0 34 -16l24 45q4 1 7.5 1.5t8.5 0.5q34 0 53 -14q-3 -7 -11.5 -27.5t-20 -47.5t-24.5 -57.5t-24.5 -57.5t-20.5 -48t-12 -29q-7 -19 -4.5 -26.5t18.5 -7.5q30 0 61.5 12.5t56.5 36.5t41 59t16 80q0 52 -19 94
t-51.5 71.5t-76 45.5t-93.5 16q-69 0 -125.5 -28t-96.5 -74.5t-62 -107t-22 -125.5q0 -41 13 -87.5t45 -86.5t85.5 -66t135.5 -26q57 0 93.5 11.5t60.5 21.5q8 -3 11 -14t-2 -18q-45 -25 -98 -35.5t-97 -10.5q-66 0 -127.5 19t-109.5 57.5t-76.5 97t-28.5 138.5
q0 87 33 157.5t88 119.5t127.5 75.5t152.5 26.5zM379 139q15 14 32.5 36.5t33.5 47.5t28 47.5t16 36.5q-4 10 -11 17.5t-19 7.5q-6 0 -18 -7t-31 -24q-20 -18 -38 -44t-32 -53t-22.5 -51t-8.5 -38t10 -14q6 0 19.5 6.5t40.5 31.5z" />
    <glyph glyph-name="A" unicode="A" horiz-adv-x="624" 
d="M205 226q-18 0 -23 -3t-10 -17l-39 -116q-5 -15 -6 -22.5t-1 -13.5q0 -10 41 -17l30 -5q5 -5 5.5 -18t-7.5 -17q-26 2 -53.5 2t-59.5 1q-26 0 -47 -1.5t-56 -1.5q-8 5 -8 17t5 18l27 3q18 2 33 11.5t28 38.5q13 30 28 68t35 92l91 244q17 48 28 76.5t9 50.5q18 4 33.5 14
t27 20t18.5 18t8 8q18 0 23 -20q6 -22 16 -52.5t29 -84.5l136 -392q8 -23 14 -38.5t13.5 -26t16.5 -16.5t23 -8l38 -6q5 -4 5.5 -17t-6.5 -18q-36 2 -75.5 2.5t-78.5 0.5q-38 0 -69 -0.5t-66 -2.5q-8 5 -9 17t7 18l32 5q17 3 22 7.5t5 9.5t-5 22.5t-14 45.5l-27 86
q-4 12 -13 15t-35 3h-119zM319 279q17 0 21.5 4.5t-1.5 24.5l-26 81q-5 16 -11 33.5t-11.5 33.5t-10.5 29.5t-8 21.5q-3 -9 -8 -22.5t-11 -30t-12 -35t-12 -35.5l-25 -75q-7 -20 -2.5 -25t23.5 -5h94z" />
    <glyph glyph-name="B" unicode="B" horiz-adv-x="635" 
d="M114 497q0 38 -1 60t-5.5 34t-13 16.5t-24.5 6.5l-27 4q-3 2 -5 7.5t-2 12t2.5 11.5t8.5 5q57 4 115.5 6.5t133.5 2.5q72 0 121.5 -8.5t82.5 -28.5q32 -20 50.5 -51t18.5 -76q0 -32 -11.5 -54t-28 -37t-33.5 -23t-29 -11q-8 -2 -14 -4.5t-6 -6.5q0 -5 14 -8
q30 -6 56.5 -19.5t46.5 -33.5t32 -48.5t12 -64.5q0 -35 -9 -62t-25.5 -48t-37.5 -35.5t-45 -22.5q-48 -17 -100.5 -21t-98.5 -4q-27 0 -54 2t-49 2q-37 0 -74.5 -0.5t-80.5 -2.5q-3 2 -4.5 7.5t-1.5 11t1.5 10.5t4.5 6l29 6q17 3 27 7.5t15.5 15t7 30t1.5 53.5v353zM252 400
q0 -10 1 -15.5t6 -8.5t15.5 -3.5t30.5 -0.5q32 0 54.5 9.5t36.5 25.5t20.5 36.5t6.5 43.5q0 66 -35.5 98t-87.5 32q-18 0 -27.5 -2t-14 -7.5t-5.5 -16t-1 -26.5v-165zM252 169q0 -29 3 -52.5t12 -40t26.5 -25.5t46.5 -9q56 0 84.5 38.5t28.5 99.5q0 66 -37 107t-109 41
q-21 0 -32 -1t-16 -4.5t-6 -12t-1 -23.5v-118z" />
    <glyph glyph-name="C" unicode="C" horiz-adv-x="689" 
d="M438 676q38 0 71 -4t59 -8.5t45.5 -8.5t30.5 -5q0 -7 0.5 -24t2 -39t4 -46.5t5.5 -46.5q-2 -5 -7 -7.5t-11 -3.5t-11.5 0t-8.5 4q-20 70 -67.5 106.5t-120.5 36.5q-42 0 -83 -18t-73.5 -54.5t-53 -91.5t-20.5 -130t20 -132t52.5 -95.5t75 -58.5t87.5 -20t79 14.5
t58.5 37.5t40.5 50t26 53q6 6 19.5 4t18.5 -11q-5 -56 -16 -98t-22 -59q-41 -11 -92.5 -24t-110.5 -13q-74 0 -144.5 18t-124.5 58q-54 41 -90.5 105t-36.5 157q0 92 34.5 157t86.5 108q54 45 126.5 67t150.5 22z" />
    <glyph glyph-name="D" unicode="D" horiz-adv-x="793" 
d="M114 498q0 36 -1 58t-5.5 35t-14.5 18.5t-27 7.5l-19 2q-4 2 -5.5 7.5t-1.5 11.5t2 11t7 5q31 2 62 3.5t63.5 3t67.5 2t75 0.5q62 0 121.5 -7t111.5 -26q49 -18 87 -48t63.5 -68t39 -82.5t13.5 -91.5q0 -101 -46 -178.5t-133 -120.5q-51 -26 -113 -36.5t-140 -10.5
q-35 0 -70.5 3t-62.5 3q-71 0 -156 -3q-6 5 -6 18t6 17l31 5q17 3 27 7t15.5 14.5t7 30.5t1.5 55v354zM257 181q0 -42 3 -69t17 -43q14 -15 35 -22t48 -7q65 0 109.5 26t71.5 68t39 93.5t12 102.5q0 135 -70 211t-206 76q-42 0 -52 -13q-5 -6 -6 -20.5t-1 -37.5v-365z" />
    <glyph glyph-name="E" unicode="E" horiz-adv-x="593" 
d="M257 400q0 -21 4 -25.5t24 -4.5h69q19 0 32 2t21 7.5t12.5 16.5t8.5 29l5 25q3 3 8 4.5t11 1.5t11 -2t7 -5q-3 -48 -3 -106t3 -106q-2 -3 -7 -5t-11 -2t-11 1.5t-8 4.5l-5 25q-4 18 -8.5 29t-12.5 17t-21 8t-32 2h-69q-20 0 -24 -4.5t-4 -26.5v-119q0 -35 3.5 -58.5
t12.5 -36.5q5 -7 11.5 -12t18.5 -8t30 -4.5t45 -1.5q33 0 56.5 2t43.5 13.5t37.5 35t38.5 65.5q6 8 20 6t17 -11q-2 -20 -6.5 -43.5t-10.5 -46t-13 -41.5t-12 -29q-20 1 -47 1.5t-57.5 1t-63 0.5h-63.5h-130q-36 0 -75.5 -0.5t-96.5 -2.5q-6 5 -6 18t6 17l47 7q17 3 27 6.5
t15.5 14t7 30t1.5 54.5v373q0 34 -1.5 53.5t-7 30t-15.5 15t-27 7.5l-25 5q-7 5 -6.5 17.5t8.5 17.5q70 -3 144 -3h212q48 0 86 0.5t48 2.5q0 -6 1.5 -21.5t3.5 -37t4 -46.5l4 -50q-3 -8 -16 -9.5t-21 5.5q-8 26 -18 47t-20 32q-14 14 -37.5 22.5t-60.5 8.5h-80
q-12 0 -19 -1t-10 -4.5t-3.5 -11.5t-0.5 -22v-175z" />
    <glyph glyph-name="F" unicode="F" horiz-adv-x="548" 
d="M257 392q0 -20 4 -25t24 -5h77q20 0 32.5 2t20.5 8t12.5 17t8.5 29l5 24q3 3 8 4.5t11 1.5t11.5 -2t7.5 -5q-3 -48 -3 -107q0 -28 0.5 -54.5t2.5 -49.5q-2 -3 -7.5 -5t-11.5 -2t-11 1.5t-8 4.5l-5 24q-4 18 -8.5 29t-12.5 17t-20.5 8t-32.5 2h-77q-20 0 -24 -5t-4 -25
v-135q0 -35 1.5 -55t7 -31t15.5 -15t27 -6l37 -5q5 -5 5 -17.5t-5 -17.5q-47 2 -85 2.5t-74 0.5q-35 0 -73 -0.5t-83 -2.5q-6 5 -6 17.5t6 17.5l33 5q17 3 27 7t15.5 14.5t7 30.5t1.5 55v372q0 35 -1.5 55.5t-7 31.5t-15.5 15t-27 7l-20 3q-7 5 -6.5 18.5t8.5 16.5
q32 -2 68.5 -2.5t72.5 -0.5h210q48 0 86 0.5t49 2.5v-22v-37.5t0.5 -46.5t1.5 -50q-3 -8 -16 -9t-22 5q-8 31 -14.5 49.5t-14.5 28.5q-13 16 -36.5 24.5t-61.5 8.5h-78q-12 0 -19 -1t-10 -5t-3.5 -12t-0.5 -23v-181z" />
    <glyph glyph-name="G" unicode="G" horiz-adv-x="734" 
d="M663 113q0 -32 3.5 -47.5t17.5 -18.5q3 -3 2.5 -12.5t-5.5 -11.5q-13 -2 -31.5 -5t-38.5 -10q-13 -4 -34.5 -8.5t-46 -8t-50 -5.5t-46.5 -2q-51 0 -97 7t-100 28q-44 18 -80 47t-62 67.5t-40.5 86t-14.5 101.5q0 94 42.5 172.5t133.5 129.5q51 28 110.5 40.5t123.5 12.5
q42 0 73.5 -4t55 -8.5t40.5 -8t29 -3.5q1 -11 2 -29t2.5 -40t3.5 -45.5t6 -46.5q-2 -4 -7 -6.5t-11 -2.5t-11.5 1.5t-8.5 5.5q-48 141 -188 141q-60 0 -104 -23t-73.5 -62.5t-44 -92.5t-14.5 -112q0 -107 32.5 -173t81.5 -99q36 -24 72.5 -31t64.5 -7q21 0 34.5 2.5t21 11
t10.5 23.5t3 39v63q0 20 -1.5 32t-7.5 19t-16.5 10t-28.5 6l-44 6q-8 5 -8 17.5t8 17.5q54 -2 93 -2.5t76 -0.5q36 0 70.5 0.5t60.5 2.5q6 -5 6 -17.5t-6 -17.5l-23 -4q-11 -2 -18 -5.5t-11 -11t-5.5 -20t-1.5 -32.5v-56z" />
    <glyph glyph-name="H" unicode="H" horiz-adv-x="806" 
d="M299 317q-15 0 -23.5 -0.5t-12.5 -3.5t-5 -9t-1 -16v-144q0 -35 1.5 -55.5t7 -31.5t15.5 -15t27 -6l32 -4q6 -5 6 -17.5t-6 -17.5q-86 3 -152 3q-73 0 -149 -3q-6 5 -6 17.5t6 17.5l24 3q17 2 27 6.5t15.5 15.5t7 31.5t1.5 55.5v372q0 35 -1.5 55.5t-7 31.5t-15.5 15.5
t-27 6.5l-24 3q-6 5 -6 17.5t6 17.5q37 -2 75 -2.5t74 -0.5q34 0 70 0.5t69 2.5q6 -5 6 -17.5t-6 -17.5l-21 -3q-16 -2 -25.5 -6.5t-15 -15.5t-7 -31.5t-1.5 -55.5v-116q0 -11 1 -17t5 -9t12.5 -3.5t23.5 -0.5h208q16 0 24.5 0.5t12.5 3.5t4.5 9t0.5 17v116q0 35 -1.5 55
t-7 31t-15.5 15t-27 7l-27 4q-6 5 -6 17.5t6 17.5q82 -3 152 -3q72 0 141 3q6 -5 6 -17.5t-6 -17.5l-20 -3q-17 -3 -27.5 -7t-16 -15t-7 -31.5t-1.5 -55.5v-372q0 -35 1.5 -55t7 -31t16 -15t27.5 -7l24 -4q6 -5 6 -17.5t-6 -17.5q-75 3 -145 3q-75 0 -147 -3q-6 5 -6 17.5
t6 17.5l22 3q17 2 27 6.5t15.5 15.5t7 31.5t1.5 55.5v144q0 10 -0.5 16t-4.5 9t-12.5 3.5t-24.5 0.5h-208z" />
    <glyph glyph-name="I" unicode="I" horiz-adv-x="371" 
d="M257 146q0 -35 1.5 -55.5t7 -31.5t16 -15t27.5 -7l28 -5q6 -5 5.5 -17.5t-6.5 -17.5q-81 3 -150 3q-71 0 -152 -3q-6 5 -6 17.5t6 17.5l28 5q17 3 27.5 7t16 15t7 31.5t1.5 55.5v368q0 35 -1.5 55.5t-7 31.5t-16 15t-27.5 7l-28 5q-6 5 -6 17.5t6 17.5q81 -3 152 -3
q70 0 151 3q6 -5 6 -17.5t-6 -17.5l-28 -5q-17 -3 -27.5 -7t-16 -15t-7 -31.5t-1.5 -55.5v-368z" />
    <glyph glyph-name="J" unicode="J" horiz-adv-x="383" 
d="M134 514q0 35 -1.5 55.5t-7 31t-16 14.5t-27.5 7l-38 6q-6 5 -6 17.5t6 17.5q48 -2 87 -2.5t74 -0.5q72 0 150 3q6 -5 6 -17.5t-6 -17.5l-26 -5q-17 -3 -27.5 -7.5t-16 -15t-7 -31t-1.5 -55.5v-362q0 -60 -5 -109.5t-18 -83.5q-13 -33 -33 -61.5t-49 -49.5t-66.5 -34
t-85.5 -15q-11 0 -24 1t-24.5 5.5t-19.5 12.5t-8 21q0 14 7.5 30.5t18.5 27.5q13 13 28 13q12 0 25 -7.5t26 -17.5t24.5 -17.5t19.5 -7.5q9 0 14.5 8t9 20t5 26.5t3.5 27.5t5.5 64.5t3.5 131.5v376z" />
    <glyph glyph-name="K" unicode="K" horiz-adv-x="715" 
d="M257 394q0 -25 4.5 -31t13.5 -6q8 0 19 6.5t22.5 15.5t22 19t16.5 17q40 45 79.5 89t63.5 79q13 19 13 26q0 3 -3.5 7t-13.5 6l-35 6q-8 5 -7 18.5t11 16.5q38 -2 67.5 -2.5t56.5 -0.5q28 0 59.5 0.5t61.5 2.5q9 -3 10 -16t-5 -19q-26 -3 -48 -7t-38 -11
q-30 -12 -64.5 -42t-83.5 -86l-46 -52q-8 -8 -10.5 -14t-2.5 -9q0 -4 6.5 -16t29.5 -46q38 -57 82 -125t95 -136q20 -27 36.5 -35.5t37.5 -11.5l32 -5q5 -7 4.5 -19t-7.5 -16q-75 3 -144 3q-38 0 -76.5 -0.5t-80.5 -2.5q-10 3 -10 16.5t8 18.5l25 6q17 5 17 10q0 8 -8 20
q-2 3 -10 15.5t-17.5 27t-18 27.5t-12.5 19l-53 81q-27 42 -42.5 60.5t-32.5 18.5t-20.5 -13.5t-3.5 -54.5v-105q0 -35 1.5 -55.5t7 -31.5t15.5 -15t27 -6l28 -4q6 -5 6 -17.5t-6 -17.5q-80 3 -151 3q-34 0 -72 -0.5t-78 -2.5q-6 5 -6 17.5t6 17.5l28 4q17 2 27 6t15.5 15
t7 31.5t1.5 55.5v372q0 35 -1.5 55.5t-7 31.5t-15.5 15t-27 6l-28 4q-8 5 -8 17.5t8 17.5q75 -3 150 -3q71 0 151 3q7 -5 7 -17.5t-7 -17.5l-28 -4q-17 -2 -27 -6t-15.5 -15t-7 -31.5t-1.5 -55.5v-122z" />
    <glyph glyph-name="L" unicode="L" horiz-adv-x="585" 
d="M257 166q0 -35 3.5 -59t13.5 -36q5 -6 11.5 -11t18 -8t29.5 -4.5t45 -1.5q34 0 58 2.5t43 13.5t37 35t40 68q6 8 19.5 5.5t18.5 -11.5q-2 -20 -7 -43.5t-11 -46.5t-13 -42.5t-12 -29.5q-20 1 -47 1.5t-57.5 1t-63 0.5h-63.5h-134q-35 0 -73 -0.5t-85 -2.5q-7 5 -8 17.5
t5 17.5l38 5q17 2 27 6t15.5 15t7 31t1.5 55v372q0 35 -1.5 55.5t-7 31.5t-15.5 15t-27 6l-29 4q-8 5 -7.5 17.5t9.5 17.5q78 -3 150 -3q73 0 148 3q6 -5 6 -17.5t-6 -17.5l-26 -4q-17 -3 -27 -7t-15.5 -15t-7 -31t-1.5 -55v-350z" />
    <glyph glyph-name="M" unicode="M" horiz-adv-x="908" 
d="M34 628q-6 6 -5.5 19.5t8.5 15.5q51 -3 126 -3q25 0 48 0.5t50 2.5q0 -23 6 -46.5t17 -50t25 -56t31 -64.5l66 -141q3 -8 11 -22t17 -30t17.5 -31.5t13.5 -24.5q10 18 23 43.5t33 70.5l51 110q18 39 32 69.5t25 58t20.5 55t17.5 59.5q35 -3 55.5 -3h43.5q25 0 56.5 0.5
t58.5 2.5q8 -5 8.5 -16t-5.5 -19l-29 -5q-31 -5 -46 -18.5t-15 -53.5q0 -77 0.5 -138t1.5 -112t2.5 -97t3.5 -93q1 -35 8.5 -53t36.5 -22l32 -4q6 -6 6 -19t-8 -16q-35 2 -68 2.5t-70 0.5q-34 0 -73 -0.5t-75 -2.5q-9 4 -10 17t7 18l30 4q17 2 26.5 6t14 12.5t5 23t0.5 37.5
l-2 260v114h-2q-56 -121 -113 -244.5t-107 -251.5q-9 -7 -20 -7q-7 0 -14 1.5t-12 4.5q-10 31 -26 71t-35.5 85t-41 92.5t-42.5 93t-40 86.5t-33 74h-2q-3 -49 -4 -85.5t-2 -75.5q0 -24 -0.5 -54t-1 -60.5t-0.5 -59.5v-51q0 -19 1.5 -31.5t6.5 -20t14 -12t24 -6.5l39 -6
q6 -5 5 -18t-7 -17q-28 2 -58.5 2.5t-59.5 0.5q-50 0 -110 -3q-5 1 -7.5 6t-3 11t1.5 11t5 7l18 3q19 3 30.5 7t18 11.5t9.5 21.5t5 37q4 37 6.5 98t7.5 133q3 51 4.5 106t1.5 96q0 43 -16 58.5t-46 20.5z" />
    <glyph glyph-name="N" unicode="N" horiz-adv-x="748" 
d="M652 170v-92.5t2 -68.5q-5 -9 -23 -16t-36 -7l-6.5 9t-17 24t-25 34.5t-32.5 41.5l-231 286q-44 54 -69.5 85.5t-39.5 42.5q-4 -8 -4.5 -22t-0.5 -42v-194q0 -30 1 -59t2.5 -53t4.5 -42.5t7 -28.5q7 -16 22.5 -22.5t35.5 -9.5l28 -4q6 -6 5.5 -18t-5.5 -17
q-41 2 -72.5 2.5t-61.5 0.5q-55 0 -112 -3q-5 5 -5.5 17t5.5 18l17 3q20 4 34.5 10.5t20.5 22.5q4 10 7 28.5t4.5 42.5t2 53t0.5 59v254q0 21 -0.5 34.5t-1 23t-2 16t-3.5 11.5q-6 13 -18.5 21.5t-38.5 12.5l-28 4q-5 6 -4.5 19.5t8.5 15.5q35 -2 71 -2.5t67 -0.5q52 0 84 3
q8 -34 52.5 -90.5t112.5 -137.5l84 -99q33 -39 56 -66t40 -44q3 8 3.5 19.5t0.5 25.5v138q0 30 -1 59t-2.5 53t-4.5 42.5t-7 28.5q-7 16 -22.5 22.5t-35.5 9.5l-27 4q-6 6 -5.5 18t5.5 17q41 -2 72 -2.5t62 -0.5q53 0 112 3q5 -5 5.5 -17t-5.5 -18l-18 -3q-20 -3 -33.5 -10
t-20.5 -23q-4 -10 -7 -28.5t-4.5 -42.5t-2.5 -53t-1 -59v-239z" />
    <glyph glyph-name="O" unicode="O" horiz-adv-x="788" 
d="M397 676q78 0 142.5 -25t111 -70.5t72 -108.5t25.5 -139q0 -82 -26 -146.5t-73.5 -109.5t-114 -69t-147.5 -24q-75 0 -139 24t-110 68t-72 107.5t-26 141.5q0 74 26.5 138t73.5 111.5t113 74.5t144 27zM588 320q0 64 -13.5 120.5t-39.5 98.5t-63 66.5t-83 24.5
t-81.5 -20.5t-59.5 -58t-36 -89t-12 -114.5q0 -30 4 -65.5t13 -71t24.5 -68.5t38.5 -58t54 -40t72 -15q49 0 83.5 22.5t56.5 61.5t32 92t10 114z" />
    <glyph glyph-name="P" unicode="P" horiz-adv-x="601" 
d="M114 498q0 38 -1 60.5t-5.5 34.5t-13 16.5t-24.5 6.5l-31 4q-7 4 -6.5 16.5t8.5 17.5q50 4 107.5 6.5t123.5 2.5q64 0 107.5 -7t75.5 -19q23 -9 45 -23.5t39 -35.5t27.5 -49.5t10.5 -64.5q0 -41 -12.5 -71t-32.5 -51t-44.5 -33.5t-48.5 -20t-45.5 -10t-34.5 -2.5h-16.5
t-15.5 1q-6 4 -7 13t4 14q31 10 50.5 25.5t30.5 36t15 45t4 52.5t-7.5 55.5t-23 49.5t-39.5 35.5t-58 13.5q-28 0 -33.5 -10.5t-5.5 -40.5v-422q0 -35 1.5 -55t7 -31t15.5 -15t27 -7l32 -5q8 -4 8 -16.5t-8 -17.5q-42 2 -79.5 2.5t-73.5 0.5t-72.5 -0.5t-77.5 -2.5
q-8 5 -9 17.5t7 16.5l28 5q17 3 27 7t15.5 15t7 31t1.5 55v354z" />
    <glyph glyph-name="Q" unicode="Q" horiz-adv-x="788" 
d="M397 676q78 0 142.5 -25t111 -70t72 -108.5t25.5 -140.5q0 -122 -56 -204.5t-153 -118.5q-10 -6 9 -23q24 -23 50 -45.5t54 -42t56 -34.5t57 -22q22 -5 42 -6.5t33 -1.5q22 0 43 8q7 -3 9 -10.5t0 -13.5q-28 -20 -67 -28.5t-76 -8.5q-54 0 -104 13.5t-95.5 36.5t-86 54.5
t-75.5 67.5q-14 15 -24.5 23.5t-28.5 10.5q-62 5 -115.5 31t-93.5 69.5t-63 103.5t-23 134t26.5 138t73.5 111.5t113 74.5t144 27zM389 630q-46 0 -81.5 -20.5t-59.5 -58t-36 -89t-12 -114.5q0 -46 9.5 -101.5t32.5 -104t63 -81t101 -32.5q49 0 83.5 22.5t56.5 62t32 92.5
t10 114q0 64 -13.5 120.5t-39.5 98.5t-63 66.5t-83 24.5z" />
    <glyph glyph-name="R" unicode="R" horiz-adv-x="664" 
d="M114 498q0 37 -1 59.5t-5.5 34.5t-13 16.5t-24.5 6.5l-27 4q-8 4 -7.5 17.5t9.5 17.5q57 4 116.5 6.5t131.5 2.5q64 0 115.5 -9.5t80.5 -26.5q88 -52 88 -148q0 -33 -10 -57.5t-25.5 -42t-34.5 -29.5t-36 -21q-8 -4 -8.5 -9t3.5 -13q49 -101 84 -160t71 -90
q20 -16 38 -21.5t29 -6.5q7 -4 7.5 -12.5t-3.5 -13.5q-12 -5 -34 -7t-45 -2q-69 0 -115 25.5t-79 79.5q-24 40 -42.5 77.5t-35.5 77.5q-9 20 -21.5 27.5t-31.5 7.5q-26 0 -31.5 -3.5t-5.5 -18.5v-123q0 -35 1.5 -54.5t7 -30.5t15.5 -15t27 -7l27 -5q5 -4 5 -17t-5 -18
q-40 2 -75.5 2.5t-71.5 0.5q-38 0 -72.5 -0.5t-73.5 -2.5q-6 5 -6 18t6 17l27 5q17 3 27 7t15.5 15t7 30.5t1.5 54.5v354zM251 371q0 -13 1.5 -20.5t7.5 -11.5t18.5 -5t34.5 -1q27 0 44.5 7t31.5 21q13 13 24.5 38t11.5 70q0 68 -36 108t-95 40q-15 0 -24 -1t-13 -6.5
t-5 -15.5t-1 -28v-195z" />
    <glyph glyph-name="S" unicode="S" horiz-adv-x="506" 
d="M477 187q0 -46 -18 -83.5t-51 -64t-79.5 -41t-103.5 -14.5q-69 0 -111.5 14.5t-58.5 23.5q-7 8 -13 25t-10 39t-6.5 47t-2.5 51q5 10 18.5 10.5t19.5 -7.5q7 -24 23 -52t38.5 -51t50.5 -38.5t60 -15.5q28 0 48 8.5t33.5 23t20 32.5t6.5 37q0 30 -13 54.5t-32.5 44
t-44 34.5t-46.5 26q-27 13 -54 31.5t-48.5 42.5t-35 54t-13.5 67q0 42 15.5 77.5t45.5 60.5t73.5 39t97.5 14q25 0 54.5 -3.5t59.5 -12.5q17 -5 34 -8q6 -17 12 -54.5t6 -88.5q-4 -9 -18 -10t-21 7q-6 19 -17.5 41t-28 40.5t-38 30.5t-48.5 12q-50 0 -76 -27.5t-26 -65.5
q0 -35 26.5 -64.5t64.5 -49.5l66 -35q23 -12 48 -29.5t45.5 -42t34 -56.5t13.5 -73z" />
    <glyph glyph-name="T" unicode="T" horiz-adv-x="645" 
d="M255 585q0 18 -3 23.5t-21 5.5h-62q-27 0 -46 -7.5t-32.5 -21.5t-24 -35.5t-21.5 -48.5q-9 -5 -20.5 -3t-16.5 12q16 52 22 96.5t11 73.5q7 5 14 5q9 0 14 -4q2 -6 4.5 -10.5t11 -6.5t24 -3t44.5 -1h372q25 0 41 0.5t25.5 2.5t15 6.5t8.5 12.5q6 3 13 3q5 0 9 -2.5
t6 -4.5q-4 -13 -7 -33.5t-5 -44t-3 -48.5t0 -46q-4 -7 -18.5 -8t-18.5 5q-6 24 -13 44.5t-18.5 35t-29 23t-45.5 8.5h-60q-18 0 -22.5 -4.5t-4.5 -24.5v-441q0 -35 1.5 -55t7 -31t15.5 -15t27 -6l40 -5q5 -5 5 -17.5t-5 -17.5q-49 2 -87.5 2.5t-72.5 0.5q-36 0 -76.5 -0.5
t-93.5 -2.5q-6 5 -6 17.5t6 17.5l45 5q17 2 27 6t15.5 14.5t7 31t1.5 55.5v441z" />
    <glyph glyph-name="U" unicode="U" horiz-adv-x="740" 
d="M109 516q0 35 -1.5 55t-7 30.5t-15.5 15t-27 7.5l-25 5q-6 5 -6 17t8 17q72 -3 146 -3t146 3q6 -5 6 -17t-6 -17l-24 -4q-17 -3 -27 -7.5t-15.5 -15.5t-7 -31t-1.5 -55v-231q0 -44 4.5 -88t21 -79t49.5 -57t90 -22q48 0 80 19.5t51.5 53.5t27.5 79.5t8 96.5v121
q0 61 -3.5 112t-11.5 71q-7 16 -22.5 22t-35.5 10l-27 5q-6 6 -5.5 17.5t5.5 16.5q41 -2 72 -2.5t62 -0.5q55 0 112 3q5 -5 5.5 -16.5t-5.5 -17.5l-18 -4q-20 -5 -33.5 -11t-20.5 -22q-8 -20 -11.5 -71t-3.5 -112v-112q0 -71 -11.5 -133t-52.5 -108q-33 -35 -85 -53.5
t-113 -18.5q-57 0 -107 11.5t-91 44.5q-39 32 -56.5 88t-17.5 138v250z" />
    <glyph glyph-name="V" unicode="V" horiz-adv-x="642" 
d="M453 248q-38 -91 -60.5 -152.5t-39.5 -103.5q-13 -8 -35 -8q-17 0 -27 8q-4 10 -9 24.5t-10.5 30t-11.5 31t-11 28.5l-162 407q-14 36 -23 56t-16.5 30t-15.5 13.5t-20 6.5l-40 10q-6 8 -4.5 19t8.5 15q38 -1 67.5 -2t68.5 -1q35 0 69.5 0.5t80.5 2.5q6 -5 6 -16t-5 -18
l-30 -6q-25 -6 -25 -19q0 -6 11 -35.5t29 -74.5l88 -225q11 -28 19.5 -49.5t13.5 -34.5q6 13 16.5 35.5t19.5 45.5l38 94q9 24 21 54.5t23.5 60.5t21 55.5t14.5 38.5q10 27 10 36q0 5 -7 8.5t-25 8.5l-32 7q-6 6 -5.5 18t9.5 16q35 -2 64.5 -2.5t58.5 -0.5q49 0 93 3
q6 -3 6.5 -16t-4.5 -18l-26 -5q-21 -4 -34.5 -10.5t-23.5 -22.5q-17 -25 -36 -67t-45 -103z" />
    <glyph glyph-name="W" unicode="W" horiz-adv-x="960" 
d="M981 621q-34 -7 -45 -22q-8 -12 -21.5 -37.5t-33.5 -73.5q-18 -44 -46 -108.5t-57.5 -134.5t-57.5 -137t-46 -116q-5 -4 -14 -6t-19 -2q-16 0 -27 8q-8 18 -18.5 42.5l-19.5 45.5l-42 95q-11 24 -20 45t-16 32q-7 -13 -15.5 -30.5t-18.5 -38.5l-47 -102
q-11 -24 -20.5 -46.5t-21.5 -47.5q-8 -8 -33 -8q-8 0 -13.5 2t-12.5 6q-6 16 -16 39.5t-22 51.5t-25.5 58t-26.5 58l-164 358q-10 22 -17 35t-14 20t-15 10t-20 6l-25 5q-6 8 -5 19.5t9 15.5q55 -3 130 -3q64 0 121 3q6 -3 8 -16.5t-6 -18.5l-18 -3q-25 -4 -25 -15
q0 -5 14.5 -38t37.5 -86l99 -221q21 -47 33.5 -71.5t21.5 -42.5q9 15 24 45.5t27 57.5l13 29q5 12 7.5 21t2.5 14t-4 17t-7 20l-96 211q-9 19 -15 30t-13 17.5t-16.5 9t-23.5 4.5l-10 1q-8 6 -6.5 19t9.5 16q32 -2 62.5 -2.5t63.5 -0.5q76 0 115 3q4 -1 6.5 -6t2.5 -11
t-1 -11t-4 -7l-17 -4q-9 -2 -18 -5.5t-9 -8.5q0 -6 2.5 -14t6.5 -16l30 -69q7 -16 15.5 -34t15.5 -32q8 16 15.5 33.5t15.5 34.5l9 20q13 29 21 49t8 25t-4 8t-16 6l-36 7q-5 5 -4.5 18t7.5 17q22 -2 47.5 -2.5t50.5 -0.5q29 0 55.5 0.5t46.5 2.5q3 -2 5 -7t2 -10.5
t-1.5 -10.5t-4.5 -8l-28 -6q-13 -3 -21.5 -5t-16 -8.5t-16.5 -19t-22 -34.5q-18 -31 -35 -64t-27 -53q-7 -14 -14.5 -31t-7.5 -21q0 -2 1.5 -7.5t6.5 -17.5l47 -101q20 -42 30.5 -66t15.5 -35q36 88 75.5 180.5t75.5 184.5q3 6 7 18t8.5 24.5t7.5 23.5t3 15q0 8 -9.5 11.5
t-19.5 6.5l-22 6q-6 7 -5 19t8 16q24 -2 52 -2.5t51 -0.5q50 0 92 3q7 -4 7.5 -16.5t-4.5 -18.5z" />
    <glyph glyph-name="X" unicode="X" horiz-adv-x="665" 
d="M11 33q22 3 38.5 9t29.5 15.5t24.5 22.5t23.5 30q11 14 26 35t32 45t34.5 50t33.5 50q14 20 14 31q0 3 -4 12t-14 23q-12 18 -29.5 44.5t-37 56t-39 59.5t-37.5 55q-17 25 -36 36.5t-53 17.5l-17 3q-7 6 -7 18t8 17q24 -2 67 -2.5t89 -0.5q61 0 95 0.5t57 2.5
q8 -4 8.5 -16.5t-4.5 -18.5l-22 -4q-12 -2 -23 -6t-11 -9q0 -7 3.5 -15t12.5 -24q20 -35 45.5 -74t48.5 -73q28 42 53 80t48 78q8 14 9.5 20t1.5 10q0 7 -20 10l-40 7q-6 5 -5.5 18t8.5 17q23 -2 49 -2.5t61 -0.5q73 0 121 3q8 -4 8.5 -16t-4.5 -19l-42 -6
q-16 -2 -29.5 -6.5t-27.5 -18.5q-36 -37 -70 -84t-69 -95q-8 -11 -14 -20.5t-6 -13.5q0 -10 14 -31q56 -87 94.5 -146t65.5 -99q13 -20 24.5 -33t23 -21t24 -12t26.5 -6l31 -4q5 -5 5 -17.5t-8 -17.5q-17 1 -32 1.5t-32.5 1t-39.5 0.5h-52q-52 0 -89.5 -0.5t-78.5 -2.5
q-7 3 -9 17t6 18l27 3q37 4 37 14q0 3 -1 6.5t-4 10t-9 16.5t-15 26q-6 10 -21 34t-32 50.5t-32 49t-21 29.5q-29 -43 -61.5 -95.5t-57.5 -100.5q-5 -11 -7 -16.5t-2 -10.5q0 -10 32 -13l26 -3q7 -5 6 -18.5t-9 -16.5q-66 3 -131 3q-25 0 -53.5 -0.5t-51.5 -2.5
q-8 4 -9.5 16t5.5 17z" />
    <glyph glyph-name="Y" unicode="Y" horiz-adv-x="575" 
d="M367 144q0 -35 1.5 -55t7 -31t15.5 -15t27 -6l40 -5q5 -5 5 -17.5t-5 -17.5q-49 2 -87.5 2.5t-74.5 0.5t-74 -0.5t-83 -2.5q-6 5 -6 17.5t6 17.5l34 5q17 3 27 7t15.5 14.5t7 30.5t1.5 55v50q0 19 -0.5 32.5t-3 26t-8 26.5t-15.5 34l-119 246q-15 31 -26.5 44.5
t-37.5 18.5l-34 6q-7 6 -6 19.5t10 15.5q34 -2 65.5 -2.5t75.5 -0.5q46 0 83 0.5t63 2.5q7 -3 8 -16t-6 -19l-34 -8q-14 -3 -19 -5.5t-5 -3.5q0 -6 5 -20.5t21 -49.5l47 -107q11 -25 26 -55t24 -49q22 37 44 82t42 83q27 54 37.5 79t10.5 34q0 5 -11 9t-29 7l-19 4
q-6 4 -6.5 17.5t7.5 17.5q60 -3 112 -3q29 0 52.5 0.5t45.5 2.5q9 -3 9.5 -16.5t-5.5 -18.5l-26 -5q-14 -2 -29 -7.5t-23 -16.5q-11 -14 -31 -45.5t-56 -96.5l-63 -114q-10 -18 -16.5 -32t-10 -28.5t-5 -31t-1.5 -37.5v-70z" />
    <glyph glyph-name="Z" unicode="Z" horiz-adv-x="614" 
d="M252 614q-44 0 -71 -6t-45 -20t-30 -36t-25 -53q-10 -6 -23 -3.5t-18 10.5q14 53 22.5 95t16.5 82q3 3 11.5 3t14.5 -2q2 -8 5.5 -12.5t11.5 -7t24 -3.5t44 -1h286q52 0 78 0.5t39 2.5q8 -5 6 -15q-12 -13 -51 -67.5t-99 -146.5l-109 -169q-38 -59 -62.5 -97t-38.5 -60.5
t-19.5 -33.5t-5.5 -15q0 -3 3 -5.5t12.5 -4t28 -2.5t48.5 -1h93q37 0 63 4t46.5 17t38.5 38t39 67q9 6 21.5 3.5t17.5 -10.5q-2 -21 -7 -46t-11 -49t-13 -44t-13 -29q-32 1 -58.5 1.5t-51.5 1t-49 0.5h-50h-252q-77 0 -101 -3q-5 2 -7.5 7t-0.5 10q6 6 16.5 21.5t23.5 35
t27 40t25 37.5l197 300q7 10 18.5 28t23.5 38t23.5 39t18.5 31q5 10 7.5 14.5t2.5 9.5q0 3 -7.5 4.5t-26.5 1.5h-108z" />
    <glyph glyph-name="bracketleft" unicode="[" horiz-adv-x="396" 
d="M55 -149v963h258v-75h-177v-811h177v-77h-258z" />
    <glyph glyph-name="backslash" unicode="\" horiz-adv-x="321" 
d="M301 -16h-90l-191 692h90z" />
    <glyph glyph-name="bracketright" unicode="]" horiz-adv-x="488" 
d="M105 -149v77h177v811h-177v75h258v-963h-258z" />
    <glyph glyph-name="asciicircum" unicode="^" 
d="M372 244l-111 263l-111 -263h-90l167 382h68l166 -382h-89z" />
    <glyph glyph-name="underscore" unicode="_" horiz-adv-x="500" 
d="M500 -125h-500v50h500v-50z" />
    <glyph glyph-name="grave" unicode="`" horiz-adv-x="380" 
d="M276 473q-3 -19 -25 -16l-141 139q-10 10 -16 19.5t-6 17.5q0 15 27 36q13 9 22 12.5t17 3.5t15.5 -6.5t15.5 -23.5z" />
    <glyph glyph-name="a" unicode="a" horiz-adv-x="443" 
d="M371 137q-2 -26 2.5 -42.5t11 -26t15 -13.5t16.5 -4q9 0 17.5 2.5t20.5 9.5q7 -2 10.5 -9t1.5 -14q-5 -6 -15.5 -15t-25.5 -18t-34.5 -15t-40.5 -6q-26 0 -45 9t-39 26q-9 8 -16 8q-5 0 -21 -11q-14 -10 -35.5 -21t-49.5 -11q-22 0 -42 6.5t-35.5 19.5t-25 33t-9.5 46
q0 38 24.5 62.5t79.5 41.5q29 9 51 15.5t43 12.5q14 4 18.5 9t5.5 11q1 8 1.5 16.5t0.5 17.5q0 14 -3 29.5t-10 28t-18 20.5t-27 8q-18 0 -32.5 -12.5t-19.5 -44.5q-2 -12 -6 -19.5t-11 -12.5q-6 -4 -15 -8t-19.5 -7.5t-20.5 -5.5t-17 -2q-13 0 -18 7t-5 18q0 20 15 41.5
t33 35.5q13 10 30.5 21t39.5 20t46.5 14.5t51.5 5.5q63 0 97.5 -33.5t30.5 -111.5zM251 163q1 12 -0.5 15.5t-6.5 2.5q-34 -5 -59 -20t-25 -50q0 -24 15 -42t36 -18q23 0 30 13t8 36z" />
    <glyph glyph-name="b" unicode="b" horiz-adv-x="532" 
d="M196 411q0 -13 3.5 -18t8.5 -7q20 11 47 19.5t59 8.5q42 0 76.5 -15t59 -42t38 -63.5t13.5 -79.5q0 -54 -18 -96.5t-51 -72t-78 -44.5t-99 -15q-34 0 -63.5 6t-43.5 12q-23 9 -31 9t-18.5 -5t-15.5 -10q-11 -2 -20 7q3 19 3 99v452q0 30 -2.5 42t-17.5 21l-17 10
q-5 5 -5 15t5 15q32 8 74 23.5t80 32.5q11 0 17 -7q-2 -31 -3 -64.5t-1 -81.5v-151zM196 141q0 -20 4.5 -39t15.5 -36q10 -15 25 -24.5t34 -9.5q24 0 41 12.5t27.5 33t15 48t4.5 57.5q0 37 -8.5 68t-24.5 53.5t-37.5 34.5t-47.5 12q-14 0 -24 -3t-16 -8q-5 -4 -7 -16t-2 -30
v-153z" />
    <glyph glyph-name="c" unicode="c" horiz-adv-x="416" 
d="M281 414q26 0 55.5 -4.5t49.5 -12.5q10 -8 15.5 -20t5.5 -32q0 -23 -8.5 -40t-17.5 -17q-4 0 -9 1.5t-7 3.5q-21 30 -48.5 52.5t-54.5 22.5q-24 0 -43 -12.5t-31.5 -33t-19 -46t-6.5 -51.5q0 -30 9.5 -58.5t27.5 -51t44.5 -36t61.5 -13.5q28 0 50 10.5t39 38.5
q9 1 17.5 -4.5t8.5 -17.5q-8 -19 -23.5 -38t-37.5 -34.5t-51 -25t-65 -9.5q-47 0 -86 15t-67 42t-43.5 64t-15.5 81q0 53 20 95t54.5 71t79.5 44.5t96 15.5z" />
    <glyph glyph-name="d" unicode="d" horiz-adv-x="537" 
d="M466 164q0 -35 1 -58t3.5 -36t7 -18t11.5 -5q14 0 22 1.5t21 6.5q8 -7 8.5 -21.5t-7.5 -21.5q-37 -2 -69.5 -8t-56.5 -12t-38.5 -11t-15.5 -5q-5 0 -10 4t-7 10l3 31q-2 13 -9 8q-26 -17 -53 -30t-55 -13q-43 0 -78 15.5t-60 42.5t-39 62.5t-14 76.5q0 53 18.5 95.5
t51 72.5t75.5 46.5t93 16.5q17 0 33 -1.5t24 -3.5q5 2 7.5 7.5t2.5 11.5v128q0 30 -2.5 42t-17.5 21l-17 10q-6 5 -5.5 15t5.5 15q32 8 74 23.5t79 32.5q11 0 17 -7q-2 -31 -2.5 -64.5t-0.5 -81.5v-398zM336 297q0 12 -2 20t-5 14q-9 16 -24.5 26.5t-32.5 10.5
q-19 0 -37 -10t-32.5 -29.5t-23 -49.5t-8.5 -69q0 -25 6 -52.5t19.5 -51t34.5 -38.5t52 -15q21 0 41 12q8 5 10 14.5t2 23.5v194z" />
    <glyph glyph-name="e" unicode="e" horiz-adv-x="420" 
d="M180 237q-17 0 -21 -3t-4 -15q0 -28 9 -54.5t26.5 -47.5t44 -33.5t61.5 -12.5q10 0 22.5 1.5t24.5 7t24 16t22 27.5q8 2 17 -4t9 -19q-15 -32 -36 -53.5t-44.5 -35t-48 -19.5t-46.5 -6q-51 0 -89.5 16.5t-65 44.5t-40 65t-13.5 78q0 47 16 88t45 71t68.5 47.5t86.5 17.5
q39 0 69 -11.5t50 -31.5t30.5 -46t10.5 -55q0 -14 -6.5 -23.5t-29.5 -9.5h-192zM246 281q11 0 22 2t19 7q4 2 5.5 8.5t1.5 14.5q0 25 -13.5 40t-39.5 15q-16 0 -30 -7t-24.5 -17.5t-17 -23t-6.5 -24.5q0 -11 11 -13t35 -2h37z" />
    <glyph glyph-name="f" unicode="f" horiz-adv-x="311" 
d="M240 346q-19 0 -22.5 -4t-3.5 -24v-202q0 -27 1 -43t5 -24.5t11.5 -11.5t19.5 -4l33 -3q6 -5 6 -16.5t-7 -16.5q-35 2 -68 2.5t-68 0.5q-34 0 -64.5 -0.5t-53.5 -2.5q-7 5 -7 16.5t6 16.5l16 2q13 1 21 4.5t12.5 12t5.5 24.5t1 43v202q0 20 -4 24t-21 4h-37q-5 3 -6 13
t3 14l43 22q10 5 16 10.5t6 15.5q0 16 1.5 37t4.5 43.5t8.5 44.5t13.5 40q11 25 27 48t39.5 41t55.5 29t74 11q22 0 43 -5.5t37.5 -16t26.5 -26t10 -34.5q0 -25 -16 -39.5t-42 -14.5q-16 0 -25.5 6t-14.5 12q-32 41 -47 53.5t-24 12.5q-20 0 -31 -26t-11 -96v-113
q0 -20 3.5 -24t22.5 -4h95q7 -4 7 -20q0 -10 -3 -19.5t-10 -14.5h-89z" />
    <glyph glyph-name="g" unicode="g" horiz-adv-x="479" 
d="M492 377q9 -8 9 -25q0 -12 -3.5 -23.5t-11.5 -16.5h-74q2 -7 2.5 -14.5t0.5 -20.5q0 -30 -10 -61t-33.5 -56.5t-63 -41.5t-98.5 -16q-12 0 -22.5 1t-18.5 2q-17 -7 -17 -24t14 -26.5t37 -9.5q26 0 56.5 1t65.5 1q28 0 56 -4.5t50 -18t35.5 -37t13.5 -61.5
q0 -48 -25.5 -87.5t-64.5 -63.5q-39 -23 -85 -33.5t-90 -10.5q-54 0 -91.5 11.5t-60.5 29.5t-33.5 41t-10.5 46q0 18 9.5 30t22.5 20q15 9 28 17.5t21 13.5q9 5 8 8.5t-7 5.5q-28 9 -45 31.5t-17 48.5q0 14 7 21q21 14 40 28t24 19q7 5 9.5 10t-1.5 12q-38 15 -61.5 49
t-23.5 80q0 31 12 60t36.5 51.5t61 36t85.5 13.5q45 0 83 -11t66 -26h115zM163 270q0 -57 19.5 -90t49.5 -33q23 0 40 23.5t17 78.5q0 61 -19 90t-46 29q-23 0 -42 -23.5t-19 -74.5zM210 -56q-20 0 -34.5 -4t-21.5 -9q-14 -13 -14 -35q0 -51 35 -81.5t95 -30.5
q48 0 76.5 21.5t28.5 57.5q0 44 -28 62.5t-70 18.5h-67z" />
    <glyph glyph-name="h" unicode="h" horiz-adv-x="547" 
d="M80 556q0 30 -2.5 42t-17.5 21l-17 10q-5 5 -5 15t5 15q32 8 72.5 23.5t80.5 32.5q11 0 17 -7q-2 -31 -2.5 -64.5t-0.5 -81.5v-184q0 -12 7 -12q3 0 16 8q17 11 47 25.5t68 14.5q31 0 55 -10t39.5 -27t23.5 -40t8 -49v-172q0 -26 1 -41.5t5.5 -24t12 -12t21.5 -4.5l16 -2
q6 -5 6 -17.5t-7 -17.5q-47 3 -121 3q-32 0 -61.5 -0.5t-46.5 -2.5q-7 5 -7 17.5t6 17.5l18 3q9 1 14 4t8 10t4 19t1 33v173q0 26 -16.5 46.5t-53.5 20.5q-21 0 -35.5 -8t-20.5 -16q-8 -9 -8 -37v-179q0 -21 1 -33t4 -19t8 -10t14 -4l18 -3q6 -5 6 -17.5t-7 -17.5
q-23 2 -49 2.5t-62 0.5q-31 0 -61 -0.5t-56 -2.5q-7 5 -7 17.5t6 17.5l18 2q12 1 19.5 4.5t11.5 12t5 24t1 41.5v440z" />
    <glyph glyph-name="i" unicode="i" horiz-adv-x="286" 
d="M214 116q0 -26 1 -42t5 -24.5t11.5 -11.5t19.5 -4l19 -2q6 -5 6 -17.5t-7 -17.5q-53 3 -120 3q-34 0 -64.5 -0.5t-55.5 -2.5q-7 5 -7 17.5t6 17.5l19 2q12 1 19.5 4t11.5 11.5t5 24.5t1 42v151q0 30 -2.5 42.5t-16.5 21.5l-14 9q-5 5 -5 15t5 15q18 5 39 12t41.5 15
t38.5 16t29 15q12 0 18 -9q-2 -23 -2.5 -54t-0.5 -65v-184zM152 639q32 0 51 -20.5t19 -50.5q0 -36 -23 -54.5t-52 -18.5q-33 0 -51.5 20t-18.5 51q0 33 22.5 53t52.5 20z" />
    <glyph glyph-name="j" unicode="j" horiz-adv-x="281" 
d="M215 53q0 -52 -5 -92t-16 -69q-10 -27 -24.5 -49.5t-37.5 -42t-57 -36.5t-82 -33q-11 4 -15 15t1 18q16 8 29 18t20 18q29 29 43 84.5t14 147.5v235q0 30 -2.5 42.5t-16.5 21.5l-14 9q-5 5 -5 15t5 15q18 5 39 12t41 15t38 16t30 15q12 0 18 -9q-2 -23 -2.5 -54t-0.5 -65
v-247zM153 639q32 0 51 -20.5t19 -50.5q0 -36 -23 -54.5t-52 -18.5q-33 0 -51.5 20t-18.5 51q0 33 22.5 53t52.5 20z" />
    <glyph glyph-name="k" unicode="k" horiz-adv-x="532" 
d="M76 556q0 30 -2.5 42t-17.5 21l-17 10q-5 5 -5 15t5 15q31 8 73 23.5t80 32.5q11 0 17 -7q-2 -31 -2.5 -64.5t-0.5 -81.5v-314q0 -14 14 -14q13 0 28 5.5t30 22.5l42 49q14 17 19 26t5 14q0 4 -6 6.5t-13 3.5l-25 4q-7 7 -6.5 19.5t8.5 15.5h24q18 0 41 1t48.5 2.5
t51.5 4.5t48 6q8 -4 8.5 -16.5t-4.5 -18.5l-32 -7q-14 -3 -30.5 -11t-36.5 -24q-29 -22 -42.5 -34.5t-24.5 -23.5q-6 -7 -6 -13t7 -17q7 -12 24.5 -40t38 -59t40 -57t28.5 -35q11 -10 25 -14.5t34 -8.5l15 -3q6 -5 5 -18.5t-9 -16.5q-23 2 -52.5 2.5t-73.5 0.5
q-45 0 -73.5 -0.5t-49.5 -2.5q-8 4 -9 16t5 19l13 3q16 3 16 8q0 3 -5.5 13t-11.5 19l-71 108q-10 15 -25 15q-5 0 -8.5 -5t-3.5 -19v-58q0 -26 1 -41.5t5 -24t12 -12t21 -4.5l16 -2q6 -5 6 -17.5t-7 -17.5q-24 2 -54.5 2.5t-65.5 0.5q-70 0 -122 -3q-7 5 -7 17.5t6 17.5
l19 2q13 1 21 4.5t12.5 12t5.5 24t1 41.5v440z" />
    <glyph glyph-name="l" unicode="l" horiz-adv-x="278" 
d="M76 556q0 30 -2.5 42t-17.5 21l-17 10q-5 5 -5 15t5 15q32 8 73.5 23.5t79.5 32.5q11 0 17 -7q-2 -31 -2.5 -64.5t-0.5 -81.5v-446q0 -26 1 -41.5t5 -24t12 -12t21 -4.5l17 -2q6 -5 6 -17.5t-7 -17.5q-50 3 -120 3q-32 0 -63 -0.5t-57 -2.5q-7 5 -7 17.5t6 17.5l19 2
q12 1 19.5 4t11.5 11.5t5 24.5t1 42v440z" />
    <glyph glyph-name="m" unicode="m" horiz-adv-x="806" 
d="M84 267q0 30 -2.5 42.5t-16.5 21.5l-14 9q-5 5 -5 15t5 15q17 5 38 12t41.5 15t38.5 16t30 15q12 0 18 -9q0 -11 -1.5 -25.5t-1.5 -19.5q0 -8 5 -8q2 0 8 3t11 5q8 5 20.5 12t27.5 13t32 10.5t35 4.5q56 0 90 -38q9 -11 14 -14.5t10 -3.5q3 0 10.5 4.5t21.5 12.5
q17 9 45 24t69 15q30 0 52.5 -10t37.5 -27t23 -40t8 -49v-172q0 -26 1 -41.5t5 -24t11.5 -12t19.5 -4.5l16 -2q6 -5 6 -17.5t-7 -17.5q-47 3 -117 3q-30 0 -59.5 -0.5t-49.5 -2.5q-7 5 -7 17.5t6 17.5l16 2q19 2 24 14t5 53v170q0 29 -16 49.5t-51 20.5q-21 0 -36 -8
t-20 -17q-7 -11 -7 -30v-185q0 -41 5 -53t22 -14l16 -2q6 -5 6 -17.5t-7 -17.5q-23 2 -48.5 2.5t-59.5 0.5q-30 0 -58 -0.5t-48 -2.5q-7 5 -7 17.5t6 17.5l16 2q17 2 22 14t5 53v170q0 29 -16 49.5t-52 20.5q-20 0 -34 -8t-20 -16q-8 -9 -8 -37v-179q0 -41 5 -53t24 -14
l16 -2q6 -5 6 -17.5t-7 -17.5q-23 2 -49 2.5t-62 0.5q-69 0 -114 -3q-8 5 -8 17.5t6 17.5l16 2q12 1 19.5 4.5t11.5 12t5 24t1 41.5v151z" />
    <glyph glyph-name="n" unicode="n" horiz-adv-x="550" 
d="M84 267q0 30 -2.5 42.5t-16.5 21.5l-14 9q-5 5 -5 15t5 15q18 5 39 12t41.5 15t38.5 16t29 15q12 0 18 -9q0 -11 -1.5 -25.5t-1.5 -19.5q0 -8 5 -8q2 0 8 3t11 5q8 5 20.5 12t28 13t32.5 10.5t34 4.5q31 0 54.5 -10t39 -27t23.5 -40t8 -49v-172q0 -26 1 -41.5t5.5 -24
t12 -12t21.5 -4.5l16 -2q6 -5 6 -17.5t-7 -17.5q-47 3 -121 3q-30 0 -58 -0.5t-50 -2.5q-7 5 -7 17.5t6 17.5l18 3q9 1 14 4t8 10t4 19t1 33v169q0 29 -16 50t-54 21q-21 0 -35.5 -8t-20.5 -16q-8 -9 -8 -37v-179q0 -41 5 -53t24 -14l16 -2q6 -5 6 -17.5t-7 -17.5
q-23 2 -49 2.5t-62 0.5q-32 0 -62 -0.5t-56 -2.5q-7 5 -7 17.5t6 17.5l16 2q13 1 21 4.5t12.5 12t5.5 24t1 41.5v151z" />
    <glyph glyph-name="o" unicode="o" horiz-adv-x="516" 
d="M255 -14q-45 0 -85.5 13t-71 38.5t-49 64t-18.5 90.5q0 54 19 95t51.5 69.5t74 43t85.5 14.5t84.5 -13.5t71.5 -40t49.5 -66.5t18.5 -93q0 -55 -18.5 -95.5t-50 -67t-73.5 -39.5t-88 -13zM255 368q-33 0 -56.5 -36t-23.5 -118q0 -39 6 -72.5t17.5 -58t28.5 -38t39 -13.5
q21 0 35.5 11.5t23.5 32t12.5 49t3.5 62.5q0 36 -5.5 69t-16.5 58t-27 39.5t-37 14.5z" />
    <glyph glyph-name="p" unicode="p" horiz-adv-x="543" 
d="M77 267q0 30 -2.5 42.5t-16.5 21.5l-14 9q-5 5 -5 15t5 15q15 4 35.5 12t41 17t38.5 18t29 16q5 1 11.5 -2t9.5 -10q-2 -9 -2 -17v-16q0 -12 8 -14q23 11 55 25.5t72 14.5t71.5 -14.5t53.5 -40.5t33.5 -61t11.5 -75q0 -53 -18 -96.5t-50 -74.5t-77 -48.5t-100 -17.5
q-11 0 -24.5 0.5t-20.5 2.5q-7 -2 -11 -7.5t-4 -21.5v-99q0 -26 1 -41.5t5 -24t11.5 -11.5t19.5 -4l34 -3q6 -5 6 -17.5t-7 -17.5q-38 2 -70 2.5t-67 0.5q-65 0 -119 -3q-7 5 -7 17.5t6 17.5l20 2q12 1 19.5 4t11.5 11.5t5 24.5t1 42v406zM207 113q0 -35 23 -58
q10 -11 23 -17t25 -6q47 0 71.5 44.5t24.5 114.5q0 74 -32 114t-82 40q-13 0 -24.5 -3t-17.5 -11q-4 -5 -7.5 -17t-3.5 -41v-160z" />
    <glyph glyph-name="q" unicode="q" horiz-adv-x="528" 
d="M466 -139q0 -26 1 -41.5t5 -24t11.5 -11.5t19.5 -4l34 -3q6 -5 6 -17.5t-7 -17.5q-35 2 -67.5 2.5t-67.5 0.5q-68 0 -125 -3q-7 5 -7 17.5t6 17.5l22 2q13 1 21 4t12 11.5t5 24.5t1 42v130q0 8 -1.5 13.5t-7.5 5.5q-36 -17 -58 -20.5t-41 -3.5q-46 0 -82.5 15.5t-62 42.5
t-39 63t-13.5 76q0 53 19 95.5t52.5 72.5t80 46.5t100.5 16.5q32 0 61.5 -4t46.5 -8q12 -3 19 -3q6 0 12.5 2t17.5 12l6 7q9 1 16 -2t9 -8q-4 -31 -4.5 -59.5t-0.5 -69.5v-420zM336 257q0 32 -6 55t-14 34q-7 8 -18.5 15t-29.5 7q-20 0 -37.5 -11t-31 -30.5t-21.5 -46.5
t-8 -60q0 -44 11.5 -76.5t30 -54t41.5 -32.5t46 -11q11 0 18 2t12 5t6 10t1 15v179z" />
    <glyph glyph-name="r" unicode="r" horiz-adv-x="371" 
d="M84 265q0 30 -2.5 42.5t-16.5 21.5l-14 9q-5 5 -5 15t5 15q17 5 37.5 12t41 15.5t38 16.5t29.5 16q12 0 18 -9q-2 -15 -3 -25.5t-1 -17.5q0 -10 10 -12q10 6 20.5 15t22.5 16.5t25.5 13t29.5 5.5q20 0 37.5 -15t17.5 -44q0 -35 -20 -50t-44 -15q-20 0 -39 18
q-17 14 -25 17t-13 3q-11 0 -15 -15.5t-4 -44.5v-154q0 -26 1 -41.5t5 -24t11.5 -11.5t19.5 -4l32 -3q6 -5 6 -17.5t-7 -17.5q-36 2 -68 2.5t-67 0.5q-31 0 -62 -0.5t-56 -2.5q-7 5 -7 17.5t6 17.5l19 2q12 1 19.5 4t11.5 11.5t5 24.5t1 42v151z" />
    <glyph glyph-name="s" unicode="s" horiz-adv-x="358" 
d="M164 -14q-84 0 -124 31q-8 15 -13 47t-3 66q5 8 17 8.5t17 -6.5q5 -15 14.5 -32.5t22.5 -32.5t29.5 -25t35.5 -10q23 0 37.5 13t14.5 39q0 28 -20 45t-46 30q-45 23 -74 52t-29 74q0 33 12.5 57t34.5 40t51 24t61 8q38 0 68.5 -7.5t38.5 -13.5q8 -17 11.5 -44t3.5 -56
q-3 -8 -16.5 -8.5t-18.5 4.5q-15 44 -34 61.5t-44 17.5q-22 0 -36 -12t-14 -32q0 -17 15 -32t49 -32q51 -25 80.5 -58t29.5 -82q0 -33 -13.5 -58.5t-37 -42t-54.5 -25t-66 -8.5z" />
    <glyph glyph-name="t" unicode="t" horiz-adv-x="323" 
d="M221 346q-10 0 -12 -3t-2 -20v-150q0 -21 1 -42t7.5 -38t21 -27.5t40.5 -10.5q11 0 22 4.5t20 10.5q8 -2 12 -9.5t2 -16.5q-21 -23 -59 -40.5t-85 -17.5q-62 0 -87 32t-25 82v223q0 16 -2.5 19.5t-16.5 3.5h-31q-8 3 -10 14.5t4 16.5q23 8 44 20.5t39 24.5
q14 10 32.5 27.5t41.5 50.5q5 3 15.5 2t14.5 -7v-75q0 -14 2.5 -17t16.5 -3h89q8 -6 8 -19q0 -8 -2.5 -19t-10.5 -16h-90z" />
    <glyph glyph-name="u" unicode="u" horiz-adv-x="544" 
d="M471 132q0 -45 4.5 -65t22.5 -20q10 0 20.5 2.5t19.5 5.5q3 -1 5 -7t2 -13.5t-2.5 -14t-7.5 -8.5q-37 -2 -70 -7.5t-58 -12t-40.5 -11.5t-16.5 -5q-10 1 -12 12q2 9 2.5 19.5t0.5 16.5q0 10 -11 10q-29 -19 -59.5 -33.5t-76.5 -14.5q-63 0 -90 32t-27 96v170
q0 20 -1.5 31.5t-4.5 18t-9 9.5t-15 6l-13 4q-5 7 -4.5 18.5t8.5 16.5q25 1 50 3t47 6q23 4 41.5 10.5t21.5 6.5q5 0 8 -4t4 -8q-2 -19 -2.5 -40t-0.5 -48v-165q0 -18 2 -34.5t9.5 -28.5t21.5 -19.5t38 -7.5q21 0 33.5 7t18.5 12q5 4 8 13t3 17v189q0 30 -8 40t-35 14l-14 2
q-6 5 -5 18.5t10 16.5q27 2 53.5 4.5t50.5 5.5q26 4 46 10t25 6q8 0 10 -12q-1 -14 -2 -37t-1 -51v-182z" />
    <glyph glyph-name="v" unicode="v" horiz-adv-x="457" 
d="M-5 368q-7 5 -7 18.5t10 16.5q28 -2 56 -2.5t68 -0.5q28 0 55.5 1t55.5 2q7 -4 7 -17.5t-5 -17.5l-16 -4q-9 -2 -13 -3.5t-4 -6.5t2.5 -14.5t6.5 -20.5q15 -42 31 -80.5t32 -74.5q17 38 34.5 78t33.5 86q6 15 6 25q0 6 -24 12l-14 3q-7 5 -7 18t8 17q24 -2 42 -2.5
t40 -0.5q24 0 42 1t35 2q8 -4 7.5 -17t-5.5 -18l-17 -3q-11 -2 -19 -5.5t-14 -9.5t-12 -16t-13 -24q-39 -78 -73.5 -157t-69.5 -160q-9 -7 -23 -7t-24 7q-20 47 -34.5 82.5t-29.5 68.5t-31.5 69.5t-40.5 86.5q-9 18 -15 29.5t-12 18t-12.5 10t-15.5 5.5z" />
    <glyph glyph-name="w" unicode="w" horiz-adv-x="682" 
d="M313 400q48 0 88.5 0.5t88.5 2.5q4 0 6 -5t2 -11t-1 -12t-4 -7l-15 -3q-37 -8 -37 -15q0 -6 1.5 -12t6.5 -19q14 -36 32.5 -80.5t35.5 -80.5q18 44 31 81t25 72q9 27 9 39q0 8 -25 14l-17 4q-5 5 -4.5 18.5t8.5 16.5q25 -2 44 -2.5t38 -0.5q44 0 77 3q7 -3 8 -15.5
t-5 -19.5l-14 -3q-12 -3 -20 -6.5t-14 -9.5t-11 -15t-11 -23q-35 -77 -68.5 -157.5t-65.5 -160.5q-7 -7 -23 -7q-8 0 -13 1t-10 6q-8 20 -21 50.5t-27.5 63.5t-29 65t-25.5 56q-10 -20 -25 -52t-30.5 -66.5t-30 -66t-23.5 -50.5q-7 -7 -23 -7q-8 0 -13 1t-10 6
q-36 85 -72.5 169.5t-73.5 162.5q-11 22 -19.5 28t-21.5 10l-18 5q-5 6 -5 18.5t8 16.5q31 -2 57 -2.5t58 -0.5h202zM323 307q0 6 -3 14.5t-8 16t-12 13.5t-14 8q-19 4 -48 4q-24 0 -37.5 -3.5t-13.5 -11.5q0 -11 9 -33q5 -13 14.5 -34.5t20 -45t20.5 -44.5t16 -33l13.5 27
t16.5 35t14.5 33.5t8.5 23.5q2 10 2.5 17t0.5 13z" />
    <glyph glyph-name="x" unicode="x" horiz-adv-x="458" 
d="M433 366q-22 -3 -35 -6.5t-25 -11.5q-5 -3 -14.5 -12t-20 -20.5t-21 -24t-19.5 -23.5q-19 -25 -19 -30t7 -17t14 -22l68 -101q13 -20 24 -32t21 -19t20.5 -10t23.5 -4l11 -1q6 -5 5.5 -18.5t-8.5 -16.5q-66 3 -121 3q-30 0 -64 -0.5t-69 -2.5q-7 3 -8 16.5t5 18.5l22 4
q11 2 14 5t3 6q0 7 -12 27q-11 17 -21 33t-22 33q-11 -16 -21 -32.5t-20 -33.5q-12 -21 -12 -29q0 -4 3.5 -6t14.5 -4l16 -3q6 -5 5 -18.5t-7 -16.5q-44 3 -90 3q-32 0 -78 -3q-7 4 -8.5 16.5t6.5 18.5l25 4q13 2 26.5 7t20.5 13q6 6 17.5 20t24 30.5t24 31.5t16.5 23
q9 15 9 22q0 3 -7.5 14.5t-24.5 38.5l-54 83q-15 23 -29.5 31.5t-31.5 12.5l-21 5q-3 2 -4 7t-1 11t2 11t6 6q29 -2 54.5 -2.5t66.5 -0.5q53 0 107 3q9 -3 9.5 -16.5t-7.5 -18.5l-12 -3q-6 -1 -10.5 -3t-4.5 -4q0 -3 2 -7.5t7 -13.5q10 -17 20 -31.5t21 -29.5
q8 11 19.5 27.5t23.5 34.5q5 7 6 10.5t1 7.5t-16 9l-11 3q-3 2 -4.5 7.5t-1 11t2.5 10t6 6.5q22 -2 43 -2.5t48 -0.5q38 0 76 3q4 -1 6 -6t2 -10.5t-1.5 -11t-4.5 -7.5z" />
    <glyph glyph-name="y" unicode="y" horiz-adv-x="469" 
d="M-6 368q-5 5 -5 18.5t8 16.5q54 -3 132 -3q56 0 112 3q8 -3 8.5 -16.5t-5.5 -18.5l-20 -4q-21 -5 -25.5 -8.5t-4.5 -10.5q0 -9 8 -30t22 -59q4 -11 10 -26.5t12 -32t12 -31.5t11 -24q8 16 15.5 32.5t15.5 33.5l18 41q16 36 26.5 64.5t10.5 36.5q0 5 -6.5 8.5t-15.5 5.5
l-20 4q-7 5 -6 19t9 16q17 -2 40 -2.5t57 -0.5q39 0 78 3q4 -2 6 -6.5t2 -10t-1.5 -11t-4.5 -7.5l-19 -2q-32 -3 -46 -22q-9 -12 -25.5 -41t-33.5 -64l-53 -109q-13 -27 -33.5 -69t-42 -87.5t-42.5 -88t-34 -70.5q-16 -34 -37 -49.5t-49 -16.5q-20 0 -32.5 5.5t-19.5 14
t-9.5 19.5t-2.5 21q0 23 15.5 37.5t41.5 14.5h24q18 0 29.5 5.5t19.5 15.5q8 11 14.5 25t14.5 30q5 9 9.5 21t4.5 21q0 10 -3.5 26t-15.5 47l-96 242q-14 36 -25 51.5t-35 19.5z" />
    <glyph glyph-name="z" unicode="z" horiz-adv-x="415" 
d="M126 0q-41 0 -63 -0.5t-34 -2.5q-11 4 -7 16q6 9 16.5 25.5t23 36.5t25 41.5t23.5 40.5l93 165q11 21 11 29q0 2 -5.5 3.5t-22.5 1.5h-31q-27 0 -44 -4t-27 -15q-6 -6 -15 -20.5t-17 -37.5q-7 -6 -19.5 -3t-16.5 11q2 15 6 34t8 37.5t8.5 35t8.5 25.5q4 4 11 4t10 -4
q1 -6 3 -9.5t7 -6t16 -3t30 -0.5h180q65 0 83 3q3 -2 5 -6t1 -7q-14 -20 -30.5 -48t-40.5 -69l-107 -182q-18 -32 -18 -41q0 -4 9 -5t31 -1h24q32 0 56.5 7t37.5 27q10 15 30 54q6 6 19 4.5t17 -9.5q-1 -14 -5.5 -33.5t-10 -38.5t-11.5 -35t-11 -23q-31 1 -53.5 1.5t-40.5 1
t-33.5 0.5h-32.5h-97z" />
    <glyph glyph-name="braceleft" unicode="{" horiz-adv-x="340" 
d="M239 162q0 -52 -9.5 -103t-9.5 -102q0 -14 2.5 -27t11.5 -25t25.5 -21t44.5 -14q5 -5 4 -15.5t-6 -12.5q-34 0 -64.5 4t-54 17.5t-37 39.5t-13.5 70q0 50 8 103t8 101q0 10 -2 23t-10.5 24.5t-26.5 20t-49 10.5q-5 6 -5 14t5 12q34 2 52 10t26 19.5t9 24t1 24.5
q0 48 -8 101t-8 103q0 44 14.5 70t38 39.5t54 17.5t62.5 4q5 -2 6 -12.5t-4 -15.5q-28 -5 -44.5 -15t-25.5 -22t-11.5 -25.5t-2.5 -24.5q0 -51 9.5 -102t9.5 -103q0 -42 -18 -68t-57 -36v-4q39 -10 57 -36t18 -68z" />
    <glyph glyph-name="bar" unicode="|" horiz-adv-x="248" 
d="M168 -250h-88v1000h88v-1000z" />
    <glyph glyph-name="braceright" unicode="}" horiz-adv-x="340" 
d="M101 162q0 42 18 68t57 36v4q-39 10 -57 36t-18 68q0 52 9.5 103t9.5 102q0 11 -2.5 24.5t-11.5 25.5t-25.5 22t-44.5 15q-5 5 -4 15.5t6 12.5q32 0 62.5 -4t54 -17.5t38 -39.5t14.5 -70q0 -50 -8 -103t-8 -101q0 -12 1 -24.5t9 -24t26 -19.5t52 -10q5 -4 5 -12t-5 -14
q-32 -2 -49.5 -10.5t-26 -20t-10.5 -24.5t-2 -23q0 -48 8 -101t8 -103q0 -44 -13.5 -70t-37 -39.5t-54 -17.5t-64.5 -4q-5 2 -6 12.5t4 15.5q28 5 44.5 14t25.5 21t11.5 25t2.5 27q0 51 -9.5 102t-9.5 103z" />
    <glyph glyph-name="asciitilde" unicode="~" 
d="M323 249q36 0 53.5 18t31.5 56q12 8 30 3.5t26 -18.5q-8 -28 -23 -57.5t-32 -47.5q-14 -17 -32 -21.5t-44 -4.5h-138q-32 0 -51 -21t-34 -58q-6 -3 -14 -4t-16.5 0.5t-15 5.5t-8.5 11q1 9 5.5 23t11.5 29t15.5 30t17.5 26q17 20 38.5 25t51.5 5h127z" />
    <glyph glyph-name="quotesinglbase" unicode="&#x201a;" horiz-adv-x="253" 
d="M114 170q15 0 32.5 -7t32.5 -22t24.5 -38.5t9.5 -56.5q0 -36 -13 -64t-35 -48.5t-50.5 -34.5t-59.5 -21q-13 2 -15.5 14t5.5 17q13 5 28 13.5t28 20.5t21 26.5t8 32.5q0 16 -5 26.5t-13.5 18t-18 11.5t-18.5 6q-13 4 -21.5 15.5t-8.5 28.5q0 26 20 44t49 18z" />
    <glyph glyph-name="quotedblbase" unicode="&#x201e;" horiz-adv-x="472" 
d="M114 170q15 0 32.5 -7t32.5 -22t24.5 -38.5t9.5 -56.5q0 -36 -13 -64t-35 -48.5t-50.5 -34.5t-59.5 -21q-13 2 -15.5 14t5.5 17q13 5 28 13.5t28 20.5t21 26.5t8 32.5q0 16 -5 26.5t-13.5 18t-18 11.5t-18.5 6q-13 4 -21.5 15.5t-8.5 28.5q0 26 20 44t49 18zM333 170
q15 0 32.5 -7t32.5 -22t24.5 -38.5t9.5 -56.5q0 -36 -13 -64t-35 -48.5t-50.5 -34.5t-59.5 -21q-13 2 -15.5 14t5.5 17q13 5 28 13.5t28 20.5t21 26.5t8 32.5q0 16 -5 26.5t-13.5 18t-18 11.5t-18.5 6q-13 4 -21.5 15.5t-8.5 28.5q0 26 20 44t49 18z" />
    <glyph glyph-name="ellipsis" unicode="&#x2026;" horiz-adv-x="1000" 
d="M500 -14q-15 0 -29.5 6t-26 16.5t-18.5 25.5t-7 33q0 35 23.5 59t57.5 24q18 0 33 -7t25.5 -18.5t16.5 -26.5t6 -31q0 -35 -22.5 -58t-58.5 -23zM833 -14q-15 0 -29.5 6t-26 16.5t-18.5 25.5t-7 33q0 35 23.5 59t57.5 24q18 0 33 -7t25.5 -18.5t16.5 -26.5t6 -31
q0 -35 -22.5 -58t-58.5 -23zM167 -14q-15 0 -29.5 6t-26 16.5t-18.5 25.5t-7 33q0 35 23.5 59t57.5 24q18 0 33 -7t25.5 -18.5t16.5 -26.5t6 -31q0 -35 -22.5 -58t-58.5 -23z" />
    <glyph glyph-name="dagger" unicode="&#x2020;" horiz-adv-x="490" 
d="M216 -127v127q0 45 -3.5 82.5t-9.5 69t-13.5 58.5t-14.5 52q23 29 31.5 65.5t8.5 92.5q-20 0 -35.5 -5t-29 -11t-26.5 -11t-27 -5q-24 0 -40.5 14.5t-16.5 40.5q0 25 16.5 39.5t40.5 14.5q14 0 27 -5t26.5 -11t29 -11t35.5 -5q-2 30 -8 50t-12.5 35t-12 28t-5.5 28
q0 30 18 50t50 20t50 -20t18 -50q0 -15 -5.5 -28t-12 -28t-13 -35t-7.5 -50q19 0 35 5t30 11t27 11t27 5q23 0 39.5 -14.5t16.5 -39.5q0 -26 -16.5 -40.5t-39.5 -14.5q-14 0 -27 5t-27 11t-30 11t-35 5q0 -56 8.5 -92.5t31.5 -65.5q-8 -25 -15 -52t-13 -58.5t-9.5 -69
t-3.5 -82.5v-127h-58z" />
    <glyph glyph-name="daggerdbl" unicode="&#x2021;" horiz-adv-x="492" 
d="M246 676q20 0 32.5 -6.5t20 -16.5t10 -21t2.5 -21q0 -15 -5 -28t-11.5 -28t-12.5 -34.5t-7 -47.5q21 0 38.5 5t32.5 10.5t27.5 10.5t24.5 5q23 0 38.5 -15t15.5 -38q0 -24 -15.5 -39t-38.5 -15q-12 0 -24.5 5t-27.5 10.5t-32.5 10.5t-38.5 5q0 -49 9.5 -83.5t32.5 -57.5
q-23 -21 -32.5 -56.5t-9.5 -92.5q21 0 38.5 5t32.5 10.5t27.5 10.5t24.5 5q23 0 38.5 -15t15.5 -41q0 -22 -15.5 -36.5t-38.5 -14.5q-12 0 -24.5 5t-27.5 10.5t-32.5 10.5t-38.5 5q0 -29 5.5 -49t12.5 -36.5t12.5 -32t5.5 -35.5q0 -25 -15.5 -44.5t-49.5 -19.5
q-33 0 -49 19.5t-16 44.5q0 20 5.5 35.5t12.5 32t12.5 36.5t5.5 49q-21 0 -38.5 -5t-32.5 -10.5t-27.5 -10.5t-23.5 -5q-23 0 -39 14.5t-16 36.5q0 26 16 41t39 15q11 0 23.5 -5t27.5 -10.5t32.5 -10.5t38.5 -5q0 57 -9.5 92.5t-32.5 56.5q23 23 32.5 57.5t9.5 83.5
q-21 0 -38.5 -5t-32.5 -10.5t-27.5 -10.5t-23.5 -5q-23 0 -39 15t-16 39q0 23 16 38t39 15q11 0 23.5 -5t27.5 -10.5t32.5 -10.5t38.5 -5q-2 28 -7.5 47.5t-12 34.5t-11.5 28t-5 28q0 10 2.5 21t10 21t20 16.5t32.5 6.5z" />
    <glyph glyph-name="guilsinglleft" unicode="&#x2039;" horiz-adv-x="255" 
d="M143 224q-7 -14 0 -29l76 -163q-3 -6 -8.5 -11t-13.5 -4q-37 44 -74.5 87t-77.5 87q-15 18 0 36q40 43 77.5 85.5t74.5 86.5q6 -2 12.5 -5t9.5 -10z" />
    <glyph glyph-name="quoteleft" unicode="&#x2018;" horiz-adv-x="378" 
d="M283 769q-30 -16 -56 -31t-44 -31t-26.5 -32.5t-4.5 -36.5q8 5 23 5q13 0 26.5 -3.5t24 -12t17 -21.5t6.5 -31q0 -32 -22 -51.5t-56 -19.5q-24 0 -42.5 11.5t-30.5 29.5t-18.5 41t-6.5 47q0 26 10.5 50t29 45t43.5 37.5t53 26.5z" />
    <glyph glyph-name="quoteright" unicode="&#x2019;" horiz-adv-x="447" 
d="M308 658q0 -25 -10.5 -49.5t-29 -45.5t-43 -37.5t-52.5 -26.5l-75 23q30 16 56 31t44 30.5t26.5 32.5t4.5 36q-9 -4 -23 -4q-13 0 -26.5 3.5t-24 12t-17.5 21.5t-7 31q0 31 22.5 50.5t56.5 19.5q24 0 42 -11t30.5 -29t19 -41t6.5 -47z" />
    <glyph glyph-name="quotedblleft" unicode="&#x201c;" horiz-adv-x="612" 
d="M536 763q-44 -23 -72 -42.5t-43 -36.5t-19 -31t0 -25q6 3 14 5.5t22 2.5q27 0 46.5 -19t19.5 -51q1 -32 -20 -52.5t-54 -20.5q-42 0 -72 31t-34 95q-1 24 8.5 49t28.5 47.5t45.5 40.5t59.5 30zM290 763q-45 -22 -73.5 -42t-43.5 -37t-18.5 -31t0.5 -25q5 3 13.5 5.5
t22.5 2.5q26 0 46 -19t20 -51t-20.5 -52.5t-54.5 -20.5q-42 0 -72.5 31t-34.5 95q-1 24 8.5 48.5t28.5 47t46.5 41t60.5 30.5z" />
    <glyph glyph-name="quotedblright" unicode="&#x201d;" horiz-adv-x="645" 
d="M543 658q0 -25 -10.5 -49.5t-29 -45.5t-43 -37.5t-52.5 -26.5l-75 23q30 16 56 31t44 30.5t26.5 32.5t4.5 36q-9 -4 -23 -4q-13 0 -26.5 3.5t-24 12t-17.5 21.5t-7 31q0 31 22.5 50.5t56.5 19.5q24 0 42 -11t30.5 -29t19 -41t6.5 -47zM306 658q0 -25 -10.5 -49.5
t-29 -45.5t-43 -37.5t-52.5 -26.5l-75 23q30 16 56 31t44 30.5t26.5 32.5t4.5 36q-9 -4 -23 -4q-13 0 -26.5 3.5t-24 12t-17.5 21.5t-7 31q0 31 22.5 50.5t56.5 19.5q24 0 42 -11t30.5 -29t19 -41t6.5 -47z" />
    <glyph glyph-name="bullet" unicode="&#x2022;" horiz-adv-x="395" 
d="M197 492q32 0 60.5 -12t49.5 -33t33.5 -49.5t12.5 -61.5t-12.5 -61.5t-33.5 -50t-49.5 -33.5t-60.5 -12t-60 12t-49 33t-33.5 50t-12.5 62t12 61.5t33 49.5t49 33t61 12z" />
    <glyph glyph-name="endash" unicode="&#x2013;" horiz-adv-x="500" 
d="M500 332v-69h-500v69h500z" />
    <glyph glyph-name="emdash" unicode="&#x2014;" horiz-adv-x="1056" 
d="M141 266l-86 83h856l82 -83h-852z" />
    <glyph glyph-name="trademark" unicode="&#x2122;" horiz-adv-x="614" 
d="M114 621q0 8 -1.5 10t-9.5 2h-8q-32 0 -45 -35q-2 -5 -10.5 -4t-9.5 7q5 28 8 44t6 27q2 4 7.5 4t7.5 -4q7 -8 11.5 -10t19.5 -2h127q11 0 16 1.5t14 10.5q2 4 7.5 4t7.5 -4q-3 -14 -4.5 -35.5t-0.5 -38.5q-2 -7 -9.5 -7t-9.5 5q-4 18 -11.5 27.5t-27.5 9.5h-13
q-6 0 -7 -2t-1 -10v-100q0 -23 2.5 -32.5t15.5 -11.5l16 -3q3 -2 2.5 -10.5t-3.5 -9.5q-17 1 -34.5 1h-37.5h-31.5t-26.5 -1q-3 2 -3 9t2 11l16 3q12 2 15 13t3 34v97zM517 600q0 10 -2 11q-1 0 -6.5 -13.5t-12.5 -29.5l-19 -44q-11 -25 -17 -39t-11 -31q-5 -2 -11.5 -3
t-13.5 4q-3 12 -10.5 30.5t-12.5 29.5l-23 55q-8 17 -14.5 31.5t-8.5 15.5q-1 -2 -1.5 -13.5t-2.5 -38.5q-1 -14 -0.5 -32t0.5 -29q1 -17 4.5 -22t15.5 -7l9 -1q2 -2 2 -9t-2 -11q-8 1 -19 1h-28h-26t-21 -1q-2 2 -2.5 9.5t1.5 10.5l6 1q14 2 19 7.5t6 16.5q3 28 6 58.5
t3 53.5q0 14 -6 20t-18 8l-8 2q-6 2 -5.5 10.5t6.5 9.5q13 0 22 -0.5t18 -0.5h26t40 1q0 -8 7.5 -25t15.5 -31l19 -37q7 -15 12 -15q2 0 4.5 2t7.5 10l17 37q7 14 12.5 27.5t10.5 31.5q23 -1 32.5 -1h15.5h26t24 1q5 -1 5 -9.5t-4 -10.5l-10 -2q-13 -2 -16 -7.5t-3 -16.5
v-25t0.5 -29t1 -29.5t1.5 -24.5q2 -17 4 -22t10 -7l15 -4q5 -2 5 -10t-5 -10q-11 1 -23.5 1h-37.5h-32t-23 -1q-2 2 -2.5 10t2.5 10l15 4q9 2 10.5 7t1.5 17z" />
    <glyph glyph-name="guilsinglright" unicode="&#x203a;" horiz-adv-x="255" 
d="M36 384q3 7 9.5 10t12.5 5q37 -44 74.5 -86.5t77.5 -85.5q15 -18 0 -36q-40 -44 -77.5 -87t-74.5 -87q-8 -1 -13.5 4t-8.5 11l76 163q7 15 0 29z" />
    <glyph glyph-name="nonbreakingspace" unicode="&#xa0;" horiz-adv-x="240" 
 />
    <glyph glyph-name="currency" unicode="&#xa4;" 
d="M260 450q-25 0 -47.5 -10t-39.5 -28t-27 -43.5t-10 -55.5q0 -31 10 -56t27 -43t39.5 -28t47.5 -10t47.5 10t39.5 28t27 43.5t10 55.5t-10 55.5t-27 43.5t-39.5 28t-47.5 10zM260 527q35 0 65.5 -9.5t53.5 -26.5l37 49q21 -2 40.5 -18t24.5 -42l-46 -42q18 -21 29.5 -54
t11.5 -71t-11.5 -71t-29.5 -54l46 -42q-5 -26 -24.5 -42t-40.5 -18l-37 49q-23 -17 -53.5 -26.5t-65.5 -9.5t-65.5 9.5t-53.5 26.5l-37 -49q-21 2 -40.5 18t-24.5 42l46 42q-18 21 -29.5 54t-11.5 71t11.5 71t29.5 54l-46 42q5 26 24.5 42t40.5 18l37 -49q23 17 53.5 26.5
t65.5 9.5z" />
    <glyph glyph-name="currency" unicode="&#x20ac;" 
d="M260 450q-25 0 -47.5 -10t-39.5 -28t-27 -43.5t-10 -55.5q0 -31 10 -56t27 -43t39.5 -28t47.5 -10t47.5 10t39.5 28t27 43.5t10 55.5t-10 55.5t-27 43.5t-39.5 28t-47.5 10zM260 527q35 0 65.5 -9.5t53.5 -26.5l37 49q21 -2 40.5 -18t24.5 -42l-46 -42q18 -21 29.5 -54
t11.5 -71t-11.5 -71t-29.5 -54l46 -42q-5 -26 -24.5 -42t-40.5 -18l-37 49q-23 -17 -53.5 -26.5t-65.5 -9.5t-65.5 9.5t-53.5 26.5l-37 -49q-21 2 -40.5 18t-24.5 42l46 42q-18 21 -29.5 54t-11.5 71t11.5 71t29.5 54l-46 42q5 26 24.5 42t40.5 18l37 -49q23 17 53.5 26.5
t65.5 9.5z" />
    <glyph glyph-name="brokenbar" unicode="&#xa6;" horiz-adv-x="248" 
d="M168 325h-88v350h88v-350zM168 -175h-88v350h88v-350z" />
    <glyph glyph-name="section" unicode="&#xa7;" horiz-adv-x="525" 
d="M320 676q31 0 50.5 -6t30.5 -15t15 -19t4 -18q0 -23 -17.5 -33t-34.5 -10q-11 0 -21.5 4.5t-19.5 11.5q-32 24 -45.5 29.5t-21.5 5.5q-14 0 -28 -14t-14 -33q0 -13 4.5 -27t20 -32.5t44 -43.5t76.5 -60q57 -42 89.5 -97t32.5 -139q0 -51 -22 -105t-62 -98t-94.5 -72.5
t-119.5 -28.5q-42 0 -65.5 15t-23.5 44q0 18 12.5 31.5t35.5 13.5q9 0 22 -4.5t33 -18.5t34 -20t32 -6t31.5 12.5t13.5 36.5q0 19 -12 41t-31.5 45.5t-44 46t-49.5 42.5q-65 51 -100 106t-35 129q0 54 23 105.5t62 91.5t89.5 64.5t105.5 24.5zM248 240q70 -58 98 -112.5
t20 -121.5l2 -2q27 29 38.5 58.5t11.5 65.5q0 57 -31 104.5t-97 100.5q-41 33 -67.5 59t-41.5 50.5t-20 51t-3 60.5q-20 -16 -35.5 -43.5t-15.5 -57.5q0 -15 2.5 -34t16 -44.5t42 -58.5t80.5 -76z" />
    <glyph glyph-name="copyright" unicode="&#xa9;" horiz-adv-x="780" 
d="M422 149q-64 0 -104.5 18.5t-64 45.5t-32 58.5t-8.5 57.5q0 40 14 74.5t41 60t66 40t88 14.5q42 0 70.5 -7t45.5 -10q2 -23 4.5 -50t4.5 -53q-4 -5 -13 -6t-14 3q-8 27 -19.5 44t-24 26.5t-26 13.5t-24.5 4q-17 0 -35.5 -7.5t-34 -24.5t-26 -45.5t-10.5 -71.5
q0 -40 10 -68.5t25.5 -46.5t35.5 -26.5t41 -8.5q32 0 56.5 21t46.5 62q5 5 13 4t13 -6q-2 -24 -9.5 -49t-16.5 -40q-12 -8 -27.5 -13t-31 -8t-30 -4.5t-24.5 -1.5zM390 -16q-72 0 -136 27t-111.5 74t-75 110t-27.5 135t27.5 135t75 110t111.5 74t136 27t136 -27t111.5 -74
t75 -110t27.5 -135t-27.5 -135t-75 -110t-111.5 -74t-136 -27zM672 331q0 63 -22.5 117t-61 94.5t-89.5 63.5t-109 23t-109 -23t-89.5 -63.5t-61 -94.5t-22.5 -117t22.5 -117.5t61 -95t89.5 -64t109 -23.5t109 23.5t89.5 64t61 95t22.5 117.5z" />
    <glyph glyph-name="guillemotleft" unicode="&#xab;" horiz-adv-x="432" 
d="M142 224q-7 -14 0 -29l76 -163q-3 -6 -8.5 -11t-13.5 -4q-37 44 -74.5 87t-77.5 87q-15 18 0 36q40 43 77.5 85.5t74.5 86.5q6 -2 12.5 -5t9.5 -10zM320 224q-7 -14 0 -29l76 -163q-3 -6 -8.5 -11t-13.5 -4q-37 44 -74.5 87t-77.5 87q-15 18 0 36q40 43 77.5 85.5
t74.5 86.5q6 -2 12.5 -5t9.5 -10z" />
    <glyph glyph-name="uni00AD" unicode="&#xad;" horiz-adv-x="328" 
d="M284 259q14 -16 14 -42q0 -10 -3.5 -20.5t-9.5 -18.5l-240 -22q-6 6 -10.5 16t-4.5 24t4.5 23.5t10.5 17.5z" />
    <glyph glyph-name="registered" unicode="&#xae;" horiz-adv-x="346" 
d="M123 569q0 21 -13 22h-5q-2 3 -1.5 7t3.5 5q19 1 35 1.5t31 0.5q10 0 20.5 -1.5t19.5 -5t14.5 -11t5.5 -19.5t-7 -20t-15 -11q-3 -1 0 -8q18 -35 30 -44q4 -2 6 -3.5t5 -2.5q2 0 2 -3.5t-2 -4.5q-5 -1 -8.5 -1h-8.5q-28 0 -44 23q-5 7 -8.5 13.5t-8.5 14.5q-3 6 -10 6
q-5 0 -5 -5v-16q0 -12 1.5 -16.5t12.5 -6.5l4 -1q2 -1 2 -5.5t-2 -5.5q-9 0 -17 0.5t-19 0.5q-10 0 -18 -0.5t-16 -0.5q-3 1 -3.5 5.5t1.5 5.5l5 1q10 2 11.5 6t1.5 17v63zM159 548q0 -6 2 -7t10 -1q12 0 16 8t4 14q0 28 -19 28q-9 0 -11 -2t-2 -7v-33zM173 677q30 0 56 -11
t45.5 -30t30.5 -44.5t11 -54.5t-11 -54.5t-30.5 -44.5t-45.5 -30t-56 -11t-56 11t-45.5 30t-30.5 44.5t-11 54.5t11 54.5t30.5 44.5t45.5 30t56 11zM173 653q-22 0 -42 -9t-35 -24.5t-23.5 -37t-8.5 -45.5t8.5 -45t23.5 -36.5t35 -24.5t42 -9t42 9t35 24.5t23.5 36.5t8.5 45
t-8.5 45.5t-23.5 37t-35 24.5t-42 9z" />
    <glyph glyph-name="macron" unicode="&#xaf;" horiz-adv-x="380" 
d="M63 501q-5 6 -7 15.5t-2 20t2 20t7 15.5h253q5 -6 7.5 -15.5t2.5 -20t-2.5 -20t-7.5 -15.5h-253z" />
    <glyph glyph-name="degree" unicode="&#xb0;" horiz-adv-x="374" 
d="M187 640q30 0 56.5 -10t47 -28.5t32 -45t11.5 -58.5q0 -34 -11.5 -60.5t-32 -44.5t-47 -27.5t-56.5 -9.5t-56.5 9.5t-47 27.5t-32 44.5t-11.5 60.5q0 32 11.5 58.5t32 45t47 28.5t56.5 10zM265 498q0 43 -22 70.5t-56 27.5t-56 -27.5t-22 -70.5q0 -44 22 -71t56 -27
q38 0 58 27t20 71z" />
    <glyph glyph-name="plusminus" unicode="&#xb1;" 
d="M217 100v147h-157v72h157v139h88v-139h156v-72h-156v-147h-88zM60 0v72h401v-72h-401z" />
    <glyph glyph-name="twosuperior" unicode="&#xb2;" horiz-adv-x="400" 
d="M114 320q-28 0 -42.5 -0.5t-22.5 -1.5q-5 3 -7 8.5t0 10.5l18 14t21 17.5t27 24.5t35 35q13 14 26.5 32t24.5 38.5t17.5 42.5t6.5 45q0 31 -15.5 50t-43.5 19q-25 0 -45.5 -16t-35.5 -43q-8 -5 -18 0t-10 17q26 51 67.5 75.5t87.5 24.5q66 0 100.5 -32t34.5 -80
q0 -16 -4.5 -32.5t-15.5 -34t-30 -37t-48 -41.5l-31 -23l-25 -21q-8 -7 -5 -12t13 -5h62q35 0 53 5t31 29q14 5 23 -4q-2 -12 -6.5 -27.5t-10 -30.5t-11.5 -28.5t-11 -20.5q-20 1 -45 1.5t-69 0.5h-96z" />
    <glyph glyph-name="threesuperior" unicode="&#xb3;" horiz-adv-x="400" 
d="M116 281q-13 0 -26.5 3t-24.5 9.5t-18 16.5t-7 24q0 13 9.5 27t33.5 14q9 0 16.5 -4t13.5 -10t10 -12.5t7 -10.5q11 -17 29 -17q10 0 23.5 5.5t24.5 18.5t19 33t8 48q0 39 -18 61.5t-47 22.5q-39 0 -67 -25q-14 3 -18 15.5t2 20.5q15 6 36.5 14.5t41 20.5t33.5 28t14 37
q0 17 -11.5 28.5t-33.5 11.5q-17 0 -36.5 -11.5t-37.5 -38.5q-9 -4 -17.5 2t-7.5 15q21 41 60 63t82 22q49 0 79 -21t30 -53q0 -22 -14.5 -40t-62.5 -38q-5 -2 -1.5 -5t9.5 -4q19 -2 38 -8.5t34 -18t24 -29t9 -42.5q0 -37 -19.5 -68t-63.5 -58q-42 -26 -85 -36.5t-70 -10.5z
" />
    <glyph glyph-name="acute" unicode="&#xb4;" horiz-adv-x="380" 
d="M187 655q8 17 15.5 23.5t15.5 6.5t17 -3.5t22 -12.5q27 -21 27 -36q0 -8 -6 -17.5t-16 -19.5l-141 -139q-22 -3 -25 16z" />
    <glyph glyph-name="paragraph" unicode="&#xb6;" horiz-adv-x="490" 
d="M372 22q0 -72 -12.5 -122.5t-49.5 -78.5q-16 -12 -38 -16.5t-44 -4.5q-19 0 -38 5t-34.5 15.5t-25 27t-9.5 40.5q0 25 11 41t22 20q29 1 48 -10t22 -24q-2 -5 -8 -15t-6 -22q0 -19 12 -29t29 -10q11 0 23 5.5t22 21.5t16.5 44t6.5 73v117q0 21 -6 28.5t-20 7.5
q-54 0 -100.5 14.5t-80.5 41.5t-53 64.5t-19 82.5q0 61 27 104.5t69 67.5q44 25 95.5 34.5t107.5 9.5q50 0 78.5 -2t40.5 -4q7 -4 7 -15t-6 -16l-34 -6q-19 -3 -29.5 -6t-16 -9t-6.5 -17.5t-1 -31.5v-426z" />
    <glyph glyph-name="onesuperior" unicode="&#xb9;" horiz-adv-x="400" 
d="M150 577q0 26 -5 38.5t-27 15.5l-31 4q-6 4 -6 14t6 14q22 3 45.5 8t45.5 12t41.5 14.5t34.5 15.5q10 0 12 -8q-1 -13 -2 -38t-1 -50v-200q0 -38 3.5 -51.5t26.5 -16.5l30 -4q5 -5 4 -14.5t-6 -12.5q-28 1 -57 1.5t-58 0.5q-28 0 -57 -0.5t-57 -1.5q-5 3 -6 12.5t4 14.5
l30 4q23 3 26.5 16.5t3.5 51.5v160z" />
    <glyph glyph-name="guillemotright" unicode="&#xbb;" horiz-adv-x="432" 
d="M36 384q3 7 9.5 10t12.5 5q37 -44 74.5 -86.5t77.5 -85.5q15 -18 0 -36q-40 -44 -77.5 -87t-74.5 -87q-8 -1 -13.5 4t-8.5 11l76 163q7 15 0 29zM214 384q3 7 9.5 10t12.5 5q37 -44 74.5 -86.5t77.5 -85.5q15 -18 0 -36q-40 -44 -77.5 -87t-74.5 -87q-8 -1 -13.5 4
t-8.5 11l76 163q7 15 0 29z" />
    <glyph glyph-name="onequarter" unicode="&#xbc;" horiz-adv-x="840" 
d="M608 90q0 13 -2 15.5t-13 2.5h-153q-5 3 -7 9.5t0 13.5l216 283q5 5 9 8.5t11 3.5h29q8 0 9.5 -6t-6.5 -16l-196 -247q-4 -5 -1.5 -8t16.5 -3h73q11 0 13 3t2 14v75q0 11 5 15.5t13 6.5q7 2 19.5 5l25 6t23 5t14.5 2q11 0 11 -10v-105q0 -11 2 -14t13 -3h44q4 -2 6 -7
t2 -11t-2 -12t-6 -8h-44q-11 0 -13 -2.5t-2 -15.5v-14q0 -15 1 -24t4.5 -14.5t10.5 -8t20 -3.5l13 -1q5 -4 5 -13.5t-6 -13.5q-29 1 -56 1.5t-56 0.5t-56.5 -0.5t-49.5 -1.5q-6 3 -6.5 13t4.5 14l20 1q15 1 23.5 3t12.5 7t4.5 14.5t0.5 25.5v14zM258 -40q-14 -3 -28 4
t-19 20l370 670q11 1 27 -5t20 -19zM140 504q0 26 -5 38.5t-27 15.5l-31 4q-6 4 -6 14t6 14q22 3 45.5 8t45.5 12t41.5 14.5t34.5 15.5q10 0 12 -8q-1 -13 -2 -38t-1 -50v-200q0 -38 3.5 -51.5t26.5 -16.5l30 -4q5 -5 4 -14.5t-6 -12.5q-28 1 -57 1.5t-58 0.5
q-28 0 -57 -0.5t-57 -1.5q-5 3 -6 12.5t4 14.5l30 4q23 3 26.5 16.5t3.5 51.5v160z" />
    <glyph glyph-name="onehalf" unicode="&#xbd;" horiz-adv-x="840" 
d="M246 -40q-14 -3 -28 4t-19 20l370 670q11 1 27 -5t20 -19zM129 504q0 26 -5 38.5t-27 15.5l-31 4q-6 4 -6 14t6 14q22 3 45.5 8t45.5 12t41.5 14.5t34.5 15.5q10 0 12 -8q-1 -13 -2 -38t-1 -50v-200q0 -38 3.5 -51.5t26.5 -16.5l30 -4q5 -5 4 -14.5t-6 -12.5
q-28 1 -57 1.5t-58 0.5q-28 0 -57 -0.5t-57 -1.5q-5 3 -6 12.5t4 14.5l30 4q23 3 26.5 16.5t3.5 51.5v160zM557 0q-28 0 -42.5 -0.5t-22.5 -1.5q-5 3 -7 8.5t0 10.5l18 14t21 17.5t27 24.5t35 35q13 14 26.5 32t24.5 38.5t17.5 42.5t6.5 45q0 31 -15.5 50t-43.5 19
q-25 0 -45.5 -16t-35.5 -43q-8 -5 -18 0t-10 17q26 51 67.5 75.5t87.5 24.5q66 0 100.5 -32t34.5 -80q0 -16 -4.5 -32.5t-15.5 -34t-30 -37t-48 -41.5l-31 -23l-25 -21q-8 -7 -5 -12t13 -5h62q35 0 53 5t31 29q14 5 23 -4q-2 -12 -6.5 -27.5t-10 -30.5t-11.5 -28.5
t-11 -20.5q-20 1 -45 1.5t-69 0.5h-96z" />
    <glyph glyph-name="threequarters" unicode="&#xbe;" horiz-adv-x="840" 
d="M643 90q0 13 -2 15.5t-13 2.5h-153q-5 3 -7 9.5t0 13.5l216 283q5 5 9 8.5t11 3.5h29q8 0 9.5 -6t-6.5 -16l-196 -247q-4 -5 -1.5 -8t16.5 -3h73q11 0 13 3t2 14v75q0 11 5 15.5t13 6.5q7 2 19.5 5l25 6t23 5t14.5 2q11 0 11 -10v-105q0 -11 2 -14t13 -3h44q4 -2 6 -7
t2 -11t-2 -12t-6 -8h-44q-11 0 -13 -2.5t-2 -15.5v-14q0 -15 1 -24t4.5 -14.5t10.5 -8t20 -3.5l13 -1q5 -4 5 -13.5t-6 -13.5q-29 1 -56 1.5t-56 0.5t-56.5 -0.5t-49.5 -1.5q-6 3 -6.5 13t4.5 14l20 1q15 1 23.5 3t12.5 7t4.5 14.5t0.5 25.5v14zM283 -40q-14 -3 -28 4
t-19 20l370 670q11 1 27 -5t20 -19zM119 208q-13 0 -26.5 3t-24.5 9.5t-18 16.5t-7 24q0 13 9.5 27t33.5 14q9 0 16.5 -4t13.5 -10t10 -12.5t7 -10.5q11 -17 29 -17q10 0 23.5 5.5t24.5 18.5t19 33t8 48q0 39 -18 61.5t-47 22.5q-39 0 -67 -25q-14 3 -18 15.5t2 20.5
q15 6 36.5 14.5t41 20.5t33.5 28t14 37q0 17 -11.5 28.5t-33.5 11.5q-17 0 -36.5 -11.5t-37.5 -38.5q-9 -4 -17.5 2t-7.5 15q21 41 60 63t82 22q49 0 79 -21t30 -53q0 -22 -14.5 -40t-62.5 -38q-5 -2 -1.5 -5t9.5 -4q19 -2 38 -8.5t34 -18t24 -29t9 -42.5q0 -37 -19.5 -68
t-63.5 -58q-42 -26 -85 -36.5t-70 -10.5z" />
    <glyph glyph-name="multiply" unicode="&#xd7;" 
d="M312 204l146 -146l-52 -54l-147 147l-145 -147l-51 54l144 145l-144 145l51 54l146 -146l146 148l52 -53z" />
    <glyph glyph-name="Thorn" unicode="&#xde;" horiz-adv-x="594" 
d="M257 144q0 -35 1.5 -55t7 -30.5t15.5 -14.5t27 -7l33 -5q6 -5 6 -17.5t-6 -17.5q-44 2 -81 2.5t-73 0.5q-70 0 -152 -3q-6 5 -6 17.5t6 17.5l28 5q17 3 27 7t15.5 14.5t7 30.5t1.5 55v372q0 35 -1.5 55t-7 30.5t-15.5 14.5t-27 7l-28 5q-7 5 -6.5 17.5t9.5 17.5
q37 -2 75 -2.5t74 -0.5q72 0 149 3q8 -5 8 -17.5t-8 -17.5l-28 -5q-17 -3 -27 -7t-15.5 -13.5t-7 -27.5t-1.5 -49h67q36 0 69 -5.5t57 -14.5q24 -8 44.5 -22t36.5 -34.5t25 -47t9 -60.5q0 -47 -19.5 -80.5t-51 -55t-71.5 -31.5t-82 -10q-5 0 -9 0.5t-10 0.5q-8 4 -8 12.5
t5 13.5q28 9 46 22.5t28 31.5t13.5 41.5t3.5 53.5q0 24 -6.5 48.5t-20 44.5t-33.5 33t-48 13q-31 0 -38 -10t-7 -41v-285z" />
    <glyph glyph-name="divide" unicode="&#xf7;" 
d="M261 10q-26 0 -43.5 17.5t-17.5 43.5q0 25 17.5 42.5t43.5 17.5q23 0 41 -17.5t18 -42.5q0 -26 -18 -43.5t-41 -17.5zM261 295q-26 0 -43.5 17.5t-17.5 43.5q0 25 17.5 42.5t43.5 17.5q23 0 41 -17.5t18 -42.5q0 -26 -18 -43.5t-41 -17.5zM60 177v72h401v-72h-401z" />
    <glyph glyph-name="space" unicode=" " horiz-adv-x="250" 
 />
    <glyph glyph-name="figuredash" unicode="&#x2012;" 
d="M478 349v-69h-436v69h436z" />
    <glyph glyph-name="onedotenleader" unicode="&#x2024;" horiz-adv-x="500" 
d="M250 -14q-15 0 -29.5 6t-26 16.5t-18.5 25.5t-7 33q0 35 23.5 59t57.5 24q18 0 33 -7t25.5 -18.5t16.5 -26.5t6 -31q0 -35 -22.5 -58t-58.5 -23z" />
    <glyph glyph-name="twodotenleader" unicode="&#x2025;" horiz-adv-x="500" 
d="M125 -14q-15 0 -29.5 6t-26 16.5t-18.5 25.5t-7 33q0 35 23.5 59t57.5 24q18 0 33 -7t25.5 -18.5t16.5 -26.5t6 -31q0 -35 -22.5 -58t-58.5 -23zM375 -14q-15 0 -29.5 6t-26 16.5t-18.5 25.5t-7 33q0 35 23.5 59t57.5 24q18 0 33 -7t25.5 -18.5t16.5 -26.5t6 -31
q0 -35 -22.5 -58t-58.5 -23z" />
    <glyph glyph-name="fraction" unicode="&#x2044;" horiz-adv-x="100" 
d="M-111 -40q-14 -3 -28 4t-19 20l370 670q11 1 27 -5t20 -19z" />
    <glyph glyph-name="Delta" unicode="&#x394;" horiz-adv-x="680" 
d="M39 0q-6 0 -7.5 7.5t-1 17.5t3 19.5t4.5 13.5q13 27 25.5 52t25.5 52.5t28.5 60t34.5 74.5l119 261q16 34 20 49.5t3 20.5q13 3 24.5 9t21 13t16.5 14l12 12q10 0 13.5 -2t5.5 -7q14 -33 27 -64.5t29 -69.5l200 -467q3 -8 5 -19t2 -21.5t-2 -18t-6 -7.5h-603zM448 80
q26 0 29.5 6t-1.5 17l-137 337q-9 23 -17.5 40.5t-13.5 30.5h-3q-5 -11 -11.5 -25.5t-16.5 -37.5l-149 -347q-5 -11 1.5 -16t29.5 -5h289z" />
    <glyph glyph-name="Delta" unicode="&#x2206;" horiz-adv-x="680" 
d="M39 0q-6 0 -7.5 7.5t-1 17.5t3 19.5t4.5 13.5q13 27 25.5 52t25.5 52.5t28.5 60t34.5 74.5l119 261q16 34 20 49.5t3 20.5q13 3 24.5 9t21 13t16.5 14l12 12q10 0 13.5 -2t5.5 -7q14 -33 27 -64.5t29 -69.5l200 -467q3 -8 5 -19t2 -21.5t-2 -18t-6 -7.5h-603zM448 80
q26 0 29.5 6t-1.5 17l-137 337q-9 23 -17.5 40.5t-13.5 30.5h-3q-5 -11 -11.5 -25.5t-16.5 -37.5l-149 -347q-5 -11 1.5 -16t29.5 -5h289z" />
    <glyph glyph-name="minus" unicode="&#x2212;" 
d="M60 177v72h401v-72h-401z" />
    <glyph glyph-name="infinity" unicode="&#x221e;" horiz-adv-x="786" 
d="M191 430q36 0 64 -10t52 -26.5t45 -36.5t43 -40q20 20 42.5 40t47 36.5t52 26.5t57.5 10q29 0 56.5 -12.5t48.5 -34t34 -51.5t13 -65q0 -37 -11.5 -67.5t-32.5 -52.5t-50.5 -34t-65.5 -12q-39 0 -70.5 13.5t-55.5 31.5t-40.5 35.5t-25.5 25.5q-9 -9 -25.5 -26.5
t-40.5 -35t-56 -31t-72 -13.5q-38 0 -68 13.5t-50.5 37t-31 54t-10.5 64.5q0 36 12.5 65.5t33.5 50.5t48.5 32.5t56.5 11.5zM204 357q-23 0 -39.5 -9t-27 -22t-16 -28.5t-5.5 -27.5q0 -24 7.5 -43t20 -32t28.5 -20t34 -7t37.5 8t38.5 20.5t36.5 28t32.5 31.5
q-14 15 -30.5 32.5t-35 33t-39 25.5t-42.5 10zM582 356q-20 0 -39.5 -9.5t-37.5 -23.5t-34.5 -29t-29.5 -27q15 -16 31 -33.5t34 -31.5t37.5 -23.5t42.5 -9.5q16 0 31 6.5t27 18.5t19 29.5t7 38.5q0 17 -5.5 34t-17 30.5t-28 21.5t-37.5 8z" />
    <glyph glyph-name="approxequal" unicode="&#x2248;" 
d="M479 326q-25 -30 -49 -47t-46.5 -24t-44.5 -5t-43 9l-84 29q-30 10 -51 7.5t-35.5 -10.5t-23 -18.5t-12.5 -16.5l-49 46q21 31 43.5 49t46 26.5t47.5 7t47 -9.5l89 -31q26 -9 57.5 -1t63.5 41zM479 136q-43 -51 -92 -63.5t-91 2.5l-84 30q-30 11 -51 8.5t-35.5 -10.5
t-23 -18.5t-12.5 -16.5l-49 46q42 61 89.5 74.5t94.5 -2.5l89 -32q28 -10 60.5 -0.5t58.5 37.5z" />
    <glyph glyph-name="notequal" unicode="&#x2260;" 
d="M290 322l61 92l68 -24l-45 -68h87v-72h-134l-48 -72h182v-72h-230l-70 -106l-68 24l54 82h-87v72h135l48 72h-183v72h230z" />
    <glyph glyph-name="lessequal" unicode="&#x2264;" 
d="M60 0v72h401v-72h-401zM455 524v-83l-286 -123v-2l286 -124v-82l-389 177v59z" />
    <glyph glyph-name="greaterequal" unicode="&#x2265;" 
d="M60 0v72h401v-72h-401zM455 346v-59l-389 -177v82l286 124v2l-286 123v83z" />
    <glyph glyph-name="lozenge" unicode="&#x25ca;" horiz-adv-x="584" 
d="M251 -45l-206 385l206 375h82l206 -375l-206 -385h-82zM291 626l-154 -286l154 -295l156 295z" />
    <glyph glyph-name="bullet.001" horiz-adv-x="850" 
d="M90 175q0 35 11.5 70.5t34.5 65.5t58.5 51.5t83.5 29.5q0 30 -6 57t-16.5 46.5t-24.5 31t-32 11.5q-10 0 -18 -7t-11 -24q-1 -4 -5 -8q-3 -2 -8.5 -3.5t-10.5 -1.5q-19 0 -31 11.5t-12 30.5q0 18 15.5 34.5t44.5 16.5q35 0 63.5 -17.5t48.5 -45.5t31.5 -61.5t13.5 -66.5
h2q33 0 65.5 -9.5t57.5 -26.5l2 2q-27 23 -44.5 53t-17.5 60q0 32 26.5 54t67.5 22q10 0 29.5 -1.5t30.5 -1.5q10 0 23 3.5t24 11t18.5 19.5t7.5 30q0 11 -6 23t-20 23q-7 5 -3.5 8.5t8.5 2.5q18 -3 35 -12t29.5 -23.5t20.5 -33.5t8 -42q0 -30 -11 -50.5t-30.5 -36t-47 -29
t-59.5 -29.5q-23 -11 -30 -25.5t-7 -25.5q0 -6 1 -9.5t3 -6.5q22 26 48.5 36t49.5 10q16 0 31.5 -5.5t28.5 -13t23.5 -15.5t17.5 -14q26 -23 41 -29t24 -6q26 0 38.5 11.5t20.5 25.5q3 5 6.5 5.5t5.5 -4.5q1 -2 1.5 -6.5t0.5 -12.5q0 -22 -9.5 -45.5t-27 -43t-42 -32.5
t-54.5 -13q-16 0 -31 2.5t-31 10t-34.5 21.5t-40.5 36q-26 24 -42.5 37.5t-33.5 13.5q-10 -7 -10 -23q0 -20 14 -41.5t34 -51.5q13 -20 22.5 -34t15.5 -26t9 -23t3 -24q0 -17 -7.5 -33t-19.5 -29.5t-28 -21.5t-33 -8h-5.5t-11.5 2q-14 3 -2 12q8 5 18 15.5t10 25.5
q0 10 -3 17t-10.5 14.5t-21 16.5t-34.5 22q-12 7 -25 17t-24 23.5t-18.5 30t-7.5 37.5q0 32 24 59.5t58 44.5q-19 10 -47 17t-62 7q-10 0 -13 -1q-3 -42 -18 -76t-38.5 -58.5t-53.5 -40.5t-64 -22q2 -35 15.5 -56.5t24.5 -27.5q8 -5 17.5 -5h16.5q2 -2 2.5 -5.5t-0.5 -5.5
q-14 -13 -32 -23.5t-36 -10.5q-13 0 -25 15q-4 5 -10.5 16.5t-12.5 28t-10.5 38.5t-4.5 48zM144 186q34 10 57.5 27t39.5 39q16 23 24.5 49t11.5 53q-60 -12 -96 -56q-36 -45 -37 -112z" />
    <glyph glyph-name="bullet.002" horiz-adv-x="1141" 
d="M282 57q-56 -2 -100.5 19.5t-76 57.5t-48.5 81.5t-17 93.5q0 64 22 111.5t54.5 78.5t70 46t68.5 15q22 0 48 -6.5t48 -20.5t36.5 -36t14.5 -52q0 -18 -6.5 -32t-17 -24t-23 -15t-24.5 -5q-33 -1 -55.5 17.5t-22.5 44.5q0 14 7 23t27 23q9 8 13.5 16.5t4.5 13.5
q0 12 -18 18t-47 5q-27 -1 -51 -13.5t-43 -32t-30 -43t-11 -46.5q0 -44 19 -70.5t45 -42t54 -23t45 -11.5q16 -5 26 -12t14.5 -15t6 -15.5t1.5 -12.5q0 -12 -1.5 -23t-6.5 -22q-9 -21 -9 -35t28 -14q26 0 52.5 14.5t52 37.5t49.5 53t45 60q-15 19 -17 45q-1 28 19.5 49.5
t48.5 22.5q15 0 28 -5q33 46 62 80t60 57t64.5 34.5t75.5 12.5q48 1 91 -17t74.5 -51t50 -80.5t18.5 -104.5q0 -62 -18.5 -108.5t-48 -77.5t-66.5 -47t-74 -17q-24 0 -49 5.5t-45 18t-32.5 31t-12.5 43.5q0 31 20.5 55t50.5 24q21 0 34.5 -6.5t21.5 -16t11 -20.5t3 -20
q0 -14 -4.5 -21.5t-9.5 -11.5q-13 -10 -13 -24q0 -8 11 -17t31 -8q17 0 39.5 8.5t43 25.5t34.5 43.5t14 62.5q0 32 -6.5 54t-21.5 37t-39.5 25.5t-59.5 20.5q-41 11 -59 25.5t-18 35.5q0 16 4 29t6 18q2 8 4 16.5t2 13.5q0 16 -27 16q-27 -1 -51.5 -14t-48 -35.5t-46.5 -52
t-47 -63.5q15 -17 17 -43q1 -30 -19.5 -51t-50.5 -23q-14 0 -25 4q-29 -40 -59 -73.5t-63 -57.5t-70.5 -38.5t-81.5 -15.5z" />
    <glyph glyph-name="bullet.003" horiz-adv-x="583" 
d="M298 693q26 0 44.5 -8t30.5 -21.5t17.5 -29t5.5 -30.5q0 -33 -11 -52.5t-21 -31.5q-8 -8 -12.5 -15.5t-4.5 -14.5q0 -4 4.5 -8.5t10.5 -4.5q3 0 10 4t18 8.5t25 9t31 4.5q15 0 32 -5t31.5 -16.5t24 -30t9.5 -45.5q0 -14 -4 -31.5t-15 -33t-30 -26.5t-48 -12
q-20 -1 -35.5 4.5t-28 14t-21 18t-12.5 16.5q-12 17 -26 17q-3 0 -9 -8t-12 -20t-10.5 -27t-4.5 -30q1 -19 10 -36t24 -32.5t35 -29t41 -26.5q48 -28 69.5 -58.5t22.5 -67.5q0 -22 -9 -45t-26.5 -42t-42.5 -31t-57 -12q-20 0 -40 6.5t-40 17.5t-39.5 24.5t-36.5 27.5
q-23 20 -37.5 28.5t-28.5 6.5q-15 0 -26.5 -15t-22.5 -41q-6 0 -11 3t-5 11q4 26 13.5 43t21 27t23.5 14.5t22 4.5q18 0 34 -5t31.5 -14.5t31.5 -22t35 -26.5q33 -24 56 -35t48 -11q24 0 40.5 18t16.5 46q0 19 -9.5 35t-23.5 29t-31 24t-33 21q-60 38 -82 69.5t-22 58.5
q0 20 7 42t19 42q4 6 8 14.5t4 13.5q0 7 -10 7q-4 0 -11.5 -4t-13.5 -12q-3 -4 -13 -12.5t-24.5 -17.5t-31 -16t-32.5 -7q-27 0 -46.5 9t-31.5 24t-17.5 33t-5.5 35q0 27 9.5 45.5t24 30t32 17t34.5 5.5q28 1 48 -7.5t26 -8.5t10 5.5t4 9.5q0 8 -5.5 16.5t-11.5 19.5
t-11 24.5t-5 32.5q0 44 27.5 71t75.5 28zM284 493q-20 0 -33 -15.5t-13 -33.5q0 -20 14 -33t32 -13q20 0 34 13t14 35q0 18 -14 32.5t-34 14.5z" />
    <glyph glyph-name="bn_four" unicode="&#x9ea;" horiz-adv-x="510" 
d="M457 239q0 -46 -19.5 -79.5t-51.5 -55t-72 -31.5t-81 -10q-37 0 -73 11t-64.5 31t-46.5 50t-18 67q0 42 33.5 80t82.5 65q-19 11 -38 23t-34 28.5t-24 38t-9 50.5q0 42 19.5 74.5t50.5 55t68 34t73 11.5t71 -10t62.5 -30.5t44.5 -50.5t17 -70q0 -16 -8 -33t-22 -33.5
t-33 -32t-41 -28.5q19 -11 39 -24.5t36.5 -32t27 -42.5t10.5 -56zM358 517q0 21 -10.5 38t-27.5 28.5t-39 17.5t-43 6q-27 0 -47 -7t-32.5 -17.5t-19 -24t-6.5 -26.5q0 -24 17.5 -42t41 -30.5t47 -20t35.5 -10.5q10 6 24 14.5t27.5 19.5t23 24.5t9.5 29.5zM365 227
q0 20 -17 37t-39.5 30.5t-45.5 23t-36 14.5q-13 -4 -30.5 -14t-32.5 -24t-25 -30.5t-10 -33.5t10 -33t27.5 -28.5t41.5 -19.5t52 -7q49 1 77 24t28 61z" />
    <glyph glyph-name="bn_five" unicode="&#x9eb;" horiz-adv-x="578" 
d="M342 233q0 -38 17.5 -57t41.5 -28.5t49.5 -15.5t41.5 -18q4 -4 4 -8.5t-1 -9.5t-3 -11q-7 -2 -24.5 -6t-41.5 -7.5t-51.5 -6.5t-54.5 -3q-67 0 -119.5 19.5t-88.5 54t-54 82.5t-17 105q1 49 21 97.5t52.5 93t75 83.5t88.5 70q14 9 34 14t40.5 6.5t39 0t29.5 -6.5
q1 -3 1.5 -9.5t-1.5 -9.5q-13 -11 -25 -24.5t-19 -28t-7 -29.5t12 -30t29 -21t38 -8.5t46 -5t53 -10.5q-57 -41 -103 -87q-19 -19 -38 -41.5t-33 -46t-23 -48.5t-9 -49zM357 120q-15 13 -36 24t-40.5 26t-33 37t-13.5 57q0 29 14 57.5t37 55.5t53 52t62 46q-5 1 -24 3
t-39 10.5t-33.5 26t-8.5 50.5q-20 -16 -48.5 -42.5t-54.5 -59.5t-44 -72.5t-18 -83.5q0 -36 15 -64t38.5 -49t51 -34.5t53 -22.5t44.5 -12.5t25 -4.5z" />
    <glyph glyph-name="bn_seven" unicode="&#x9ed;" horiz-adv-x="504" 
d="M481 119q0 -31 -23.5 -47.5t-52.5 -16.5q-34 0 -58 22t-24 66v195q-43 -4 -77 -8q-15 -1 -29 -2.5t-26 -2.5t-20.5 -1.5t-10.5 -0.5q-22 4 -46 18.5t-44 36t-33 48.5t-13 56q0 42 22 78.5t51.5 62.5t59 41t44.5 15q26 0 62 -13.5t68.5 -45.5t55.5 -86.5t23 -135.5v-213
q34 6 52.5 -14t18.5 -52zM315 434q-3 42 -11 72.5t-17.5 51t-20 31.5t-19.5 13q-20 4 -38 -4.5t-34 -24.5t-28.5 -36t-21 -39.5t-12 -34.5t-0.5 -21q4 -8 10 -14t22 -6q21 0 49.5 1.5t55 4t45.5 4.5t20 2z" />
    <glyph glyph-name="bn_half_l" unicode="&#xe34d;" horiz-adv-x="400" 
d="M-43 605l-62 78h504l47 -78h-489zM493 266q-11 31 -26 49.5t-30 29t-28.5 14.5t-21.5 4q-17 2 -27 -14t-11 -36q0 -5 0.5 -16t2.5 -22q2 -12 3 -27l-46 17q-9 11 -18.5 26t-23 29.5t-31.5 25t-42 13.5q-16 2 -34.5 -7.5t-34 -25t-25.5 -35t-10 -37.5q0 -27 11 -43.5
t26 -23.5q-5 12 -5 22q0 15 5 28t14.5 23.5t23 17t28.5 6.5q20 0 35 -9t24.5 -22t13.5 -27.5t2 -25.5q-7 -40 -35.5 -61.5t-77.5 -21.5q-32 0 -58.5 13.5t-45 35.5t-28.5 50.5t-10 58.5q1 41 12 77t34.5 62t59.5 38.5t87 7.5q19 -2 38 -13.5t42 -40.5q14 24 37 41t50 14
q18 -2 36.5 -14t34.5 -28t29 -34t20 -33l28 -76z" />
    <glyph glyph-name="bn_nine" unicode="&#x9ef;" horiz-adv-x="558" 
d="M523 276q0 -57 -20.5 -97.5t-53.5 -67t-73.5 -39.5t-80.5 -13q8 40 4.5 81.5t-15.5 75t-31.5 55t-43.5 21.5q-25 0 -42.5 -18.5t-17.5 -69.5q0 -11 2.5 -17.5t5.5 -11.5q8 5 18 8t21 3q30 0 50 -21.5t20 -53.5q0 -15 -8 -28.5t-21.5 -23.5t-29.5 -16t-33 -6
q-24 0 -45 10.5t-36 30t-24 46.5t-9 60q0 35 11.5 68.5t33 59.5t52.5 41.5t70 15.5q44 0 74 -18.5t49 -46.5t29.5 -61.5t15.5 -62.5q35 10 47.5 30.5t12.5 48.5q-1 43 -28.5 74.5t-69.5 54.5q-29 16 -64.5 32.5t-71 33.5t-68.5 35t-58.5 38t-41 42t-15.5 46q0 32 20 52.5
t50 20.5q18 0 31.5 -7t23 -17.5t14.5 -22.5t5 -23q0 -23 -9 -37q24 -13 55 -24t64.5 -23.5t68.5 -28t66 -37.5q47 -32 71.5 -75.5t24.5 -116.5z" />
    <glyph glyph-name="bn_zero" unicode="&#x9e6;" horiz-adv-x="558" 
d="M502 364q0 -58 -22.5 -101t-57 -71.5t-76.5 -42.5t-81 -14q-36 0 -76.5 15.5t-74.5 45t-56.5 72t-22.5 95.5t20.5 96.5t53 74.5t72.5 48.5t80 17.5q55 0 99.5 -18t76 -50t48.5 -75t17 -93zM410 404q0 48 -24.5 77t-75.5 29q-35 0 -67 -19t-56 -47.5t-38.5 -62.5
t-14.5 -64q0 -27 10 -45t24.5 -29t31.5 -16t30 -5q34 0 66.5 18.5t57.5 45.5t40.5 59t15.5 59z" />
    <glyph glyph-name="bn_eight" unicode="&#x9ee;" horiz-adv-x="677" 
d="M637 507q-3 -47 -16.5 -73t-33 -38t-42 -14.5t-44.5 -3t-40 -3t-28 -14.5q15 -39 13.5 -67t-4.5 -42q-6 -24 -29.5 -54.5t-56 -57.5t-69.5 -45t-69 -18q-9 0 -24 8t-30.5 21t-28.5 30t-19 35v380q-13 -1 -27 2t-25.5 10t-19 19.5t-7.5 31.5q0 14 7 26t18 20.5t24 13.5
t25 5q16 0 32 -5t29 -19t21 -38t8 -63v-104l30 27q11 6 39.5 6t51.5 -5q8 -2 20 -9.5t25 -17.5t25.5 -21.5t21.5 -20.5q11 31 28 44t36 16.5t38.5 2.5t35.5 2.5t27.5 16t14.5 42.5zM361 355q-1 14 -16.5 21.5t-38.5 9t-51 -3t-56 -15.5l1 -191q4 -8 10 -8q2 0 15 7
t30.5 19.5t37.5 30t36 38t25.5 44t6.5 48.5z" />
    <glyph glyph-name="bn_viram" unicode="&#x964;" horiz-adv-x="357" 
d="M136 38v668l87 -77v-692z" />
    <glyph glyph-name="bn_ou.mark" unicode="&#x9d7;" horiz-adv-x="284" 
d="M174 605q0 -19 0.5 -58t1.5 -90t1.5 -110t1.5 -118q2 -137 4 -300l-89 89v453q-10 23 -20.5 47t-22.5 43.5t-25.5 31.5t-28.5 12h-2l-39 78h32q42 -4 70 -28.5t45 -51.5v24q0 9 0.5 21.5t-1 27t-7.5 30t-18 30.5q-15 13 -34 28t-39.5 30.5t-40.5 31t-37 28.5
q-22 17 -39 39.5t-25.5 50t-6.5 60.5t17 72q14 33 33 45t48 16l18 -56q-16 2 -26.5 -1.5t-17.5 -7.5q-8 -4 -13 -11q-9 -22 -8 -36t8.5 -24t19.5 -19t24 -22q19 -10 36.5 -23t33.5 -26t29.5 -25t23.5 -20q7 -5 15 -13.5t16 -18t15 -19t11 -17.5q16 -27 21 -53.5t8 -61.5h117
l61 -78h-171z" />
    <glyph glyph-name="bn_r_ukaar" unicode="&#xe34f;" horiz-adv-x="747" 
d="M465 605v-182q18 -35 48.5 -62.5t70.5 -29.5q16 0 31 5t27 13.5t19 18.5t7 19q0 3 0.5 9.5t-1 13.5t-7 14t-16.5 11q2 -15 -2.5 -25t-13 -16.5t-19.5 -9t-21 -2.5q-29 2 -47.5 19t-18.5 53q0 18 7 31.5t18 22.5t25 14t28 5q19 0 40 -10.5t39 -30t29.5 -48t11.5 -63.5
q0 -27 -9.5 -51t-26.5 -42t-40.5 -28t-50.5 -10q-19 0 -39 13t-38 31t-31.5 36.5t-19.5 29.5v-387q-13 9 -22.5 16.5t-16.5 12.5q-8 6 -13 12q-3 25 -18 55.5t-36.5 61t-47.5 57.5t-53 45q-21 14 -56 30t-90 21q-22 26 -40 49q-15 20 -27.5 37.5t-11.5 22.5q27 23 68.5 52.5
t89.5 58.5t98 54t94 38v15h-389l-48 78h807l43 -78h-331zM382 481q-25 -10 -52.5 -23.5t-54 -29t-50.5 -32t-42 -31.5q30 -13 59 -32.5t54.5 -42t47.5 -46.5t38 -46v283zM291 110q0 -29 -21 -50t-50 -21t-50 21t-21 50t21 50t50 21t50 -21t21 -50z" />
    <glyph glyph-name="bn_jh" unicode="&#x99d;" horiz-adv-x="632" 
d="M602 605q-6 0 -11 1t-10 3v-560l-51 42q-6 14 -11 34t-14.5 42.5t-28 45.5t-52.5 43v-289q-12 8 -22.5 17t-18.5 17q-9 10 -16 18q-9 30 -31 71.5t-58.5 81.5t-89.5 70.5t-123 39.5q-20 22 -37 41q-14 17 -26 32.5t-11 22.5q0 3 18 17.5t47 35t66.5 44.5t76.5 46t76.5 40
t66.5 26v18h-349l-54 78h485v-326q24 -14 42.5 -33t32.5 -38v511q14 -8 23.5 -15.5t16.5 -12.5q8 -6 13 -11q4 -8 6 -17t4.5 -18t6 -17t9.5 -13q5 -5 14 -7t17 -3h31l52 -78h-90zM342 476q-66 -28 -117.5 -59.5t-79.5 -49.5q42 -24 74 -48t56 -46.5t40.5 -42.5t26.5 -36v282
z" />
    <glyph glyph-name="bn_tt" unicode="&#x99f;" horiz-adv-x="500" 
d="M159 605v-391q0 -11 4 -23t10 -22t13.5 -16t13.5 -5q14 3 38.5 18.5t48.5 40.5t44 57t25 68q-16 -2 -33.5 2t-31.5 13.5t-23.5 26t-9.5 39.5q0 45 26.5 65t66.5 20q19 0 38.5 -9.5t35.5 -28t26.5 -46t10.5 -64.5q0 -48 -23.5 -98.5t-60 -93t-81.5 -72.5t-88 -36
q-10 -1 -32 15.5t-44.5 42t-39.5 54t-17 50.5v393h-86l-48 78h422q2 1 4 5q12 32 -7 49.5t-54 29.5t-79 23.5t-83.5 31.5t-67 53.5t-29.5 89.5q-1 22 9 45t22 43q14 23 33 45l39 -46q-10 -13 -19 -25q-8 -11 -14 -23.5t-7 -24.5q-2 -24 17 -38.5t45.5 -23.5t53.5 -14t42 -9
q51 -14 83.5 -34t51 -46.5t24.5 -59t2 -71.5h89l52 -78h-412z" />
    <glyph glyph-name="bn_kh" unicode="&#x996;" horiz-adv-x="604" 
d="M568 605q-10 0 -18.5 2t-16.5 4v-655q-13 9 -22.5 18t-16.5 16q-8 8 -13 15q-4 17 -10 40.5t-21.5 52t-45 60t-81.5 63.5q-34 21 -58.5 31.5t-42.5 14t-30.5 4t-23.5 2.5q-7 1 -38.5 39.5t-80.5 109.5q51 -13 102 -8t92 21.5t68 41.5t28 50q0 4 -1.5 10.5t-4.5 12t-7 9.5
t-9 2q-12 -3 -28.5 -17.5t-40 -30t-54.5 -28t-71 -12.5q-51 0 -79 26t-28 62q1 42 25 61t49 19q17 0 29 -6.5t20 -15t12.5 -18t5.5 -15.5q13 -7 43 22.5t84 79.5q40 -31 65 -55t39 -46.5t19 -46.5t5 -55q0 -30 -11 -52.5t-28.5 -40t-39.5 -30.5t-44 -22q54 -29 93.5 -64.5
t68.5 -73.5v615q14 -14 24 -24.5t17 -17.5l14 -14q8 -18 11.5 -35.5t14.5 -29.5q2 -3 9.5 -7t18.5 -6h54l47 -78h-93z" />
    <glyph glyph-name="bn_dh" unicode="&#x9a7;" horiz-adv-x="570" 
d="M412 452q-20 -12 -48.5 -30.5t-58.5 -38.5t-57 -39.5t-45 -35.5q56 -23 112.5 -64.5t96.5 -89.5v298zM178 527q11 -24 31.5 -39.5t57.5 -8.5q14 3 38.5 16.5t47.5 28.5q27 18 58 38v121h165l61 -78h-144v-644q-14 10 -24.5 15t-17 8.5t-10.5 5.5t-4 6q-17 56 -53 98
t-95 85q-10 8 -27 16t-37.5 15t-41.5 11.5t-40 4.5q-3 0 -16.5 11.5t-28.5 26.5t-27 29.5t-13 19.5q1 4 19 18.5t45.5 34.5t60 42.5t61.5 43.5q-19 -6 -32 -7.5t-22.5 -0.5t-16.5 3t-15 5q-39 14 -57 46t-13 74q6 53 41 83t103 30q24 0 42.5 -8.5t32 -22t21 -29.5t9.5 -31
q2 -12 -1.5 -23.5t-10.5 -20.5t-16.5 -15t-20.5 -7t-23.5 3t-22 12.5t-12.5 22.5t5 34q-19 7 -32 0t-20 -20.5t-8 -28.5t3 -24z" />
    <glyph glyph-name="bn_ch" unicode="&#x99b;" horiz-adv-x="536" 
d="M577 -125q-39 40 -84 76q-38 31 -86.5 63t-102.5 52q-30 11 -55 17t-48.5 10.5t-47 8.5t-50.5 10l-69 137q35 -12 58 -19.5t39 -11.5t27.5 -5t22.5 0q26 1 64.5 13.5t74 35t61 54.5t25.5 74q0 9 -2 21t-8.5 22t-20 16t-36.5 3q0 -45 -20.5 -80t-50 -59.5t-62.5 -39.5
t-58 -20q-11 -2 -30.5 8t-39 26t-33.5 35.5t-14 36.5v246h-39l-47 78h603l47 -78h-481v-15q37 -35 70.5 -47.5t65 -14.5t61 0t57 -5t54 -29.5t52.5 -72.5q20 -39 14.5 -80.5t-28.5 -79t-59.5 -67t-79.5 -45.5q22 -11 50 -26.5t62 -39.5t73 -57.5t82 -80.5l21 -89zM237 447
q-25 1 -43.5 6t-33 13t-25.5 18.5t-20 21.5v-156q0 -15 9 -18t23 2.5t30 18t29.5 28t22.5 33t8 33.5z" />
    <glyph glyph-name="bn_bh" unicode="&#x9ad;" horiz-adv-x="704" 
d="M64 544q10 -17 22.5 -51t31 -75t44 -83.5t61 -78t82 -58t106.5 -22.5q29 0 60.5 12.5t58.5 34t44.5 52t17.5 66.5q0 15 -1.5 30t-3.5 26t-5.5 16t-6.5 0q-6 -7 -23.5 -25.5t-45 -38t-64.5 -34.5t-82 -15q-53 0 -86 18t-48.5 45.5t-16 59t12 59t36 45.5t54.5 18
q25 0 46 -10t34 -27t16 -39.5t-8 -48.5q30 8 50 26t34 36.5t23 33.5t15 16q4 1 26 -8.5t47 -34.5t45 -67.5t20 -108.5q0 -57 -19.5 -103.5t-53.5 -79.5t-80.5 -51t-99.5 -18q-66 0 -119.5 29.5t-95.5 76.5t-73 105t-53.5 114.5t-37 105.5t-22.5 78zM-60 683h772l47 -78h-769
z" />
    <glyph glyph-name="bn_th" unicode="&#x9a5;" horiz-adv-x="644" 
d="M604 605q-9 0 -19 2.5t-19 4.5v-675l-51 44q-15 36 -49.5 76.5t-80 73.5t-97 52.5t-101.5 13.5l-120 143q100 -11 162 15t92 93q14 32 21 58.5t3.5 47t-19 34t-46.5 17.5q-35 5 -57.5 -10.5t-42.5 -44.5q32 -15 40.5 -39.5t-0.5 -47.5t-32 -39.5t-56 -15.5
q-46 2 -70.5 35.5t-24.5 74.5q0 33 20 62t51 50t68 33.5t72 12.5q37 0 70 -16t57.5 -44.5t38 -67.5t10.5 -84q-2 -31 -17 -62t-36 -57t-44.5 -46t-43.5 -30q36 -14 69 -35.5t59.5 -44t45 -43.5t25.5 -33v683q28 -10 38.5 -21t15 -23t9.5 -26t22 -31q12 -12 32 -12h43l48 -78
h-86z" />
    <glyph glyph-name="bn_gh" unicode="&#x998;" horiz-adv-x="576" 
d="M501 605v-662q-28 36 -43.5 66.5t-32 60t-40 59t-68.5 62.5q-18 13 -38 21t-41 12.5t-42 7.5t-39 5q-20 18 -37 33q-14 13 -25.5 25.5t-12.5 17.5q0 3 10 15.5t25 28.5t32.5 33.5l30.5 30.5q-34 5 -66 18t-52.5 35.5t-25.5 55t15 75.5h-59l-48 78h643l45 -78h-131z
M418 605h-191q-34 0 -53.5 -19t-21 -41.5t18 -42t62.5 -19.5q7 0 21.5 10t28.5 21q17 13 36 30q19 -17 33 -32q12 -13 22 -24t10 -14q0 -2 -18 -19.5t-43 -41t-51.5 -48t-42.5 -39.5q29 -9 56 -26t52 -37t45.5 -41.5t35.5 -38.5v422z" />
    <glyph glyph-name="bn_tth" unicode="&#x9a0;" horiz-adv-x="484" 
d="M334 605q68 -90 96 -181.5t18.5 -168.5t-56.5 -133t-130 -76q-37 -9 -82 3.5t-81 44t-55 81.5t-6 115q19 6 44.5 19t51.5 33.5t50 47.5t40 60t21 72t-8 83h-246l-47 78h252q-24 33 -44.5 72.5t-35 81t-20.5 83t-0.5 77.5t23.5 65t53 45l77 -60q-47 -13 -67 -38.5t-21 -59
t11.5 -71.5t31.5 -74.5t39.5 -68t34.5 -52.5h210l42 -78h-196zM330 485q-6 -55 -27 -100t-49 -79.5t-60 -58.5t-61 -38q-5 -31 4.5 -50.5t25 -30t33.5 -12.5t30 1q48 14 82 51.5t49.5 88t9.5 110t-37 118.5z" />
    <glyph glyph-name="bn_ddh" unicode="&#x9a2;" horiz-adv-x="472" 
d="M130 605v-391q0 -11 4 -23t10 -22t13.5 -16t13.5 -5q14 3 38.5 18.5t48.5 40.5t44 57t25 68q-16 -2 -33.5 2t-32 13.5t-24 26t-9.5 39.5q0 45 27 65t67 20q19 0 38.5 -9.5t35.5 -28t26 -46t10 -64.5q0 -48 -23.5 -98.5t-60 -93t-81 -72.5t-87.5 -36q-10 -1 -32 15.5
t-44.5 42t-39.5 54t-17 50.5v393h-56l-47 78h537l48 -78h-399z" />
    <glyph glyph-name="bn_uu" unicode="&#x98a;" horiz-adv-x="729" 
d="M449 605v-212q0 -32 16 -27.5t39.5 29.5t50.5 61.5t50 68.5q29 -19 51 -41t37 -49t23 -60.5t8 -76.5q0 -55 -20 -103t-54 -84t-79 -56t-96 -19q-94 3 -161 36t-113 84t-73.5 113t-43 122t-21.5 112t-10 82l62 -32q3 -11 12.5 -50.5t26.5 -91t43 -107t63 -98.5
q-9 14 -22 38t-20 43q-13 36 -24.5 77.5t-19.5 82t-11.5 76t-0.5 58.5l59 -35q0 -6 2 -20.5t8.5 -41t18.5 -66t33 -95.5q14 -36 34 -67t45.5 -53t55.5 -34t64 -11q30 1 59.5 12.5t54 32.5t40.5 50.5t18 66.5q2 20 -2.5 33.5t-12.5 24.5q-28 -31 -57.5 -54.5t-57 -38
t-51.5 -18.5t-41 3q-8 3 -19.5 15.5t-22.5 31t-18.5 41.5t-7.5 48v199h-373l-45 78h660q3 3 5 10q5 18 -5 30t-28.5 20t-43 12t-48.5 6t-44.5 3.5t-30.5 3.5l-155 30q-11 2 -29 8.5t-38.5 17t-40.5 26t-34.5 36.5t-21 47.5t-0.5 59.5q6 29 19.5 45.5t41.5 34.5l39 -41
q-21 -19 -29 -28t-13 -26q-2 -9 1.5 -18t11.5 -17t18.5 -14t22.5 -9q42 -10 75 -15.5t66.5 -10t73 -10t94.5 -16.5q44 -9 75 -29t50.5 -46t30 -55t13.5 -55h57l47 -78h-337z" />
    <glyph glyph-name="bn_dbl_viram" unicode="&#x965;" horiz-adv-x="496" 
d="M277 38v668l88 -77v-692zM140 38v668l88 -77v-692z" />
    <glyph glyph-name="bn_iikaar.alt" unicode="&#xe351;" horiz-adv-x="230" 
d="M131 605l9 -676l-89 90v586h-52l-55 78h115l-1 7q-12 41 -34.5 75.5t-51 60.5t-60 44t-60.5 25q-46 12 -89.5 4t-81.5 -26q-41 -20 -54 -44t-11 -49.5t14 -51t20 -46.5h-29q-18 17 -34 41.5t-27 52.5t-16 57.5t0.5 57t22 50t47.5 36.5q21 9 52.5 16.5t66 11t67.5 2.5
t56 -8q43 -13 85.5 -45.5t79 -76t64.5 -94t43 -100.5h111l52 -78h-160z" />
    <glyph glyph-name="bn_r_uukaar" unicode="&#xe352;" horiz-adv-x="679" 
d="M453 605v-84q14 8 26 13t22 9q11 4 21 8q10 2 21.5 1.5t20.5 -4.5q6 -4 18 -17.5t24 -27.5q14 -17 29 -37q-3 -26 -4.5 -41t-2 -29.5t-0.5 -33.5v-54q0 -30 -1.5 -65t-0.5 -69t5.5 -65t16.5 -54l1 -76q-33 31 -54.5 50.5t-34 36.5t-17 36.5t-3.5 49.5q0 3 -1.5 37
t-2 80.5t1 96t7.5 85.5q-28 -6 -51 -22t-41 -27v-449l-51 49q-9 30 -20.5 57t-28.5 52.5t-41 50.5t-58 52q-42 32 -80 45t-73 17q-21 23 -38 42q-14 17 -26.5 32t-14.5 19q-1 3 13.5 17t39.5 34.5t59.5 44.5t73.5 47.5t81 44.5t83 34v14h-378l-52 78h747l48 -78h-284z
M373 480q-19 -8 -43.5 -20.5t-51.5 -28t-55 -33t-52 -35.5q59 -29 108.5 -72t93.5 -97v286zM279 105q0 -30 -21 -51t-51 -21q-29 0 -50 21t-21 51q0 29 21 50t50 21q30 0 51 -21t21 -50z" />
    <glyph glyph-name="bn_two" unicode="&#x9e8;" horiz-adv-x="595" 
d="M554 -79q-78 84 -153 137.5t-138.5 87.5t-110.5 53t-68 32l-61 179q45 -27 79.5 -47.5t63.5 -35t56.5 -21.5t60.5 -7q15 0 34.5 3t36 10.5t28.5 19.5t12 30q1 34 -19 57t-50 40.5t-65 31.5t-65.5 29.5t-51 35t-21.5 46.5q-1 21 5.5 36t17.5 24.5t25.5 14.5t29.5 5
q18 0 31.5 -8.5t22 -21.5t12 -27.5t3.5 -25.5q7 -4 19 -10l26 -13t28 -14.5t25 -15.5q19 -12 37 -27.5t32 -37.5t22.5 -51t8.5 -68q0 -36 -12 -64t-31.5 -48.5t-43 -33t-46.5 -18.5q48 -29 108 -78t116 -113l21 -72z" />
    <glyph glyph-name="bn_visarga" unicode="&#x983;" horiz-adv-x="412" 
d="M362 544q-4 -55 -44 -93q-23 -21 -50 -31t-55 -10q-26 0 -51.5 11t-43.5 30q-17 17 -26.5 39.5t-9.5 50.5q1 30 14.5 57.5t36.5 46.5q20 18 44 27.5t45 9.5q30 0 56 -11t46 -31q18 -18 29 -42.5t9 -53.5zM285 563q3 12 1 19.5t-7 13.5t-12.5 6.5t-18.5 -0.5
q-13 -1 -26 -8t-27 -18q-14 -12 -24.5 -26t-12.5 -25q-3 -19 7 -28q5 -6 15 -8t20 -1q11 1 25.5 9.5t27.5 19.5q11 11 20.5 23t11.5 23zM363 187q-4 -55 -44 -93q-23 -21 -50 -31t-55 -10q-26 0 -51.5 11t-43.5 30q-36 36 -36 90q1 30 14.5 58.5t36.5 47.5q20 17 44 26t45 9
q61 0 103 -42q18 -18 28.5 -42.5t8.5 -53.5zM286 206q5 22 -6 33q-5 6 -13 6.5t-19 0.5q-13 -1 -25.5 -8.5t-26.5 -18.5q-14 -12 -24.5 -25.5t-12.5 -24.5q-3 -20 7 -28q5 -6 15 -8.5t20 -1.5q11 1 25 10.5t28 20.5q11 10 20.5 21.5t11.5 22.5z" />
    <glyph glyph-name="bn_rr" unicode="&#x9dc;" horiz-adv-x="640" 
d="M325 605q0 -71 -0.5 -114t0.5 -65.5t3.5 -29.5t8.5 -7q33 3 56.5 22.5t39.5 43t26.5 43t17.5 20.5q11 2 30 -11t38.5 -40t34 -67t15.5 -93q1 -44 -14.5 -88.5t-45.5 -79.5t-73.5 -57.5t-97.5 -22.5q-62 -1 -111 26t-86.5 71.5t-64.5 101t-43.5 114.5t-24.5 113t-8 95
l55 -30q0 -8 6 -40.5t19 -75t34 -90t51 -86t71 -62.5t93 -20q42 3 73 16.5t52 33t33 42.5t15.5 45t-0.5 41t-14 30q-57 -56 -99.5 -80.5t-79.5 -23.5q-6 0 -17.5 2t-24.5 12t-26.5 31t-23.5 60v220h-252l-54 78h709l52 -78h-373zM426 -54q0 -28 -20 -48t-48 -20
q-27 0 -47 20t-20 48t20 48t47 20q28 0 48 -20t20 -48z" />
    <glyph glyph-name="bn_avagraha" unicode="&#x9bd;" horiz-adv-x="510" 
d="M554 -157q-32 27 -67 56.5t-81 61.5q-48 33 -101 55t-98.5 35.5t-77 20t-36.5 7.5q-3 1 -13.5 16t-23 34.5t-24 39.5t-17.5 31q-3 9 1 22q2 6 4 13q18 -5 37.5 -11.5t39.5 -11t41 -5.5t43 4q29 6 64.5 22.5t68 40.5t55 53t23.5 60q1 18 -6.5 31.5t-22 19.5t-35 4
t-46.5 -15q-2 -11 -7 -28t-16.5 -35t-31 -34t-49.5 -24q-26 -7 -47 -3t-36 15t-24 27t-10 33q-2 31 9.5 54.5t32 41t47.5 29.5t57 20q-3 14 -10.5 28.5t-20 26.5t-31 19.5t-44.5 7.5h-109l-55 78h164q27 0 48.5 -5.5t38 -14.5t28.5 -19.5t20 -20.5q36 -44 44 -91q18 0 49 -5
t60.5 -21.5t51.5 -49t23 -88.5q1 -46 -17.5 -82.5t-46 -64.5t-59 -48.5t-55.5 -34.5q29 -15 65.5 -41.5t73.5 -57t71.5 -62.5t60.5 -57l21 -61z" />
    <glyph glyph-name="bn_anusvara" unicode="&#x982;" horiz-adv-x="413" 
d="M344 563q0 -32 -12 -58t-32.5 -44.5t-46.5 -28.5t-55 -10q-30 0 -54.5 10t-42.5 27.5t-28 41.5t-10 51q0 33 12 60t32.5 45.5t47.5 29t55 10.5q27 0 51 -10t42.5 -28t29.5 -42.5t11 -53.5zM262 608q-6 7 -16 8.5t-21.5 -1.5t-24 -9.5t-23.5 -15.5q-23 -20 -34 -41t0 -35
q13 -15 38 -9t49 24q24 19 34.5 41t-2.5 38zM372 -69q-18 31 -40.5 64t-47.5 65t-51 63t-51 59q-58 65 -120 127l33 107q45 -39 85 -83.5t76 -94.5t70.5 -105t69.5 -116z" />
    <glyph glyph-name="bn_sh_raphala_iikaar" unicode="&#xe355;" horiz-adv-x="964" 
d="M882 605l4 -659l-85 86v613q0 52 -16 91.5t-42 68t-58.5 47t-65.5 29.5t-63.5 15.5t-51.5 4.5h-83q-14 0 -43 -1.5t-58 -7.5t-50.5 -19t-21.5 -36q0 -8 6.5 -11.5t16 -4t21.5 1.5t24 3q18 3 34.5 5t36 3t43 1.5t54.5 0.5q44 -1 82 -14t66 -41t44 -72.5t16 -108.5v-601
l-28 -6q-1 2 -6 7l-10 10q-6 6 -14 13q-1 16 -2.5 32t-6 31t-14.5 27t-30 21q-11 5 -33.5 4t-51.5 -5t-62 -10t-65.5 -11t-61.5 -7.5t-50 0.5q-31 4 -60 16.5t-53 33.5t-41.5 49t-25.5 63t-1.5 75.5t17.5 80.5l50 -27q-7 -28 -8.5 -47t0.5 -36q5 -37 29.5 -64.5t86.5 -34.5
q23 -3 51.5 0.5t60 8.5l63 10t58.5 6q28 1 47.5 -2t33.5 -9t24.5 -14t19.5 -18v281q0 11 -11 28t-26 32.5t-31.5 27t-28.5 11.5q-13 0 -27 -8.5t-24 -19.5q19 -16 37 -30.5t32 -30.5t22.5 -35.5t8.5 -46.5q0 -16 -6.5 -31t-18.5 -27t-28.5 -19t-36.5 -7q-16 0 -30 6.5
t-25.5 16.5t-21 21t-17.5 21q-7 -12 -15.5 -23.5t-20 -21t-27 -15t-36.5 -5.5q-16 0 -31.5 6.5t-28 18.5t-20.5 30t-8 41q0 33 31 69.5t76 65.5q-10 16 -29.5 22t-43.5 7t-51 -2t-53 -5l-72 112q51 -3 96 -2.5t83.5 -6.5t69.5 -26t54 -62q13 14 27 29.5t30.5 28.5t34.5 21
t38 8q21 0 39 -7.5t33.5 -20t29.5 -28.5t27 -33v97q0 29 -17.5 40t-40.5 12.5t-45.5 -2t-31.5 -3.5q-17 -1 -39.5 -2t-45 -1.5t-42.5 0t-33 2.5q-22 4 -44 12t-40 21.5t-29.5 33.5t-11.5 48q0 35 22.5 62t60 45t86.5 27.5t101 9.5q104 0 183 -29.5t135 -83.5
q26 -25 43.5 -51.5t28.5 -52t16.5 -48.5t7.5 -41h89l48 -78h-129z" />
    <glyph glyph-name="bn_aikaar_init" unicode="&#xe356;" horiz-adv-x="438" 
d="M430 605q-71 0 -116 -32t-70.5 -81t-34.5 -106t-8 -108q0 -37 6.5 -71t17 -62.5t25 -49.5t30.5 -30q17 -11 36 -7q-5 8 -10 19t-5 26q0 34 22.5 56t62.5 21q14 0 28 -6t25 -17.5t18.5 -29.5t7.5 -42q0 -19 -10 -37t-27 -32t-40 -22t-49 -8q-51 0 -96 31t-76.5 84.5
t-46 126t-4.5 157.5q3 29 11 57.5t18 53t21.5 45t21.5 34.5q23 31 47.5 51t47.5 31.5t42.5 16.5t31.5 6q-2 5 -10 18.5t-23 20.5t-34 17.5t-38.5 22t-38 23.5t-32.5 22q-25 14 -42.5 44t-26 65.5t-6.5 71.5t16 63q10 20 29.5 37.5t52.5 22.5l18 -48q-19 -11 -29 -24t-15 -24
q-9 -25 0.5 -46.5t29.5 -39t46 -31.5t50 -25q36 -16 57.5 -38.5t33.5 -48t16.5 -51.5t6.5 -50l29 1l42 -78h-59z" />
    <glyph glyph-name="bn_e" unicode="&#x98f;" horiz-adv-x="660" 
d="M615 -55q-16 18 -28 33q-11 13 -19.5 24t-8.5 13q-4 38 -12.5 61t-24 35t-40.5 14t-63 -2q-26 -3 -54 -6t-54.5 -4.5t-50.5 -2t-44 2.5q-22 3 -53.5 16.5t-60 41t-48.5 70.5t-20 104q0 36 12 78.5t41 93.5l42 -41q-12 -23 -17.5 -41t-8 -32t-2.5 -25v-20q-1 -60 32 -95.5
t83 -39.5q21 -2 46.5 -1.5t51 2l51 3t46.5 1.5q42 0 72.5 -16t51.5 -32v387q0 13 -6.5 21t-11.5 8q-12 0 -30.5 -8.5t-39.5 -23t-41.5 -33t-36.5 -39.5q-11 -15 -16.5 -28.5t-6.5 -23.5q8 3 17 5.5t18 2.5q20 0 34 -8.5t22.5 -20.5t12 -26t3.5 -25q0 -21 -10.5 -37.5
t-25.5 -27.5t-32 -16.5t-32 -5.5q-58 0 -91.5 36t-33.5 96q0 41 16 77.5t41 67t55 54.5t59 41t52.5 25.5t34.5 8.5q23 0 45.5 -15t41.5 -36t30.5 -43t11.5 -36v-612z" />
    <glyph glyph-name="bn_ii" unicode="&#x988;" horiz-adv-x="623" 
d="M177 605q5 -7 8.5 -14.5t7.5 -16.5q33 -1 61 -12t48.5 -29t33.5 -42t16 -50q24 21 51 42.5t50.5 38.5t40.5 27.5t21 11.5q8 1 26 -9.5t37 -24.5q22 -16 48 -36q-19 -15 -46 -46t-52 -73t-44 -92t-22 -102q-2 -34 -3.5 -58t-0.5 -48t5 -54t11 -76q-9 9 -15 15.5t-11.5 12
t-12 10.5t-15.5 12q-7 39 -12 62t-7.5 41.5t-3.5 39.5t-1 55q0 33 2.5 52.5t6 36t8.5 36t9 51.5q-34 -38 -61.5 -77t-54.5 -70.5t-55 -52t-62 -20.5q-23 0 -43.5 12t-37.5 32.5t-29.5 48.5t-19.5 59l53 33q10 -36 17.5 -53t28.5 -16q18 1 40.5 15.5t43 36t34.5 46t15 44.5
q1 28 -7 39t-27 22q-10 5 -20.5 5t-18.5 -2q-1 -40 -25.5 -69.5t-68.5 -29.5q-15 0 -31.5 7.5t-29 21.5t-19 34t-1.5 44q8 35 30.5 56t48.5 31q-16 17 -44 29.5t-71 12.5h-13l-54 78h516q1 2 1 4t1 5q4 17 -9.5 27.5t-37 17t-55 10t-64.5 6.5t-64 7t-55 11q-35 11 -68 27.5
t-57.5 39.5t-37 53.5t-6.5 68.5q5 28 23 47.5t35 30.5l49 -39q-12 -9 -23 -20q-9 -9 -16 -20.5t-6 -22.5q2 -19 27 -34.5t61 -20.5q17 -2 45.5 -6t60 -8t60.5 -8.5t45 -7.5q70 -14 109 -58t50 -110h107l51 -78h-505z" />
    <glyph glyph-name="bn_i" unicode="&#x987;" horiz-adv-x="540" 
d="M628 -159q-33 26 -65 52.5t-62 51t-57.5 45.5t-51.5 35q-58 35 -108 57.5t-87.5 36t-60.5 19.5t-27 7q-4 2 -14.5 18.5t-22.5 38t-23.5 42.5t-16.5 33q-2 5 -0.5 11.5t3.5 11.5q3 6 7 13q18 -9 36.5 -18.5t38.5 -17t41 -12.5t43 -4q28 1 63.5 11t67 28t53.5 42.5t24 54.5
q1 19 -7.5 35.5t-24.5 26.5t-37.5 12.5t-47.5 -7.5q-3 -12 -12 -32t-24 -38.5t-37 -32t-53 -13.5q-27 0 -45.5 7.5t-29.5 19.5t-16 27.5t-5 31.5q0 30 13 52.5t34 39t48 26.5t55 14q-9 16 -29.5 27.5t-48.5 11.5h-142l-51 78h415v-12q4 25 -9 39t-37.5 22t-58 11.5t-70 7.5
t-73 11.5t-67.5 23t-53.5 41.5t-31.5 67q-5 23 0.5 44t14.5 38q11 20 25 38l54 -36q-11 -11 -20 -22q-8 -10 -13 -20.5t-4 -21.5q2 -24 24.5 -37.5t52 -20.5t58 -9t43.5 -4q103 -9 160.5 -47.5t68.5 -112.5h110l51 -78h-306q4 -13 7 -23t5 -16q17 -2 47.5 -9.5t61 -28.5
t54 -58.5t24.5 -99.5q1 -45 -17 -78t-45 -56.5t-58 -38.5t-56 -25q31 -17 71 -44t80 -58.5t75.5 -64t58.5 -60.5z" />
    <glyph glyph-name="bn_u" unicode="&#x989;" horiz-adv-x="629" 
d="M330 605q0 -71 -0.5 -117t0 -73t3.5 -37t9 -9q30 5 52.5 26.5t38.5 46t26.5 46.5t15.5 26q7 6 28 -6t42.5 -39t38.5 -68.5t16 -93.5q0 -45 -16 -89t-45.5 -79.5t-72.5 -57.5t-97 -23q-62 -1 -110.5 24t-85 66t-61.5 94t-41 108t-23 107.5t-7 93.5l55 -31q1 -9 6 -38.5
t16.5 -69t31 -83t48.5 -79t69 -57t93 -18.5q42 3 73 16.5t52 33t33 43t15.5 45.5t-0.5 41t-14 30q-57 -56 -99 -80.5t-80 -24.5q-6 0 -21.5 10.5t-31 28t-27.5 41t-12 48.5v198h-255l-52 78h538v8q-1 13 -10 21.5t-22.5 14t-30.5 8.5l-34 6l-170 27q-19 3 -53 16.5t-65 38
t-51 59t-11 79.5q3 17 9 28t13.5 19.5t16.5 15t18 14.5l48 -38q-10 -9 -17.5 -15t-12 -11.5t-7.5 -11.5t-5 -16q-3 -16 5.5 -27.5t23.5 -19t33.5 -12t35.5 -7.5l186 -30q29 -4 57 -17t51 -34t38.5 -50t19.5 -66h93l48 -78h-356z" />
    <glyph glyph-name="bn_k_ss" unicode="&#xe358;" horiz-adv-x="796" 
d="M557 605v-58q58 3 101 -11t71.5 -40t43 -61.5t14.5 -75.5q0 -25 -7.5 -47.5t-21.5 -40t-34 -28t-45 -10.5q-42 0 -67 22t-26 57q-2 39 19.5 61.5t58.5 23.5q19 0 35 -8t28 -20q5 15 0 28.5t-18 23.5t-34 15.5t-48 3.5l-37.5 -2.5t-32.5 -2.5v-470q-29 20 -40.5 33.5
t-16.5 24.5q-8 30 -15.5 55.5t-20.5 48t-36 42t-63 37.5q-10 -17 -31 -36t-53 -21q-18 -1 -36 5.5t-32.5 18.5t-23.5 29.5t-9 38.5q0 27 12 45.5t29.5 29t36.5 14.5t34 3q4 25 -1.5 46t-18.5 35.5t-32.5 21.5t-43.5 2q3 -22 -3 -41t-18 -32.5t-28.5 -21.5t-33.5 -8
q-45 0 -72 24t-28 67q0 26 8.5 44.5t22 31t29.5 20t30 10.5q-2 7 -4.5 18t-6 21.5t-8 20t-10.5 13.5h-81l-54 78h867l52 -78h-301zM475 605h-115q-1 -7 -0.5 -15t4 -16.5t10.5 -16.5t20 -14q17 -8 40.5 -7t40.5 3v66zM473 429q-39 3 -70.5 19.5t-56 41.5t-41 55t-25.5 60
h-127q-3 -2 -2 -9.5t4 -18t6.5 -21.5t6.5 -19q41 -3 78.5 -25t66.5 -55.5t47 -74.5t20 -83q30 -6 50 -28.5t43 -54.5v213z" />
    <glyph glyph-name="bn_sh" unicode="&#x9b6;" horiz-adv-x="696" 
d="M673 605q-13 0 -24.5 3t-22.5 6q0 -22 1.5 -61.5t2.5 -89.5t3 -106.5t3 -113.5t2 -110.5t1.5 -96.5t0 -73t-2.5 -39l-83 98v401q0 6 -6.5 19.5t-18 29.5t-26.5 33t-31.5 31t-34 23t-34.5 9q-6 0 -21.5 -10t-35.5 -33q24 -16 45 -31t37 -33.5t24.5 -41t8.5 -53.5
q0 -23 -9 -40t-23 -28t-30.5 -16t-32.5 -5q-20 0 -35 6t-27 16.5t-22.5 24t-22.5 28.5q-10 -14 -20 -27t-22 -23t-28 -16t-37 -6q-18 0 -35.5 6t-31.5 17.5t-22.5 29t-8.5 41.5q0 31 11 54t28.5 41t39 32t41.5 27q-13 24 -33 33.5t-40.5 11.5t-38.5 1t-26 0q-10 11 -29 37.5
t-48 71.5q75 1 120 -5.5t72.5 -20.5t43.5 -36t34 -51q14 16 33 36.5t41 37.5t45.5 27t45.5 6q26 -4 51 -22t47 -39.5t38.5 -43t25.5 -33.5v261q27 -15 38.5 -27t16.5 -24t9.5 -24.5t16.5 -28.5q5 -5 9.5 -8.5t12.5 -4.5h41l62 -78h-89z" />
    <glyph glyph-name="bn_reph" unicode="&#xe359;" horiz-adv-x="0" 
d="M-175 733h-141v30l353 231h42z" />
    <glyph glyph-name="bn_o" unicode="&#x993;" horiz-adv-x="665" 
d="M621 251q0 -39 -15.5 -76.5t-42 -66t-60 -46t-69.5 -17.5q-65 0 -121.5 34t-103 87t-83.5 117.5t-63.5 126t-42.5 112.5t-21 76l69 -41q12 -27 29 -66.5t39 -82.5t50.5 -85.5t64 -76t79 -54.5t95.5 -21q24 0 46.5 9.5t40 24.5t28 34t11.5 38q0 10 -1.5 15t-4.5 8.5
t-7.5 6.5l-10.5 7q-14 -10 -26.5 -14.5t-35.5 -4.5q-17 0 -33.5 7t-29.5 18.5t-21 27.5t-8 34q0 12 3.5 25t11.5 25.5t22 22.5t36 16q18 5 34 2.5t30 -9.5q9 12 17.5 34t8.5 38q0 17 -7 30.5t-17.5 23t-22.5 14.5t-23 6q-17 2 -41.5 -5.5t-49 -20t-45.5 -28t-31 -31.5
q10 -3 19.5 -9t17 -15t11.5 -21.5t2 -29.5q-5 -41 -29 -58.5t-59 -17.5q-24 0 -42 10.5t-30 26.5t-18 34t-6 34q0 28 18 64t51 68t80 54t106 22q48 0 82.5 -16t56.5 -42t32.5 -58.5t10.5 -65.5q0 -16 -3.5 -35.5t-8.5 -38.5t-11.5 -36t-12.5 -27q8 -5 17.5 -14t18 -23
t14 -33.5t5.5 -46.5z" />
    <glyph glyph-name="bn_k_t_ukaar" unicode="&#xe35a;" horiz-adv-x="862" 
d="M-11 605l-51 78h934l56 -78h-939zM445 -8q-53 0 -99 20.5t-86 55t-73 79.5t-60.5 93t-48.5 95.5t-36 88.5t-24.5 71t-12.5 42l69 -46q9 -20 23 -56t34.5 -78t49 -86t66.5 -79.5t86 -58t107 -22.5q12 0 33.5 4t42.5 13t36.5 23.5t15.5 36.5q0 14 -8 28t-18 22
q-28 -21 -61 -23q-17 0 -33 6t-28 18t-19.5 28t-7.5 35q0 28 13 47.5t32 29.5t41 10.5t40 -8.5q6 8 12 21t9 41q3 20 -6 30.5t-23.5 15t-31.5 3.5t-30 -3q-16 -3 -36 -9.5t-39 -16t-34.5 -22t-23.5 -27.5q21 -8 33.5 -26.5t12.5 -46.5q0 -18 -7.5 -32.5t-19.5 -24.5
t-26 -15.5t-27 -5.5q-21 0 -39 8.5t-31 22.5t-20 32t-7 38q0 47 24 85.5t60.5 66t81 42.5t85.5 15q40 0 68.5 -10t48 -25.5t31.5 -34t18 -35.5q21 20 49 34.5t54 14.5q41 0 66 -18.5t38.5 -43t17.5 -49.5t3 -39q-2 -31 -13 -53.5t-27 -36.5t-35 -20.5t-37 -6.5
q-11 0 -24.5 5t-25 14t-19.5 22t-8 30q0 32 19 48t45 16q15 0 33.5 -7t29.5 -27q2 10 -1 19q-5 22 -21 39t-45 19q-26 2 -49.5 -9.5t-42.5 -39.5q-5 -28 -11.5 -51.5t-14.5 -39.5q16 -14 33 -44.5t17 -85.5q0 -53 -30.5 -95t-78.5 -59q16 -29 20.5 -63.5t5.5 -56.5
q51 -41 92.5 -76.5t72.5 -62.5t50.5 -44t26.5 -21l11 -100q-18 15 -53 47t-74.5 69t-78 72t-63.5 55q-33 -57 -74 -77t-78 -19q-24 0 -46.5 8.5t-39.5 23t-27 33.5t-9 42q1 28 13.5 50.5t30.5 38t39.5 24t39.5 8.5q32 0 56 -9.5t52 -23.5q2 17 3 36t-1 39q-25 -5 -48 -5z
M477 -137q-17 9 -41 17t-47 10q-14 1 -29 -4t-27.5 -13t-20 -19.5t-6.5 -24.5q1 -12 11.5 -21t25.5 -14t32 -5.5t31 4.5q29 11 46 32.5t25 37.5z" />
    <glyph glyph-name="bn_aikaar" unicode="&#x9c8;" horiz-adv-x="380" 
d="M-64 683h361q-2 5 -10 17.5t-23 19.5t-34 17.5t-38.5 22t-38 23.5t-32.5 22q-25 14 -42.5 44t-26 65.5t-6.5 71.5t16 63q10 20 29.5 37.5t52.5 22.5l18 -48q-19 -11 -29 -24t-15 -24q-9 -25 0.5 -46.5t29.5 -39t46 -31.5t50 -25q36 -16 57.5 -38.5t33.5 -48t16.5 -51.5
t6.5 -50h36l55 -78h-45q-16 -5 -41.5 -17t-54 -31.5t-57 -47.5t-51.5 -67t-37.5 -90t-14.5 -115q0 -49 12.5 -86.5t30 -62t38 -35t37.5 -6.5q-7 10 -11.5 22t-4.5 23q1 33 23 56t59 23q24 0 40 -9t25.5 -23t13.5 -32t4 -35q0 -12 -8 -29t-23 -32t-38.5 -26t-55.5 -11
q-45 0 -86 24t-72.5 65t-50 96t-17.5 119q1 61 10.5 107t27 83.5t43 70t57.5 66.5h-210z" />
    <glyph glyph-name="bn_t_ukaar" unicode="&#xe35b;" horiz-adv-x="698" 
d="M-16 605l-48 78h769l45 -78h-766zM715 -330q-18 15 -52.5 44t-73.5 62t-77 65t-63 52q-33 -57 -74 -77t-78 -19q-24 0 -46.5 8.5t-39.5 23t-27 33.5t-9 42q1 28 13.5 50.5t30.5 38t39.5 24t39.5 8.5q32 0 56 -9.5t52 -23.5q2 17 3 33.5t-1 36.5q-82 0 -145.5 45.5
t-112.5 118t-85 163t-64 180.5l65 -35q7 -8 18.5 -37.5t30 -69t43.5 -83.5t60.5 -81t81 -61.5t103.5 -24.5q36 0 65.5 15t50.5 37.5t32 49t11 50.5q0 16 -4.5 36t-13 39.5t-19.5 35t-25 22.5q-14 8 -27.5 12t-29.5 1q7 -11 12 -27.5t5 -39.5q0 -25 -9.5 -44.5t-24.5 -32.5
t-33.5 -19.5t-36.5 -6.5q-50 0 -80.5 32t-30.5 82q0 28 8.5 55.5t28 49.5t50 35.5t74.5 13.5q43 0 83 -18t71.5 -53.5t50.5 -87t19 -118.5q0 -32 -13 -68.5t-37 -69t-58 -57.5t-77 -35q12 -29 15.5 -60.5t4.5 -51.5q103 -82 164 -129t75 -55zM392 -67q-17 9 -41 17t-47 10
q-14 1 -29 -4t-27.5 -13t-20 -19.5t-6.5 -24.5q1 -12 11.5 -21t25.5 -14t32 -5.5t31 4.5q29 11 46 32.5t25 37.5z" />
    <glyph glyph-name="bn_l" unicode="&#x9b2;" horiz-adv-x="688" 
d="M611 605v-659l-84 96v319q0 12 -8 28t-19.5 30t-24 23.5t-21.5 10.5q-28 2 -39 -32t-1 -96l-50 25q-7 10 -17.5 26.5t-26 32t-38 27t-53.5 11.5q-51 0 -76.5 -29.5t-25.5 -75.5q0 -34 16.5 -52.5t40.5 -26.5q-8 18 -8 42q0 32 26 53.5t60 21.5q38 0 62.5 -26t24.5 -64
q0 -56 -35 -83.5t-92 -26.5q-40 0 -72.5 16.5t-55.5 43.5t-35.5 62t-12.5 72q0 33 11.5 66t34 60t54.5 43.5t74 16.5q20 0 37.5 -6t32.5 -15.5t27.5 -20.5t21.5 -21q13 23 34 41.5t49 18.5q36 0 60.5 -22t44.5 -49v119h-520l-47 78h729l47 -78h-125z" />
    <glyph glyph-name="bn_six" unicode="&#x9ec;" horiz-adv-x="660" 
d="M612 292q0 -46 -15 -87t-42 -72t-65.5 -49.5t-86.5 -18.5q-78 0 -139.5 44t-107.5 117t-77 167.5t-46 195.5l63 -33q8 -23 19 -59t27 -76.5t38 -81.5t52 -74t69.5 -54t89.5 -21q27 0 54 9.5t48.5 26t35 40.5t13.5 52q0 41 -19 71q-12 -16 -27 -32t-31 -28.5t-31 -21.5
t-26 -11q-16 -3 -36 -2t-40.5 9.5t-40.5 24.5t-35 41q-8 14 -14.5 39.5t-11 53t-8 52.5t-6.5 38q-11 0 -23 4.5t-21.5 12t-15 19t-5.5 26.5q1 33 21.5 49.5t52.5 16.5q44 0 66 -33t27 -78q3 -31 1 -63t-2.5 -58.5t5.5 -43.5t26 -19q17 -1 37 18.5t38 46.5t31 53.5t16 39.5
q21 -9 46 -26.5t46.5 -47.5t35.5 -73.5t14 -103.5z" />
    <glyph glyph-name="bn_khandata" unicode="&#x9ce;" horiz-adv-x="490" 
d="M450 44q-3 14 -4.5 27.5t-11.5 29t-34 33.5t-73 39q-22 10 -50 21t-57 24.5t-56.5 29.5t-48.5 34q-43 39 -65.5 85.5t-22.5 102.5q0 38 16 76t43.5 68t64.5 49t79 19q48 0 80 -15.5t50.5 -39t26 -50t7.5 -49.5q0 -25 -12 -50.5t-32.5 -45t-48.5 -29.5t-60 -4
q-29 5 -50.5 18.5t-35.5 32t-21.5 40t-9.5 41.5q-11 -13 -18.5 -28t-7.5 -35q0 -31 21 -64t57 -48q54 -23 109 -45t103 -58q27 -20 49.5 -43t39 -53.5t25.5 -70t9 -93.5zM327 520q5 14 -3 24.5t-20 17.5t-25.5 11t-19.5 5q-19 2 -35.5 1t-33.5 -8q6 -19 16 -33.5t21.5 -24
t22.5 -14.5t19 -5q19 -2 35.5 3t22.5 23z" />
    <glyph glyph-name="bn_raphala" unicode="&#xe35e;" horiz-adv-x="0" 
d="M-137 -137q-5 12 -10.5 24t-15.5 21.5t-27 15.5t-44 5q-26 0 -41 -1t-26.5 -2t-24.5 -2.5t-35 -2.5q-31 -1 -57.5 10t-47.5 31.5t-36 48t-21 58.5q-5 25 -1 55t16 43l38 -30q-2 -24 1 -47.5t13.5 -42.5t28.5 -29.5t45 -7.5l116 13q47 1 73.5 -15t43.5 -35v227h70v-400z
" />
    <glyph glyph-name="bn_a" unicode="&#x985;" horiz-adv-x="768" 
d="M700 605v-643q-28 31 -42.5 47.5t-18.5 37.5q-3 20 -10 46.5t-19 55t-28.5 56t-38.5 48.5q-7 -15 -20.5 -33t-32.5 -34t-44.5 -26.5t-57.5 -10.5h-28t-45 9.5t-58.5 32.5t-70 69.5t-78 120t-83.5 183.5l72 -24q3 -4 11.5 -25.5t23.5 -52.5t37.5 -65.5t52 -63.5
t67.5 -48.5t85 -19.5q12 0 31 4.5t36.5 17t30.5 34.5t13 56q0 41 -24 71t-56 41q4 -22 -0.5 -42t-17 -35t-32 -23.5t-45.5 -8.5q-44 0 -69.5 27t-27.5 67q-2 38 17.5 63t52.5 37q-14 11 -35 21t-45 10h-209l-47 78h832l51 -78h-130zM619 605h-287q-8 0 -5.5 -2.5t7.5 -5.5
q6 -4 17 -9q27 -5 53.5 -14t50.5 -25t44.5 -39t36.5 -56q17 -35 18.5 -60.5t1.5 -40.5q11 -12 28.5 -39t34.5 -59v350z" />
    <glyph glyph-name="bn_b" unicode="&#x9ac;" horiz-adv-x="531" 
d="M459 605v-659q-13 14 -22.5 27.5t-16.5 24.5q-8 12 -14 24q-10 30 -26.5 59t-37 55.5t-43.5 48t-46 34.5q-32 20 -69 38t-90 21q-6 5 -19 19.5t-25.5 30.5t-22.5 30t-10 17q0 2 15 15t41 32t60.5 42t74.5 46t82.5 43.5t84.5 34.5v17h-387l-47 78h593l48 -78h-123z
M375 476q-34 -13 -88.5 -41.5t-122.5 -76.5q36 -14 68 -35t58.5 -44t48 -46t36.5 -43v286z" />
    <glyph glyph-name="bn_nya" unicode="&#x99e;" horiz-adv-x="936" 
d="M905 263q-1 -35 -13 -59t-30.5 -39t-41 -21.5t-44.5 -6.5q-31 0 -59 12t-52 30.5t-43.5 41t-33.5 44.5v-328l-58 69q-5 17 -8 37.5t-10 38t-22.5 29.5t-46.5 13q-17 1 -50 -1.5t-69.5 -5t-71.5 -3t-55 3.5q-37 8 -68 26.5t-54 46.5t-36.5 65t-15.5 81q-2 48 14.5 94.5
t40.5 79.5l39 -42q-20 -35 -26 -62.5t-4 -53.5q3 -49 22.5 -77t48.5 -40.5t63.5 -14t68.5 1t64 5.5t48 0q35 -6 58.5 -20t43.5 -31v413q-2 6 -6 11t-8 4q-7 -1 -28 -11t-46 -28t-50 -44.5t-41 -59.5q-3 -10 -3 -19q9 4 20.5 6.5t25.5 -0.5q32 -6 48 -29.5t14 -53.5
q-1 -20 -11 -35.5t-26 -25.5t-35.5 -15t-39.5 -5q-19 0 -40 9t-38.5 27t-28 43.5t-9.5 58.5q3 55 35 104t75 85.5t87 57.5t72 21q14 0 32.5 -11.5t35.5 -28.5t30 -36t17 -34l1 -29q14 20 32.5 41t41 38.5t49.5 28.5t57 11q12 0 35 -5t45 -21.5t38 -48t15 -84.5
q-1 -48 -15 -75.5t-25 -41.5q15 -19 30.5 -50.5t14.5 -81.5zM840 513q-1 23 -19 41t-47 17q-34 -1 -67 -19t-58.5 -43t-41 -52.5t-15.5 -46.5q0 -24 14.5 -53.5t38 -55.5t52.5 -43.5t57 -17.5q20 0 34.5 5.5t24 14t15 18t6.5 16.5q3 16 -3 26.5t-16 20.5
q-15 -11 -33.5 -18.5t-37.5 -5.5q-14 2 -28 8.5t-24.5 17.5t-17 25.5t-6.5 32.5q0 21 7.5 36.5t19.5 25.5t26.5 15t29.5 5q21 1 32.5 -6t21.5 -12q11 6 23 18.5t12 29.5z" />
    <glyph glyph-name="bn_d" unicode="&#x9a6;" horiz-adv-x="570" 
d="M161 605v-261q18 35 50 71.5t70 68.5t78.5 56t74.5 33q28 -19 52 -36q20 -14 38 -29t21 -24q-56 -67 -91 -130t-51.5 -129t-17 -136.5t11.5 -152.5l-53 55q-10 53 -13.5 108.5t-0.5 110.5t12 107.5t24 97.5q-57 -26 -104.5 -76.5t-77.5 -136.5v-84q-29 19 -52 40
q-20 18 -36 41t-16 49l-1 357h-77l-48 78h618l45 -78h-456z" />
    <glyph glyph-name="bn_aakaar.terminal" unicode="&#xe35f;" horiz-adv-x="275" 
d="M126 18v474q-24 48 -56 80.5t-73 32.5l-33 78h35q25 0 45.5 -6.5t37 -17t29.5 -23t22 -25.5v179q24 -9 35 -18.5t15.5 -20t7.5 -22t10 -23.5l4 -67l10 -711z" />
    <glyph glyph-name="bn_n" unicode="&#x9a8;" horiz-adv-x="574" 
d="M499 605v-636l-62 49q0 62 -15.5 123.5t-42 111t-62 82.5t-76.5 37q11 -12 20 -30t9 -43q0 -28 -10 -48.5t-27 -34t-38.5 -20t-44.5 -5.5q-20 0 -40.5 11t-37 29t-27 41t-10.5 48q0 20 8 46t27 49.5t51 40t80 16.5q41 0 74.5 -15t60.5 -38.5t47 -51t33 -51.5v289h-424
l-48 78h641l45 -78h-131z" />
    <glyph glyph-name="bn_nn" unicode="&#x9a3;" horiz-adv-x="532" 
d="M499 605q-20 0 -35 7l11 -667l-89 103v359q0 14 -13 41t-34.5 54t-50 47.5t-59.5 20.5q-16 0 -34 -8.5t-33 -24.5t-24.5 -38.5t-9.5 -50.5q0 -26 11 -43q2 32 26 51.5t58 19.5q20 0 36.5 -9.5t28 -24.5t17.5 -34t4 -37q-4 -46 -35.5 -70t-76.5 -24q-24 0 -54.5 8.5
t-57.5 29.5t-45.5 57t-17.5 91q0 41 15.5 79.5t42 68t61.5 47t75 17.5q30 0 56 -13t48 -32.5t39.5 -43t31.5 -43.5v272q29 -31 41.5 -46t17 -24t5 -17t4.5 -26q2 -5 17 -12.5t27 -6.5h36l61 -78h-101z" />
    <glyph glyph-name="bn_m" unicode="&#x9ae;" horiz-adv-x="580" 
d="M494 605v-646l-59 66q-2 10 -7 35.5t-19 56.5t-39 61t-66 48q-19 -28 -49 -45.5t-72 -17.5q-23 0 -44.5 8t-37.5 23.5t-25.5 37.5t-9.5 48q0 38 18.5 63t44.5 38t55 14.5t51 -6.5q10 30 -13 60.5t-69 56.5q-24 14 -54.5 24t-61.5 21q-20 8 -27.5 24t-9.5 30h-11l-47 78
h636l47 -78h-131zM411 605h-252q38 -33 70.5 -64t56 -64.5t36.5 -73t13 -89.5q17 -14 38 -39.5t38 -51.5v382z" />
    <glyph glyph-name="bn_j" unicode="&#x99c;" horiz-adv-x="732" 
d="M445 605q-3 0 -10 -1t-14 -3t-13 -4.5t-8 -4.5q12 -23 31.5 -40t64.5 -20q15 -1 33 2.5t35.5 8t32.5 8t23 3.5t18 -11t21.5 -27.5t24 -36t24.5 -37.5q-25 -29 -46.5 -54.5t-38 -53.5t-27.5 -62t-15.5 -80t-1.5 -107.5t15 -144.5l-41 38q-16 68 -25 137.5t-7 132.5
t18.5 115.5t50.5 84.5q-20 -1 -47 -5t-57.5 4.5t-62.5 35.5t-63 87q-18 -7 -42 -22t-46.5 -34t-38 -39.5t-17.5 -40.5q-2 -22 13 -33.5t33 -10.5q15 0 31 9.5t31.5 21t30 22.5t27.5 15q18 -7 38.5 -21t37 -38t26 -59.5t5.5 -85.5q-4 -52 -25.5 -86t-50 -53.5t-59 -26.5
t-53.5 -5q-89 8 -143.5 55.5t-82.5 116t-35 147t-1 147.5l47 -29q2 -16 3.5 -45.5t6.5 -64.5t16.5 -71.5t33.5 -66t57 -48t87 -18.5q19 0 40 3t39.5 10.5t32 22t16.5 36.5q2 16 -6 33.5t-23 22.5q-5 2 -11.5 -4.5t-18 -15t-29.5 -15.5t-45 -7q-28 0 -52.5 13.5t-43 36
t-29 51.5t-10.5 61q0 45 20 80.5t49 70.5h-215l-47 78h783l40 -78h-335z" />
    <glyph glyph-name="bn_g" unicode="&#x997;" horiz-adv-x="600" 
d="M563 605q-24 3 -45 11l13 -666l-87 92v376q0 18 -14.5 46.5t-39.5 55.5t-58 46.5t-70 19.5q-32 0 -65 -16.5t-50 -51.5q32 6 66.5 5t63 -16.5t47 -47.5t19.5 -88q0 -24 -9 -53.5t-24.5 -59.5t-37 -58t-46.5 -49q-27 21 -43.5 37.5t-26.5 27.5q-11 13 -17 23q11 8 30 25
t37.5 41t34.5 53.5t21 62.5q1 7 -4 17t-21.5 12t-47.5 -10.5t-81 -51.5q-6 -4 -20.5 -2t-29 12.5t-26 31t-11.5 51.5q0 46 17.5 83.5t46.5 63.5t66 40.5t76 14.5q44 0 78.5 -12.5t61.5 -31.5t47 -41.5t34 -41.5v243q23 -18 32.5 -29t14 -20.5t8 -20t13.5 -25.5
q7 -11 25.5 -16t31.5 -5h30l39 -78h-79z" />
    <glyph glyph-name="bn_ekaar" unicode="&#x9c7;" horiz-adv-x="375" 
d="M376 605q-58 -18 -102 -53t-73.5 -83t-44 -106.5t-14.5 -124.5q0 -39 8.5 -73.5t23.5 -60t36 -40.5t46 -15h2q-13 17 -16 37q-2 16 3 31t16.5 27t28 19.5t37.5 7.5q35 0 58 -26t23 -67q0 -22 -10.5 -41t-27.5 -33t-39 -21.5t-45 -7.5q-53 0 -95.5 26.5t-72 69.5t-45 98
t-15.5 111q0 100 34.5 184t97.5 141h-196l-47 78h438l43 -78h-52z" />
    <glyph glyph-name="bn_iikaar" unicode="&#x9c0;" horiz-adv-x="272" 
d="M163 605l9 -677l-89 90v587h-80l-49 78h122q1 11 0 14.5t-3 14.5q-13 54 -44 96t-74.5 71.5t-97.5 46t-113 17.5h-38.5t-47 -0.5t-48.5 -3.5t-43.5 -7.5t-32 -12.5t-13.5 -20q-2 -18 12.5 -27t31.5 -8q10 0 32.5 2.5t52 4t64 1.5t67 -5t61 -16t47.5 -31q10 -11 21.5 -27
t19 -34t10 -38t-4.5 -38h-80q14 34 17.5 48t0.5 23q-3 8 -10 13t-15 7t-16 3t-12 1q-12 3 -39 3t-58.5 -1t-62 -1t-51.5 2q-26 3 -52.5 11.5t-47.5 23t-34.5 34.5t-12.5 46q1 42 32 66t77 36t99.5 15t100.5 3q79 -1 147 -29.5t119.5 -75t82.5 -106t37 -122.5h116l55 -78
h-165z" />
    <glyph glyph-name="bn_ekaar_init" unicode="&#xe360;" horiz-adv-x="418" 
d="M483 604q-17 1 -30 1q-11 0 -21.5 0.5t-12.5 -0.5q-67 0 -111 -32t-69.5 -80.5t-35.5 -106t-10 -108.5v-26t2 -40.5t7.5 -47.5t17 -47.5t29.5 -40t46 -25.5q5 -1 8.5 -1h6.5q-13 17 -15.5 27.5t-2.5 24.5q0 10 6 22.5t16.5 24t24.5 19t30 7.5q42 -1 66 -26t23 -70
q0 -19 -10.5 -37t-28 -32t-39 -22.5t-44.5 -8.5q-37 0 -78 18t-75 58.5t-56.5 106t-22.5 159.5q0 70 19.5 135t57 115.5t93 81t127.5 30.5h26z" />
    <glyph glyph-name="bn_p" unicode="&#x9aa;" horiz-adv-x="672" 
d="M642 605q-13 0 -28 8t-24 12l6 -691l-89 70v374q0 10 -16 38t-49 70l-223 -227l-108 33l-2 19q1 4 12 14t23.5 23.5t22 30.5t7.5 34q-1 9 -2.5 18t-5.5 16.5t-12 12t-22 5.5q-6 0 -12 -5t-13 -10.5t-17 -10t-25 -3.5q-28 1 -45.5 18t-17.5 46q0 16 14.5 47t45 62t77.5 54
t111 22q50 0 91 -20t74.5 -49t59 -62t42.5 -60v315q27 -20 37.5 -33.5t15 -25t8 -23t16.5 -28.5q8 -9 19.5 -12.5t20.5 -3.5h41l55 -78h-88zM364 564q-19 13 -43.5 23t-44.5 10q-35 0 -67 -16.5t-56 -41.5q29 -8 53 -32.5t34 -62.5z" />
    <glyph glyph-name="bn_ikaar" unicode="&#x9bf;" horiz-adv-x="275" 
d="M705 762q-31 23 -68.5 48.5t-81.5 46.5t-97 35t-116 14q-58 0 -100 -20t-69 -47t-40 -54.5t-13 -41.5q0 -18 8.5 -30t21 -18.5t27.5 -9t27 -2.5h86l61 -78h-175l9 -677l-89 90v587h-108l-59 78h135q-8 9 -16 21t-14.5 24t-11.5 22.5t-7 15.5q2 0 7 16t16.5 40t31 52
t51.5 52t78.5 41t110.5 18q36 1 79.5 -7t93 -29t104.5 -57.5t113 -92.5z" />
    <glyph glyph-name="bn_ukaar" unicode="&#x9c1;" horiz-adv-x="0" 
d="M171 -352q-18 15 -53 47t-74.5 69t-78 72t-63.5 55q-33 -57 -74 -77t-78 -19q-24 0 -46.5 8.5t-39.5 23t-27 33.5t-9 42q1 28 13.5 50.5t30.5 38t39.5 24t39.5 8.5q32 0 56 -9.5t52 -23.5q2 26 2.5 58t-7.5 62q21 -10 33.5 -30t19 -43.5t9 -46.5t2.5 -38
q51 -41 92.5 -76.5t72.5 -62.5t50.5 -44t26.5 -21zM-155 -69q-17 9 -41 17t-47 10q-14 1 -29 -4t-27.5 -13t-20 -19.5t-6.5 -24.5q1 -12 11 -21t25 -14t32.5 -5.5t31.5 4.5q29 11 46 32.5t25 37.5z" />
    <glyph glyph-name="bn_ss" unicode="&#x9b7;" horiz-adv-x="538" 
d="M462 605v-634q-20 7 -30.5 17.5t-17.5 24.5t-15 32t-22.5 40t-40.5 47.5t-69 54.5q-27 18 -50 27.5t-43 14.5t-37.5 7t-34.5 5l-73 72v22l183 167q-18 17 -32 29.5t-31 22t-39.5 15.5t-55.5 8q-11 1 -15.5 5.5t-7 9.5t-6.5 9t-14 4h-18l-45 78h600l48 -78h-134zM379 605
h-195q-8 0 7.5 -5.5t42.5 -27.5l145 -116v149zM377 379l-91 63l-119 -112q62 -21 117 -62t93 -86v197z" />
    <glyph glyph-name="bn_yy" unicode="&#x9df;" horiz-adv-x="536" 
d="M462 605v-651q-16 2 -24 14.5t-15 32.5t-16 45.5t-26 55t-46 60.5t-76 61q-37 23 -74.5 34t-85.5 18l-79 95l175 130q-40 30 -61.5 41.5t-36.5 15t-29.5 5.5t-39.5 14q-8 4 -11 9t-5 9.5t-4.5 7.5t-10.5 3h-24l-33 78h605l45 -78h-128zM377 605h-192q15 -17 37 -41.5
t41.5 -47.5t33 -40t13.5 -20q-1 -2 -17 -14t-38 -27t-43.5 -30.5t-33.5 -26.5q37 -16 68 -36t56 -40t43.5 -39.5t31.5 -34.5v397zM271 111q0 -28 -20 -48t-49 -20t-49 20t-20 48q0 29 20 49t49 20t49 -20t20 -49z" />
    <glyph glyph-name="bn_s" unicode="&#x9b8;" horiz-adv-x="612" 
d="M542 605v-646l-83 83v304q0 4 -6 11.5t-15 14.5t-19.5 13t-20.5 7q-17 2 -35.5 -12t-37.5 -37t-38.5 -49.5t-38 -49.5t-36 -38t-33.5 -14q-11 1 -25.5 8.5t-32 24.5t-38.5 45t-44 68l55 42q8 -21 16 -37q7 -14 15 -24t14 -8q18 7 43.5 38.5t57.5 72.5q1 7 2.5 23t-4.5 32
q-10 27 -28.5 42.5t-40.5 23.5t-45.5 11.5t-43 6.5t-33 7t-16.5 13q-4 12 -8.5 18.5t-12.5 5.5h-17l-43 78h674l45 -78h-127zM457 605h-217q22 -20 41.5 -50t20.5 -78q14 9 31.5 17t38.5 6q27 -2 48.5 -19t36.5 -36v160z" />
    <glyph glyph-name="bn_r" unicode="&#x9b0;" horiz-adv-x="548" 
d="M470 605v-649l-47 41q-6 23 -15.5 50t-27.5 56t-45.5 59t-68.5 59q-28 20 -54.5 31.5t-48.5 18.5t-39 9.5t-26 4.5q-23 23 -41 42q-16 17 -29 33.5t-15 24.5q46 35 96.5 67t101 59t96.5 47t83 31v16h-398l-45 78h613l45 -78h-135zM390 482q-69 -29 -123.5 -58.5
t-97.5 -59.5q43 -15 76.5 -36.5t60 -45.5t47 -48t37.5 -44v292zM285 110q0 -29 -20 -49t-49 -20t-49.5 20t-20.5 49t20.5 49t49.5 20t49 -20t20 -49z" />
    <glyph glyph-name="bn_y" unicode="&#x9af;" horiz-adv-x="552" 
d="M470 605v-634l-26 26q-11 11 -20 22.5t-11 19.5q-9 36 -28 65t-41 51t-43 37t-34 24q-17 11 -41.5 20t-47.5 17q-27 9 -56 16q-18 19 -33 37q-13 15 -23 32t-12 28q21 21 46 45q21 20 50 45t61 50q-30 23 -56.5 35.5t-48.5 18.5t-39.5 8t-29.5 5q-10 2 -14.5 7t-7.5 10.5
t-5 10t-8 4.5h-25l-43 78h618l47 -78h-129zM389 605h-187q11 -13 30.5 -33.5t38.5 -40t33.5 -35t17.5 -20.5q2 -4 -8 -16.5t-28 -30t-40 -39t-44 -42.5q72 -37 117.5 -77.5t69.5 -69.5v404z" />
    <glyph glyph-name="bn_c" unicode="&#x99a;" horiz-adv-x="489" 
d="M151 605v-13q17 -42 46 -62.5t60 -28.5t57.5 -8.5t37.5 -3.5q6 -1 18.5 -7t28 -16.5t31 -26t25.5 -35.5q10 -45 0 -90t-33 -85.5t-54.5 -75t-64.5 -60t-63 -40t-49 -14.5q-17 0 -38 18.5t-39 43t-30.5 48.5t-12.5 34v422h-82l-47 78h555l47 -78h-393zM349 341
q2 20 -2.5 26.5t-22.5 11.5q-69 19 -109 50.5t-62 62.5v-323q8 -21 16 -27.5t25 1.5q30 18 56 41t46 49.5t33.5 54t19.5 53.5z" />
    <glyph glyph-name="bn_k" unicode="&#x995;" horiz-adv-x="718" 
d="M463 605v-16q21 -4 57.5 -17.5t72.5 -42.5t63 -77t27 -120q0 -37 -9.5 -62t-25.5 -41t-36 -23t-40 -7q-18 0 -33 7t-25.5 18t-16 25t-5.5 28q0 42 23 62.5t57 20.5q18 0 30.5 -10.5t23.5 -21.5q2 12 -1 24q-11 53 -57 86.5t-105 45.5v-515l-43 33q-12 19 -17 42t-17 51
t-38 62t-81 75q-36 27 -67.5 41.5t-54.5 21t-36 7.5t-13 0q-9 8 -20 21q-10 11 -23 29t-30 44q65 45 128 84q27 17 56.5 33t59.5 30.5t59 25t54 15.5v21h-380l-51 78h767l51 -78h-304zM387 476q-26 -8 -57 -23t-61 -31t-55.5 -31.5t-40.5 -25.5q37 -22 65.5 -38.5t53.5 -36
t47.5 -46t47.5 -69.5v301z" />
    <glyph glyph-name="bn_h" unicode="&#x9b9;" horiz-adv-x="543" 
d="M635 -161q-68 53 -128.5 105t-108.5 81q-58 35 -108 57t-87.5 35.5t-60.5 19.5t-27 8q-3 1 -13.5 17t-22.5 37.5t-23.5 43.5t-17.5 34q-2 5 -0.5 11t3.5 11q3 6 6 13q18 -8 36.5 -17.5t38.5 -17.5t41 -13t43 -4q28 1 63.5 11.5t67 28.5t54 42.5t24.5 54.5q1 18 -7.5 34.5
t-24.5 26.5t-37.5 12.5t-47.5 -7.5q-3 -12 -12 -31.5t-24 -38t-37 -32t-53 -13.5q-27 0 -45.5 7.5t-29.5 19.5t-16 27.5t-5 31.5q0 30 13 52.5t34 38.5t48 26t55 14q-9 16 -30 28t-48 12h-157l-51 78h615l51 -78h-317q8 -27 12 -39q16 -2 46.5 -9.5t61.5 -28.5t54 -58.5
t24 -99.5q1 -46 -17 -79t-45 -56t-57.5 -38t-55.5 -25q31 -17 71 -44t80 -58.5t75.5 -64.5t58.5 -61z" />
    <glyph glyph-name="bn_t" unicode="&#x9a4;" horiz-adv-x="662" 
d="M-11 605l-48 78h729l47 -78h-728zM625 276q0 -36 -14.5 -77t-43 -76t-70 -58t-94.5 -23q-82 0 -145.5 48t-112.5 124.5t-85 170t-64 183.5l65 -34q7 -8 18.5 -39t30 -72.5t43.5 -88.5t60.5 -86t81 -65t103.5 -26q36 0 65.5 15t50.5 37.5t32 49t11 50.5q0 16 -4.5 36
t-13 39.5t-19.5 35t-25 22.5q-14 8 -27.5 12t-29.5 1q7 -11 12 -27.5t5 -39.5q0 -25 -9.5 -44.5t-24.5 -32.5t-33.5 -19.5t-36.5 -6.5q-50 0 -80.5 32t-30.5 82q0 28 8.5 55.5t28 49.5t50 35.5t74.5 13.5q43 0 83 -18t71.5 -53.5t50.5 -87t19 -118.5z" />
    <glyph glyph-name="bn_ph" unicode="&#x9ab;" horiz-adv-x="768" 
d="M212 605q6 -7 16.5 -16t27 -25.5t40 -42.5t55.5 -66q-4 -7 -21.5 -22t-40 -33.5t-46 -37t-39.5 -31.5q24 -12 54 -32t61 -43t58.5 -47t46.5 -44v396q39 1 73 0q29 -1 59.5 -2t46.5 -6q26 -6 50 -20t42 -36t28 -52.5t10 -69.5q0 -35 -8 -60.5t-21 -42t-30 -24.5t-35 -8
t-34.5 7t-29 19t-19.5 27t-7 31q0 36 19 55t48 20q18 1 29.5 -3t19.5 -11q2 11 0 25t-13 28q-9 11 -28.5 16.5t-41.5 8t-42.5 2.5t-31.5 -1v-515q-21 19 -31 28t-14 12.5t-5 5.5l-4 8q-7 14 -19 35t-31.5 46t-49 52t-72.5 52q-37 22 -61.5 32.5t-41.5 15t-30.5 6t-29.5 4.5
q-20 23 -35 42q-13 17 -23.5 32.5t-11.5 23.5l186 151q-18 19 -40.5 32t-46 21t-47 12.5t-43.5 6.5q-10 1 -15.5 7t-9.5 13t-7.5 12.5t-10.5 5.5h-24l-51 78h827l52 -78h-607z" />
    <glyph glyph-name="bn_nga" unicode="&#x999;" horiz-adv-x="624" 
d="M592 222q0 -47 -16.5 -85t-45 -65t-65 -41.5t-77.5 -14.5q-51 0 -93 19t-75.5 51t-59 74t-45.5 88t-34 93.5t-23.5 90.5t-16 78t-10.5 56l66 -31q5 -15 12.5 -51t21 -81t33.5 -93.5t50 -88.5t71 -66t96 -26q29 0 54 9.5t44 26t30.5 38.5t13.5 47q1 10 -2.5 21.5t-9 21
t-11.5 16t-11 6.5q-8 0 -22.5 -16.5t-34 -36t-44 -36t-53.5 -16.5q-19 0 -39.5 15t-37.5 36.5t-28.5 45.5t-11.5 43v134q-39 25 -83 64.5t-86 106.5l103 24q3 -9 9 -24t15 -32t22.5 -34.5t31.5 -31.5q9 25 26 47.5t39 40t47.5 27.5t49.5 10q28 0 50.5 -8.5t38.5 -23
t25 -32.5t9 -38q0 -17 -7.5 -41t-25.5 -45.5t-47.5 -36.5t-73.5 -15q-15 0 -32.5 3t-30.5 6v-114q0 -11 7 -20t19 -9q9 0 27 8.5t37.5 23t37 34t25.5 40.5q70 -23 105.5 -69t35.5 -123zM451 581q-5 14 -25 14t-37 -5q-9 -3 -22 -9.5t-25 -15.5t-21.5 -20t-13.5 -23
q14 -2 32 -2t37 5q9 2 23.5 7.5t27 13t20 17t4.5 18.5z" />
    <glyph glyph-name="bn_ch_ukaar" unicode="&#xe361;" horiz-adv-x="547" 
d="M312 -78q-5 4 -16.5 9.5t-26 11t-31.5 9.5t-33 4t-31.5 -5t-28 -13.5t-19.5 -20.5t-7 -26q0 -12 9.5 -21.5t24 -15t32.5 -7.5t36 1q13 2 27 9.5t26.5 17.5t22.5 22.5t15 24.5zM277 462q-35 0 -58.5 8t-39.5 21t-27.5 29t-23.5 32v-202q0 -18 12.5 -22t31 2.5t39.5 21.5
t37.5 33.5t25.5 38.5t3 38zM312 88q-25 8 -46.5 12.5t-42 8.5t-41 7.5t-42.5 8.5l-49 98q23 -8 40 -13t30.5 -8t25 -4t23.5 0q28 1 68.5 14.5t78.5 38t65 59.5t27 80q0 12 -2.5 28t-12.5 28.5t-29.5 19t-53.5 -0.5q4 -45 -14 -79.5t-46.5 -59t-61 -39t-56.5 -19.5
q-9 -2 -26 6.5t-33 22.5t-28 31t-12 31v261h-70l-29 48h575l30 -48h-453v-37q37 -36 71 -49t65.5 -15t61 0t57.5 -4.5t54.5 -28.5t52.5 -72q21 -40 12.5 -82.5t-36.5 -79t-69.5 -63.5t-86.5 -36q18 -10 46.5 -23.5t66 -37t83.5 -60.5t98 -94l13 -53q-38 40 -82 76
q-38 31 -87 63.5t-103 52.5q-2 1 -7.5 3t-8.5 3q9 -11 15.5 -29.5t11 -39t6 -40t-0.5 -31.5q55 -45 95.5 -80.5t68.5 -60.5q33 -29 55 -51l15 -72q-8 6 -27 22.5t-43.5 38.5t-51.5 47t-51.5 47t-43 38.5t-26.5 22.5q-15 -30 -32.5 -49t-36.5 -29t-38.5 -13t-37.5 -3
q-22 0 -43.5 7.5t-38 20t-27 30t-10.5 37.5q0 23 11 44t28 36.5t39 24.5t44 9q35 0 60.5 -12.5t52.5 -28.5q8 25 2 57.5t-12 61.5z" />
    <glyph glyph-name="section.alt" unicode="&#xe362;" horiz-adv-x="498" 
d="M403 325q0 -34 -8.5 -58t-19.5 -40t-21.5 -24.5t-15.5 -11.5q4 -6 11 -13.5t14.5 -20t13 -31t5.5 -45.5q0 -46 -17 -76t-42 -47.5t-54 -25t-54 -7.5q-21 0 -47 6t-49 20t-38.5 36t-15.5 53q0 29 16.5 50.5t48.5 21.5q13 0 22.5 -5t15.5 -12.5t8.5 -16.5t2.5 -16
q0 -23 -15 -32t-28 -11q23 -31 48.5 -39t51.5 -7q49 2 76.5 24t25.5 56q-2 32 -24 56.5t-54 45.5t-69.5 41t-69 43.5t-52 53t-20.5 69.5q0 38 11 63t23.5 41t24 23.5t12.5 9.5q-3 3 -11.5 10.5t-17 20.5t-15 32t-6.5 46q0 33 12 60t32.5 46t48 29.5t59.5 10.5q28 0 54.5 -7
t47.5 -21.5t33.5 -37t12.5 -53.5q0 -32 -16.5 -46.5t-41.5 -14.5q-22 0 -35 13.5t-13 33.5t15 30t24 10q-7 17 -31 32t-57 16q-22 0 -40.5 -5.5t-32 -16t-21 -24.5t-7.5 -30q1 -28 23 -49.5t54 -41t69 -39.5t69 -44.5t53 -57t21 -76.5zM360 290q0 30 -22 55.5t-54 48t-69 42
t-67 35.5q-7 -3 -16 -9.5t-17 -16.5t-14 -23t-6 -29q0 -26 15 -43.5t43 -34.5t67.5 -39t88.5 -58q8 6 17 12.5t16.5 14.5t12.5 19t5 26z" />
    <glyph glyph-name="bn_tt_b" unicode="&#xe363;" horiz-adv-x="500" 
d="M286 4q-17 -5 -45 -20.5t-51 -29.5q28 -12 52.5 -31t43.5 -36v117zM209 50q-10 -1 -32 15.5t-44.5 42t-39.5 54t-17 50.5v393h-86l-48 78h422q2 1 4 5q12 32 -7 48t-54 26t-79 19t-83.5 26.5t-67 49.5t-29.5 88q-1 22 10.5 47.5t25.5 48.5q17 26 37 53l47 -38
q-16 -19 -28 -37q-11 -15 -19.5 -31.5t-9.5 -28.5q-2 -24 15 -40.5t41 -27t49 -17t40 -10.5q51 -14 85.5 -29.5t55.5 -36t29 -48.5t4 -67h89l52 -78h-412v-391q0 -11 4 -23t10 -22t13.5 -16t13.5 -5q14 3 38.5 18.5t48.5 40.5t44 57t25 68q-16 -2 -33.5 2t-31.5 13.5
t-23.5 26t-9.5 39.5q0 45 26.5 65t66.5 20q19 0 38.5 -9.5t35.5 -28t26.5 -46t10.5 -64.5q0 -27 -7.5 -55t-21 -55.5t-32.5 -53t-41 -47.5v-403l-54 31q-3 14 -11.5 27.5t-19.5 24.5t-21.5 19t-16.5 12q-38 27 -76 34.5t-73 4.5l-58 77q44 18 81 34q16 7 31.5 14t29 14
t23.5 12.5t14 9.5z" />
    <glyph glyph-name="bn_t_uukaar" unicode="&#xe364;" horiz-adv-x="652" 
d="M-7 605l-42 78h717l40 -78h-715zM435 -194q-14 -29 -43 -50.5t-63 -27t-68.5 9.5t-59.5 59q-28 49 -20.5 90t36 68t72 37t88.5 -4l10 65q-77 8 -136 57t-104.5 123t-79.5 163t-61 176l65 -34q7 -8 18 -38.5t28 -71.5t41 -87t58 -84.5t79 -64t103 -25.5q36 0 65.5 15
t50.5 37.5t32 49t11 50.5q0 16 -4.5 36t-13 39.5t-19.5 35t-25 22.5q-14 8 -27.5 12t-29.5 1q7 -11 12 -27.5t5 -39.5q0 -25 -9.5 -44.5t-24.5 -32.5t-33.5 -19.5t-36.5 -6.5q-50 0 -80.5 32t-30.5 82q0 28 8.5 55.5t28 49.5t50 35.5t74.5 13.5q43 0 83 -18t71.5 -53.5
t50.5 -87t19 -118.5q0 -33 -13.5 -71t-39 -72t-61.5 -59t-81 -33q7 -17 10.5 -35t5 -34.5t1.5 -30v-21.5q-47 13 -89.5 7.5t-73 -21.5t-44.5 -38.5t-4 -43.5q13 -28 39 -31t54 7.5t53 28.5t37 33l56 -20l281 -186l2 -88z" />
    <glyph glyph-name="comma.alt" unicode="&#xe365;" horiz-adv-x="444" 
d="M273 658q0 -23 -10 -45t-26.5 -41t-38.5 -34t-46 -24l-36 11q23 12 46.5 27.5t39.5 34t21.5 40.5t-6.5 47q-9 -5 -14.5 -8t-16.5 -3q-21 0 -40.5 12t-19.5 41q0 25 18.5 40t45.5 15q21 0 36.5 -10t26 -26t15.5 -36t5 -41zM442 59q0 -35 -17 -61t-38.5 -43.5t-40.5 -27
l-23 -11.5l-14 6q-5 2 -9.5 4t-6.5 3q11 6 25.5 15.5t29.5 22t27.5 27.5t18.5 31q5 12 4 21.5t-3 16.5q-3 8 -8 14q-10 -6 -25 -7.5t-28.5 3t-23.5 16.5t-10 32q0 30 18 41.5t39 11.5q42 0 63.5 -32t21.5 -83z" />
    <glyph glyph-name="bn_rr_g" unicode="&#xe367;" horiz-adv-x="1146" 
d="M325 605v-114.5t1 -67t4 -31t9 -7.5q33 3 56 23.5t39 44.5t26 44t17 21q11 2 30 -11t38.5 -40t34 -67t15.5 -93q1 -44 -14.5 -88.5t-45.5 -79.5t-73.5 -57.5t-97.5 -22.5q-62 -1 -111 25.5t-86 70t-63.5 98.5t-43 112.5t-24 111.5t-7.5 94l55 -30q1 -8 6.5 -39.5
t18 -73.5t33 -88t50.5 -83.5t70.5 -61t92.5 -19.5q42 3 73 16.5t52 33t33 42.5t15.5 45t-0.5 41t-14 30q-57 -56 -99.5 -80.5t-79.5 -23.5q-6 0 -17.5 2t-24.5 12t-26.5 31t-23.5 60v220h-252l-54 78h619l52 -78h-283zM1108 605q-24 3 -45 11l13 -699l-87 112v389
q0 18 -14.5 46.5t-39.5 55.5t-58 46.5t-70 19.5q-32 0 -65 -16.5t-50 -51.5q32 6 66.5 5t63 -16.5t47 -47.5t19.5 -88q0 -24 -9 -53.5t-24.5 -59.5t-37 -58t-46.5 -49q-27 21 -43.5 37.5t-26.5 27.5q-11 13 -17 23q11 8 30 25t37.5 41t34.5 53.5t21 62.5q1 7 -4 17t-21.5 12
t-47.5 -10.5t-81 -51.5q-6 -4 -20.5 -2t-29 12.5t-26 31t-11.5 51.5q0 46 17.5 83.5t46.5 63.5t66 40.5t76 14.5q44 0 78.5 -12.5t61.5 -31.5t47 -41.5t34 -41.5v243q23 -18 32.5 -29t14 -20.5t8 -20t13.5 -25.5q7 -11 25.5 -16t31.5 -5h30l39 -78h-79zM426 -54
q0 -28 -20 -48t-48 -20q-27 0 -47 20t-20 48t20 48t47 20q28 0 48 -20t20 -48z" />
    <glyph glyph-name="bn_half_l.alt" unicode="&#xe369;" horiz-adv-x="0" 
d="M-123 -179q-2 29 -7.5 58t-14 52t-20.5 37.5t-27 14.5q-12 0 -16 -7.5t-4.5 -19.5t1.5 -27.5t3 -30.5q-29 10 -37 13.5t-10 8.5q-9 10 -17 20.5t-18 19.5t-25.5 15t-39.5 6q-11 0 -22 -4t-20 -11.5t-13.5 -18.5t-2.5 -23q1 -9 9 -15q-2 22 11.5 39.5t40.5 17.5
q31 0 43.5 -19t10.5 -45q-2 -24 -22.5 -41.5t-51.5 -17.5q-13 0 -31.5 5t-35.5 18t-29 35t-12 56q0 15 7 34.5t20.5 37t34.5 30t49 13.5q32 2 53.5 -9t44.5 -33q8 15 22.5 28.5t37.5 12.5q21 -1 39.5 -15.5t33.5 -34.5v121h71v-365z" />
    <glyph glyph-name="bn_ss_tt_ukaar" unicode="&#xe36a;" horiz-adv-x="532" 
d="M644 -430q-18 15 -52.5 44t-73.5 62t-77 65t-63 52q-33 -57 -74 -77t-78 -19q-24 0 -46.5 8.5t-39.5 23t-27 33.5t-9 42q1 28 13.5 50.5t30.5 38t39.5 24t39.5 8.5q32 0 56 -9.5t52 -23.5q2 24 4 50.5t-3 54.5q-20 -5 -39 -7t-33 -2q-38 0 -71.5 10t-58.5 29.5t-40 48
t-16 65.5q-1 44 30 80.5t79 73.5q-39 14 -63 33.5t-37.5 41t-19 43t-8.5 37.5q-2 13 -0.5 32t8 40t18 43t29.5 40h-122l-60 78h323q36 0 59 -5t37 -11t20.5 -11t9.5 -5t7 4.5t6 7.5q4 7 6.5 15t3.5 17q2 15 -5 25t-18 17t-24.5 11t-24.5 8q-19 6 -35 8.5t-32.5 5t-35 7
t-41.5 14.5q-73 34 -98 77t-11 111q3 16 21 44.5t43 60.5l49 -44q-13 -15 -32.5 -34t-27.5 -42q-8 -24 11.5 -38.5t60.5 -32.5q9 -4 22.5 -6t31 -5t38 -7.5t44.5 -14.5q28 -11 58.5 -32t47.5 -55q14 -20 17 -42.5t0 -47.5h82l58 -78h-173q14 -19 26.5 -48t7.5 -71
q-6 -46 -33.5 -86t-64 -75.5t-76.5 -67t-70.5 -60t-46.5 -54.5t-5 -51q2 -5 9.5 -7.5t17.5 -3.5t20 -1h17q45 2 79 17t56 31q-16 9 -24.5 21t-12.5 24t-3.5 22.5t1.5 15.5q2 6 8 17.5t17.5 21.5t28.5 15.5t41 0.5q17 -3 31 -11t24 -22t15.5 -35t5.5 -52t-13.5 -54.5
t-34.5 -41.5t-48 -30t-54 -20q17 -18 26 -37.5t13 -39t5 -37.5t1 -32q103 -82 164 -129t75 -55zM389 537q2 12 -2.5 23t-13.5 19.5t-20.5 13.5t-22.5 5q-25 -2 -45 -9.5t-44 -24.5q9 -10 23 -25.5t28.5 -32t28.5 -32t23 -26.5q14 15 27 37t18 52zM293 399q-10 11 -24.5 27
t-30 33.5t-30 34t-23.5 26.5q-14 -13 -27 -31.5t-15 -47.5q-1 -12 1 -25t9 -23.5t18.5 -19t30.5 -11.5q27 -5 51.5 9.5t39.5 27.5zM321 -167q-17 9 -41 17t-47 10q-14 1 -29 -4t-27.5 -13t-20 -19.5t-6.5 -24.5q1 -12 11.5 -21t25.5 -14t32 -5.5t31 4.5q29 11 46 32.5
t25 37.5z" />
    <glyph glyph-name="bn_c_ch_r_ukaar" unicode="&#xe36b;" horiz-adv-x="1004" 
d="M343 605h-208q6 -19 19.5 -30t31 -17.5t37.5 -10t39 -6.5q7 -1 19.5 -8.5t25.5 -18t23.5 -23t11.5 -23.5q0 -2 0.5 -4.5t0.5 -5.5v147zM973 382q0 -27 -9.5 -51t-26.5 -42t-40.5 -28t-50.5 -10q-19 0 -37.5 14t-34.5 33t-28 38.5t-18 30.5q-10 -45 -46 -85.5t-94 -63.5
q47 -13 96 -40.5t92 -58t76 -58t47 -42.5l24 -81q-27 27 -56 51q-25 20 -53.5 39t-54.5 27v-262l-39 55q-11 22 -20.5 37t-21 24t-28.5 12.5t-43 1.5q-30 -2 -46 -4t-27.5 -4.5t-22 -4t-29.5 -1.5q-85 -2 -141.5 31t-73.5 108q-4 18 -2 44t10 45l34 -25q-2 -31 9.5 -53.5
t31 -36.5t45 -20t51.5 -4q18 1 23 2t11 2.5t19 3.5t47 3q62 3 95 -9.5t58 -34.5v121q-44 26 -84.5 42t-77.5 25t-71 14.5t-65 10.5l-77 133q52 -16 81.5 -23t46.5 -7q42 0 78.5 15t63.5 37.5t42.5 49.5t15.5 50q0 14 -8.5 27.5t-19.5 20.5l-21 -1q-3 -46 -26 -79t-52 -54
t-56.5 -30.5t-40.5 -9.5q-4 0 -18 9t-29 23.5t-26.5 33t-11.5 36.5v29q-2 -34 -18 -68.5t-41.5 -64t-57 -52t-65.5 -33.5q-13 -4 -31.5 11t-35 36.5t-28 43t-11.5 28.5v266h-65l-43 78h1065l51 -78h-639q14 -24 38 -34t51 -12.5t51.5 -0.5t38.5 3q6 0 23.5 -8t37 -24
t37.5 -40t26 -55q18 -35 44 -64.5t66 -31.5q16 0 31 5t27 13.5t19 18.5t7 19q0 3 0.5 9.5t-1 13.5t-7 14t-16.5 11q2 -15 -2.5 -25t-13 -16.5t-19.5 -9t-21 -2.5q-29 2 -47.5 19t-18.5 53q0 18 7 31.5t18 22.5t25 14t28 5q19 0 40 -10.5t39 -30t29.5 -48t11.5 -63.5z
M510 475q-24 3 -48.5 14t-44.5 31v-125q0 -19 13 -16t29.5 18.5t31.5 37.5t19 40zM252 442q-36 13 -65.5 26t-52.5 41v-185q0 -15 6.5 -13t13.5 5q15 8 32 20t31.5 28.5t24 36t10.5 41.5z" />
    <glyph glyph-name="bn_t_t_ukaar" unicode="&#xe36c;" horiz-adv-x="674" 
d="M-7 605l-47 78h736l42 -78h-731zM744 -363q-18 15 -52.5 44t-73.5 62t-77 65t-63 52q-33 -57 -74 -77t-78 -19q-24 0 -46.5 8.5t-39.5 23t-27 33.5t-9 42q1 28 13.5 50.5t30.5 38t39.5 24t39.5 8.5q32 0 56 -9.5t52 -23.5q2 16 5.5 31.5t2.5 34.5q-2 0 -3.5 0.5t-2.5 0.5
q-83 0 -170 67.5t-160 196.5q-15 27 -26.5 55.5t-21.5 62.5t-21.5 74.5t-26.5 92.5l72 -35q7 -22 13 -46.5t15.5 -52.5t24.5 -60t40 -70q23 -34 50.5 -65t60 -54.5t69 -37.5t76.5 -14q21 0 42.5 4t39.5 14t29 25.5t11 37.5q0 11 -7 22t-15 19q-9 -8 -22 -15t-36 -7
q-22 0 -38.5 8t-26.5 20t-14.5 27t-4.5 29q1 15 6.5 30t15 27t22.5 19.5t29 7.5q32 0 49 -8q9 15 13.5 35t4.5 26q0 24 -17 34t-38 9q-7 0 -29 -4.5t-47 -13.5t-48.5 -23.5t-34.5 -34.5q29 -11 36 -26t8 -43q1 -22 -7.5 -36.5t-21 -22.5t-27.5 -11.5t-27 -3.5
q-19 0 -35.5 8.5t-28 22.5t-18 32t-6.5 37q0 43 20.5 79t55 61.5t80 39.5t94.5 14q48 0 79.5 -17t50 -41.5t26 -52.5t7.5 -49q0 -34 -11.5 -64t-18.5 -45q5 -7 13 -15.5t16 -21.5t13.5 -32t5.5 -47q0 -36 -11.5 -64.5t-31.5 -49.5t-46 -34t-56 -19q13 -28 15.5 -57t3.5 -49
q103 -82 164 -129t75 -55zM421 -100q-17 9 -41 17t-47 10q-14 1 -29 -4t-27.5 -13t-20 -19.5t-6.5 -24.5q1 -12 11.5 -21t25.5 -14t32 -5.5t31 4.5q29 11 46 32.5t25 37.5z" />
    <glyph glyph-name="bn_ukaar.alt.001" unicode="&#xe36e;" horiz-adv-x="0" 
d="M168 -494q-4 5 -24 23t-48.5 41.5t-61 51t-62 51.5t-52 42.5t-30.5 24.5q-15 -30 -32.5 -49t-36 -29t-38 -13t-37.5 -3q-22 0 -44 7.5t-39 20.5t-27.5 30.5t-9.5 37.5q1 26 13 47t29.5 35.5t37.5 22.5t37 8q38 0 63.5 -12.5t54.5 -27.5q0 8 1 23t2 32.5t0.5 35t-4.5 29.5
q14 -5 22 -23.5t12 -42t5 -46t1 -34.5q54 -46 100 -84t80 -67q40 -33 73 -60zM-149 -232q-4 3 -14 8t-24.5 10.5t-30.5 9.5t-32 5q-17 1 -33.5 -3.5t-30 -13.5t-21.5 -21.5t-7 -27.5q1 -14 13 -23.5t29 -15t37 -5.5t36 6q20 7 33.5 16.5t22.5 19.5t14 19t8 16z" />
    <glyph glyph-name="bullet.004" unicode="&#xe36f;" horiz-adv-x="396" 
d="M204 527q26 28 54.5 53.5t44.5 37.5q6 5 12 6t11 1q15 0 25 -11q11 -11 11 -27q0 -20 -15 -29q-10 -7 -18 -10.5t-21 -7t-35 -9.5t-61 -17v-7q50 -13 80.5 -24t44.5 -16q14 -6 20 -14.5t5 -22.5q-2 -16 -11 -25t-26 -11q-4 0 -10.5 2t-12.5 7q-10 8 -18 14t-19 15.5
t-26 23.5t-38 38l-5 -4q8 -33 13 -56t8 -38t4.5 -24.5t2.5 -17.5q1 -11 -2.5 -17t-6.5 -10q-5 -5 -10.5 -7t-13.5 -3q-20 0 -30 10q-11 9 -11 25q0 17 10.5 53.5t18.5 84.5l-5 4q-43 -45 -65.5 -62t-32.5 -25q-10 -9 -27 -9q-15 0 -25 10q-8 10 -10 26q0 22 23 35
q8 4 17.5 7t24 7t36 10t52.5 15v7q-32 8 -64.5 19t-49.5 18q-19 8 -27.5 16t-8.5 23q0 13 8 24q11 13 27 14q8 1 14 -2t11 -7q4 -3 9.5 -6.5t16 -12.5t27.5 -26t45 -47l6 5q-2 8 -6 26.5t-8.5 39.5t-8 40t-3.5 28q0 16 9 25q9 13 25 13q18 0 27 -12q11 -9 11 -28
q1 -6 -4 -28t-10 -45q-6 -27 -15 -60z" />
    <glyph glyph-name="bn_k_n" unicode="&#xe370;" horiz-adv-x="770" 
d="M512 605v-6q25 -4 61.5 -19t70.5 -44t59.5 -73.5t27.5 -107.5q1 -36 -8.5 -61.5t-25.5 -42t-36.5 -24t-41.5 -6.5q-36 2 -57.5 26t-21.5 53q0 35 21 57t56 22q19 0 31 -7t23 -16v9t-2 11q-5 26 -22 46t-39.5 34.5t-47.5 23t-47 10.5v-550l-48 36l-3 9t-2 5q-1 3 -6 13
q-9 22 -17.5 39.5t-19.5 31t-27 24t-39 18.5q-11 4 -21.5 7t-24.5 3q18 -24 18 -63q0 -41 -26 -63.5t-73 -21.5q-25 1 -43.5 10t-31 24t-18.5 33.5t-7 37.5q-1 25 9.5 47.5t28 39t41 26.5t48.5 10q63 0 108.5 -17.5t74.5 -42.5v12q-11 26 -34.5 50.5t-68.5 49.5
q-38 21 -65 32.5t-47.5 18t-37 9.5t-34.5 5q-12 9 -26 23q-24 25 -59 77q74 41 143 76q29 15 60 30t60.5 28t56 23t46.5 15v10h-434l-59 78h844l57 -78h-324zM429 485q-22 -6 -49.5 -17t-54 -23.5t-50 -24.5t-38.5 -21q26 -12 48.5 -24.5t45 -28t46.5 -36t52 -48.5v223z" />
    <glyph glyph-name="bn_l_m" unicode="&#xe371;" horiz-adv-x="810" 
d="M722 605v-667l-52 52q-4 23 -14.5 50t-26.5 51.5t-36 44t-44 27.5q-11 -34 -36 -55.5t-67 -21.5q-43 1 -72 25t-33 69q-2 23 4 42t17.5 32.5t26 22.5t29.5 13q14 4 25.5 5.5t25.5 -0.5v66q0 18 -10.5 36t-25 33t-28.5 24.5t-22 9.5q-17 2 -27 -14t-11 -36q0 -5 0.5 -16
t2.5 -22q2 -12 3 -27l-46 17q-9 11 -18.5 26t-23 29.5t-31.5 25t-42 13.5q-16 2 -31 -3t-27 -15t-19 -24.5t-7 -32.5q0 -27 11 -43.5t26 -23.5q-5 12 -5 22q0 15 5 28t14.5 23.5t23 17t28.5 6.5q20 0 35 -9t24.5 -22t13.5 -27.5t2 -25.5q-7 -40 -35.5 -61.5t-77.5 -21.5
q-32 0 -58.5 13.5t-45 35.5t-28.5 50.5t-10 58.5q1 41 18 73t42.5 52.5t55.5 28.5t57 1q19 -5 38 -15t42 -39q14 24 37 41t50 14q15 -2 29.5 -11.5t28 -22.5t25.5 -28.5t20 -29.5q-1 11 -1 29.5v39v38.5t-1 28h-439l-48 78h829l48 -78h-138zM636 605h-81v-344
q20 -16 40.5 -34.5t40.5 -45.5v424z" />
    <glyph glyph-name="bn_uukaar" unicode="&#x9c2;" horiz-adv-x="0" 
d="M-98 -180q-14 -29 -43 -50.5t-63 -27t-68.5 9.5t-59.5 59q-28 49 -20.5 90t36 68t72 37t88.5 -4l14 113q21 -12 33 -36t17.5 -50.5t6.5 -51t0 -36.5q-47 13 -90 8t-73 -20.5t-44.5 -37.5t-4.5 -43q13 -28 39 -31t54 7.5t53 28.5t37 32l56 -20l281 -185l2 -88z" />
    <glyph glyph-name="bn_dd" unicode="&#x9a1;" horiz-adv-x="657" 
d="M357 605q0 -71 -1 -115.5t-2 -68.5t1 -32t8 -7q30 5 53.5 24.5t40.5 42t28 42.5t17 24q7 7 27.5 -5.5t42.5 -40t39 -69t16 -93.5q0 -45 -16 -89t-45.5 -79t-72.5 -57.5t-97 -22.5q-62 -1 -112 26t-88.5 71.5t-66.5 101t-46 114.5t-26.5 113t-8.5 95l55 -30
q1 -8 7.5 -40.5t20.5 -75t36 -90t53.5 -86t73 -62.5t93.5 -20q63 5 101.5 31.5t56.5 60.5t17.5 67t-16.5 49q-57 -56 -99.5 -80.5t-79.5 -23.5q-6 0 -15.5 2t-21 12.5t-25.5 31.5t-30 58v221h-284l-48 78h722l48 -78h-356z" />
    <glyph glyph-name="bn_aakaar" unicode="&#x9be;" horiz-adv-x="275" 
d="M208 605q-12 0 -20 3t-13 5l10 -684l-89 89v474q-24 47 -55 80t-72 33l-36 78h36q25 0 45.5 -6.5t37 -17t29.5 -23t22 -25.5v179q26 -9 35.5 -19.5t13.5 -22.5t9 -25.5t21 -29.5q5 -5 10.5 -7t10.5 -3t11 0h72l61 -78h-139z" />
    <glyph glyph-name="bn_j_b" unicode="&#xe375;" horiz-adv-x="704" 
d="M388 605q-11 0 -18.5 -6.5t-11.5 -11.5q-1 -8 7.5 -19t25.5 -21.5t40.5 -18t51.5 -8.5q11 0 28.5 3t35.5 8.5t34.5 12t26.5 13.5l90 -105q-55 -60 -74.5 -129t-20.5 -142.5t10 -149.5t17 -149q-48 57 -117 104.5t-166 74.5q26 20 52.5 39.5t51.5 36t46.5 30t36.5 20.5
q-7 63 -1 127.5t33 122.5q-36 -3 -73 -1t-72 14.5t-66.5 38t-55.5 69.5q-12 -9 -27.5 -24t-29.5 -33.5t-24.5 -39t-10.5 -40.5q-1 -22 11.5 -27t30.5 -4q15 0 33.5 9t37 19.5t35.5 19.5t29 9q3 0 18.5 -8t33.5 -28t32 -53t14 -83q0 -45 -16 -76.5t-41 -51t-54.5 -28
t-56.5 -8.5q-55 1 -99.5 23t-79 58t-59.5 83t-40 97.5t-20.5 102t-1.5 96.5q13 -4 24 -8q9 -4 18 -9.5t11 -13.5q2 -16 6.5 -46t14 -65t25.5 -71t41 -65.5t61 -48t85 -18.5q19 0 39.5 4.5t38 13.5t29 23.5t11.5 34.5q0 3 -2 9.5t-5 13.5t-7 13.5t-8 8.5q-4 3 -13.5 -4.5
t-24 -17.5t-35 -19t-47.5 -9q-28 0 -53.5 11.5t-44.5 31.5t-30.5 47.5t-11.5 59.5q0 45 20 84t49 74h-216l-43 78h792l45 -78h-395zM553 29q-2 20 -5.5 49.5t-5.5 46.5q-8 -4 -21.5 -10.5t-28 -13.5t-27.5 -14t-21 -12q12 -4 28 -10t31.5 -12.5t29 -12.5t20.5 -11z" />
    <glyph glyph-name="bn_b_b_reph" unicode="&#xe376;" horiz-adv-x="798" 
d="M710 605v-664q-12 17 -23.5 31t-20.5 25q-11 13 -19 24q-5 31 -18 61.5t-30.5 57t-37 48t-37.5 34.5q-13 9 -21.5 14t-18 7.5t-22.5 4t-35 2.5l-35 47v-351q-12 14 -23.5 27.5t-20.5 24.5q-11 12 -19 24q-5 30 -18 59.5t-30 56.5t-37 49t-39 35q-25 19 -55 36t-73 20
q-6 5 -16 19t-20 30t-18 30t-9 18q1 4 14.5 17.5t35 32.5t50 41.5t60.5 45t66 42.5t67 33v18h-310l-54 78h863l55 -78h-151zM626 605h-236v-94v-34.5v-30t0.5 -21l0.5 -7.5q20 17 45.5 40t55.5 47t64 45.5t70 36.5v18zM307 474q-28 -14 -72 -40.5t-95 -71.5q27 -13 52 -32
t46 -40t38.5 -42.5t30.5 -41.5v268zM626 474q-29 -13 -72.5 -39.5t-95.5 -72.5q27 -13 52 -32t46.5 -40.5t39 -43t30.5 -41.5v269zM412 733h-141v30l353 231h42z" />
    <glyph glyph-name="bn_bindu" unicode="&#x981;" horiz-adv-x="0" 
d="M-229 961q0 -26 -18.5 -45t-44.5 -19t-44.5 19t-18.5 45t18.5 44.5t44.5 18.5t44.5 -18.5t18.5 -44.5zM-144 953q8 -42 -2 -79.5t-31 -64.5t-50 -40.5t-59 -9.5q-14 2 -36.5 9t-47 30t-49 68t-40.5 123l65 -46q7 -9 15.5 -26.5t20.5 -34t29.5 -29t42.5 -12.5
q21 0 38.5 10.5t30 28.5t19 42.5t6.5 51.5z" />
    <glyph glyph-name="bn_ou" unicode="&#x994;" horiz-adv-x="744" 
d="M674 520q-6 -19 -19 -38t-28.5 -36t-30.5 -32t-25 -26q10 -10 19.5 -26t17 -36t12.5 -42t5 -44q0 -39 -20 -74t-51 -60.5t-68.5 -40.5t-73.5 -15q-65 0 -121 33.5t-101.5 85.5t-81.5 115.5t-61.5 124t-41 110.5t-20.5 75l69 -41q9 -20 24 -56.5t36.5 -79.5t50 -87t64 -80
t79 -59t95.5 -23q24 0 50.5 8t48.5 21.5t36.5 31.5t15.5 37q0 7 -2 17.5t-6 22t-9.5 21.5t-10.5 16q-15 -11 -31.5 -20t-39.5 -9q-17 0 -33.5 4t-29.5 12t-21 20.5t-8 30.5q0 12 1.5 28t7.5 31.5t18 29t34 20.5q18 6 36 3t32 -10q5 6 12 14.5t13.5 18.5t11.5 19.5t5 17.5
q0 17 -10 27t-24.5 16t-29.5 8t-26 3q-17 2 -38.5 -2.5t-42.5 -13t-38.5 -21t-27.5 -28.5q20 -6 27 -23.5t3 -51.5q-5 -41 -19 -58.5t-49 -17.5q-24 0 -42 10.5t-30 26.5t-18 34t-6 34q0 28 18 61t51 61t80 47t106 19q51 0 84 -12t53 -31t29.5 -42t13.5 -45l4 4
q22 23 24.5 46t-5 42.5t-21 34t-23.5 20.5q-16 11 -42 20t-53.5 19.5t-53.5 23t-41 28.5q-17 18 -31 37.5t-22 40.5t-9.5 43.5t6.5 45.5t20.5 36t30.5 20.5t40 11.5t47 7l10 -57q-31 -6 -53 -9t-30 -24q-7 -19 10 -35.5t51 -39.5q14 -9 35 -19.5t45 -23t48 -26.5t43 -30
q33 -27 49 -56t19 -60t-4 -64.5t-18 -69.5z" />
    <glyph glyph-name="bn_viram.alt" unicode="&#xe378;" horiz-adv-x="328" 
d="M133 572q-7 -4 -20.5 -4.5t-26 4t-22 14.5t-9.5 26q0 26 18.5 40t47.5 14q16 0 28 -8.5t20.5 -22.5t12.5 -31.5t4 -35.5v-440q8 6 20.5 7t25.5 -3.5t22 -14.5t9 -27q0 -26 -18 -39.5t-47 -13.5t-47 25t-18 55v455z" />
    <glyph glyph-name="bn_h_uukaar" unicode="&#xe379;" horiz-adv-x="544" 
d="M552 -264l-261 205q-12 -19 -38.5 -40.5t-58 -30t-62 5.5t-51.5 66q-19 47 -9.5 83t36.5 57t67 24t83 -16l-4 42q-35 15 -60 22.5t-41.5 10.5t-25.5 4t-12 2t-13.5 15.5t-22.5 34t-23.5 40t-17.5 32.5q-3 8 3 17l6 8q35 -17 75 -30.5t84 -11.5q28 1 63.5 9t67 23t54 37
t24.5 52q1 18 -7.5 34.5t-24.5 26.5t-37.5 12.5t-47.5 -7.5q-3 -12 -12 -31.5t-24 -38t-37 -32t-53 -13.5q-27 0 -45.5 7.5t-29.5 19.5t-16 27.5t-5 31.5q0 30 13 52.5t34 38.5t48 26t55 14q-9 16 -30 28t-48 12h-157l-51 78h615l51 -78h-317q8 -27 12 -39q16 -2 46.5 -9.5
t61.5 -28.5t54 -58.5t24 -99.5q1 -46 -17 -73t-45 -43.5t-57.5 -26t-55.5 -19.5q31 -17 66.5 -42t70 -53.5t65.5 -58.5t54 -59l22 -85q-34 26 -59 47.5t-46.5 40t-42 34t-44.5 29.5q-23 14 -50.5 29t-47.5 24q-2 -17 -4 -39t-4 -35q-45 18 -81 18t-59.5 -11.5t-33 -32
t-1.5 -42.5q10 -30 32 -36.5t47 0.5t49 22t38 28l48 -17l219 -154z" />
    <glyph glyph-name="bn_khandata_reph" unicode="&#xe37b;" horiz-adv-x="508" 
d="M464 44q-3 14 -4.5 27.5t-11.5 29t-34 33.5t-73 39q-22 10 -50 21t-57 24.5t-56.5 29.5t-48.5 34q-43 39 -65.5 85.5t-22.5 102.5q0 38 16 76t43.5 68t64.5 49t79 19q48 0 80 -15.5t50.5 -39t26 -50t7.5 -49.5q0 -25 -12 -50.5t-32.5 -45t-48.5 -29.5t-60 -4
q-29 5 -48 20.5t-30 36t-16 44t-7 43.5q-6 -6 -13 -15t-13.5 -19t-11 -20.5t-4.5 -20.5q0 -31 21 -64t57 -48q54 -23 109 -45t103 -58q27 -20 49.5 -43t39 -53.5t25.5 -70t9 -93.5zM341 520q5 14 -3 25t-20 19t-25.5 12.5t-19.5 5.5q-19 2 -35.5 -1t-33.5 -10
q12 -38 33.5 -59t37.5 -22q19 -2 39.5 5t26.5 25zM290 733h-141v30l353 231h42z" />
    <glyph glyph-name="bn_rrh" unicode="&#x9dd;" horiz-adv-x="533" 
d="M170 605v-369q0 -11 4 -23t10 -22t13.5 -16t13.5 -5q14 3 38.5 18.5t48.5 40.5t44 57t25 68q-16 -2 -33.5 2t-31.5 13.5t-23.5 26t-9.5 39.5q0 45 26.5 65t66.5 20q19 0 38.5 -9.5t35.5 -28t26.5 -46t10.5 -64.5q0 -48 -23.5 -98.5t-60 -93t-81.5 -72.5t-88 -36
q-10 -1 -32 15.5t-44.5 42t-39.5 54t-17 50.5v371h-96l-40 78h590l42 -78h-413zM301 -41q1 -29 -19 -49.5t-50 -21.5q-29 0 -49 19.5t-21 49.5q0 29 19.5 49.5t48.5 20.5q29 1 50 -19.5t21 -48.5z" />
    <glyph glyph-name="bn_bh_uukaar" unicode="&#xe37d;" horiz-adv-x="706" 
d="M-8 605l-43 78h768l42 -78h-767zM493 -204q-14 -29 -43 -50.5t-63 -27t-68.5 9.5t-59.5 59q-28 49 -20.5 90t36 68t72 36.5t88.5 -3.5l11 86q-10 -1 -16.5 -2t-8.5 -1q-66 0 -119.5 30t-96 77.5t-74.5 106.5t-54.5 116t-37 106.5t-22.5 78.5l70 -38q10 -17 21.5 -50.5
t29 -73.5t42 -82.5t59 -77t80.5 -56.5t106 -22q29 0 60.5 12.5t58.5 34t44.5 52t17.5 66.5q0 15 -1.5 30t-3.5 26t-5.5 16t-6.5 0q-6 -7 -23.5 -25.5t-45 -38t-64.5 -34.5t-82 -15q-53 0 -86 18t-48.5 45.5t-16 59t12 59t36 45.5t54.5 18q25 0 46 -10t34 -27t16 -39.5
t-8 -48.5q30 8 50 26t34 36.5t23 33.5t15 16q4 1 26 -8.5t47 -34.5t45 -67.5t20 -108.5q0 -45 -15.5 -86t-42.5 -74t-63.5 -55.5t-78.5 -31.5q12 -16 19 -38t10 -44t3.5 -41t-0.5 -29q-47 13 -90 8.5t-73 -19.5t-44.5 -36.5t-4.5 -42.5q13 -28 39 -31t54 7.5t53 28.5t37 33
l56 -20l281 -186l2 -88z" />
    <glyph glyph-name="bn_nn_dd_r.alt.001" unicode="&#xe37e;" horiz-adv-x="708" 
d="M495 107q-27 -9 -58 -9q-43 0 -85.5 18.5t-82 51t-75 77t-65.5 96.5q-35 60 -65 127t-50 147l38 -18q19 -58 44.5 -114.5t72.5 -123.5q23 -33 49 -64.5t58 -55.5t72.5 -39t91.5 -15q17 0 39 5t42 15.5t34 27t14 38.5q0 14 -7 26t-11 18q-14 -8 -30 -12.5t-26 -5.5
q-28 -1 -50.5 19t-22.5 51q0 18 6.5 30t16 19t19.5 9.5t17 2.5q8 0 26 -1.5t35 -18.5q3 3 8 6t9.5 8t8.5 13.5t4 23.5q0 8 -4.5 21.5t-13 31t-20.5 37t-26 38.5q-2 -10 -7 -26.5t-11 -35l-12 -37t-10 -32.5l-16 8q-9 18 -22 41.5t-31 44.5t-42.5 35.5t-56.5 14.5
q-38 0 -61.5 -27t-23.5 -63q0 -17 4 -27.5t11 -16.5t15.5 -9.5t17.5 -5.5q-6 12 -7 26.5t3.5 26.5t14.5 20t26 8q32 0 45 -19.5t13 -41.5q0 -19 -8 -33t-21.5 -22t-30 -12t-34.5 -4q-9 0 -28.5 5.5t-39 19.5t-34 39.5t-14.5 65.5q0 35 13 60.5t33.5 42.5t45.5 25t49 8
q23 0 41 -9t34 -24t30.5 -34.5t31.5 -40.5q10 18 15.5 33.5t9 30.5t6.5 30t8 32l21 -13q10 -23 32.5 -54t46 -64.5t41 -66.5t17.5 -59q0 -22 -5.5 -37.5t-13 -26.5t-15.5 -18.5t-14 -12.5q8 -10 18 -32t10 -63q0 -37 -18.5 -66t-49.5 -47v-270l-29 33l-12 26t-17.5 23.5
t-30.5 17t-50 5.5q-27 0 -47 -1t-37.5 -2l-35 -2t-39.5 -2q-27 -1 -51 9t-43 28.5t-32 44t-19 53.5q-2 11 -3 23t-0.5 22.5t2 18.5t3.5 10l22 -13q-3 -24 1 -46.5t16 -40.5t33 -29t53 -10l146 3q30 1 50.5 -7t34.5 -20t24.5 -25.5t20.5 -25.5v160z" />
    <glyph glyph-name="bn_i_bindu" unicode="&#xe37f;" horiz-adv-x="551" 
d="M313 1055q0 -26 -18.5 -45t-44.5 -19t-44.5 19t-18.5 45t18.5 44.5t44.5 18.5t44.5 -18.5t18.5 -44.5zM393 1056q8 -42 -2.5 -77.5t-31.5 -60.5t-50 -36.5t-59 -7.5q-13 2 -36 7t-47.5 26t-48.5 64t-40 121l64 -42q7 -9 16 -26.5t22 -34t31 -29t43 -12.5q43 0 66.5 37
t23.5 92zM645 -159q-33 26 -65 52.5t-62 51t-57.5 45.5t-51.5 35q-58 35 -108 57.5t-87.5 36t-60.5 19.5t-27 7q-4 2 -14.5 18.5t-22.5 38t-23.5 42.5t-16.5 33q-2 5 -0.5 11.5t3.5 11.5q3 6 7 13q18 -9 36.5 -18.5t38.5 -17t41 -12.5t43 -4q28 1 63.5 11t67 28t53.5 42.5
t24 54.5q1 19 -7.5 35.5t-24.5 26.5t-37.5 12.5t-47.5 -7.5q-3 -12 -12 -32t-24 -38.5t-37 -32t-53 -13.5q-27 0 -45.5 7.5t-29.5 19.5t-16 27.5t-5 31.5q0 30 13 52.5t34 39t48 26.5t55 14q-9 16 -29.5 27.5t-48.5 11.5h-168l-40 78h430v-12q4 25 -9 39t-37.5 22t-58 11.5
t-70 7.5t-73 11.5t-67.5 23t-53.5 41.5t-31.5 67q-5 23 1 44t15 38q11 20 25 38l53 -36q-11 -11 -20 -22q-8 -10 -13 -20.5t-4 -21.5q2 -24 24.5 -37.5t52 -20.5t58 -9t43.5 -4q103 -9 160.5 -47.5t68.5 -112.5h115l43 -78h-303q4 -13 7 -23t5 -16q17 -2 47.5 -9.5t61 -28.5
t54 -58.5t24.5 -99.5q1 -45 -17 -78t-45 -56.5t-58 -38.5t-56 -25q31 -17 71 -44t80 -58.5t75.5 -64t58.5 -60.5z" />
    <glyph glyph-name="bn_baphala" unicode="&#xe381;" horiz-adv-x="0" 
d="M-155 -382q-3 14 -11.5 27.5t-19.5 24.5t-21.5 19t-16.5 12q-38 27 -76 34.5t-73 4.5l-58 77l330 165v-395zM-175 -145q-17 -5 -45 -20.5t-51 -29.5q28 -12 52.5 -31t43.5 -36v117z" />
    <glyph glyph-name="bn_bh_ukaar" unicode="&#xe382;" horiz-adv-x="694" 
d="M-10 605l-43 78h755l42 -78h-754zM745 -353q-18 15 -52.5 44t-73.5 62t-77 65t-63 52q-33 -57 -74 -77t-78 -19q-24 0 -46.5 8.5t-39.5 23t-27 33.5t-9 42q1 28 13.5 50.5t30.5 38t39.5 24t39.5 8.5q32 0 56 -9.5t52 -23.5q2 22 2.5 46.5t-6.5 49.5q-6 -1 -10 -2t-7 -1.5
t-7 -0.5h-11q-63 0 -113.5 29.5t-90 76.5t-68.5 105.5t-49.5 115.5t-34 106t-21.5 78l71 -38q9 -17 20 -50t26 -73t37 -81.5t54 -75.5t76.5 -56t104.5 -22q29 0 60.5 12.5t58.5 34t44.5 52t17.5 66.5q0 15 -1.5 30t-3.5 26t-5.5 16t-6.5 0q-6 -7 -23.5 -25.5t-45 -38
t-64.5 -34.5t-82 -15q-53 0 -86 18t-48.5 45.5t-16 59t12 59t36 45.5t54.5 18q25 0 46 -10t34 -27t16 -39.5t-8 -48.5q30 8 50 26t34 36.5t23 33.5t15 16q4 1 26 -8.5t47 -34.5t45 -67.5t20 -108.5q0 -42 -17.5 -80.5t-46 -70t-65.5 -54t-76 -34.5q14 -14 22 -33t12.5 -39
t6 -39t1.5 -32q103 -82 164 -129t75 -55zM422 -90q-17 9 -41 17t-47 10q-14 1 -29 -4t-27.5 -13t-20 -19.5t-6.5 -24.5q1 -12 11.5 -21t25.5 -14t32 -5.5t31 4.5q29 11 46 32.5t25 37.5z" />
    <glyph glyph-name="bn_hasanta" unicode="&#x9cd;" horiz-adv-x="0" 
d="M-162 -121l-27 116l263 -219l12 -88z" />
    <glyph glyph-name="bn_sh_n" unicode="&#xe383;" horiz-adv-x="644" 
d="M594 605q-16 0 -29 5v-668l-59 47q-2 16 -6 32q-3 14 -6.5 28t-8.5 25q-9 22 -17.5 40.5t-19.5 33.5t-27 26.5t-39 19.5q-22 8 -47 5q11 -13 15 -29t4 -36q0 -41 -26 -63.5t-73 -21.5q-25 1 -43.5 10t-31 24t-18.5 33.5t-7 37.5q-1 25 9.5 47.5t28 39t41 26.5t48.5 10
q73 0 122 -23.5t77 -52.5v245h-2q1 26 -12.5 51t-33.5 44.5t-42.5 32t-38.5 12.5q-12 0 -21.5 -6.5t-17.5 -14.5q17 -12 35 -24.5t32.5 -27t24 -32t9.5 -39.5q0 -27 -10 -44.5t-24 -27.5t-30.5 -14t-30.5 -4q-15 0 -27.5 5.5t-22.5 14.5t-19 20t-17 23q-9 -12 -18.5 -24.5
t-21.5 -22.5t-27 -16.5t-33 -6.5q-47 2 -67.5 29.5t-20.5 63.5q0 42 29 71.5t74 60.5q-11 9 -23 12.5t-25.5 4.5t-29.5 1t-36 1l-79 94h117q46 0 78 -22.5t55 -57.5q11 11 23.5 25t27.5 27t32 22t36 9q24 0 46.5 -8.5t42.5 -22.5t37.5 -32t30.5 -36q1 27 0.5 63t-0.5 68v76
q26 -14 37 -26t16.5 -24t10 -24t17.5 -27q10 -11 22 -10.5t24 0.5h39l51 -78h-104z" />
    <glyph glyph-name="bn_half_nn.alt" unicode="&#xe384;" horiz-adv-x="0" 
d="M-125 -190q0 36 -6.5 70.5t-18.5 64.5t-29 53t-37 35q4 -9 4 -24q0 -23 -8 -39.5t-21.5 -27.5t-31 -16t-36.5 -5q-16 0 -32.5 8.5t-29.5 23t-21.5 32.5t-8.5 38q0 15 6 35.5t20.5 38.5t39 30.5t61.5 12.5q45 0 78 -22.5t56 -51.5v219h78v-536z" />
    <glyph glyph-name="bn_half_n.alt" unicode="&#xe385;" horiz-adv-x="186" 
d="M129 605v-893l-58 61q-3 18 -8.5 38.5t-17 40.5t-28.5 36t-42 25q-2 -12 -8 -27t-17.5 -28.5t-28 -22.5t-40.5 -9q-20 0 -37 9t-30.5 23.5t-22 32.5t-10.5 37q-3 31 9 54t34.5 35.5t54 11.5t66.5 -18q22 -11 49.5 -30t50.5 -42v666h-65l-45 78h251l47 -78h-104z" />
    <glyph glyph-name="bn_nn_dd_ukaar" unicode="&#xe386;" horiz-adv-x="772" 
d="M851 -391q-18 15 -52.5 44t-73.5 62t-77 65t-63 52q-33 -57 -74 -77t-78 -19q-24 0 -46.5 8.5t-39.5 23t-27 33.5t-9 42q1 28 13.5 50.5t30.5 38t39.5 24t39.5 8.5q32 0 56 -9.5t52 -23.5q2 23 2 48t-5 52q-10 -1 -19 -1.5t-19 -0.5q-98 0 -190.5 63t-161.5 181
q-40 68 -76 154.5t-62 198.5l68 -32q22 -67 54.5 -144.5t83.5 -149.5q25 -35 52.5 -64t61.5 -49.5t76.5 -32t97.5 -11.5q16 0 38 2.5t42.5 10.5t34.5 22t14 36q0 8 -3.5 11.5t-7.5 8.5q-15 -7 -31 -11t-26 -4q-18 0 -35 6.5t-30.5 18.5t-21.5 29t-8 37q0 24 9 40t21.5 25
t26 12.5t22.5 3.5t29 -1.5t40 -16.5q6 5 11.5 13.5t6.5 25.5q0 7 -3.5 23t-10.5 36t-16.5 41t-20.5 39q-4 -14 -11 -30t-14.5 -33.5t-14.5 -35.5t-11 -36l-28 42q-10 20 -23.5 42.5t-32 41t-43.5 30.5t-58 12q-18 0 -36 -8t-32.5 -21t-23.5 -29.5t-9 -33.5q0 -20 9 -32
t33 -17q-5 17 -3.5 33.5t9 30t21 21.5t32.5 8q22 0 37 -7.5t24 -19t13 -26t4 -28.5q0 -25 -10 -42.5t-26.5 -28.5t-37.5 -16.5t-43 -5.5q-12 0 -35.5 6.5t-47 24t-41.5 48.5t-18 80q0 42 15.5 72.5t40 50.5t54.5 29.5t59 9.5q25 0 44.5 -8t37 -22t33.5 -33t33 -41
q12 30 17 46t7.5 27.5t5 23.5t9.5 35l43 -26q11 -27 36.5 -67.5t51.5 -84.5t45.5 -85.5t19.5 -70.5q0 -22 -5.5 -40.5t-14 -32.5t-17.5 -24t-17 -17q5 -7 10.5 -14t10 -16.5t8 -22.5t3.5 -33q0 -60 -39.5 -96t-100.5 -47q15 -13 23.5 -32t12.5 -38.5t5 -38.5t1 -32
q103 -82 164 -129t75 -55zM528 -128q-17 9 -41 17t-47 10q-14 1 -29 -4t-27.5 -13t-20 -19.5t-6.5 -24.5q1 -12 11.5 -21t25.5 -14t32 -5.5t31 4.5q29 11 46 32.5t25 37.5z" />
    <glyph glyph-name="bn_ri" unicode="&#x98b;" horiz-adv-x="692" 
d="M596 72q-5 15 -14.5 36.5t-22.5 44t-29.5 44.5t-36.5 37v-300l-52 44q-3 17 -11.5 41.5t-24.5 52.5t-40 57t-57 55q-16 13 -35.5 24.5t-39 19.5t-38 13t-33.5 6l-17 7l-56 67l-4 21q21 15 54.5 35.5t72.5 43t79 44t73 36.5q-4 4 -10.5 11t-13.5 14.5t-12.5 13t-8.5 6.5
q-5 1 -20.5 -9t-38.5 -23t-52.5 -25.5t-64.5 -17.5q-9 -1 -27.5 2t-38 12.5t-34 27.5t-14.5 47q0 21 6.5 35t17 23t22.5 12.5t22 3.5q17 0 28.5 -6t19 -15t12.5 -19.5t8 -19.5q12 0 30.5 13t35.5 29.5t31 30t17 13.5q7 -2 22 -17t33.5 -36.5t39 -45.5t37.5 -44v189l82 -83
v-281q8 -9 29 -35t43 -54v453l82 -81v-625zM410 414q-13 -4 -37.5 -14.5t-52 -24t-53.5 -27t-42 -24.5q15 -7 39 -22.5t50 -35.5t51.5 -43.5t44.5 -47.5v239z" />
    <glyph glyph-name="bn_nn.alt" unicode="&#xe387;" horiz-adv-x="546" 
d="M385 18v389q0 14 -13 41t-34.5 54t-50 47.5t-59.5 20.5q-16 0 -33.5 -8.5t-32.5 -24.5t-25 -38.5t-10 -50.5q0 -26 11 -43q2 32 26 51.5t58 19.5q21 0 37.5 -9.5t27.5 -24.5t17 -34t4 -37q-4 -46 -35.5 -70t-76.5 -24q-24 0 -54.5 8.5t-57.5 29.5t-45.5 57t-17.5 91
q0 41 15.5 79.5t42 68t61.5 47t75 17.5q30 0 56 -13t48 -32.5t39.5 -43t31.5 -43.5v272q29 -31 41.5 -46.5t17 -25t5.5 -18t5 -26.5l15 -785z" />
    <glyph glyph-name="bn_t_rikaar" unicode="&#xe388;" horiz-adv-x="662" 
d="M-11 605l-48 78h729l47 -78h-728zM628 286q0 -31 -11 -66.5t-32 -68t-52 -58t-71 -36.5l17 -63l-116 -72q15 -14 39 -32.5t48.5 -37t45.5 -35t30 -25.5l17 -87q-29 32 -72.5 68.5t-87.5 70t-81.5 59t-55.5 36.5q-8 9 0 18q16 9 40 21t47.5 25t43.5 25.5t29 23.5
q-55 0 -101.5 22.5t-86.5 62t-73 91.5t-60.5 111.5t-50 122t-41.5 122.5l65 -34q7 -8 19 -39.5t31 -74t45 -90t62 -87.5t82 -66t104 -26q36 0 65.5 15t50.5 37.5t32 49t11 50.5q0 16 -4.5 36t-13 39.5t-19.5 35t-25 22.5q-14 8 -27.5 12t-29.5 1q7 -11 12 -27.5t5 -39.5
q0 -25 -9.5 -44.5t-24.5 -32.5t-33.5 -19.5t-36.5 -6.5q-50 0 -80.5 32t-30.5 82q0 28 8.5 55.5t28 49.5t50 35.5t74.5 13.5q43 0 83 -18t71.5 -53.5t50.5 -87t19 -118.5z" />
    <glyph glyph-name="bn_c_ukaar" unicode="&#xe389;" horiz-adv-x="492" 
d="M581 -352q-18 15 -53 47t-74.5 69t-78 72t-63.5 55q-33 -57 -74 -77t-78 -19q-24 0 -46.5 8.5t-39.5 23t-27 33.5t-9 42q1 28 13.5 50.5t30.5 38t39.5 24t39.5 8.5q32 0 56 -9.5t52 -23.5q2 23 -2 46.5t-12 43.5q-32 -17 -54 -17q-17 0 -38 18t-39 42t-30.5 47t-12.5 33
v402h-82l-47 78h555l47 -78h-393v-13q17 -42 46 -62.5t60 -28.5t57.5 -8.5t37.5 -3.5q6 -1 18.5 -7t28 -16.5t31 -26t25.5 -35.5q12 -54 -3.5 -102t-45.5 -88.5t-69.5 -72t-75.5 -52.5q17 -16 28 -34.5t17.5 -37t9 -35.5t2.5 -30q51 -41 92.5 -76.5t72.5 -62.5t50.5 -44
t26.5 -21zM359 341q2 20 -2.5 26.5t-22.5 11.5q-69 19 -109 50.5t-62 62.5v-303q8 -21 16 -27.5t25 1.5q61 35 102.5 80t52.5 98zM255 -69q-17 9 -41 17t-47 10q-14 1 -29 -4t-27.5 -13t-20 -19.5t-6.5 -24.5q1 -12 11.5 -21t25.5 -14t32 -5.5t31 4.5q29 11 46 32.5t25 37.5
z" />
    <glyph glyph-name="bn_ikaar_reph" unicode="&#xe38a;" horiz-adv-x="275" 
d="M654 845q16 -13 30.5 -26.5t30.5 -29.5l5 -37q-20 15 -42.5 31.5t-50.5 33.5l-81 -84h-141v30l145 95q-47 23 -98 37t-112 14q-58 0 -100 -20.5t-68.5 -48t-39 -55.5t-12.5 -42q0 -18 8.5 -30t21 -18.5t27.5 -9t27 -2.5h86l61 -78h-175l9 -677l-89 90v587h-108l-59 78
h135q-8 9 -16 21t-14.5 24t-11.5 22.5t-7 15.5q2 0 7 16t16.5 40t31 52t51.5 52t78.5 41t110.5 18q53 1 126 -20.5t158 -78.5l164 108h42z" />
    <glyph glyph-name="bn_ou_mark_reph_term" unicode="&#xe38b;" horiz-adv-x="284" 
d="M-285 730h-141v30l293 202h42zM194 605q0 -19 0.5 -58t1.5 -90t1.5 -110t1.5 -118q2 -137 4 -300l-89 89v453q-10 23 -20.5 46.5t-22.5 43t-25 32t-28 12.5h-1h-22l-39 78h52q42 -4 70 -28.5t45 -51.5v24q0 9 0.5 21.5t-1 27t-7.5 30t-18 30.5q-31 26 -55.5 56.5
t-55.5 61.5q-20 20 -36 45t-25 54t-8 60.5t15 62.5q15 33 33.5 45t47.5 16l18 -56q-15 2 -26 -1.5t-18 -7.5q-8 -4 -13 -11q-9 -22 -8 -36t8.5 -24.5t19.5 -19.5t24 -21q32 -30 52.5 -54t40.5 -40q14 -11 26 -31.5t21 -36.5t16 -40.5t11.5 -51t6.5 -53.5t2 -48z" />
    <glyph glyph-name="bn_rr_ukaar" unicode="&#xe38d;" horiz-adv-x="627" 
d="M690 -412q-18 15 -52.5 44t-73.5 62t-77 65t-63 52q-33 -57 -74 -77t-78 -19q-24 0 -46.5 8.5t-39.5 23t-27 33.5t-9 42q1 28 13.5 50.5t30.5 38t39.5 24t39.5 8.5q32 0 58 -10.5t57 -27.5q9 28 14 57t0 55t-15 38.5t-20 29.5q-59 2 -107 28t-85.5 67.5t-65 94
t-45.5 106.5t-26.5 105t-8.5 90l54 -30q1 -8 6.5 -38t17.5 -69t31.5 -82.5t48 -79t67 -57t88.5 -18.5q59 4 95.5 29t54 57t17 63t-15.5 47q-55 -53 -95 -76.5t-75 -22.5q-6 0 -17 2t-23.5 11.5t-25 30t-22.5 57.5v205h-246l-47 78h696l48 -78h-373q-1 -59 0 -105
q0 -19 1 -38t2 -33.5t3 -23.5t4 -9q32 2 54.5 22.5t38 44t25.5 43.5t17 21q10 2 28.5 -10.5t37 -38t32.5 -64t15 -88.5q1 -36 -7.5 -72t-25.5 -67.5t-44 -55t-64 -32.5h-1q-1 0 -1 -0.5t-2 -0.5q8 -14 19.5 -38.5t15.5 -54.5q2 -21 1 -38.5t-4 -33t-7.5 -30t-9.5 -30.5
q103 -82 163.5 -129.5t74.5 -55.5zM281 29q0 -22 -16 -39t-39 -17q-18 0 -36 16t-18 38q0 23 16.5 39t37.5 16q23 0 39 -15t16 -38zM362 -147q-17 9 -41 17t-47 10q-14 1 -29 -4t-27.5 -13t-20 -19.5t-6.5 -24.5q1 -12 11.5 -21t25.5 -14t32 -5.5t31 4.5q29 11 46 32.5
t25 37.5z" />
    <glyph glyph-name="bn_g_b" unicode="&#xe38f;" horiz-adv-x="611" 
d="M544 605q-8 0 -14 1t-11 3v-677l-55 55q-4 10 -10.5 24.5t-19.5 32t-34.5 36t-55.5 37.5q-25 14 -58.5 23t-60.5 8q-22 18 -38 39.5t-28 39.5q32 23 71.5 48t78.5 46.5t72.5 38t53.5 23.5v67q0 8 -12.5 31.5t-35 48.5t-54 44.5t-68.5 19.5q-20 0 -37.5 -4.5t-31 -11.5
t-22.5 -15t-13 -15q14 4 34 8t39 3q54 -2 86.5 -33t31.5 -91q-1 -30 -21.5 -54t-47 -42.5t-52.5 -33.5t-38 -27q-24 11 -46 22q-19 10 -37.5 22.5t-27.5 25.5q25 9 58.5 23t63.5 30.5t51 35t21 36.5q0 11 -6.5 14t-15.5 1.5t-18.5 -5.5t-15.5 -6q-18 -6 -36 -16.5t-35.5 -20
t-32 -16.5t-25.5 -7q-16 1 -26.5 14t-16.5 29.5t-8 30.5t-2 17q0 41 15.5 74.5t42.5 57.5t62.5 37.5t74.5 13.5q21 0 46 -6t51.5 -20t53 -36.5t51.5 -56.5v235l58 -41q4 -13 8 -27.5t11 -27t17.5 -20.5t26.5 -8h64l55 -78h-131zM435 279q-24 -11 -56.5 -28t-61.5 -37
q36 -17 62 -36t56 -51v152z" />
    <glyph glyph-name="bn_n_d_b" unicode="&#xe390;" horiz-adv-x="789" 
d="M408 605v-138q14 17 31.5 34.5t39.5 32t48.5 24.5t57.5 12q17 1 39.5 -15t42 -38.5t33 -46t13.5 -37.5v-528l-50 48q-4 13 -13.5 29.5t-24 34t-34.5 35t-47 31.5q-30 16 -59 23t-59 9l-70 77q16 17 50 41t74.5 48t81 45t69.5 32v74q0 17 -1 26.5t-13 9.5q-43 0 -77 -20.5
t-60 -51t-44.5 -65.5t-29.5 -63q-16 12 -31 26.5t-27 29t-19 27.5t-7 22v45q-5 12 -11 22.5t-15 19.5t-22.5 17t-34.5 15q-15 5 -28 6.5t-23 -6.5q17 -13 25 -30.5t10 -40.5q3 -41 -20.5 -66t-69.5 -28q-25 -2 -44.5 6t-33 21.5t-21.5 32t-11 37.5q-3 24 5.5 45t24 38t37 29
t45.5 19q32 9 59.5 9.5t51 -5.5t42.5 -16.5t34 -24.5v87h-309l-51 78h841l52 -78h-447zM633 257q-20 -10 -51.5 -27t-70.5 -43q43 -23 72.5 -48t49.5 -46v164z" />
    <glyph glyph-name="invertedComma.alt" unicode="&#xe397;" horiz-adv-x="639" 
d="M289 658q0 -23 -10 -45t-26.5 -41t-38.5 -34t-46 -24l-36 11q23 12 46.5 27.5t39.5 34t21.5 40.5t-6.5 47q-9 -5 -14.5 -8t-16.5 -3q-21 0 -40.5 12t-19.5 41q0 25 18.5 40t45.5 15q21 0 36.5 -10t26 -26t15.5 -36t5 -41zM476 658q0 -23 -10 -45t-26.5 -41t-38.5 -34
t-46 -24l-36 11q23 12 46.5 27.5t39.5 34t21.5 40.5t-6.5 47q-9 -5 -14.5 -8t-16.5 -3q-21 0 -40.5 12t-19.5 41q0 25 18.5 40t45.5 15q21 0 36.5 -10t26 -26t15.5 -36t5 -41zM637 59q0 -35 -17 -61t-38.5 -43.5t-40.5 -27l-23 -11.5l-14 6q-5 2 -9.5 4t-6.5 3
q11 6 25.5 15.5t29.5 22t27.5 27.5t18.5 31q5 12 4 21.5t-3 16.5q-3 8 -8 14q-10 -6 -25 -7.5t-28.5 3t-23.5 16.5t-10 32q0 30 18 41.5t39 11.5q42 0 63.5 -32t21.5 -83z" />
    <glyph glyph-name="bn_t_t_rikaar" unicode="&#xe398;" horiz-adv-x="672" 
d="M12 605l-54 78h718l52 -78h-716zM627 201q0 -39 -11.5 -71t-32 -55.5t-47.5 -38.5t-58 -20l26 -80l-116 -72q15 -14 39 -32.5t48.5 -37t45.5 -35t30 -25.5l17 -87q-29 32 -72.5 68.5t-87.5 70t-81.5 59t-55.5 36.5q-8 9 0 18q16 9 42 24.5t52.5 32t48.5 32.5t31 27
q-83 0 -165.5 67.5t-155.5 196.5q-15 27 -28 57.5t-26 66t-26 78t-28 94.5l72 -35q7 -22 15 -48t20 -56t28.5 -64t41.5 -72q23 -34 49 -65t56.5 -54.5t65.5 -37.5t75 -14q21 0 42.5 7t39.5 20t29 31.5t11 40.5q0 11 -7 22t-15 19q-9 -8 -22 -15t-36 -7q-22 0 -38.5 8
t-26.5 20t-14.5 27t-4.5 29q1 15 6.5 30t15 27t22.5 19.5t29 7.5q32 0 49 -8q9 15 13.5 35t4.5 26q0 24 -17 34t-38 9q-7 0 -29 -4.5t-47 -13.5t-48.5 -23.5t-34.5 -34.5q29 -11 36 -26t8 -43q1 -22 -7.5 -36.5t-21 -22.5t-27.5 -11.5t-27 -3.5q-19 0 -35.5 8.5t-28 22.5
t-18 32t-6.5 37q0 43 20.5 77.5t55 59t80 37.5t94.5 13q48 0 79.5 -16t50 -39t26 -50t7.5 -48q0 -34 -11.5 -64t-18.5 -45q5 -7 13 -15.5t16 -21.5t13.5 -32t5.5 -47z" />
    <glyph glyph-name="bn_bindu.alt.001" unicode="&#xe400;" horiz-adv-x="0" 
d="M-129 747q-12 2 -32.5 8t-43 25t-43 54t-33.5 95l33 -20q7 -10 17 -27.5t24 -34t34 -28.5t47 -12q25 0 44.5 10t33 26.5t20.5 37.5t7 43l20 -9q6 -35 -3 -67t-27.5 -56t-44.5 -36.5t-53 -8.5zM-126 962q20 0 34 -14t14 -34t-14 -34.5t-34 -14.5t-34.5 14.5t-14.5 34.5
t14.5 34t34.5 14z" />
    <glyph glyph-name="bn_y_baphala_reph" unicode="&#xe402;" horiz-adv-x="820" 
d="M759 605q-41 -13 -53 -51t-5 -95l30 -248q8 -61 -7.5 -109t-44 -81.5t-66 -51t-73.5 -17.5l-54 58q55 2 87.5 15.5t49 36t20 52t-1.5 62.5l-35 257q-4 27 0.5 51.5t13.5 46.5t22 40.5t26 33.5h-204v-634q-15 14 -27 26q-11 11 -20.5 22.5t-11.5 19.5q-9 36 -28 65t-41 51
t-43 37t-34 24q-17 11 -41.5 20t-47.5 17q-27 9 -56 16q-18 19 -33 37q-13 15 -23 32t-12 28q24 21 51 45q23 20 53.5 45t62.5 50q-30 23 -56.5 35.5t-48.5 18.5t-39.5 8t-29.5 5q-10 2 -14.5 7t-7.5 10.5t-5 10t-8 4.5h-11l-54 78h888l52 -78h-120zM381 605h-177
q11 -13 30.5 -33.5t38.5 -40t33.5 -35t17.5 -20.5q2 -4 -9.5 -16.5t-31 -30t-43.5 -39t-46 -42.5q72 -37 117.5 -77.5t69.5 -69.5v404zM297 733h-141v30l353 231h42z" />
    <glyph glyph-name="bn_ou_mark_reph" unicode="&#xe404;" horiz-adv-x="276" 
d="M161 620q3 -165 4.5 -326.5t3.5 -326.5l-58 58v450q-11 25 -23.5 50.5t-26 46.5t-29 34t-32.5 14l-23 48h13q37 -3 62 -24.5t40 -46.5q18 -29 28 -65v95q0 9 0.5 23t-1.5 29.5t-8.5 33t-20.5 33.5q-26 25 -58.5 54t-63.5 71q-9 12 -23 37.5t-23 56.5t-8 63.5t24 57.5
q18 20 35.5 26.5t33.5 5.5l3 -33q-11 2 -19.5 -0.5t-15.5 -4.5q-8 -3 -14 -7q-17 -13 -20.5 -27.5t2.5 -29.5t18.5 -30.5t27.5 -31.5q46 -32 70 -56t36 -42t16.5 -31.5t11.5 -24.5q12 -20 20.5 -55t12.5 -77h123l37 -48h-155zM-288 719h-120v7l312 209h23z" />
    <glyph glyph-name="bn_ou_mark.alt" unicode="&#xe405;" horiz-adv-x="276" 
d="M161 620q0 -1 0.5 -29.5t1 -74.5t1 -104.5t1.5 -119.5q2 -143 4 -325l-58 58v450q-11 25 -23.5 50.5t-26 46.5t-29 34t-32.5 14l-23 48h13q37 -3 62 -24.5t40 -46.5q18 -29 28 -65v95q0 9 0.5 23t-1.5 29.5t-8.5 33t-20.5 33.5q-13 12 -33.5 25.5t-43.5 28.5t-45.5 32.5
t-37.5 38.5q-9 12 -23 37.5t-23 56.5t-8 63.5t24 57.5q18 20 35.5 26.5t33.5 5.5l3 -33q-11 2 -19.5 -0.5t-15.5 -4.5q-8 -3 -14 -7q-17 -13 -20.5 -27.5t2.5 -29.5t18.5 -30.5t27.5 -31.5q46 -32 76 -56t49 -42t29.5 -31.5t17.5 -24.5q9 -15 15.5 -38t11 -48.5t7.5 -50.5
t4 -43z" />
    <glyph glyph-name="bn_b_dh_b" unicode="&#xe406;" horiz-adv-x="661" 
d="M355 485q-29 -9 -57 -21t-52.5 -25t-45 -25t-34.5 -21q17 -8 33.5 -19t26.5 -18q10 6 26.5 16t35 20t36.5 19t31 14v60zM353 304q-28 -10 -57 -23q-25 -11 -54 -27t-55 -38q19 -5 40.5 -18t30.5 -22q10 7 23.5 14.5t27.5 14t26 12t18 8.5v79zM353 131q-18 -8 -42 -22
t-43 -27q17 -8 39 -20t46 -31v100zM437 -125q-21 25 -36.5 40t-28 25t-23.5 17.5t-24 16.5q-37 26 -66.5 35t-52.5 11q-12 12 -25 24q-11 11 -23.5 24t-23.5 26q14 12 35 28t34 24q-10 11 -35 19.5t-58 4.5q-7 10 -17.5 20.5t-20.5 19.5q-11 11 -24 21q12 13 27.5 25.5
t30.5 24t27 19.5l18 12q-18 6 -39 8q-11 13 -26 29t-28 31l-30 36q28 19 66.5 44.5t82 50.5t90 47t90.5 34v13h-365l-47 78h724l51 -78h-282v-150l57 17q11 3 22 -1.5t23 -15t26 -26t30 -34.5q-4 -33 -10 -73t-5 -102l1 -69q0 -26 4 -51t7.5 -48t4.5 -43t-4 -36l-84 92
q-4 12 -7 33.5t-4.5 46.5t-2 49t-0.5 41q0 20 3.5 45t8 47t7 37.5t-0.5 16.5q-6 2 -14 -0.5t-18 -7.5t-21.5 -11.5t-23.5 -12.5v-474z" />
    <glyph glyph-name="bn_d_uukaar" unicode="&#xe407;" horiz-adv-x="574" 
d="M377 -140q-15 -28 -43.5 -48.5t-61.5 -25t-66 10.5t-58 59q-27 47 -18 86.5t39 65.5t74.5 36t90.5 -2q-6 48 -8 97.5t2.5 97.5t17.5 92.5t37 83.5q-34 -9 -61.5 -23t-52 -38t-49.5 -60.5t-54 -89.5q2 -11 3 -19.5t2 -17.5t2.5 -19.5t4.5 -27.5q-2 3 -13 8t-14 7
q-8 7 -14.5 13t-11.5 14q-27 67 -41.5 128.5t-20.5 118t-4.5 106t6.5 92.5h-63l-48 78h619l45 -78h-420q-25 -7 -34 -26t-11 -33q-3 -16 -4.5 -40t-1.5 -51.5t1.5 -56.5t4.5 -56q45 68 83 108t71 61.5t62.5 30t59.5 14.5q26 -18 47 -36q18 -15 34.5 -30t19.5 -24
q-47 -66 -78.5 -118t-48.5 -104.5t-20.5 -114.5t5.5 -149q-47 13 -89.5 8t-72.5 -20t-44 -37t-4 -43q13 -28 39 -31t54 7.5t53 28.5t37 33l56 -20l281 -186l2 -88z" />
    <glyph glyph-name="bn_rikaar" unicode="&#x9c3;" horiz-adv-x="0" 
d="M-59 -235q-29 32 -72.5 68.5t-87.5 70t-81.5 59t-55.5 36.5q-8 9 0 18q16 9 41.5 23.5t51 30t47.5 30t32 23.5h37l24 -70l-116 -72q15 -14 39 -32.5t48.5 -37t45.5 -35t30 -25.5z" />
    <glyph glyph-name="bn_nn_dd_uukaar" unicode="&#xe408;" horiz-adv-x="772" 
d="M589 -236q-14 -29 -43 -50.5t-63 -27t-68.5 9.5t-59.5 59q-28 49 -20.5 90t36 68t72 36.5t88.5 -3.5l9 86q-11 -2 -19.5 -2.5t-19.5 -0.5q-98 0 -190.5 63t-161.5 181q-40 68 -76 154.5t-62 198.5l68 -32q22 -67 54.5 -144.5t83.5 -149.5q25 -35 52.5 -64t61.5 -49.5
t76.5 -32t97.5 -11.5q16 0 38 2.5t42.5 10.5t34.5 22t14 36q0 8 -3.5 11.5t-7.5 8.5q-15 -7 -31 -11t-26 -4q-18 0 -35 6.5t-30.5 18.5t-21.5 29t-8 37q0 24 9 40t21.5 25t26 12.5t22.5 3.5t29 -1.5t40 -16.5q6 5 11.5 13.5t6.5 25.5q0 7 -3.5 23t-10.5 36t-16.5 41
t-20.5 39q-4 -14 -11 -30t-14.5 -33.5t-14.5 -35.5t-11 -36l-28 42q-10 20 -23.5 42.5t-32 41t-43.5 30.5t-58 12q-18 0 -36 -8t-32.5 -21t-23.5 -29.5t-9 -33.5q0 -20 9 -32t33 -17q-5 17 -3.5 33.5t9 30t21 21.5t32.5 8q22 0 37 -7.5t24 -19t13 -26t4 -28.5
q0 -25 -10 -42.5t-26.5 -28.5t-37.5 -16.5t-43 -5.5q-12 0 -35.5 6.5t-47 24t-41.5 48.5t-18 80q0 42 15.5 72.5t40 50.5t54.5 29.5t59 9.5q25 0 44.5 -8t37 -22t33.5 -33t33 -41q12 30 17 46t7.5 27.5t5 23.5t9.5 35l43 -26q11 -27 36.5 -67.5t51.5 -84.5t45.5 -85.5
t19.5 -70.5q0 -22 -5.5 -40.5t-14 -32.5t-17.5 -24t-17 -17q5 -7 10.5 -14t10 -16.5t8 -22.5t3.5 -33q0 -60 -36 -94t-95 -47q14 -16 20.5 -38t9.5 -43.5t3 -40t-1 -29.5q-47 13 -89.5 8t-72.5 -20.5t-44 -37.5t-4 -43q13 -28 39 -31t54 7.5t53 28.5t37 33l56 -20l281 -186
l2 -88z" />
    <glyph glyph-name="bn_ddh_ukaar" unicode="&#xe40b;" horiz-adv-x="472" 
d="M545 -350q-18 15 -52.5 44t-73.5 62t-77 65t-63 52q-33 -57 -74 -77t-78 -19q-24 0 -46.5 8.5t-39.5 23t-27 33.5t-9 42q1 28 13.5 50.5t30.5 38t39.5 24t39.5 8.5q32 0 56 -9.5t52 -23.5q2 23 5 47t-2 50q-15 -7 -30 -12t-29 -7q-10 -1 -32 15.5t-44.5 42t-39.5 54
t-17 50.5v393h-56l-47 78h537l48 -78h-399v-391q0 -11 4 -23t10 -22t13.5 -16t13.5 -5q14 3 38.5 18.5t48.5 40.5t44 57t25 68q-16 -2 -33.5 2t-32 13.5t-24 26t-9.5 39.5q0 45 27 65t67 20q19 0 38.5 -9.5t35.5 -28t26 -46t10 -64.5q0 -38 -15 -78t-39.5 -77t-57 -68
t-67.5 -51q13 -13 21 -32t12.5 -39t6.5 -39t2 -32q103 -82 164 -129t75 -55zM222 -87q-17 9 -41 17t-47 10q-14 1 -29 -4t-27.5 -13t-20 -19.5t-6.5 -24.5q1 -12 11.5 -21t25.5 -14t32 -5.5t31 4.5q29 11 46 32.5t25 37.5z" />
    <glyph glyph-name="bn_tt_ukaar" unicode="&#xe40c;" horiz-adv-x="500" 
d="M575 -353q-18 15 -52.5 44t-73.5 62t-77 65t-63 52q-33 -57 -74 -77t-78 -19q-24 0 -46.5 8.5t-39.5 23t-27 33.5t-9 42q1 28 13.5 50.5t30.5 38t39.5 24t39.5 8.5q32 0 56 -9.5t52 -23.5q2 23 5 47t-5 52q-31 -14 -57 -18q-10 -1 -32 16t-44.5 42t-39.5 53.5t-17 50.5
v393h-86l-48 78h422q2 1 4 5q12 32 -7 48t-54 26t-79 19t-83.5 26.5t-67 49.5t-29.5 88q-1 22 10.5 47.5t25.5 48.5q17 26 37 53l47 -38q-16 -19 -28 -37q-11 -15 -19.5 -31.5t-9.5 -28.5q-2 -24 15 -40.5t41 -27t49 -17t40 -10.5q51 -14 85.5 -29.5t55.5 -36t29 -48.5
t4 -67h89l52 -78h-412v-391q0 -11 4 -23t10 -22t13.5 -16t13.5 -5q14 3 38.5 18.5t48.5 40.5t44 57t25 68q-16 -2 -33.5 2t-31.5 13.5t-23.5 26t-9.5 39.5q0 45 26.5 65t66.5 20q19 0 38.5 -9.5t35.5 -28t26.5 -46t10.5 -64.5q0 -39 -15.5 -79t-41 -76.5t-58.5 -67.5
t-69 -51q15 -14 24.5 -33t14 -39.5t6.5 -39.5t2 -33q103 -82 164 -129t75 -55zM252 -90q-17 9 -41 17t-47 10q-14 1 -29 -4t-27.5 -13t-20 -19.5t-6.5 -24.5q1 -12 11.5 -21t25.5 -14t32 -5.5t31 4.5q29 11 46 32.5t25 37.5z" />
    <glyph glyph-name="bn_ukaar.alt.003" unicode="&#xe40e;" horiz-adv-x="0" 
d="M181 -415q-18 15 -53 47t-74.5 69t-78 72t-63.5 55q-33 -57 -74 -77t-78 -19q-24 0 -46.5 8.5t-39.5 23t-27 33.5t-9 42q1 28 13.5 50.5t30.5 38t39.5 24t39.5 8.5q32 0 56 -9.5t52 -23.5q2 26 2.5 58t-7.5 62q21 -10 33.5 -30.5t19 -43.5t9 -46t2.5 -38
q51 -41 92.5 -76.5t72.5 -62.5t50.5 -44t26.5 -21zM-145 -132q-17 9 -41 17t-47 10q-14 1 -29 -4t-27.5 -13t-20 -19.5t-6.5 -24.5q1 -12 11 -21t25 -14t32.5 -5.5t31.5 4.5q29 11 46 32.5t25 37.5z" />
    <glyph glyph-name="bn_dd_ukaar" unicode="&#xe40f;" horiz-adv-x="657" 
d="M719 -352q-18 15 -52.5 44t-73.5 62t-77 65t-63 52q-33 -57 -74 -77t-78 -19q-24 0 -46.5 8.5t-39.5 23t-27 33.5t-9 42q1 28 13.5 50.5t30.5 38t39.5 24t39.5 8.5q32 0 56 -9.5t52 -23.5q3 41 -3 89h-11q-62 -1 -112 26t-88.5 71.5t-66.5 101t-46 114.5t-26.5 113
t-8.5 95l55 -30q1 -8 7.5 -40.5t20.5 -75t36 -90t53.5 -86t73 -62.5t93.5 -20q63 5 101.5 31.5t56.5 60.5t17.5 67t-16.5 49q-57 -56 -99.5 -80.5t-79.5 -23.5q-6 0 -15.5 2t-21 12.5t-25.5 31.5t-30 58v221h-284l-48 78h722l48 -78h-356q0 -71 -1 -115.5t-2 -68.5t1 -32
t8 -7q30 5 53.5 24.5t40.5 42t28 42.5t17 24q7 7 27.5 -5.5t42.5 -40t39 -69t16 -93.5q0 -40 -13 -80.5t-37.5 -74.5t-60 -58t-81.5 -32q10 -15 16.5 -32.5t10 -35t5.5 -34t2 -28.5q103 -82 164 -129t75 -55zM396 -89q-17 9 -41 17t-47 10q-14 1 -29 -4t-27.5 -13t-20 -19.5
t-6.5 -24.5q1 -12 11.5 -21t25.5 -14t32 -5.5t31 4.5q29 11 46 32.5t25 37.5z" />
    <glyph glyph-name="bn_c_uukaar" unicode="&#xe413;" horiz-adv-x="510" 
d="M281 -189q-15 -27 -42.5 -48.5t-59 -27t-63 9t-56.5 58.5q-28 49 -19 87.5t40 63t77 34t91 0.5l7 65q-11 -5 -29 -9.5t-26 -4.5q-17 0 -38 18.5t-39 43t-30.5 48.5t-12.5 34v422h-82l-47 78h555l47 -78h-393v-13q17 -42 46 -62.5t60 -28.5t57.5 -8.5t37.5 -3.5
q6 -1 18.5 -7t28 -16.5t31 -26t25.5 -35.5q13 -56 -2.5 -108t-45.5 -96.5t-67.5 -79.5t-69.5 -57q7 -14 10 -34.5t4.5 -40.5t1 -36.5t-1.5 -23.5q-47 13 -88 8.5t-68.5 -18.5t-40 -35.5t-2.5 -42.5q13 -28 37 -32.5t49.5 4.5t48.5 26t35 32l56 -20l281 -186l2 -81zM204 143
q-17 -8 -25 -1.5t-16 27.5zM359 341q2 20 -2.5 26.5t-22.5 11.5q-69 19 -109 50.5t-62 62.5v-323q8 -21 16 -27.5t25 1.5q30 18 56 41t46 49.5t33.5 54t19.5 53.5z" />
    <glyph glyph-name="bn_p_s" unicode="&#xe414;" horiz-adv-x="972" 
d="M892 605v-648q-10 10 -24.5 24t-27.5 27l-31 31v330q-3 5 -8.5 13.5t-13.5 17.5t-17.5 15.5t-19.5 6.5q-12 0 -20 -2.5t-18.5 -13t-27 -32t-47.5 -59.5q-7 -9 -22.5 -27t-34 -36t-39 -32t-37.5 -14q-28 0 -64.5 38.5t-74.5 113.5l45 34q9 -20 26 -39t29 -20q4 0 9.5 2.5
t11 6.5t10 8t5.5 6l-114 111q-14 -13 -40 -38t-53 -51l-53.5 -53.5t-30.5 -29.5t-16.5 -12.5t-11.5 -2.5l-103 18q18 20 32.5 34.5t24.5 27.5t15.5 25.5t5.5 27.5q0 16 -13.5 26t-27.5 8q-6 -1 -11.5 -5.5t-12 -9.5t-15 -9.5t-19.5 -4.5q-24 -2 -43 16t-19 44q0 28 19 59
t51.5 57.5t75.5 43.5t92 17q35 0 68.5 -13.5t64 -36.5t58.5 -53.5t52 -64.5q14 -18 33.5 -42t30.5 -38q11 12 24 27t13 31q0 10 -4 21t-12 21.5t-19.5 19t-25.5 12.5q-42 13 -62.5 27.5t-22.5 38.5h-23l-54 78h633l47 -78h-143zM809 605h-234q7 -6 18 -13.5t21.5 -18
t19.5 -26t12 -38.5q20 15 38.5 21t33.5 6q26 0 50 -17t41 -37v123zM328 542q-11 8 -29 18t-36 8q-22 -2 -51 -13t-61 -37q28 -8 46 -28t25 -47z" />
    <glyph glyph-name="bn_ph_r" unicode="&#xe415;" horiz-adv-x="768" 
d="M485 -17q-4 21 -11.5 38.5t-21 28.5t-34.5 16.5t-53 2.5q-22 -1 -53 -4t-63 -5t-63 -3t-53 2q-27 3 -49 15t-38 29t-26 37.5t-13 39.5q-3 23 3 46.5t18 61.5l32 -30q-5 -19 -4 -37t9 -33t24.5 -25t41.5 -14q18 -3 47.5 0.5t62.5 8t65.5 8t57.5 0.5q32 -3 54 -13.5
t39 -24.5q-11 19 -34.5 41t-73.5 51q-33 20 -60 30.5t-48 16t-37 7.5t-27 4l-78 91l173 134q-20 18 -42.5 28.5t-46 16.5t-46 9t-42.5 7q-13 2 -20 9t-12 14t-10.5 12.5t-14.5 5.5h-35l-48 78h817l47 -78h-573q0 -7 14 -11.5t26 -16.5q16 -15 34 -33q16 -15 37.5 -35
t44.5 -43q-7 -6 -24 -19.5t-37.5 -29.5t-41 -32.5t-35.5 -28.5q23 -10 49.5 -26t52.5 -34t49.5 -38t41.5 -38v332h75q29 0 57 -1t39 -5q26 -8 49.5 -24t41.5 -39.5t28 -55.5t10 -71q0 -35 -10 -58.5t-24.5 -38t-32 -20.5t-32.5 -6q-37 0 -62 22t-25 54q0 37 18.5 56.5
t47.5 20.5q18 1 30 -3t22 -12q2 10 -0.5 22.5t-12.5 25.5q-9 11 -27 17t-39 8.5t-40 2.5t-30 -1v-497z" />
    <glyph glyph-name="bn_n_ukaar" unicode="&#xe160;" horiz-adv-x="639" 
d="M514 605q26 -31 46.5 -72.5t20.5 -90.5q0 -24 -4 -52t-12.5 -56.5t-20.5 -54t-28 -44.5q-10 -11 -24 -20.5t-22 -10.5q17 -34 21 -59t-2 -44.5t-19.5 -35.5t-33.5 -32q20 -18 53.5 -45t64.5 -52q37 -29 78 -61l1 -99q-9 12 -41 40t-70.5 60.5t-75 64t-55.5 49.5
q-33 -26 -68.5 -48.5t-76.5 -21.5q-27 0 -53 9t-45.5 24t-30.5 36.5t-9 47.5q2 23 11.5 44.5t26.5 38t40 26.5t51 9q47 -2 89 -22.5t69 -51.5q68 56 40 119q-25 -1 -37.5 9t-26.5 29q-18 24 -31 65t-26.5 80.5t-31 67.5t-45.5 25q9 -7 16 -17q6 -8 10.5 -20.5t4.5 -29.5
q0 -27 -10.5 -47t-26 -33t-34.5 -19.5t-36 -6.5q-23 0 -45 7t-39.5 22t-28.5 37.5t-11 54.5q0 43 16 68.5t39.5 39t51.5 17.5t52 4q23 0 43 -8t37.5 -21t33 -29t28.5 -32q5 -6 15.5 -22t23.5 -33.5t25.5 -31.5t22.5 -16q9 -2 21 6.5t22.5 24.5t17.5 37.5t8 45.5q0 19 -8 42
t-20 42.5t-26.5 33t-27.5 13.5h-416l-51 78h698l55 -78h-184zM343 37q-22 29 -52 38.5t-53 7.5q-28 -1 -47 -10.5t-20 -41.5q0 -11 6.5 -19.5t16 -14t21.5 -8.5t22 -3q13 0 28 5t29.5 13t27.5 17t21 16z" />
    <glyph glyph-name="bn_n_s" unicode="&#xe161;" horiz-adv-x="741" 
d="M638 605l12 -651l-90 75v322q0 5 -5.5 14t-14 17.5t-18.5 14.5t-19 6q-19 0 -34 -17.5t-30 -41.5q-15 -25 -32 -55.5t-35 -57.5t-35.5 -46.5t-34.5 -22.5q-14 -2 -32 5.5t-37 22.5t-37.5 35.5t-34.5 42.5l37 46q18 -19 34.5 -32.5t23.5 -11.5q9 2 17 14t14 27t10.5 29.5
t7.5 20.5q-7 16 -13.5 39.5t-29.5 45.5q-1 2 -7.5 5t-15 5.5t-17.5 1.5t-16 -8q16 -10 18 -25t0 -28q-8 -41 -36 -59t-57 -15q-16 2 -33 9t-31.5 20t-23.5 32t-9 44t11 45.5t29.5 35t43 22.5t51.5 8q26 0 50.5 -9.5t47 -26t41 -38t31.5 -46.5l16 25q-1 29 -14.5 56.5
t-30.5 36.5q-21 11 -44.5 16.5t-44.5 8t-37.5 3.5t-23.5 4q-17 5 -24 15.5t-10 20.5h-122l-55 78h793l51 -78h-155zM559 605h-192q23 -21 32.5 -48t12.5 -57q17 13 31 15t30 0q21 -2 44 -21t42 -39v150z" />
    <glyph glyph-name="bn_ph_l" unicode="&#xe162;" horiz-adv-x="738" 
d="M228 605q6 -5 15 -11t20 -17q17 -16 42.5 -39.5t64.5 -64.5q-6 -6 -23 -19t-37.5 -28t-42 -30.5t-37.5 -27.5q24 -10 50.5 -24t53 -30t50.5 -34t42 -35v322l151 -1q21 0 44 -13.5t42 -37.5t31 -57t12 -72q0 -35 -9.5 -58.5t-24.5 -37.5t-32.5 -20t-33.5 -6
q-37 0 -61.5 22t-24.5 54q0 36 18.5 55.5t47.5 21.5q17 2 29.5 -3t22.5 -13q2 11 -0.5 23.5t-12.5 25.5q-9 12 -24.5 18t-32.5 9t-32.5 3t-25.5 -2v-551l-56 39q-10 67 -33.5 99t-48.5 29q-22 -3 -21 -30t13 -69l-26 16q-12 19 -29 38t-37.5 34t-43 23.5t-44.5 6.5
q-19 -1 -34 -8.5t-23.5 -18.5t-10.5 -24.5t4 -28.5q4 -10 13 -17q-5 26 11.5 45.5t47.5 19.5q34 0 50 -19.5t14 -51.5q-1 -14 -8.5 -25.5t-19.5 -19.5t-28 -13t-34 -5q-11 0 -31.5 4.5t-40.5 18.5t-35 39t-15 65q0 22 6.5 45.5t21.5 43t39 33t59 14.5q54 2 117 -61
q9 17 29 29.5t43 12.5q12 0 25 -6.5t25.5 -17t23.5 -23.5t18 -27q-4 38 -35.5 63t-78.5 53q-33 20 -62.5 30.5t-54 15.5t-43 7t-29.5 5l-82 90l176 128q-20 18 -43.5 29t-47.5 17t-47.5 9t-43.5 6q-19 4 -30 13.5t-16 21.5h-24l-47 78h805l45 -78h-565z" />
    <glyph glyph-name="bn_m_b" unicode="&#xe163;" horiz-adv-x="546" 
d="M475 605q13 -23 18.5 -46.5t5.5 -52.5q0 -31 -7 -49.5t-15 -30t-15 -17.5t-7 -13v-429l-53 44q-4 11 -11 26.5t-19.5 33t-32 36t-49.5 35.5q-26 15 -56.5 27t-75.5 17l-64 77q16 11 41.5 27.5t55 34.5t60 35t55.5 29q-14 9 -26.5 21.5t-24.5 26t-23 26.5t-23 22
q3 -45 -25 -72.5t-71 -28.5q-15 0 -31 6t-30 18.5t-23 30.5t-9 41q0 29 9.5 48t24.5 30.5t34 17t38 6.5q-1 8 -6.5 15.5t-21.5 7.5h-106l-55 78h616l58 -78h-136zM418 539q1 18 -6 30.5t-18 20.5t-24.5 11.5t-25.5 3.5h-149q2 -8 4 -16.5t4 -17.5q20 -11 36 -25t32.5 -27
t36 -22t46.5 -9q10 0 21 3t20.5 9.5t16 16t6.5 22.5zM374 319q-40 -21 -69 -37.5t-49 -30.5q28 -13 57 -35t61 -57v160z" />
    <glyph glyph-name="bn_m_bh" unicode="&#xe164;" horiz-adv-x="660" 
d="M561 605q4 -7 7.5 -18t6 -23t4.5 -24t3 -22q2 -15 0.5 -33.5t-8 -37t-19 -36t-34.5 -30.5q10 -10 22 -23.5t22.5 -33t17.5 -45.5t6 -62q-1 -50 -16 -91t-42 -70t-65 -45t-83 -16q-63 0 -114 33.5t-91.5 87t-71 120t-53 132t-37.5 124.5t-24 96l59 -34q9 -23 22 -63.5
t31 -88.5t42.5 -98t56.5 -90.5t73.5 -66t92.5 -26.5q24 0 51 8.5t50 24.5t39 39.5t18 54.5q1 12 -4 25q-19 -16 -38 -31t-39.5 -26.5t-44.5 -18.5t-53 -8q-26 0 -49 7.5t-39.5 21.5t-26 33t-9.5 42q0 48 22.5 69t57.5 21q21 0 37 -8t25 -21.5t9 -31t-10 -35.5
q15 6 32.5 13.5t34.5 18.5t32.5 26t26.5 34q-34 4 -59.5 19t-46 33t-38.5 35t-38 25q5 -45 -20.5 -71.5t-68.5 -25.5q-37 0 -59.5 27t-22.5 61q0 19 8 35.5t21 28.5t29.5 19.5t34.5 7.5q0 2 -1.5 7.5t-4.5 11t-9 9.5t-16 4h-208l-52 78h726l54 -78h-159zM506 527
q3 16 -3 30.5t-15 25t-19.5 16.5t-17.5 6h-156q7 -7 9 -14.5t2 -13.5q0 -7 -2 -14q20 -8 35.5 -20.5t33 -24.5t38 -20.5t49.5 -10.5q9 -1 25.5 8t20.5 32z" />
    <glyph glyph-name="bn_m_m" unicode="&#xe165;" horiz-adv-x="722" 
d="M643 605v-632l-55 39q-5 16 -12.5 37.5t-20.5 44t-33.5 43.5t-50.5 37q-7 -22 -20.5 -36.5t-28.5 -23.5t-29.5 -13t-24.5 -4q-18 0 -37 6t-35 18t-27 30t-12 41q-2 35 17 62.5t49 40.5q26 11 59 8q-3 15 -11.5 27.5t-21.5 23.5q-23 0 -39 11.5t-32 26.5q-20 19 -37.5 39
t-31.5 34l-10 10v-5q0 -44 -25.5 -71.5t-64.5 -29.5q-20 -1 -39 5.5t-33 19.5t-21.5 32t-6.5 43q2 26 12.5 44.5t26 30.5t34 18t35.5 8q-1 3 -3.5 8.5t-6 11.5t-8.5 10.5t-11 4.5h-95l-51 78h791l48 -78h-138zM405 527q0 6 -3 19t-10.5 26t-20 23t-32.5 10h-152
q3 -8 3.5 -24.5t1.5 -24.5q14 -7 31.5 -20.5t36.5 -27t38.5 -24t37.5 -10.5q32 0 50.5 16.5t18.5 36.5zM561 605h-106q21 -29 27 -56t6 -54q-1 -49 -21 -79t-53 -53q27 -21 43.5 -40t22.5 -57q20 -17 42 -39.5t39 -44.5v423z" />
    <glyph glyph-name="bn_n_y" unicode="&#xe166;" horiz-adv-x="728" 
d="M650 605v-266q0 -66 -14.5 -119.5t-41 -93.5t-63.5 -66t-82 -37q-33 -8 -77.5 -7t-84.5 18q-19 8 -41 25t-41.5 37.5t-33 40.5t-15.5 34q-2 22 4.5 30t20.5 10q5 0 12.5 -3l17.5 -7t22.5 -7t28.5 -2q32 2 56 12.5t40.5 27t25.5 36t10 38.5q-1 11 -14 37.5t-34.5 53.5
t-49.5 46t-60 14q14 -12 20 -28t8 -30q3 -24 -5 -42t-22.5 -30t-33.5 -18t-39 -6q-48 0 -77.5 29.5t-29.5 77.5q0 29 11 53.5t29.5 43t42.5 29t49 10.5q18 0 36.5 -4t35.5 -10.5t31 -14.5t23 -14q11 -8 23 -20.5t23.5 -25.5t21 -25.5t14.5 -20.5v194h-396l-52 78h780l55 -78
h-134zM566 605h-77v-257q0 -50 -17 -93t-45 -75t-63 -51t-70 -21q13 -5 27.5 -8t28.5 -3q42 -1 81 13t69 44t48 76.5t18 111.5v263z" />
    <glyph glyph-name="bn_l_ph" unicode="&#xe167;" horiz-adv-x="838" 
d="M472 605v-136q5 -29 14.5 -50.5t18.5 -36t14.5 -23t3.5 -11.5t-15 -12l-32.5 -22.5t-44 -31.5t-51.5 -40q45 -26 92.5 -63t78.5 -74v404h133q74 -11 116 -56.5t42 -135.5q0 -27 -8 -48.5t-21 -37.5t-29 -24.5t-32 -8.5q-34 0 -60.5 19t-26.5 55q0 38 22.5 57t47.5 19
q14 0 24.5 -4t19.5 -12q1 5 1.5 10.5t-1.5 10.5q-3 13 -11 22.5t-18.5 16t-20 9.5t-15.5 4q-4 1 -13.5 1.5t-21.5 0.5t-24 -1t-21 -3v-493l-61 48q-15 48 -50.5 85.5t-77.5 63.5t-83 40t-67 14q-29 40 -47.5 63.5t-17.5 29.5q1 3 22.5 20.5t50 40t57.5 45t45 35.5
q-3 9 -8.5 24t-14 28.5t-19 24t-22.5 10.5t-19 -9.5t-5 -21.5q1 -8 5.5 -26t14.5 -54l-59 29q-7 9 -20.5 24.5t-30 30.5t-35 25.5t-37.5 10.5q-15 0 -30.5 -8.5t-26.5 -22t-16.5 -31.5t0.5 -36q5 -14 19.5 -23.5t20.5 -14.5q-15 15 -16.5 29.5t5.5 26t21 18t30 5.5
q31 -2 46.5 -20.5t15.5 -44.5q0 -16 -7.5 -29t-19.5 -23t-27.5 -15.5t-32.5 -5.5q-10 0 -30.5 4t-41 18t-35.5 40.5t-15 71.5q0 29 11.5 55.5t29.5 46.5t39.5 32.5t42.5 12.5q28 0 51 -10.5t54 -34.5q13 21 29 33.5t33 12.5q26 0 46 -14.5t38 -35.5v77h-397l-51 78h905
l51 -78h-425z" />
    <glyph glyph-name="bn_l_b" unicode="&#xe168;" horiz-adv-x="618" 
d="M522 605v-683l-49 45q-10 25 -32.5 56.5t-56.5 60t-79 49.5t-101 25q-8 8 -17.5 20.5t-18 25t-14 22.5t-4.5 14q1 3 28.5 22t69.5 44t93 49t99 37v32q-17 32 -34.5 47.5t-30.5 16.5q-9 1 -14.5 -3.5t-8.5 -12t-4 -17t-1 -17.5q0 -5 1.5 -14t3.5 -19q2 -11 4 -25l-50 19
q-8 11 -20 26.5t-28.5 30.5t-37 25.5t-45.5 10.5q-16 0 -31 -5t-26.5 -14t-18.5 -21t-7 -26q0 -13 5.5 -29t14.5 -21q-1 5 -1.5 8.5t-0.5 8.5q0 11 3.5 22t11.5 21t20.5 16.5t29.5 6.5q23 0 36.5 -7t21 -18t10 -23.5t2.5 -22.5q-1 -42 -31 -63.5t-69 -21.5q-30 0 -56 10.5
t-45 29t-30 43.5t-11 55q0 37 17 65.5t43 47.5t57 27.5t59 5.5q47 -4 98 -57q12 20 32.5 37t49.5 15q17 -1 39.5 -19t41.5 -43v85h-449l-51 78h687l45 -78h-150zM440 293q-44 -15 -81 -31.5t-66 -35.5q39 -17 77.5 -46.5t69.5 -61.5v175z" />
    <glyph glyph-name="bn_sh_c" unicode="&#xe169;" horiz-adv-x="848" 
d="M508 605v-48q20 -24 47 -39t53 -23.5t48.5 -12.5t33.5 -7q6 -1 19 -7t28.5 -16t31.5 -24t27 -33q10 -44 0.5 -87t-31 -82.5t-51.5 -72.5t-61 -57.5t-60 -38.5t-49 -14q-17 0 -37.5 18t-38.5 41.5t-30 46t-12 32.5v339q-10 12 -25 23t-30 20.5t-29 16.5t-24 9
q-7 2 -14.5 -1t-14 -9t-12 -13t-9.5 -13q39 -27 60 -46.5t30 -34.5t10.5 -26t1.5 -22q-1 -35 -23.5 -59.5t-63.5 -24.5q-32 0 -50.5 22t-39.5 52q-10 -13 -19 -26.5t-19 -24t-22 -17t-30 -6.5q-20 0 -37 8.5t-29 21.5t-18.5 29.5t-6.5 32.5q0 27 10.5 45.5t26.5 32t35 25.5
t35 26q-14 10 -33.5 13.5t-37.5 5.5q-21 2 -44 0l-75 103h98q11 0 30 -4.5t39.5 -15t40 -26.5t32.5 -40q9 9 21 24t27.5 28.5t35 23.5t43.5 10q13 0 30 -8.5t35 -21.5t35 -29t29 -30v26l-11 63h435l52 -78h-393zM689 332q2 20 -2.5 26.5t-22.5 10.5q-64 20 -100 49t-56 51
v-303q7 -20 14.5 -24t23.5 4q31 17 55 38.5t41.5 46t29 50.5t17.5 51z" />
    <glyph glyph-name="bn_sh_ch" unicode="&#xe16a;" horiz-adv-x="920" 
d="M977 -105q-42 38 -89 73q-40 30 -90.5 61t-103.5 50q-30 11 -55 17.5t-48 11t-46.5 9t-50.5 10.5l-69 137q35 -12 58 -19.5t39 -11.5t27.5 -5t22.5 0q26 1 63.5 15t71.5 36.5t58 52t23 60.5q0 9 -2 21t-9 22.5t-20 16.5t-36 3q0 -45 -20 -78.5t-49.5 -57t-62 -37.5
t-56.5 -19q-10 -2 -28.5 8.5t-36.5 26.5t-31 34t-13 30v169q-8 7 -23 16.5t-31.5 18.5t-31.5 16.5t-22 9.5t-14 -1t-14 -9t-12.5 -13.5t-9.5 -13.5q39 -27 59.5 -47t29.5 -34.5t10.5 -26t1.5 -22.5q-1 -34 -23.5 -59t-62.5 -25q-16 0 -28.5 6.5t-23 17.5t-19.5 25t-20 29
q-10 -13 -19 -27t-18.5 -25.5t-22 -18.5t-30.5 -7q-20 0 -36 7.5t-27.5 20t-17.5 28.5t-6 32q0 27 10 46t25.5 34t33.5 27t34 26q-14 11 -33 14.5t-37 5.5q-21 2 -43 0l-77 101h98q12 0 31 -4.5t39.5 -14t40 -25.5t31.5 -40q9 10 21 25t28 28.5t35.5 23t43.5 9.5q10 0 27 -7
t36 -18t37 -24.5t30 -26.5l-26 74h521l51 -78h-463v-31q29 -22 64 -29.5t65 -8.5q35 -1 71 6q16 -3 36.5 -9t41 -19.5t40 -35.5t32.5 -55q15 -37 10 -75.5t-25 -73t-53.5 -63.5t-77.5 -46q21 -10 46.5 -24.5t56.5 -37t67 -55t78 -79.5zM618 451q-25 2 -42 6t-29 9
t-21.5 12.5t-18.5 16.5v-136q0 -21 17.5 -18t38.5 19.5t38.5 42t16.5 48.5z" />
    <glyph glyph-name="bn_l_dd" unicode="&#xe16b;" horiz-adv-x="828" 
d="M512 605q0 -60 1 -107q0 -20 1 -39t2.5 -34t3.5 -23.5t5 -8.5h2q1 0 2.5 0.5t3.5 0.5q21 5 40 26.5t35 45.5t28 44t17 22q3 1 23.5 -13t44.5 -43.5t43 -74.5t19 -106q0 -42 -16.5 -84t-47 -75t-73 -53.5t-94.5 -20.5q-39 0 -78 10.5t-75.5 42.5t-69 91t-59.5 155l57 -36
q12 -24 28.5 -51t41.5 -50t60.5 -38t85.5 -15q32 0 62.5 11.5t54.5 32t38.5 49.5t14.5 64q0 34 -9 54t-21 31q-11 -10 -30 -28.5t-41 -36.5t-46 -31.5t-46 -13.5t-38 15.5t-36 41.5q-4 11 -10 32t-15.5 41.5t-24.5 36t-38 15.5q-7 0 -13.5 -5.5t-10.5 -19t-4 -36t6 -57.5
q-15 11 -24 17t-14 10t-8 6t-5 5q-7 14 -21 28t-32 24.5t-39.5 16.5t-43.5 3q-38 -4 -59.5 -27.5t-21.5 -58.5q0 -23 11 -39t21 -19q2 -1 5 -1q-5 17 -5 34q1 26 21 45.5t51 19.5q18 0 31.5 -7t22.5 -18t13.5 -24t4.5 -26q0 -24 -9 -41.5t-24 -28t-35 -15.5t-42 -5
q-25 0 -50.5 8.5t-46 27.5t-33 48t-12.5 69q0 38 13 66t33.5 46.5t44.5 27.5t46 9q18 0 36.5 -4t36 -10.5t32.5 -15.5t25 -18q5 8 13 17t18.5 17t22.5 13.5t26 5.5q29 0 51 -18t39 -44v94h-438l-48 78h894l47 -78h-372z" />
    <glyph glyph-name="bn_l_p" unicode="&#xe16c;" horiz-adv-x="648" 
d="M556 605v-676l-62 71q-2 44 -10 72t-19 46t-22 29t-19 20l-190 -168l-74 43q16 13 29 27q11 12 20.5 26t10.5 28q1 11 -7.5 17t-22.5 6q-5 0 -9 -3.5t-9.5 -7.5t-13 -7t-19.5 -3q-24 0 -37.5 15.5t-13.5 38.5q0 12 13 36t38.5 48t63.5 41.5t87 16.5q55 -1 100.5 -28.5
t80.5 -73.5v196q-3 7 -9.5 18.5t-16 22.5t-21.5 20t-26 10q-9 1 -14.5 -4.5t-8 -14t-3 -18.5t-0.5 -18q0 -5 2 -15.5t4 -21.5q3 -13 5 -28l-53 30q-6 9 -17 23.5t-27 29.5t-37.5 26.5t-49.5 12.5q-17 1 -33.5 -4t-29 -14t-20 -22t-7.5 -28q0 -13 6 -24.5t15 -18.5
q-1 5 -1.5 9.5t-0.5 9.5q0 22 16 43.5t49 21.5q22 0 35.5 -7.5t21 -18.5t10.5 -23.5t3 -21.5q-1 -40 -31.5 -61.5t-69.5 -21.5q-30 0 -54 10.5t-41.5 29.5t-26.5 44t-9 55q0 38 16 67t41.5 48t56 27.5t58.5 5.5q23 -2 48.5 -18t51.5 -42q11 20 32 37.5t48 15.5
q20 -1 43.5 -15.5t44.5 -43.5v77h-480l-48 78h714l47 -78h-148zM365 230q-24 12 -53 12q-23 0 -45.5 -10t-41.5 -24q17 -7 31 -20.5t20 -33.5z" />
    <glyph glyph-name="bn_n_uukaar" unicode="&#xe16d;" horiz-adv-x="639" 
d="M400 216q-21 13 -36 39t-27 56t-23 61.5t-22.5 56t-26 38.5t-34.5 9q9 -7 16 -17q6 -8 10.5 -20.5t4.5 -29.5q0 -27 -10.5 -47t-26 -33t-34.5 -19.5t-36 -6.5q-23 0 -45 7t-39.5 22t-28.5 37.5t-11 54.5q0 43 16 68.5t39.5 39t51.5 17.5t52 4q23 0 43 -8t37.5 -21t33 -29
t28.5 -32q5 -6 15.5 -22t23.5 -33.5t25.5 -31.5t22.5 -16q9 -2 21 6.5t22.5 24.5t17.5 37.5t8 45.5q0 19 -8 42t-20 42.5t-26.5 33t-27.5 13.5h-387l-54 78h681l54 -78h-192q26 -31 46.5 -72.5t20.5 -90.5q0 -37 -9.5 -77.5t-26.5 -79.5q-8 -19 -16.5 -43.5t-19.5 -43
t-25.5 -24t-34.5 14.5q-2 -34 -5.5 -65.5t-4.5 -49.5q-47 13 -91 6.5t-76.5 -23.5t-48 -40.5t-5.5 -44.5q9 -19 24.5 -26t34 -5t39 10.5t39 19.5t34 23.5t23.5 21.5l55 -20l267 -196l2 -107l-312 250q-18 -32 -50 -56.5t-68.5 -31t-72 10.5t-60.5 69q-28 58 -18 102
t44.5 69.5t86 30.5t105.5 -14z" />
    <glyph glyph-name="bn_p_tt" unicode="&#xe16e;" horiz-adv-x="768" 
d="M446 605v-399q0 -10 3 -21t8.5 -19.5t11.5 -13.5t12 -4q11 2 27.5 11.5t34.5 25.5t36 37t31 45q8 14 14 29.5t8 32.5q-16 -2 -33 2t-31.5 14t-24 26.5t-9.5 39.5q0 46 28 67.5t68 19.5q18 -1 38 -10t35.5 -27t25.5 -45.5t8 -66.5q-1 -29 -10.5 -61t-25.5 -61
q-18 -34 -42.5 -64.5t-53 -54.5t-59.5 -39.5t-60 -20.5q-10 -1 -31 14.5t-42 39.5t-36.5 52t-15.5 52v228l-29 41q-20 -16 -46 -40t-51 -48.5t-46 -47t-32 -37.5q-18 7 -37.5 13.5t-36.5 12.5q-19 7 -38 13q15 17 27 29.5t20.5 23.5t13.5 21.5t8 23.5q3 14 -4.5 21t-16.5 5
q-7 -1 -13 -4l-12 -6t-13 -6t-17 -3q-23 -1 -39.5 16.5t-14.5 42.5q1 14 15.5 37.5t40 45.5t62.5 38.5t85 16.5q31 0 56.5 -9t46.5 -23t38.5 -32.5t32.5 -36.5v63h-27l-62 78h371q7 4 10 12q5 15 -3.5 26t-22.5 18.5t-31.5 13t-30.5 9.5q-21 6 -41 11.5t-39 11.5t-39 14.5
t-41 20.5q-19 12 -36 24t-29.5 28t-19.5 36t-7 47q0 22 13 44t28 41q18 22 40 42l32 -40q-15 -14 -26 -27q-10 -11 -18.5 -24t-9.5 -24q-1 -10 2.5 -16t10 -10.5t17 -9.5t23.5 -13q17 -10 38.5 -17.5t42 -13.5t37.5 -10.5t25 -7.5q18 -7 37.5 -16t37.5 -21t33 -27.5
t25 -35.5q18 -36 15 -86h61l58 -78h-389zM263 545q-14 11 -31.5 13.5t-33.5 1.5q-20 -2 -41.5 -13t-37.5 -23q18 -7 32.5 -21t20.5 -37z" />
    <glyph glyph-name="bn_p_t" unicode="&#xe16f;" horiz-adv-x="756" 
d="M687 605q-5 1 -9 2t-9 2t-11 3v-329q6 -8 16.5 -20.5t20.5 -30.5t17.5 -44t7.5 -61q0 -43 -17 -83t-44.5 -71t-63.5 -50t-75 -19q-59 0 -113 26.5t-101.5 70t-89 100t-76 116.5t-61.5 119.5t-46.5 109t-30.5 84.5t-13 46l64 -31q5 -17 16 -44.5t30 -67t47.5 -93
t70.5 -121.5q49 -80 125 -129t173 -49q28 0 52.5 12t42.5 29.5t28.5 38t10.5 38.5q0 14 -2.5 24.5t-11.5 22.5q-26 -29 -52.5 -46t-61.5 -17q-20 0 -36.5 8t-28.5 20t-18 27.5t-6 30.5q0 30 13.5 49.5t34 31t46 15t49.5 1.5v125l-53 68q-19 -16 -46.5 -45.5t-56 -61t-53 -59
t-37.5 -39.5l-127 27q34 40 57.5 67.5t23.5 44.5q0 5 -2 12t-6.5 13t-12 9t-18.5 0q-7 -2 -20 -11t-32 -9q-24 1 -43 15t-21 44q-2 21 17 50.5t50.5 55.5t72.5 44.5t84 18.5q71 0 123 -39.5t100 -103.5v254l57 -43q6 -19 9 -34t15 -31q6 -8 19 -11.5t27 -3.5h58l56 -78h-129
zM438 588q-14 8 -30 13.5t-33 5.5q-23 0 -52.5 -15.5t-51.5 -34.5q28 -8 45 -24t26 -39q27 29 53 53.5t43 40.5z" />
    <glyph glyph-name="bn_p_n" unicode="&#xe170;" horiz-adv-x="652" 
d="M593 605q-5 0 -9 1q-9 2 -19 6v-700l-59 38q-1 22 -4 42q-2 17 -4.5 35t-7.5 29q-9 22 -17.5 40t-20 33t-27.5 27t-41 22q-11 4 -23 3.5t-26 -2.5q11 -13 15 -29t4 -36q0 -41 -26 -63.5t-73 -21.5q-27 0 -46 9.5t-32 24.5t-19 33.5t-7 37.5q-1 25 9.5 48t28.5 40t42 27.5
t49 10.5q36 0 64 -6.5t51 -19.5t44 -32t42 -44v250l-65 92q-20 -16 -50.5 -45.5t-61.5 -61t-58 -59t-40 -39.5l-129 35q41 40 65.5 69t24.5 46q0 5 -3 13t-8.5 14.5t-14 10t-20.5 0.5q-3 -1 -9 -5t-13.5 -8t-16.5 -7.5t-19 -3.5q-28 0 -44 15.5t-16 46.5q0 25 20 54.5t53 55
t74.5 43.5t83.5 19q39 1 74 -14t66.5 -39t58.5 -54t49 -60l-1 281l58 -46q5 -17 8 -33t15 -31q6 -8 15 -11t23 -3h60l61 -78h-128zM339 576q-19 14 -40.5 21.5t-41.5 5.5q-26 -2 -54 -16.5t-49 -31.5q29 -9 47.5 -29.5t27.5 -45.5q12 11 27 24t30.5 26.5t29.5 25.5t23 20z
" />
    <glyph glyph-name="bn_p_p" unicode="&#xe171;" horiz-adv-x="628" 
d="M566 605q-5 0 -9 1t-9 2t-10 3v-669l-60 47q0 52 -5.5 90t-13.5 64.5t-17 43t-16 25.5q-20 -15 -49 -41.5t-57.5 -54t-52 -51t-34.5 -32.5l-113 32q16 15 31 30t27 28.5t19.5 25t7.5 20.5q0 5 -2 11.5t-6.5 12t-11.5 8.5t-18 0q-8 -2 -15 -8.5t-21 -11.5q-12 -3 -24 -1
t-21.5 8.5t-16 17.5t-6.5 26q0 14 9.5 30.5t25 33.5t35 33t39.5 27l-61 20q39 38 57 58t18 36q0 5 -1 12t-4 13.5t-9.5 10t-17.5 0.5q-7 -2 -16 -9.5t-25 -12.5q-11 -3 -24 -1t-24.5 9t-19 18t-7.5 25q0 25 19.5 53t50.5 51.5t68 39t72 15.5q65 0 116 -35t90 -87v235l59 -49
q3 -17 6.5 -31.5t14.5 -30.5q6 -8 16.5 -10.5t24.5 -2.5h61l55 -78h-125zM338 594q-17 11 -34.5 13.5t-37.5 2.5q-21 0 -43 -10.5t-40 -25.5q26 -8 40 -25.5t22 -40.5q21 20 48.5 45t44.5 41zM454 470l-40 54q-14 -10 -33 -27t-40 -37t-41.5 -41t-37.5 -38h2q65 0 108.5 -28
t81.5 -77v194zM353 282q-16 11 -31.5 13t-34.5 1q-20 -2 -42 -10.5t-40 -22.5q25 -8 38 -23.5t18 -35.5q11 9 23.5 19.5l25 21t24 20.5t19.5 17z" />
    <glyph glyph-name="bn_p_r" unicode="&#xe172;" horiz-adv-x="759" 
d="M713 605q-8 1 -15.5 2.5t-13.5 3.5v-659l-59 60q-6 25 -10.5 47.5t-15.5 38.5t-32.5 24t-61.5 5q-25 -2 -49 -4t-50.5 -4t-57 -3t-69.5 -2q-38 0 -67 8.5t-51 23t-38 33t-29 38.5q-23 36 -30 89.5t14 119.5l38 -41q-8 -50 4.5 -83t33.5 -51q16 -14 35.5 -23.5t45.5 -11.5
q26 -1 59.5 1t70.5 5.5t75 6t71 0.5q23 -1 45.5 -14t40.5 -28v207q0 11 -15.5 34.5t-48.5 64.5l-212 -213l-108 28l-2 21q1 4 12 13.5t24 23.5t22.5 31t7.5 35q-2 17 -10.5 28t-32.5 9q-7 0 -11.5 -4t-10.5 -8.5t-15 -8t-24 -4.5q-29 -1 -45.5 19t-15.5 49q1 16 15 45
t43 57.5t75 49.5t110 21q49 0 87.5 -18t69 -44.5t52.5 -57t38 -56.5v290q27 -20 37.5 -32t15 -21.5t8.5 -19.5t17 -27q8 -9 19.5 -12.5t20.5 -3.5h43l51 -78h-101zM459 569q-17 12 -38 21.5t-41 9.5q-35 0 -65 -15.5t-53 -39.5q28 -7 49.5 -29t30.5 -59z" />
    <glyph glyph-name="bn_p_l" unicode="&#xe173;" horiz-adv-x="684" 
d="M642 605q-10 0 -24.5 2t-27.5 6v-676l-75 62v21q-15 54 -30 85t-29.5 46.5t-27 19.5t-22.5 5q-13 1 -22.5 -9.5t-15 -27.5t-7 -37.5t-0.5 -39.5q-8 5 -20.5 14t-13.5 10q-12 13 -23.5 29.5t-25.5 31.5t-32.5 25t-45.5 10q-14 0 -28.5 -8t-26 -20.5t-18 -28t-3.5 -31.5
q1 -4 4 -12.5t8 -16.5t13 -14.5t18 -6.5q-12 18 -13 33.5t6 27t21 18.5t31 7q37 0 52 -22t13 -53q-1 -14 -9.5 -27t-22 -23t-31 -15.5t-35.5 -5.5q-16 0 -39 6t-44.5 22t-37 43t-15.5 68q0 24 9 51t27 50.5t44 39t60 15.5q40 0 69.5 -23t53.5 -69q5 11 15 23.5t23.5 23.5
t28.5 18.5t29 7.5q11 0 24.5 -1t28 -9.5t28 -28t25.5 -55.5v228q-5 9 -13.5 21.5t-18 26.5t-20 28l-19.5 26l-195 -189l-110 24l-2 21q1 4 10 12t19 20t17.5 26.5t6.5 31.5t-6.5 28t-25.5 5q-7 -2 -11.5 -5.5t-9.5 -7t-12 -6.5t-18 -4q-15 -1 -28 4t-22.5 14.5t-14 22
t-3.5 27.5q2 15 16 42.5t42 54.5t71 46.5t101 19.5q44 0 81.5 -17t68.5 -43t55.5 -55.5t40.5 -55.5v294l58 -46q2 -16 5 -29t11 -26q8 -14 25 -18t28 -4h58l45 -78h-96zM362 571q-15 10 -35 18.5t-42 6.5q-32 -2 -60.5 -15.5t-51.5 -34.5q27 -6 47 -25t28 -53z" />
    <glyph glyph-name="bn_b_j" unicode="&#xe174;" horiz-adv-x="816" 
d="M420 605v-19q20 -21 35 -33.5t30.5 -19.5t36 -11t52.5 -7q8 -1 23 0.5t33 4.5t37 7.5t35 8.5l93 -108q-3 -7 -17.5 -23.5t-31 -47.5t-30 -78.5t-13.5 -115.5q0 -11 0.5 -33.5t3.5 -51t9 -60.5t16 -61l-60 37q-5 15 -10.5 39t-10.5 54.5t-8 65.5t-3 71q0 46 2 76t6 51.5
t9 37t12 31.5q-22 -1 -53.5 -2.5t-65.5 3t-68 18t-62 41.5v-144q0 -5 5.5 -11.5t8.5 -4.5q7 3 19 10.5t26.5 17.5t29 21.5t26.5 22.5q20 -19 34 -37.5t23 -40t13.5 -47.5t4.5 -59q0 -45 -18.5 -87t-47.5 -75t-64.5 -53t-70.5 -20q-59 0 -111.5 27t-98 71.5t-82.5 102
t-65 119.5t-46.5 123.5t-25.5 113.5l64 -43q6 -22 19 -60t33.5 -82t49 -89t66 -81t84.5 -59t105 -23q23 0 51 10t51 29t35.5 47t4.5 63q-2 8 -3 15.5t-4 14.5q-24 -19 -48 -36.5t-62 -19.5q-15 -1 -26 3.5t-20 12.5t-17.5 19t-17.5 24q-14 20 -32 31.5t-43 23.5
q-13 6 -40.5 14t-55.5 15l-71 88q16 14 40.5 31t54.5 35t65 36t72 34v22h-343l-51 78h873l45 -78h-439zM335 477q-22 -10 -48 -24t-46 -26q24 -11 48.5 -26t45.5 -35v111z" />
    <glyph glyph-name="bn_b_d" unicode="&#xe175;" horiz-adv-x="656" 
d="M342 605v-223q11 23 32 47.5t48.5 48t60 43t67.5 31.5q21 -9 50 -35t54 -53q-17 -21 -37 -59.5t-37.5 -85t-28 -97t-9.5 -94.5q1 -19 1 -36.5t1.5 -38.5t5.5 -50.5t14 -72.5l-56 44q-4 21 -8 36.5t-8.5 34t-8 44.5t-5.5 67q-1 13 -0.5 34.5t2 47t4.5 53.5t8 53t12.5 45
t17.5 31q-28 -10 -55 -28t-49 -43t-38.5 -55.5t-24.5 -65.5v-114q-36 33 -58.5 58.5t-41.5 46.5t-37.5 39t-45.5 35q-23 15 -53 27t-59 10q-7 9 -17.5 21.5t-20 25t-15.5 22.5t-6 14q1 3 23.5 21t59.5 42.5t83 50.5t93 43v35h-269l-51 78h728l47 -78h-373zM260 469
q-18 -8 -51 -24.5t-75 -45.5q24 -13 41.5 -24.5t31.5 -24t26.5 -26t26.5 -29.5v174z" />
    <glyph glyph-name="bn_b_b" unicode="&#xe176;" horiz-adv-x="798" 
d="M710 605v-654q-12 17 -23.5 30t-20.5 22q-11 11 -19 18q-5 31 -18 61.5t-30.5 57t-37 48t-37.5 34.5q-13 9 -27 19t-30 18.5t-34 13.5t-40 5h-1v-322q-12 14 -23.5 26t-20.5 21l-19 19q-5 30 -18 59.5t-30 56.5t-37 49t-39 35q-25 19 -55 36t-73 20q-6 5 -16 19t-20 30
t-18 30t-9 18q1 4 14.5 17.5t35 32.5t50 41.5t60.5 45t66 42.5t67 33v18h-310l-54 78h863l55 -78h-151zM626 605h-237v-94v-34.5v-30t0.5 -21l0.5 -7.5q20 17 45.5 40t56 47t64.5 45.5t70 36.5v18zM307 474q-28 -14 -72 -40.5t-95 -71.5q27 -13 52 -32t46 -40t38.5 -42.5
t30.5 -41.5v268zM626 474q-29 -13 -72.5 -39.5t-95.5 -72.5q27 -13 52 -32t46.5 -40.5t39 -43t30.5 -41.5v269z" />
    <glyph glyph-name="bn_b_r" unicode="&#xe177;" horiz-adv-x="636" 
d="M542 605v-632l-53 44q-6 18 -12 33.5t-17 26t-30.5 16t-54.5 3.5l-176 -9q-18 -1 -38.5 3t-41 14t-39 28t-30.5 45q-11 23 -8.5 63t27.5 80l32 -35q-10 -21 -11.5 -32.5t2.5 -25.5q2 -5 7.5 -13.5t16 -16.5t26.5 -13t38 -4l171 13q38 3 63.5 -9t44.5 -27q-19 39 -53.5 70
t-75 52.5t-81 32.5t-71.5 10q-19 21 -35 39q-14 16 -26.5 30.5t-17.5 21.5q36 26 82 54t94.5 53t96 44.5t87.5 28.5v12h-427l-54 78h669l48 -78h-153zM457 485q-53 -14 -103.5 -38.5t-96.5 -52.5q22 -9 47.5 -20t51.5 -26.5t52 -36t49 -48.5v222z" />
    <glyph glyph-name="bn_b_l" unicode="&#xe178;" horiz-adv-x="666" 
d="M560 605v-653l-61 51l-5 18q-11 38 -23 62t-23.5 38.5t-22.5 21.5t-21 9q-13 3 -18.5 -3t-6.5 -18t0.5 -28.5t1.5 -34.5q-11 -2 -14.5 -3t-5 -1.5t-4 -1t-10.5 -1.5q-12 12 -24 28.5t-26.5 31t-33 24.5t-45.5 10q-14 0 -28.5 -7t-26 -18t-17.5 -25t-3 -30q1 -4 4 -12
t8.5 -16.5t13.5 -14.5t18 -6q-12 18 -13.5 33.5t5.5 27.5t21 19t31 7q37 1 52.5 -21t13.5 -53q-1 -14 -9 -27t-21.5 -23t-31 -16.5t-35.5 -6.5q-16 0 -38.5 5.5t-43.5 20t-36 40.5t-16 67q0 19 8 41t24.5 41.5t42 33.5t59.5 16q20 2 36 -3.5t30.5 -15t28.5 -23t29 -27.5
q4 9 8 20.5t9.5 21t14.5 16t23 6.5q13 0 28 -6.5t28.5 -17.5t25 -25.5t17.5 -31.5v51q-19 38 -54 64.5t-75.5 43.5t-80 25t-66.5 10q-19 18 -36 34q-14 14 -28 27t-20 19q32 23 78 49.5t95.5 51t98 44t86.5 26.5v15h-473l-59 78h719l64 -78h-167zM477 485q-26 -9 -49 -15
t-45 -13.5t-45.5 -17.5t-51.5 -27q21 -9 46.5 -22t51.5 -28.5t50.5 -33t42.5 -35.5v192z" />
    <glyph glyph-name="bn_bh_b" unicode="&#xe179;" horiz-adv-x="703" 
d="M-8 605l-48 78h768l43 -78h-763zM655 312q0 -60 -21.5 -108t-59.5 -81l2 -317l-54 32q-3 14 -12 27t-19.5 24t-21.5 19t-17 13q-38 26 -81 34t-78 5l-57 77q13 6 27 13q12 6 25.5 13t25.5 13q-51 20 -92.5 57.5t-74 85t-57.5 100.5t-43.5 102.5t-30 91.5t-18.5 68l70 -38
q9 -17 21 -51t29.5 -75t42 -83.5t59 -78t80 -58t105.5 -22.5q29 0 61 12.5t58.5 34t44 52t17.5 66.5q0 15 -1.5 30t-3.5 25.5t-5.5 15.5t-7.5 0q-6 -7 -23 -25.5t-44.5 -37.5t-64 -34t-81.5 -15q-53 0 -86 18t-48.5 45.5t-16 59t12 59t36 45.5t54.5 18q25 0 46 -10t34 -27
t16 -39.5t-8 -48.5q30 8 50 26t33.5 36.5t22.5 33.5t15 16q4 1 26.5 -8.5t47.5 -34.5t45 -67.5t20 -108.5zM501 75q-8 -3 -23 -8.5t-32 -12.5t-34 -14.5t-29 -14.5q14 -6 31 -14.5t33 -17.5t30.5 -18t23.5 -18v118z" />
    <glyph glyph-name="bn_bh_r" unicode="&#xe17a;" horiz-adv-x="632" 
d="M-9 605l-47 78h698l48 -78h-699zM491 -3q-5 20 -8 36t-9.5 28.5t-19 20.5t-36.5 12q-15 3 -37.5 3t-48 -1.5l-51 -3t-46.5 -2.5q-54 -1 -95 15t-68.5 45.5t-41.5 68.5t-14 84q0 19 2 33.5t5.5 28t9 27.5t11.5 31l37 -39q-12 -28 -13.5 -60.5t10.5 -60.5t39.5 -47
t73.5 -19h156q44 0 70 -13t48 -32v269q-38 -39 -84.5 -69.5t-99.5 -30.5q-19 0 -43.5 5.5t-46.5 19.5t-37 37t-15 59q0 27 8 47t21.5 33t30.5 20t34 7q24 0 40.5 -8t27 -19.5t15.5 -25t6 -23.5q1 -11 -1.5 -21t-6.5 -19q29 10 58 47.5t58 92.5q12 -8 31 -20.5t37.5 -28.5
t32 -34t13.5 -38v-502z" />
    <glyph glyph-name="bn_m_n" unicode="&#xe17b;" horiz-adv-x="564" 
d="M473 605v-670l-62 40q-2 12 -6 30t-11.5 39.5t-19 45.5t-28.5 48q-10 15 -27.5 31.5t-37.5 28t-42 15.5t-43 -5q15 -3 26 -11q10 -7 17.5 -20t5.5 -35q0 -10 -5.5 -24t-16 -26.5t-25.5 -21t-36 -9.5q-18 -1 -34.5 8t-29.5 24t-20.5 34.5t-7.5 41.5q0 24 10.5 46
t28.5 37.5t42 24.5t51 8q21 -1 37.5 -4t33 -10.5t34 -19.5t39.5 -32q10 -8 17.5 -15.5t13.5 -14.5v32q0 8 -1.5 22.5t-6.5 32t-14.5 35t-26.5 30.5q-21 17 -47.5 28t-50.5 13q-4 -13 -11.5 -25.5t-18 -22.5t-24.5 -17t-31 -8q-27 -2 -46 7t-30 24t-15.5 33.5t-2.5 36.5
q2 19 11 33t21.5 23.5t26 15.5t25.5 8q1 27 -10 48t-25 36t-28.5 23t-21.5 8h-59l-43 78h625l43 -78h-143zM388 605h-217q21 -30 32.5 -63t16.5 -57q24 -6 48 -18.5t46 -28.5t41 -33t33 -33v233z" />
    <glyph glyph-name="bn_m_p" unicode="&#xe17c;" horiz-adv-x="998" 
d="M961 605q-2 0 -9.5 2.5t-16 6t-16 6.5t-10.5 4l10 -661q-15 16 -30 32.5t-27 29.5q-14 15 -28 29v362q0 5 -4 13t-10.5 16.5t-13.5 17.5t-13 16q-27 -18 -57 -44.5t-60.5 -54.5t-59.5 -54t-53 -43q-6 0 -27 5t-44 11q-27 7 -60 15q51 38 73.5 65.5t22.5 54.5q0 8 -5 17.5
t-14.5 15t-22.5 5t-30 -11.5q-3 -6 -12.5 -23.5t-24 -35.5t-33.5 -32t-43 -14q-32 0 -53 12.5t-37.5 30t-31 37.5t-33.5 35q0 -33 -11 -53.5t-27 -32t-33 -15.5t-28 -4q-21 1 -38 10t-28.5 23t-17.5 30.5t-6 31.5q0 26 9.5 44.5t24.5 31t34 19t39 7.5q-1 5 -5.5 12t-10.5 14
t-13 12t-15 5h-68l-52 78h392q16 0 29 -7t23.5 -19t20 -26.5t18.5 -29.5q20 18 37.5 33t37.5 26.5t45.5 17.5t60.5 6q43 0 78.5 -15t64 -38.5t50.5 -50.5t38 -51v241l48 -21q3 -9 7 -18q4 -8 8.5 -15.5t12.5 -12.5q9 -6 23 -13t30 -7h41l56 -78h-102zM374 540q0 15 -7 27.5
t-18 20.5t-25 12.5t-28 4.5h-131q11 -13 11.5 -28t1.5 -20q13 -7 27.5 -21t31.5 -28t36.5 -24.5t43.5 -10.5q10 0 20 7t18.5 17.5t13.5 22t5 20.5zM721 560q-16 14 -38 25.5t-49 11.5q-35 0 -66 -19t-52 -37q24 -8 45.5 -29.5t29.5 -57.5q14 12 32 26.5t36 29.5t34.5 28
t27.5 22z" />
    <glyph glyph-name="bn_m_ph" unicode="&#xe17d;" horiz-adv-x="811" 
d="M421 605q7 -18 12 -38.5t3 -45.5q-2 -39 -17 -62.5t-27 -34.5l52 -65q-16 -14 -34 -30q-16 -14 -36.5 -32t-43.5 -38q22 -12 45.5 -29t46 -35.5t43 -38t36.5 -36.5v435l113 -2q50 -1 85.5 -19.5t58 -46.5t32.5 -61.5t8 -63.5q-2 -33 -14 -54.5t-27.5 -35t-31.5 -19
t-25 -5.5q-33 -1 -58.5 20t-26.5 52q0 19 6 33.5t15.5 24t21.5 14.5t23 5q15 0 27 -5t24 -16q2 13 0 20q-6 29 -29.5 43t-53.5 15l-71 2v-529l-57 46q-6 14 -15.5 33t-25 40t-40 42.5t-60.5 41.5q-22 12 -39.5 19t-33 10.5t-31 5t-33.5 3.5l-67 65l184 148l-27 24
q-35 -2 -57.5 8t-39 25t-31.5 30.5t-35 24.5q2 -31 -8.5 -49.5t-24.5 -28.5t-28.5 -13t-21.5 -3q-18 -1 -34.5 6t-29 19t-20 28t-7.5 35q0 48 26.5 66.5t68.5 23.5q-7 9 -19 18.5t-26 9.5h-54l-54 78h883l55 -78h-455zM359 549q0 5 -2 14.5t-9.5 18.5t-20.5 16t-34 7h-139
q3 -6 4.5 -17t2.5 -18q20 -7 35.5 -17.5t30.5 -20.5t31.5 -16.5t39.5 -6.5q8 0 18 2t19.5 6.5t16 12t7.5 19.5z" />
    <glyph glyph-name="bn_k_t" unicode="&#xe17e;" horiz-adv-x="848" 
d="M-6 605l-52 78h910l52 -78h-910zM818 367q-2 -31 -13 -53.5t-27 -36.5t-35 -20.5t-37 -6.5q-11 0 -24.5 5t-25 14t-19.5 22t-8 30q0 32 19 48t45 16q15 0 33.5 -7t29.5 -27q2 10 -1 19q-5 22 -21 39t-45 19q-26 2 -49.5 -9.5t-42.5 -39.5q-5 -28 -11.5 -51.5t-14.5 -39.5
q16 -14 33 -44.5t17 -85.5q0 -42 -17.5 -73t-45 -52t-61 -31t-64.5 -10q-53 0 -99.5 22.5t-87.5 60t-76 86.5t-64 101t-51.5 103.5t-39 95.5t-26.5 76t-13 44l69 -26q9 -20 24 -60.5t38 -90t53.5 -101.5t70 -94.5t89 -70t108.5 -27.5q12 0 33.5 4t42.5 13t36.5 23.5
t15.5 36.5q0 14 -8 28t-18 22q-28 -21 -61 -23q-17 0 -33 6t-28 18t-19.5 28t-7.5 35q0 28 13 47.5t32 29.5t41 10.5t40 -8.5q6 8 12 21t9 41q3 20 -6 30.5t-23.5 15t-31.5 3.5t-30 -3q-16 -3 -36 -9.5t-39 -16t-34.5 -22t-23.5 -27.5q21 -8 33.5 -26.5t12.5 -46.5
q0 -18 -7.5 -32.5t-19.5 -24.5t-26 -15.5t-27 -5.5q-21 0 -39 8.5t-31 22.5t-20 32t-7 38q0 47 24 85.5t60.5 66t81 42.5t85.5 15q40 0 68.5 -10t48 -25.5t31.5 -34t18 -35.5q21 20 49 34.5t54 14.5q41 0 66 -18.5t38.5 -43t17.5 -49.5t3 -39z" />
    <glyph glyph-name="bn_k_k" unicode="&#xe17f;" horiz-adv-x="712" 
d="M476 605v-18q15 -2 38 -9t49 -21q18 -9 39 -24.5t40 -37.5t31.5 -50.5t12.5 -63.5q0 -38 -20 -60t-43 -29q10 -17 18.5 -41t8.5 -55q0 -42 -26.5 -67t-64.5 -25q-25 0 -44 20t-21 44q-1 28 17.5 45.5t39.5 17.5q14 0 24.5 -3.5t18.5 -8.5q0 2 -1 4.5t-2 4.5q-7 12 -24 29
t-35 28q-12 8 -27.5 12.5t-27.5 7.5v-412l-56 54q-9 31 -19 52.5t-23 38t-30 31t-38 30.5q-16 12 -34 22t-35.5 17.5t-33 12.5t-26.5 8q-20 14 -39 36t-39 54q6 3 16.5 9.5t22.5 15t24.5 17t22.5 15.5q-5 2 -14.5 4t-20.5 5t-21.5 5.5t-17.5 4.5q-14 18 -26 34
q-11 14 -22 27.5t-17 20.5q11 10 32 25t49 32t60.5 35t66.5 34.5t68.5 29.5t65.5 20v22h-400l-59 78h789l61 -78h-308zM619 402q-1 2 3 -1t3 -1q-4 16 -14 27.5t-23 20t-28 15t-30 12.5q-11 5 -26.5 8t-26.5 5v-89q15 -4 28 -9.5t28 -14.5q6 18 21 28t33 9q19 0 32 -10z
M394 476q-16 -4 -41 -13t-54 -21.5t-59 -28t-56 -33.5q17 -10 37.5 -21.5t31.5 -18.5q10 5 25.5 13.5t34 17.5t39.5 17t42 13v75zM393 300q-26 -10 -63 -26t-82 -47q45 -19 83 -52t62 -60v185z" />
    <glyph glyph-name="bn_k_m" unicode="&#xe180;" horiz-adv-x="748" 
d="M677 605v-698l-55 61q-7 28 -18 49t-25.5 37.5t-31 29.5t-34.5 26q-22 16 -41 20t-31 3q-3 -24 -14 -41.5t-26.5 -29t-34.5 -17t-37 -5.5q-19 0 -37.5 7.5t-32 20t-22 30t-8.5 38.5q0 23 8 41t20.5 31.5t28 22.5t31.5 13q-36 39 -71.5 62.5t-66 36t-56 16.5t-42.5 5
l-68 81q18 14 57 37.5t84 47.5t89 44t74 26v5h-325l-55 78h819l52 -78h-131zM314 491q-43 -14 -77 -31t-57 -29q49 -23 80 -48.5t54 -51.5v160zM593 605h-197v-6q23 -7 53.5 -23t57.5 -41.5t46 -61.5t19 -83q0 -32 -10.5 -53t-25 -33t-28.5 -17t-22 -5q-9 0 -21 4t-23 11.5
t-19 18t-9 23.5q-1 18 4 31t14.5 21.5t21 12.5t23.5 4q11 0 19.5 -4t16.5 -9q-3 18 -16 34t-30 29.5t-35.5 23t-33.5 13.5v-230q0 -4 2 -9l4 -10q15 -3 37.5 -10t48 -19.5t52.5 -31.5t51 -45v465z" />
    </font>
</defs>
</svg>
