<?xml version="1.0" standalone="no"?>
<!DOCTYPE svg PUBLIC "-//W3C//DTD SVG 1.1//EN" "http://www.w3.org/Graphics/SVG/1.1/DTD/svg11.dtd" >
<svg xmlns="http://www.w3.org/2000/svg" xmlns:xlink="http://www.w3.org/1999/xlink" version="1.1">
<metadata>
Created by FontForge 20190801 at Tue Jun  4 04:24:59 2013
 By Jimmy Wärting
Copyright (c) 2013 by Sri Chatanya Saraswat Math. All rights reserved Sri Chatanya Saraswat Math. (c) 1989, 1992, 1994, 1996, 1998, 1999, 2000, 2001 Adobe Systems Incorporated. 
</metadata>
<defs>
<font id="Veda-Regular" horiz-adv-x="1154" >
  <font-face 
    font-family="Veda"
    font-weight="400"
    font-stretch="normal"
    units-per-em="2048"
    panose-1="2 4 5 3 5 2 3 3 2 2"
    ascent="1638"
    descent="-410"
    x-height="820"
    cap-height="1361"
    bbox="-2117 -1024.14 3010 2221"
    underline-thickness="120"
    underline-position="-193"
    unicode-range="U+0020-F56D"
  />
<missing-glyph horiz-adv-x="1024" 
 />
    <glyph glyph-name=".notdef" horiz-adv-x="1024" 
 />
    <glyph glyph-name="dv_chandrabindu" unicode="&#x901;" horiz-adv-x="0" 
d="M-551 1662l147 147l147 -147l-147 -146zM-761 1735l114 -113q14 -29 33.5 -67t49 -71.5t71.5 -56.5t101 -23q48 0 84.5 22t63 53t43.5 65.5t25 60.5l55 52l117 -118q-5 -22 -19 -53.5t-35 -65.5t-49.5 -67t-63 -60t-75 -43.5t-85.5 -16.5q-66 0 -124.5 23t-109 60.5
t-92.5 85.5t-74.5 97.5t-54 96.5t-32.5 83z" />
    <glyph glyph-name="dv_bindu" unicode="&#x902;" horiz-adv-x="0" 
d="M-561 1621l211 198l208 -198l-208 -199z" />
    <glyph glyph-name="dv_visarga" unicode="&#x903;" horiz-adv-x="752" 
d="M88 954l216 206l212 -206l-212 -207zM88 326l216 206l212 -206l-212 -207z" />
    <glyph glyph-name="dv_short_a" unicode="&#x904;" horiz-adv-x="1597" 
d="M1675 1193h-255l-1 -1193l-160 88v501q-45 -18 -80.5 -25t-70.5 -7q-11 0 -18 0.5t-13 1.5q-33 7 -80.5 26.5t-107.5 52.5q10 -32 16 -66t6 -63q0 -138 -109 -224q-102 -75 -252 -75q-316 0 -539 476l77 43q29 -63 63.5 -116.5t76.5 -98.5q137 -153 298 -155
q96 -2 173 75t77 161q0 67 -41 117q-42 48 -89 53q-5 0 -27.5 -8.5t-65.5 -25.5q-45 -18 -82.5 -27.5t-71.5 -10.5q-113 111 -114 163q76 36 174 42q52 3 83 5.5t40 4.5q14 9 31 25t34 36q19 26 31 56t16 59q5 53 -46 105q-59 56 -141 46q-36 -5 -136 -48q-51 -23 -89.5 -35
t-63.5 -13l-73 148q167 68 280 73q125 5 255 -93q157 -115 157 -232q0 -95 -102 -209q38 -32 80.5 -55.5t95.5 -41.5q92 -34 135 -28q54 7 107 29t106 58v405h-296l-93 149h716zM862 1583q-41 0 -82.5 17t-87.5 56t-96.5 103.5t-108.5 160.5l57 57l114 -112q13 -24 26.5 -44
t30 -34.5t37.5 -23t50 -8.5h149q60 0 112.5 -27.5t101 -74t94 -107t91.5 -126.5q11 -14 24.5 -33t24.5 -35l-58 -59l-116 116q-23 38 -44.5 70t-46 55t-54 36t-68.5 13h-150z" />
    <glyph glyph-name="dv_a" unicode="&#x905;" horiz-adv-x="1696" 
d="M1774 1193h-255l-1 -1193l-160 88v501q-45 -18 -80.5 -25t-70.5 -7q-11 0 -18 0.5t-13 1.5q-33 7 -80.5 26.5t-107.5 52.5q10 -32 16 -66t6 -63q0 -138 -109 -224q-102 -75 -252 -75q-316 0 -539 476l77 43q29 -63 63.5 -116.5t76.5 -98.5q137 -153 298 -155
q96 -2 173 75t77 161q0 67 -41 117q-42 48 -89 53q-5 0 -27.5 -8.5t-65.5 -25.5q-45 -18 -82.5 -27.5t-71.5 -10.5q-113 111 -114 163q76 36 174 42q52 3 83 5.5t40 4.5q14 9 31 25t34 36q19 26 31 56t16 59q5 53 -46 105q-59 56 -141 46q-36 -5 -136 -48q-51 -23 -89.5 -35
t-63.5 -13l-73 148q167 68 280 73q125 5 255 -93q157 -115 157 -232q0 -95 -102 -209q38 -32 80.5 -55.5t95.5 -41.5q92 -34 135 -28q54 7 107 29t106 58v405h-296l-93 149h716z" />
    <glyph glyph-name="dv_aa" unicode="&#x906;" horiz-adv-x="1932" 
d="M2020 1193h-260v-1193l-157 62v1131h-143v-1193l-160 88v501q-45 -18 -81 -25t-71 -7q-11 0 -18 0.5t-13 1.5q-68 14 -188 79q10 -32 16 -66t6 -63q0 -139 -108 -224q-104 -75 -253 -75q-314 0 -539 476l77 43q29 -63 63.5 -116.5t76.5 -98.5q139 -153 298 -155
q96 -2 173 75q77 75 77 161q0 67 -41 117t-90 53q-6 -1 -28 -9.5t-64 -24.5q-88 -37 -154 -38q-112 112 -113 163q75 36 174 42q51 3 82 5.5t41 4.5q14 9 31 25t33 36q20 26 31.5 56t15.5 59q5 53 -46 105q-59 56 -141 46q-37 -5 -135 -48q-52 -23 -90.5 -35t-63.5 -13
l-73 148q167 68 280 73q125 5 255 -93q158 -116 158 -232q0 -94 -103 -209q38 -32 81 -55.5t95 -41.5q93 -34 136 -28q53 7 106 29t107 58v405h-296l-94 149h1018z" />
    <glyph glyph-name="dv_i" unicode="&#x907;" horiz-adv-x="909" 
d="M973 1193h-216v-259q-8 -33 -49 -41l-319 2q-57 -11 -89 -39.5t-32 -75.5q0 -48 26 -79t75 -44q33 -2 183 37q8 1 15.5 2t17.5 1q48 0 90 -36q155 -134 155 -276q0 -77 -85 -161q-49 -46 -105 -74t-129 -42q34 -38 71.5 -79t75 -82.5t74.5 -82t70 -77.5l-88 -66
q-143 174 -221.5 264.5t-94.5 98.5l3 -2q-62 15 -97 24t-43 13q-95 45 -108 146q-4 41 31 84q38 41 81 37q39 -4 102 -83q56 -68 55 -68q103 15 183 67q50 34 76 76t26 91q0 28 -18 55h1q-23 28 -54 24q-6 -1 -28 -7t-57 -17q-32 -11 -58 -17t-40 -5q-96 6 -191 107
q-53 55 -85 124.5t-43 143.5q-5 39 10 71t49 54q55 35 142 35h270v156h-597l-81 149h973z" />
    <glyph glyph-name="dv_ii" unicode="&#x908;" horiz-adv-x="926" 
d="M978 1193h-216v-259q-6 -31 -48 -39h-321q-56 -11 -87.5 -39.5t-31.5 -75.5q0 -48 26 -79t75 -44q33 -2 183 37q8 1 15.5 2t17.5 1q48 0 90 -36q156 -134 156 -276q0 -77 -86 -161q-49 -46 -105 -74t-129 -42q34 -38 71.5 -79t75 -82.5t74.5 -82t70 -77.5l-88 -66
q-280 342 -316 363l3 -2q-62 15 -97 24t-43 13q-96 46 -108 146q-4 43 31 84q38 41 81 37q39 -5 102 -83q56 -68 55 -68q103 15 183 67q50 34 76 76t26 91q0 28 -18 55h1q-23 28 -54 24q-6 -1 -28 -7t-57 -17q-32 -11 -58 -17t-40 -5q-45 3 -94.5 32t-95.5 75
q-54 57 -86 124t-42 145v-1q-6 39 8.5 71t49.5 54q55 35 142 35h268v156h-597l-81 149h703q-29 38 -60 76.5t-61 75.5q-89 130 -89 239q0 101 62 171q64 71 157 72q111 2 191 -89q35 -41 56.5 -88t29.5 -101l-52 -34q-95 162 -152 163t-100 -28q-29 -20 -42 -57t-10 -85
q8 -79 94 -206q73 -109 80 -109h168z" />
    <glyph glyph-name="dv_u" unicode="&#x909;" horiz-adv-x="1040" 
d="M1114 1193h-369q19 -20 36.5 -46t35.5 -58q50 -92 50 -154q0 -69 -81 -133q-7 -5 -32 -19.5t-70 -40.5q-4 -4 -11 -6q21 -12 41.5 -24t40.5 -24q42 -27 80.5 -59t64.5 -61q34 -42 54.5 -88.5t20.5 -90.5q0 -125 -123 -218q-113 -85 -237 -85q-211 0 -403 210
q-120 132 -188 280l85 47q63 -106 108.5 -173t72.5 -98q119 -134 260 -134q110 0 186 76q69 69 69 151q0 142 -250 241q-25 -7 -60 -11t-80 -7q-40 -3 -65 -4t-30 0q-26 10 -99 133v35q54 18 107 18q23 0 59.5 -4t82.5 -12q59 1 130 42q102 52 102 133q0 53 -52 119
q-50 65 -79 65h-578l-82 149h1117z" />
    <glyph glyph-name="dv_uu" unicode="&#x90a;" horiz-adv-x="1469" 
d="M1548 1193h-781q8 -14 15.5 -25.5t15.5 -25.5q11 -17 21 -35.5t21 -35.5q29 -56 44.5 -96t15.5 -66q0 -56 -77 -109q-17 -9 -30 -17t-25.5 -15t-25.5 -14.5t-29 -16.5q25 -14 59.5 -34t84.5 -51q189 170 308 170q118 0 205 -107q42 -53 63 -113t21 -129q0 -85 -49 -207
q-21 -51 -45 -95.5t-48 -78.5l-150 83q167 269 167 372q0 140 -134 140q-32 0 -107 -49q-35 -23 -65.5 -46t-53.5 -46q20 -32 30.5 -72t10.5 -85q0 -125 -123 -218q-113 -85 -238 -85q-105 0 -206 53.5t-196 156.5q-57 64 -106.5 136.5t-82.5 143.5l85 47
q63 -106 108.5 -173.5t72.5 -97.5q119 -134 261 -134q110 0 185 76q70 67 70 151q0 142 -250 241q-25 -7 -60 -11t-80 -7q-41 -3 -66 -4t-31 0q-24 9 -97 133v35q54 18 106 18q24 0 60.5 -4t82.5 -12q56 1 130 42q101 51 101 133q0 54 -48 119t-79 65h-599l-77 149h1519z
" />
    <glyph glyph-name="dv_ri" unicode="&#x90b;" horiz-adv-x="1612" 
d="M1685 4q-129 -96 -267 -96t-271 99q-134 101 -134 218q0 72 105 149q45 27 92.5 57t103.5 68q1 6 6 15q5 10 5 15q-17 45 -34 78.5t-34 55.5q-51 -25 -78 -38.5t-30 -14.5l1 1q-29 -11 -58 -17.5t-58 -7.5q-8 0 -26.5 3t-43 8.5t-53.5 13t-59 15.5v-7q0 -32 0.5 -107
t1.5 -196v-316l-165 90l-2 424q-114 -82 -230 -165.5t-230 -164.5l-128 110l583 394q-29 22 -64 47.5t-64 46.5q-102 69 -176 69q-35 0 -69 -6t-65 -16q-21 -7 -44 -16.5t-51 -21.5q-9 11 -21 27t-26 34t-29 37t-28 37q145 74 279 74q79 0 158 -46q42 -27 119 -93
q50 -44 86 -66v398h-681l-90 149h1679l85 -149h-829v-462q0 -3 12.5 -7t34.5 -9q57 -12 80 -9q29 3 82 29t134 80q-2 7 -6 19t-9 28l-1 2l-1 2l1 -1q-9 23 -13 40.5t-4 31.5t5.5 28t13.5 25q8 7 17.5 11t23.5 4q12 0 29 -4t38 -12l148 -74h-1q69 -30 65 -81q-2 -28 -124 -96
q30 -65 60.5 -128t60.5 -128q18 -57 -5 -75l-291 -165h1q-38 -24 -38 -79q0 -63 52 -103q55 -41 120 -41q58 0 217 97z" />
    <glyph glyph-name="dv_li" unicode="&#x90c;" horiz-adv-x="1565" 
d="M591 26l-113 113l-21.5 21.5t-20.5 21.5q-64 64 -118 121t-93 112.5t-60.5 113t-21.5 122.5q0 76 26 134.5t69.5 99t100 61.5t118.5 21q43 -1 79.5 -10.5t70 -27.5t66.5 -45t70 -64q45 58 95 91.5t105 47.5v237h-940l-118 146h1662l71 -146h-506v-248q58 -18 110.5 -56
t93 -89.5t64.5 -115t24 -133.5q0 -38 -12 -71t-32.5 -63t-48 -58.5t-58.5 -59.5q-8 -9 -16.5 -18t-17.5 -18q-38 -42 -53.5 -72t-15.5 -66q0 -29 19.5 -50.5t49.5 -21.5q20 0 35 4t28 11.5t24.5 18t25.5 22.5q5 5 8 7.5t6 5.5l51 51l119 -120q-60 -85 -117 -128t-117 -43
q-29 0 -62.5 12t-67 33.5t-65 50.5t-55.5 63t-38.5 71.5t-14.5 74.5q0 25 5 45t14 37t21 32t26 30l9 9q11 11 21 22.5t20 22.5q30 32 55 60t43.5 55t29 54t10.5 57q0 45 -14 78.5t-37.5 56.5t-54 34.5t-64.5 11.5q-38 0 -72 -14.5t-64.5 -41.5t-57.5 -64.5t-51 -82.5
l-50 -53l-119 120q10 24 20 44t18 34q-34 25 -75.5 41.5t-92.5 16.5q-44 0 -82 -13t-66 -38.5t-43.5 -64t-15.5 -89.5q0 -49 20 -98t54 -99t79.5 -102t96.5 -107q20 -22 44 -48.5t45 -49.5z" />
    <glyph glyph-name="dv_e_chandra" unicode="&#x90d;" horiz-adv-x="1001" 
d="M1150 -144q9 -29 -22 -90h1q-30 -59 -63 -88q-16 4 -130 120q5 12 12 28.5t13 27.5v-1q7 16 10 28.5t3 20.5q-4 11 -33.5 35t-78.5 57q-116 72 -273.5 169t-354.5 219q-38 25 -59 57t-21 70v684h-161l-89 149h1085l92 -149h-201v-684q0 -78 -83 -78q-148 0 -205 17
q-26 31 -52 64.5t-52 71.5h183q19 8 30 20t11 27v562h-391v-688q0 -61 72 -108q118 -72 279.5 -172t363.5 -225q85 -55 114 -144zM336 2014l113 -114q14 -31 34.5 -69t51 -71t72 -55.5t98.5 -22.5q48 0 85 21.5t64 52.5t44.5 66t25.5 61l52 52l118 -117q-6 -23 -19 -54.5
t-33.5 -65.5t-48.5 -67.5t-62.5 -60t-76 -43.5t-88.5 -17q-65 0 -124 23t-110 60.5t-94 85.5t-75 97.5t-53.5 97t-29.5 83.5z" />
    <glyph glyph-name="dv_e_short" unicode="&#x90e;" horiz-adv-x="1001" 
d="M1150 -144q9 -29 -22 -90h1q-30 -59 -63 -88q-16 4 -130 120q5 12 12 28.5t13 27.5v-1q7 16 10 28.5t3 20.5q-4 11 -33.5 35t-78.5 57q-116 72 -273.5 169t-354.5 219q-38 25 -59 57t-21 70v684h-161l-89 149h1085l92 -149h-201v-684q0 -78 -83 -78q-148 0 -205 17
q-26 31 -52 64.5t-52 71.5h183q19 8 30 20t11 27v562h-391v-688q0 -61 72 -108q118 -72 279.5 -172t363.5 -225q85 -55 114 -144zM358 1583q-41 0 -82.5 17t-87.5 56t-96.5 103.5t-108.5 160.5l57 57l114 -112q13 -24 26.5 -44t30 -34.5t37.5 -23t50 -8.5h149
q60 0 112.5 -27.5t101 -74t94 -107t91.5 -126.5q11 -14 24.5 -33t24.5 -35l-58 -59l-116 116q-23 38 -44.5 70t-46 55t-54 36t-68.5 13h-150z" />
    <glyph glyph-name="dv_e" unicode="&#x90f;" horiz-adv-x="1001" 
d="M1150 -144q9 -29 -22 -90h1q-30 -59 -63 -88q-16 4 -130 120q5 12 12 28.5t13 27.5v-1q7 16 10 28.5t3 20.5q-4 11 -33.5 35t-78.5 57q-116 72 -273.5 169t-354.5 219q-38 25 -59 57t-21 70v684h-161l-89 149h1085l92 -149h-201v-684q0 -78 -83 -78q-148 0 -205 17
q-26 31 -52 64.5t-52 71.5h183q19 8 30 20t11 27v562h-391v-688q0 -61 72 -108q118 -72 279.5 -172t363.5 -225q85 -55 114 -144z" />
    <glyph glyph-name="dv_ai" unicode="&#x910;" horiz-adv-x="1001" 
d="M1150 -144q9 -29 -22 -90h1q-30 -59 -63 -88q-16 4 -130 120q5 12 12 28.5t13 27.5v-1q7 16 10 28.5t3 20.5q-4 11 -33.5 35t-78.5 57q-116 72 -273.5 169t-354.5 219q-38 25 -59 57t-21 70v684h-161l-89 149h1085l92 -149h-201v-684q0 -78 -83 -78q-148 0 -205 17
q-26 31 -52 64.5t-52 71.5h183q19 8 30 20t11 27v562h-391v-688q0 -61 72 -108q118 -72 279.5 -172t363.5 -225q85 -55 114 -144zM778 1294q-6 7 -43.5 52t-97.5 120q-17 21 -35.5 44t-38.5 49q-69 86 -125 142t-94 73q-22 11 -54 11q-27 0 -60.5 -7t-74.5 -21l-122 209
l42 30q20 2 38 3.5t37 1.5q27 0 61 -7t70 -21q19 -8 47 -31t63 -58.5t76 -82.5t85 -102q29 -38 64.5 -85t71.5 -96.5t70 -97t61 -87.5z" />
    <glyph glyph-name="dv_o_chandra" unicode="&#x911;" horiz-adv-x="1925" 
d="M1981 1193h-260l1 -1193l-158 62v1131h-143l1 -1193l-161 88v501q-45 -18 -80.5 -25t-70.5 -7q-11 0 -18.5 0.5t-12.5 1.5q-33 7 -80.5 26.5t-107.5 52.5q10 -32 15.5 -66t5.5 -63q0 -139 -108 -224q-102 -75 -252 -75q-316 0 -539 476l77 43q29 -63 63.5 -116.5
t75.5 -98.5q139 -153 298 -155q98 -2 173 75q78 76 78 161q0 67 -41 117q-42 50 -90 53q-6 -1 -28 -9.5t-64 -24.5q-90 -37 -155 -38q-112 112 -113 163q76 36 174 42q51 3 82 5.5t41 4.5q14 9 31 25t34 36q19 26 31 56t16 59q3 54 -46 105q-61 56 -141 46q-35 -4 -136 -48
q-51 -23 -89.5 -35t-63.5 -13l-74 148q168 68 281 73q125 5 255 -93q157 -116 157 -232q0 -95 -102 -209q38 -32 80.5 -55.5t94.5 -41.5q94 -34 136 -28q54 7 107 29t106 58v405h-296l-94 149h1018zM1142 2033l113 -112q13 -31 34 -69t51.5 -71.5t72 -56t97.5 -22.5
q48 0 85 21.5t64 53t44.5 65.5t25.5 60l53 53l117 -115q-6 -23 -19 -55t-33.5 -66t-48 -67.5t-62 -60t-76 -43.5t-88.5 -17q-65 0 -124 23t-110.5 60.5t-94 85t-75 97t-54 96.5t-29.5 83z" />
    <glyph glyph-name="dv_o_short" unicode="&#x912;" horiz-adv-x="1597" 
d="M1004 1563q-42 0 -83.5 16.5t-87 55.5t-96 103.5t-109.5 160.5l58 58l116 -113q12 -24 25.5 -44t30.5 -35t38 -23t48 -8h148q61 1 111.5 -23.5t96 -67t88.5 -100t89 -122.5q13 -17 27.5 -38t28.5 -41h356l92 -149h-260l1 -1193l-158 62v1131h-143l1 -1193l-161 88v501
q-45 -18 -80.5 -25t-70.5 -7q-11 0 -18.5 0.5t-12.5 1.5q-33 7 -80.5 26.5t-107.5 52.5q10 -32 15.5 -66t5.5 -63q0 -139 -108 -224q-102 -75 -252 -75q-316 0 -539 476l77 43q29 -63 63.5 -116.5t75.5 -98.5q139 -153 298 -155q98 -2 173 75q78 76 78 161q0 67 -41 117
q-42 50 -90 53q-6 -1 -28 -9.5t-64 -24.5q-90 -37 -155 -38q-112 112 -113 163q76 36 174 42q51 3 82 5.5t41 4.5q14 9 31 25t34 36q19 26 31 56t16 59q3 54 -46 105q-61 56 -141 46q-35 -4 -136 -48q-51 -23 -89.5 -35t-63.5 -13l-74 148q168 68 281 73q125 5 255 -93
q157 -116 157 -232q0 -95 -102 -209q38 -32 80.5 -55.5t94.5 -41.5q94 -34 136 -28q54 7 107 29t106 58v405h-296l-94 149h544q-13 13 -24.5 24t-22.5 22q-24 39 -46 71t-46.5 55t-53.5 36t-68 13h-150z" />
    <glyph glyph-name="dv_o" unicode="&#x913;" horiz-adv-x="2035" 
d="M2107 1193h-258l1 -1193l-154 95v1098h-172l1 -1193l-162 88v501q-45 -18 -80.5 -25t-70.5 -7q-11 0 -18.5 0.5t-12.5 1.5q-33 7 -80.5 26.5t-107.5 52.5q10 -32 16 -66t6 -63q0 -138 -109 -224q-102 -75 -252 -75q-316 0 -539 476l77 43q29 -63 63.5 -116.5t76.5 -98.5
q137 -153 298 -155q96 -2 173 75t77 161q0 67 -41 117q-42 48 -89 53q-5 0 -27.5 -8.5t-65.5 -25.5q-45 -18 -82.5 -27.5t-71.5 -10.5q-113 111 -114 163q76 36 174 42q52 3 83 5.5t40 4.5q14 9 31 25t34 36q19 26 31 56t16 59q5 53 -46 105q-59 56 -141 46q-36 -5 -136 -48
q-51 -23 -89.5 -35t-63.5 -13l-73 148q167 68 280 73q125 5 255 -93q157 -115 157 -232q0 -95 -102 -209q38 -32 80.5 -55.5t95.5 -41.5q92 -34 135 -28q54 7 107 29t106 58v405h-296l-93 149h752q-31 46 -81.5 114t-119.5 156v-1q-149 172 -233 182q-26 4 -85 -10t-68 -12
q-8 4 -40.5 51.5t-88.5 141.5q21 45 110 45q142 0 263 -117q13 -13 68.5 -78.5t155.5 -185.5q38 -49 91 -119t124 -167h212z" />
    <glyph glyph-name="dv_ou" unicode="&#x914;" horiz-adv-x="2033" 
d="M2109 1193h-269l-1 -1193l-160 90v1103h-166v-1193l-161 88v501q-45 -18 -80.5 -25t-70.5 -7q-11 0 -18 0.5t-13 1.5q-33 7 -80.5 26.5t-107.5 52.5q10 -32 16 -66t6 -63q0 -138 -109 -224q-102 -75 -252 -75q-316 0 -539 476l77 43q29 -63 63.5 -116.5t76.5 -98.5
q137 -153 298 -155q96 -2 173 75t77 161q0 67 -41 117q-42 48 -89 53q-5 0 -27.5 -8.5t-65.5 -25.5q-45 -18 -82.5 -27.5t-71.5 -10.5q-113 111 -114 163q76 36 174 42q52 3 83 5.5t40 4.5q14 9 31 25t34 36q19 26 31 56t16 59q5 53 -46 105q-59 56 -141 46q-36 -5 -136 -48
q-51 -23 -89.5 -35t-63.5 -13l-73 148q167 68 280 73q125 5 255 -93q157 -115 157 -232q0 -95 -102 -209q38 -32 80.5 -55.5t95.5 -41.5q92 -34 135 -28q54 7 107 29t106 58v405h-296l-93 149h704q-137 171 -232.5 256.5t-149.5 84.5q-17 0 -49 -10t-78 -32
q-94 167 -106 233q17 52 73 43q136 -25 348 -243q75 -78 142 -160t127 -170h13q-16 56 -30 106.5t-30 98.5q-38 113 -78 201t-77 136q-51 65 -116 65q-22 0 -71 -13l-26 109q-17 77 -17 111q0 63 38 63q56 0 116 -54t122 -156q48 -84 87.5 -175.5t62.5 -176.5
q16 -58 37 -135.5t51 -181.5h209z" />
    <glyph glyph-name="dv_k" unicode="&#x915;" horiz-adv-x="1575" 
d="M1657 1193h-701v-413q15 9 32.5 20t33.5 22q70 41 120 47q8 1 16.5 1.5t18.5 0.5q132 0 218 -137q40 -65 59 -130t16 -134q-4 -88 -38 -175.5t-97 -177.5l-136 130q25 42 53 87.5t55 87.5l-1 -1q50 97 50 170q0 138 -145 134q-30 0 -124 -57q-47 -27 -80 -49t-51 -39
v-580l-166 92v366q-23 -13 -52.5 -30.5t-50.5 -31.5q-95 -47 -183 -50q-129 -2 -245 101h1q-129 112 -129 260q0 114 78 191q87 84 246 84q66 0 124.5 -20.5t106.5 -56.5q20 -17 47.5 -45.5t56.5 -66.5v400h-787l-90 149h1661zM800 653q-2 2 -3.5 5t-3.5 5q5 5 9 8zM605 529
q32 19 79.5 53t108.5 81q-139 175 -325 175q-83 0 -141 -45q-72 -54 -72 -156q0 -79 59 -124q48 -39 112 -39q40 0 85.5 14.5t93.5 40.5z" />
    <glyph glyph-name="dv_kh" unicode="&#x916;" horiz-adv-x="1560" 
d="M1630 1193h-211v-1201l-164 112v409q-161 -114 -250 -107q-130 10 -232 108v-1q-111 102 -112 232q-1 66 24.5 121t71.5 93q40 30 89.5 47.5t103.5 17.5t101.5 -15.5t89.5 -44.5q25 -17 56 -50t60 -71v350h-739v-412q0 -42 -9.5 -78t-26.5 -67q-8 -14 -29 -37t-54 -58
q65 -64 213 -181t386 -291q-6 -10 -16.5 -26t-18.5 -30q-3 -5 -9.5 -17t-10.5 -18q-69 54 -184 143.5t-267 207.5q-57 46 -115 96t-107 99q-75 75 -113 130.5t-39 90.5q0 42 18 63.5t53 16.5q28 -3 60 -16.5t69 -35.5q4 -3 10 -3q33 0 33 143v280h-361q-7 14 -16 32.5
t-18.5 38.5t-19 40.5t-16.5 37.5h1627zM1275 695q-3 2 -4 7q2 4 4 6v-13zM1131 598q109 64 140 104q-50 83 -125.5 130.5t-160.5 47.5q-90 0 -152 -58q-61 -57 -59 -135q2 -66 43.5 -105.5t119.5 -52.5q33 -4 82 13.5t112 55.5z" />
    <glyph glyph-name="dv_g" unicode="&#x917;" horiz-adv-x="1229" 
d="M1296 1193h-247l-1 -1193l-157 56v1137h-377v-574q0 -69 -25 -118v1q-30 -62 -85 -62q-53 0 -147 117q-43 56 -65 92t-22 54q-1 82 81 82h8t9 -1q2 0 3.5 -0.5t3.5 -0.5h22q54 0 54 48v362q-85 0 -171.5 -1t-171.5 -1l-87 151h1294z" />
    <glyph glyph-name="dv_gh" unicode="&#x918;" horiz-adv-x="1204" 
d="M1308 1193h-236l-1 -1193l-156 88v420q-31 -21 -61 -43t-59 -44q-117 -68 -228 -68q-74 0 -141 23.5t-125 68.5q-60 48 -92.5 104.5t-32.5 119.5q0 43 12.5 78t36.5 64q16 17 40 35.5t59 37.5q-82 48 -131 89t-66 79q-16 37 -16 78q0 15 1.5 29.5t6.5 33.5h-109l-86 149
h1283zM913 1193h-558q-27 -13 -48 -50q-11 -20 -14.5 -39t-0.5 -37q8 -45 36.5 -81.5t81.5 -65.5q181 0 254 -58q44 -84 49 -119q0 -30 -24 -33q-29 8 -82 19t-119 19q-36 1 -68 -10.5t-60 -33.5q-26 -22 -39 -47.5t-11 -54.5q4 -62 54 -109q24 -20 57 -31t68 -9
q43 2 100 27t127 74v-1q51 38 98.5 74t98.5 74v492z" />
    <glyph glyph-name="dv_nga" unicode="&#x919;" horiz-adv-x="1352" 
d="M1312 759l-147 -148l-157 154l155 143zM1417 1193h-466v-206q5 -55 -15.5 -84t-65.5 -29h-368q-46 0 -85 -40q-38 -40 -38 -91q0 -128 111 -128q8 0 30 3t60 10q46 8 92.5 14t88.5 10q58 3 118 -27.5t105 -83.5q83 -106 83 -212q0 -67 -31.5 -121.5t-92.5 -97.5
q-105 -72 -221 -70q-228 5 -459 209q-29 26 -92.5 94t-163.5 181l73 58q187 -221 260 -275q150 -119 348 -120q93 0 164 53q38 30 58.5 69.5t25.5 87.5q2 50 -12.5 76.5t-56.5 26.5q-11 -2 -22.5 -2.5t-23.5 -2.5q-14 -2 -31.5 -4t-39.5 -4q-122 -12 -204 -12
q-18 0 -34.5 0.5t-30.5 1.5q-37 4 -77 35.5t-85 94.5q-85 122 -84 230q1 44 18 78t47 58q27 21 62 33t76 12h353v175h-796l-82 149h1421z" />
    <glyph glyph-name="dv_c" unicode="&#x91a;" horiz-adv-x="1342" 
d="M1431 1193h-260l1 -1193l-158 88v354q-44 -30 -89 -55.5t-89 -44t-85.5 -28.5t-77.5 -10q-139 0 -251 94q-114 97 -114 217q0 92 55 173q-59 -1 -121.5 -2t-119.5 -2l-82 150h833l82 -130l-228 -2q-270 -2 -270 -257q0 -138 165 -138q85 0 229 110q112 80 155 134
q0 138 1 270t1 272h-1006l-92 149h1430z" />
    <glyph glyph-name="dv_ch" unicode="&#x91b;" horiz-adv-x="1370" 
d="M1442 1193h-373v-162q98 -51 164 -145q74 -111 69 -244q-4 -91 -46 -182.5t-120 -186.5q-82 -98 -225 -169q-72 -35 -135 -51.5t-119 -16.5q-164 0 -300 94q-138 96 -138 217q0 43 23.5 87.5t62.5 82.5q-237 122 -216 268q29 203 246 215q13 1 25.5 1.5t24.5 0.5
q48 0 83.5 -6.5t63.5 -19.5q21 -27 41 -63.5t41 -82.5q-72 12 -122 18t-73 7q-91 -7 -140 -45.5t-48 -108.5q0 -51 71 -87h-1q57 -24 105 -24q21 4 44.5 8t46 7t43 4.5t35.5 1.5q48 0 68 -14l73 -120l-7 -31l-168 4q-96 -22 -142 -68.5t-38 -114.5q15 -114 189 -114
q72 0 144 20.5t141 55.5q60 35 116.5 82t102.5 102q-48 33 -94 64.5t-93 63.5q-72 60 -108.5 121.5t-37.5 124.5q-2 178 193 261v145h-907l-85 149h1435zM1166 723q-2 81 -28 138v-1q-37 75 -107 75q-59 0 -104 -59q-44 -60 -40 -118q5 -80 57 -148t157 -128q67 116 65 241z
" />
    <glyph glyph-name="dv_j" unicode="&#x91c;" horiz-adv-x="1339" 
d="M1409 1193h-218l1 -1193l-160 78v722h-353q37 -41 62.5 -71.5t40.5 -50.5q76 -111 75 -201q-1 -54 -22.5 -94t-63.5 -69q-69 -45 -169 -45q-273 0 -537 567l83 45q30 -73 64 -136t74 -118q139 -192 288 -197q47 -2 84 31q43 39 43 98q0 108 -118 215l1 -1
q-21 15 -47.5 34.5t-53.5 39.5t-53 39.5t-48 35.5q12 0 26 9t23 27h601v235h-1018l-79 149h1392z" />
    <glyph glyph-name="dv_jh" unicode="&#x91d;" horiz-adv-x="1346" 
d="M1410 1193h-227v-1193l-157 84v492q-29 -7 -65 -11t-74 -6q-73 -3 -136 16q11 -20 21 -42t18 -42q13 -29 20 -54.5t7 -45.5q0 -97 -88 -180q-47 -43 -106.5 -71.5t-136.5 -41.5q46 -54 121 -132.5t180 -184.5l-76 -77q-130 162 -212 254.5t-120 117.5q-231 18 -240 188
q-1 19 4 37t18 35h-1q27 35 75 35q45 0 88 -53q17 -22 31.5 -42t31.5 -43q67 3 122.5 22t102.5 54q83 66 86 145q2 32 -17 58.5t-61 29.5q-35 -9 -77 -20t-77 -20q-15 -4 -38 -4q-35 0 -71 13q-90 33 -167 152q-76 119 -80 215q-2 62 53 105q62 47 164 47l244 2q5 2 8.5 3
t8.5 5v153h-582l-90 149h1415zM1026 1193h-293v-207q0 -102 -69 -102h-300q-49 0 -87 -38q-37 -39 -33 -78q7 -68 62 -100q20 -12 42 -15.5t46 -0.5h-1q36 8 71 17t71 17q8 1 16.5 1h17.5q35 0 69 -7t66 -23q49 0 91 5.5t77 16.5q50 14 88 28.5t66 29.5v456z" />
    <glyph glyph-name="dv_nya" unicode="&#x91e;" horiz-adv-x="1319" 
d="M1406 1193h-203l-3 -1193l-159 82l-2 487q-48 -3 -93 -7t-93 -8q-60 -234 -335 -234q-254 0 -501 354l71 55q102 -129 174 -184q102 -81 212 -81q114 0 186 80q70 74 74 168q2 54 -36 101q-34 46 -84 46q-14 0 -62.5 -36t-131.5 -110l-134 134q105 115 258 115
q151 0 243 -109q31 -38 48.5 -73.5t22.5 -71.5q40 5 83 11t98 17v457h-1030l-83 149h1395z" />
    <glyph glyph-name="dv_tt" unicode="&#x91f;" horiz-adv-x="1087" 
d="M1154 1193h-303v-437l-52 -31l-376 -93q-32 -8 -58.5 -27t-44.5 -48q-38 -57 -29 -120q10 -78 66 -135q39 -39 92 -58t122 -20q24 -1 76.5 12.5t133.5 43.5h-1q68 25 122 48t95 42l70 -146q-216 -136 -406 -132q-185 4 -327 115q-188 150 -188 324q0 186 142 238l378 93
q6 4 9 7t9 8v316h-683l-87 149h1162z" />
    <glyph glyph-name="dv_tth" unicode="&#x920;" horiz-adv-x="1167" 
d="M1243 1193h-361q11 -20 21.5 -40.5t20.5 -41.5q14 -26 20.5 -57t5.5 -63q-5 -108 -109 -206q48 -19 87 -43.5t74 -56.5q114 -106 114 -242q0 -150 -131 -266q-131 -115 -292 -115q-216 0 -386 151q-173 149 -173 342q0 132 96 204q35 26 88.5 46.5t125.5 32.5
q113 18 223 33q114 23 119 163q4 100 -59 159h-713l-89 149h1238zM960 487q0 202 -209 242q-71 -11 -140.5 -23t-141.5 -23h1q-204 -54 -204 -224q0 -108 112 -186q103 -74 217 -74q136 0 246 78q119 83 119 210z" />
    <glyph glyph-name="dv_dd" unicode="&#x921;" 
d="M1245 1193h-288v-294l-21 -21h-392q-145 0 -157 -115q-5 -46 18 -89h-1q13 -21 27.5 -36t34.5 -24q60 11 135 22t172 25q55 7 112.5 -18t111.5 -76q55 -52 83.5 -109.5t28.5 -118.5q0 -115 -94 -200q-105 -93 -285 -93q-106 0 -221.5 52t-230.5 147q-36 31 -72.5 67
t-70.5 74t-64 76.5t-53 74.5l74 49q8 -11 20 -25.5t20 -25.5q18 -23 36.5 -46.5t36.5 -48.5h-1q44 -51 91 -93t95 -74q66 -36 142.5 -58t152.5 -22q109 0 197 59q90 58 90 155t-91 97q-4 0 -15.5 -0.5t-33 -2.5t-54 -7t-78.5 -15q-48 -11 -82 -16.5t-57 -6.5
q-120 -8 -228 139q-96 133 -96 256q0 77 70 127l-1 -1q61 45 136 45h368v171h-809l-97 149h1250z" />
    <glyph glyph-name="dv_ddh" unicode="&#x922;" horiz-adv-x="1165" 
d="M1244 1193h-276v-347h-339q-357 0 -359 -293q0 -99 68 -195q82 -115 240 -156q-44 118 -44 221q0 111 75 186t207 69q110 -6 185 -106q77 -98 77 -245q0 -116 -99 -201q-98 -82 -236 -82q-237 0 -444 234q-80 90 -126 198q-22 51 -33.5 97t-11.5 84q4 338 449 338h229
v198h-800l-92 149h1253zM986 439q-6 18 -20 33.5t-35 29.5q-22 15 -43 21.5t-41 6.5q-71 0 -124 -47q-26 -23 -42.5 -52.5t-23.5 -63.5q-2 -14 -3 -31t-1 -35q0 -23 1 -49t4 -56q11 -1 20 -1.5t19 -0.5q78 0 140 31q154 72 154 173q0 18 -6 42z" />
    <glyph glyph-name="dv_nn" unicode="&#x923;" horiz-adv-x="1370" 
d="M1426 1193h-201v-1193l-159 58v1135h-263v-588q0 -72 -70 -136q-81 -71 -194 -67h1q-121 5 -241 114q-122 110 -122 221v456h-179l-80 149h1427zM637 1193h-292v-532q0 -72 24 -100q29 -35 112 -41q66 -6 113 48q20 26 31.5 51.5t11.5 49.5v524z" />
    <glyph glyph-name="dv_t" unicode="&#x924;" horiz-adv-x="1062" 
d="M1139 1193h-205l2 -1193l-162 68v730h-318q-72 0 -121 -54q-61 -65 -61 -191q0 -102 99 -243v1q42 -58 87 -120t87 -119l-84 -59q-51 60 -98.5 125t-92.5 136q-148 240 -148 379q0 162 119 243q95 64 236 64h297v233h-778l-85 149h1145z" />
    <glyph glyph-name="dv_th" unicode="&#x925;" horiz-adv-x="1251" 
d="M1332 1193h-202l-3 -1193l-165 80v386q-41 -30 -68.5 -49t-44.5 -29q-56 -29 -110 -43.5t-108 -14.5q-240 0 -507 295v25q34 13 77 33.5t91 46.5q38 21 70 40t52 34q-88 45 -138 71.5t-57 30.5q-109 78 -109 206q0 54 21.5 100t60.5 80q82 72 185 70q53 -1 106.5 -21.5
t103.5 -57.5q64 -50 98 -113.5t35 -141.5q2 -156 -110 -257q-102 -94 -261 -189q63 -132 201 -139q50 -3 118.5 26t146.5 85q72 52 109.5 87.5t37.5 52.5v499h-140l-108 149h538zM576 1070q0 32 -7 59.5t-20 51.5q-15 29 -39.5 45.5t-54.5 21.5q-32 5 -63 -7t-57 -40
q-54 -59 -54 -136q0 -107 209 -198q38 38 62 91.5t24 111.5z" />
    <glyph glyph-name="dv_d" unicode="&#x926;" horiz-adv-x="1083" 
d="M954 19q4 43 -160 162q-24 -6 -50 -8.5t-54 -2.5q-238 0 -404 176q-142 149 -160 360q-1 8 -1 15.5v15.5q0 121 86 188q88 67 244 67h249v201h-701l-74 149h1154l76 -149h-294v-351h-330q-176 0 -234 -96q-32 -49 -32 -149q0 -218 253 -290v1q36 -10 74 -10
q27 0 50.5 2.5t47.5 9.5q-28 52 -42.5 87t-14.5 52q0 13 15 37v-1q16 31 59 31q26 0 52 -13h-1l99 -44q42 -21 63.5 -46t24.5 -51q2 -26 -20 -61t-67 -75q29 -17 57.5 -35.5t51.5 -36.5q128 -95 146 -164l-1 1q13 -41 -23 -96t-68 -69l-178 108q24 11 39.5 18.5t25.5 13.5
q41 25 42 53z" />
    <glyph glyph-name="dv_dh" unicode="&#x927;" horiz-adv-x="1313" 
d="M1398 1193h-243l-1 -1193l-166 86v376q-29 -20 -56.5 -39.5t-56.5 -38.5q-113 -68 -216 -77q-8 -1 -16.5 -1.5t-17.5 -0.5q-130 0 -257 102q-136 111 -136 220q0 69 35 119t109 85q-265 157 -265 314q0 124 87 188q62 42 144 42q58 0 103 -21t77 -61q51 -66 51 -148
q0 -145 -194 -209q83 -44 302 -44h42q32 -48 51 -82.5t26 -57.5l-6 -8q-2 -3 -4.5 -6.5t-3.5 -6.5q-25 0 -61 1q-31 1 -76 3t-105 5q-64 -14 -109 -62q-50 -52 -50 -113q0 -53 56 -104q28 -24 60 -35.5t67 -7.5q169 16 420 249v526h-277l-94 149h696zM482 1128q2 22 -4 41.5
t-17 36.5q-27 39 -81 39q-48 0 -77 -29q-36 -33 -34 -96q1 -46 15.5 -79t45.5 -53q146 56 152 140z" />
    <glyph glyph-name="dv_n" unicode="&#x928;" horiz-adv-x="1076" 
d="M1157 1193h-227v-1193l-164 82v563h-328q-41 -6 -41 -44v-40q0 -31 -1 -51.5t-3 -29.5q-13 -52 -66 -52q-37 0 -120 113q-40 54 -61.5 94t-25.5 64q-2 17 5.5 33.5t26.5 29.5q34 25 82 25h532v406h-759l-87 149h1147z" />
    <glyph glyph-name="dv_n_nukta" unicode="&#x929;" horiz-adv-x="1098" 
d="M1157 1193h-227v-1193l-164 82v563h-328q-41 -6 -41 -44v-40q0 -31 -1 -51.5t-3 -29.5q-13 -52 -66 -52q-37 0 -120 113q-40 54 -61.5 94t-25.5 64q-2 17 5.5 33.5t26.5 29.5q34 25 82 25h532v406h-759l-87 149h1147zM689 -270l148 146l145 -146l-145 -145z" />
    <glyph glyph-name="dv_p" unicode="&#x92a;" horiz-adv-x="1076" 
d="M1150 1193h-232v-1193l-174 77v432q-54 -26 -109 -43.5t-99 -19.5q-94 -4 -230 103q-144 118 -144 231v413h-134l-92 149h1136zM744 1193h-421v-466q0 -141 136 -141q106 0 285 106v501z" />
    <glyph glyph-name="dv_ph" unicode="&#x92b;" horiz-adv-x="1456" 
d="M1515 1193h-648v-423q29 14 58 29t58 29q34 17 64 27t57 10q110 6 189 -85q47 -56 78 -143q32 -89 31 -166q-1 -97 -125 -362q-137 96 -137 112q0 6 13 33l39 81q5 9 9 17.5t9 19.5q35 71 52.5 125.5t19.5 92.5q3 57 -29 90.5t-88 33.5q-18 0 -37 -3.5t-39 -9.5
q-15 -5 -29.5 -10t-23.5 -9q-44 -26 -84 -50.5t-85 -50.5l1 -581l-166 89l4 408q-28 -10 -49 -16t-32 -10q-63 -19 -113 -19q-63 -1 -125.5 28t-124.5 89q-123 121 -123 236v388h-149l-75 149h1522zM702 1193h-397v-402q0 -218 154 -218q73 0 243 109v511z" />
    <glyph glyph-name="dv_b" unicode="&#x92c;" horiz-adv-x="1303" 
d="M1396 1193h-269v-1193l-156 88v394q-29 -32 -55 -56t-50 -38q-119 -72 -300 -72q-122 0 -253 111q-134 116 -134 246q0 78 34.5 140.5t98.5 106.5q57 37 126.5 56t153.5 19q236 0 379 -230v428h-966l-87 149h1379zM881 685q0 92 -56 142q-46 46 -126 51q-51 3 -93 -3.5
t-77 -23.5q58 -89 111.5 -173.5t110.5 -174.5q66 33 98 79t32 103zM447 817q-129 -70 -129 -224q0 -97 88 -138q55 -25 112 -25h16.5t17.5 2q29 4 59 11.5t62 21.5z" />
    <glyph glyph-name="dv_bh" unicode="&#x92d;" horiz-adv-x="1308" 
d="M1376 1193h-201l-1 -1193l-160 72v392h-399v-9.5t1 -9.5q0 -4 0.5 -7.5t0.5 -8.5v-50q0 -97 -62 -97q-51 0 -162 117q-56 60 -84 99.5t-28 60.5q0 54 79 65h104v164q-67 15 -126 42t-108 66q-55 47 -90.5 108t-36.5 125q-1 115 76 180h-1q62 53 152 53q61 0 113 -34
t96 -100q70 -108 70 -205v-404h405v574h-296l-85 149h658zM476 1079q0 150 -98 148q-48 0 -78 -43q-32 -44 -32 -103q1 -66 53.5 -117t154.5 -86v201z" />
    <glyph glyph-name="dv_m" unicode="&#x92e;" horiz-adv-x="1198" 
d="M1274 1193l-200 -2v-1191l-171 78v404q-118 0 -230.5 1t-230.5 1q0 -48 -0.5 -78.5t-1.5 -38.5q-9 -67 -61 -69q-40 0 -148 104q-111 108 -111 155q0 65 65 77l-6 -3q6 2 31.5 4t70.5 3v553h-273l-75 151h1266zM903 630v563h-455v-563h455z" />
    <glyph glyph-name="dv_y" unicode="&#x92f;" horiz-adv-x="1192" 
d="M1266 1193h-242l3 -1193l-162 82v415q-33 -17 -67.5 -33t-67.5 -32q-46 -21 -88.5 -30.5t-82.5 -8.5q-75 2 -145 28t-129 72q-63 52 -111.5 126t-80.5 170q-10 29 92 66q62 21 103 38.5t64 30.5q84 50 70 112q-8 44 -23.5 82.5t-43.5 74.5h-359l-90 149h1278zM861 1193
h-379q54 -114 77.5 -188t15.5 -106q-8 -30 -42.5 -62t-91.5 -61q-63 -32 -99 -53.5t-47 -32.5q-3 -15 -3 -31q0 -148 179 -143q143 2 390 178v499z" />
    <glyph glyph-name="dv_r" unicode="&#x930;" horiz-adv-x="931" 
d="M1035 1192l-421 1v-450q0 -35 -17 -72.5t-49 -76.5q-27 -32 -58 -56t-63 -38q55 -55 108 -108.5t105 -106t104.5 -106t107.5 -108.5l-75 -71q-31 33 -60 63t-59 59.5t-61.5 61t-66.5 69.5q-16 16 -38.5 40t-39.5 41q-19 20 -38 41.5t-38 42.5q-20 21 -38.5 42t-37.5 42
q-113 132 -113 195q0 102 81 93q7 -2 26.5 -10.5t50.5 -22.5q63 -27 85 -27q13 0 17 8v455l-623 -1l-124 150h1233z" />
    <glyph glyph-name="dv_r_nukta" unicode="&#x931;" horiz-adv-x="817" 
d="M898 1193h-319v-450q0 -35 -17 -72.5t-49 -76.5q-27 -32 -58 -56t-63 -38q55 -55 105 -107.5t99 -104t99 -104t105 -107.5l-73 -77q-31 33 -58 63t-54 59.5t-56 61t-64 69.5q-16 16 -38.5 40t-39.5 41q-19 20 -38 41.5t-38 42.5q-20 21 -38.5 42t-37.5 42
q-113 132 -113 195q0 102 81 93q7 -2 26.5 -10.5t50.5 -22.5q63 -27 85 -27q13 0 17 8v455h-406l-83 149h885zM247 -270l148 146l145 -146l-145 -145z" />
    <glyph glyph-name="dv_l" unicode="&#x932;" horiz-adv-x="1419" 
d="M1508 1193h-416v-237q101 -19 177 -89q95 -89 95 -222q0 -144 -150 -303q-45 -48 -93.5 -89t-101.5 -76l-100 124q56 32 103.5 69t89.5 77q138 135 135 251q-8 158 -143 159q-113 2 -236 -133q-42 -45 -77 -96.5t-67 -111.5l-118 96l63 105q-38 60 -88.5 93.5
t-112.5 35.5q-84 3 -147 -78q-26 -34 -39.5 -72t-13.5 -80q0 -7 0.5 -16.5t1.5 -17.5q19 -128 137 -263t337 -267l-68 -69q-85 55 -159.5 114t-141.5 125q-245 236 -250 433q-1 48 10 93.5t37 90.5q76 136 237 137q112 2 198 -69q23 -20 53.5 -53.5t61.5 -75.5
q14 22 34.5 43t47.5 44q34 28 67.5 47.5t63.5 28.5v252h-934l-80 149h1497z" />
    <glyph glyph-name="dv_ll" unicode="&#x933;" horiz-adv-x="1638" 
d="M4 1193l-69 149h1683l78 -149h-507v-285q61 -20 114 -62t92 -95t61.5 -112t22.5 -114q0 -62 -21 -124t-61 -112.5t-98.5 -82t-134.5 -31.5q-43 0 -85.5 14.5t-83.5 40t-81 59.5t-78 74q-20 -32 -46 -65.5t-60.5 -60.5t-77 -44.5t-94.5 -17.5q-47 0 -96 17.5t-95 47.5
t-86.5 70t-70.5 86t-47.5 95t-17.5 96q0 72 26.5 134t72.5 107.5t107.5 71.5t131.5 26q49 0 93 -14.5t83.5 -39t76 -57t70.5 -69.5q42 64 95.5 109t115.5 62v276h-1013zM710 532q13 29 23.5 55.5t22.5 58.5q-16 17 -36.5 36.5t-46 36t-57.5 27t-70 10.5q-60 0 -104 -21.5
t-72.5 -55t-42 -74.5t-13.5 -80q0 -41 17.5 -74.5t44.5 -57t59 -36.5t61 -13q44 0 77 14.5t58 39t43.5 59t35.5 75.5zM883 450q20 -20 42.5 -39t49 -34t58 -24t69.5 -9q57 0 96.5 23t64 59t35.5 79t11 82q0 24 -10 53.5t-30 55t-50 43t-71 17.5q-59 0 -98.5 -21.5t-67.5 -57
t-47 -80.5t-36 -91q-6 -16 -10 -26l-10 -25z" />
    <glyph glyph-name="dv_ll_nukta" unicode="&#x934;" horiz-adv-x="1638" 
d="M672 -129l147 145l147 -145l-147 -146zM4 1193l-69 149h1683l78 -149h-507v-285q61 -20 114 -62t92 -95t61.5 -112t22.5 -114q0 -62 -21 -124t-61 -112.5t-98.5 -82t-134.5 -31.5q-43 0 -85.5 14.5t-83.5 40t-81 59.5t-78 74q-20 -32 -46 -65.5t-60.5 -60.5t-77 -44.5
t-94.5 -17.5q-47 0 -96 17.5t-95 47.5t-86.5 70t-70.5 86t-47.5 95t-17.5 96q0 72 26.5 134t72.5 107.5t107.5 71.5t131.5 26q49 0 93 -14.5t83.5 -39t76 -57t70.5 -69.5q42 64 95.5 109t115.5 62v276h-1013zM710 532q13 29 23.5 55.5t22.5 58.5q-16 17 -36.5 36.5t-46 36
t-57.5 27t-70 10.5q-60 0 -104 -21.5t-72.5 -55t-42 -74.5t-13.5 -80q0 -41 17.5 -74.5t44.5 -57t59 -36.5t61 -13q44 0 77 14.5t58 39t43.5 59t35.5 75.5zM883 450q20 -20 42.5 -39t49 -34t58 -24t69.5 -9q57 0 96.5 23t64 59t35.5 79t11 82q0 24 -10 53.5t-30 55t-50 43
t-71 17.5q-59 0 -98.5 -21.5t-67.5 -57t-47 -80.5t-36 -91q-6 -16 -10 -26l-10 -25z" />
    <glyph glyph-name="dv_v" unicode="&#x935;" horiz-adv-x="1198" 
d="M1273 1193h-243v-1193l-157 85v405q-32 -21 -65.5 -42t-65.5 -42q-62 -36 -114.5 -52.5t-97.5 -15.5q-160 5 -280 116q-122 113 -122 249q0 135 95 215q94 82 240 82q162 0 263 -68q25 -18 59 -51.5t88 -95.5v408h-871l-94 149h1284zM874 681l-9 9l9 9v-18zM465 453
q153 0 400 237q-189 165 -352 165q-110 0 -180 -58q-79 -61 -73 -169q2 -39 16 -70t43 -56h-1q58 -49 147 -49z" />
    <glyph glyph-name="dv_sh" unicode="&#x936;" horiz-adv-x="1425" 
d="M1509 1193h-279v-1193l-160 88v1105h-286q117 -167 113 -298q-3 -91 -34.5 -171.5t-86.5 -145.5q-37 -41 -100 -90.5t-149 -103.5q65 -82 138 -172.5t156 -196.5l-107 -71q-56 78 -106 150.5t-99 147.5q-20 29 -40.5 56t-34.5 41q-70 17 -106.5 26.5t-42.5 11.5
q-101 48 -106 167q-2 90 82 108q47 8 101 -57v1q20 -23 36.5 -43.5t35.5 -43.5q20 5 47.5 18.5t59.5 36.5v-1q41 31 77 69t71 87q-51 17 -102.5 35t-102.5 35q-83 36 -136.5 88.5t-76.5 117.5q-12 31 -12 62q0 62 44 136h-305l-86 149h1504zM744 951q0 142 -73 215
q-49 52 -96 52q-50 0 -96 -43q-54 -48 -54 -112q0 -33 15 -69q36 -80 132 -134v1q7 -4 22.5 -10.5t35 -14.5t41.5 -16.5t43 -16.5q5 14 9 28t10 29q11 44 11 91z" />
    <glyph glyph-name="dv_ss" unicode="&#x937;" horiz-adv-x="1089" 
d="M1158 1193h-225v-1193l-163 84v411q-20 -15 -44.5 -33.5t-45.5 -34.5q-66 -41 -145 -41q-148 0 -259 114q-109 109 -109 231v462h-162l-85 149h1171zM774 749v444h-447zM325 1072v-385q0 -48 6.5 -83.5t17.5 -55.5q28 -45 99 -53q70 -6 175 72q66 48 114 102z" />
    <glyph glyph-name="dv_s" unicode="&#x938;" horiz-adv-x="1339" 
d="M1421 1193h-248l1 -1193l-156 82v487q-51 -25 -98.5 -36t-92.5 -9q-35 1 -78.5 14t-88.5 33q-42 20 -77.5 42.5t-61.5 46.5q-37 -45 -82 -82t-107 -71q28 -35 128.5 -144t275.5 -294l-80 -69q-165 186 -276 310.5t-162 190.5q-116 153 -111 225q2 41 20.5 59.5t49.5 16.5
q8 -2 31.5 -11t58.5 -24q62 -30 87 -26q25 3 23 62q-2 101 -5 195t-5 195h-370l-85 149h1427zM1009 1193h-487q5 -112 10.5 -219.5t10.5 -219.5q51 -33 103 -52.5t101 -23.5q98 -6 262 88v427z" />
    <glyph glyph-name="dv_h" unicode="&#x939;" horiz-adv-x="1083" 
d="M1169 1193h-247v-270q0 -19 -34 -55h-443q-67 0 -110 -26q-48 -26 -48 -71q0 -38 21.5 -67.5t61.5 -49.5q11 5 21.5 9.5t21.5 9.5q8 4 17 8l18 8q76 27 175 27q142 0 255 -116q103 -108 103 -215q0 -76 -70 -137q-68 -62 -143 -65l-91 123q165 53 165 153q0 30 -11 54.5
t-29.5 42t-44.5 27t-56 9.5q-116 0 -207 -64q-116 -77 -116 -219q0 -66 42 -123.5t127 -105.5q54 -31 142 -63.5t213 -67.5l-24 -86q-54 17 -103.5 32.5t-80.5 27.5q-75 28 -134 56t-100 57q-243 166 -243 343q0 96 43 167q6 8 10 13.5l8 11t8.5 11.5t9.5 14
q-17 21 -35.5 42t-37.5 42q-63 88 -63 177q0 58 47 106q46 49 114 49h433v181h-749l-87 149h1162z" />
    <glyph glyph-name="dv_oe_matra" unicode="&#x93a;" horiz-adv-x="0" 
d="M-263 1152l-118 114v449l55 54l117 -117v-446z" />
    <glyph glyph-name="dv_ooe_matra" unicode="&#x93b;" horiz-adv-x="559" 
d="M288 22l-117 117v1053h-178l-75 150h640l71 -150h-286v-1115zM288 1187l-117 114v449l55 54l117 -117v-445z" />
    <glyph glyph-name="dv_nukta" unicode="&#x93c;" horiz-adv-x="0" 
d="M-441 -270l147 146l146 -146l-146 -145z" />
    <glyph glyph-name="dv_avagraha" unicode="&#x93d;" horiz-adv-x="864" 
d="M938 1193h-478q-25 0 -44.5 -7t-33 -19t-20.5 -27t-7 -31q0 -5 1 -9.5t3 -9.5q5 -11 41 -48.5t95 -92.5q69 -64 127 -123t92 -101q55 -69 85.5 -128.5t30.5 -107.5q0 -149 -95 -251h1q-101 -108 -264 -108q-97 0 -208 83q-110 81 -206 230l66 59q155 -229 294 -229
q92 0 171 70q76 67 76 160q0 51 -30.5 113.5t-86.5 130.5q-21 25 -80.5 85t-144.5 142q-61 59 -95 105.5t-37 73.5q-7 88 47 136t171 53h443z" />
    <glyph glyph-name="dv_aakaar" unicode="&#x93e;" horiz-adv-x="535" 
d="M632 1193h-259l4 -1193l-163 62v1131h-198l-93 149h618z" />
    <glyph glyph-name="dv_ikaar" unicode="&#x93f;" horiz-adv-x="593" 
d="M1052 1342q-37 -1 -60 -2t-37 -10q-14 61 -33.5 124.5t-43.5 122.5t-52.5 111.5t-61.5 92.5t-70 64t-77 27q-51 -2 -96.5 -19t-80.5 -50q-80 -80 -80 -205q0 -11 0.5 -32.5t1.5 -48t3 -55t4.5 -53t6 -43t8.5 -24.5h209l96 -149h-262l3 -1193l-161 74v1119h-272l-85 149
h381q-8 12 -14.5 25.5t-15.5 23.5q-20 22 -32.5 65t-19 90t-9 90t-2.5 64q0 28 5 51t15.5 44.5t26.5 41.5t38 42q27 27 57.5 51.5t66 43t77 28.5t91.5 8q64 -3 134.5 -34.5t148.5 -90.5q26 -19 48.5 -53t41 -76.5t34 -91t27.5 -97t21 -94.5t14 -83z" />
    <glyph glyph-name="dv_iikaar" unicode="&#x940;" horiz-adv-x="520" 
d="M586 1193h-284l-5 -1193l-151 59v1134l-149 -1l-71 150h250v22q0 36 -5 88t-15 105t-25 100.5t-34 73.5q-46 64 -98 96t-112 27q-51 -5 -85.5 -34t-56 -73.5t-32.5 -99t-15 -109.5t-3.5 -106.5t2.5 -89.5h-101q-4 6 -7.5 33.5t-7 67t-6 86.5t-3.5 91t0 80.5t5 55.5
q13 47 31.5 91.5t57.5 83.5q77 78 187 78q61 0 119 -26t111 -77q51 -51 88 -114t56 -134q4 -20 8.5 -58.5t8.5 -80t7 -79t5 -55.5q2 -13 3.5 -24t2.5 -18v-1h249z" />
    <glyph glyph-name="dv_ukaar" unicode="&#x941;" horiz-adv-x="0" 
d="M333 -285q-1 -88 -70 -160q-92 -94 -263 -94q-82 0 -184.5 37t-214.5 104q-89 54 -160 109t-120 109l46 57q51 -49 111 -94t126 -86q97 -56 187.5 -84.5t165.5 -23.5q100 6 183 64q82 55 82 130q0 29 -30 67q-32 46 -78 44q-29 -2 -73 -34h1q-32 -23 -54.5 -37.5
t-39.5 -21.5q-119 100 -117 132q1 29 63 54q28 11 57.5 16.5t54.5 4.5q146 -6 238 -86q93 -82 89 -207z" />
    <glyph glyph-name="dv_uukaar" unicode="&#x942;" horiz-adv-x="0" 
d="M-58 -502q-85 96 -164 174t-146 137q-85 74 -149.5 112.5t-106.5 38.5q-35 0 -66 -12.5t-57 -34.5q-27 -26 -42.5 -63t-15.5 -84q0 -34 33 -64q29 -30 74 -27q72 7 200 93l86 -128q-68 -39 -120 -56.5t-91 -15.5q-113 6 -202 81q-47 41 -72.5 91.5t-25.5 107.5
q0 139 109 208q71 43 156 43q87 0 206 -96q2 -3 133 -127q48 -45 130.5 -127t190.5 -191z" />
    <glyph glyph-name="dv_rikaar" unicode="&#x943;" horiz-adv-x="0" 
d="M-14 -394q-58 -14 -188 -26q-179 -5 -288 99v-1q-96 87 -95 197q2 101 112 163q96 52 216 48l156 -120l-76 -12q-80 -14 -137 -29t-88 -32q-80 -39 -71 -115q5 -35 50 -58q53 -25 102 -19h-1q56 7 113.5 21.5t118.5 37.5q6 -9 29 -44.5t55 -89.5z" />
    <glyph glyph-name="dv_rrikaar" unicode="&#x944;" horiz-adv-x="0" 
d="M-59 -758q-98 -23 -183 -23q-38 0 -73.5 4.5t-70.5 15.5q-40 11 -74.5 30.5t-66.5 47.5q-82 73 -82 168q0 84 48 132q5 3 14 10q8 5 20.5 15t32.5 24q-114 119 -113 217q1 94 117 155q46 23 99 36t115 16l156 -120q-378 -49 -379 -145q0 -37 25.5 -69t74.5 -58
q29 10 64 15t82 8q25 2 46 3t36 1q8 0 18.5 -1t20.5 -2q34 -40 53.5 -67.5t26.5 -41.5q13 -44 -59 -39q-49 1 -105 4t-101 8q-193 -48 -188 -146q5 -107 149 -107q36 0 93 15.5t134 45.5q11 -20 28 -49t34 -57q4 -7 7.5 -13t8.5 -14z" />
    <glyph glyph-name="dv_chandra" unicode="&#x945;" horiz-adv-x="0" 
d="M-836 1913l113 -112q13 -32 33.5 -70t51.5 -71t72.5 -55t97.5 -22q48 0 85.5 21.5t64.5 52.5t44 65t25 60l53 53l117 -116q-6 -23 -19 -54.5t-33.5 -65.5t-48 -67.5t-62 -60t-76 -43.5t-88.5 -17q-65 0 -124 23t-110.5 60.5t-94 85.5t-75 97.5t-54 96t-29.5 82.5z" />
    <glyph glyph-name="dv_e_matra" unicode="&#x946;" horiz-adv-x="0" 
d="M-776 1483q-41 0 -83 16.5t-87.5 55.5t-96.5 103.5t-109 160.5l57 58l114 -112q13 -24 26.5 -44.5t30 -35t37.5 -23t50 -8.5h149q60 1 110 -23.5t95.5 -67t89 -99t88.5 -120.5q14 -20 32 -45t33 -47l-58 -58l-115 114q-24 39 -45.5 71t-46 55t-54 36t-68.5 13h-149z" />
    <glyph glyph-name="dv_ekaar" unicode="&#x947;" horiz-adv-x="0" 
d="M-232 1294q-5 7 -42.5 52t-97.5 120q-17 21 -35.5 44t-38.5 49q-69 86 -125 142t-94 73q-24 11 -54 11q-54 0 -136 -29l-124 210l46 30q19 2 37.5 3.5t36.5 1.5q58 0 130 -28q76 -27 272 -274q69 -88 137 -181.5t130 -184.5z" />
    <glyph glyph-name="dv_aikaar" unicode="&#x948;" horiz-adv-x="0" 
d="M-178 1327q-27 98 -57.5 185.5t-64.5 165.5q-93 217 -150 240q-14 7 -51 10t-96 3q-32 213 -27 260q17 16 38 16q41 0 107 -54q27 -23 48.5 -44.5t32.5 -40.5q43 -66 89 -166.5t91 -231.5q13 -38 38.5 -127.5t58.5 -215.5h-57zM-247 1296q-29 35 -82 95t-122 138h1
q-138 144 -209 144q-34 0 -124 -35q-51 66 -109 232q7 34 50 34q31 0 100 -26q48 -21 146 -101q45 -37 82.5 -72t66.5 -67q63 -68 252 -312z" />
    <glyph glyph-name="dv_aakaar_chandra" unicode="&#x949;" horiz-adv-x="535" 
d="M632 1193h-260l-1 -1193l-157 62v1131h-198l-93 149h617zM-108 2014l114 -114q13 -31 34 -69t51.5 -71t72 -55.5t97.5 -22.5q48 0 85 21.5t64.5 52.5t45 66t25.5 61l52 52l117 -117q-6 -23 -19 -54.5t-33.5 -65.5t-48 -67.5t-62 -60t-76 -43.5t-88.5 -17q-66 0 -125 23
t-110 60.5t-93.5 85.5t-74.5 97.5t-53.5 97t-30.5 83.5z" />
    <glyph glyph-name="dv_okaar_short" unicode="&#x94a;" horiz-adv-x="535" 
d="M630 1193h-260l1 -1193l-160 62v1131h-198l-93 149h618zM-188 1583q-41 0 -82.5 17t-87.5 56t-96.5 103.5t-108.5 160.5l57 57l114 -112q13 -24 26.5 -44t30 -34.5t37.5 -23t50 -8.5h149q60 0 112.5 -27.5t101 -74t94 -107t91.5 -126.5q11 -14 24.5 -33t24.5 -35l-58 -59
l-116 116q-23 38 -44.5 70t-46 55t-54 36t-68.5 13h-150z" />
    <glyph glyph-name="dv_okaar" unicode="&#x94b;" horiz-adv-x="578" 
d="M654 1193h-258l4 -1193l-157 95v1098h-245l-71 149h346q-31 46 -81.5 114t-119.5 156v-1q-149 172 -233 182q-27 4 -85 -10q-59 -14 -69 -12q-17 7 -128 193q21 45 110 45q142 0 263 -117q13 -13 68 -78.5t155 -185.5q38 -49 91.5 -119t124.5 -167h212z" />
    <glyph glyph-name="dv_oukaar" unicode="&#x94c;" horiz-adv-x="584" 
d="M666 1193h-268l2 -1193l-163 90v1103h-234l-90 149h312q-136 171 -231.5 256.5t-150.5 84.5q-17 0 -49 -10t-78 -32q-46 83 -72.5 141t-33.5 92q18 52 73 43q68 -13 154 -73t193 -170q150 -154 271 -330h12q-15 56 -29.5 106.5t-29.5 98.5q-38 113 -78.5 201t-77.5 136
q-51 65 -116 65q-22 0 -70 -13q-3 12 -7.5 30.5t-7.5 30.5q-6 22 -12 48q-8 38 -12 65.5t-4 45.5q0 63 37 63q56 0 116 -54t122 -156q49 -84 88.5 -175.5t62.5 -176.5q14 -57 35.5 -135.5t52.5 -181.5h210z" />
    <glyph glyph-name="dv_halant" unicode="&#x94d;" horiz-adv-x="0" 
d="M767 -495q-7 -6 -16.5 -17t-23.5 -28q-134 134 -209 207t-81 78h1q-36 31 -84.5 51.5t-105.5 31.5q-17 3 -33 3t-34 -3h1q-14 -4 -33.5 -8t-34.5 -7l-109 153q-12 8 -12 19q0 20 34 21q7 1 12.5 1.5t10.5 0.5q18 5 42 5q48 0 119 -18q133 -33 276 -176q20 -20 90 -93.5
t190 -202.5v-18z" />
    <glyph glyph-name="dv_aakaar_pristhamatra" unicode="&#x94e;" horiz-adv-x="517" 
d="M614 1193h-259l1 -1193l-160 62v1131h-198l-93 149h618z" />
    <glyph glyph-name="dv_awkaar" unicode="&#x94f;" horiz-adv-x="559" 
d="M283 0l-119 138v1053h-177l-62 151h629l68 -151h-286v-1115zM311 1520q0 17 -14 35t-37 35.5t-51.5 34.5t-57.5 33q-47 25 -96.5 55t-90 67t-66.5 83t-26 105q0 48 37.5 98t129.5 100l121 -120l-53 -52q-32 -18 -47.5 -41.5t-15.5 -46.5q0 -19 13 -36.5t35 -34.5
t51 -33.5t61 -34.5q47 -26 96 -55t89 -66t65.5 -83t25.5 -105q0 -36 -19.5 -68.5t-49.5 -61.5t-65 -54t-66 -44l-114 112q-23 39 -45 71t-46.5 55t-54.5 36t-67 13h-150q-41 0 -83.5 16.5t-88.5 55.5t-96.5 103.5t-106.5 160.5l57 58l114 -111q13 -24 26.5 -44.5t30 -35.5
t37 -23.5t48.5 -8.5h151q55 0 102 -20.5t89 -57t81.5 -85.5t81.5 -106q32 19 48.5 42.5t16.5 58.5z" />
    <glyph glyph-name="dv_aum" unicode="&#x950;" horiz-adv-x="2210" 
d="M1465 1507l-109 -171l-166 118l112 163zM1763 1337q-173 -302 -408 -302q-62 0 -134.5 38t-149.5 108q-68 63 -113.5 124.5t-62.5 115.5v-1q-11 27 22 30q11 2 21 4.5t17 6.5q207 -293 368 -293q162 0 324 269q45 -29 123 -66zM2139 523q0 -62 -22.5 -115.5t-65.5 -101.5
q-81 -85 -186 -90q-92 -2 -178 67q-22 19 -52.5 50.5t-72.5 79.5q-97 -141 -178 -207.5t-155 -66.5q-68 0 -167 84l-64 58q-13 12 -20 19t-21 19q-14 -66 -48.5 -122t-83.5 -96q-48 -36 -108 -57.5t-124 -21.5q-107 0 -204.5 54t-183.5 155q-45 57 -87 127.5t-77 153.5
l68 48q210 -407 430 -407q53 0 99.5 20t89.5 59v-1q78 78 78 164q0 62 -36 112t-105 88q-52 -19 -109.5 -39t-109.5 -38q-40 19 -83 64q-49 55 -40 87q14 40 118 53q18 2 36.5 4t37.5 4q18 2 35 3.5t36 3.5q130 96 130 196q0 70 -55 111q-26 22 -57.5 31t-63.5 7
q-23 -3 -99 -31.5t-206 -83.5l-79 145q26 14 63 27.5t87 27.5q102 29 139 29q163 0 293 -116q118 -110 124 -237q2 -60 -49 -116q-9 -10 -17.5 -19.5t-16.5 -18.5q-7 -7 -13.5 -14t-14.5 -15l61.5 -61.5t131.5 -132.5q37 -38 72 -69.5t64 -55t51 -36.5t33 -13q92 0 159 67
q20 21 51 63.5t73 108.5q66 104 104 162.5t50 75.5q101 120 220 121q60 1 113.5 -22.5t99.5 -73.5q105 -105 105 -271zM2005 592q-8 175 -135 177q-83 0 -165 -112l1 1q-8 -13 -15.5 -26.5t-15.5 -26.5q-20 -32 -36 -61t-36 -61q112 -128 206 -128q66 0 132 84q68 84 64 153
z" />
    <glyph glyph-name="dv_udatta" unicode="&#x951;" horiz-adv-x="0" 
d="M-262 1477l-119 117v447l55 55l117 -116v-445z" />
    <glyph glyph-name="dv_anudatta" unicode="&#x952;" horiz-adv-x="0" 
d="M-775 -590l-115 117l55 55h580l114 -118l-55 -54h-579z" />
    <glyph glyph-name="dv_grave" unicode="&#x953;" horiz-adv-x="0" 
d="M-333 1552l-308 307l90 92l309 -310z" />
    <glyph glyph-name="dv_acute" unicode="&#x954;" horiz-adv-x="0" 
d="M-404 1552l-89 89l308 310l89 -92z" />
    <glyph glyph-name="dv_ekaar_chandra" unicode="&#x955;" horiz-adv-x="0" 
d="M-706 1375l-117 117l55 54h665l116 -117l-55 -54h-664zM-782 1987l114 -112q21 -21 44 -41t50 -35.5t58.5 -25t68.5 -9.5q52 0 91 17t67 42.5t46 55.5t27 55l53 53l118 -117q-4 -21 -16.5 -50t-33.5 -60t-50.5 -61t-66 -54t-80.5 -38.5t-95 -14.5q-72 0 -132.5 27
t-114.5 72.5t-104.5 107t-101.5 130.5z" />
    <glyph glyph-name="dv_kash_ue_mark" unicode="&#x956;" horiz-adv-x="0" 
d="M-873 -89q39 -32 85.5 -59.5t95 -47t96.5 -30.5t92 -11q57 0 103.5 9t89 27.5t83.5 46t86 65.5l118 -118l-51 -51q-27 -27 -61.5 -54t-79 -48.5t-100.5 -35t-125 -13.5q-71 0 -140 22.5t-132.5 59.5t-119.5 84t-101 95z" />
    <glyph glyph-name="dv_kash_uue_mark" unicode="&#x957;" horiz-adv-x="0" 
d="M-873 -89q40 -32 86 -59.5t94.5 -47t96.5 -30.5t92 -11q57 0 104 9t89 27.5t83 46t86 65.5l118 -118l-51 -51q-27 -27 -61.5 -54t-79 -48.5t-100.5 -35t-125 -13.5q-71 0 -139.5 22.5t-132.5 59.5t-120 84t-101 95zM-839 -412q41 -33 87 -60.5t94.5 -47.5t97 -31.5
t93.5 -11.5q57 0 103.5 9.5t88.5 28t82 47t85 66.5l120 -122l-51 -50q-27 -27 -61.5 -54t-79.5 -48.5t-101 -34.5t-125 -13q-69 1 -138 23t-132.5 58.5t-119.5 84t-100 98.5z" />
    <glyph glyph-name="dv_q" unicode="&#x958;" horiz-adv-x="1565" 
d="M1666 1193h-701v-413q15 9 32.5 20t33.5 22q70 41 120 47q8 1 16.5 1.5t18.5 0.5q132 0 218 -137q40 -65 59 -130t16 -134q-4 -88 -38 -175.5t-97 -177.5l-136 130q25 42 53 87.5t55 87.5l-1 -1q50 97 50 170q0 138 -145 134q-30 0 -124 -57q-47 -27 -80 -49t-51 -39
v-580l-166 92v366q-23 -13 -52.5 -30.5t-50.5 -31.5q-95 -47 -183 -50q-129 -2 -245 101h1q-129 112 -129 260q0 114 78 191q87 84 246 84q66 0 124.5 -20.5t106.5 -56.5q20 -17 47.5 -45.5t56.5 -66.5v400h-787l-90 149h1661zM809 653q-2 2 -3.5 5t-3.5 5q5 5 9 8zM614 529
q32 19 79.5 53t108.5 81q-139 175 -325 175q-83 0 -141 -45q-72 -54 -72 -156q0 -79 59 -124q48 -39 112 -39q40 0 85.5 14.5t93.5 40.5zM732 -270l148 146l145 -146l-145 -145z" />
    <glyph glyph-name="dv_khh" unicode="&#x959;" horiz-adv-x="1577" 
d="M1630 1193h-211v-1201l-164 112v409q-161 -114 -250 -107q-130 10 -232 108v-1q-111 102 -112 232q-1 66 24.5 121t71.5 93q40 30 89.5 47.5t103.5 17.5t101.5 -15.5t89.5 -44.5q25 -17 56 -50t60 -71v350h-739v-412q0 -42 -9.5 -78t-26.5 -67q-8 -14 -29 -37t-54 -58
q65 -64 213 -181t386 -291q-6 -10 -16.5 -26t-18.5 -30q-3 -5 -9.5 -17t-10.5 -18q-69 54 -184 143.5t-267 207.5q-57 46 -115 96t-107 99q-75 75 -113 130.5t-39 90.5q0 42 18 63.5t53 16.5q28 -3 60 -16.5t69 -35.5q4 -3 10 -3q33 0 33 143v280h-361q-7 14 -16 32.5
t-18.5 38.5t-19 40.5t-16.5 37.5h1627zM1275 695q-3 2 -4 7q2 4 4 6v-13zM1131 598q109 64 140 104q-50 83 -125.5 130.5t-160.5 47.5q-90 0 -152 -58q-61 -57 -59 -135q2 -66 43.5 -105.5t119.5 -52.5q33 -4 82 13.5t112 55.5zM712 -270l147 146l146 -146l-146 -145z" />
    <glyph glyph-name="dv_ghh" unicode="&#x95a;" horiz-adv-x="1229" 
d="M1296 1193h-247l-1 -1193l-157 56v1137h-377v-574q0 -69 -25 -118v1q-30 -62 -85 -62q-53 0 -147 117q-43 56 -65 92t-22 54q-1 82 81 82h8t9 -1q2 0 3.5 -0.5t3.5 -0.5h22q54 0 54 48v362q-85 0 -171.5 -1t-171.5 -1l-87 151h1294zM490 -270l147 146l146 -146l-146 -145
z" />
    <glyph glyph-name="dv_z" unicode="&#x95b;" horiz-adv-x="1339" 
d="M1409 1193h-218l-5 -1193l-154 78v722h-353q37 -41 62.5 -71.5t40.5 -50.5q76 -111 75 -201q-1 -54 -22.5 -94t-63.5 -69q-69 -45 -169 -45q-273 0 -537 567l83 45q30 -73 64 -136t74 -118q139 -192 288 -197q47 -2 84 31q43 39 43 98q0 108 -118 215l1 -1
q-21 15 -47.5 34.5t-53.5 39.5t-53 39.5t-48 35.5q12 0 26 9t23 27h601v235h-1018l-79 149h1392zM550 -270l149 146l145 -146l-145 -145z" />
    <glyph glyph-name="dv_rr" unicode="&#x95c;" horiz-adv-x="1190" 
d="M1260 1193h-288v-294l-21 -21h-392q-145 0 -157 -115q-5 -46 18 -89h-1q13 -21 27.5 -36t34.5 -24q60 11 135 22t172 25q55 7 112.5 -18t111.5 -76q55 -52 83.5 -109.5t28.5 -118.5q0 -115 -94 -200q-105 -93 -285 -93q-106 0 -221.5 52t-230.5 147q-36 31 -72.5 67
t-70.5 74t-64 76.5t-53 74.5l74 49q8 -11 20 -25.5t20 -25.5q18 -23 36.5 -46.5t36.5 -48.5h-1q44 -51 91 -93t95 -74q66 -36 142.5 -58t152.5 -22q109 0 197 59q90 58 90 155t-91 97q-4 0 -15.5 -0.5t-33 -2.5t-54 -7t-78.5 -15q-48 -11 -82 -16.5t-57 -6.5
q-120 -8 -228 139q-96 133 -96 256q0 77 70 127l-1 -1q61 45 136 45h368v171h-809l-97 149h1250zM509 -270l149 146l145 -146l-145 -145z" />
    <glyph glyph-name="dv_rrh" unicode="&#x95d;" horiz-adv-x="1165" 
d="M1244 1193h-276v-347h-339q-357 0 -359 -293q0 -99 68 -195q82 -115 240 -156q-44 118 -44 221q0 111 75 186t207 69q110 -6 185 -106q77 -98 77 -245q0 -116 -99 -201q-98 -82 -236 -82q-237 0 -444 234q-80 90 -126 198q-22 51 -33.5 97t-11.5 84q4 338 449 338h229
v198h-800l-92 149h1253zM986 439q-6 18 -20 33.5t-35 29.5q-22 15 -43 21.5t-41 6.5q-71 0 -124 -47q-26 -23 -42.5 -52.5t-23.5 -63.5q-2 -14 -3 -31t-1 -35q0 -23 1 -49t4 -56q11 -1 20 -1.5t19 -0.5q78 0 140 31q154 72 154 173q0 18 -6 42zM489 -270l148 146l145 -146
l-145 -145z" />
    <glyph glyph-name="dv_f" unicode="&#x95e;" horiz-adv-x="1456" 
d="M1515 1193h-648v-423q29 14 58 29t58 29q34 17 64 27t57 10q110 6 189 -85q47 -56 78 -143q32 -89 31 -166q-1 -97 -125 -362q-137 96 -137 112q0 6 13 33l39 81q5 9 9 17.5t9 19.5q35 71 52.5 125.5t19.5 92.5q3 57 -29 90.5t-88 33.5q-18 0 -37 -3.5t-39 -9.5
q-15 -5 -29.5 -10t-23.5 -9q-44 -26 -84 -50.5t-85 -50.5l-2 -581l-163 89l4 408q-28 -10 -49 -16t-32 -10q-63 -19 -113 -19q-63 -1 -125.5 28t-124.5 89q-123 121 -123 236v388h-149l-75 149h1522zM702 1193h-397v-402q0 -218 154 -218q73 0 243 109v511zM631 -270
l147 146l147 -146l-147 -145z" />
    <glyph glyph-name="dv_yy" unicode="&#x95f;" horiz-adv-x="1192" 
d="M1266 1193h-242v-1193l-159 82v415q-33 -17 -67.5 -33t-67.5 -32q-46 -21 -88.5 -30.5t-82.5 -8.5q-75 2 -145 28t-129 72q-63 52 -111.5 126t-80.5 170q-10 29 92 66q62 21 103 38.5t64 30.5q84 50 70 112q-8 44 -23.5 82.5t-43.5 74.5h-359l-90 149h1278zM861 1193
h-379q54 -114 77.5 -188t15.5 -106q-8 -30 -42.5 -62t-91.5 -61q-63 -32 -99 -53.5t-47 -32.5q-3 -15 -3 -31q0 -148 179 -143q143 2 390 178v499zM449 -270l148 146l146 -146l-146 -145z" />
    <glyph glyph-name="dv_rri" unicode="&#x960;" horiz-adv-x="1612" 
d="M1679 -455q-27 -5 -74 -11t-113 -14q-179 -5 -289 100v-1q-96 85 -94 195q1 92 96 155q-29 16 -59 38q-133 100 -133 218q0 72 105 149q45 27 92.5 57t103.5 68q2 7 7 15q2 5 3 9t1 6q-17 45 -34 78.5t-34 55.5q-51 -25 -78 -38.5t-30 -14.5l2 1q-29 -11 -58.5 -17.5
t-58.5 -7.5q-8 0 -26.5 3t-43 8.5t-53.5 13t-58 15.5v-7v-107t1 -196v-316l-165 90l-2 424q-114 -82 -230 -165.5t-230 -164.5l-128 110l583 394q-29 22 -64 47.5t-64 46.5h1q-104 69 -177 69q-35 0 -69 -6t-65 -16q-21 -7 -44 -16.5t-51 -21.5q-9 11 -21 27t-26 34t-29 37
t-28 37q145 74 279 74q79 0 158 -46q42 -27 119 -93q50 -44 86 -66v398h-681l-90 149h1679l85 -149h-829v-462q0 -3 12.5 -7t34.5 -9q57 -12 80 -9q29 3 82 29t134 80q-2 7 -6 19t-9 28l-1 2l-1 2l1 -1q-9 23 -13 40.5t-4 31.5t5.5 28t13.5 25q8 7 17.5 11t23.5 4
q12 0 29 -4t38 -12l148 -74h-1q69 -30 65 -81q-2 -28 -124 -96q30 -65 60.5 -128t60.5 -128q18 -57 -5 -75l-291 -165h1q-38 -24 -38 -79q0 -62 52 -103q26 -19 56.5 -29.5t63.5 -11.5q5 1 11.5 1.5t11.5 0.5q32 8 81 32t113 63l132 -112q-34 -24 -67.5 -42.5t-64.5 -30.5
l5 -4l-57 -29q-73 -16 -125.5 -32.5t-83.5 -32.5q-80 -41 -71 -116q2 -17 14 -31t36 -25q24 -13 50 -17.5t52 -2.5q54 6 112 21t117 38q21 -28 85 -135z" />
    <glyph glyph-name="dv_lli" unicode="&#x961;" horiz-adv-x="1565" 
d="M1559 -455q-28 -5 -74.5 -11t-112.5 -14q-88 -2 -161.5 24t-127.5 75q-48 42 -71.5 91.5t-22.5 103.5q1 45 19.5 80.5t60.5 64.5q-12 11 -21 22t-17 22q-23 34 -37.5 72t-14.5 76q0 25 5.5 45t14.5 37t21 32t26 30l8 9q11 11 21 22.5t20 22.5q30 32 55.5 60t43.5 55
t28.5 54t10.5 57q0 45 -14 78.5t-37.5 56.5t-54 34.5t-64.5 11.5q-38 0 -72 -14.5t-64.5 -41.5t-57.5 -64.5t-51 -82.5l-50 -53l-119 120q11 24 20.5 44t17.5 34q-34 25 -75.5 41.5t-92.5 16.5q-44 0 -82 -13t-65.5 -38.5t-43.5 -64t-16 -89.5q0 -49 20 -98t54 -99
t79.5 -102t96.5 -108q20 -21 44.5 -47.5t44.5 -49.5l-60 -60l-113 112q-11 11 -21 22t-21 21q-64 64 -118 121.5t-93 113t-60.5 112.5t-21.5 122q0 76 26 135t69.5 99.5t100 61.5t118.5 21q44 -1 80 -10.5t69.5 -27.5t66.5 -45.5t71 -64.5q45 59 95 92.5t104 47.5v237h-939
l-116 114l54 57h1601l114 -117l-54 -54h-491v-249q58 -18 110.5 -55.5t93 -89t64.5 -115t24 -133.5q0 -38 -12 -71t-32.5 -63t-48 -58.5t-57.5 -59.5q-18 -18 -34 -37q-38 -41 -54 -71t-16 -66q0 -45 43 -67h-1q8 -3 17 -5q31 6 61 8l-3 -1q6 1 19 11q17 14 31 25t30 26
l50 51l120 -120q-60 -85 -117.5 -128.5t-117.5 -43.5q-14 0 -27.5 2.5t-29.5 9.5q-14 -5 -29 -12t-24 -12q-81 -41 -72 -116q5 -36 50 -56q52 -26 103 -20q57 6 113.5 20.5t114.5 37.5q11 -13 32 -46.5t53 -87.5z" />
    <glyph glyph-name="bn_viram" unicode="&#x9e4;" horiz-adv-x="731" 
d="M293 85v1294l140 -123v-1332z" />
    <glyph glyph-name="bn_dbl_viram" unicode="&#x9e5;" horiz-adv-x="1016" 
d="M303 85v1294l142 -123v-1331zM578 85v1294l141 -123v-1331z" />
    <glyph glyph-name="dv_zeo" unicode="&#x966;" horiz-adv-x="881" 
d="M806 652q0 -125 -111 -254q-126 -142 -288 -142q-155 0 -259 104q-104 105 -104 261q0 90 37 169t104 143q63 57 132 87t142 30q151 0 249 -118q98 -114 98 -280zM661 587q0 148 -93 247q-84 90 -187 90q-193 1 -193 -215q0 -148 100 -245q85 -84 195 -84q82 0 129 60
q49 64 49 147z" />
    <glyph glyph-name="dv_one" unicode="&#x967;" horiz-adv-x="801" 
d="M814 -125q0 -88 -94 -110q-75 46 -167 113q70 33 70 67q0 50 -49 116t-146 152h1q-54 44 -118.5 97t-140.5 116l-31 26l249 278q-80 57 -129.5 95.5t-69.5 56.5q-93 87 -90 179q5 124 88 207q77 78 175 80t192 -94q102 -102 130 -155q18 -33 18 -78q0 -140 -143 -327
q-49 -59 -103.5 -125.5t-121.5 -149.5q15 -17 69 -67t138 -127q46 -43 93.5 -87.5t93.5 -87.5q86 -92 86 -175zM554 1049q0 32 -8 59t-25 50h1q-38 50 -108 50q-64 0 -108 -60q-46 -62 -42 -124q5 -65 55 -120h-1q17 -18 46.5 -41t73.5 -53q42 41 77 110q39 76 39 129z" />
    <glyph glyph-name="dv_two" unicode="&#x968;" horiz-adv-x="1044" 
d="M965 -153l-106 -56q-20 40 -79.5 147.5t-155.5 275.5q-25 44 -59 95.5t-78 111.5q-33 7 -68 13.5t-68 11.5q-85 36 -83 161q2 95 27 128q21 29 70 27q20 -1 57.5 -40t92.5 -113q24 11 48 21.5t47 21.5h-1q97 49 146 113q75 88 75 208q0 137 -75 194q-58 48 -153 43
q-36 -1 -89.5 -10.5t-119.5 -27.5q-39 -10 -85.5 -22.5t-85.5 -23.5l-104 144q210 88 390 88q13 0 26 -0.5t25 -1.5q59 -4 116.5 -30t111.5 -73q72 -64 111 -151t39 -193q0 -156 -83 -269.5t-248 -186.5z" />
    <glyph glyph-name="dv_three" unicode="&#x969;" horiz-adv-x="1061" 
d="M945 503q1 -128 -111 -228q-45 -38 -98 -65.5t-110 -41.5q61 -81 121 -161t120 -161l-85 -75q-47 75 -108.5 170t-134.5 204q-78 14 -124.5 24t-60.5 16h1q-45 20 -66 60.5t-19 92.5q9 154 84 145q17 -2 40 -21t46 -45q8 -10 16.5 -20t16.5 -20q12 -14 23 -27t22 -27
q63 0 113.5 16.5t92.5 48.5q84 63 84 165q0 73 -62 140q-57 56 -98 57q-50 -7 -126.5 -16t-179.5 -22q-20 -2 -42.5 12.5t-42.5 43.5q-17 25 -27 45.5t-11 37.5q-2 10 4 19t14.5 15t18.5 9.5t16 3.5q139 -6 289 -6q162 58 158 175q-5 128 -193 128h-359q-6 11 -16 28t-22 37
t-24.5 41.5t-23.5 40.5h452q55 0 109.5 -30.5t107.5 -90.5q51 -60 78 -120.5t25 -117.5q-2 -63 -54 -127q-11 -14 -19.5 -24t-14.5 -18l-12 -15q5 -4 12 -10q6 -5 14.5 -12.5t19.5 -17.5h-1q31 -27 54 -51.5t39 -47.5q53 -77 54 -157z" />
    <glyph glyph-name="dv_four" unicode="&#x96a;" horiz-adv-x="1352" 
d="M1190 1222l-453 -478q45 -42 89 -80.5t91 -80.5q56 -57 82.5 -108t26.5 -98q0 -54 -25 -99.5t-72 -80.5q-43 -32 -96 -49.5t-112 -17.5q-144 0 -244 79q-107 86 -107 216q0 48 15 96t41 92q19 30 52 69.5t79 85.5q-146 121 -296 245t-296 244l93 84l558 -499
q123 134 245.5 268t243.5 268l21 -2zM859 398q0 62 -43 128t-137 141q-199 -220 -188 -321q4 -47 51 -77q47 -32 113 -32q84 0 147 65q57 54 57 96z" />
    <glyph glyph-name="dv_five" unicode="&#x96b;" horiz-adv-x="1067" 
d="M1116 -176q-8 -12 -20.5 -20t-29.5 -15q-10 -5 -51 -13q-51 143 -114.5 308.5t-143.5 361.5q-43 -27 -70 -43.5t-39 -21.5q-33 -15 -70 -21.5t-72 -5.5q-110 8 -234 109q-143 117 -167 254v-1q-13 53 -13 135q0 112 19.5 235.5t60.5 262.5q147 -113 154 -135
q0 -5 -12.5 -53t-35.5 -134q-25 -94 -37.5 -167t-12.5 -121q0 -123 72 -186h-1q64 -54 170 -55q46 0 106 26q30 14 51.5 28.5t36.5 29.5h-1q8 11 21 51q-3 8 -9.5 24t-15.5 39q-9 21 -14.5 41t-5.5 34q0 34 33 54q33 21 60 12q48 -17 96 -53v1q68 -50 69 -100q1 -40 -26 -96
l-30 -53q-2 -5 -4 -8t-4 -7q24 -78 95.5 -248.5t189.5 -436.5z" />
    <glyph glyph-name="dv_six" unicode="&#x96c;" horiz-adv-x="1081" 
d="M1073 -154l-98 -47q-28 58 -71.5 150t-100.5 216q-32 -2 -50 -2.5t-26 -0.5q-78 0 -159 23t-155 63q-47 26 -89 63t-75 85q-69 97 -69 193q0 146 116 217q-186 173 -186 291q0 251 395 251q30 0 92.5 -4.5t157.5 -14.5l84 -154q-75 8 -154.5 13t-167.5 7q-107 1 -180 -35
v1q-43 -23 -62 -61t-17 -86q3 -30 22 -57.5t54 -50.5q52 -35 105 -41q64 10 124 15.5t108 5.5q84 0 107 -19q8 -7 18.5 -22t21.5 -37v1q23 -47 17 -72q-10 -34 -68 -35v23q-6 -5 -33.5 -13t-76.5 -6q-31 1 -69 2.5t-86 3.5q-71 -8 -113 -57q-22 -28 -34.5 -66.5t-12.5 -85.5
q0 -44 20 -85.5t49 -71.5q35 -30 76.5 -46.5t86.5 -16.5q60 0 131 24l-5 15t-8 25q-18 55 -18 86q0 62 61 62q62 0 139 -54q82 -56 82 -110q0 -46 -38 -87q-1 -1 -2 -2.5t-5 -8.5q-17 -18 -22.5 -24t-6.5 -8z" />
    <glyph glyph-name="dv_seven" unicode="&#x96d;" horiz-adv-x="1341" 
d="M1256 675q0 -260 -134 -411q-121 -136 -306 -134q-77 1 -149.5 30t-141.5 85q-127 105 -204 281q-60 142 -102.5 342t-67.5 464l95 26q16 -215 43.5 -378t68.5 -277q65 -184 186 -296q123 -120 268 -117q80 1 144.5 40.5t109.5 110.5q30 51 49 106.5t21 107.5
q-2 -1 -4.5 -2t-4.5 -1h1q-37 -17 -74 -31t-85 -14q-123 0 -221 110q-100 110 -100 250q0 89 56 153q58 66 150 66q52 0 107 -22.5t109 -64.5q91 -72 138.5 -177.5t47.5 -246.5zM1118 868q-39 186 -167 186q-79 0 -121.5 -49t-42.5 -132q0 -68 38 -114q36 -45 98 -45
q52 0 132 57v-1q73 56 63 98z" />
    <glyph glyph-name="dv_eight" unicode="&#x96e;" horiz-adv-x="1036" 
d="M1016 273q-36 -42 -78.5 -80t-90.5 -71q-81 -54 -162.5 -83t-162.5 -29q-189 0 -346 125q-146 119 -146 244q0 71 92 184l646 771l83 -150q-27 -36 -174.5 -215t-414.5 -498q-44 -54 -65.5 -99t-19.5 -76q8 -59 76 -109q87 -55 211 -55q105 0 224 80h-1q31 22 85.5 67.5
t133.5 116.5z" />
    <glyph glyph-name="dv_nine" unicode="&#x96f;" horiz-adv-x="1081" 
d="M958 -15q2 -43 -45 -106q-20 -26 -42 -47.5t-48 -40.5l-154 116q123 67 121 132q0 50 -169 231h1q-72 75 -166 176t-212 230q-43 51 -72 88t-43 58q-26 40 -40 82t-14 84q0 149 117 251q109 95 242 95q130 0 250 -114q119 -113 110 -233q-11 -116 -124 -211
q-61 -53 -132.5 -82t-161.5 -35q54 -56 136 -141t197 -203q47 -46 92 -91.5t90 -91.5q64 -73 67 -146v-1zM637 1070q1 37 -5 63t-21.5 42t-42.5 23t-66 7q-102 0 -190 -88q-89 -89 -89 -190q0 -93 56 -135q120 0 223 58h-1q67 39 101 93.5t35 126.5z" />
    <glyph glyph-name="dv_abbreviation" unicode="&#x970;" horiz-adv-x="1024" 
d="M787 272q0 -116 -83 -199q-81 -82 -198 -82t-199 82q-81 81 -81 199t81 199q84 82 199 82q116 0 198 -82q83 -83 83 -199zM642 272q0 56 -40 96q-39 39 -96 39q-59 0 -98 -39q-38 -38 -38 -96q0 -59 38 -97t98 -38q57 0 96 39q40 40 40 96z" />
    <glyph glyph-name="dv_high_bindu" unicode="&#x971;" horiz-adv-x="0" 
d="M-574 1845l224 208l223 -208l-223 -207z" />
    <glyph glyph-name="dv_marathi_a_chandra" unicode="&#x972;" horiz-adv-x="1597" 
d="M1675 1193h-255l-1 -1193l-160 88v501q-45 -18 -80.5 -25t-70.5 -7q-11 0 -18 0.5t-13 1.5q-33 7 -80.5 26.5t-107.5 52.5q10 -32 16 -66t6 -63q0 -138 -109 -224q-102 -75 -252 -75q-316 0 -539 476l77 43q29 -63 63.5 -116.5t76.5 -98.5q137 -153 298 -155
q96 -2 173 75t77 161q0 67 -41 117q-42 48 -89 53q-5 0 -27.5 -8.5t-65.5 -25.5q-45 -18 -82.5 -27.5t-71.5 -10.5q-113 111 -114 163q76 36 174 42q52 3 83 5.5t40 4.5q14 9 31 25t34 36q19 26 31 56t16 59q5 53 -46 105q-59 56 -141 46q-36 -5 -136 -48q-51 -23 -89.5 -35
t-63.5 -13l-73 148q167 68 280 73q125 5 255 -93q157 -115 157 -232q0 -95 -102 -209q38 -32 80.5 -55.5t95.5 -41.5q92 -34 135 -28q54 7 107 29t106 58v405h-296l-93 149h716zM900 2014l113 -114q13 -31 34 -69t52 -71t72.5 -55.5t96.5 -22.5q48 0 85.5 21.5t65 52.5
t44.5 66t25 61l53 52l116 -117q-6 -23 -19 -54.5t-33.5 -65.5t-48 -67.5t-62 -60t-75.5 -43.5t-88 -17q-66 0 -125.5 23t-110.5 60.5t-93.5 85.5t-74.5 97.5t-53.5 97t-30.5 83.5z" />
    <glyph glyph-name="dv_kash_oe" unicode="&#x973;" horiz-adv-x="1597" 
d="M1675 1193h-255l-1 -1193l-160 88v501q-45 -18 -80.5 -25t-70.5 -7q-11 0 -18 0.5t-13 1.5q-33 7 -80.5 26.5t-107.5 52.5q10 -32 16 -66t6 -63q0 -138 -109 -224q-102 -75 -252 -75q-316 0 -539 476l77 43q29 -63 63.5 -116.5t76.5 -98.5q137 -153 298 -155
q96 -2 173 75t77 161q0 67 -41 117q-42 48 -89 53q-5 0 -27.5 -8.5t-65.5 -25.5q-45 -18 -82.5 -27.5t-71.5 -10.5q-113 111 -114 163q76 36 174 42q52 3 83 5.5t40 4.5q14 9 31 25t34 36q19 26 31 56t16 59q5 53 -46 105q-59 56 -141 46q-36 -5 -136 -48q-51 -23 -89.5 -35
t-63.5 -13l-73 148q167 68 280 73q125 5 255 -93q157 -115 157 -232q0 -95 -102 -209q38 -32 80.5 -55.5t95.5 -41.5q92 -34 135 -28q54 7 107 29t106 58v405h-296l-93 149h716zM1371 1291l-117 116v447l54 55l118 -116v-447z" />
    <glyph glyph-name="dv_kash_ooe" unicode="&#x974;" horiz-adv-x="1597" 
d="M1676 1193h-255l1 -1193l-161 88v501q-45 -18 -80.5 -25t-70.5 -7q-11 0 -18.5 0.5t-12.5 1.5q-33 7 -80.5 26.5t-107.5 52.5q10 -32 15.5 -66t5.5 -63q0 -139 -108 -224q-102 -75 -252 -75q-316 0 -539 476l77 43q29 -63 63.5 -116.5t75.5 -98.5q139 -153 298 -155
q98 -2 173 75q78 76 78 161q0 67 -41 117q-42 48 -89 53q-5 0 -28 -8.5t-65 -25.5q-90 -37 -155 -38q-112 112 -113 163q76 36 174 42q51 3 82 5.5t41 4.5q14 9 31 25t34 36q19 26 31 56t16 59q3 54 -46 105q-61 56 -141 46q-35 -4 -136 -48q-51 -23 -89.5 -35t-63.5 -13
l-74 148q168 68 281 73q125 5 255 -93q157 -116 157 -232q0 -95 -102 -209q38 -32 80.5 -55.5t94.5 -41.5q94 -34 136 -28q54 7 107 29t106 58v405h-296l-94 149h717zM1981 1193h-260l1 -1193l-158 62v1131h-198l-94 149h617zM1673 1291l-118 116v447l55 55l117 -116v-447z
" />
    <glyph glyph-name="dv_kash_aw" unicode="&#x975;" horiz-adv-x="1597" 
d="M1676 1193h-255l1 -1193l-161 88v501q-45 -18 -80.5 -25t-70.5 -7q-11 0 -18.5 0.5t-12.5 1.5q-33 7 -80.5 26.5t-107.5 52.5q10 -32 15.5 -66t5.5 -63q0 -139 -108 -224q-102 -75 -252 -75q-316 0 -539 476l77 43q29 -63 63.5 -116.5t75.5 -98.5q139 -153 298 -155
q98 -2 173 75q78 76 78 161q0 67 -41 117q-42 48 -89 53q-5 0 -28 -8.5t-65 -25.5q-90 -37 -155 -38q-112 112 -113 163q76 36 174 42q51 3 82 5.5t41 4.5q14 9 31 25t34 36q19 26 31 56t16 59q3 54 -46 105q-61 56 -141 46q-35 -4 -136 -48q-51 -23 -89.5 -35t-63.5 -13
l-74 148q168 68 281 73q125 5 255 -93q157 -116 157 -232q0 -95 -102 -209q38 -32 80.5 -55.5t94.5 -41.5q94 -34 136 -28q54 7 107 29t106 58v405h-296l-94 149h717zM1981 1193h-260l1 -1193l-158 62v1131h-198l-94 149h617zM1662 1565q0 19 -13 36.5t-35 34.5t-51 33.5
t-61 34.5q-47 26 -96.5 55t-89.5 66t-65.5 83t-25.5 106q0 49 36.5 98.5t128.5 99.5l120 -120l-51 -52q-33 -19 -48.5 -42t-15.5 -46q0 -19 13 -36.5t35 -34.5t51 -33.5t61 -34.5q47 -26 96.5 -55.5t90 -66t66 -82.5t25.5 -106q0 -35 -20 -67.5t-50.5 -61.5t-66 -54
t-65.5 -44l-114 112q-23 39 -45 71t-46.5 55t-54.5 36t-67 13h-150q-41 0 -83 16.5t-87.5 55.5t-96 103.5t-108.5 160.5l57 58l114 -112q13 -24 26.5 -44.5t30 -35t37.5 -23t50 -8.5h149q56 0 102.5 -20.5t88 -57t81 -86t81.5 -106.5q33 18 49.5 42t16.5 59z" />
    <glyph glyph-name="dv_kash_ue" unicode="&#x976;" horiz-adv-x="1597" 
d="M1675 1193h-255l-1 -1193l-160 88v501q-45 -18 -80.5 -25t-70.5 -7q-11 0 -18 0.5t-13 1.5q-33 7 -80.5 26.5t-107.5 52.5q10 -32 16 -66t6 -63q0 -138 -109 -224q-102 -75 -252 -75q-316 0 -539 476l77 43q29 -63 63.5 -116.5t76.5 -98.5q137 -153 298 -155
q96 -2 173 75t77 161q0 67 -41 117q-42 48 -89 53q-5 0 -27.5 -8.5t-65.5 -25.5q-45 -18 -82.5 -27.5t-71.5 -10.5q-113 111 -114 163q76 36 174 42q52 3 83 5.5t40 4.5q14 9 31 25t34 36q19 26 31 56t16 59q5 53 -46 105q-59 56 -141 46q-36 -5 -136 -48q-51 -23 -89.5 -35
t-63.5 -13l-73 148q167 68 280 73q125 5 255 -93q157 -115 157 -232q0 -95 -102 -209q38 -32 80.5 -55.5t95.5 -41.5q92 -34 135 -28q54 7 107 29t106 58v405h-296l-93 149h716zM423 -89q40 -33 86 -60t94.5 -46.5t96.5 -30.5t92 -11q57 0 103.5 9t88.5 27.5t83 46t86 65.5
l119 -118l-51 -51q-27 -27 -61.5 -54t-78.5 -48.5t-100 -35t-127 -13.5t-139.5 22.5t-132 59.5t-119.5 84t-101 95z" />
    <glyph glyph-name="dv_kash_uue" unicode="&#x977;" horiz-adv-x="1597" 
d="M1675 1193h-255l-1 -1193l-160 88v501q-45 -18 -80.5 -25t-70.5 -7q-11 0 -18 0.5t-13 1.5q-33 7 -80.5 26.5t-107.5 52.5q10 -32 16 -66t6 -63q0 -138 -109 -224q-102 -75 -252 -75q-316 0 -539 476l77 43q29 -63 63.5 -116.5t76.5 -98.5q137 -153 298 -155
q96 -2 173 75t77 161q0 67 -41 117q-42 48 -89 53q-5 0 -27.5 -8.5t-65.5 -25.5q-45 -18 -82.5 -27.5t-71.5 -10.5q-113 111 -114 163q76 36 174 42q52 3 83 5.5t40 4.5q14 9 31 25t34 36q19 26 31 56t16 59q5 53 -46 105q-59 56 -141 46q-36 -5 -136 -48q-51 -23 -89.5 -35
t-63.5 -13l-73 148q167 68 280 73q125 5 255 -93q157 -115 157 -232q0 -95 -102 -209q38 -32 80.5 -55.5t95.5 -41.5q92 -34 135 -28q54 7 107 29t106 58v405h-296l-93 149h716zM483 -89q39 -32 85.5 -59.5t95 -47t96.5 -30.5t92 -11q57 0 103.5 9t89 27.5t83.5 46t86 65.5
l118 -118l-51 -51q-27 -27 -61.5 -54t-79 -48.5t-100.5 -35t-125 -13.5q-71 0 -140 22.5t-132.5 59.5t-119.5 84t-101 95zM517 -412q40 -33 86.5 -60.5t95 -47.5t97 -31.5t92.5 -11.5q57 0 104 9.5t89 28.5t82.5 47t84.5 66l120 -122l-51 -50q-26 -27 -61 -54t-80.5 -48
t-101.5 -34.5t-123 -13.5q-70 1 -139.5 23t-133 58.5t-119.5 84t-100 98.5z" />
    <glyph glyph-name="R.001" unicode="&#x979;" horiz-adv-x="1339" 
d="M1409 1193h-218l9 -1193l-168 78v722h-353q37 -41 62.5 -71.5t40.5 -50.5q76 -111 75 -201q-1 -54 -22.5 -94t-63.5 -69q-69 -45 -169 -45q-273 0 -537 567l83 45q30 -73 64 -136t74 -118q139 -192 288 -197q47 -2 84 31q43 39 43 98q0 108 -118 215l1 -1
q-21 15 -47.5 34.5t-53.5 39.5t-53 39.5t-48 35.5q12 0 26 9t23 27h601v235h-1018l-79 149h1392zM170 71l148 146l146 -146l-146 -145zM611 71l147 146l146 -146l-146 -145zM391 -150l147 146l146 -146l-146 -145z" />
    <glyph glyph-name="dv_jya" unicode="&#x97a;" horiz-adv-x="1192" 
d="M1266 1193h-242v-1193l-159 82v415q-33 -17 -67.5 -33t-67.5 -32q-46 -21 -88.5 -30.5t-82.5 -8.5q-75 2 -145 28t-129 72q-63 52 -111.5 126t-80.5 170q-10 29 92 66q62 21 103 38.5t64 30.5q84 50 70 112q-8 44 -23.5 82.5t-43.5 74.5h-359l-90 149h1278zM861 1193
h-379q54 -114 77.5 -188t15.5 -106q-8 -30 -42.5 -62t-91.5 -61q-63 -32 -99 -53.5t-47 -32.5q-3 -15 -3 -31q0 -148 179 -143q143 2 390 178v499zM940 411l-426 482v189l426 -491v-180z" />
    <glyph glyph-name="dv_sindhi_gg" unicode="&#x97b;" horiz-adv-x="1229" 
d="M195 5q0 8 35.5 12.5t95.5 4.5q23 0 49.5 -0.5t55.5 -0.5h124l336 -4v1176h-377v-574q0 -69 -25 -118v1q-30 -62 -85 -62q-53 0 -147 117q-43 56 -65 92t-22 54q-1 82 81 82h8t9 -1q2 0 3.5 -0.5t3.5 -0.5h22q54 0 54 48v362q-85 0 -171.5 -1t-171.5 -1l-87 151h1294
l81 -149h-247q0 -337 1 -671.5t1 -671.5h-856v155z" />
    <glyph glyph-name="dv_sindhi_jj" unicode="&#x97c;" horiz-adv-x="1339" 
d="M195 -74v172h837v702h-353q37 -41 62.5 -71.5t40.5 -50.5q76 -111 75 -201q-1 -54 -22.5 -94t-63.5 -69q-69 -45 -169 -45q-273 0 -537 567l83 45q30 -73 64 -136t74 -118q139 -192 288 -197q47 -2 84 31q43 39 43 98q0 108 -118 215l1 -1q-21 15 -47.5 34.5t-53.5 39.5
t-53 39.5t-48 35.5q12 0 26 9t23 27h601v235h-1018l-79 149h1392l82 -149h-218v-1267h-996z" />
    <glyph glyph-name="dv_sindhi_limbu" unicode="&#x97d;" horiz-adv-x="1303" 
d="M620 -13l-115 116v300l50 50h47q88 0 152 16t106 45t62 70.5t20 92.5q0 39 -16 73t-47 59.5t-76.5 40.5t-104.5 15q-66 0 -121 -18.5t-100.5 -45.5t-82 -58.5t-64.5 -58.5l-122 121l64 64q27 26 61 55t78 54t99.5 41t125.5 16q95 0 181 -33t151.5 -89.5t104 -132.5
t38.5 -163q0 -67 -29.5 -127t-85.5 -106t-137 -73.5t-184 -28.5v-240zM3 1157l-117 114l54 57h1345l117 -117l-55 -54h-1344z" />
    <glyph glyph-name="dv_sindhi_ddd" unicode="&#x97e;" horiz-adv-x="1190" 
d="M1260 1193h-288v-294l-21 -21h-392q-145 0 -157 -115q-5 -46 18 -89h-1q13 -21 27.5 -36t34.5 -24q60 11 135 22t172 25q55 7 112.5 -18t111.5 -76q55 -52 83.5 -109.5t28.5 -118.5q0 -115 -94 -200q-105 -93 -285 -93q-106 0 -221.5 52t-230.5 147q-36 31 -72.5 67
t-70.5 74t-64 76.5t-53 74.5l74 49q8 -11 20 -25.5t20 -25.5q18 -23 36.5 -46.5t36.5 -48.5h-1q44 -51 91 -93t95 -74q66 -36 142.5 -58t152.5 -22q109 0 197 59q90 58 90 155t-91 97q-4 0 -15.5 -0.5t-33 -2.5t-54 -7t-78.5 -15q-48 -11 -82 -16.5t-57 -6.5
q-120 -8 -228 139q-96 133 -96 256q0 77 70 127l-1 -1q61 45 136 45h368v171h-809l-97 149h1250zM74 -124h1032l-4 -159h-1028v159z" />
    <glyph glyph-name="dv_sindhi_bb" unicode="&#x97f;" horiz-adv-x="1303" 
d="M1396 1193h-269q-1 -312 -1.5 -631t-1.5 -631l-153 159v392q-29 -32 -55 -56t-50 -38q-119 -72 -300 -72q-122 0 -253 111q-134 116 -134 246q0 78 34.5 140.5t98.5 106.5q57 37 126.5 56t153.5 19q236 0 379 -230v428h-966l-87 149h1379zM881 685q0 92 -56 142
q-46 46 -126 51q-51 3 -93 -3.5t-77 -23.5q58 -89 111.5 -173.5t110.5 -174.5q66 33 98 79t32 103zM447 817q-129 -70 -129 -224q0 -97 88 -138q55 -25 112 -25h16.5t17.5 2q29 4 59 11.5t62 21.5zM149 107h835l145 -157h-978z" />
    <glyph glyph-name="dv_reph" horiz-adv-x="0" 
d="M-390 1722q-53 88 -80 115q-50 52 -109 40q-118 -21 -112 -183q2 -71 34.5 -155t98.5 -184l-62 -37q-34 38 -65.5 86t-60.5 103q-76 144 -79 257q-5 122 62 192h-1q64 70 167 70q187 0 274 -278z" />
    <glyph glyph-name="dv_ekaar_reph" horiz-adv-x="0" 
d="M118 1697q-1 -12 -11.5 -21.5t-28.5 -17.5q-78 72 -126 67q-39 -5 -67 -36q-22 -26 -33.5 -67.5t-7.5 -92.5q6 -108 17 -151l6 -55h-91l-36 53q-128 192 -222.5 291.5t-154.5 113.5q-17 3 -34 4.5t-32 1.5q-60 0 -124 -22l-107 190q-7 45 61 52q8 1 16.5 1.5t17.5 0.5
q94 0 182.5 -55.5t176.5 -165.5q14 -17 75.5 -101.5t175.5 -241.5q4 2 7.5 7.5t1.5 13.5l1 -3q-8 28 -16 55t-18 54q-12 40 -16.5 70t-3.5 52q1 70 45 123q42 55 113 55q120 0 225 -144q8 -15 8 -30v-1z" />
    <glyph glyph-name="dv_aikaar_reph_bindu" horiz-adv-x="0" 
d="M298 1734q19 -37 -10 -41q-6 0 -50 25.5t-85 25.5q-33 0 -66 1q-111 -6 -198 -127q-66 -161 -53 -258q4 -79 0 -89l4 -45h-92l-88 51q-76 65 -207 139q-43 23 -88 27q-36 4 -73 -3t-43 -3q-26 18 -66 69.5t-79 100.5q-4 8 -4 14q0 17 16 27q25 2 47 2q88 0 174 -39
q4 -2 95 -48l90 -59q173 -221 195 -235q9 -3 17 -3q26 0 10 37q-86 146 -162 254q-145 213 -227 244q-23 8 -55 8q-52 0 -117 -20q-47 96 -84 209q4 47 43 32q188 -43 373 -305q45 -63 168 -270q84 -143 114 -156q12 25 3 67q-68 230 49 357q32 34 72 77q79 43 150 48
q66 0 129 -38q27 -17 98 -76zM277 1456l-162 -161l-154 155l161 161z" />
    <glyph glyph-name="dv_v_mark" horiz-adv-x="0" 
d="M-153 -623l-133 96v117q-39 -25 -65 -40t-34 -19l1 1q-85 -45 -144 -44q-117 1 -211 89q-94 87 -94 189q0 104 73 168q75 64 186 64q55 0 103 -12.5t84 -34.5q41 -26 101 -95v308h133v-787zM-289 -253q-2 2 -5 4.5t-5 4.5q2 2 5 4.5t5 4.5v-18zM-574 -407q106 0 275 163
q-127 112 -239 112q-78 0 -130 -41t-47 -115q1 -26 11.5 -47.5t29 -37.5t44 -25t56.5 -9z" />
    <glyph glyph-name="dv_aikaar_bindu" horiz-adv-x="0" 
d="M-227 1321q-14 72 -38 162t-56 200v-1q-92 216 -150 240q-15 6 -51.5 9.5t-96.5 3.5q-32 213 -27 260q19 16 38 16q40 0 108 -54q56 -46 81 -85q42 -66 87.5 -167t91.5 -231q12 -33 23.5 -83.5t21.5 -111.5q6 -42 10.5 -72.5t7.5 -47.5q1 -5 2 -11.5t3 -12.5q2 -7 3 -14
h-58zM-269 1301q-15 18 -29.5 37t-33 43t-43 53.5t-59.5 68.5h1q-35 36 -50.5 50.5t-24.5 17t-16.5 -1t-25.5 -3.5q-38 0 -124 -34q-26 34 -53.5 91.5t-57.5 140.5q7 34 50 34q33 0 102 -26q23 -11 59.5 -36t84.5 -65q22 -18 29 -24t9.5 -8.5t5.5 -7t17 -19.5
q15 -16 32 -39.5t41 -57t57 -79t80 -106.5zM-71 1621l211 198l208 -198l-208 -199z" />
    <glyph glyph-name="dv_aikaar_reph" horiz-adv-x="0" 
d="M-312 1687l-46 -14q-77 89 -126 86q-35 -1 -67 -39q-46 -52 -41 -157q2 -48 6.5 -84.5t9.5 -61.5q6 -29 13 -51v1q4 -10 10.5 -28t10.5 -28h-135q-22 14 -46.5 29.5t-48.5 32.5q-70 48 -109 79.5t-63 51t-41.5 29.5t-44.5 14q-20 3 -31 4t-28 -3l-17 -11q-8 -5 -18 -13
t-17 -13q-14 9 -52 59t-105 143q-7 43 61 43q14 0 35 -2t45 -5q26 -5 49.5 -18t50.5 -35t59.5 -53t76 -71.5t101.5 -90.5t135 -110q2 5 4 6v2q0 1 1 1l1 -2q-26 57 -72 130.5t-111 161.5q-73 96 -131.5 151t-91.5 56q-41 0 -135 -27l-96 221q-2 23 11 34t36 9q68 -5 144 -54
t158 -141q57 -66 117.5 -152.5t124.5 -197.5q27 -48 53.5 -95.5t52.5 -95.5q-5 20 -16 63t-30 113q-15 60 -23.5 108.5t-8.5 71.5q8 70 41 113.5t91 56.5q5 1 10.5 1.5t13.5 0.5q59 0 117 -38q74 -50 112 -152v-29z" />
    <glyph glyph-name="dv_ikaar_reph" horiz-adv-x="655" 
d="M1493 1867q-1 -12 -10.5 -21t-28.5 -18q-78 72 -126 67q-19 -2 -36 -10.5t-31 -25.5q-23 -26 -34 -66t-7 -94q4 -55 8 -92t9 -57l-1 1q2 -8 6 -20t7.5 -25t7.5 -25t6 -20l-73 40l-3 4q-155 105 -286 159t-234 54q-106 0 -178 -69q-80 -79 -80 -205q0 -65 27 -102h218
l78 -149h-253l1 -1193l-158 88v1105h-313l-83 149h419q-19 29 -30 49h1q-23 44 -35 82.5t-13 72.5q-2 42 15 86.5t51 92.5q50 70 125 102t167 29q57 -4 127 -24t146 -55q69 -32 134 -70.5t123 -83.5q-29 97 -42 156t-11 85q1 35 12.5 66t31.5 57q47 56 114 56
q118 0 223 -145q9 -17 9 -30v-1z" />
    <glyph glyph-name="dv_ekaar_reph_bindu" horiz-adv-x="0" 
d="M254 1800q0 -8 -2.5 -18t-7.5 -19t-14 -16.5t-22 -9.5q-21 15 -52.5 35.5t-66 39t-67.5 30t-56 7.5q-10 -2 -20.5 -2.5t-22.5 -3.5q-60 -16 -92.5 -79.5t-39.5 -163.5q0 -21 3.5 -57.5t9.5 -75.5q16 -89 39 -148h-63l-50 62q-22 29 -61.5 79t-96.5 122q-80 97 -144 155.5
t-101 64.5q-7 2 -14.5 2h-15.5q-23 0 -60.5 -4.5t-90.5 -14.5q-92 127 -110 194q1 18 13 27t32 12q14 1 27.5 1.5t25.5 0.5q61 2 119.5 -15.5t108.5 -59.5q26 -22 65.5 -68.5t93.5 -117.5q72 -95 128 -173.5t98 -141.5l-1 1q9 -11 14.5 -16.5t10.5 -6.5q-4 0 -4 5
q0 11 -6 35l1 -1q-77 184 -77 300q0 101 67 165t152 64q13 0 31.5 -1t40 -5t45 -12.5t47.5 -23.5t56.5 -36.5t61 -43t48.5 -40t20 -28.5zM-103 1555l169 168l167 -168l-167 -160z" />
    <glyph glyph-name="dv_iikaar_reph_bindu" horiz-adv-x="482" 
d="M639 1724q-2 -5 -10 -11.5t-19 -13.5q-111 72 -181 72q-23 0 -41 -6q-90 -24 -126 -121v1q-11 -33 -16 -70t-3 -77q1 -35 3 -70.5t7 -85.5h228l74 -149h-262q0 -300 4 -596.5t4 -596.5l-167 76v1117l-134 -1l-68 150h231q-29 83 -57 146t-54 102q-46 66 -102 102.5
t-118 38.5q-66 2 -109.5 -26.5t-65.5 -81t-23 -124.5t19 -157q-26 -5 -42.5 -3t-25.5 3q-8 -2 -16 -3q-7 -1 -15 -0.5t-13 3.5q-10 14 -17 38t-11.5 52.5t-6 59t-1.5 57t1.5 48t4.5 31.5q11 40 25.5 75t35 65t48 54t65.5 41q24 11 52 17.5t53 6.5q130 0 246 -137
q23 -28 45 -64.5t41 -81.5q12 -30 24 -60.5t25 -61.5q-3 94 -3.5 148.5t0.5 68.5q11 90 52 146q54 72 136 72q76 -1 146.5 -45.5t136.5 -131.5q3 -6 0 -16zM487 1485l169 168l167 -168l-167 -160z" />
    <glyph glyph-name="dv_ekaar_bindu" horiz-adv-x="0" 
d="M-230 1294q-6 7 -43 52t-98 120q-17 21 -35 44t-39 49q-69 86 -125 142t-94 73q-22 11 -53 11q-55 0 -136 -29l-124 210l46 30q19 2 37 3.5t37 1.5q58 0 130 -28q74 -26 271 -274q69 -88 137.5 -181.5t129.5 -184.5zM-281 1811l211 198l208 -198l-208 -199z" />
    <glyph glyph-name="dv_iikaar_reph" horiz-adv-x="482" 
d="M639 1724q-2 -5 -10 -11.5t-19 -13.5q-111 72 -181 72q-23 0 -41 -6q-90 -24 -126 -121v1q-11 -33 -16 -70t-3 -77q1 -35 3 -70.5t7 -85.5h228l74 -149h-262q0 -300 4 -596.5t4 -596.5l-167 76v1117l-134 -1l-68 150h231q-29 83 -57 146t-54 102q-46 66 -102 102.5
t-118 38.5q-66 2 -109.5 -26.5t-65.5 -81t-23 -124.5t19 -157q-26 -5 -42.5 -3t-25.5 3q-8 -2 -16 -3q-7 -1 -15 -0.5t-13 3.5q-10 14 -17 38t-11.5 52.5t-6 59t-1.5 57t1.5 48t4.5 31.5q11 40 25.5 75t35 65t48 54t65.5 41q24 11 52 17.5t53 6.5q130 0 246 -137
q23 -28 45 -64.5t41 -81.5q12 -30 24 -60.5t25 -61.5q-3 94 -3.5 148.5t0.5 68.5q11 90 52 146q54 72 136 72q76 -1 146.5 -45.5t136.5 -131.5q3 -6 0 -16z" />
    <glyph glyph-name="dv_reph_bindu" horiz-adv-x="6" 
d="M-264 1800l-54 50q-12 13 -44.5 20t-69.5 9t-72.5 -1.5t-53.5 -11.5q-55 -23 -80 -71t-22 -130q2 -71 34.5 -155t98.5 -184l-63 -37q-34 37 -65.5 85.5t-60.5 103.5q-38 72 -57.5 136.5t-21.5 120.5q-5 122 62 192h-1q32 35 74 56.5t90 29.5q56 10 120.5 10t125 -21
t112.5 -69t83 -133h-135zM-513 1545l169 168l167 -168l-167 -160z" />
    <glyph glyph-name="dv_iikaar_bindu" horiz-adv-x="520" 
d="M586 1193h-284l-5 -1193l-151 59v1134l-149 -1l-71 150h250v22q0 142 -77 248q-46 64 -98 96t-112 27q-51 -5 -85.5 -25.5t-56.5 -51.5t-33 -70t-15.5 -81t-4 -84.5t2.5 -80.5h-101q-4 6 -7.5 25t-6.5 45t-5.5 57.5t-3 62t0.5 58.5t5 47q13 47 31.5 91.5t57.5 83.5
q77 78 187 78q61 0 119 -26t111 -77q51 -51 88 -114t56 -134q9 -41 16 -79.5t11 -74.5q2 -13 3.5 -24t2.5 -18v-1h249zM316 1691l211 198l208 -198l-208 -199z" />
    <glyph glyph-name="dv_rakaar.alt" horiz-adv-x="0" 
d="M-235 471l-591 -481l-132 109l723 528v-156z" />
    <glyph glyph-name="dv_rakaar" horiz-adv-x="0" 
d="M-665 -625l-121 120l341 341h21l407 -408l-60 -59l-297 295h-2z" />
    <glyph glyph-name="dv_half_b" horiz-adv-x="729" 
d="M884 1193h-890l-97 149h987v-149zM918 580q-4 -17 -14.5 -39.5t-29.5 -51.5q-64 -75 -112 -103q-119 -70 -299 -70q-122 0 -253 111q-134 116 -134 246q0 78 35 140.5t99 106.5q113 75 279 75q242 0 385 -240q58 -109 44 -174v-1zM779 685q0 88 -57 142q-46 46 -126 51
q-51 3 -92.5 -3.5t-76.5 -23.5q57 -89 110.5 -174t110.5 -174q131 64 131 182zM344 817q-128 -70 -128 -224q0 -98 88 -138q55 -25 111 -25h17t17 2q28 4 58 11.5t63 21.5z" />
    <glyph glyph-name="dv_half_nya" horiz-adv-x="911" 
d="M1121 1193h-1114l-99 149h1194zM1103 568h-61q-49 -3 -95.5 -6t-95.5 -7q-59 -235 -335 -235q-254 0 -501 354l71 55q102 -129 174 -184q102 -81 212 -81q113 0 187 80q68 73 73 168q1 54 -35 101q-36 46 -84 46q-30 0 -195 -146l-134 134q105 115 258 115
q150 0 244 -109q61 -75 70 -145q41 5 87 12t98 16q11 2 31 6t31 6v-180z" />
    <glyph glyph-name="dv_half_n" horiz-adv-x="614" 
d="M691 1193h-687l-87 149h704zM863 681h-392q-43 -6 -43 -44v-40q0 -31 -1 -51.5t-3 -29.5q-13 -52 -67 -52q-36 0 -120 113q-79 110 -86 159q-2 17 5.5 33t26.5 29q34 25 82 25h672z" />
    <glyph glyph-name="dv_half_nn" horiz-adv-x="754" 
d="M999 1193h-238v-588q0 -71 -71 -136q-81 -71 -193 -67h1q-122 5 -242 114q-122 110 -122 221v456h-130l-96 149h1091v-149zM594 1193h-292v-532q0 -72 25 -100q28 -35 111 -41q66 -6 113 48q43 52 43 101v524z" />
    <glyph glyph-name="dv_half_m" horiz-adv-x="641" 
d="M1033 787l-54 -148l-554 4q0 -49 -0.5 -80.5t-1.5 -39.5q-9 -67 -60 -69q-37 -2 -148 106q-112 108 -112 153q0 65 65 77l-6 -4q3 2 28 4.5t73 3.5v399h-234l-99 149h964l-65 -149h-398v-406h602z" />
    <glyph glyph-name="dv_half_j" horiz-adv-x="846" 
d="M971 1193h-978l-94 149h1072v-149zM1021 804h-412q37 -42 58.5 -67.5t32.5 -42.5l-1 1q71 -97 69 -182q-1 -47 -21.5 -84t-56.5 -63q-29 -19 -68 -30.5t-84 -11.5q-244 0 -484 513l78 39q27 -66 58 -123t67 -106q63 -87 126.5 -130t129.5 -45q41 -1 80 30q36 31 36 85
q0 100 -106 193l1 -1q-39 28 -82.5 60.5t-82.5 61.5l27 45h530z" />
    <glyph glyph-name="dv_half_g" horiz-adv-x="670" 
d="M9 1193l-83 149h903l3 -149h-321v-574q0 -35 -5.5 -64t-19.5 -54v1q-29 -62 -85 -62q-53 0 -146 117q-87 111 -87 146q-1 82 81 82h7.5t8.5 -1q2 0 3.5 -0.5t3.5 -0.5h23q53 0 53 48v362h-339z" />
    <glyph glyph-name="dv_half_p" horiz-adv-x="563" 
d="M817 620l-86 -55q-45 -29 -99 -46t-114 -19q-93 -4 -227 104q-145 115 -145 229v360h-145l-74 149h823v-149h-443v-412q0 -141 136 -141q104 0 285 106l-1 -1q9 7 21 16.5t24.5 20t24.5 20t20 16.5v-198z" />
    <glyph glyph-name="dv_half_v" horiz-adv-x="688" 
d="M924 1193h-924l-101 149h1025v-149zM944 551l-76 -66q-230 -153 -350 -147q-142 6 -264 113q-128 111 -130 246q-2 122 90 211q92 92 223 92q85 0 154 -15.5t119 -44.5q31 -20 71 -58.5t87 -95.5zM871 681q-4 3 -10 9l10 9v-18zM449 453q163 -4 412 237q-103 88 -194 129
t-175 36q-99 -6 -163 -56q-74 -56 -69 -160q7 -178 189 -186z" />
    <glyph glyph-name="dv_half_s" horiz-adv-x="793" 
d="M1024 1342l-2 -149h-503q5 -114 11 -224t11 -225q51 -34 103 -54t101 -24q48 -5 113.5 18t153.5 72l7 -191q-99 -55 -194 -50q-35 1 -78.5 13.5t-88.5 33.5q-85 39 -140 89q-68 -87 -188 -154q21 -28 69.5 -83t114.5 -126q48 -49 98 -104q28 -29 60 -63t61 -65l-76 -78
q-168 187 -279.5 317t-162.5 194q-115 152 -110 227q2 42 20.5 60t49.5 14q20 -1 87 -32q65 -30 89 -26q25 3 24 59q-2 104 -5 201t-5 201h-376l-85 149h1120z" />
    <glyph glyph-name="dv_half_y" horiz-adv-x="629" 
d="M630 1342l97 -149h-244q12 -27 28 -66.5t30 -83.5q19 -57 27.5 -93t8.5 -53q-1 -30 -35.5 -63t-90.5 -62q-66 -33 -105 -54.5t-49 -32.5q-3 -14 -3 -30q0 -148 179 -143q72 2 166.5 46.5t210.5 135.5l56 -178q-38 -20 -81 -42t-81 -40q-52 -25 -97.5 -36t-84.5 -9h1
q-155 5 -276 100q-127 102 -192 296q-10 28 91 66q60 20 102.5 38t66.5 31q38 24 57 53t12 60q-8 42 -25.5 83t-42.5 77h-354l-92 149h720z" />
    <glyph glyph-name="dv_half_c" horiz-adv-x="903" 
d="M1027 1193h-1022l-97 149h1119v-149zM1109 534l-87 -87q-93 -72 -178 -107.5t-166 -35.5q-138 0 -250 94q-114 97 -114 217q0 91 55 173q-60 -1 -121 -2t-121 -2l-82 150h834l80 -130l-227 -2q-269 -2 -269 -257q0 -138 165 -138q82 0 231 109q61 44 101.5 77.5
t58.5 57.5l90 95v-212z" />
    <glyph glyph-name="dv_half_k" horiz-adv-x="1094" 
d="M1252 704q-54 20 -93 19q-15 -2 -48.5 -17t-79.5 -41q-45 -26 -78.5 -48t-50.5 -39v-600l-165 112v366q-25 -14 -52 -30.5t-50 -30.5q-48 -24 -94 -37t-90 -14q-129 -2 -245 101h1q-129 112 -129 260q0 116 78 191q87 84 245 84q66 0 125 -20.5t107 -56.5
q20 -17 47.5 -45.5t56.5 -66.5v402h-727l-97 149h1339l-1 -149h-349v-416q4 2 7.5 4t5.5 4q13 8 27 16.5t26 16.5q34 21 65 34t56 15q8 1 15 1.5t16 0.5q67 0 132 -43v-122zM747 652q-2 2 -3.5 4.5t-3.5 4.5q2 2 9 8zM551 527q32 19 79 52.5t110 81.5q-139 175 -325 175
q-85 0 -142 -45q-72 -54 -72 -156q0 -79 60 -124q45 -39 112 -39q83 0 178 55z" />
    <glyph glyph-name="dv_half_t" horiz-adv-x="596" 
d="M884 1193h-880l-99 149h979v-149zM859 790h-386q-73 0 -122 -52q-61 -64 -61 -191q0 -143 295 -501l-90 -57q-104 149 -161 233t-62 92q-137 217 -132 333q6 162 123 243q94 63 232 63h227l136 -40z" />
    <glyph glyph-name="dv_half_l" horiz-adv-x="1010" 
d="M1099 1193h-1091l-83 149h1089zM1216 706q-101 120 -171 120q-116 0 -257 -310l-125 97l49 90q-107 158 -225 158q-80 0 -140 -81q-26 -32 -37.5 -69t-11.5 -79v-17.5t2 -18.5q14 -130 134 -267q123 -138 344 -266l-73 -80q-187 134 -309 251q-248 245 -254 443
q-1 45 13 92.5t41 92.5q41 66 101 100t141 36q109 2 206 -85q32 -34 59 -63.5t59 -62.5q22 44 66 91q72 75 155 75q126 0 231 -105z" />
    <glyph glyph-name="dv_half_sh" horiz-adv-x="893" 
d="M1130 1193h-348q117 -167 113 -298q-3 -91 -34.5 -171.5t-86.5 -145.5q-37 -41 -100 -90.5t-149 -103.5q65 -82 142.5 -180t161.5 -204l-107 -71q-56 78 -111 158t-104 155q-20 29 -40.5 56t-34.5 41q-70 17 -107 26.5t-42 11.5q-101 48 -106 167q-2 90 82 108
q46 8 101 -57v1q20 -23 36.5 -43.5t35.5 -43.5q20 5 47.5 18.5t59.5 36.5v-1q41 31 77 69t71 87q-51 17 -102.5 35t-102.5 35q-84 36 -137 88.5t-76 117.5q-12 31 -12 62q0 62 44 136h-306l-82 149h1217v-149zM742 951q0 141 -74 215q-48 52 -95 52q-50 0 -96 -43
q-54 -48 -54 -112q0 -33 15 -69q35 -80 132 -134v1q7 -4 22 -10.5t34.5 -14.5t41.5 -16.5t43 -16.5q5 14 9.5 28t10.5 29q11 44 11 91z" />
    <glyph glyph-name="dv_half_k_ss" horiz-adv-x="963" 
d="M1241 751q-26 -20 -59.5 -38t-75.5 -34q-53 -20 -101 -29t-96 -9q-57 0 -175 53q-31 15 -59.5 28.5t-60.5 27.5q-78 -51 -118 -77t-45 -31q-87 -74 -87 -171q0 -84 68 -129q31 -21 68 -30.5t79 -9.5q31 0 55 4t47 14q-6 11 -28 59q-24 54 -24 70q0 63 82 63q46 0 102 -36
q32 -22 51.5 -36t27.5 -22q28 -29 28 -62q0 -15 -4 -30q-7 -39 -72 -99q8 -15 58 -91.5t143 -218.5l-105 -67l-168 333q-17 -3 -35 -4t-38 -1q-136 0 -252 62q-94 52 -162 133q-36 45 -59.5 95.5t-23.5 92.5q0 90 127 182q19 12 35 22t31.5 19.5t31.5 19t35 20.5
q-255 124 -255 273q0 116 104 189l-1 -1q80 59 164 59q51 0 105 -23t111 -68q66 -54 104 -113.5t38 -116.5q0 -87 -148 -220q14 -6 34.5 -12t46.5 -12q33 -8 61 -12.5t45 -4.5q57 0 178 55q101 46 192 102v-168zM679 1065q0 158 -134 158q-63 0 -117 -54t-54 -124
q0 -39 36.5 -83t114.5 -96q15 13 32 26l34 26q10 7 20 17q32 31 50 64.5t18 65.5z" />
    <glyph glyph-name="dv_half_ph" horiz-adv-x="897" 
d="M1121 1342l-2 -149h-258v-421q29 14 58 29t58 29q71 36 121 37h21v-155q-28 -7 -49.5 -13t-38.5 -14q-43 -25 -85 -51t-85 -51v-615l-161 123v407q-59 -20 -107.5 -31.5t-86.5 -12.5q-63 -1 -125.5 28t-124.5 89q-123 121 -123 236v386h-143l-80 149h1211zM696 1193h-397
v-400q0 -126 45 -178q35 -40 108 -40q72 0 244 109v509z" />
    <glyph glyph-name="dv_half_kh" horiz-adv-x="1087" 
d="M1288 538l-24 -19q-24 -17 -54 -35.5t-63 -34.5q-42 -20 -81 -31t-63 -12q-63 6 -122 33t-110 75v-1q-111 102 -112 232q-1 66 24.5 121t71.5 93q40 30 89.5 47.5t103.5 17.5q176 0 313 -188l27 -39v-259zM1259 1193h-743v-412q0 -42 -9.5 -78t-26.5 -67q-8 -14 -29 -37
t-54 -58q65 -64 213 -181t386 -291q-6 -10 -16.5 -26t-18.5 -30q-3 -5 -9.5 -17t-10.5 -18q-69 54 -184 143.5t-267 207.5q-58 46 -115.5 96t-106.5 99q-75 75 -113 130.5t-39 90.5q0 42 18 63.5t53 16.5q28 -3 60 -16.5t69 -35.5q4 -3 10 -3q33 0 33 143v278
q-88 0 -178.5 1t-178.5 1l-75 149h1332v-149zM1253 695q-2 2 -2.5 3.5t-2.5 3.5q2 2 2.5 3.5t2.5 3.5v-14zM1119 598q95 61 129 104q-103 178 -265 178q-90 0 -152 -58q-61 -57 -59 -135q5 -134 163 -158q31 -5 79 13.5t105 55.5z" />
    <glyph glyph-name="dv_half_sh_r" horiz-adv-x="842" 
d="M628 1098q6 64 -34 107t-103 43q-51 0 -102 -44q-60 -54 -55 -133q4 -72 61 -121q4 -2 27 -14.5t65 -33.5q56 29 95 84q20 29 32 56.5t14 55.5zM1092 596l-77 -56v1q-152 -117 -308 -235.5t-309 -236.5l-135 98l632 468q-83 31 -160 61t-161 62q-25 -17 -74 -49.5
t-124 -81.5q-77 -49 -130 -82t-76 -47l-146 105q124 64 223.5 122.5t175.5 110.5q-124 54 -187 121t-70 151q-4 73 58 153q80 100 210 101q123 2 226 -100q106 -103 106 -221q0 -59 -35 -115v1q-11 -18 -30 -42.5t-48 -54.5q48 -27 140 -58t217 -66q17 -2 41 -5.5t41 -5.5
v-99z" />
    <glyph glyph-name="dv_half_gh" horiz-adv-x="729" 
d="M896 620l-59 -44v1q-18 -14 -33 -24h1q-16 -11 -20.5 -16t-9 -9t-14 -10.5t-36.5 -21.5h1q-104 -61 -205 -61q-132 0 -242 83q-109 85 -109 201q0 78 45 128q11 14 33.5 31t51.5 35q-72 43 -116 81.5t-59 70.5q-7 14 -10.5 33t-3.5 37q0 14 1 27.5t6 30.5h-116l-85 149
h959v-149h-547q-23 -11 -42 -44q-11 -18 -13.5 -36.5t-0.5 -34.5q8 -37 34.5 -71t72.5 -61q162 0 227 -52q40 -76 45 -107q0 -12 -5 -19.5t-14 -12.5q-28 9 -75.5 18t-108.5 17q-66 1 -115 -39q-49 -39 -44 -91q4 -59 49 -97q44 -40 112 -38q38 1 88.5 23.5t114.5 66.5
l-1 -1q29 23 57 44t57 43l64 50h-1q6 5 14.5 13.5t18.5 18t18.5 18t14.5 13.5v-194z" />
    <glyph glyph-name="dv_half_t.alt" horiz-adv-x="541" 
d="M770 692q-8 -16 -22 -39t-25 -42q-134 118 -255 118q-88 0 -148 -57q-59 -54 -59 -125q0 -38 18 -68q43 -78 155 -214q51 -63 99 -117.5t92 -100.5l-75 -77q-117 111 -244 279q-74 98 -117.5 173.5t-59.5 130.5q-12 42 -12 80q0 95 110 188h-1q74 65 190 65
q102 0 202 -53v1q97 -50 151 -130zM-73 1342h611l71 -149h-608z" />
    <glyph glyph-name="dv_half_dh" horiz-adv-x="879" 
d="M533 1115q2 20 -4 39t-18 38q-24 33 -74 33q-110 0 -105 -120q2 -44 15 -74.5t42 -49.5q72 26 107 59t37 75zM1082 567q-37 -30 -76 -62.5t-74 -63.5q-130 -98 -229 -109q-8 -1 -16 -1h-15q-125 0 -247 98q-130 107 -130 210q0 126 137 194q-252 148 -252 298
q0 60 21 104t63 73q63 40 137 40q54 0 97.5 -20.5t72.5 -56.5q23 -30 36 -65.5t13 -74.5q1 -137 -183 -199q39 -20 111 -31t175 -11h40q54 -73 71 -127l-2 3q1 -4 -1 -11.5t-9 -18.5q-3 0 -7 -1q-3 -1 -6.5 -1.5t-6.5 0.5q-23 2 -75.5 4.5t-132.5 7.5q-62 -14 -104 -59
q-48 -53 -48 -108q0 -26 14 -50.5t40 -47.5t57 -34t62 -8h-1q44 5 105.5 38.5t142.5 98.5h-1q4 4 22 20t47 41.5t67 59t83 73.5zM1026 1193h-282l-80 149h362v-149z" />
    <glyph glyph-name="dv_half_bh" horiz-adv-x="896" 
d="M1012 1193h-314l-85 149h397zM1002 544h-406v-13q0 -4 0.5 -8.5t0.5 -9.5v-44q0 -91 -62 -91q-49 0 -160 104q-114 104 -114 149q0 51 82 59h103v148q-69 14 -127.5 38t-107.5 59q-60 44 -93 98.5t-34 115.5q-1 52 18.5 93.5t56.5 70.5q30 22 69 34.5t84 12.5
q60 0 112 -31t95 -90q35 -49 53 -96t18 -90v-367h412v-142zM456 1103q0 135 -96 134q-26 0 -46.5 -10t-34.5 -28t-21.5 -42t-7.5 -52q1 -121 206 -185v183z" />
    <glyph glyph-name="dv_half_t_t" horiz-adv-x="729" 
d="M967 1193h-958l-76 149h962zM1082 926l-82 -144h-288q-118 0 -183 -68q-60 -60 -60 -159q0 -93 118 -271q40 -60 80.5 -113t80.5 -101l-83 -57q-39 40 -88 109t-106 162q-32 55 -58.5 107.5t-45.5 98t-29.5 84t-10.5 65.5q0 35 15.5 72t41.5 71h-215l-88 144h1001z" />
    <glyph glyph-name="dv_half_th" horiz-adv-x="893" 
d="M1129 1193h-262l-106 149h269zM1111 567l-103 -102q-42 -30 -70.5 -50t-45.5 -28v1q-108 -58 -214 -58q-240 0 -507 295v25q34 13 77 33.5t91 46.5q41 23 72 41.5t53 34.5q-85 38 -132.5 63t-58.5 35l2 -1q-118 79 -118 209q0 54 21.5 100t60.5 80q82 72 185 70
q104 -1 210 -79q132 -100 133 -255q1 -152 -113 -257q-52 -48 -117.5 -95.5t-140.5 -93.5q63 -131 201 -139q97 -6 251 112q48 36 88 71.5t72 68.5q10 11 23.5 26.5t28 31t28 30.5t23.5 26v-242zM623 1070q0 32 -7 59.5t-20 51.5q-16 29 -39.5 46t-54.5 21q-32 5 -63 -7
t-57 -40q-54 -57 -54 -136q0 -107 209 -198q38 38 62 91.5t24 111.5z" />
    <glyph glyph-name="dv_half_d" horiz-adv-x="869" 
d="M957 19q4 43 -160 162q-25 -6 -50.5 -8.5t-53.5 -2.5q-238 0 -404 176q-141 149 -161 360q-1 8 -1 15.5v15.5q0 120 86 188q90 67 245 67h249v201h-701l-74 149h1154l76 -149h-294v-351h-330q-176 0 -234 -96q-32 -49 -32 -149q0 -218 253 -290v1q34 -10 74 -10
q26 0 50 2.5t48 9.5q-28 52 -42.5 87t-14.5 52q0 13 15 37v-1q16 31 59 31q26 0 51 -13h-1l100 -44q42 -21 63.5 -46t24.5 -51q2 -26 -20 -61t-67 -75q29 -17 57 -35.5t51 -36.5q129 -96 147 -164l-1 1q13 -41 -23 -96t-68 -69l-179 108q25 11 40.5 18.5t25.5 13.5
q41 25 42 53zM1641 -543q-7 -7 -16 -18t-23 -28q-134 133 -209.5 206.5t-80.5 78.5h1q-36 31 -85 51.5t-106 31.5q-17 3 -32 3q-18 0 -34 -3h1q-15 -4 -34 -8t-35 -7l-108 153q-13 9 -13 19q0 19 34 21q7 1 13 1.5t11 0.5q17 5 42 5q47 0 118 -18q133 -31 276 -176
q20 -20 90.5 -93.5t190.5 -202.5z" />
    <glyph glyph-name="dv_half_tt" horiz-adv-x="846" 
d="M1154 1193h-303v-437l-52 -31l-376 -93q-32 -8 -58.5 -27t-44.5 -48q-38 -57 -29 -120q10 -78 66 -135q39 -39 92 -58t122 -20q24 -1 76.5 12.5t133.5 43.5h-1q68 25 122 48t95 42l70 -146q-216 -136 -406 -132q-185 4 -327 115q-188 150 -188 324q0 186 142 238l378 93
q6 4 9 7t9 8v316h-683l-87 149h1162zM1122 -414q-12 -12 -40 -46q-135 134 -209.5 207t-80.5 78h1q-36 29 -85 50.5t-106 32.5q-17 3 -32 3q-8 0 -16.5 -0.5t-16.5 -2.5q-16 -5 -33 -8t-36 -7l-106 153q-6 4 -10.5 9t-4.5 10q0 18 35 20q8 1 13.5 1.5t11.5 0.5q9 3 20 4
t23 1q47 0 115 -17q65 -17 136.5 -62t140.5 -113q20 -20 89.5 -94t190.5 -203v-17z" />
    <glyph glyph-name="dv_half_tth" horiz-adv-x="950" 
d="M1243 1193h-361q11 -20 21.5 -40.5t20.5 -41.5q14 -26 20.5 -57t5.5 -63q-5 -108 -109 -206q48 -19 87 -43.5t74 -56.5q114 -106 114 -242q0 -150 -131 -266q-131 -115 -292 -115q-216 0 -386 151q-173 149 -173 342q0 132 96 204q35 26 88.5 46.5t125.5 32.5
q113 18 223 33q114 23 119 163q4 100 -59 159h-713l-89 149h1238zM960 487q0 202 -209 242q-71 -11 -140.5 -23t-141.5 -23h1q-204 -54 -204 -224q0 -108 112 -186q103 -74 217 -74q136 0 246 78q119 83 119 210zM1123 -444q-12 -12 -40 -46q-135 134 -210 207t-81 78h1
q-36 29 -84.5 50.5t-105.5 32.5q-17 3 -32 3q-8 0 -17 -0.5t-17 -2.5q-15 -5 -32.5 -8t-35.5 -7l-107 153q-5 4 -9.5 9t-4.5 10q0 19 35 20q8 1 13.5 1.5t10.5 0.5q9 3 20.5 4t22.5 1q48 0 116 -17q65 -17 136 -62t140 -113q20 -20 90 -94t191 -203v-17z" />
    <glyph glyph-name="dv_half_ch" horiz-adv-x="1199" 
d="M1442 1193h-373v-162q98 -51 164 -145q74 -111 69 -244q-4 -91 -46 -182.5t-120 -186.5q-82 -98 -225 -169q-72 -35 -135 -51.5t-119 -16.5q-164 0 -300 94q-138 96 -138 217q0 43 23.5 87.5t62.5 82.5q-237 122 -216 268q29 203 246 215q13 1 25.5 1.5t24.5 0.5
q48 0 83.5 -6.5t63.5 -19.5q21 -27 41 -63.5t41 -82.5q-72 12 -122 18t-73 7q-91 -7 -140 -45.5t-48 -108.5q0 -51 71 -87h-1q57 -24 105 -24q21 4 44.5 8t46 7t43 4.5t35.5 1.5q48 0 68 -14l73 -120l-7 -31l-168 4q-96 -22 -142 -68.5t-38 -114.5q15 -114 189 -114
q72 0 144 20.5t141 55.5q60 35 116.5 82t102.5 102q-48 33 -94 64.5t-93 63.5q-72 60 -108.5 121.5t-37.5 124.5q-2 178 193 261v145h-907l-85 149h1435zM1166 723q-2 81 -28 138v-1q-37 75 -107 75q-59 0 -104 -59q-44 -60 -40 -118q5 -80 57 -148t157 -128q67 116 65 241z
M1303 -475q-5 -5 -14.5 -16t-25.5 -30q-276 275 -289 286q-35 30 -83.5 51t-105.5 32q-17 3 -33 3t-34 -3h1l-12 -3q-12 -3 -28.5 -6.5t-27.5 -5.5l-108 152q-5 5 -9 10t-4 10q0 20 34 21q7 1 12.5 1.5t10.5 0.5q8 2 19 3t23 1q24 0 54 -4t65 -12q133 -35 275 -177
q20 -20 89.5 -93.5t190.5 -202.5v-18z" />
    <glyph glyph-name="dv_half_jh" horiz-adv-x="1227" 
d="M1051 584q-38 -11 -78 -17t-86 -8q-73 -3 -136 16q11 -20 21 -42t18 -42q13 -29 20 -54.5t7 -45.5q0 -97 -88 -180q-47 -43 -106.5 -71.5t-136.5 -41.5q46 -54 121 -132.5t180 -184.5l-76 -77q-130 162 -212 254.5t-120 117.5q-231 18 -240 188q-1 19 4 37t18 35h-1
q27 35 75 35q45 0 88 -53q17 -22 31.5 -42t31.5 -43q67 3 122.5 22t102.5 54q83 66 86 145q2 32 -17 58.5t-61 29.5q-35 -9 -77 -20t-77 -20q-15 -4 -38 -4q-35 0 -71 13q-90 33 -167 152q-76 119 -80 215q-2 62 53 105q62 47 164 47l244 2q5 2 8.5 3t8.5 5v153h-582
l-90 149h1416l79 -149h-677v-207q0 -102 -69 -102h-300q-49 0 -87 -38q-37 -39 -33 -78q7 -68 62 -100q20 -12 42 -15.5t46 -0.5h-1q36 8 71 17t71 17q8 1 16.5 1h17.5q35 0 69 -7t66 -23q48 0 90.5 6t77.5 16q51 14 96 33t83 41v-169z" />
    <glyph glyph-name="dv_half_dd" horiz-adv-x="1048" 
d="M1261 1193h-289v-294l-21 -21h-392q-144 0 -157 -115q-5 -44 18 -89h-1q26 -43 62 -60q60 11 135.5 22t171.5 25q55 7 112.5 -18t111.5 -76q55 -52 83.5 -109.5t28.5 -118.5q0 -116 -94 -200q-104 -93 -284 -93q-107 0 -222.5 52t-230.5 147q-36 31 -72 67t-70 74
t-64.5 76.5t-53.5 74.5l75 49q8 -11 19.5 -25.5t19.5 -25.5q18 -23 37 -46.5t36 -48.5h-1q88 -103 187 -167q66 -36 142 -58t152 -22q111 0 197 59q90 58 90 155t-91 97q-4 0 -15.5 -0.5t-33 -2.5t-54 -7t-78.5 -15q-97 -22 -138 -23q-121 -8 -229 139q-48 67 -72 130.5
t-24 125.5q0 77 71 127l-1 -1q60 45 136 45h367v171h-809l-97 149h1250zM1303 -465q-5 -5 -15 -16t-25 -30q-140 139 -211.5 210t-78.5 76q-35 30 -83.5 51t-105.5 32q-17 3 -32 3q-17 0 -35 -3h1l-11 -3q-13 -3 -29 -6.5t-28 -5.5l-107 152q-14 10 -14 20q0 19 34 21
q7 1 12.5 1.5t10.5 0.5q8 2 19 3t23 1q24 0 54 -4t65 -12q133 -35 275 -177q20 -20 90 -93.5t191 -202.5v-18z" />
    <glyph glyph-name="dv_half_ddh" horiz-adv-x="964" 
d="M1244 1193h-276v-347h-339q-357 0 -359 -293q0 -99 68 -195q82 -115 240 -156q-44 118 -44 221q0 111 75 186t207 69q110 -6 185 -106q77 -98 77 -245q0 -116 -99 -201q-97 -82 -235 -82q-238 0 -445 234q-80 90 -126 198q-21 51 -33 97t-12 84q4 338 449 338h229v198
h-800l-92 149h1254zM986 439q-6 18 -20 33.5t-35 29.5q-22 15 -43 21.5t-41 6.5q-71 0 -124 -47q-26 -23 -42.5 -52.5t-22.5 -63.5q-2 -14 -3.5 -31t-1.5 -35q0 -45 6 -105q11 -1 19.5 -1.5t18.5 -0.5q78 0 140 31q154 72 154 173q0 18 -6 42zM1262 -465q-9 -9 -40 -46
q-276 275 -289 286q-35 30 -83.5 51t-105.5 32q-17 3 -33 3t-34 -3h1l-12 -3q-12 -3 -28.5 -6.5t-27.5 -5.5l-108 151q-13 11 -13 21q0 20 34 21q7 0 12.5 0.5t10.5 0.5q18 5 42 5q23 0 53 -4t65 -12q134 -35 276 -177q20 -20 89.5 -93.5t190.5 -202.5v-18z" />
    <glyph glyph-name="dv_half_ss" horiz-adv-x="701" 
d="M321 1192l579 -559l-98 -114l-12 -9h1q-27 -20 -55 -41l-56 -42q-66 -41 -145 -41q-148 0 -259 114q-109 109 -109 231v462h-162l-85 149h980l100 -150h-679zM325 1072v-385q0 -48 6.5 -83.5t17.5 -55.5q28 -45 99 -53q70 -6 175 72q66 48 114 102z" />
    <glyph glyph-name="dv_half_h" horiz-adv-x="1094" 
d="M1169 1193h-247v-270q0 -19 -34 -55h-443q-67 0 -110 -26q-48 -26 -48 -71q0 -38 21.5 -67.5t61.5 -49.5q11 5 21.5 9.5t21.5 9.5q8 4 17 8l18 8q76 27 175 27q142 0 255 -116q103 -108 103 -215q0 -76 -70 -137q-68 -62 -143 -65l-91 123q165 53 165 153q0 30 -11 54.5
t-29.5 42t-44.5 27t-56 9.5q-116 0 -207 -64q-116 -77 -116 -219q0 -66 42 -123.5t127 -105.5q54 -31 142 -63.5t213 -67.5l-24 -86q-54 17 -103.5 32.5t-80.5 27.5q-75 28 -134 56t-100 57q-243 166 -243 343q0 96 43 167q6 8 10 13.5l8 11t8.5 11.5t9.5 14
q-17 21 -35.5 42t-37.5 42q-63 88 -63 177q0 58 47 106q46 49 114 49h433v181h-749l-87 149h1162zM1021 -634q-5 -5 -14.5 -16.5t-25.5 -29.5q-60 59 -110.5 109.5t-85.5 84.5q-44 44 -66.5 66t-25.5 25q-36 29 -85.5 50.5t-104.5 32.5q-17 3 -33 3t-34 -3h1
q-14 -4 -33 -8.5t-34 -7.5l-110 154q-12 8 -12 18q0 20 34 21q8 1 13 1.5t11 0.5q9 3 20.5 4t22.5 1q24 0 53 -4t64 -13q130 -32 275 -176q20 -20 89.5 -93.5t190.5 -202.5v-17z" />
    <glyph glyph-name="dv_half_t_r" horiz-adv-x="818" 
d="M-5 1193l-78 149h902l80 -149h-904zM865 717q-60 43 -118 85.5t-118 85.5q-86 68 -216 68q-17 0 -34 -1.5t-32 -4.5q-45 -8 -89 -16.5t-91 -17.5q20 -25 45.5 -57.5t45.5 -58.5q10 2 42.5 6.5t69 8.5t67.5 6.5t39 0.5q32 -8 51 -16.5t31 -16.5t21 -15t21 -13l128 -109
l-490 -308q14 -14 27.5 -33t25.5 -37.5t23 -34t20 -22.5q134 87 265.5 171t265.5 172v157z" />
    <glyph glyph-name="dv_sh_r" horiz-adv-x="1405" 
d="M630 1098q6 64 -34 107q-39 43 -103 43q-51 0 -101 -44q-61 -54 -56 -133q5 -72 62 -121q7 -5 91 -48q30 15 52.5 35.5t42.5 48.5q42 58 46 112zM1094 596l-77 -56v1q-152 -117 -308 -235.5t-308 -236.5l-135 98l631 468q-83 31 -160 61t-161 62q-49 -34 -198 -131
q-77 -49 -130 -82t-76 -47l-146 105q124 64 223.5 122.5t175.5 110.5q-124 54 -187 121t-70 151q-4 72 59 153q78 99 210 101q122 2 225 -100q106 -102 106 -221q0 -58 -34 -115v1q-11 -18 -30 -42.5t-48 -54.5q47 -27 139 -58t217 -66q18 -2 41.5 -5.5t40.5 -5.5v-99z
M1478 1193h-260l1 -1193l-158 62v1131h-198l-94 149h617z" />
    <glyph glyph-name="dv_half_j_nya" horiz-adv-x="741" 
d="M829 1193h-827l-90 149h831zM970 1018l7 -159h-510q2 -1 4 -2.5t4 -2.5l85 -59q50 -37 87.5 -71t64.5 -65q72 -92 72 -178q0 -202 -255 -288q73 -79 149 -163t148 -162l-83 -74l-314 369q-63 11 -100.5 18.5t-49.5 13.5q-26 13 -48 40t-39 69v-1q-8 15 -11 30.5t-3 29.5
q0 47 37 76q15 11 27.5 16t26.5 5q19 0 55.5 -30.5t93.5 -94.5q74 -5 136 42q65 47 65 128q0 110 -121 216q-126 111 -343 194q15 86 46 103h769z" />
    <glyph glyph-name="dv_half_nga" horiz-adv-x="1279" 
d="M1232 719l-147 -148l-157 154l155 143zM1417 1193h-466v-206q5 -55 -15.5 -84t-65.5 -29h-368q-46 0 -85 -40q-38 -40 -38 -91q0 -128 111 -128q8 0 30 3t60 10q46 8 92.5 14t88.5 10q58 3 118 -27.5t105 -83.5q83 -106 83 -212q0 -67 -31.5 -121.5t-92.5 -97.5
q-105 -72 -221 -70q-228 5 -459 209q-29 26 -92.5 94t-163.5 181l73 58q187 -221 260 -275q150 -119 348 -120q93 0 164 53q38 30 58.5 69.5t25.5 87.5q2 50 -12.5 76.5t-56.5 26.5q-11 -2 -22.5 -2.5t-23.5 -2.5q-14 -2 -31.5 -4t-39.5 -4q-122 -12 -204 -12
q-18 0 -34.5 0.5t-30.5 1.5q-37 4 -77 35.5t-85 94.5q-85 122 -84 230q1 44 18 78t47 58q27 21 62 33t76 12h353v175h-796l-82 149h1421zM1343 -515q-5 -5 -14.5 -16t-25.5 -30q-276 275 -289 286q-35 30 -83.5 51t-105.5 32q-17 3 -33 3t-34 -3h1l-12 -3q-12 -3 -28.5 -6.5
t-27.5 -5.5l-108 152q-13 10 -13 20q0 20 34 21q7 1 12.5 1.5t10.5 0.5q8 2 19 3t23 1q23 0 53 -4t65 -12q134 -35 276 -177q20 -20 89.5 -93.5t190.5 -202.5v-18z" />
    <glyph glyph-name="dv_ss_tt" horiz-adv-x="1155" 
d="M1219 1193h-237v-502q0 -124 -95 -156l-394 -124q-187 -58 -187 -200q0 -29 17 -54t49 -46q31 -17 67 -26.5t74 -9.5q51 0 114.5 14t139.5 40q121 40 212 94l88 -140q-41 -29 -108.5 -56.5t-164.5 -56.5q-50 -14 -145 -14q-116 0 -206 29t-153 86q-55 52 -83.5 102.5
t-28.5 98.5q0 84 36 138q24 36 67 64.5t109 52.5q-72 64 -113 132.5t-41 131.5v402h-226l-90 149h1218zM822 676v517h-400zM382 1100v-341q0 -52 26 -110q31 -61 72 -82q12 1 130 34q31 8 53.5 14t39 10.5t28 8.5t19.5 7z" />
    <glyph glyph-name="dv_s_v" horiz-adv-x="1827" 
d="M1877 1193h-243v-1193l-160 84v422q-17 -11 -31.5 -20t-31.5 -20q-13 -8 -25.5 -16.5t-25.5 -16.5q-109 -65 -189 -63q-57 1 -108.5 16t-98.5 44q-48 30 -79.5 67t-46.5 85h-1q-229 0 -313 69q-67 -86 -189 -154q21 -28 69.5 -83t114.5 -126q48 -49 98 -104
q28 -29 60 -63t61 -65l-76 -78q-168 187 -279.5 317t-162.5 194q-115 152 -110 227q2 42 20.5 60t49.5 14q20 -1 87 -32q65 -30 89 -26q24 3 24 59q-1 104 -2 201t-2 201h-382l-85 149h1887zM1474 1193h-950q5 -114 11 -224t11 -225q26 -18 68.5 -27.5t105.5 -13.5h-1h11.5
t17.5 1q5 0 12 0.5t13 0.5q20 2 26 2.5t10 0.5q4 57 26.5 107t61.5 89q84 84 212 84q143 0 238 -75q15 -12 46 -46t81 -94v420zM1480 679q-4 3 -10 9l10 9v-18zM1296 560q49 28 92.5 59.5t81.5 68.5q-191 167 -316 167q-96 0 -165 -63q-68 -60 -63 -160q6 -137 185 -137
q73 0 186 65h-1z" />
    <glyph glyph-name="dv_nga_gh" horiz-adv-x="1380" 
d="M1334 787l-133 -132l-136 136l132 132zM1443 1193h-444v-228q11 -100 -67 -100h-315q-49 0 -91 -33q-41 -31 -41 -75q0 -67 65 -67q8 0 19 1t25 3l241 32q48 6 95 -12.5t89 -58.5q35 -34 55.5 -70t28.5 -72q5 -29 -8 -65t-42 -75v-933l-139 86v211q-82 -57 -156.5 -84
t-142.5 -27q-124 0 -230 88q-107 89 -107 182q0 70 39 118q11 16 31 32.5t48 34.5q-27 17 -53.5 41t-49.5 52q-55 67 -55 117q0 58 20.5 101.5t66.5 75.5q-60 52 -116.5 115t-99.5 129l72 53q263 -379 577 -379q78 0 157 47q77 45 77 82q0 28 -8 45.5t-22 27.5
q-13 7 -31.5 9.5t-41.5 -1.5l-248 -28q-46 -3 -93.5 16.5t-91.5 64.5q-89 91 -89 182q0 69 59 117q58 45 132 45h306v200h-855l-83 149h1435zM916 280q-23 -8 -47 -10.5t-49 -2.5q-66 0 -150 21t-190 66q-13 -7 -27 -20.5t-29 -32.5q-29 -43 -25 -71q12 -77 88 -117
q12 1 24.5 1.5t25.5 0.5q101 0 162 -40q38 -76 38 -101q0 -23 -18 -27q-48 10 -93.5 14.5t-87.5 4.5q-47 0 -91 -41t-44 -92q0 -21 12 -41t31 -34q23 -16 51.5 -24.5t60.5 -8.5q72 0 190 73q100 60 166 130z" />
    <glyph glyph-name="dv_t_t_v" horiz-adv-x="2218" 
d="M2268 1193h-205v-1193l-164 84v391q-148 -121 -317 -121q-54 0 -115 28t-118 73q-66 57 -100.5 124t-34.5 144q0 19 6 46h-21q-63 0 -108.5 -15.5t-74.5 -50.5v-703l-162 63v717q-23 5 -68.5 7.5t-116.5 2.5q-134 0 -216 -81q-82 -82 -82 -192q0 -109 117 -247v1
q47 -53 174 -171l-74 -89q-59 54 -116 120.5t-108 140.5q-66 96 -103 182t-37 149q0 92 79 174h-205l-94 149h848v267h-850l-87 149h2272zM1899 800v393h-883v-319q61 42 161 42q26 0 55.5 -4t55.5 -10q51 57 115.5 87.5t140.5 30.5q63 0 136 -29q32 -13 56 -28t38 -29z
M1920 655q-6 6 -8 10q2 2 4.5 4t5.5 4zM1723 533q32 18 78.5 51t110.5 81q-93 116 -165 157h1q-66 40 -176 46q-83 6 -152 -56q-68 -57 -68 -142q0 -7 0.5 -13.5t1.5 -14.5v1q10 -85 70 -130v1q50 -38 120 -38q39 0 83.5 14t95.5 43z" />
    <glyph glyph-name="dv_j_j" horiz-adv-x="1425" 
d="M1499 1193h-225l1 -1193l-159 78v341q-50 -11 -95.5 -22t-90.5 -21.5t-91 -21.5t-97 -22q72 -54 106 -105.5t34 -103.5q0 -71 -60 -137q-33 -36 -74 -55t-89 -19q-279 0 -547 443l78 58q42 -69 83.5 -124.5t87.5 -101.5q129 -130 233 -130q30 0 54 9.5t44 28.5
q40 36 40 74q0 27 -19.5 57t-55.5 59q-31 23 -64 41.5t-65 29.5q0 8 1 23.5t4 32.5l583 160v331h-405q95 -101 95 -202q0 -35 -18 -67t-50 -59q-66 -54 -145 -54q-165 0 -297 186q-104 145 -162 354l86 30q43 -138 116 -255q101 -164 199 -164q44 0 79 23q48 30 48 92
q0 92 -142 204q2 3 4 11t4 11q2 5 5 13t8 16h575v151h-1114l-80 149h1496z" />
    <glyph glyph-name="dv_sh_l" horiz-adv-x="1432" 
d="M1503 1193h-288v-711q88 -86 88 -223q0 -44 -22.5 -90t-64.5 -93q-35 -37 -70.5 -65t-70.5 -43l-96 97q41 23 78.5 51t69.5 62q80 78 80 145q0 112 -109 112q-110 0 -269 -258l-92 91q10 33 30.5 69.5t49.5 69.5q-20 24 -51.5 34.5t-76.5 10.5q-56 0 -102 -50
q-27 -28 -40 -62t-13 -73q0 -92 89 -197q30 -37 67 -70.5t79 -65.5l-52 -74q-54 42 -103.5 89t-89.5 94q-64 76 -97.5 145.5t-33.5 130.5q0 50 17 92t50 79q67 76 160 76q71 0 145 -41v1q2 -2 17 -11.5t41 -26.5q12 -8 21.5 -13.5t26.5 -16.5q11 14 28.5 28t35.5 26
q29 16 59.5 26t60.5 12v49q-122 34 -220.5 71t-177.5 76q-31 -18 -79.5 -43t-99.5 -48q-72 -32 -136.5 -55.5t-117.5 -37.5l-38 12l-107 108q106 15 219 58q116 44 196 94q-117 51 -179 118t-68 152q-4 74 62 151q86 95 216 95q54 0 108 -29t106 -85q49 -54 74.5 -101.5
t25.5 -89.5q0 -55 -26.5 -110.5t-85.5 -118.5q66 -37 146 -63t182 -47v487h-144l-75 149h600zM709 1088q4 60 -35 107q-41 44 -100 44q-51 0 -100 -47q-58 -52 -53 -134q2 -57 40 -99t113 -66q23 15 46.5 37.5t43.5 47.5q17 26 30 55.5t15 54.5z" />
    <glyph glyph-name="dv_nga_gh_r" horiz-adv-x="1346" 
d="M1314 787l-134 -132l-136 136l132 132zM1415 1193h-436v-228q11 -100 -65 -100h-318q-23 0 -46.5 -8t-43.5 -25q-41 -32 -41 -75q0 -67 67 -67q8 0 18 1t24 3l242 32q99 13 185 -71q35 -35 56.5 -69.5t27.5 -72.5v1q6 -29 -6.5 -63.5t-45.5 -77.5v-914l-137 86v185
q-21 -11 -80.5 -42t-158.5 -83q-119 -63 -194 -102.5t-102 -54.5l-148 98l233 119q-76 41 -129 98q-58 65 -58 133q0 70 39 118h-1q12 17 31.5 33t48.5 34q-27 18 -52 41t-51 52q-55 67 -55 117q0 58 20.5 101.5t66.5 75.5q-59 51 -116 114.5t-102 130.5l73 53
q264 -380 579 -380q79 0 155 47q76 45 76 82q0 28 -7.5 45.5t-21.5 27.5q-13 7 -31.5 9.5t-41.5 -1.5l-248 -28q-46 -3 -93.5 16.5t-91.5 64.5q-89 89 -89 182q0 69 58 117q58 45 133 45h305q0 53 -1 99.5t-1 100.5h-842l-85 149h1424zM538 -300q-113 0 -119.5 6.5
t109.5 18.5h10v-25zM896 -113v393q-23 -8 -47 -10.5t-49 -2.5q-131 0 -338 88q-30 -14 -60 -53q-15 -21 -21 -38t-2 -34q8 -37 29.5 -66.5t63.5 -50.5q11 1 22 1.5t22 0.5q101 0 163 -40q38 -76 38 -101q0 -23 -18 -27q-48 10 -93 14.5t-86 4.5q-48 0 -92 -41
q-45 -43 -45 -92q0 -46 43 -75q40 -30 102 -33q25 3 57 6z" />
    <glyph glyph-name="dv_l_l" horiz-adv-x="1241" 
d="M1312 1193h-336v-183q21 -15 39.5 -38t35.5 -53q44 -82 44 -158q0 -114 -127 -238q48 -36 83 -99q40 -75 40 -147q0 -88 -89 -189q-72 -78 -148 -112l-102 103q93 48 157 112q82 83 82 154q0 53 -30.5 83t-82.5 30q-72 0 -149 -93q-18 -22 -46 -65t-66 -108l-96 96
q9 31 29.5 67t54.5 77q-22 26 -54.5 37.5t-79.5 11.5q-54 0 -101 -56q-48 -54 -48 -140q0 -97 92 -204q32 -40 69 -74.5t82 -65.5l-55 -76q-113 82 -201 186q-137 161 -137 290q0 139 117 221q-102 138 -102 260q0 48 16.5 93t48.5 81q68 76 162 76q111 0 260 -105
q11 10 29 21t39 24q23 14 43.5 21.5t37.5 9.5v150h-816l-79 149h1305zM991 822q0 115 -103 115q-112 0 -261 -269l-94 96q8 32 27 66.5t48 72.5q-16 24 -46 38.5t-72 14.5q-57 0 -106 -54q-49 -55 -49 -137q0 -87 64 -167q104 -6 260 -114q18 23 50 43t77 37q1 3 4 4
q68 37 128 106q73 80 73 148z" />
    <glyph glyph-name="dv_nga_k" horiz-adv-x="1362" 
d="M1316 787l-133 -132l-136 136l132 132zM1472 -249q0 -135 -75 -231l-131 114q90 129 90 216q0 112 -89 112q-52 0 -127 -48h1l-84 -60q-8 -5 -15 -9t-15 -10v-482l-151 113v261q-85 -81 -207 -81q-47 0 -95 17t-99 49q-138 88 -138 247q0 121 92 186h-1q75 54 189 54
q98 0 166 -62q3 -4 8 -9.5t8 -9.5v1l21 -24.5t17.5 -20t17.5 -19.5t21 -23v240q-18 -2 -36.5 -3.5t-37.5 -1.5q-127 0 -248.5 49t-236.5 143q-66 55 -123 119t-101 134l70 53q263 -379 580 -379q78 0 154 47q76 45 76 82q0 53 -29 73q-12 7 -30.5 9.5t-41.5 -1.5l-248 -28
q-47 -3 -94 16.5t-92 64.5q-89 89 -89 182q0 69 59 117q58 45 133 45h304v200h-836l-81 149h1419l76 -149h-444v-228q11 -100 -62 -100h-319q-48 0 -90 -33q-41 -32 -41 -75q0 -67 68 -67q8 0 18 1t24 3l241 32q51 7 97 -11t89 -60q71 -69 84 -142v1q3 -11 -0.5 -26.5
t-11.5 -37.5v1q-16 -49 -49 -91v-353q68 48 114 68.5t82 20.5q40 0 80.5 -24t81.5 -71q87 -108 87 -250zM897 -101q-3 3 -7 9q4 6 7 8v-17zM751 -197q83 46 139 105q-114 150 -256 150q-89 0 -142 -62v1q-43 -50 -43 -118q0 -59 53 -94q23 -14 48.5 -21.5t51.5 -7.5
q62 0 149 47z" />
    <glyph glyph-name="dv_t_n" horiz-adv-x="1309" 
d="M1380 1193h-207v-1213l-164 112v527q-71 -25 -137 -47.5t-138 -47.5q12 -72 17.5 -114.5t5.5 -55.5q0 -36 -38 -42q-26 -6 -50 6h1q-109 58 -186 155v-1q-21 24 -21 51q0 40 69 66l444 157q-44 24 -69.5 37t-33.5 16q-118 50 -245 50q-77 0 -141.5 -18t-115.5 -52
q-54 -38 -82 -88.5t-28 -111.5q0 -186 261 -469l-81 -65q-48 56 -94 116.5t-84 120.5q-66 106 -101 197t-35 166q0 171 130 262h-1q120 85 318 85q192 0 282 -67l153 -116v384h-1008l-87 149h1383z" />
    <glyph glyph-name="dv_tt_tt" horiz-adv-x="1149" 
d="M1233 1193h-357v-198q0 -35 -4 -42v2q-9 -28 -42 -29l-326 -18q-97 -6 -150.5 -46.5t-53.5 -114.5q0 -78 101 -120q45 -18 97.5 -27.5t114.5 -9.5q150 0 377 124l74 -136q-28 -16 -75 -38t-113 -48v-239q0 -37 -4 -44v2q-9 -26 -42 -28l-326 -19q-97 -7 -150.5 -47
t-53.5 -112q0 -78 101 -120q91 -38 212 -38q141 0 377 124l74 -135q-185 -118 -360 -126q-8 -1 -19.5 -1h-20.5q-148 0 -253 54q-50 28 -91 63t-73 79q-64 89 -64 184q0 85 59 142.5t170 66.5l315 20v138q-17 -2 -31 -2h-31q-77 0 -140 14t-114 40q-99 55 -163 141
q-65 87 -65 182q0 43 15 80t44.5 65t72 45.5t97.5 20.5l315 20v131h-723l-87 149h1238z" />
    <glyph glyph-name="dv_s_n" horiz-adv-x="1573" 
d="M1640 1193h-208l-1 -1193l-156 90v460q-34 -11 -63.5 -22t-56.5 -21h1q-63 -24 -104 -43.5t-58 -33.5q26 -116 26 -141q0 -59 -49 -59q-25 0 -61 16t-84 47q-48 32 -79 57.5t-48 47.5q-10 17 -10 27q0 47 69 74l507 201q-181 88 -264 84q-52 -3 -120.5 -13.5
t-146.5 -28.5q-71 -16 -124.5 -32t-84.5 -30q-16 -19 -32 -37.5t-32 -36.5q-5 -5 -30 -28t-79 -70q44 -42 162.5 -149t307.5 -278v-16l-59 -75h-16q-51 50 -148.5 147t-239.5 243q-35 35 -77 75t-77 75q-44 49 -88 129q-17 34 -17 62q0 63 61 64q10 0 30.5 -4t52.5 -13
q69 -20 93 -23q8 0 20 43q14 50 15 101q1 23 1 44.5v41.5q0 67 -3.5 121.5t-10.5 96.5h-371l-89 149h1656zM1273 1193h-764q8 -103 12.5 -185t4.5 -157q36 8 72.5 16t71.5 17q73 16 124.5 23t81.5 7q88 0 188.5 -28.5t208.5 -82.5v390z" />
    <glyph glyph-name="dv_t_t" horiz-adv-x="1192" 
d="M1269 1193h-211q0 -299 -0.5 -596.5t-0.5 -596.5l-162 66l-2 718h-222q-134 0 -204 -73q-71 -74 -71 -187q0 -82 76 -195.5t231 -261.5l-88 -63q-51 52 -103.5 117.5t-103.5 140.5q-75 111 -116.5 202t-41.5 153q0 42 19 84.5t54 82.5h-205l-90 148h869v261h-895l-87 149
h1269z" />
    <glyph glyph-name="dv_j_nya" horiz-adv-x="1260" 
d="M1334 1193h-226l-8 -1193l-147 86v773h-484q2 -1 4 -2.5t4 -2.5l85 -59q50 -37 87.5 -71t64.5 -65q72 -90 72 -178q0 -202 -255 -288q73 -79 149 -163t148 -162l-83 -74l-314 369q-63 11 -100.5 18.5t-49.5 13.5q-26 13 -48 40t-39 69v-1q-8 15 -11 30.5t-3 29.5
q0 47 37 76q15 11 27.5 16t26.5 5q19 0 56 -30.5t94 -94.5q73 -5 135 42q65 47 65 128q0 110 -121 216q-126 111 -343 194q8 46 26.5 68.5t45.5 22.5h724v187h-949l-90 149h1339z" />
    <glyph glyph-name="dv_d_r" horiz-adv-x="1032" 
d="M194 -95l-129 113l467 246q-7 2 -12 3t-10 3q-144 35 -237 139t-129 263q-11 46 -11 89q0 267 305 267h265v165h-704l-85 149h1106l78 -149h-241v-260q0 -51 -57 -51h-306q-191 0 -191 -259q0 -128 106 -201q94 -65 211 -65h17.5t16.5 1q-5 9 -11 22t-17 33
q-24 50 -22 73q6 60 62 60q21 0 41 -10q88 -34 135 -70.5t47 -74.5q0 -30 -22.5 -54t-73.5 -44q59 -89 117 -179t115 -180q0 -23 -10 -45.5t-27 -44.5q-13 -16 -27.5 -28.5t-29.5 -19.5l-184 114q26 9 44.5 16.5t27.5 12.5h-1q43 27 44 57q2 23 -32 83.5t-100 156.5z" />
    <glyph glyph-name="dv_h_y" horiz-adv-x="1419" 
d="M1485 1193h-212l2 -1193l-155 63v181q-27 -21 -56 -43.5t-56 -42.5q-107 -68 -208 -68q-102 0 -205 85q-90 78 -90 132q0 45 41 78l159 119q29 15 29 47q0 59 -100 59q-126 0 -239 -98q-112 -98 -112 -201q0 -96 222 -229q41 -25 108 -48.5t162 -46.5l-37 -76
q-23 12 -70.5 29.5t-115.5 38.5q-120 41 -192 85q-54 34 -92.5 65.5t-63.5 57.5q-32 39 -49.5 85.5t-17.5 96.5q0 76 27 130q10 17 27 39t43 50q-43 54 -64.5 83t-24.5 35l1 -2q-25 40 -38 77t-13 72q0 75 68 123h-1q29 20 61 31t67 11h387v175h-682l-85 149h1500z
M1120 1193h-295v-256q0 -65 -72 -65h-407q-127 0 -127 -107q0 -35 35 -70q33 -33 59 -39q155 74 310 74q44 0 88 -24.5t86 -71.5q38 -43 58 -81.5t20 -70.5q0 -17 -9 -29q-12 -14 -30.5 -31t-46.5 -39q-34 -26 -61.5 -48.5t-50.5 -43.5q-20 -20 -20 -40q0 -27 23 -41
q19 -12 48 -12q25 0 55 9q33 11 72.5 31.5t81.5 49.5q57 38 101.5 81.5t79.5 93.5z" />
    <glyph glyph-name="dv_nga_kh" horiz-adv-x="1352" 
d="M1332 809l-138 -138l-133 134l138 138zM1414 1193h-405q0 -65 -1 -129t-1 -129q0 -55 -43 -55h-304q-172 0 -172 -85q0 -47 11 -61q16 -25 73 -18l263 29q40 3 83.5 -13t87.5 -53q97 -82 97 -186q0 -33 -26 -74v-1023l-135 134v294q-57 -39 -114 -56.5t-111 -13.5
q-51 3 -97 22t-83 51h1q-38 33 -57.5 73t-19.5 85q0 97 77 163q34 28 72.5 43t81.5 15q91 0 153 -40q23 -17 47 -40.5t52 -61.5v251q-91 -35 -176 -35q-176 0 -385 152v-341q0 -46 -32.5 -101.5t-95.5 -121.5q47 -67 108.5 -150.5t130.5 -177.5l-59 -106q-26 39 -61.5 93
t-70.5 106q-23 36 -49.5 75t-54.5 82q-32 49 -53 82.5t-31 50.5v-1q-50 82 -53 117q-4 25 11.5 39.5t50.5 15.5q20 1 45 -4t52 -16l-1 1q41 -12 41 109l-2 370q-44 45 -84 91.5t-70 82.5l76 48q125 -164 269 -267h-1q140 -100 295 -100q45 0 88.5 12.5t81.5 35.5
q78 49 78 92q0 62 -80 62q-8 0 -16.5 -0.5t-19.5 -1.5l-220 -27q-60 -7 -112 17t-99 77q-82 94 -82 179q0 69 53 114q51 45 130 45h320v177q-216 0 -433 1t-432 1l-76 149h1409zM944 -32q-2 3 -6 7l7 7zM818 -102q88 46 120 77q-77 113 -210 113q-61 0 -116 -47
q-27 -23 -40 -50t-13 -57q0 -83 113 -85q25 0 61 12.5t85 36.5z" />
    <glyph glyph-name="dv_n_n" horiz-adv-x="1161" 
d="M1226 1193h-200l1 -1193l-161 84v496q-100 -54 -195.5 -106.5t-196.5 -106.5q3 -13 6 -28t8 -33l8.5 -34l9.5 -38q15 -74 -66 -74q-16 0 -45.5 15.5t-72.5 44.5q-47 33 -73.5 63t-26.5 54q0 56 68 99l38 19q11 5 20.5 10t20.5 10v-1q54 28 105 55t101.5 53.5t101.5 53
t104 55.5q-59 51 -126.5 84.5t-142.5 48.5q-54 12 -122 12h-22.5t-23.5 -1q0 -43 -2.5 -76t-6.5 -50q-8 -27 -22.5 -41t-38.5 -14q-37 0 -113 90q-74 90 -75 137q-2 111 232 111q72 0 150 -24.5t158 -69.5q59 -34 113.5 -76t100.5 -88h26v459h-869l-80 149h1239z" />
    <glyph glyph-name="dv_h_v" horiz-adv-x="1135" 
d="M1210 1193h-268v-232q0 -83 -71 -83h-494q-115 0 -115 -100q0 -45 66 -104q11 3 21.5 5.5t21.5 5.5q16 5 32 8.5t31 8.5q108 28 205 28q82 0 158.5 -21t140.5 -57q57 -35 88.5 -72t31.5 -75v-647l-144 88v154q-59 -34 -112 -52t-99 -18q-44 0 -87 18t-83 50
q-44 37 -67.5 79t-23.5 88q0 85 68 150q68 67 161 67q86 0 114 -11q21 -8 52.5 -27.5t76.5 -54.5v122q0 49 -29 70l1 -1q-26 19 -75 27.5t-121 8.5q-75 0 -147.5 -22t-135.5 -64q-65 -47 -104.5 -109.5t-39.5 -131.5q0 -129 130 -253q113 -109 365 -245l-58 -83
q-100 56 -188 115.5t-155 113.5q-125 108 -193.5 216t-68.5 208q0 141 152 275q-105 132 -105 231q0 66 56 116q56 47 135 47h455v163h-782l-94 149h1212zM914 293q-31 38 -76 54.5t-106 16.5q-62 0 -117 -54t-55 -103q0 -71 88 -71q5 0 12.5 0.5t13.5 1.5q19 2 45 11.5
t58 25.5q42 20 78.5 44t62.5 49z" />
    <glyph glyph-name="dv_nga_g" horiz-adv-x="1380" 
d="M1330 787l-129 -132l-136 136l132 132zM1442 1193h-443v-228q11 -100 -67 -100h-315q-49 0 -91 -33q-41 -31 -41 -75q0 -67 65 -67q8 0 19 1t25 3l241 32q98 13 184 -71q71 -68 84 -142q10 -68 -57 -153l-1 -557l-145 100l-2 369q-18 -2 -38 -3.5t-40 -1.5q-69 0 -140 15
t-143 47v-319q0 -19 -7.5 -36.5t-20.5 -30.5t-31 -21.5t-39 -9.5q-34 -1 -134 90q-100 95 -100 134q0 66 93 66q15 0 53 -3q18 -2 23.5 -3t12.5 -1v222q-82 60 -150.5 133.5t-124.5 161.5l69 53q263 -379 577 -379q78 0 157 47q77 45 77 82q0 28 -8 45.5t-22 27.5
q-13 7 -31.5 9.5t-41.5 -1.5l-248 -28q-46 -3 -93.5 16.5t-91.5 64.5q-89 91 -89 182q0 69 59 117q58 45 132 45h306v200h-857l-81 149h1435z" />
    <glyph glyph-name="dv_h_r" horiz-adv-x="1128" 
d="M1200 1193h-276v-218q0 -95 -68 -95h-466q-158 0 -159 -99q-2 -51 79 -122q26 20 62.5 35t85.5 28h-1q95 26 182 26t162 -39.5t138 -115.5q54 -67 81.5 -137t27.5 -142q0 -143 -221 -300l-130 95q49 27 88 57.5t71 64.5q54 59 67 98q6 18 6 47v13.5t-1 14.5
q-1 20 -2 35.5t-5 27.5q-83 -61 -169.5 -124t-169.5 -123l-129 95l390 263q-68 42 -182 42q-67 0 -127.5 -23t-112.5 -68q-50 -45 -77 -99t-27 -114q0 -79 39.5 -150.5t114.5 -133.5q57 -46 156 -100.5t242 -118.5q-6 -13 -19 -34t-34 -48q-112 49 -208.5 102t-177.5 112
q-270 204 -270 413q0 137 86 235q-136 166 -136 264q0 76 52 122q53 47 135 47h477v167h-778l-85 149h1204z" />
    <glyph glyph-name="dv_sh_rikaar" horiz-adv-x="1315" 
d="M1377 1193h-192v-976l-46 9q-76 -13 -132.5 -28t-89.5 -33q-79 -40 -70 -115q5 -38 51 -64q50 -30 102 -24q110 12 227 57q24 -24 54 -60t67 -83q-47 -15 -102.5 -27t-124.5 -25q-94 -2 -169 25.5t-128 81.5q-42 45 -63.5 96.5t-20.5 105.5q1 68 38.5 114.5t109.5 72.5
l126 32q-115 97 -226.5 192t-226.5 192q-27 -20 -78 -54t-124 -81q-157 -101 -205 -124l-146 105q125 62 231.5 124t199.5 128q-65 58 -97.5 88t-34.5 32q-91 95 -92 173q-2 88 29 135q55 84 215 110q145 -6 234 -96q82 -85 88 -214q5 -117 -143 -257q23 -19 76 -63.5
t134 -110.5q42 -35 72 -59.5t50 -41.5t31.5 -28t16.5 -19v710h-144l-75 149h502zM654 1106q5 75 -35 115.5t-105 40.5q-55 0 -98 -32q-55 -40 -55 -123q0 -27 40.5 -78.5t125.5 -130.5q59 42 90.5 94.5t36.5 113.5z" />
    <glyph glyph-name="dv_t_r" horiz-adv-x="1149" 
d="M1222 1193h-240l1 -1193l-174 80l4 443q-120 -84 -243 -169t-242 -169q-24 21 -54.5 50.5t-68.5 67.5l585 384q-43 26 -88.5 53.5t-89.5 53.5q-29 18 -64.5 27t-76.5 9q-19 0 -37 -2t-38 -6l-167 -31l-111 143l221 42q31 6 70 6q138 0 232 -74l172 -132v417h-822l-78 149
h1234z" />
    <glyph glyph-name="dv_h_n" horiz-adv-x="1135" 
d="M1201 1193h-269v-232q0 -85 -72 -85h-493q-115 0 -115 -98q0 -43 65 -104q12 3 23 6t23 6l65 17q102 27 201 27q84 0 157.5 -17t136.5 -49q119 -64 119 -137v-573l-145 88v388q-50 -29 -95 -54.5t-96 -54.5q39 -80 39 -128q0 -57 -55 -57q-12 0 -42 8q-206 129 -206 153
q0 46 50 69h-1q101 51 197.5 99t197.5 99v22q-93 34 -203 34q-154 0 -273 -82q-135 -89 -135 -237q0 -248 512 -473q-19 -44 -51 -85q-91 40 -176.5 90.5t-169.5 113.5q-280 214 -280 420q0 139 135 261q-113 141 -113 239q0 69 55 118q56 47 138 47h453v161h-779l-80 149
h1201z" />
    <glyph glyph-name="dv_sh_v" horiz-adv-x="1334" 
d="M1402 1193h-219v-1185l-159 104v145q-158 -135 -317 -135q-97 0 -205 87q-120 97 -120 216q0 51 23.5 96.5t68.5 85.5q42 36 90 55.5t101 19.5q31 0 77 -8q-23 14 -50.5 28.5t-53.5 29.5q-25 14 -47.5 26.5t-50.5 27.5q-129 -65 -226 -108.5t-164 -69.5l-27 10l-84 99
q22 8 75.5 31.5t125.5 56.5h-1q68 33 100 48t44 23q-39 29 -69 56t-47 46q-57 62 -57 134q0 37 17 77t44 76q38 47 90 72t116 25q110 0 206 -92v1q99 -90 99 -180q0 -45 -13.5 -83t-39.5 -70q-12 -16 -39 -40t-67 -55q208 -110 401 -260v610h-142l-81 149h529zM654 1118
q0 123 -119 123q-51 0 -108 -55q-55 -52 -55 -119q0 -82 90 -141q36 18 66.5 39.5t59.5 47.5q66 60 66 105zM1024 470q-27 22 -60 38.5t-76 28.5q-72 21 -133 21h-14.5t-14.5 -1q-75 -7 -143 -60q-70 -58 -70 -134q0 -63 38.5 -96.5t95.5 -33.5q38 0 81.5 13t92.5 38
q56 28 106 68t95 91z" />
    <glyph glyph-name="dv_nya_j" horiz-adv-x="1417" 
d="M1479 1193h-212q0 -299 -0.5 -597t-0.5 -596l-162 92l-2 337q-48 -12 -92 -24t-87.5 -23.5t-88.5 -23t-93 -23.5q72 -54 106.5 -106t34.5 -104q0 -71 -60 -137q-33 -36 -74 -55t-89 -19q-281 0 -547 443l78 58q42 -69 83.5 -124.5t87.5 -101.5q129 -130 233 -130
q57 0 98 38q40 37 40 74q0 27 -19.5 57t-55.5 59q-31 23 -64 41.5t-65 29.5q0 8 1 23t4 32q72 22 212.5 64.5t356.5 108.5v172q-5 0 -7.5 -0.5t-8.5 -0.5q-52 0 -98.5 6.5t-87.5 18.5q-19 -88 -91 -151q-93 -81 -236 -81q-149 0 -327 131q-120 89 -185 178l79 62
q71 -95 167 -159q57 -40 110.5 -59t104.5 -19q103 0 174 68q65 62 65 145q0 52 -28 87q-27 35 -74 35q-59 0 -215 -148l-130 123q87 110 278 110q53 0 100.5 -16t92.5 -47q43 -31 68.5 -64.5t30.5 -73.5q5 -1 13.5 -1h15.5q93 0 189 30v261h-1103l-90 149h1488z" />
    <glyph glyph-name="dv_nga_m" horiz-adv-x="1362" 
d="M1320 787l-130 -132l-135 136l131 130zM1428 1193h-437v-230q0 -98 -69 -98h-316q-23 0 -46.5 -8.5t-43.5 -25.5q-41 -32 -41 -76q0 -65 67 -65q8 0 18 1t24 3l241 30q100 12 186 -71q69 -68 84 -142q8 -42 -9 -83q-1 -250 -1.5 -507.5t-1.5 -507.5l-145 96v327h-467
q0 -47 -0.5 -75.5t-1.5 -35.5q-8 -68 -54 -69q-34 -2 -135 96q-99 96 -99 138q0 59 59 70l-8 -10q5 4 29 8.5t66 5.5q0 128 -1 251.5t-1 251.5q-63 52 -118.5 112t-107.5 130l72 54q263 -379 577 -379q78 0 157 47q77 44 77 82q0 29 -8 47t-22 28q-13 7 -31 9.5t-41 -1.5
l-249 -29q-96 -11 -185 80q-90 89 -90 184q0 34 16 64t46 54q27 21 60 32.5t70 11.5h304v200h-847l-82 149h1427zM940 304q-50 -23 -91.5 -33.5t-76.5 -10.5q-64 0 -139 25.5t-160 76.5v-396h465z" />
    <glyph glyph-name="dv_d_m" horiz-adv-x="1370" 
d="M1440 1193h-217l-1 -1193l-158 84v150h-303v-86q0 -58 -53 -58q-35 0 -59 28h1q-34 35 -68.5 71t-68.5 71q-27 28 -27 61q0 45 60 46l120 4q1 8 1 15.5v16.5q0 125 -66 121l-174 -9q-110 -7 -203 114q-87 114 -87 236q0 157 171 157h314v171h-607l-86 149h1433zM1066 371
v822h-301v-243q0 -68 -58 -68h-335q-48 0 -80 -37q-14 -19 -22.5 -41.5t-8.5 -48.5q0 -109 130 -100l183 13q65 4 129 -36q64 -42 64 -108q5 -42 9.5 -76.5t9.5 -76.5h280z" />
    <glyph glyph-name="dv_d_g" horiz-adv-x="1024" 
d="M1032 -29q6 -20 -3 -46t-31 -52q-17 -23 -34.5 -39t-33.5 -24l-180 109q23 9 39.5 16.5t26.5 13.5q41 27 42 55q3 39 -32.5 127.5t-108.5 224.5q-32 -12 -79 -12q-18 0 -33 1t-32 5q16 -87 32 -171.5t32 -170.5q1 -5 1.5 -10t0.5 -11q0 -22 -9 -38.5t-24 -27.5t-34 -15
t-39 0q-14 4 -43.5 19.5t-70.5 42.5q-52 33 -80.5 63.5t-30.5 52.5q-5 39 51 58q13 5 38.5 11t63.5 14q-5 26 -16.5 81t-30.5 143q-11 7 -20.5 14t-20.5 15t-23.5 16.5t-23.5 16.5q-39 29 -70 60t-53 63q-61 91 -61 204q0 106 81 184q41 40 92 59t113 19h268v151h-697
l-85 149h1099l71 -149h-233v-232q-8 -60 -63 -60h-254q-261 0 -261 -204q0 -91 82 -163h-1q97 -83 246 -83q30 0 49 4q-11 20 -24 48.5t-30 65.5q-17 65 62 65q6 0 12.5 -1t11.5 -4q94 -38 148 -79t54 -79q0 -23 -45 -59q-5 -4 -11 -7t-11 -7q-6 -3 -11.5 -6t-11.5 -8
q30 -44 56.5 -85t49.5 -77q57 -92 91 -156t43 -96z" />
    <glyph glyph-name="dv_d_dh" horiz-adv-x="1288" 
d="M985 342h-19q2 5 4 9l4 8zM820 146q49 47 85.5 95t60.5 101q-63 2 -128 15t-133 39h1q-84 30 -148.5 83t-109.5 126q-70 -21 -108 -53t-41 -74q-2 -32 13.5 -62.5t46.5 -57.5q19 -13 44.5 -19.5t57.5 -3.5q91 61 108 61q7 -1 32 -29t73 -83q-42 -12 -77.5 -33t-61.5 -48
q-23 -26 -34.5 -50t-8.5 -43q8 -34 35 -53.5t73 -19.5q17 0 40 3q39 5 84 31t96 75zM1328 -23q1 -5 1.5 -9.5t0.5 -10.5q0 -46 -32 -88q-27 -36 -59 -51l-187 112q35 8 54 14t29 11q49 21 53 51q8 70 -120 220q-51 -75 -97 -124.5t-92 -81.5q-103 -70 -243 -70
q-50 0 -94.5 14t-86.5 40q-94 60 -94 147q0 20 7 48.5t23 67.5q-20 2 -45 6.5t-55 12.5q-33 15 -61.5 37t-48.5 48.5t-31.5 56.5t-11.5 61q3 183 263 241v43q0 109 85 189q84 80 207 80h268v151h-953l-87 149h1344l94 -149h-243v-229q-8 -63 -64 -63h-252q-262 0 -262 -207
q0 -81 58 -148v1q59 -67 144 -83q23 -5 66.5 -7.5t108.5 -3.5q-24 43 -54 111q-15 66 61 66q16 0 24 -5q100 -42 151.5 -82t51.5 -76q0 -25 -46 -59l1 1q-14 -10 -22.5 -16.5t-22.5 -16.5q35 -42 64 -80t55 -71q66 -88 104 -150t46 -94v-4z" />
    <glyph glyph-name="dv_d_v" horiz-adv-x="1063" 
d="M766 254q8 9 8 22q0 7 -2.5 17.5t-7.5 18.5q-34 -7 -77 -7q-26 0 -51.5 2.5t-52.5 9.5q-122 -45 -181 -92.5t-59 -99.5q0 -36 32 -60q17 -11 37.5 -17t42.5 -6q47 0 93.5 17.5t91.5 52.5q82 63 125 139zM940 15q5 46 -70 185q-17 -35 -39.5 -68.5t-53.5 -65.5h1
q-97 -111 -217 -124h1q-23 -3 -45 -3q-103 0 -186 62q-92 69 -103 165v-1q-4 30 12.5 65.5t44.5 67.5q25 28 54 51t69 43q-212 133 -212 339q0 117 94 217q86 89 184 89h270v156h-745l-76 149h1131l85 -149h-244v-245q0 -57 -58 -57h-296q-89 0 -148 -71q-60 -74 -60 -165
q0 -115 108 -183q90 -54 207 -54q32 0 55 4q-13 24 -28 50q-27 49 -25 72q6 62 55 62q8 0 18.5 -2.5t18.5 -6.5q91 -35 141 -73.5t52 -77.5q1 -17 -14.5 -36.5t-55.5 -44.5q55 -80 99 -147q51 -82 82.5 -143.5t41.5 -95.5q11 -50 -30 -104l1 1q-14 -23 -30 -37.5t-32 -22.5
l-182 110q29 11 47.5 18.5t26.5 13.5q49 27 51 57z" />
    <glyph glyph-name="dv_d_bh" horiz-adv-x="1532" 
d="M477 450q-1 4 -2 7.5t-2 8.5h16zM241 607q0 -136 232 -141q-54 250 -148 250q-38 0 -61 -30.5t-23 -78.5zM1527 -29q6 -20 -1.5 -45.5t-24.5 -52.5q-18 -26 -36 -45.5t-33 -26.5l-181 113q24 10 40.5 17t25.5 12q20 14 32 28t14 30q5 29 -27 102t-101 190
q-32 -8 -159.5 -50t-356.5 -118q17 -56 17 -90q0 -69 -55 -69q-17 0 -35 7q-32 13 -65 26.5t-65 27.5q-108 49 -108 98q0 47 57 65h-1q19 8 33.5 13t34.5 11q-13 45 -24.5 83.5t-23.5 84.5q-14 -2 -29 -2h-30q-145 0 -245 62q-108 70 -108 183q0 80 76 135v-1q66 51 141 51
q133 0 230.5 -138t161.5 -419q37 10 73.5 20.5t76.5 22t86 25.5t101 31q-147 52 -241 140q-122 116 -122 267q0 59 26 109.5t74 92.5q45 36 93 56t97 20h264v156h-1207l-87 149h1602l80 -149h-239v-242q0 -60 -53 -60h-294q-91 0 -154 -61q-61 -61 -61 -147
q0 -60 27.5 -108.5t78.5 -83.5q45 -27 100 -42t114 -15q22 0 45 3q-31 92 -31 101q6 60 59 60q18 0 39 -9q53 -23 107 -70q66 -61 69 -107q2 -34 -49 -64l-20 -12h1q-9 -5 -12.5 -7t-13.5 -8q26 -35 50 -67.5t44 -62.5q106 -156 124 -221z" />
    <glyph glyph-name="dv_y_y" horiz-adv-x="1286" 
d="M1356 1193h-207l1 -1193l-167 72v247q-81 -42 -147.5 -64.5t-111.5 -22.5q-178 0 -307 130q-97 99 -142 248q60 4 111.5 12.5t97.5 22.5q137 39 137 104q0 148 -373 148q-99 0 -237 -12v146l230 11q8 1 18 1h18q182 0 312 -94q148 -106 148 -250q0 -78 -64.5 -129.5
t-201.5 -80.5q42 -166 183 -166q36 0 85.5 22t106.5 62q45 33 81 63.5t56 56.5v666h-982l-79 149h1361z" />
    <glyph glyph-name="dv_s_r" horiz-adv-x="1486" 
d="M1563 1193h-199l-1 -1193l-159 90v522q-110 -59 -223 -119t-222 -119l-119 95v19l477 249q-115 50 -208 49q-50 -1 -113 -10t-136 -26q-57 -14 -102 -26.5t-76 -25.5q-2 -2 -5 -6.5t-7 -9.5q-6 -8 -14 -18t-17 -21q-10 -9 -22.5 -20t-26.5 -22t-23 -18.5t-25 -21.5
q22 -24 51.5 -54t64.5 -63t73.5 -68t77.5 -69q56 -48 115 -99.5t114 -99.5v-18l-60 -72h-19q-58 53 -163 153.5t-254 246.5q-66 67 -126.5 140.5t-107.5 139.5q-20 29 -20 57q0 62 64 63q21 0 77 -12q33 -8 56 -13.5t35 -7.5q28 -4 32 144q1 15 1 28.5v27.5q0 61 -3.5 113.5
t-11.5 94.5h-357l-78 149h1582zM1204 1193h-716q10 -112 14 -190t4 -135q130 25 217.5 38.5t115.5 13.5q48 0 139.5 -35t225.5 -105v413z" />
    <glyph glyph-name="dv_k_k" horiz-adv-x="1466" 
d="M1535 1193h-662v-265q25 13 50.5 25.5t51.5 26.5q81 38 150 38q83 0 177 -97q94 -95 94 -180q0 -86 -33 -174l-142 99q21 49 39 140q0 87 -71 87q-32 0 -73.5 -13t-95.5 -39q-45 -20 -81 -40.5t-66 -43.5v-229q166 74 248 74q85 0 187 -94q105 -104 105 -213
q0 -125 -99 -306l-140 120q99 150 99 258q0 48 -25.5 81t-70.5 33q-35 0 -153 -47q-51 -20 -89 -37t-62 -31l1 -366l-166 64v231q-94 -47 -164 -67t-127 -20q-91 0 -193 93q-100 94 -100 178q0 95 103 171q-139 108 -139 215q0 117 128 180q98 47 237 47q114 0 188 -53
q11 -8 28 -25.5t39 -42.5v222h-706l-92 149h1540zM731 836q-3 2 -5 5t-4 5l11 9zM521 745q68 29 119 55t82 46q-110 110 -248 110q-109 0 -182 -54q-73 -52 -73 -119q0 -66 123 -93q14 -4 63.5 12.5t115.5 42.5zM710 678q-97 -51 -168 -73.5t-127 -22.5q-12 0 -23.5 2
t-21.5 5q-45 -26 -80 -73h1q-35 -48 -35 -87q0 -23 7 -43.5t21.5 -36t36 -25t50.5 -9.5q85 0 339 139v224z" />
    <glyph glyph-name="dv_k_v" horiz-adv-x="1419" 
d="M1496 1193h-643v-309q20 11 40.5 21t40.5 21q82 38 147 38q54 0 106 -30.5t97 -86.5q83 -104 83 -216q0 -241 -121 -414l-141 120q153 211 153 358q0 52 -43 83q-45 33 -109 33q-42 0 -105 -24.5t-148 -76.5l1 -710l-164 57v242q-163 -95 -310 -95q-84 0 -183 87
q-100 87 -100 166q0 98 90 181q-41 35 -73 88q-46 73 -46 136q0 57 29 101.5t85 76.5q95 52 220 52q180 0 221 -57l-3 2q19 -16 34 -34v1q25 -29 36 -54v243h-693l-91 149h1504zM710 815q-2 3 -7 8q2 2 5 4t5 4zM503 721q127 45 200 102q-51 75 -114 104q-57 27 -145 27
q-54 0 -99 -11.5t-81 -35.5q-69 -44 -69 -110q0 -21 12 -43t35 -41q20 -17 40.5 -27t37.5 -10q31 0 76 11.5t107 33.5zM690 634q-82 -45 -150 -66.5t-125 -21.5q-28 0 -52 6t-43 16q-17 -9 -32 -25.5t-28 -36.5q-29 -47 -29 -89q0 -96 113 -96q30 0 77 12.5t105 34.5
q51 21 92.5 41.5t71.5 37.5v187z" />
    <glyph glyph-name="dv_ri.alt1" horiz-adv-x="1634" 
d="M1681 1193h-813v-450q58 16 102.5 41t78.5 63q0 3 0.5 5.5t0.5 5.5q4 52 9 108q7 76 57 76q25 0 121 -51q57 -29 86 -54.5t21 -45.5q-3 -8 -23 -27.5t-59 -51.5q-70 -54 -70 -57q0 -63 61 -100q49 -28 194 -61q39 -11 68 -26.5t49 -39.5q20 -27 31 -67t12 -94
q1 -131 -132 -225h1q-114 -81 -265 -90l-129 132q80 5 153 25t144 52h-1q135 63 135 114q0 20 -22.5 37t-63.5 28l-65 15q-35 8 -70.5 16.5t-71.5 16.5q-66 20 -102.5 71.5t-41.5 137.5q-78 -39 -166 -39h-20.5t-19.5 2l1 -660l-164 78l2 451q-42 -26 -160.5 -110
t-321.5 -229l-119 115q137 94 279.5 190.5t296.5 197.5q-28 24 -56.5 48.5t-56.5 49.5h1q-79 64 -154 64q-48 0 -116.5 -14.5t-157.5 -42.5l-106 134q41 17 83.5 30t87.5 24q49 11 94 17t77 5q90 -2 190 -91q20 -18 36.5 -33t32.5 -29t32 -29t36 -33v400h-705l-87 149h1691z
" />
    <glyph glyph-name="dv_d_rikaar" horiz-adv-x="1081" 
d="M1169 1193h-277v-194q0 -60 -7 -75q-14 -33 -67 -33h-390q-53 0 -93 -33q-46 -35 -46 -95q0 -40 55 -80q25 -20 49.5 -31t46.5 -14q22 9 43.5 17t42.5 18q32 13 69 18.5t78 5.5q54 0 88 -21q49 -44 54 -105q-15 -35 -84 -43q-38 -3 -87 -3q-48 0 -106 3
q-116 -47 -116 -185q0 -54 47 -104q52 -55 125 -55q66 0 169 37q42 16 83.5 35.5t80.5 41.5l69 -143q-173 -87 -308 -87q-71 0 -141.5 30t-134.5 86q-140 123 -140 229q0 36 17.5 77t51.5 87q-29 20 -55 48.5t-48 61.5q-29 43 -46 87.5t-17 87.5q0 62 57 117q58 55 139 55
h365v159h-727l-90 149h1156z" />
    <glyph glyph-name="dv_sh_c" horiz-adv-x="1190" 
d="M1254 1193h-192v-1193l-159 70v130q-99 -85 -193.5 -129.5t-182.5 -44.5q-141 0 -239 91q-72 66 -70 178q-38 -13 -77 -26.5t-76 -26.5l-27 10l-92 94v17l433 134h-1q175 81 243 76l15 -7l87 -110q-367 -72 -367 -239q0 -104 101 -104q201 0 444 296q0 51 1 95t1 95
q-121 34 -220 70.5t-180 76.5q-31 -18 -78.5 -43t-98.5 -48q-72 -32 -136.5 -55.5t-117.5 -37.5l-38 12l-107 108q106 15 219 58q116 44 196 94q-117 51 -179 118t-68 152q-4 74 62 151q86 95 216 95q109 0 214 -114q99 -108 99 -191q0 -55 -26 -110.5t-85 -118.5
q66 -37 146 -63t182 -47v487h-143l-80 149h504zM557 1088q4 60 -35 107q-41 44 -101 44q-49 0 -99 -47q-58 -54 -54 -134q6 -116 153 -165q23 15 47 37.5t44 47.5q17 26 30 55.5t15 54.5z" />
    <glyph glyph-name="dv_nya_c" horiz-adv-x="1417" 
d="M1481 1193h-208l-1 -1193l-172 116q-41 -33 -73.5 -56t-55.5 -37q-103 -53 -237 -53q-115 0 -205 72q-91 73 -91 183q0 12 1 24.5t4 25.5q-58 -14 -118.5 -29.5t-117.5 -29.5l-99 132l813 179l105 -125l-301 -62l1 1q-151 -45 -151 -197q0 -44 49 -66q43 -23 85 -17
q149 19 401 273q0 109 1 212t1 212q-6 0 -8.5 -0.5t-7.5 -0.5q-52 0 -98.5 6.5t-87.5 18.5q-19 -87 -92 -151h1q-93 -81 -238 -81q-149 0 -325 131q-120 89 -185 178l79 62q73 -97 167 -159q57 -40 110.5 -59t105.5 -19q102 0 173 68q66 63 66 145q0 50 -28 87
q-27 35 -75 35q-60 0 -214 -148l-132 122q88 111 279 111q105 0 194 -62h-1q85 -58 99 -137q6 -1 13.5 -1h19.5q92 0 185 28v261h-1105l-90 149h1479z" />
    <glyph glyph-name="dv_nga_k_ss" horiz-adv-x="1337" 
d="M1284 787l-134 -132l-135 136l131 132zM1399 1193h-448v-230q0 -98 -67 -98h-316q-50 0 -90 -33q-41 -31 -41 -75q0 -67 65 -67q8 0 19 1t25 3l240 32q98 13 185 -71q71 -68 84 -142q6 -38 -28 -105v-1113l-123 104v529q-54 -23 -112 -33t-122 -9q-37 0 -79.5 8.5
t-92.5 28.5q-27 10 -47 18.5t-34 15.5q-156 -81 -158 -170q-2 -71 47 -109q35 -29 98 -29q49 0 97 18q-50 81 -41 109l-1 -2q8 45 51 45h10.5t10.5 -1q1 0 2.5 -0.5t2.5 -0.5q25 -4 92 -56q33 -26 52.5 -47.5t23.5 -38.5q11 -44 -46 -89q48 -82 101 -171t101 -170l-90 -60
q-16 27 -45.5 81t-64.5 124q-33 66 -50.5 101.5t-23.5 51.5q-20 -4 -40.5 -5.5t-41.5 -1.5q-125 0 -229 68q-141 98 -160 225q-8 69 50 127h-1q17 18 45.5 39.5t71.5 46.5q-29 21 -48.5 35.5t-30.5 22.5q-5 1 -8 5q-2 2 -4 3q-71 66 -71 137q0 107 101 160q30 16 64 16
q14 0 29.5 -3t33.5 -8q-85 60 -155.5 135t-130.5 167l72 53q263 -379 577 -379q80 0 156 47q77 45 78 82q1 55 -30 73v-1q-29 16 -75 9l-246 -28q-48 -3 -95.5 16.5t-91.5 64.5q-89 91 -89 182q0 68 60 117q58 45 131 45h306v200h-809l-72 149h1394zM440 199q1 81 -88 81
q-81 0 -81 -105q0 -26 20.5 -50t62.5 -44q14 13 28 24.5t28 24.5q14 14 21.5 32.5t8.5 36.5zM481 336l3.5 -3.5l3.5 -3.5q-5 2 -10 4.5t-10 5.5l18 6q-2 -5 -2.5 -4.5t-2.5 -4.5zM902 291q-31 -12 -65 -18t-67 -6q-69 0 -139.5 15t-142.5 47q10 -9 17 -17t15 -16
q58 -69 54 -166q-1 -18 -22.5 -49.5t-61.5 -73.5q44 -14 142 -14q107 0 270 108v190z" />
    <glyph glyph-name="dv_k_l" horiz-adv-x="1434" 
d="M1525 1193h-660v-259q38 18 70 35.5t70 35.5q30 15 66 15q98 0 184 -115q83 -114 83 -248q0 -39 -23 -110q-12 -35 -26.5 -65.5t-34.5 -56.5l-134 105q94 155 94 231q0 57 -31 87t-76 30q-36 0 -68 -17h1q-45 -27 -87.5 -52t-87.5 -51v-301q6 2 14 4t16 5q34 12 58 12
q43 0 83 -21.5t75 -59.5q38 -43 58.5 -98.5t20.5 -123.5q0 -44 -23 -91t-66 -98q-35 -40 -71 -69t-71 -43l-112 107q46 25 85.5 53t73.5 59q88 76 88 139q0 57 -30 95q-27 37 -79 37q-110 0 -267 -267l-102 93q11 32 36 72t60 82q-29 19 -65.5 29.5t-78.5 10.5
q-52 0 -98 -58q-48 -57 -48 -140q0 -45 23.5 -95.5t71.5 -106.5q33 -41 72.5 -76.5t86.5 -67.5l-76 -65q-56 40 -103.5 85.5t-91.5 96.5q-135 160 -135 286q0 49 17.5 92t52.5 85q72 82 163 82q50 0 100 -18.5t101 -60.5v197q-38 -20 -60.5 -31t-30.5 -14q-58 -25 -114 -25
q-146 0 -253 104q-104 98 -104 217q0 107 76 180q38 37 87.5 55t109.5 18q131 0 196 -68q14 -14 25 -25.5t21.5 -22t21.5 -22t25 -25.5v232h-694l-79 149h1493zM729 817q-2 3 -6 7l7 8zM559 715q100 47 164 109q-112 165 -274 165q-60 0 -118 -47q-68 -54 -68 -139
q0 -64 53 -103v1q46 -33 101 -33q46 0 142 47z" />
    <glyph glyph-name="dv_d_v_y" horiz-adv-x="1268" 
d="M1328 1193h-201v-1193l-154 82l3 138q-55 -27 -110.5 -53t-109.5 -52q-107 -51 -203 -51q-63 0 -116 28q-82 44 -103 71v-1q-45 51 -42 140q-99 16 -150.5 63t-51.5 126q0 138 143 213q-16 21 -31.5 41t-32.5 40q-41 64 -41 124q0 143 196 143h272v141h-590l-74 149h1325
zM973 373v820h-214v-205q0 -72 -76 -72h-277q-57 0 -96 -24.5t-44 -62.5q-4 -20 4.5 -42.5t31.5 -49.5q37 17 108 17q172 0 244 -120q26 -43 26 -89q0 -67 -58.5 -127.5t-161.5 -108.5q-52 -35 -52 -81q0 -32 22.5 -53.5t57.5 -21.5q26 0 62 12t80 33zM583 563
q7 37 -22 61.5t-81 20.5q-121 -9 -209 -74q-75 -56 -77 -107q-2 -31 23.5 -55.5t72.5 -24.5q16 0 34 3.5t36 8.5q34 12 67.5 28.5t65.5 37.5q83 53 90 101z" />
    <glyph glyph-name="dv_d_dh_n" horiz-adv-x="1522" 
d="M416 531q0 45 -27 74t-74 29q-33 0 -60 -32q-27 -31 -27 -79q0 -35 37 -76q39 -44 86 -51q9 14 17.5 30t18.5 33q29 49 29 72zM1512 -32q9 -39 -27 -95q-17 -27 -33.5 -44t-30.5 -25l-182 110q28 10 46 17t29 14q46 27 47 57q0 55 -110 213q-57 -45 -113.5 -90t-115 -92
t-120 -96t-127.5 -102q93 -113 93 -142q0 -18 -9 -28l1 1q-15 -26 -93 -26q-164 0 -251 45q-24 13 -24 41q0 37 43 74l241 198h-13q-121 0 -195 58q-76 63 -76 151q0 40 14 77q-21 -4 -43.5 -6t-45.5 -2q-63 0 -123.5 19t-105.5 45q-51 35 -78.5 84t-27.5 111q0 96 64 154
q60 48 147 48q98 0 157 -68q49 -61 49 -138q0 -34 -17 -70t-53 -78q8 -2 18.5 -2.5t26.5 -0.5q14 0 29 1t35 3q42 11 74 27t52 36l135 -108q-178 -74 -178 -178q0 -41 40 -63q35 -20 82 -19q84 3 182 52q76 38 127.5 89.5t83.5 126.5q-7 -1 -14 -1h-15q-79 0 -160 26.5
t-163 77.5q-94 64 -148 149t-54 182q0 60 23.5 108t69.5 88q85 67 186 67h284v149h-1141l-87 149h1589l79 -149h-290v-240q0 -56 -53 -56h-317q-92 0 -149 -54q-56 -53 -56 -138q0 -123 110 -191q92 -61 215 -61q24 0 45 3q-2 2 -2 3.5t-2 3.5q-5 11 -10.5 21t-11.5 21
q-24 46 -24 70q1 31 15 46t40 15q9 0 18.5 -1.5t17.5 -5.5q191 -75 193 -154q0 -16 -11.5 -33.5t-28.5 -34.5q-9 -8 -20 -17t-21 -17q35 -44 65 -82.5t56 -73.5h-1q136 -184 149 -249z" />
    <glyph glyph-name="dv_nga_k_rikaar" horiz-adv-x="1362" 
d="M1316 787l-133 -132l-136 136l132 132zM1472 -249q0 -135 -75 -231l-131 114q90 129 90 216q0 112 -89 112q-52 0 -127 -48h1l-42 -30t-43 -30q-8 -5 -14.5 -9t-14.5 -10v-476l-70 -9q-75 -11 -133 -25.5t-92 -32.5q-80 -41 -71 -119q2 -17 14 -31t36 -25q52 -26 102 -20
q55 5 112 19.5t118 39.5q11 -15 35 -53t60 -98q-38 -8 -90 -15t-116 -14q-88 -2 -161.5 24t-127.5 75q-47 42 -71 91.5t-23 103.5q2 104 116 164v-1q48 25 100 38t111 11v245q-85 -81 -207 -81q-47 0 -95 17t-99 49q-138 88 -138 247q0 121 92 186h-1q75 54 189 54
q98 0 166 -62q3 -4 8 -9.5t8 -9.5v1l21 -24.5t17.5 -20t17.5 -19.5t21 -23v240q-18 -2 -36.5 -3.5t-37.5 -1.5q-127 0 -248.5 49t-236.5 143q-66 55 -123 119t-101 134l70 53q263 -379 580 -379q78 0 154 47q76 45 76 82q0 53 -29 73q-12 7 -30.5 9.5t-41.5 -1.5l-248 -28
q-47 -3 -94 16.5t-92 64.5q-89 89 -89 182q0 69 59 117q58 45 133 45h304v200h-836l-83 149h1423l74 -149h-444q0 -57 1 -114t1 -114q11 -100 -64 -100h-319q-48 0 -90 -33q-41 -32 -41 -75q0 -67 68 -67q8 0 18 1t24 3l241 32q51 7 97 -11t89 -60q71 -69 84 -142v1
q3 -11 -0.5 -26.5t-11.5 -37.5v1q-16 -49 -49 -91v-353q68 48 114 68.5t82 20.5q40 0 80.5 -24t81.5 -71q87 -108 87 -250zM897 -101q-3 3 -7 9q4 6 7 8v-17zM751 -197q83 46 139 105q-114 150 -256 150q-89 0 -142 -62v1q-43 -50 -43 -118q0 -59 53 -94q23 -14 48.5 -21.5
t51.5 -7.5q62 0 149 47z" />
    <glyph glyph-name="dv_p_n" horiz-adv-x="1057" 
d="M1121 1193h-197v-1193l-161 76v437q-103 -45 -203 -88t-205 -88q6 -45 12 -127q6 -103 -68 -86q-17 5 -46 21t-71 45h1q-95 66 -104 117q-10 65 80 103q101 42 201 84t201 84l5 1q-24 0 -38 0.5t-23 1.5t-14 2.5t-9 3.5q-57 23 -103.5 50t-79.5 59q-103 99 -103 237v260
h-201l-71 149h1116zM759 1193h-400v-266q0 -104 76 -181q86 -87 250 -116q2 0 17.5 8.5t56.5 30.5v524z" />
    <glyph glyph-name="dv_ri.alt" horiz-adv-x="1612" 
d="M1685 4q-129 -96 -267 -96t-271 99q-134 101 -134 218q0 72 105 149q45 27 92.5 57t103.5 68q1 6 6 15q5 10 5 15q-17 45 -34 78.5t-34 55.5q-51 -25 -78 -38.5t-30 -14.5l1 1q-29 -11 -58 -17.5t-58 -7.5q-8 0 -26.5 3t-43 8.5t-53.5 13t-59 15.5v-7q0 -32 0.5 -107
t1.5 -196v-335l-165 109l-2 424q-114 -82 -230 -165.5t-230 -164.5l-128 110l583 394q-29 22 -64 47.5t-64 46.5q-102 69 -176 69q-35 0 -69 -6t-65 -16q-21 -7 -44 -16.5t-51 -21.5q-9 11 -21 27t-26 34t-29 37t-28 37q145 74 279 74q79 0 158 -46q42 -27 119 -93
q50 -44 86 -66v398h-681l-90 149h1679l85 -149h-829v-462q0 -3 12.5 -7t34.5 -9q57 -12 80 -9q29 3 82 29t134 80q-2 7 -6 19t-9 28l-1 2l-1 2l1 -1q-9 23 -13 40.5t-4 31.5t5.5 28t13.5 25q8 7 17.5 11t23.5 4q12 0 29 -4t38 -12l148 -74h-1q69 -30 65 -81q-2 -28 -124 -96
q30 -65 60.5 -128t60.5 -128q18 -57 -5 -75l-291 -165h1q-38 -24 -38 -79q0 -63 52 -103q55 -41 120 -41q58 0 217 97z" />
    <glyph glyph-name="dv_k_r" horiz-adv-x="1479" 
d="M1536 1193h-640v-396q40 19 79.5 37t80.5 36h-1q20 11 41 15.5t43 4.5q56 0 106.5 -30.5t93.5 -88.5q38 -54 59.5 -109.5t21.5 -110.5q0 -221 -139 -410l-126 120q156 234 156 368q0 56 -37 86.5t-93 30.5q-39 0 -77 -16h1q-54 -26 -104.5 -51t-104.5 -51v-643l-164 107
l4 442q-119 -81 -241.5 -166t-241.5 -167l-128 103l587 389q-47 26 -87.5 51.5t-87.5 51.5q-67 38 -152 38q-18 0 -35.5 -2t-34.5 -6l-161 -36l-112 144l221 42q33 6 72 6q71 0 128.5 -19t100.5 -55q45 -37 84 -68t84 -69v422h-726l-77 149h1533z" />
    <glyph glyph-name="dv_p_t" horiz-adv-x="1075" 
d="M1165 1193h-228l-1 -1193l-154 78v486q-17 1 -33 1h-31q-53 0 -94.5 -3.5t-73.5 -9.5q-35 -9 -72 -27.5t-61 -43.5q-28 -32 -43 -69t-15 -79q0 -95 75 -192q7 -11 38 -43t93 -97l-47 -60q-51 45 -100 88.5t-90 99.5q-54 75 -82.5 140.5t-28.5 117.5q0 60 22.5 107.5
t66.5 84.5q25 20 51 34t56 22q-32 27 -55.5 49.5t-34.5 36.5q-71 83 -71 168v304h-248l-79 149h1148zM780 1193h-369v-366q0 -79 45 -121q35 -38 93 -38q60 0 117.5 23t113.5 74v428z" />
    <glyph glyph-name="dv_d_y" horiz-adv-x="1360" 
d="M1435 1193h-196v-1193l-161 86v199q-54 -44 -97 -75t-72 -48q-60 -35 -122.5 -53.5t-125.5 -18.5q-48 0 -102.5 23t-115.5 68q-71 52 -107.5 110.5t-36.5 121.5q0 104 93 161q-106 73 -162.5 149t-64.5 147q1 27 10 57t26 51q43 48 91 48h341v167h-626l-87 149h1440z
M1078 1193h-295v-234q0 -64 -77 -75h-320q-35 0 -59 -23.5t-24 -61.5q0 -39 28 -77q31 -42 74 -59q48 -17 112 -17q15 0 32 1t35 3q33 3 60.5 5t51.5 2q53 0 77 -10q26 -12 52 -55q24 -43 22 -77q-42 -34 -74 -25q-87 24 -150 24q-8 0 -17.5 -0.5t-18.5 -1.5h2
q-62 -15 -103 -62q-47 -52 -43 -117q2 -53 59 -96h-1q52 -36 101 -36q168 0 476 270v722z" />
    <glyph glyph-name="dv_d_c" horiz-adv-x="1559" 
d="M1614 1193h-195v-1193l-162 85v223q-31 -25 -54.5 -43.5t-42.5 -34.5q-32 -25 -50.5 -39.5t-22.5 -17.5q-122 -83 -248 -83q-85 0 -191 76q-54 39 -92.5 85t-61.5 100q-69 -50 -137.5 -99t-137.5 -98l-116 98l466 325q-212 143 -225 293q-5 62 35 108q43 48 92 48h342
v167h-805l-74 149h1607zM1257 1193h-296v-234q0 -64 -78 -75h-318q-35 0 -59 -23.5t-24 -61.5q0 -37 29 -77q31 -42 73 -59q46 -17 112 -17q14 0 32 1t35 3q29 3 56 5t48 2q23 0 42 -2.5t31 -7.5q14 -6 26.5 -20t25.5 -34q25 -41 19 -76q-35 -36 -75 -27q-27 8 -55.5 11
t-59.5 3q-18 0 -36 -1t-38 -3h2q-132 -33 -127 -167q2 -53 59 -96h-1q52 -36 102 -36q85 0 203 70t272 210v712z" />
    <glyph glyph-name="dv_c_c" horiz-adv-x="1360" 
d="M1411 1193h-198v-1203l-162 96v138q-13 -8 -30 -16.5t-31 -16.5l-45 -24q-110 -49 -209 -49q-142 0 -248 82q-105 84 -105 211q0 22 7 51.5t27 73.5q-54 -2 -108.5 -4t-108.5 -4l-72 144h297q-25 29 -38.5 65.5t-13.5 75.5q0 36 28 102q-57 -4 -115 -7t-113 -7l-79 143
h343q76 8 130.5 12t78.5 4h266q43 -51 64.5 -83.5t21.5 -50.5q-48 -1 -101.5 -1.5t-103.5 -0.5q-63 -3 -112.5 -11.5t-83.5 -20.5q-40 -17 -62 -45.5t-22 -65.5q0 -79 67 -106q23 5 73.5 7t131.5 2q46 0 77.5 -1t50.5 -4q13 -19 30.5 -47.5t40.5 -68.5h-1q2 -2 4 -10.5
t2 -16.5q-54 7 -99.5 10.5t-83.5 3.5q-289 0 -289 -209q0 -54 43 -93q43 -40 108 -40q27 0 64.5 11.5t85.5 33.5h-1q63 30 122.5 72t113.5 95v773h-1052l-74 149h1411z" />
    <glyph glyph-name="dv_d_b" horiz-adv-x="1010" 
d="M340 318q-111 -80 -111 -172q0 -63 47 -95q44 -34 114 -34q20 0 50 9.5t67 26.5zM694 259q1 115 -141 123q-26 1 -59 -6.5t-80 -26.5q42 -67 81.5 -128.5t81.5 -128.5q116 56 117 167zM1059 -22q15 -83 -90 -163l-184 111q125 39 125 85q0 68 -37 127q-8 14 -23.5 34.5
t-38.5 48.5q-15 -85 -138 -188q-146 -123 -265 -123q-68 0 -120.5 19.5t-88.5 55.5t-55 87t-19 114q0 109 96 193q32 26 67 45t71 32q-108 70 -162.5 153t-54.5 180q0 108 80 182q80 73 206 73h268v149h-697l-85 149h1085l83 -149h-235v-225q-8 -63 -59 -63h-254
q-258 0 -258 -202q0 -72 71 -138q32 -29 72 -49.5t86 -32.5q37 -9 86 -9h13.5h10t10.5 0.5t15 1.5q-10 19 -21 45t-28 71q-4 14 0 26.5t13 21.5t21.5 14t27.5 5q2 0 6.5 -1t9.5 -2q60 -17 117 -50q91 -54 91 -103q0 -23 -28.5 -44.5t-79.5 -37.5q272 -333 290 -443z" />
    <glyph glyph-name="dv_h_rikaar" horiz-adv-x="991" 
d="M1060 1193h-225v-256q0 -65 -73 -65h-407q-128 0 -128 -107q0 -35 36 -70q17 -17 32 -26t29 -12q78 36 154.5 54.5t153.5 18.5q44 0 87.5 -25.5t86.5 -74.5q38 -44 58.5 -82t20.5 -69q0 -16 -9 -26q-11 -14 -32.5 -32t-47.5 -38q-33 -26 -62 -50t-47 -41q-22 -21 -22 -43
q0 -25 25 -39q10 -7 22 -9.5t26 -2.5q25 0 54 9q26 8 54 21t58 33l77 -128q-49 -23 -91 -33t-80 -10q-104 0 -204 85q-90 77 -90 132q0 47 40 78l158 119q29 14 29 47q0 59 -99 59q-125 0 -240 -98q-111 -99 -111 -201q0 -32 15 -66.5t43 -69.5q30 -36 68.5 -69.5
t83.5 -59.5q30 -19 77.5 -41t112.5 -50q37 -17 81 -36t82 -35l-41 -86q-143 66 -260.5 127.5t-191.5 108.5q-103 69 -159.5 153.5t-56.5 181.5q0 60 24 115t74 103q-41 54 -63.5 83t-24.5 32q-52 84 -52 151q0 74 67 123q59 42 128 42h388v175h-685l-82 149h1061z" />
    <glyph glyph-name="dv_d_dh_v" horiz-adv-x="1522" 
d="M505 567q0 45 -27 73t-74 28q-32 0 -59 -31q-28 -34 -28 -80q0 -34 37 -74q39 -42 86 -52q9 14 17.5 29.5t18.5 32.5q29 49 29 74zM1372 228q-7 0 -10 -1q-1 4 -3 10zM1368 163q0 41 -6 64q-170 -13 -251 -93q-65 -65 -65 -137q0 -54 45 -100q35 -32 84 -32q60 0 109 49
q84 84 84 249zM1769 -33q5 -20 -1 -44.5t-24 -51.5q-16 -26 -34 -44t-32 -26l-180 110q23 9 42 17t29 13q41 26 43 55q2 20 -35.5 70t-112.5 127q1 -8 1.5 -17t0.5 -19q0 -39 -6 -78.5t-17 -81.5q-22 -86 -55 -124q-45 -55 -99 -83.5t-114 -28.5q-109 0 -200 93
q-54 54 -54 151q0 12 0.5 23t2.5 25q-14 -2 -28.5 -3.5t-26.5 -1.5q-120 0 -196 58q-76 61 -76 151q0 20 3 40t11 38q-50 -9 -103 -9q-138 0 -230 56q-107 68 -107 187q0 95 65 154q60 49 146 49q51 0 89.5 -17.5t67.5 -51.5v1q50 -57 50 -137q0 -35 -16.5 -71t-55.5 -79
q18 -5 50 -5q10 0 18.5 0.5t22.5 1.5q17 14 60 31t110 37l129 -92q-180 -74 -180 -179q0 -41 38 -64h-1q37 -18 84 -17q54 1 154 65l-6 -11q0 -28 6.5 -24.5t15.5 29.5l-20 13q8 9 23 20.5t37 28.5v-4l3 3h-2q1 0 1 1t1 3q23 22 46 52t46 70q-74 2 -151 28.5t-155 74.5
q-104 66 -158 150t-54 186q0 116 93 196q43 33 89 50t98 17h283v115h-1189l-81 149h1582l71 -149h-234v-205q0 -57 -52 -57h-317q-92 0 -149 -54q-56 -52 -56 -138q0 -123 110 -191q92 -61 215 -61q25 0 46 3q-8 14 -13.5 24.5t-13.5 24.5q-24 46 -24 70q1 61 55 61
q9 0 18.5 -1.5t17.5 -5.5q188 -73 193 -153q4 -31 -46 -72q59 -55 107.5 -101t92.5 -89q217 -214 238 -281z" />
    <glyph glyph-name="dv_k_t" horiz-adv-x="1653" 
d="M1720 1193h-647v-393q69 48 131.5 73t115.5 25q131 0 217 -126q72 -111 72 -253q0 -139 -141 -389l-140 108q173 274 173 367q0 149 -155 149q-32 0 -101 -30.5t-172 -91.5l1 -632l-167 66l4 714q-23 5 -68.5 7.5t-116.5 2.5q-134 0 -215 -81q-82 -81 -82 -192
q0 -109 117 -247v1q46 -54 175 -172l-76 -88q-60 54 -116.5 120.5t-107.5 140.5q-65 96 -102.5 182t-37.5 149q0 48 17.5 90t59.5 84h-203l-94 149h848v267h-904l-85 149h1722z" />
    <glyph glyph-name="dv_s_t_r" horiz-adv-x="1573" 
d="M1640 1193h-217l-1 -1193l-160 90v372q-75 -62 -153.5 -125t-153.5 -124q-5 2 -13.5 6.5t-13.5 6.5l-95 92l396 288v26q-33 0 -90 -12.5t-125 -36.5q-166 -59 -295 -138l-43 18l-90 82v19q101 60 233 98t296 55q-60 45 -125.5 66t-136.5 21q-146 0 -364 -95
q-10 -29 -21.5 -50.5t-26.5 -38.5v1q-20 -23 -44 -43t-55 -39q42 -49 108 -113t156 -142h-1q29 -25 59 -49.5t59 -50.5q29 -25 63.5 -53.5t64.5 -53.5l-74 -77q-122 104 -230 194.5t-199 183.5q-143 146 -241 304q-19 20 -19 51q0 30 20 51t47 18q18 -4 40.5 -8t53.5 -10
q16 -3 33 -5.5t37 -6.5q9 -1 19 33q6 20 8.5 42.5t1.5 45.5q0 100 -4 175t-12 125h-364l-90 149h1676zM1260 707v486h-778q8 -57 13.5 -137t6.5 -180q80 32 146 48t115 16q230 0 436 -202z" />
    <glyph glyph-name="dv_h_nn" horiz-adv-x="1206" 
d="M1284 1193h-314q0 -58 1 -117.5t1 -116.5q-7 -49 -51 -62v1q-13 -5 -80 -5h-408q-67 0 -108 -38q-32 -33 -33 -80q0 -29 28 -74q11 -16 23 -26.5t23 -13.5q17 7 41 15.5t57 18.5q117 37 253 37q85 0 154.5 -15t128.5 -44q140 -72 140 -208v-541q-8 3 -22.5 10t-33.5 16
t-40.5 19.5t-42.5 21.5v480q0 77 -49 111h1q-9 6 -23.5 12.5t-37.5 14.5v-370q0 -94 -39 -148.5t-101 -56.5q-102 -4 -210 86q-107 92 -107 189v211q-141 -81 -141 -265q0 -326 612 -533l-55 -71q-156 62 -278 126t-200 124q-107 87 -166.5 190t-59.5 216q0 88 36.5 165
t105.5 141q-117 150 -117 252q0 87 70 135q26 17 53.5 25.5t57.5 8.5h472v159h-825l-92 149h1286zM749 627q-36 1 -97 -9q-29 -5 -49 -9.5t-27 -9.5v-360q0 -43 31 -74q16 -17 32.5 -25t33.5 -8q76 0 76 129v366z" />
    <glyph glyph-name="dv_h_l" horiz-adv-x="1278" 
d="M1354 1193h-311v-198q0 -94 -69 -94h-535q-155 0 -157 -102q0 -21 24 -57h-1q12 -14 23 -26.5t21 -20.5q29 7 57.5 15.5t55.5 16.5q120 27 252 27q203 0 340 -134q66 -64 104 -150t48 -180q6 -71 -44 -156q-4 -6 -27.5 -39.5t-59.5 -83.5l-117 95q46 55 89 130
q45 79 48 125q-5 25 -43 25q-26 0 -49.5 -6t-43.5 -20q-16 -9 -55.5 -56t-102.5 -131l-112 77q10 14 26 36.5t39 56.5q-57 37 -94 37q-40 0 -71 -43q-35 -44 -35 -105q0 -194 434 -341l2 -22l-39 -56q-536 221 -536 456q0 78 59 153q61 76 142 76q32 0 77.5 -23t111.5 -72
q75 75 155 75q43 0 103 -21q-52 84 -143.5 127.5t-223.5 43.5q-191 0 -312 -106q-122 -107 -122 -273q0 -139 140 -276q181 -173 585 -313l-40 -69q-118 33 -233 85.5t-225 119.5q-90 57 -160.5 119t-119.5 126.5t-74.5 131t-25.5 134.5q0 138 80 248q23 27 43.5 50.5
t44.5 50.5q-17 21 -33 41t-31 40q-52 74 -52 138q0 74 52 122q26 26 59.5 37.5t74.5 11.5h545v147h-895l-85 149h1364z" />
    <glyph glyph-name="dv_k_ss" horiz-adv-x="1430" 
d="M1118 751q-51 -41 -135 -72q-101 -38 -196 -38q-58 0 -176 53q-31 15 -59 28.5t-60 27.5q-79 -51 -118.5 -77t-44.5 -31q-45 -37 -66 -80t-21 -91q0 -84 67 -129q31 -21 68 -30.5t80 -9.5q31 0 54.5 4t46.5 14q-3 6 -9.5 20.5t-17.5 38.5q-13 27 -18.5 44.5t-5.5 25.5
q0 63 82 63q24 0 49 -9.5t52 -26.5q32 -22 51.5 -36t27.5 -22q29 -29 29 -62q0 -15 -4 -30q-7 -39 -72 -99q8 -15 58 -91.5t143 -218.5l-106 -67l-168 333q-17 -3 -35 -4t-37 -1q-137 0 -252 62q-93 50 -162 133q-36 45 -59.5 95.5t-23.5 92.5q0 90 127 182q19 12 35 22
t31.5 19.5t31.5 19t35 20.5q-255 124 -255 273q0 116 103 189l-1 -1q81 59 164 59q51 0 105 -23t111 -68q66 -54 104.5 -113.5t38.5 -116.5q0 -87 -149 -220q30 -12 81 -24q33 -8 61 -12.5t46 -4.5q57 0 178 55q49 23 97.5 48.5t93.5 53.5v-168zM556 1065q0 158 -133 158
q-64 0 -118 -54q-53 -53 -53 -124q0 -39 36 -83t114 -96q16 13 32.5 26t33.5 26q5 4 10.5 8t10.5 9q31 31 49 64.5t18 65.5zM1518 1193h-260l-1 -1193l-156 62v1131h-199l-94 149h618z" />
    <glyph glyph-name="dv_k_halant" horiz-adv-x="1565" 
d="M1666 1193h-701v-413q15 9 32.5 20t33.5 22q70 41 120 47q8 1 16.5 1.5t18.5 0.5q132 0 218 -137q40 -65 59 -130t16 -134q-4 -88 -38 -175.5t-97 -177.5l-136 130q25 42 53 87.5t55 87.5l-1 -1q50 97 50 170q0 138 -145 134q-30 0 -124 -57q-47 -27 -80 -49t-51 -39
v-599l-166 111v366q-23 -13 -52.5 -30.5t-50.5 -31.5q-95 -47 -183 -50q-129 -2 -245 101h1q-129 112 -129 260q0 114 78 191q87 84 246 84q66 0 124.5 -20.5t106.5 -56.5q20 -17 47.5 -45.5t56.5 -66.5v400h-787l-90 149h1661zM809 653q-2 2 -3.5 5t-3.5 5q5 5 9 8z
M614 529q32 19 79.5 53t108.5 81q-139 175 -325 175q-83 0 -141 -45q-72 -54 -72 -156q0 -79 59 -124q48 -39 112 -39q40 0 85.5 14.5t93.5 40.5zM1525 -495q-9 -8 -40 -45q-135 134 -209.5 207t-80.5 78h1q-36 31 -84.5 51.5t-105.5 31.5q-17 3 -32 3q-17 0 -35 -3h1
q-14 -4 -33.5 -8t-34.5 -7l-109 153q-12 8 -12 19q0 19 34 21q7 1 12.5 1.5t10.5 0.5q18 5 41 5t54 -5t66 -13q66 -17 135.5 -61t139.5 -115q20 -20 90 -93.5t191 -202.5v-18z" />
    <glyph glyph-name="dv_kh_halant" horiz-adv-x="1577" 
d="M1632 1193h-211v-1201l-164 112v409q-161 -114 -250 -107q-66 5 -123.5 31.5t-108.5 76.5v-1q-111 102 -112 232q-1 66 24.5 121t71.5 93q40 30 89.5 47.5t103.5 17.5t101.5 -15.5t89.5 -44.5q25 -17 56 -50t60 -71v350h-739v-412q0 -42 -9.5 -78t-26.5 -67
q-8 -14 -29 -37t-54 -58q65 -64 213 -181t386 -291q-6 -10 -16.5 -26t-18.5 -30q-3 -5 -9.5 -17t-10.5 -18q-69 54 -184 143.5t-267 207.5q-58 46 -115.5 96t-106.5 99q-75 75 -113 130.5t-39 90.5q0 42 18 63.5t53 16.5q28 -3 60 -16.5t69 -35.5q4 -3 10 -3q33 0 33 143
v280h-361q-7 14 -16 32.5t-18.5 38.5t-19 40.5t-16.5 37.5h1627zM1277 695q-3 2 -4 7q2 4 4 6v-13zM1133 598q109 64 140 104q-50 83 -126 130.5t-160 47.5q-90 0 -152 -58q-61 -57 -59 -135q2 -66 43.5 -105.5t119.5 -52.5q33 -4 82 13.5t112 55.5zM1967 -496
q-8 -7 -18 -18t-22 -26q-140 138 -211 209t-78 76q-35 30 -84.5 51t-105.5 32q-15 3 -32 3q-16 0 -34 -3l1 1q-3 -1 -9 -2.5t-8 -2.5q-26 -7 -53 -11l-107 153q-13 8 -13 19q0 19 34 21q7 1 13 1.5t11 0.5q18 5 41 5t53.5 -5t65.5 -13q66 -17 136 -61t140 -115
q20 -20 89.5 -93.5t190.5 -202.5v-19z" />
    <glyph glyph-name="dv_g_halant" horiz-adv-x="1229" 
d="M1298 1193h-247v-1215l-158 78v1137h-377v-574q0 -69 -25 -118v1q-30 -62 -85 -62q-53 0 -147 117q-87 111 -87 146q-1 82 81 82h8t9 -1q2 0 3.5 -0.5t3.5 -0.5h22q54 0 54 48v362q-85 0 -171.5 -1t-171.5 -1l-87 151h1294zM1625 -496q-8 -7 -18 -18t-22 -26
q-135 134 -209.5 207t-80.5 78h1q-36 31 -85 51.5t-106 31.5q-17 3 -32 3q-17 0 -33 -3l1 1q-3 -1 -9 -2.5t-8 -2.5q-26 -7 -53 -11l-107 153q-8 4 -11 9t-3 10q0 19 35 21q7 1 13 1.5t11 0.5q18 5 41 5q47 0 118 -18q134 -33 277 -176q20 -20 89.5 -93.5t190.5 -202.5v-19z
" />
    <glyph glyph-name="dv_gh_halant" horiz-adv-x="1237" 
d="M1309 1193h-235v-1215l-157 110v420q-31 -21 -61.5 -43t-59.5 -44q-115 -68 -227 -68q-74 0 -141 23.5t-125 68.5q-60 48 -92.5 104.5t-32.5 119.5q0 43 12.5 78t36.5 64q31 36 98 73q-81 48 -130 89t-66 79q-17 36 -17 78q0 15 1.5 29.5t6.5 33.5h-108l-86 149h1283z
M915 1193h-558q-27 -13 -48 -50q-23 -39 -15 -76q8 -45 36.5 -81.5t80.5 -65.5q183 0 254 -58q23 -43 35 -72.5t14 -46.5q0 -30 -23 -33q-29 8 -82 19t-119 19q-36 1 -68 -10.5t-60 -33.5q-54 -45 -50 -102q5 -64 54 -109q24 -20 57 -31t68 -9q88 5 227 101l-1 -1
q52 38 99.5 74t98.5 74v492zM1604 -495q-5 -5 -14.5 -16t-25.5 -29q-134 134 -208.5 207t-80.5 78h1q-36 31 -84.5 51.5t-105.5 31.5q-17 3 -33 3t-34 -3h1l-12 -3q-12 -3 -28.5 -6.5t-27.5 -5.5l-109 153q-12 8 -12 19q0 20 34 21q7 1 12.5 1.5t10.5 0.5q18 5 41 5t54 -5
t65 -13q66 -17 136 -61t140 -115q20 -20 89.5 -93.5t190.5 -202.5v-18z" />
    <glyph glyph-name="dv_nga_halant" horiz-adv-x="1352" 
d="M1312 759l-147 -148l-157 154l155 143zM1417 1193h-466v-206q5 -55 -15 -84t-65 -29h-369q-45 0 -85 -40q-38 -40 -38 -91q0 -128 112 -128q7 0 29.5 3t60.5 10q45 8 92 14t88 10q58 3 118 -27.5t105 -83.5q83 -106 83 -212q0 -67 -31.5 -121.5t-92.5 -97.5
q-103 -72 -221 -70q-113 2 -227.5 54t-231.5 155q-29 26 -92.5 94t-163.5 181l73 58q187 -221 260 -275q150 -119 348 -120q93 0 164 53q38 30 58.5 69.5t25.5 87.5q2 50 -12.5 76.5t-56.5 26.5q-11 -2 -22 -2.5t-24 -2.5q-14 -2 -31.5 -4t-38.5 -4q-123 -12 -205 -12
q-18 0 -34.5 0.5t-30.5 1.5q-37 4 -77 35.5t-84 94.5q-86 120 -84 230q1 44 17.5 78t46.5 58q27 21 62 33t76 12h354v175h-797l-82 149h1421zM1464 -496q-18 -15 -40 -44q-140 138 -211.5 209t-77.5 76q-35 30 -85 51t-105 32q-17 3 -32 3q-18 0 -34 -3l1 1q-3 -1 -9 -2.5
t-8 -2.5l-26 -6t-27 -5l-107 153q-13 8 -13 19q0 19 34 21q7 1 13 1.5t11 0.5q17 5 41 5q23 0 53.5 -5t65.5 -13q66 -17 136 -61t139 -115q41 -39 281 -296v-19z" />
    <glyph glyph-name="dv_c_halant" horiz-adv-x="1343" 
d="M1421 1193h-260v-1215l-158 110v354q-44 -30 -89 -55.5t-89 -44t-85.5 -28.5t-77.5 -10q-139 0 -251 94q-114 97 -114 217q0 45 14 89t42 84q-60 -1 -122.5 -2t-119.5 -2l-82 150h834l81 -130l-228 -2q-270 -2 -270 -257q0 -138 166 -138q41 0 98 27t130 83q56 40 95 74
t61 60q0 138 0.5 270t0.5 272h-1006l-92 149h1430zM1765 -495q-5 -5 -14.5 -16t-25.5 -29q-139 138 -210.5 209t-78.5 76q-35 30 -83.5 51t-105.5 32q-17 3 -33 3t-34 -3h1l-12 -3q-12 -3 -28.5 -6.5t-27.5 -5.5l-109 153q-12 8 -12 19q0 20 34 21q7 1 12.5 1.5t10.5 0.5
q18 5 41 5t54 -5t65 -13q66 -17 136 -61t140 -115q20 -20 89.5 -93.5t190.5 -202.5v-18z" />
    <glyph glyph-name="dv_ch_halant" horiz-adv-x="1370" 
d="M1442 1193h-373v-162q98 -51 164 -145q74 -111 69 -244q-4 -91 -46 -182.5t-120 -186.5q-82 -98 -225 -169q-72 -35 -135 -51.5t-119 -16.5q-164 0 -300 94q-138 96 -138 217q0 43 23.5 87.5t62.5 82.5q-237 122 -216 268q29 203 246 215q13 1 25.5 1.5t24.5 0.5
q48 0 83.5 -6.5t63.5 -19.5q21 -27 41 -63.5t41 -82.5q-72 12 -122 18t-73 7q-91 -7 -140 -45.5t-48 -108.5q0 -51 71 -87h-1q57 -24 105 -24q21 4 44.5 8t46 7t43 4.5t35.5 1.5q48 0 68 -14l73 -120l-7 -31l-168 4q-96 -22 -142 -68.5t-38 -114.5q15 -114 189 -114
q72 0 144 20.5t141 55.5q60 35 116.5 82t102.5 102q-48 33 -94 64.5t-93 63.5q-72 60 -108.5 121.5t-37.5 124.5q-2 178 193 261v145h-907l-85 149h1435zM1166 723q-2 81 -28 138v-1q-37 75 -107 75q-59 0 -104 -59q-44 -60 -40 -118q5 -80 57 -148t157 -128q67 116 65 241z
M1384 -496q-18 -15 -40 -44q-140 138 -211.5 209t-78.5 76q-35 30 -84.5 51t-104.5 32q-17 3 -32 3q-17 0 -35 -3l1 1q-3 -1 -8.5 -2.5t-7.5 -2.5l-26 -6t-27 -5l-108 153q-12 8 -12 19q0 19 34 21q7 1 12.5 1.5t10.5 0.5q18 5 41 5t54 -5t66 -13q66 -17 135.5 -61
t139.5 -115q20 -20 90 -93.5t191 -202.5v-19z" />
    <glyph glyph-name="dv_j_halant" horiz-adv-x="1339" 
d="M1411 1193h-218v-1215l-159 100v722h-353q37 -41 62.5 -71.5t40.5 -50.5q77 -109 75 -201q-1 -54 -22.5 -94t-63.5 -69q-69 -45 -169 -45q-272 0 -536 567l83 45q58 -143 138 -254q137 -192 288 -197q46 -2 83 31q44 39 44 98q0 108 -118 215l1 -1q-22 15 -48 34.5
t-53.5 39.5t-53.5 39.5t-48 35.5q12 0 26 9t23 27h601v235h-1018l-79 149h1392zM1808 -495q-12 -11 -39 -45q-134 133 -209.5 206.5t-80.5 78.5h1q-36 31 -85 51.5t-106 31.5q-17 3 -32 3q-18 0 -34 -3h1q-15 -4 -34 -8t-35 -7l-108 153q-13 8 -13 19q0 19 34 21q7 1 13 1.5
t11 0.5q17 5 42 5q47 0 118 -18q135 -33 276 -176q20 -20 90.5 -93.5t190.5 -202.5z" />
    <glyph glyph-name="dv_jh_halant" horiz-adv-x="1346" 
d="M1412 1193h-227v-1219l-157 110v492q-29 -7 -65 -11t-74 -6q-73 -3 -136 16q11 -20 21 -42t18 -42q13 -29 20 -54.5t7 -45.5q0 -97 -88 -180q-47 -43 -106.5 -71.5t-135.5 -41.5q45 -54 120 -132.5t180 -184.5l-76 -77q-130 162 -212 254.5t-120 117.5q-229 18 -240 188
q-2 38 22 72h-1q27 35 75 35q45 0 88 -53q17 -22 31.5 -42t31.5 -43q67 3 122.5 22t102.5 54q83 66 87 145q2 32 -17.5 58.5t-61.5 29.5q-35 -9 -77 -20t-77 -20q-15 -4 -38 -4q-35 0 -70 13q-91 33 -168 152q-76 119 -80 215q-2 62 53 105q62 47 164 47l245 2q5 2 8 3t8 5
v153h-582l-90 149h1415zM1028 1193h-293v-207q0 -102 -69 -102h-300q-49 0 -87 -38q-37 -39 -33 -78q7 -68 62 -100q20 -12 42 -15.5t46 -0.5h-1q36 8 71 17t71 17q8 1 16.5 1h18.5q35 0 68.5 -7t65.5 -23q49 0 91 5.5t77 16.5q50 14 88 28.5t66 29.5v456zM1766 -495
q-5 -5 -15 -16t-26 -29q-139 138 -210.5 209t-78.5 76q-35 30 -83.5 51t-105.5 32q-17 3 -33 3t-34 -3h1l-11 -3q-13 -3 -29.5 -6.5t-27.5 -5.5l-109 153q-12 8 -12 19q0 20 34 21q7 1 12.5 1.5t10.5 0.5q18 5 41 5t54 -5t66 -13q66 -17 135.5 -61t139.5 -115
q39 -40 281 -296v-18z" />
    <glyph glyph-name="dv_nya_halant" horiz-adv-x="1362" 
d="M1408 1193h-203v-1216l-161 105l-2 487q-48 -3 -93 -7t-94 -8q-60 -234 -335 -234q-254 0 -501 354l71 55q52 -65 95.5 -111t78.5 -73q102 -81 212 -81q113 0 187 80q68 73 73 168q1 54 -35 101q-36 46 -84 46q-30 0 -195 -146l-133 134q103 115 257 115q150 0 244 -109
q61 -75 70 -145q40 5 83.5 11t98.5 17v457h-1031l-83 149h1395zM1806 -495q-9 -8 -40 -45q-140 138 -211.5 209t-77.5 76q-35 30 -84 51t-106 32q-17 3 -32 3q-18 0 -34 -3h1l-12 -3q-13 -3 -29 -6.5t-28 -5.5l-108 153q-13 8 -13 19q0 19 34 21q7 1 13 1.5t11 0.5
q17 5 41 5q23 0 53.5 -5t65.5 -13q66 -17 136 -61t139 -115q41 -39 281 -296v-18z" />
    <glyph glyph-name="dv_tt_halant" horiz-adv-x="1087" 
d="M1155 1193h-303v-437l-53 -31l-375 -93q-32 -8 -58.5 -27t-44.5 -48q-39 -59 -29 -120q10 -78 66 -135q75 -76 214 -78q24 -1 76 12.5t134 43.5h-1q68 25 122 48t95 42l70 -146q-217 -136 -406 -132q-185 4 -327 115q-188 150 -188 324q0 185 141 238l378 93q6 4 9.5 7
t9.5 8v316h-683l-87 149h1162zM1282 -435q-12 -11 -39 -45q-135 134 -209.5 207t-80.5 78h1q-36 31 -85 51.5t-106 31.5q-17 3 -32 3q-17 0 -33 -3l1 1q-3 -1 -9 -2.5t-8 -2.5l-26 -6t-27 -5l-107 153q-8 4 -11 9t-3 10q0 19 34 21q7 1 13 1.5t11 0.5q18 5 42 5
q47 0 118 -18q134 -33 277 -176q20 -20 90 -93.5t190 -202.5z" />
    <glyph glyph-name="dv_tth_halant" horiz-adv-x="1167" 
d="M1243 1193h-360q11 -20 21 -40.5t21 -41.5q27 -53 25 -120q-5 -107 -108 -206q47 -19 86 -43.5t75 -56.5q113 -107 113 -242q0 -150 -131 -266q-131 -115 -292 -115q-214 0 -386 151q-173 150 -173 342q0 132 96 204q36 26 89 46.5t125 32.5q56 9 111.5 17t112.5 16
q113 23 119 163q2 51 -13 90t-47 69h-713l-89 149h1238zM961 487q0 201 -209 242q-72 -11 -141.5 -23t-141.5 -23h1q-204 -54 -204 -224q0 -109 113 -186q103 -74 216 -74q136 0 247 78q119 83 119 210zM1322 -465q-11 -11 -39 -45q-135 134 -209.5 207t-80.5 78h1
q-36 31 -84.5 51.5t-105.5 31.5q-17 3 -33 3t-34 -3h1q-14 -4 -33.5 -8t-34.5 -7l-108 153q-8 4 -10.5 9t-2.5 10q0 20 34 21q7 1 12.5 1.5t10.5 0.5q18 5 42 5q49 0 118 -18q134 -33 277 -176q20 -20 90 -93.5t190 -202.5z" />
    <glyph glyph-name="dv_dd_halant" horiz-adv-x="1190" 
d="M1261 1193h-288v-294l-22 -21h-392q-144 0 -157 -115q-5 -45 19 -89h-1q24 -42 61 -60q60 11 135.5 22t171.5 25q55 7 113 -18t112 -76q54 -52 82.5 -109.5t28.5 -118.5q0 -116 -94 -200q-104 -93 -284 -93q-107 0 -222.5 52t-229.5 147q-36 31 -72.5 67t-70.5 74
t-64 76.5t-53 74.5l74 49q8 -11 19.5 -25.5t19.5 -25.5q19 -23 37.5 -46.5t35.5 -48.5h-1q44 -51 91.5 -93t95.5 -74q66 -36 142.5 -58t151.5 -22q110 0 198 59q89 59 89 155q0 97 -90 97q-4 0 -15.5 -0.5t-33 -2.5t-54 -7t-78.5 -15q-48 -11 -82.5 -16.5t-56.5 -6.5
q-120 -7 -229 139q-95 134 -95 256q0 78 70 127l-1 -1q60 45 136 45h367v171h-809l-96 149h1249zM1363 -475q-12 -11 -39 -45q-135 134 -210 207t-81 78h1q-36 31 -84.5 51.5t-105.5 31.5q-17 3 -32 3q-17 0 -35 -3h1q-14 -4 -33.5 -8t-34.5 -7l-109 153q-12 8 -12 19
q0 19 34 21q7 1 12.5 1.5t10.5 0.5q18 5 42 5q48 0 119 -18q133 -33 276 -176q41 -39 281 -296z" />
    <glyph glyph-name="dv_ddh_halant" horiz-adv-x="1165" 
d="M1244 1193h-276v-347h-339q-357 0 -359 -293q0 -99 68 -195q82 -116 241 -156q-23 59 -33.5 113.5t-10.5 107.5q0 112 74 186q76 75 207 69q110 -6 186 -106q76 -97 76 -245q0 -117 -99 -201q-97 -82 -235 -82q-238 0 -445 234q-80 90 -126 198q-21 51 -33 97t-12 84
q4 338 450 338h228v198h-800l-92 149h1254zM986 439q-12 34 -55 63q-22 15 -43 21.5t-41 6.5q-71 0 -124 -47q-26 -23 -42 -52.5t-23 -63.5q-2 -14 -3.5 -31t-1.5 -35q0 -45 6 -105q11 -1 19.5 -1.5t18.5 -0.5q41 0 75.5 8t65.5 23q153 73 153 173q0 18 -6 42zM1303 -495
q-9 -8 -40 -45q-140 138 -211.5 209t-78.5 76q-35 30 -83.5 51t-105.5 32q-17 3 -32 3q-17 0 -35 -3h1l-11 -3q-13 -3 -29 -6.5t-28 -5.5l-108 153q-13 8 -13 19q0 19 34 21q7 1 12.5 1.5t10.5 0.5q18 5 41 5t54 -5t66 -13q66 -17 135.5 -61t139.5 -115q20 -20 90 -93.5
t191 -202.5v-18z" />
    <glyph glyph-name="dv_nn_halant" horiz-adv-x="1370" 
d="M1429 1193h-201v-1218l-160 83v1135h-263v-588q0 -72 -70 -136q-81 -71 -193 -67h1q-122 5 -242 114q-122 110 -122 221v456h-179l-80 149h1428zM639 1193h-292v-532q0 -72 25 -100q28 -35 111 -41q66 -6 113 48q43 52 43 101v524zM1825 -495q-11 -11 -39 -45
q-134 134 -209 207t-81 78h1q-36 31 -84.5 51.5t-105.5 31.5q-17 3 -33 3t-34 -3h1q-14 -4 -33.5 -8t-34.5 -7l-108 153q-7 4 -10 9t-3 10q0 20 34 21q7 1 12.5 1.5t10.5 0.5q18 5 42 5q48 0 119 -18q133 -33 276 -176q20 -20 90 -93.5t190 -202.5z" />
    <glyph glyph-name="dv_t_halant" horiz-adv-x="1108" 
d="M1166 1193h-206v-1222l-160 97v730h-317q-71 0 -122 -54q-61 -65 -61 -191q0 -103 100 -243v1q41 -58 86 -120t87 -119l-84 -59q-51 60 -98.5 125t-92.5 136q-148 240 -148 379q0 162 120 243q94 64 235 64h297v233h-778l-85 149h1145zM1564 -495q-5 -5 -14.5 -16
t-25.5 -29q-135 134 -209 207t-80 78h1q-36 31 -85 51.5t-106 31.5q-15 3 -32 3q-16 0 -34 -3h1q-15 -4 -34 -8t-34 -7l-109 153q-13 8 -13 19q0 19 35 21q6 1 12 1.5t11 0.5q18 5 41 5t53.5 -5t65.5 -13q66 -17 136 -61t140 -115q20 -20 89.5 -93.5t190.5 -202.5v-18z" />
    <glyph glyph-name="dv_th_halant" horiz-adv-x="1317" 
d="M1379 1193h-202v-1220l-168 107v386q-41 -30 -68.5 -49t-45.5 -29q-111 -58 -217 -58q-240 0 -508 295v25q34 13 77 33.5t91 46.5q38 21 70.5 40t52.5 34q-88 45 -138 71.5t-57 30.5q-109 78 -109 206q0 54 21.5 100t60.5 80q82 72 184 70q54 -1 107.5 -21.5t103.5 -57.5
q64 -50 97.5 -113.5t34.5 -141.5q2 -157 -109 -257q-102 -94 -261 -189q63 -132 200 -139q51 -3 119.5 26t146.5 85q72 52 109.5 87.5t37.5 52.5v499h-140l-108 149h538zM623 1070q0 61 -28 111q-14 29 -38.5 45.5t-54.5 21.5q-32 5 -63 -7t-58 -40q-53 -58 -53 -136
q0 -107 209 -198q38 38 62 91.5t24 111.5zM1767 -495q-9 -8 -40 -45q-140 138 -211.5 209t-77.5 76q-35 30 -84 51t-106 32q-17 3 -32 3q-18 0 -34 -3h1l-12 -3q-13 -3 -29 -6.5t-28 -5.5l-108 153q-13 8 -13 19q0 19 34 21q7 1 13 1.5t11 0.5q17 5 41 5q23 0 53.5 -5
t65.5 -13q66 -17 136 -61t140 -115q20 -20 89.5 -93.5t190.5 -202.5v-18z" />
    <glyph glyph-name="dv_d_halant.001" horiz-adv-x="1071" 
d="M957 19q4 43 -160 162q-25 -6 -50.5 -8.5t-53.5 -2.5q-238 0 -404 176q-141 149 -161 360q-1 8 -1 15.5v15.5q0 120 86 188q90 67 245 67h249v201h-701l-74 149h1154l76 -149h-294v-351h-330q-176 0 -234 -96q-32 -49 -32 -149q0 -218 253 -290v1q34 -10 74 -10
q26 0 50 2.5t48 9.5q-28 52 -42.5 87t-14.5 52q0 13 15 37v-1q16 31 59 31q26 0 51 -13h-1l100 -44q42 -21 63.5 -46t24.5 -51q2 -26 -20 -61t-67 -75q29 -17 57 -35.5t51 -36.5q129 -96 147 -164l-1 1q13 -41 -23 -96t-68 -69l-179 108q25 11 40.5 18.5t25.5 13.5
q41 25 42 53zM1641 -553q-7 -7 -16 -18t-23 -28q-135 134 -210 207t-80 78h1q-36 31 -85 51.5t-106 31.5q-17 3 -32 3q-18 0 -34 -3h1q-15 -4 -34 -8t-35 -6l-108 152q-13 9 -13 20q0 18 34 20q7 1 13 1.5t11 0.5q17 5 42 5q47 0 118 -18q133 -31 276 -176
q20 -20 90.5 -93.5t190.5 -202.5z" />
    <glyph glyph-name="dv_dh_halant.001" horiz-adv-x="1382" 
d="M1452 1193h-244v-1216l-167 109v376q-29 -20 -56.5 -39.5t-55.5 -38.5q-113 -68 -216 -77q-8 -1 -16.5 -1.5t-17.5 -0.5q-130 0 -257 102q-137 112 -137 220q0 136 145 204q-265 157 -265 314q0 125 87 188q62 42 144 42q58 0 102.5 -21t76.5 -61q51 -66 51 -148
q1 -145 -193 -209q82 -44 302 -44h42q32 -48 51 -82.5t26 -57.5l-6 -8q-2 -3 -4.5 -6.5t-4.5 -6.5q-26 0 -61 1q-30 1 -75 3t-105 5q-63 -14 -110 -62q-50 -52 -50 -113q0 -26 15 -52.5t41 -51.5q28 -24 60 -35.5t67 -7.5q169 16 420 249v526h-276l-94 149h696zM535 1128
q2 22 -3.5 41.5t-16.5 36.5q-28 39 -81 39q-47 0 -78 -29q-35 -34 -34 -96q2 -92 62 -132q145 56 151 140zM1819 -495q-7 -6 -16 -17t-23 -28q-135 134 -209.5 207t-80.5 78h1q-36 31 -85 51.5t-106 31.5q-15 3 -32 3q-16 0 -34 -3h1q-15 -4 -34 -8t-35 -7l-108 153
q-13 8 -13 19q0 19 34 21q7 1 13 1.5t11 0.5q18 5 42 5q47 0 118 -18q134 -33 277 -176q20 -20 90 -93.5t190 -202.5z" />
    <glyph glyph-name="dv_n_halant" horiz-adv-x="1077" 
d="M1159 1193h-227v-1224l-163 113v563h-329q-41 -6 -41 -44v-40q0 -31 -1 -51.5t-3 -29.5q-12 -52 -66 -52q-37 0 -120 113q-40 54 -61 94t-26 64q-5 37 32 63q34 25 82 25h533v406h-760l-87 149h1148zM1533 -495q-12 -11 -39 -45q-135 134 -210 207t-81 78h1
q-36 31 -84.5 51.5t-105.5 31.5q-17 3 -32 3q-17 0 -35 -3h1q-14 -4 -33.5 -8t-34.5 -7l-108 153q-13 8 -13 19q0 19 34 21q7 1 12.5 1.5t10.5 0.5q18 5 42 5q48 0 119 -18q133 -33 276 -176q41 -39 281 -296z" />
    <glyph glyph-name="dv_p_halant" horiz-adv-x="1051" 
d="M1122 1193h-233v-1217l-173 101v432q-54 -26 -109 -43.5t-100 -19.5q-93 -4 -229 103q-145 118 -145 231v413h-134l-92 149h1137zM716 1193h-422v-466q0 -141 136 -141q105 0 286 106v501zM1492 -495q-7 -6 -16 -17t-23 -28q-135 134 -209.5 207t-80.5 78h1
q-36 31 -85 51.5t-106 31.5q-15 3 -32 3q-16 0 -34 -3h1q-15 -4 -34 -8t-34 -7l-109 153q-13 8 -13 19q0 19 35 21q6 1 12 1.5t11 0.5q18 5 42 5q47 0 118 -18q134 -33 277 -176q20 -20 90 -93.5t190 -202.5z" />
    <glyph glyph-name="dv_ph_halant" horiz-adv-x="1456" 
d="M1515 1193h-648v-423q29 14 58 29t58 29q34 17 64 27t57 10q110 6 189 -85q47 -56 78 -143q32 -89 31 -166q-1 -97 -125 -362q-137 96 -137 112q0 6 13 33l39 81q5 9 9 17.5t9 19.5q35 71 52.5 125.5t19.5 92.5q3 57 -29 90.5t-88 33.5q-18 0 -37 -3.5t-39 -9.5
q-15 -5 -29.5 -10t-23.5 -9q-44 -26 -84 -50.5t-85 -50.5v-615l-165 123l4 408q-28 -10 -49 -16t-32 -10q-63 -19 -113 -19q-63 -1 -125.5 28t-124.5 89q-123 121 -123 236v388h-149l-75 149h1522zM702 1193h-397v-402q0 -218 154 -218q73 0 243 109v511zM1444 -495
q-9 -8 -40 -45q-135 134 -209.5 207t-80.5 78h1q-36 31 -84.5 51.5t-105.5 31.5q-17 3 -32 3q-17 0 -35 -3h1q-14 -4 -33.5 -8t-34.5 -7l-109 153q-12 8 -12 19q0 20 34 21q7 1 12.5 1.5t10.5 0.5q18 5 41 5q48 0 120 -18q133 -33 276 -176q20 -20 89.5 -93.5t190.5 -202.5
v-18z" />
    <glyph glyph-name="dv_b_halant" horiz-adv-x="1303" 
d="M1398 1193h-269v-1211l-156 106v394q-29 -32 -55 -56t-50 -38q-119 -72 -300 -72q-122 0 -253 111q-134 116 -134 246q0 78 34.5 140.5t99.5 106.5q113 75 279 75q236 0 379 -230v428h-966l-87 149h1379zM883 685q0 92 -56 142q-46 46 -126 51q-51 3 -93 -3.5t-77 -23.5
q58 -89 111.5 -173.5t110.5 -174.5q66 33 98 79t32 103zM449 817q-129 -70 -129 -224q0 -97 88 -138q55 -25 112 -25h16.5t17.5 2q29 4 59 11.5t62 21.5zM1745 -495q-12 -11 -39 -45q-134 133 -209.5 206.5t-80.5 78.5h1q-36 31 -85 51.5t-106 31.5q-17 3 -32 3
q-17 0 -33 -3l1 1q-3 -1 -9 -2.5t-8 -2.5l-26 -6t-27 -5l-107 153q-8 4 -11 9t-3 10q0 19 34 21q7 1 12 1.5t10 0.5h3q17 5 41 5q47 0 118 -18q135 -33 276 -176q20 -20 90.5 -93.5t190.5 -202.5z" />
    <glyph glyph-name="dv_bh_halant" horiz-adv-x="1364" 
d="M1398 1193h-202v-1221l-161 100v392h-398v-19q0 -4 0.5 -7.5t0.5 -8.5v-50q0 -97 -62 -97q-51 0 -162 117q-56 60 -84 99.5t-28 60.5q0 54 80 65h103v164q-67 15 -126 42t-107 66q-56 47 -91 108t-36 125q-2 115 75 180h-1q62 53 152 53q61 0 113.5 -34t95.5 -100
q35 -54 53 -105.5t18 -99.5v-404h404v574h-296l-85 149h659zM497 1079q0 150 -98 148q-48 0 -78 -43q-17 -23 -24 -48.5t-7 -54.5q2 -133 207 -203v201zM1807 -495q-9 -8 -40 -45q-140 138 -211 209t-78 76q-35 30 -84 51t-106 32q-17 3 -32 3q-18 0 -34 -3h1l-12 -3
q-13 -3 -29 -6.5t-28 -5.5l-108 153q-13 8 -13 19q0 19 34 21q7 1 13 1.5t11 0.5q18 5 41 5t53.5 -5t65.5 -13q66 -17 136 -61t140 -115q20 -20 89.5 -93.5t190.5 -202.5v-18z" />
    <glyph glyph-name="dv_m_halant" horiz-adv-x="1210" 
d="M1276 1193l-200 -2v-1225l-171 112v404q-118 0 -230.5 1t-230.5 1q0 -48 -0.5 -78.5t-1.5 -38.5q-9 -67 -61 -69q-40 0 -148 104q-110 109 -110 155q0 65 64 77l-6 -3q6 2 31.5 4t70.5 3v553h-273l-75 151h1266zM905 630v563h-455v-563h455zM1645 -495q-9 -8 -40 -45
q-135 134 -209.5 207t-80.5 78h1q-35 31 -84 51.5t-106 31.5q-17 3 -32 3q-17 0 -35 -3h1l-11 -3q-13 -3 -29 -6.5t-28 -5.5l-108 153q-13 8 -13 19q0 19 34 21q7 1 13 1.5t11 0.5q17 5 41 5q23 0 53.5 -5t65.5 -13q66 -17 136 -61t139 -115q41 -39 281 -296v-18z" />
    <glyph glyph-name="dv_y_halant" horiz-adv-x="1192" 
d="M1268 1193h-242v-1209l-159 98v415q-33 -17 -67.5 -33t-67.5 -32q-46 -21 -88.5 -30.5t-82.5 -8.5q-75 2 -144.5 28t-129.5 72q-63 52 -111.5 126t-80.5 170q-10 29 92 66q62 21 103 38.5t64 30.5q84 50 70 112q-8 44 -23.5 82.5t-43.5 74.5h-359l-90 149h1278zM863 1193
h-379q109 -229 94 -294q-9 -30 -43.5 -62t-91.5 -61q-63 -32 -99 -53.5t-47 -32.5q-3 -15 -3 -31q0 -148 179 -143q143 2 390 178v499zM1625 -496q-8 -7 -18 -18t-22 -26q-135 134 -209.5 207t-80.5 78h1q-36 31 -85 51.5t-106 31.5q-17 3 -32 3q-17 0 -33 -3l1 1
q-3 -1 -9 -2.5t-8 -2.5l-26 -6t-27 -5l-107 153q-8 4 -11 9t-3 10q0 19 35 21q7 1 13 1.5t11 0.5q18 5 41 5q47 0 118 -18q134 -33 277 -176q20 -20 89.5 -93.5t190.5 -202.5v-19z" />
    <glyph glyph-name="dv_r_halant" horiz-adv-x="817" 
d="M900 1193h-318v-450q0 -35 -17.5 -72.5t-49.5 -76.5q-27 -32 -58 -56t-63 -38q112 -111 226 -226t224 -226l-73 -89q-62 67 -132.5 143t-140.5 151q-17 16 -39.5 40t-39.5 41q-19 20 -37.5 41.5t-38.5 42.5l-38 42l-38 42q-112 133 -112 195q0 102 81 93q7 -2 26 -10.5
t50 -22.5q63 -27 85 -27q14 0 18 8v455h-407l-83 149h885zM1303 -495q-9 -8 -40 -45q-140 138 -211.5 209t-78.5 76q-35 30 -83.5 51t-105.5 32q-17 3 -32 3q-17 0 -35 -3h1l-11 -3q-13 -3 -29 -6.5t-28 -5.5l-108 153q-13 8 -13 19q0 19 34 21q7 1 13 1.5t11 0.5q17 5 41 5
q23 0 53.5 -5t65.5 -13q66 -17 135.5 -61t139.5 -115q20 -20 90 -93.5t191 -202.5v-18z" />
    <glyph glyph-name="dv_l_halant" horiz-adv-x="1468" 
d="M1533 1193h-416v-237q101 -19 177 -89q95 -89 95 -222q0 -143 -150 -303q-45 -48 -93.5 -89t-102.5 -76l-99 124q56 32 103.5 69t89.5 77q138 135 135 251q-8 158 -144 159q-112 2 -235 -133q-83 -89 -144 -208l-118 96l63 105q-38 60 -89 93.5t-113 35.5q-83 3 -146 -78
q-26 -34 -39.5 -72t-13.5 -80q0 -7 0.5 -16.5t1.5 -17.5q18 -128 136.5 -263t337.5 -267l-69 -69q-85 55 -159.5 114t-140.5 125q-245 236 -251 433q-2 98 48 184q76 136 237 137q111 1 198 -69q23 -20 53 -53.5t61 -75.5q15 22 35.5 43t46.5 44q34 28 68 47.5t63 28.5v252
h-933l-80 149h1497zM1723 -201q-5 -5 -14.5 -16.5t-25.5 -29.5q-134 134 -208.5 207t-80.5 78h1q-36 31 -84.5 51.5t-105.5 31.5q-17 3 -33 3t-34 -3h1l-12 -3q-12 -3 -28.5 -6.5t-27.5 -5.5l-109 153q-12 9 -12 19q0 20 34 21q7 1 12.5 1.5t10.5 0.5q18 5 41 5t54 -5
t65 -13q66 -16 136 -60.5t140 -115.5q20 -20 89.5 -93.5t190.5 -202.5v-17z" />
    <glyph glyph-name="dv_sh_halant" horiz-adv-x="1425" 
d="M1511 1193h-280v-1220l-159 115v1105h-286q117 -167 113 -298q-3 -91 -34.5 -171.5t-86.5 -145.5q-37 -41 -100 -90.5t-149 -103.5q65 -82 142.5 -180t161.5 -204l-107 -71q-56 78 -111 158t-104 155q-20 29 -40.5 56t-34.5 41q-70 17 -107 26.5t-42 11.5
q-101 48 -106 167q-2 90 82 108q46 8 101 -57v1q20 -23 36.5 -43.5t35.5 -43.5q20 5 47.5 18.5t59.5 36.5v-1q41 31 77 69t71 87q-51 17 -102.5 35t-102.5 35q-83 36 -136.5 88.5t-76.5 117.5q-12 31 -12 62q0 62 44 136h-306l-85 149h1504zM746 951q0 140 -73 215
q-49 52 -96 52q-50 0 -96 -43q-54 -48 -54 -112q0 -33 15 -69q35 -80 132 -134v1q7 -4 22 -10.5t34.5 -14.5t42 -16.5t43.5 -16.5q5 14 9 28t10 29q11 44 11 91zM1825 -495q-11 -11 -39 -45q-134 134 -209 207t-81 78h1q-36 31 -84.5 51.5t-105.5 31.5q-17 3 -33 3t-34 -3h1
q-14 -4 -33.5 -8t-34.5 -7l-108 153q-7 4 -10 9t-3 10q0 20 34 21q7 1 12.5 1.5t10.5 0.5q18 5 42 5q48 0 119 -18q133 -33 276 -176q20 -20 90 -93.5t190 -202.5z" />
    <glyph glyph-name="dv_ss_halant" horiz-adv-x="1114" 
d="M1160 1193h-224v-1207l-164 98v411q-20 -15 -44.5 -33.5t-44.5 -34.5q-66 -41 -146 -41q-148 0 -259 114q-108 108 -108 231v462h-163l-85 149h1171zM776 749v444h-447zM327 1072v-385q0 -48 6.5 -83.5t17.5 -55.5q28 -45 99 -53q71 -6 175 72q66 48 114 102zM1524 -495
q-9 -8 -40 -45q-134 133 -209 206.5t-80 78.5h1q-36 31 -85 51.5t-106 31.5q-17 3 -32 3q-18 0 -34 -3h1q-15 -4 -34 -8t-35 -7l-108 153q-13 8 -13 19q0 19 34 21q7 1 13 1.5t11 0.5q17 5 41 5q23 0 53.5 -5t65.5 -13q66 -17 136 -61t139 -115q41 -39 281 -296v-18z" />
    <glyph glyph-name="dv_s_halant" horiz-adv-x="1348" 
d="M1423 1193h-248v-1212l-155 101v487q-51 -25 -98.5 -36t-92.5 -9q-35 1 -78.5 14t-88.5 33q-42 20 -77.5 42.5t-61.5 46.5q-37 -45 -82 -82t-107 -71q28 -35 128.5 -144t275.5 -294l-76 -82q-165 186 -278 317t-164 197q-116 153 -111 225q2 41 20.5 59.5t49.5 16.5
q8 -2 31.5 -11t58.5 -24q62 -30 87 -26q25 3 23 62q-2 101 -5 195t-5 195h-370l-85 149h1427zM1011 1193h-487q5 -112 10.5 -219.5t10.5 -219.5q51 -33 103 -52.5t101 -23.5q98 -6 262 88v427zM1766 -495q-5 -5 -15 -16t-26 -29q-139 138 -210.5 209t-78.5 76
q-35 30 -83.5 51t-105.5 32q-17 3 -33 3t-34 -3h1l-11 -3q-13 -3 -29.5 -6.5t-27.5 -5.5l-109 153q-12 8 -12 19q0 20 34 21q7 1 12.5 1.5t10.5 0.5q18 5 41 5t54 -5t66 -13q66 -17 135.5 -61t139.5 -115q39 -40 281 -296v-18z" />
    <glyph glyph-name="dv_h_halant" horiz-adv-x="1094" 
d="M1169 1193h-247v-270q0 -19 -34 -55h-443q-67 0 -110 -26q-48 -26 -48 -71q0 -38 21.5 -67.5t61.5 -49.5q11 5 21.5 9.5t21.5 9.5q8 4 17 8l18 8q76 27 175 27q142 0 255 -116q103 -108 103 -215q0 -76 -70 -137q-68 -62 -143 -65l-91 123q165 53 165 153q0 30 -11 54.5
t-29.5 42t-44.5 27t-56 9.5q-116 0 -207 -64q-116 -77 -116 -219q0 -66 42 -123.5t127 -105.5q54 -31 142 -63.5t213 -67.5l-24 -86q-54 17 -103.5 32.5t-80.5 27.5q-75 28 -134 56t-100 57q-243 166 -243 343q0 96 43 167q6 8 10 13.5l8 11t8.5 11.5t9.5 14
q-17 21 -35.5 42t-37.5 42q-63 88 -63 177q0 58 47 106q46 49 114 49h433v181h-749l-87 149h1162zM1122 -536q-15 -12 -40 -45q-135 134 -209.5 207.5t-80.5 78.5h1q-36 31 -85 51.5t-106 31.5q-15 3 -32 3q-15 0 -33 -3l1 1q-3 -1 -9 -2.5t-8 -2.5q-26 -7 -53 -11l-107 153
q-8 4 -11 9t-3 10q0 19 35 21q7 1 13 1.5t11 0.5q15 4 42 4q49 0 117 -16q133 -33 277 -177q20 -20 89.5 -93.5t190.5 -202.5v-19z" />
    <glyph glyph-name="uni0962.001" horiz-adv-x="1707" 
d="M1287 -414l119 -120q-13 -25 -31.5 -48.5t-39.5 -41.5t-44 -28.5t-46 -10.5q-29 0 -60 13.5t-60.5 36t-56.5 50.5t-47 56t-32 54.5t-12 44.5q0 19 7 35t19 29.5t26.5 26t29.5 24.5q26 19 45 38.5t19 41.5t-17.5 40.5t-42.5 18.5q-16 0 -31 -8.5t-27 -22t-21 -30.5
t-12 -35l-54 -54l-114 112q-17 20 -38.5 29t-41.5 9q-23 0 -36 -12.5t-13 -35.5q0 -22 18.5 -38t48.5 -36l114 -114l-58 -59q-53 35 -105.5 71.5t-94.5 74.5t-68 78t-26 84q0 29 12.5 57.5t34.5 51t50.5 36t61.5 13.5q48 0 94 -27.5t88 -69.5q15 19 32.5 36.5t38 31t42 21.5
t44.5 8q35 0 70.5 -14.5t68 -38.5t60.5 -55t48.5 -63t32.5 -63.5t12 -56.5q0 -19 -7 -35t-19 -30t-26.5 -26t-29.5 -24q-25 -19 -44.5 -38.5t-19.5 -40.5q0 -11 10.5 -17.5t24.5 -6.5q27 0 53 27z" />
    <glyph glyph-name="uni0963.001" horiz-adv-x="1707" 
d="M1317 -414l119 -120q-25 -42 -59.5 -77t-72.5 -48h2q-32 -15 -43 -31.5t-11 -32.5q0 -11 7.5 -17.5t15.5 -6.5q28 0 56 21t58 56l120 -125q-37 -57 -81 -90t-91 -33q-26 0 -55 12t-57.5 32t-54.5 46t-46 54.5t-31.5 57.5t-11.5 54q0 43 30 84q-23 21 -42 44.5t-32.5 46
t-21.5 43.5t-8 36q0 19 7 35t19 29.5t27 26t30 24.5q25 19 44 38.5t19 41.5t-17.5 40.5t-42.5 18.5q-16 0 -31 -8.5t-27 -22t-21 -30.5t-12 -35l-54 -54l-113 112q-17 20 -39 29t-42 9q-23 0 -35.5 -12.5t-12.5 -35.5q0 -22 18 -38t48 -36l114 -114l-58 -59
q-53 35 -105 71.5t-94 74.5t-68 78t-26 84q0 29 12.5 57.5t34 51t50 36t61.5 13.5q48 0 94 -27.5t89 -69.5q14 19 32 36.5t38 31t41.5 21.5t44.5 8q35 0 70.5 -14.5t68 -38.5t60.5 -55t48.5 -63t32.5 -63.5t12 -56.5q0 -19 -7 -35t-19 -30t-26.5 -26t-29.5 -24
q-25 -19 -44.5 -38.5t-19.5 -40.5q0 -11 10.5 -17.5t24.5 -6.5q27 0 53 27z" />
    <glyph glyph-name="uni0978" unicode="&#x978;" horiz-adv-x="0" 
 />
    <glyph glyph-name="dv_chandrabindu_adhomukha" unicode="&#x900;" horiz-adv-x="1415" 
d="M887 1412l-128 -164l-164 129l130 162zM1103 1362l-123 99q-17 27 -39.5 60t-53 61.5t-70 48t-91.5 19.5h-13.5t-14.5 -1h1q-46 -6 -80.5 -32t-58.5 -59q-12 -16 -21 -34t-15 -36t-10 -35t-7 -30l-48 -57l-130 101q2 23 12 56.5t27 69.5t41.5 72.5t55.5 67t69 52t83 27.5
q9 1 18 1.5t19 0.5q61 0 118.5 -19.5t108.5 -51.5t95 -73.5t79.5 -84.5t61 -85t39.5 -75z" />
    <glyph glyph-name="space" unicode=" " horiz-adv-x="512" 
 />
    <glyph glyph-name="exclam" unicode="!" horiz-adv-x="989" 
d="M724 1224q-2 -25 -5.5 -62.5t-8.5 -88.5t-10.5 -106.5t-10.5 -116.5q-2 -24 -4.5 -49t-4.5 -51q-3 -36 -6.5 -74t-5.5 -76q-3 -32 -5.5 -66.5t-4.5 -68.5t-4.5 -65.5t-3.5 -56.5q-14 14 -21.5 15.5t-15.5 -0.5q-25 -6 -40 8q-4 42 -9 92t-10 104t-10.5 110.5t-11.5 112.5
q-8 71 -15 138.5t-12.5 125.5t-10 103.5t-5.5 71.5q-1 18 -2 41t-1 47q0 39 4.5 80t17.5 74.5t37.5 54.5t65.5 21q38 0 61.5 -17t37 -44.5t18 -63t4.5 -71.5q0 -29 -2 -56t-4 -49q-1 -5 -1.5 -9t-0.5 -7v-1zM611 291q61 0 102 -45q42 -44 42 -103q-1 -29 -12.5 -55
t-31.5 -47q-42 -43 -104 -43q-30 1 -56 13t-47 33q-42 43 -40 105q0 57 43 100q45 43 104 42z" />
    <glyph glyph-name="quotedbl" unicode="&#x22;" horiz-adv-x="827" 
d="M249 1426q24 0 42.5 -1.5t31 -7.5t19 -18t6.5 -34q0 -11 -1 -16.5l-3 -16.5q-3 -19 -6 -46l-54 -326q-35 -38 -71 -1l-53 327q-3 27 -6 46l-3 16.5t-1 16.5q0 22 6.5 34t19.5 18t31 7.5t42 1.5zM569 1426q24 0 42.5 -1.5t31 -7.5t19 -18t6.5 -34q0 -11 -1 -15.5l-3 -13.5
q-2 -10 -3.5 -22.5t-3.5 -27.5l-52 -326q-35 -36 -72 -1l-52 327q-2 15 -3.5 27.5t-3.5 22.5l-3 13.5t-1 15.5q0 22 6.5 34t19.5 18t31 7.5t42 1.5z" />
    <glyph glyph-name="numbersign" unicode="#" horiz-adv-x="1024" 
d="M449 806q-21 -78 -39.5 -149t-40.5 -149h208q21 78 40.5 149t40.5 149h-209zM768 806q-21 -78 -40 -149t-40 -149h197l-38 -126h-195q-25 -91 -51.5 -188t-50.5 -188h-104l98 376h-210q-12 -44 -25 -92t-26 -96.5t-26 -96t-25 -91.5h-103l101 376h-223l38 126h216
q20 78 40 149t40 149h-225l41 126h216q10 40 22 84l24 88t23.5 87.5t21.5 82.5h112l-91 -342h205q10 40 21.5 84t23.5 88t23.5 87.5t22.5 82.5h114l-92 -342h202l-33 -126h-204z" />
    <glyph glyph-name="dollar" unicode="$" horiz-adv-x="1024" 
d="M548 1222q-65 -3 -106.5 -24.5t-65 -51.5t-32.5 -64t-9 -63q0 -39 13 -71.5t39 -60.5h-1q47 -48 111 -88zM503 87q45 1 87 13t74.5 36t52 62t19.5 93q0 31 -5.5 65t-23.5 69t-53 70t-94 69zM651 1303q45 -3 94 -11t100 -19q6 -17 14 -46t15 -63t12 -68t5 -61
q-3 -9 -11.5 -15t-18.5 -7.5t-20.5 0.5t-17.5 10q-2 3 -2.5 6t-2.5 6q-9 21 -22 46.5t-33.5 50.5t-49.5 47t-71 34q-14 -118 -29 -230.5t-29 -230.5q20 -10 38.5 -19.5t37.5 -20.5v1q52 -26 96 -62t79 -78q72 -89 72 -214q0 -78 -28.5 -143t-82.5 -112.5t-131 -75
t-174 -28.5q-5 -45 -10.5 -91.5t-10.5 -91.5q-20 -15 -45 -15q-12 0 -24.5 4.5t-22.5 13.5l25 185q-50 4 -89.5 12t-69.5 18t-50 20t-32 17q-27 31 -43 107q-8 37 -11.5 78.5t-3.5 89.5q9 15 29.5 20t37.5 -9q9 -32 26.5 -70.5t46 -76t69.5 -68.5t98 -46q16 128 32 254.5
t32 255.5q-17 8 -34.5 16.5t-34.5 17.5q-45 23 -86.5 56t-73.5 75t-51.5 92.5t-19.5 108.5q0 66 25.5 125t74.5 104t120.5 72.5t163.5 30.5q5 37 9 74.5t8 73.5q12 17 44 17t50 -19z" />
    <glyph glyph-name="percent" unicode="%" horiz-adv-x="1729" 
d="M1621 373q1 -41 -7 -87t-24.5 -90.5t-42.5 -85t-61.5 -71.5t-81 -49t-101.5 -18q-57 0 -102.5 18t-81 49t-61 71.5t-42 85t-24.5 90.5t-8 87t8 86.5t24.5 90t42 85.5t61 71.5t81 49t102.5 18.5q56 0 101.5 -18.5t80.5 -49t61 -71.5t42.5 -85.5t24.5 -90t8 -86.5z
M1452 373q0 24 -1.5 57.5t-7 69t-15.5 70.5t-26.5 62.5t-40 44t-56.5 16.5t-57 -16.5t-41 -43.5t-27.5 -61.5t-16.5 -70t-8 -69.5t-2 -59q0 -26 2 -59.5t8 -69t16.5 -69.5t27.5 -61t41 -43.5t57 -16.5q49 0 78.5 35.5t44.5 86t19.5 105t4.5 92.5zM725 905q0 -62 -18.5 -132
t-57.5 -130t-99 -99.5t-143 -39.5q-85 0 -145.5 39.5t-99.5 99.5t-57 130t-18 132q0 41 8 87t24.5 90.5t42.5 85t61.5 71.5t81.5 49t102 18q55 0 100.5 -18t80.5 -49t61 -71.5t43 -85t25 -90.5t8 -87zM555 905q0 19 -1 43.5t-3.5 51t-7.5 54t-13 52.5q-15 50 -44 84t-77 34
q-50 0 -79.5 -35t-45.5 -85.5t-21 -105t-6 -93.5q0 -40 6 -95.5t21 -106.5q9 -23 20.5 -44.5t26.5 -38t34.5 -26t43.5 -9.5q33 0 56.5 17t39.5 44t26 61.5t15.5 70t7 69t1.5 58.5zM475 -80q-32 0 -55.5 16.5t-23.5 43.5l813 1349q21 3 45.5 -9t44.5 -36z" />
    <glyph glyph-name="ampersand" unicode="&#x26;" horiz-adv-x="1675" 
d="M1325 982q58 0 102 0.5t78 1.5t59.5 2.5t45.5 3.5q17 -13 19 -35.5t-12 -37.5l-92 -14q-38 -6 -69.5 -27t-58 -50t-49.5 -64.5t-44 -71.5q-51 -81 -106.5 -160t-120.5 -168q11 -17 19 -30t13 -21q10 -16 16.5 -25t11.5 -16q39 -59 76.5 -93.5t72.5 -52.5t68 -23t63 -5
q45 0 93 18t83 54q20 -4 32.5 -18.5t6.5 -35.5q-65 -80 -149.5 -111t-181.5 -31q-35 0 -68 4.5t-62.5 13t-53 19.5t-38.5 24q-11 10 -26.5 31.5t-32 46.5t-32 50t-25.5 43q-43 -48 -91 -90t-102 -73.5t-114.5 -50t-127.5 -18.5q-72 0 -130 16.5t-103 44.5t-77.5 65t-53 78.5
t-30.5 85t-10 83.5q0 78 24.5 141t67 115.5t99 96.5t121.5 84q-27 19 -52.5 43.5t-45.5 54.5t-32 65.5t-12 77.5q0 62 24 114t64.5 89.5t93.5 58.5t111 21q117 0 194 -71v1q76 -70 76 -181q0 -49 -16.5 -85t-43 -64t-60.5 -49.5t-70 -41.5q78 -54 172.5 -146.5t185.5 -223.5
q18 24 43 63.5t52 85.5t53.5 94.5t47.5 90.5q25 50 34 73t9 31q0 12 -41 18q-17 2 -36 4t-36 4q-8 7 -11.5 17t-3 20.5t6 20t14.5 15.5h168zM517 727l-6 -3q-2 1 -5 4zM913 288q-36 60 -81.5 121t-97.5 117.5t-108.5 107t-114.5 90.5q-36 -18 -73.5 -48.5t-68.5 -72
t-50.5 -92t-19.5 -107.5q0 -64 21 -117t59 -91.5t90.5 -59.5t115.5 -21q49 0 94 13t86 36t78 54.5t70 69.5zM579 1222q-30 0 -54 -11t-42 -35q-36 -47 -36 -105q0 -117 150 -203q47 32 78 79.5t31 113.5q0 61 -32 113q-29 48 -95 48z" />
    <glyph glyph-name="quotesingle" unicode="'" horiz-adv-x="481" 
d="M239 1426q24 0 42.5 -1.5t31 -7.5t19 -18t6.5 -34q0 -11 -2 -26t-7 -41q-1 -3 -1 -6.5t-1 -6.5v1q-12 -81 -26 -163t-27 -163q-35 -38 -71 -1l-53 327q-3 27 -6 46q-2 11 -2.5 16.5t-0.5 16.5q0 22 6.5 34t19 18t30.5 7.5t42 1.5z" />
    <glyph glyph-name="parenleft" unicode="(" horiz-adv-x="854" 
d="M548 -164q-88 76 -171 161.5t-147.5 188.5t-103.5 226t-39 273q0 136 36.5 253.5t99.5 220t146.5 191t177.5 168.5h89q-88 -90 -157.5 -179.5t-117.5 -189t-73 -214t-25 -254.5q0 -101 12.5 -186t35.5 -158.5t56.5 -138t76 -124.5t93.5 -118.5t109 -119.5h-98z" />
    <glyph glyph-name="parenright" unicode=")" horiz-adv-x="885" 
d="M795 685q-1 -149 -40 -272t-103.5 -225.5t-148 -189t-173.5 -162.5h-94q85 91 155.5 178t121 185t78 214.5t27.5 267.5q0 141 -25.5 255.5t-73.5 213.5t-117.5 188.5t-157.5 179.5h90q93 -80 177 -168.5t147 -191t100 -220t37 -253.5z" />
    <glyph glyph-name="asterisk" unicode="*" horiz-adv-x="807" 
d="M456 1126q59 29 118.5 59.5t117.5 59.5q23 -4 33.5 -22.5t5.5 -41.5l-219 -152q54 -37 108.5 -75t108.5 -75q5 -22 -4.5 -41.5t-33.5 -23.5l-235 123q-5 -60 -9.5 -123.5t-9.5 -122.5q-14 -13 -36 -13t-37 13l-21 246q-58 -30 -117.5 -61.5t-116.5 -61.5q-22 3 -33 23
t-5 42l217 150q-53 37 -110 76.5t-109 75.5q-5 23 5 41.5t33 22.5l237 -119q5 60 10 123.5t10 122.5q15 14 37 13.5t36 -13.5z" />
    <glyph glyph-name="plus" unicode="+" horiz-adv-x="1024" 
d="M436 0v362h-327v124h327v328h142v-328h327v-124h-327v-362h-142z" />
    <glyph glyph-name="comma" unicode="," horiz-adv-x="512" 
d="M229 270q28 0 58.5 -13t55.5 -39t41 -65t16 -92q0 -62 -22.5 -110.5t-60 -85.5t-87 -63.5t-103.5 -43.5q-11 4 -19.5 12.5t-11.5 19.5q-6 26 11 39q22 8 50 21t52.5 32.5t41 46.5t16.5 64q0 22 -9.5 38t-23.5 27t-29 18.5t-27 12.5q-6 2 -11.5 4.5t-8.5 4.5h1
q-24 13 -32.5 30t-8.5 39q0 20 7 38.5t21.5 33t35 23t47.5 8.5z" />
    <glyph glyph-name="hyphen" unicode="-" horiz-adv-x="774" 
d="M197 544l-118 142h530l126 -142h-538z" />
    <glyph glyph-name="period" unicode="." horiz-adv-x="512" 
d="M253 -28q-24 0 -47 8.5t-40 24t-27.5 38.5t-10.5 52t9.5 53t26.5 41.5t40 27t49 9.5q29 0 52 -10.5t39.5 -28.5t25 -42t8.5 -50q0 -54 -33.5 -88.5t-91.5 -34.5z" />
    <glyph glyph-name="slash" unicode="/" horiz-adv-x="670" 
d="M188 -32h-141l426 1430h141z" />
    <glyph glyph-name="zero" unicode="0" horiz-adv-x="1024" 
d="M506 1306q58 0 106.5 -16.5t89 -45.5t73 -70t58.5 -89h-1q26 -48 45 -102t31.5 -111.5t18.5 -116.5t6 -116q0 -80 -11 -160.5t-33.5 -154.5t-56.5 -138.5t-81.5 -112t-108.5 -74.5t-136 -27t-136 27t-108.5 74.5t-81.5 112t-56.5 138.5t-33.5 154.5t-11 160.5q0 57 6 116
t18.5 116.5t31 111.5t44.5 102t58.5 89t73 70t89.5 45.5t106 16.5zM506 1220q-52 0 -89 -30t-61.5 -79.5t-39.5 -112t-22.5 -127t-9.5 -125.5t-2 -107t2 -107t9.5 -125.5t22.5 -127t39.5 -112t61.5 -79.5t89 -30t88.5 30t61.5 79t39.5 111.5t22.5 127t10 126t2 107.5t-2 107
t-10 125.5t-22.5 127t-39.5 112t-61.5 79.5t-88.5 30z" />
    <glyph glyph-name="one" unicode="1" horiz-adv-x="1024" 
d="M434 937q0 47 -3 78.5t-12 52t-26 31t-45 14.5q-23 2 -49 4t-49 4q-9 4 -14 13.5t-5.5 20t3.5 20t13 14.5q63 10 115 25t93.5 31t72 32t50.5 29q25 0 37 -21q-2 -14 -3.5 -38.5t-2.5 -57.5t-1.5 -72.5t-0.5 -83.5v-776q0 -54 1.5 -88.5t9 -54.5t22 -28.5t41.5 -10.5
l88 -6q7 -7 9.5 -18.5t1.5 -23.5t-6 -21t-12 -12q-58 4 -122.5 5t-117.5 1q-54 0 -118 -1t-123 -5q-9 3 -14.5 12.5t-7 21t1.5 23t12 18.5l86 6q27 2 42 10.5t22.5 28.5t9 54.5t1.5 88.5v680z" />
    <glyph glyph-name="two" unicode="2" horiz-adv-x="1024" 
d="M638 149q133 0 181 42q23 22 35.5 40t20.5 33l-1 -1q1 2 3 5t3 5q15 5 37 0t31 -20q-10 -39 -22 -77t-25 -74q-26 -72 -52 -108q-63 3 -130.5 4.5t-134.5 1.5h-290q-85 0 -138 -1t-86 -5q-8 4 -16.5 13t-8.5 25q0 8 8 16.5t20 16.5q33 22 64 47.5t66 59t77 77.5t96 103
q49 53 99.5 114.5t91.5 130t66.5 143t25.5 153.5q0 133 -60 206t-177 73q-86 0 -148 -53.5t-102 -142.5q-11 -6 -23 -6.5t-22.5 4t-17.5 14t-7 24.5q26 70 65.5 124.5t96.5 92.5q113 77 252 77q78 0 141 -24.5t108 -69.5t69.5 -107.5t24.5 -137.5q0 -48 -12 -99t-37 -105
t-66.5 -115t-101.5 -130l-122 -140q-61 -70 -96.5 -112t-54 -65.5t-23.5 -33t-5 -13.5q0 -3 8.5 -4t40.5 -1h248z" />
    <glyph glyph-name="three" unicode="3" horiz-adv-x="1024" 
d="M286 -112q-36 0 -73.5 7t-68 22.5t-50 41.5t-19.5 65q0 18 6.5 34t18 29t28.5 20.5t38 7.5t37 -7.5t28.5 -18.5t22.5 -25t18 -27l-1 1q19 -25 39 -40t58 -15q31 0 68.5 13t75.5 37.5t74.5 59t64.5 76.5t45 91t17 102q0 64 -15 121t-45.5 100t-76.5 68t-108 25
q-71 0 -123.5 -30t-87.5 -69q-16 2 -29.5 10t-22.5 20t-11 28.5t4 35.5q30 12 72.5 32t88 43.5t89 49t73.5 49.5q15 14 32.5 31.5t34.5 39.5q33 45 33 111q0 77 -44 117q-45 42 -107 42q-43 0 -81 -13t-70.5 -36.5t-60 -55.5t-50.5 -70q-25 -6 -44 7t-19 36q25 55 63.5 101
t87.5 79.5t106 52.5t118 19q63 0 116 -17t93 -47q40 -32 61 -77t21 -102q0 -32 -8 -63.5t-31 -63.5t-65.5 -66t-111.5 -71q0 -9 14 -10q58 -5 112.5 -28.5t96.5 -64t67 -97.5t25 -130q0 -112 -50.5 -216.5t-147.5 -189.5q-57 -48 -116.5 -81.5t-115.5 -54t-106.5 -30
t-87.5 -9.5z" />
    <glyph glyph-name="four" unicode="4" horiz-adv-x="1024" 
d="M74 378q-41 0 -41 47q0 19 7.5 35.5t31.5 48.5h-1q161 225 321 448t321 448v-1q12 17 24.5 25.5t32.5 8.5h34q43 0 43 -28q0 -14 -13 -30h1q-160 -222 -318.5 -441t-318.5 -440q-7 -8 5.5 -9.5t40.5 -1.5h310q28 0 35.5 6.5t7.5 32.5v368q0 12 4.5 26t19.5 25
q20 12 51.5 23t56.5 13q16 1 24.5 -3t12.5 -13t4.5 -22.5t0.5 -29.5v-393q0 -20 4.5 -26.5t22.5 -6.5h132q22 -18 22 -53q0 -36 -21 -57h-113q-29 0 -38 -4.5t-9 -26.5v-90q0 -53 3 -86.5t11 -53.5t23 -29t38 -13q13 -2 28.5 -3t27.5 -3q8 -7 11 -18.5t1.5 -23t-7 -21
t-14.5 -12.5q-54 4 -108.5 5t-100.5 1q-54 0 -119.5 -1t-132.5 -5q-8 3 -12.5 12t-6 21t1 23.5t10.5 18.5l94 6q28 2 44 10.5t23.5 28.5t9 54.5t1.5 88.5v84q0 30 -4 33q-5 4 -41 4h-478z" />
    <glyph glyph-name="five" unicode="5" horiz-adv-x="1024" 
d="M256 1203q10 28 21.5 43t40.5 20l482 68h-1q18 4 26 -8.5t8 -23.5q-11 -36 -33.5 -72.5t-45.5 -61.5l-383 -55q-29 -3 -39.5 -13.5t-17.5 -32.5q-8 -27 -18.5 -59.5t-18.5 -59.5q-6 -19 17 -20l43 -4q96 -11 191 -37t172 -79q39 -27 72 -60.5t57 -75t37 -91t13 -108.5
q0 -134 -69 -245q-34 -54 -79 -102t-97 -87t-111 -70.5t-123 -54.5q-129 -46 -252 -50q-27 10 -29 41q-1 28 21 46q114 6 216.5 43t180 98.5t123 145t45.5 183.5q0 51 -13 92.5t-36 75t-55 60t-70 46.5q-39 20 -82.5 33.5t-89 22t-91 12.5t-88.5 5q-38 0 -38 35q0 9 2 19.5
t5 23.5z" />
    <glyph glyph-name="six" unicode="6" horiz-adv-x="1024" 
d="M73 485q0 64 12 141.5t42.5 161t83.5 168t134 164.5q79 77 162.5 129.5t161.5 85.5t145.5 50t114.5 23q8 -3 14 -11.5t8.5 -18.5t1 -20t-8.5 -16q-47 -15 -102.5 -35.5t-113.5 -50.5t-116.5 -71t-110.5 -97q-123 -130 -176 -288q-48 -152 -48 -310q0 -84 15 -162t47 -138
t82 -96t121 -36q53 0 93 23t66.5 62.5t40 93t13.5 114.5q0 62 -14 120t-42.5 102.5t-72.5 71.5t-104 27q-21 0 -39 -4t-33 -8l1 1q-14 -4 -16.5 -4t-5.5 -1q-36 19 -15 54q48 29 96.5 46.5t110.5 17.5q75 0 135.5 -28t104 -78t67 -118t23.5 -147q0 -90 -31.5 -169t-89 -137
t-137.5 -91.5t-177 -33.5q-113 0 -196.5 41t-138.5 111t-81.5 163.5t-26.5 197.5z" />
    <glyph glyph-name="seven" unicode="7" horiz-adv-x="1024" 
d="M321 1128q-41 0 -70.5 -2.5t-52.5 -12.5t-42.5 -30t-41.5 -54q-14 -5 -33.5 -0.5t-30.5 25.5q17 42 37 104.5t35 126.5q29 -4 84 -5.5t138 -1.5h338h85t80.5 1t65.5 2t38 3q26 -10 26 -34q-42 -65 -87 -147.5t-102 -196.5l-513 -1033q-32 -5 -58.5 9.5t-31.5 42.5
l567 1148q16 32 16 42q0 8 -12 10.5t-36 2.5h-399z" />
    <glyph glyph-name="eight" unicode="8" horiz-adv-x="1024" 
d="M533 1306q69 0 131 -19.5t109.5 -57.5t75.5 -95.5t28 -132.5q0 -59 -21.5 -105t-54.5 -82.5t-72.5 -65t-76.5 -51.5q51 -30 97 -65t80.5 -80t55 -101t20.5 -127q0 -82 -30.5 -147.5t-85.5 -111t-131 -69.5t-166 -24q-69 0 -137.5 18.5t-123 60t-88.5 107.5t-34 161
q0 56 22 104t58.5 89t83 76.5t94.5 66.5q-41 25 -80 56t-69 70t-48.5 85.5t-18.5 102.5q0 79 29.5 141.5t81 106t121.5 66.5t150 23zM512 58q103 0 160 61q60 63 60 168q0 55 -25 103t-65 88.5t-91 72.5t-102 56q-93 -65 -131 -136q-40 -71 -40 -134q0 -60 17 -111.5
t48 -88.5t74 -58t95 -21zM518 1220q-48 0 -85 -17t-62 -46t-38 -66.5t-13 -79.5q0 -49 22 -88.5t57.5 -71.5t80 -58.5t90.5 -49.5q66 48 106.5 110.5t40.5 144.5q0 42 -14 82t-40.5 71t-63 50t-81.5 19z" />
    <glyph glyph-name="nine" unicode="9" horiz-adv-x="1024" 
d="M484 1220q-44 0 -82.5 -17.5t-68.5 -49.5q-60 -68 -60 -195q0 -57 13.5 -114.5t41 -104t68 -76t94.5 -29.5q19 0 32 0.5t21 1.5l15 2.5t21 4.5q30 -17 16 -46q-33 -28 -81.5 -45.5t-109.5 -17.5q-63 0 -120.5 24.5t-101 70t-69.5 110.5t-26 146q0 93 33 170t90 133
t134 87t166 31q97 0 173 -39t129 -109t81 -165.5t28 -209.5q0 -82 -18.5 -171t-55.5 -177t-93 -170.5t-131 -151.5q-56 -48 -119.5 -87.5t-128 -69.5t-126 -49.5t-111.5 -26.5q-9 3 -15.5 11.5t-9.5 19.5t-1.5 21.5t7.5 16.5q86 26 160.5 61.5t134.5 79.5q66 49 122 114.5
t96 151.5t62.5 195.5t22.5 247.5q0 66 -10.5 140t-36.5 136.5t-71.5 103.5t-114.5 41z" />
    <glyph glyph-name="colon" unicode=":" horiz-adv-x="625" 
d="M334 503q51 0 89 -38t38 -88q0 -49 -38 -89q-38 -38 -89 -38q-49 0 -89 38q-38 40 -38 89q0 50 38 88q40 38 89 38zM330 1022q26 0 48 -9.5t38.5 -26.5t26 -39.5t9.5 -47.5q0 -26 -9.5 -48t-26 -38.5t-38.5 -26t-48 -9.5t-48 9.5t-39 26t-26.5 38.5t-9.5 48q0 49 36 87
q37 36 87 36z" />
    <glyph glyph-name="semicolon" unicode=";" horiz-adv-x="965" 
d="M776 245q0 -49 -20.5 -94.5t-56 -85t-81.5 -70t-97 -49.5l-106 32q43 21 86 47t77.5 55.5t56.5 62.5t22 69q0 19 -10 47q-1 0 -2 -1t-3 -1h1q-13 -7 -23.5 -11t-30.5 -4q-44 0 -87 26q-44 27 -44 93q0 29 10.5 52.5t29.5 39.5t44.5 24.5t54.5 8.5q45 0 79 -21.5t56 -56
t33 -77.5t11 -86zM589 1020q53 0 91 -38t38 -91t-38 -93q-38 -38 -91 -38q-26 0 -49 10t-43 28q-39 39 -39 93q0 53 39 91q20 18 43 28t49 10z" />
    <glyph glyph-name="less" unicode="&#x3c;" horiz-adv-x="1024" 
d="M909 860v-146l-621 -289q155 -72 310.5 -145.5t310.5 -145.5v-144l-803 380v108z" />
    <glyph glyph-name="equal" unicode="=" horiz-adv-x="1024" 
d="M905 512h-796v124h796v-124zM905 212h-796v123h796v-123z" />
    <glyph glyph-name="greater" unicode="&#x3e;" horiz-adv-x="1024" 
d="M907 478v-108l-803 -380v144l620 291q-155 72 -310.5 144.5t-309.5 144.5v146z" />
    <glyph glyph-name="question" unicode="?" horiz-adv-x="657" 
d="M212 1318q62 0 125.5 -35t115 -93.5t84 -134.5t32.5 -158q0 -88 -30 -133q-27 -43 -53 -58l-158 -85q-63 -33 -63 -76q0 -23 6 -54.5t14 -63.5q-9 -19 -28 -24t-36 7q-10 19 -23 44.5t-24.5 53.5t-19.5 56.5t-8 52.5q0 70 34 100v-1q16 15 36.5 28.5t43.5 27.5l99 53v-1
q56 30 79 64t23 71q0 30 -8 60t-32 54q-39 39 -93 49t-130 10q-20 0 -49 25q-30 24 -30 72q0 35 23 62t70 27zM256 -28q-24 0 -47 8.5t-40 24t-27.5 38.5t-10.5 52t9.5 53t26.5 41.5t40 27t49 9.5q29 0 52 -10.5t39.5 -28.5t25 -42t8.5 -50q0 -54 -33.5 -88.5t-91.5 -34.5z
" />
    <glyph glyph-name="at" unicode="@" horiz-adv-x="1567" 
d="M914 651q-28 0 -55.5 -15t-62.5 -43q-41 -35 -78 -86t-65 -106t-45 -108t-17 -92q0 -13 10 -13q8 0 47 22t105 78q35 33 72 78t69.5 90.5t57 86t34.5 63.5q-8 17 -26.5 31t-45.5 14zM1086 801q15 6 32.5 6t34.5 -5t31 -13.5t23 -18.5q-7 -15 -24.5 -56t-41.5 -96.5
t-50.5 -118.5t-50.5 -120.5t-43 -103.5t-27 -67q-4 -10 -6 -16.5t-2 -12.5q0 -19 41 -18q78 2 146.5 30t120 79t81.5 123.5t30 163.5q0 103 -39.5 186t-108 141t-161.5 89t-200 31q-97 0 -181 -25.5t-153 -71t-122.5 -109t-90.5 -139.5t-56 -162t-19 -177q0 -43 7 -88
t21 -92q28 -95 96 -174q68 -80 178 -130q115 -53 282 -53q106 0 180 24q37 11 69 23t61 24q15 -5 24 -23.5t3 -36.5q-48 -30 -99.5 -51t-105.5 -32q-107 -23 -193 -23q-126 0 -248 37.5t-221 116.5q-96 78 -156 198t-62 279q2 117 33.5 220t86.5 189.5t130 155t163.5 116
t187.5 72.5t202 26q147 0 260 -45t189 -119t115 -170t39 -199q0 -98 -36 -188t-104 -158t-166.5 -108.5t-223.5 -40.5q-54 0 -85 6t-47.5 15t-21 19t-4.5 17q0 9 3.5 22.5t14.5 42.5l32 83q-46 -42 -96 -79.5t-97 -65t-88.5 -44t-70.5 -16.5q-24 0 -42 8.5t-30 23t-17.5 33
t-5.5 38.5q0 13 7.5 43.5t25 72.5t47 93.5t74.5 106.5q37 45 82 90.5t97.5 82t110.5 60t121 23.5q17 0 37.5 -7.5t34.5 -22.5z" />
    <glyph glyph-name="A" unicode="A" horiz-adv-x="1276" 
d="M814 476q-9 31 -18 35q-11 6 -53 6h-305q-36 0 -46 -6q-11 -7 -19 -33l-70 -212q-21 -65 -32 -105.5t-11 -57.5q0 -11 9.5 -17.5t36.5 -9.5q16 -2 35.5 -3t35.5 -3q7 -6 11 -17t3.5 -22.5t-5.5 -22t-16 -14.5q-24 2 -52.5 2.5t-61.5 1.5q-18 0 -47 0.5t-50 1.5
q-51 0 -103.5 -2t-93.5 -4q-8 4 -12.5 14.5t-5.5 22t1.5 22.5t10.5 17l71 6q31 3 60 22t49 69q14 34 31 77t39 96q21 54 48.5 122t59.5 154q50 133 103 271.5t103 271.5q20 53 27 86t3 63q42 11 69.5 34.5t44.5 43.5q16 0 28 -6t20 -20q20 -68 43 -136t46 -134l275 -810
q22 -62 38.5 -100t33.5 -59.5t38 -31t51 -13.5h-1q14 -2 30 -3t29 -3q7 -6 10.5 -17t3.5 -22.5t-4 -22t-10 -14.5q-63 4 -121.5 5t-126.5 1q-74 0 -132.5 -2t-103.5 -4q-9 4 -13.5 14.5t-5.5 22t2.5 22.5t11.5 17l63 6h-1q26 3 42.5 9t16.5 14q0 15 -7 42t-18 62zM608 1113
q-2 -5 -5 -10q-2 5 -4.5 10l-4.5 9l9 -5l10 6l-3 -6zM438 655q-3 -10 -6 -19.5t-2 -10.5q2 -2 38 -2h248q23 0 32 2t9 8q0 11 -8 37q-28 82 -55 164t-55 164q-2 8 -4.5 16.5t-5.5 15.5q-7 20 -13 39.5t-13 33.5q-8 -17 -17.5 -42.5t-20.5 -54.5z" />
    <glyph glyph-name="B" unicode="B" horiz-adv-x="1239" 
d="M250 1080q0 54 -2.5 88t-11.5 54t-26 29t-47 12q-16 1 -34 2t-34 3q-9 7 -13 18.5t-4 22.5t5 20.5t14 14.5q82 9 188 13t250 4q97 0 186 -12t158 -46q33 -17 62 -41t51 -56h-1q48 -66 48 -167q0 -113 -60 -180q-28 -29 -64.5 -55.5t-78.5 -47.5q3 -5 10 -6.5t16 -3.5h-1
q42 -8 91 -32t91.5 -66t70.5 -104.5t28 -146.5q0 -182 -138 -293q-134 -110 -411 -110q-20 0 -45.5 1t-53.5 2q-34 2 -71 2.5t-72 0.5q-62 0 -113 -1.5t-104 -3.5q-3 0 -7 -0.5t-8 -0.5q-8 3 -13.5 12.5t-7 21t1 23t10.5 18.5l41 7q36 5 56 15t29.5 35t11.5 69.5t2 119.5
v765zM441 345q0 -27 1.5 -57.5t5.5 -60t11.5 -54t20.5 -39.5q26 -32 65.5 -42t84.5 -10q64 0 119.5 15t96 47t63.5 83.5t23 123.5q0 57 -16.5 116t-59.5 107t-118.5 78t-192.5 30q-36 0 -56.5 -2t-31 -6.5t-13.5 -12t-3 -18.5v-298zM441 812q0 -13 1 -21.5t5.5 -13.5t14 -7
t26.5 -2h19.5t24.5 1q74 2 130.5 15t95 41.5t58.5 74.5t20 114q0 71 -24.5 120t-64.5 80t-92 44.5t-106 13.5q-61 0 -88 -11q-12 -3 -16 -11t-4 -29v-409z" />
    <glyph glyph-name="C" unicode="C" horiz-adv-x="1425" 
d="M82 670q0 88 17 165t53 146q35 70 82 127t106 104q114 88 253 131t299 43q40 0 88 -3.5t96.5 -10t94.5 -15.5t82 -20l-2 1q5 -1 9 -2l8 -2q10 -3 21 -3.5t28 1.5q1 -19 3 -52.5t6 -75.5t9 -90t12 -97q-6 -7 -16.5 -11.5t-22 -5.5t-22.5 1.5t-19 9.5q-12 49 -35.5 100.5
t-69 93t-117.5 68t-179 26.5q-113 0 -214 -36t-177 -110.5t-121 -187.5t-45 -266q0 -155 46 -275t125 -201.5t185.5 -124t228.5 -42.5q94 0 163.5 27.5t118.5 69.5t80 91.5t48 93.5q7 6 18 7.5t22.5 -1t21 -8t14.5 -13.5q-6 -41 -18 -85.5t-26 -84t-29.5 -71.5t-28.5 -47
q-23 -5 -41 -10t-33 -10h1q-17 -6 -51 -14.5t-78.5 -15.5t-95 -12t-98.5 -5q-139 0 -267 30.5t-241 105.5q-123 83 -208 224q-84 142 -84 342z" />
    <glyph glyph-name="D" unicode="D" horiz-adv-x="1597" 
d="M251 1080q0 49 -2.5 82.5t-11 54.5t-25 32t-44.5 14l-47 5q-9 6 -14 17t-5 22.5t6 21.5t19 15q130 9 253 13t253 4q127 0 237 -13.5t209 -48.5q100 -38 178 -100.5t131.5 -142.5t81 -172.5t27.5 -190.5q0 -195 -91 -355q-93 -160 -268 -256q-50 -27 -105.5 -45.5
t-114 -30t-118.5 -17t-119 -5.5q-49 0 -95.5 2t-91.5 6t-80 6t-61 2q-65 0 -124 -1t-130 -5q-8 3 -12.5 12t-5.5 21t1.5 23.5t9.5 19.5l49 6q40 5 62.5 15t33 34.5t12.5 69.5t2 120v765zM442 361q0 -76 7.5 -126.5t30.5 -85.5q32 -42 88.5 -59.5t149.5 -17.5q144 0 248 45
t171.5 126t100 194.5t32.5 251.5q0 40 -5 87.5t-18.5 96.5t-36 98t-57.5 92q-32 44 -79 82.5t-109.5 66.5t-141 44t-174.5 16q-88 0 -134 -7.5t-57 -16.5q-16 -13 -16 -144v-743z" />
    <glyph glyph-name="E" unicode="E" horiz-adv-x="1196" 
d="M250 1088q0 56 -5.5 91t-18.5 56t-34.5 31t-53.5 15q-8 1 -17 2t-17 2q-19 13 -17 39q1 15 7.5 24t15.5 13q65 -4 121 -5t118 -1h379h92.5t82.5 1q75 1 104 7q6 -14 11 -40t9 -57.5t7 -66.5t6 -66q2 -14 3 -29.5t2 -26.5q-5 -8 -15 -12.5t-21 -6t-21.5 1t-16.5 9.5l-7 20
q-9 30 -19.5 56t-26 47.5t-37.5 37.5t-55 25q-32 8 -79.5 9.5t-113.5 1.5h-144q-18 0 -27.5 -1.5t-14 -8t-5.5 -20t-1 -37.5v-403q0 -17 1.5 -25.5t7.5 -13t16.5 -5t28.5 -0.5h116q64 0 107.5 3t60.5 9q14 5 22.5 17t16.5 44q4 21 8 42.5t8 42.5q6 8 17.5 11t23.5 2t22 -5
t15 -11q0 -17 -0.5 -39t-2.5 -44q-2 -28 -3.5 -60.5t-1.5 -64.5q0 -30 1.5 -59.5t3.5 -56.5q2 -20 2.5 -43t0.5 -38q-5 -7 -15 -11t-22 -5t-23.5 2.5t-17.5 11.5l-18 80q-5 23 -16.5 41t-37.5 25q-21 7 -57.5 9t-93.5 2h-116q-42 0 -49 -6q-5 -4 -5 -36v-284q0 -78 6 -128
t29 -73q7 -9 20.5 -16.5t39.5 -13.5t68 -9t106 -3q57 0 97.5 1.5t69.5 5t49.5 9t35.5 13.5l-1 -1q27 17 62.5 66t76.5 127q16 11 40.5 5.5t34.5 -26.5q-6 -27 -17.5 -67.5t-25.5 -83.5t-28.5 -82t-26.5 -61q-137 3 -274.5 4.5t-271.5 1.5h-182q-32 0 -63 -0.5t-62 -1.5h-22
t-24 -1q-23 -1 -48.5 -1.5t-54.5 -1.5q-9 3 -14.5 12.5t-7 21.5t1.5 23.5t11 18.5l71 6q37 4 59.5 14t34.5 35t15.5 70.5t3.5 119.5v773z" />
    <glyph glyph-name="F" unicode="F" horiz-adv-x="1102" 
d="M440 774q0 -15 1.5 -23.5t7.5 -12t16.5 -4.5t28.5 -1h137q62 0 106 2.5t61 7.5h-1q14 5 24 16.5t18 45.5q5 20 10 42t10 42q11 17 38 17q28 0 39 -21q0 -17 -0.5 -39t-2.5 -45q-2 -28 -3.5 -60t-1.5 -62t1.5 -59.5t3.5 -58.5q2 -21 2.5 -43.5t0.5 -37.5
q-5 -8 -14.5 -11.5t-21 -4t-23 3t-18.5 10.5l-22 81q-7 26 -19.5 43t-35.5 25l1 -1q-23 6 -59 8t-93 2h-137q-43 0 -49 -5q-5 -4 -5 -36v-280q0 -74 3.5 -118.5t14.5 -70t33 -36t60 -14.5q17 -2 35.5 -3t35.5 -3q20 -11 18 -41q-2 -26 -22 -35q-29 1 -57 1.5t-51 1.5
q-9 0 -22 0.5t-21 0.5q-30 1 -60 1.5t-60 0.5q-66 0 -125 -1t-129 -5q-8 3 -12.5 12t-5.5 21t1.5 23.5t9.5 19.5l53 6q37 5 59 15.5t33.5 36t14.5 70t3 117.5v758q0 63 -4 101t-16 60t-33.5 32t-56.5 15q-8 1 -16.5 2t-16.5 2q-20 13 -18 39q1 15 7.5 24t16.5 13
q64 -4 119.5 -5t115.5 -1h370h91.5t82.5 1q38 1 63.5 2.5t47.5 6.5q0 -72 1.5 -149t4.5 -136q-3 -8 -11.5 -13t-19.5 -7t-22.5 0t-19.5 9q-12 71 -40 121q-11 22 -35.5 38.5t-56.5 26.5q-32 8 -75 9.5t-100 1.5h-140q-18 0 -27.5 -1.5t-14 -8t-5.5 -20t-1 -37.5v-425z" />
    <glyph glyph-name="G" unicode="G" horiz-adv-x="1530" 
d="M1324 218q0 -57 9.5 -89.5t33.5 -42.5q25 -23 -6 -48q-18 0 -44 -5t-55 -13q-38 -11 -85.5 -20t-95.5 -17t-94.5 -11.5t-88.5 -3.5q-92 0 -178.5 13t-165.5 40.5t-149 70.5t-129 104q-94 93 -142 211t-48 254q0 66 11 130.5t33.5 126.5t57.5 120t84 109q52 54 117.5 97.5
t141.5 76.5q77 32 175.5 48.5t212.5 16.5q45 0 84.5 -3t74.5 -8q36 -6 61 -10.5t39 -7.5t30.5 -6.5t35.5 -8.5h-1q19 -3 35.5 -3.5t33.5 3.5q0 -59 8 -139t23 -171q-9 -23 -38 -25q-25 -2 -42 15q-21 79 -58.5 133t-88.5 86t-115 46t-139 14q-143 0 -246.5 -47t-171 -126
t-99.5 -181t-32 -213q0 -143 37 -266.5t110.5 -215t184.5 -144t259 -52.5q92 0 144 15t67 38q7 9 12.5 36t5.5 73v81q0 57 -4.5 91t-17.5 52.5t-36.5 26t-61.5 12.5q-21 2 -45.5 5.5t-45.5 5.5q-20 11 -19 39q1 27 22 36q45 -4 121.5 -5t168.5 -1q114 0 216 6q7 -4 11.5 -14
t5 -21t-2.5 -22t-10 -18l-35 -4q-26 -4 -41 -16t-22.5 -31.5t-10 -47t-2.5 -62.5v-113z" />
    <glyph glyph-name="H" unicode="H" horiz-adv-x="1651" 
d="M530 651q-32 0 -49.5 -1.5t-26 -7t-10.5 -16t-2 -27.5v-284q0 -75 3 -120.5t14.5 -70.5t34 -34.5t60.5 -13.5l60 -6q20 -11 18 -41q-1 -14 -7.5 -22.5t-15.5 -12.5q-38 2 -70.5 3t-59.5 2h-12q-29 1 -58 1h-58q-60 0 -111 -1.5t-104 -3.5q-5 0 -9.5 -0.5t-9.5 -0.5
q-9 3 -14.5 12.5t-7 21t1 23t10.5 18.5l39 7q36 7 57.5 17t32 35t13.5 69t3 118v724q0 74 -4.5 119.5t-16.5 71.5t-32.5 36.5t-53.5 14.5q-12 1 -27.5 2t-27.5 2q-19 13 -17 39q1 15 7 23.5t15 13.5q23 -1 44.5 -1t41.5 -1q13 -1 24.5 -1.5t23.5 -0.5q29 -1 59.5 -1.5
t62.5 -0.5q60 0 115 1t121 5q10 -5 16 -13.5t7 -23.5q2 -26 -18 -39l-40 -4q-39 -5 -61 -15t-33 -35.5t-13.5 -71t-2.5 -120.5v-231q0 -20 2 -30.5t10.5 -15t26 -5.5t49.5 -1h576q32 0 50 1t26.5 5.5t10.5 15t2 30.5v231q0 74 -3.5 119t-14.5 70.5t-33.5 36.5t-59.5 16
q-9 1 -20.5 2t-20.5 2q-11 7 -14.5 17t-2.5 22q1 15 6.5 23.5t15.5 13.5q36 -2 67 -3t60 -2t58 -1h61q59 0 114.5 1t124.5 5q10 -4 16.5 -13t7.5 -24q2 -27 -19 -39l-44 -4q-39 -5 -60.5 -15t-32.5 -35.5t-13.5 -71t-2.5 -120.5v-724q0 -73 3 -117.5t14.5 -70t33 -36
t59.5 -15.5q11 -2 25 -3t25 -3q19 -11 17 -41q-1 -27 -23 -35q-72 4 -129 5t-116 1q-63 0 -121.5 -1t-124.5 -5q-7 3 -11.5 12t-6 21t0.5 23.5t9 18.5l43 7q40 7 63 17t33.5 35t13 69t2.5 118v284q0 17 -2 27.5t-10.5 16t-26.5 7t-50 1.5h-576z" />
    <glyph glyph-name="I" unicode="I" horiz-adv-x="692" 
d="M248 1035q0 75 -3.5 121t-14.5 72t-33.5 37t-59.5 16q-12 1 -26.5 2t-25.5 2q-20 13 -18 39q1 15 7 23.5t15 13.5q35 -2 66.5 -3t57.5 -2h11q29 -1 59 -1h62h59.5t57.5 1h10q26 1 58 2t67 3q10 -5 15.5 -13.5t6.5 -23.5q2 -26 -17 -39l-52 -4q-38 -5 -60 -16t-33.5 -37
t-15 -72t-3.5 -121v-716q0 -75 3.5 -120t15 -70.5t34 -36.5t60.5 -16q11 -2 25 -3t26 -3q19 -11 17 -41q-2 -27 -22 -35q-35 2 -67 3t-58 2h-10q-28 1 -57.5 1h-59.5h-62t-59 -1h-10q-26 -1 -58 -2t-67 -3q-7 3 -11.5 12t-6 21t1 23.5t10.5 19.5l53 6q38 5 60 16t33.5 36.5
t15 70.5t3.5 120v716z" />
    <glyph glyph-name="J" unicode="J" horiz-adv-x="707" 
d="M278 1035q0 79 -5.5 125.5t-20 72t-39 34.5t-62.5 14q-12 1 -27 2t-26 2q-20 13 -18 39q1 15 7 23.5t16 13.5q39 -2 72.5 -3t59.5 -2h17q29 -1 60 -1h63q60 0 115.5 1t115.5 5q10 -4 16.5 -13t7.5 -24q2 -27 -19 -39l-31 -4q-40 -6 -62.5 -17t-33.5 -36.5t-13.5 -71
t-2.5 -121.5v-746q0 -122 -9 -223t-38 -173q-26 -63 -66 -117t-92 -94.5t-115 -63.5t-136 -23q-11 0 -27.5 1.5t-32.5 6.5t-27.5 16t-11.5 31q0 15 5.5 31t16.5 36v-1q24 40 63 40q18 0 38 -3t41 -11l-1 1q22 -6 41.5 -9.5t40.5 -3.5q26 0 42.5 13t25.5 32q9 17 15.5 43.5
t12 59t9 68.5t6.5 71q2 37 4 73.5t3 71.5q0 9 0.5 17t0.5 16q1 24 1 44v35v761z" />
    <glyph glyph-name="K" unicode="K" horiz-adv-x="1382" 
d="M251 1039q0 75 -2.5 120.5t-13.5 71t-33 35.5t-60 15q-12 1 -26 2t-26 2q-20 13 -18 39q1 15 7 23.5t16 13.5q34 -2 64.5 -3t56.5 -2h11q28 -1 58.5 -1h64.5q60 0 115.5 1t120.5 5q10 -5 16 -13.5t7 -23.5q2 -26 -18 -39l-40 -4q-38 -5 -60 -15t-33 -35.5t-13.5 -71
t-2.5 -120.5v-231q0 -24 2.5 -44t11.5 -20q11 0 25 6t22 14q27 21 54 48q17 16 28.5 27.5l19.5 19.5l218 216q16 15 39.5 39.5t47 49.5t43 46.5t26.5 30.5h-1q13 17 13 24q0 2 -25 7l-57 14q-8 7 -11.5 17.5t-3 21t6 20.5t15.5 16q53 -4 112 -5t112 -1q55 0 107 1.5t97 4.5
q7 -6 11 -16t5 -21t-2 -21.5t-10 -17.5q-21 -2 -45 -6.5t-49 -11t-48.5 -16t-43.5 -21.5q-39 -22 -118 -87q-38 -32 -78.5 -67.5t-82.5 -76.5l-182 -171l-9 -10h1q-16 -17 -25 -27.5t-9 -16.5q0 -14 36 -54v1q73 -83 138.5 -159.5t125.5 -145.5v1q60 -69 119 -134.5
t119 -128.5q33 -33 69 -52t84 -26q14 -2 30.5 -3.5t28.5 -3.5q18 -15 15 -41q-3 -24 -22 -34q-80 6 -228 6q-62 0 -119.5 -1t-127.5 -5q-7 3 -12.5 12t-7.5 21t-0.5 23.5t9.5 19.5l49 8q16 3 26.5 5t10.5 3q0 4 -4.5 10.5t-10.5 15.5q-2 3 -5 6t-5 6q-21 27 -54.5 64.5
t-80.5 88.5q-8 8 -16 17l-16 18l-161 182q-41 46 -69 78t-49 51t-36.5 27.5t-30.5 8.5q-14 0 -18 -19t-4 -66v-259q0 -75 2 -120.5t12.5 -70.5t31.5 -34.5t59 -13.5l56 -6q20 -11 18 -41q-2 -26 -23 -35q-74 4 -131.5 5t-116.5 1q-62 0 -116.5 -1t-117.5 -5q-8 3 -13.5 12.5
t-7 21t1.5 23t11 18.5l44 7q36 5 56 15t29.5 34.5t11.5 69.5t2 120v724z" />
    <glyph glyph-name="L" unicode="L" horiz-adv-x="1133" 
d="M250 1039q0 75 -3 120.5t-15 71t-35.5 35.5t-65.5 15q-12 1 -26 2t-26 2q-20 13 -18 39q1 15 7 23.5t16 13.5q37 -2 70 -3t59 -2h15q30 -1 59.5 -1h59.5h58t58 1t63 2t71 3q10 -5 16 -13.5t7 -23.5q2 -26 -18 -39l-50 -4q-35 -4 -56.5 -13t-33.5 -29.5t-16.5 -56.5
t-4.5 -94v-749q0 -45 1.5 -80.5t5.5 -59.5q6 -43 31 -68q7 -8 19 -15.5t35.5 -13.5t61 -10t94.5 -4q63 0 104 2t67.5 5t42 7.5t26.5 10.5l-1 -1q29 18 65 69.5t65 128.5q20 13 43 7q31 -8 31 -28q0 -6 -4.5 -26t-12 -48t-17.5 -61t-20 -64t-19.5 -56.5t-16.5 -39.5
q-10 0 -25.5 0.5t-29.5 0.5q-68 1 -165 3q-62 1 -140 1.5t-149 0.5h-186h-61t-60 -1t-65 -2t-77 -3q-8 3 -12.5 12t-6 21t1 23.5t10.5 19.5l64 6q40 4 62 13.5t32.5 34.5t12.5 70.5t2 120.5v724z" />
    <glyph glyph-name="M" unicode="M" horiz-adv-x="1868" 
d="M803 557q61 -134 129 -261q54 99 106 206q9 19 20 40.5t20 39.5l188 386q35 69 62 125t47 101q40 87 45 168q53 -4 93 -5.5t70 -1.5q38 0 86.5 1t95.5 5q7 -5 11 -15.5t4.5 -22.5t-2 -23t-8.5 -15l-47 -4q-38 -5 -63 -18t-40 -35t-21 -53t-6 -73q2 -61 3.5 -141t3.5 -165
q1 -69 2.5 -141.5l3 -145t4 -144t5.5 -138.5q1 -35 3 -62t10.5 -46.5t25 -30.5t48.5 -12l69 -6q7 -7 9.5 -18t1.5 -22.5t-5.5 -21.5t-11.5 -14q-126 6 -241 6q-53 0 -119 -1t-129 -5q-14 13 -16.5 37t11.5 39l63 6q28 4 45 15.5t26 31t12.5 47.5t3.5 64q-1 94 -1.5 194.5
t-1.5 202.5t-1.5 203t-1.5 197q-9 -18 -21.5 -42.5t-25.5 -51t-26 -53.5t-24 -50v1q-3 -7 -6.5 -14.5t-6.5 -14.5l-180 -352q-33 -66 -65.5 -133t-61.5 -128t-52.5 -112.5t-38.5 -85.5q-11 -15 -31 -15q-5 0 -14 3.5t-16 10.5q-9 29 -24 67t-33.5 80t-39 85t-38.5 82
q-12 25 -23.5 48.5t-19.5 41.5q-45 96 -90.5 195t-89.5 195q-15 32 -30 65t-29 67q-14 30 -26.5 59.5t-26.5 58.5q-5 -83 -9.5 -160t-7.5 -155q-2 -47 -4.5 -101t-4.5 -117t-3.5 -126.5t-1.5 -127.5q0 -52 2.5 -85.5t11 -53t24 -27.5t41.5 -9l80 -6q7 -8 10 -19.5t2 -23
t-5.5 -21t-11.5 -12.5q-53 4 -109.5 5t-116.5 1q-48 0 -101.5 -1t-107.5 -5q-8 6 -12.5 16.5t-5 21.5t2 21.5t10.5 16.5l47 6q29 3 49 10t33 23t20.5 44.5t11.5 75.5q2 29 4.5 58.5t5.5 57.5q6 67 12.5 145.5t12.5 182.5v21q7 114 12 223q2 26 3 50t2 47q2 29 2.5 56t2.5 51
q0 7 0.5 16.5t0.5 14.5q0 34 -5.5 56.5t-20 37t-38.5 22t-61 13.5q-8 1 -18 2t-18 2q-6 7 -8.5 18.5t-1 22.5t6.5 20.5t14 14.5q47 -4 85.5 -5t76.5 -1q35 0 83 1.5t99 5.5q-4 -36 2.5 -76t19.5 -81q14 -40 35 -87t44 -96z" />
    </font>
</defs>
</svg>
